M48
;GenerationSoftware,Autodesk,EAGLE,9.6.2*%
;CreationDate,2023-06-09T15:11:30Z*%
FMAT,2
ICI,OFF
METRIC,TZ,000.000
T2C0.350
T1C1.016
%
G90
M71
T1
X48260Y56111
X45720Y56111
X43180Y56111
X3175Y64480
X3175Y67020
X3175Y69560
X3175Y72100
X3175Y74640
X43180Y63210
X45720Y63210
X48260Y63210
X50800Y63210
X53340Y63210
X55880Y63210
X58420Y63210
X60960Y63210
X60960Y75910
X58420Y75910
X53340Y23609
X55880Y75910
X53340Y75910
X50800Y75910
X48260Y75910
X45720Y75910
X43180Y75910
X3175Y84280
X3175Y86820
X3175Y91900
X3175Y94440
X43180Y83010
X45720Y83010
X48260Y83010
X50800Y83010
X53340Y83010
X55880Y83010
X58420Y83010
X60960Y83010
X60960Y95710
X58420Y95710
X55880Y95710
X53340Y95710
X50800Y95710
X48260Y95710
X45720Y95710
X43180Y95710
X3175Y5080
X3175Y7620
X3175Y10160
X3175Y12700
X3175Y15240
X43180Y3810
X45720Y3810
X48260Y3810
X50800Y3810
X53340Y3810
X55880Y3810
X58420Y3810
X60960Y3810
X60960Y16510
X58420Y16510
X55880Y16510
X53340Y16510
X50800Y16510
X48260Y16510
X45720Y16510
X43180Y16510
X3175Y24879
X3175Y27419
X3175Y29959
X3175Y32499
X3175Y35039
X43180Y23609
X45720Y23609
X48260Y23609
X50800Y23609
X3175Y89360
X55880Y23609
X58420Y23609
X60960Y23609
X60960Y36309
X58420Y36309
X55880Y36309
X53340Y36309
X50800Y36309
X48260Y36309
X45720Y36309
X43180Y36309
X3175Y44681
X3175Y47221
X3175Y49761
X3175Y52301
X3175Y54841
X43180Y43411
X45720Y43411
X48260Y43411
X50800Y43411
X53340Y43411
X55880Y43411
X58420Y43411
X60960Y43411
X60960Y56111
X58420Y56111
X55880Y56111
X53340Y56111
X50800Y56111
T2
X33782Y5588
X31750Y1778
X34798Y2286
X37338Y4572
X25527Y12573
X26670Y12700
X27178Y13589
X28067Y14478
X29718Y5080
X33782Y25387
X31750Y21577
X34798Y22085
X37338Y24371
X25527Y32372
X26670Y32499
X27178Y33388
X28067Y34277
X29718Y24879
X31750Y41379
X34798Y41887
X37338Y44173
X25527Y52174
X26670Y52301
X27178Y53190
X28067Y54079
X29718Y44681
X33782Y64988
X31750Y61178
X34798Y61686
X37338Y63972
X25527Y71973
X26670Y72100
X27178Y72989
X28067Y73878
X29718Y64480
X33782Y84788
X31750Y80978
X34798Y81486
X37338Y83772
X25527Y91773
X26670Y91900
X27178Y92789
X28067Y93678
X29718Y84280
X33782Y45189
M30