G04 EAGLE Gerber RS-274X export*
G75*
%MOMM*%
%FSLAX34Y34*%
%LPD*%
%INTop Solder Mask*%
%IPPOS*%
%AMOC8*
5,1,8,0,0,1.08239X$1,22.5*%
G01*
%ADD10C,0.800100*%
%ADD11C,1.625600*%


D10*
X153734Y40060D02*
X153734Y27740D01*
X151066Y27740D01*
X151066Y40060D01*
X153734Y40060D01*
X153734Y35341D02*
X151066Y35341D01*
X168734Y40060D02*
X168734Y27740D01*
X166066Y27740D01*
X166066Y40060D01*
X168734Y40060D01*
X168734Y35341D02*
X166066Y35341D01*
X183734Y40060D02*
X183734Y27740D01*
X181066Y27740D01*
X181066Y40060D01*
X183734Y40060D01*
X183734Y35341D02*
X181066Y35341D01*
X198734Y40060D02*
X198734Y27740D01*
X196066Y27740D01*
X196066Y40060D01*
X198734Y40060D01*
X198734Y35341D02*
X196066Y35341D01*
X213734Y40060D02*
X213734Y27740D01*
X211066Y27740D01*
X211066Y40060D01*
X213734Y40060D01*
X213734Y35341D02*
X211066Y35341D01*
X228734Y40060D02*
X228734Y27740D01*
X226066Y27740D01*
X226066Y40060D01*
X228734Y40060D01*
X228734Y35341D02*
X226066Y35341D01*
X243734Y40060D02*
X243734Y27740D01*
X241066Y27740D01*
X241066Y40060D01*
X243734Y40060D01*
X243734Y35341D02*
X241066Y35341D01*
X258734Y40060D02*
X258734Y27740D01*
X256066Y27740D01*
X256066Y40060D01*
X258734Y40060D01*
X258734Y35341D02*
X256066Y35341D01*
X273734Y40060D02*
X273734Y27740D01*
X271066Y27740D01*
X271066Y40060D01*
X273734Y40060D01*
X273734Y35341D02*
X271066Y35341D01*
X288734Y40060D02*
X288734Y27740D01*
X286066Y27740D01*
X286066Y40060D01*
X288734Y40060D01*
X288734Y35341D02*
X286066Y35341D01*
X303734Y40060D02*
X303734Y27740D01*
X301066Y27740D01*
X301066Y40060D01*
X303734Y40060D01*
X303734Y35341D02*
X301066Y35341D01*
X318734Y40060D02*
X318734Y27740D01*
X316066Y27740D01*
X316066Y40060D01*
X318734Y40060D01*
X318734Y35341D02*
X316066Y35341D01*
X333734Y40060D02*
X333734Y27740D01*
X331066Y27740D01*
X331066Y40060D01*
X333734Y40060D01*
X333734Y35341D02*
X331066Y35341D01*
X346940Y50634D02*
X359260Y50634D01*
X359260Y47966D01*
X346940Y47966D01*
X346940Y50634D01*
X346940Y65634D02*
X359260Y65634D01*
X359260Y62966D01*
X346940Y62966D01*
X346940Y65634D01*
X346940Y80634D02*
X359260Y80634D01*
X359260Y77966D01*
X346940Y77966D01*
X346940Y80634D01*
X346940Y95634D02*
X359260Y95634D01*
X359260Y92966D01*
X346940Y92966D01*
X346940Y95634D01*
X346940Y110634D02*
X359260Y110634D01*
X359260Y107966D01*
X346940Y107966D01*
X346940Y110634D01*
X346940Y125634D02*
X359260Y125634D01*
X359260Y122966D01*
X346940Y122966D01*
X346940Y125634D01*
X346940Y140634D02*
X359260Y140634D01*
X359260Y137966D01*
X346940Y137966D01*
X346940Y140634D01*
X346940Y155634D02*
X359260Y155634D01*
X359260Y152966D01*
X346940Y152966D01*
X346940Y155634D01*
X331066Y163140D02*
X331066Y175460D01*
X333734Y175460D01*
X333734Y163140D01*
X331066Y163140D01*
X331066Y170741D02*
X333734Y170741D01*
X316066Y175460D02*
X316066Y163140D01*
X316066Y175460D02*
X318734Y175460D01*
X318734Y163140D01*
X316066Y163140D01*
X316066Y170741D02*
X318734Y170741D01*
X301066Y175460D02*
X301066Y163140D01*
X301066Y175460D02*
X303734Y175460D01*
X303734Y163140D01*
X301066Y163140D01*
X301066Y170741D02*
X303734Y170741D01*
X286066Y175460D02*
X286066Y163140D01*
X286066Y175460D02*
X288734Y175460D01*
X288734Y163140D01*
X286066Y163140D01*
X286066Y170741D02*
X288734Y170741D01*
X271066Y175460D02*
X271066Y163140D01*
X271066Y175460D02*
X273734Y175460D01*
X273734Y163140D01*
X271066Y163140D01*
X271066Y170741D02*
X273734Y170741D01*
X256066Y175460D02*
X256066Y163140D01*
X256066Y175460D02*
X258734Y175460D01*
X258734Y163140D01*
X256066Y163140D01*
X256066Y170741D02*
X258734Y170741D01*
X241066Y175460D02*
X241066Y163140D01*
X241066Y175460D02*
X243734Y175460D01*
X243734Y163140D01*
X241066Y163140D01*
X241066Y170741D02*
X243734Y170741D01*
X226066Y175460D02*
X226066Y163140D01*
X226066Y175460D02*
X228734Y175460D01*
X228734Y163140D01*
X226066Y163140D01*
X226066Y170741D02*
X228734Y170741D01*
X211066Y175460D02*
X211066Y163140D01*
X211066Y175460D02*
X213734Y175460D01*
X213734Y163140D01*
X211066Y163140D01*
X211066Y170741D02*
X213734Y170741D01*
X196066Y175460D02*
X196066Y163140D01*
X196066Y175460D02*
X198734Y175460D01*
X198734Y163140D01*
X196066Y163140D01*
X196066Y170741D02*
X198734Y170741D01*
X181066Y175460D02*
X181066Y163140D01*
X181066Y175460D02*
X183734Y175460D01*
X183734Y163140D01*
X181066Y163140D01*
X181066Y170741D02*
X183734Y170741D01*
X166066Y175460D02*
X166066Y163140D01*
X166066Y175460D02*
X168734Y175460D01*
X168734Y163140D01*
X166066Y163140D01*
X166066Y170741D02*
X168734Y170741D01*
X151066Y175460D02*
X151066Y163140D01*
X151066Y175460D02*
X153734Y175460D01*
X153734Y163140D01*
X151066Y163140D01*
X151066Y170741D02*
X153734Y170741D01*
D11*
X39370Y50800D02*
X24130Y50800D01*
X24130Y76200D02*
X39370Y76200D01*
X39370Y101600D02*
X24130Y101600D01*
X24130Y127000D02*
X39370Y127000D01*
X39370Y152400D02*
X24130Y152400D01*
X431800Y45720D02*
X431800Y30480D01*
X457200Y30480D02*
X457200Y45720D01*
X482600Y45720D02*
X482600Y30480D01*
X508000Y30480D02*
X508000Y45720D01*
X533400Y45720D02*
X533400Y30480D01*
X558800Y30480D02*
X558800Y45720D01*
X584200Y45720D02*
X584200Y30480D01*
X609600Y30480D02*
X609600Y45720D01*
X609600Y157480D02*
X609600Y172720D01*
X584200Y172720D02*
X584200Y157480D01*
X558800Y157480D02*
X558800Y172720D01*
X533400Y172720D02*
X533400Y157480D01*
X508000Y157480D02*
X508000Y172720D01*
X482600Y172720D02*
X482600Y157480D01*
X457200Y157480D02*
X457200Y172720D01*
X431800Y172720D02*
X431800Y157480D01*
D10*
X153734Y225733D02*
X153734Y238053D01*
X153734Y225733D02*
X151066Y225733D01*
X151066Y238053D01*
X153734Y238053D01*
X153734Y233334D02*
X151066Y233334D01*
X168734Y238053D02*
X168734Y225733D01*
X166066Y225733D01*
X166066Y238053D01*
X168734Y238053D01*
X168734Y233334D02*
X166066Y233334D01*
X183734Y238053D02*
X183734Y225733D01*
X181066Y225733D01*
X181066Y238053D01*
X183734Y238053D01*
X183734Y233334D02*
X181066Y233334D01*
X198734Y238053D02*
X198734Y225733D01*
X196066Y225733D01*
X196066Y238053D01*
X198734Y238053D01*
X198734Y233334D02*
X196066Y233334D01*
X213734Y238053D02*
X213734Y225733D01*
X211066Y225733D01*
X211066Y238053D01*
X213734Y238053D01*
X213734Y233334D02*
X211066Y233334D01*
X228734Y238053D02*
X228734Y225733D01*
X226066Y225733D01*
X226066Y238053D01*
X228734Y238053D01*
X228734Y233334D02*
X226066Y233334D01*
X243734Y238053D02*
X243734Y225733D01*
X241066Y225733D01*
X241066Y238053D01*
X243734Y238053D01*
X243734Y233334D02*
X241066Y233334D01*
X258734Y238053D02*
X258734Y225733D01*
X256066Y225733D01*
X256066Y238053D01*
X258734Y238053D01*
X258734Y233334D02*
X256066Y233334D01*
X273734Y238053D02*
X273734Y225733D01*
X271066Y225733D01*
X271066Y238053D01*
X273734Y238053D01*
X273734Y233334D02*
X271066Y233334D01*
X288734Y238053D02*
X288734Y225733D01*
X286066Y225733D01*
X286066Y238053D01*
X288734Y238053D01*
X288734Y233334D02*
X286066Y233334D01*
X303734Y238053D02*
X303734Y225733D01*
X301066Y225733D01*
X301066Y238053D01*
X303734Y238053D01*
X303734Y233334D02*
X301066Y233334D01*
X318734Y238053D02*
X318734Y225733D01*
X316066Y225733D01*
X316066Y238053D01*
X318734Y238053D01*
X318734Y233334D02*
X316066Y233334D01*
X333734Y238053D02*
X333734Y225733D01*
X331066Y225733D01*
X331066Y238053D01*
X333734Y238053D01*
X333734Y233334D02*
X331066Y233334D01*
X346940Y248627D02*
X359260Y248627D01*
X359260Y245959D01*
X346940Y245959D01*
X346940Y248627D01*
X346940Y263627D02*
X359260Y263627D01*
X359260Y260959D01*
X346940Y260959D01*
X346940Y263627D01*
X346940Y278627D02*
X359260Y278627D01*
X359260Y275959D01*
X346940Y275959D01*
X346940Y278627D01*
X346940Y293627D02*
X359260Y293627D01*
X359260Y290959D01*
X346940Y290959D01*
X346940Y293627D01*
X346940Y308627D02*
X359260Y308627D01*
X359260Y305959D01*
X346940Y305959D01*
X346940Y308627D01*
X346940Y323627D02*
X359260Y323627D01*
X359260Y320959D01*
X346940Y320959D01*
X346940Y323627D01*
X346940Y338627D02*
X359260Y338627D01*
X359260Y335959D01*
X346940Y335959D01*
X346940Y338627D01*
X346940Y353627D02*
X359260Y353627D01*
X359260Y350959D01*
X346940Y350959D01*
X346940Y353627D01*
X331066Y361133D02*
X331066Y373453D01*
X333734Y373453D01*
X333734Y361133D01*
X331066Y361133D01*
X331066Y368734D02*
X333734Y368734D01*
X316066Y373453D02*
X316066Y361133D01*
X316066Y373453D02*
X318734Y373453D01*
X318734Y361133D01*
X316066Y361133D01*
X316066Y368734D02*
X318734Y368734D01*
X301066Y373453D02*
X301066Y361133D01*
X301066Y373453D02*
X303734Y373453D01*
X303734Y361133D01*
X301066Y361133D01*
X301066Y368734D02*
X303734Y368734D01*
X286066Y373453D02*
X286066Y361133D01*
X286066Y373453D02*
X288734Y373453D01*
X288734Y361133D01*
X286066Y361133D01*
X286066Y368734D02*
X288734Y368734D01*
X271066Y373453D02*
X271066Y361133D01*
X271066Y373453D02*
X273734Y373453D01*
X273734Y361133D01*
X271066Y361133D01*
X271066Y368734D02*
X273734Y368734D01*
X256066Y373453D02*
X256066Y361133D01*
X256066Y373453D02*
X258734Y373453D01*
X258734Y361133D01*
X256066Y361133D01*
X256066Y368734D02*
X258734Y368734D01*
X241066Y373453D02*
X241066Y361133D01*
X241066Y373453D02*
X243734Y373453D01*
X243734Y361133D01*
X241066Y361133D01*
X241066Y368734D02*
X243734Y368734D01*
X226066Y373453D02*
X226066Y361133D01*
X226066Y373453D02*
X228734Y373453D01*
X228734Y361133D01*
X226066Y361133D01*
X226066Y368734D02*
X228734Y368734D01*
X211066Y373453D02*
X211066Y361133D01*
X211066Y373453D02*
X213734Y373453D01*
X213734Y361133D01*
X211066Y361133D01*
X211066Y368734D02*
X213734Y368734D01*
X196066Y373453D02*
X196066Y361133D01*
X196066Y373453D02*
X198734Y373453D01*
X198734Y361133D01*
X196066Y361133D01*
X196066Y368734D02*
X198734Y368734D01*
X181066Y373453D02*
X181066Y361133D01*
X181066Y373453D02*
X183734Y373453D01*
X183734Y361133D01*
X181066Y361133D01*
X181066Y368734D02*
X183734Y368734D01*
X166066Y373453D02*
X166066Y361133D01*
X166066Y373453D02*
X168734Y373453D01*
X168734Y361133D01*
X166066Y361133D01*
X166066Y368734D02*
X168734Y368734D01*
X151066Y373453D02*
X151066Y361133D01*
X151066Y373453D02*
X153734Y373453D01*
X153734Y361133D01*
X151066Y361133D01*
X151066Y368734D02*
X153734Y368734D01*
D11*
X39370Y248793D02*
X24130Y248793D01*
X24130Y274193D02*
X39370Y274193D01*
X39370Y299593D02*
X24130Y299593D01*
X24130Y324993D02*
X39370Y324993D01*
X39370Y350393D02*
X24130Y350393D01*
X431800Y243713D02*
X431800Y228473D01*
X457200Y228473D02*
X457200Y243713D01*
X482600Y243713D02*
X482600Y228473D01*
X508000Y228473D02*
X508000Y243713D01*
X533400Y243713D02*
X533400Y228473D01*
X558800Y228473D02*
X558800Y243713D01*
X584200Y243713D02*
X584200Y228473D01*
X609600Y228473D02*
X609600Y243713D01*
X609600Y355473D02*
X609600Y370713D01*
X584200Y370713D02*
X584200Y355473D01*
X558800Y355473D02*
X558800Y370713D01*
X533400Y370713D02*
X533400Y355473D01*
X508000Y355473D02*
X508000Y370713D01*
X482600Y370713D02*
X482600Y355473D01*
X457200Y355473D02*
X457200Y370713D01*
X431800Y370713D02*
X431800Y355473D01*
D10*
X153734Y423751D02*
X153734Y436071D01*
X153734Y423751D02*
X151066Y423751D01*
X151066Y436071D01*
X153734Y436071D01*
X153734Y431352D02*
X151066Y431352D01*
X168734Y436071D02*
X168734Y423751D01*
X166066Y423751D01*
X166066Y436071D01*
X168734Y436071D01*
X168734Y431352D02*
X166066Y431352D01*
X183734Y436071D02*
X183734Y423751D01*
X181066Y423751D01*
X181066Y436071D01*
X183734Y436071D01*
X183734Y431352D02*
X181066Y431352D01*
X198734Y436071D02*
X198734Y423751D01*
X196066Y423751D01*
X196066Y436071D01*
X198734Y436071D01*
X198734Y431352D02*
X196066Y431352D01*
X213734Y436071D02*
X213734Y423751D01*
X211066Y423751D01*
X211066Y436071D01*
X213734Y436071D01*
X213734Y431352D02*
X211066Y431352D01*
X228734Y436071D02*
X228734Y423751D01*
X226066Y423751D01*
X226066Y436071D01*
X228734Y436071D01*
X228734Y431352D02*
X226066Y431352D01*
X243734Y436071D02*
X243734Y423751D01*
X241066Y423751D01*
X241066Y436071D01*
X243734Y436071D01*
X243734Y431352D02*
X241066Y431352D01*
X258734Y436071D02*
X258734Y423751D01*
X256066Y423751D01*
X256066Y436071D01*
X258734Y436071D01*
X258734Y431352D02*
X256066Y431352D01*
X273734Y436071D02*
X273734Y423751D01*
X271066Y423751D01*
X271066Y436071D01*
X273734Y436071D01*
X273734Y431352D02*
X271066Y431352D01*
X288734Y436071D02*
X288734Y423751D01*
X286066Y423751D01*
X286066Y436071D01*
X288734Y436071D01*
X288734Y431352D02*
X286066Y431352D01*
X303734Y436071D02*
X303734Y423751D01*
X301066Y423751D01*
X301066Y436071D01*
X303734Y436071D01*
X303734Y431352D02*
X301066Y431352D01*
X318734Y436071D02*
X318734Y423751D01*
X316066Y423751D01*
X316066Y436071D01*
X318734Y436071D01*
X318734Y431352D02*
X316066Y431352D01*
X333734Y436071D02*
X333734Y423751D01*
X331066Y423751D01*
X331066Y436071D01*
X333734Y436071D01*
X333734Y431352D02*
X331066Y431352D01*
X346940Y446645D02*
X359260Y446645D01*
X359260Y443977D01*
X346940Y443977D01*
X346940Y446645D01*
X346940Y461645D02*
X359260Y461645D01*
X359260Y458977D01*
X346940Y458977D01*
X346940Y461645D01*
X346940Y476645D02*
X359260Y476645D01*
X359260Y473977D01*
X346940Y473977D01*
X346940Y476645D01*
X346940Y491645D02*
X359260Y491645D01*
X359260Y488977D01*
X346940Y488977D01*
X346940Y491645D01*
X346940Y506645D02*
X359260Y506645D01*
X359260Y503977D01*
X346940Y503977D01*
X346940Y506645D01*
X346940Y521645D02*
X359260Y521645D01*
X359260Y518977D01*
X346940Y518977D01*
X346940Y521645D01*
X346940Y536645D02*
X359260Y536645D01*
X359260Y533977D01*
X346940Y533977D01*
X346940Y536645D01*
X346940Y551645D02*
X359260Y551645D01*
X359260Y548977D01*
X346940Y548977D01*
X346940Y551645D01*
X331066Y559151D02*
X331066Y571471D01*
X333734Y571471D01*
X333734Y559151D01*
X331066Y559151D01*
X331066Y566752D02*
X333734Y566752D01*
X316066Y571471D02*
X316066Y559151D01*
X316066Y571471D02*
X318734Y571471D01*
X318734Y559151D01*
X316066Y559151D01*
X316066Y566752D02*
X318734Y566752D01*
X301066Y571471D02*
X301066Y559151D01*
X301066Y571471D02*
X303734Y571471D01*
X303734Y559151D01*
X301066Y559151D01*
X301066Y566752D02*
X303734Y566752D01*
X286066Y571471D02*
X286066Y559151D01*
X286066Y571471D02*
X288734Y571471D01*
X288734Y559151D01*
X286066Y559151D01*
X286066Y566752D02*
X288734Y566752D01*
X271066Y571471D02*
X271066Y559151D01*
X271066Y571471D02*
X273734Y571471D01*
X273734Y559151D01*
X271066Y559151D01*
X271066Y566752D02*
X273734Y566752D01*
X256066Y571471D02*
X256066Y559151D01*
X256066Y571471D02*
X258734Y571471D01*
X258734Y559151D01*
X256066Y559151D01*
X256066Y566752D02*
X258734Y566752D01*
X241066Y571471D02*
X241066Y559151D01*
X241066Y571471D02*
X243734Y571471D01*
X243734Y559151D01*
X241066Y559151D01*
X241066Y566752D02*
X243734Y566752D01*
X226066Y571471D02*
X226066Y559151D01*
X226066Y571471D02*
X228734Y571471D01*
X228734Y559151D01*
X226066Y559151D01*
X226066Y566752D02*
X228734Y566752D01*
X211066Y571471D02*
X211066Y559151D01*
X211066Y571471D02*
X213734Y571471D01*
X213734Y559151D01*
X211066Y559151D01*
X211066Y566752D02*
X213734Y566752D01*
X196066Y571471D02*
X196066Y559151D01*
X196066Y571471D02*
X198734Y571471D01*
X198734Y559151D01*
X196066Y559151D01*
X196066Y566752D02*
X198734Y566752D01*
X181066Y571471D02*
X181066Y559151D01*
X181066Y571471D02*
X183734Y571471D01*
X183734Y559151D01*
X181066Y559151D01*
X181066Y566752D02*
X183734Y566752D01*
X166066Y571471D02*
X166066Y559151D01*
X166066Y571471D02*
X168734Y571471D01*
X168734Y559151D01*
X166066Y559151D01*
X166066Y566752D02*
X168734Y566752D01*
X151066Y571471D02*
X151066Y559151D01*
X151066Y571471D02*
X153734Y571471D01*
X153734Y559151D01*
X151066Y559151D01*
X151066Y566752D02*
X153734Y566752D01*
D11*
X39370Y446811D02*
X24130Y446811D01*
X24130Y472211D02*
X39370Y472211D01*
X39370Y497611D02*
X24130Y497611D01*
X24130Y523011D02*
X39370Y523011D01*
X39370Y548411D02*
X24130Y548411D01*
X431800Y441731D02*
X431800Y426491D01*
X457200Y426491D02*
X457200Y441731D01*
X482600Y441731D02*
X482600Y426491D01*
X508000Y426491D02*
X508000Y441731D01*
X533400Y441731D02*
X533400Y426491D01*
X558800Y426491D02*
X558800Y441731D01*
X584200Y441731D02*
X584200Y426491D01*
X609600Y426491D02*
X609600Y441731D01*
X609600Y553491D02*
X609600Y568731D01*
X584200Y568731D02*
X584200Y553491D01*
X558800Y553491D02*
X558800Y568731D01*
X533400Y568731D02*
X533400Y553491D01*
X508000Y553491D02*
X508000Y568731D01*
X482600Y568731D02*
X482600Y553491D01*
X457200Y553491D02*
X457200Y568731D01*
X431800Y568731D02*
X431800Y553491D01*
D10*
X153734Y621744D02*
X153734Y634064D01*
X153734Y621744D02*
X151066Y621744D01*
X151066Y634064D01*
X153734Y634064D01*
X153734Y629345D02*
X151066Y629345D01*
X168734Y634064D02*
X168734Y621744D01*
X166066Y621744D01*
X166066Y634064D01*
X168734Y634064D01*
X168734Y629345D02*
X166066Y629345D01*
X183734Y634064D02*
X183734Y621744D01*
X181066Y621744D01*
X181066Y634064D01*
X183734Y634064D01*
X183734Y629345D02*
X181066Y629345D01*
X198734Y634064D02*
X198734Y621744D01*
X196066Y621744D01*
X196066Y634064D01*
X198734Y634064D01*
X198734Y629345D02*
X196066Y629345D01*
X213734Y634064D02*
X213734Y621744D01*
X211066Y621744D01*
X211066Y634064D01*
X213734Y634064D01*
X213734Y629345D02*
X211066Y629345D01*
X228734Y634064D02*
X228734Y621744D01*
X226066Y621744D01*
X226066Y634064D01*
X228734Y634064D01*
X228734Y629345D02*
X226066Y629345D01*
X243734Y634064D02*
X243734Y621744D01*
X241066Y621744D01*
X241066Y634064D01*
X243734Y634064D01*
X243734Y629345D02*
X241066Y629345D01*
X258734Y634064D02*
X258734Y621744D01*
X256066Y621744D01*
X256066Y634064D01*
X258734Y634064D01*
X258734Y629345D02*
X256066Y629345D01*
X273734Y634064D02*
X273734Y621744D01*
X271066Y621744D01*
X271066Y634064D01*
X273734Y634064D01*
X273734Y629345D02*
X271066Y629345D01*
X288734Y634064D02*
X288734Y621744D01*
X286066Y621744D01*
X286066Y634064D01*
X288734Y634064D01*
X288734Y629345D02*
X286066Y629345D01*
X303734Y634064D02*
X303734Y621744D01*
X301066Y621744D01*
X301066Y634064D01*
X303734Y634064D01*
X303734Y629345D02*
X301066Y629345D01*
X318734Y634064D02*
X318734Y621744D01*
X316066Y621744D01*
X316066Y634064D01*
X318734Y634064D01*
X318734Y629345D02*
X316066Y629345D01*
X333734Y634064D02*
X333734Y621744D01*
X331066Y621744D01*
X331066Y634064D01*
X333734Y634064D01*
X333734Y629345D02*
X331066Y629345D01*
X346940Y644638D02*
X359260Y644638D01*
X359260Y641970D01*
X346940Y641970D01*
X346940Y644638D01*
X346940Y659638D02*
X359260Y659638D01*
X359260Y656970D01*
X346940Y656970D01*
X346940Y659638D01*
X346940Y674638D02*
X359260Y674638D01*
X359260Y671970D01*
X346940Y671970D01*
X346940Y674638D01*
X346940Y689638D02*
X359260Y689638D01*
X359260Y686970D01*
X346940Y686970D01*
X346940Y689638D01*
X346940Y704638D02*
X359260Y704638D01*
X359260Y701970D01*
X346940Y701970D01*
X346940Y704638D01*
X346940Y719638D02*
X359260Y719638D01*
X359260Y716970D01*
X346940Y716970D01*
X346940Y719638D01*
X346940Y734638D02*
X359260Y734638D01*
X359260Y731970D01*
X346940Y731970D01*
X346940Y734638D01*
X346940Y749638D02*
X359260Y749638D01*
X359260Y746970D01*
X346940Y746970D01*
X346940Y749638D01*
X331066Y757144D02*
X331066Y769464D01*
X333734Y769464D01*
X333734Y757144D01*
X331066Y757144D01*
X331066Y764745D02*
X333734Y764745D01*
X316066Y769464D02*
X316066Y757144D01*
X316066Y769464D02*
X318734Y769464D01*
X318734Y757144D01*
X316066Y757144D01*
X316066Y764745D02*
X318734Y764745D01*
X301066Y769464D02*
X301066Y757144D01*
X301066Y769464D02*
X303734Y769464D01*
X303734Y757144D01*
X301066Y757144D01*
X301066Y764745D02*
X303734Y764745D01*
X286066Y769464D02*
X286066Y757144D01*
X286066Y769464D02*
X288734Y769464D01*
X288734Y757144D01*
X286066Y757144D01*
X286066Y764745D02*
X288734Y764745D01*
X271066Y769464D02*
X271066Y757144D01*
X271066Y769464D02*
X273734Y769464D01*
X273734Y757144D01*
X271066Y757144D01*
X271066Y764745D02*
X273734Y764745D01*
X256066Y769464D02*
X256066Y757144D01*
X256066Y769464D02*
X258734Y769464D01*
X258734Y757144D01*
X256066Y757144D01*
X256066Y764745D02*
X258734Y764745D01*
X241066Y769464D02*
X241066Y757144D01*
X241066Y769464D02*
X243734Y769464D01*
X243734Y757144D01*
X241066Y757144D01*
X241066Y764745D02*
X243734Y764745D01*
X226066Y769464D02*
X226066Y757144D01*
X226066Y769464D02*
X228734Y769464D01*
X228734Y757144D01*
X226066Y757144D01*
X226066Y764745D02*
X228734Y764745D01*
X211066Y769464D02*
X211066Y757144D01*
X211066Y769464D02*
X213734Y769464D01*
X213734Y757144D01*
X211066Y757144D01*
X211066Y764745D02*
X213734Y764745D01*
X196066Y769464D02*
X196066Y757144D01*
X196066Y769464D02*
X198734Y769464D01*
X198734Y757144D01*
X196066Y757144D01*
X196066Y764745D02*
X198734Y764745D01*
X181066Y769464D02*
X181066Y757144D01*
X181066Y769464D02*
X183734Y769464D01*
X183734Y757144D01*
X181066Y757144D01*
X181066Y764745D02*
X183734Y764745D01*
X166066Y769464D02*
X166066Y757144D01*
X166066Y769464D02*
X168734Y769464D01*
X168734Y757144D01*
X166066Y757144D01*
X166066Y764745D02*
X168734Y764745D01*
X151066Y769464D02*
X151066Y757144D01*
X151066Y769464D02*
X153734Y769464D01*
X153734Y757144D01*
X151066Y757144D01*
X151066Y764745D02*
X153734Y764745D01*
D11*
X39370Y644804D02*
X24130Y644804D01*
X24130Y670204D02*
X39370Y670204D01*
X39370Y695604D02*
X24130Y695604D01*
X24130Y721004D02*
X39370Y721004D01*
X39370Y746404D02*
X24130Y746404D01*
X431800Y639724D02*
X431800Y624484D01*
X457200Y624484D02*
X457200Y639724D01*
X482600Y639724D02*
X482600Y624484D01*
X508000Y624484D02*
X508000Y639724D01*
X533400Y639724D02*
X533400Y624484D01*
X558800Y624484D02*
X558800Y639724D01*
X584200Y639724D02*
X584200Y624484D01*
X609600Y624484D02*
X609600Y639724D01*
X609600Y751484D02*
X609600Y766724D01*
X584200Y766724D02*
X584200Y751484D01*
X558800Y751484D02*
X558800Y766724D01*
X533400Y766724D02*
X533400Y751484D01*
X508000Y751484D02*
X508000Y766724D01*
X482600Y766724D02*
X482600Y751484D01*
X457200Y751484D02*
X457200Y766724D01*
X431800Y766724D02*
X431800Y751484D01*
D10*
X153734Y819737D02*
X153734Y832057D01*
X153734Y819737D02*
X151066Y819737D01*
X151066Y832057D01*
X153734Y832057D01*
X153734Y827338D02*
X151066Y827338D01*
X168734Y832057D02*
X168734Y819737D01*
X166066Y819737D01*
X166066Y832057D01*
X168734Y832057D01*
X168734Y827338D02*
X166066Y827338D01*
X183734Y832057D02*
X183734Y819737D01*
X181066Y819737D01*
X181066Y832057D01*
X183734Y832057D01*
X183734Y827338D02*
X181066Y827338D01*
X198734Y832057D02*
X198734Y819737D01*
X196066Y819737D01*
X196066Y832057D01*
X198734Y832057D01*
X198734Y827338D02*
X196066Y827338D01*
X213734Y832057D02*
X213734Y819737D01*
X211066Y819737D01*
X211066Y832057D01*
X213734Y832057D01*
X213734Y827338D02*
X211066Y827338D01*
X228734Y832057D02*
X228734Y819737D01*
X226066Y819737D01*
X226066Y832057D01*
X228734Y832057D01*
X228734Y827338D02*
X226066Y827338D01*
X243734Y832057D02*
X243734Y819737D01*
X241066Y819737D01*
X241066Y832057D01*
X243734Y832057D01*
X243734Y827338D02*
X241066Y827338D01*
X258734Y832057D02*
X258734Y819737D01*
X256066Y819737D01*
X256066Y832057D01*
X258734Y832057D01*
X258734Y827338D02*
X256066Y827338D01*
X273734Y832057D02*
X273734Y819737D01*
X271066Y819737D01*
X271066Y832057D01*
X273734Y832057D01*
X273734Y827338D02*
X271066Y827338D01*
X288734Y832057D02*
X288734Y819737D01*
X286066Y819737D01*
X286066Y832057D01*
X288734Y832057D01*
X288734Y827338D02*
X286066Y827338D01*
X303734Y832057D02*
X303734Y819737D01*
X301066Y819737D01*
X301066Y832057D01*
X303734Y832057D01*
X303734Y827338D02*
X301066Y827338D01*
X318734Y832057D02*
X318734Y819737D01*
X316066Y819737D01*
X316066Y832057D01*
X318734Y832057D01*
X318734Y827338D02*
X316066Y827338D01*
X333734Y832057D02*
X333734Y819737D01*
X331066Y819737D01*
X331066Y832057D01*
X333734Y832057D01*
X333734Y827338D02*
X331066Y827338D01*
X346940Y842631D02*
X359260Y842631D01*
X359260Y839963D01*
X346940Y839963D01*
X346940Y842631D01*
X346940Y857631D02*
X359260Y857631D01*
X359260Y854963D01*
X346940Y854963D01*
X346940Y857631D01*
X346940Y872631D02*
X359260Y872631D01*
X359260Y869963D01*
X346940Y869963D01*
X346940Y872631D01*
X346940Y887631D02*
X359260Y887631D01*
X359260Y884963D01*
X346940Y884963D01*
X346940Y887631D01*
X346940Y902631D02*
X359260Y902631D01*
X359260Y899963D01*
X346940Y899963D01*
X346940Y902631D01*
X346940Y917631D02*
X359260Y917631D01*
X359260Y914963D01*
X346940Y914963D01*
X346940Y917631D01*
X346940Y932631D02*
X359260Y932631D01*
X359260Y929963D01*
X346940Y929963D01*
X346940Y932631D01*
X346940Y947631D02*
X359260Y947631D01*
X359260Y944963D01*
X346940Y944963D01*
X346940Y947631D01*
X331066Y955137D02*
X331066Y967457D01*
X333734Y967457D01*
X333734Y955137D01*
X331066Y955137D01*
X331066Y962738D02*
X333734Y962738D01*
X316066Y967457D02*
X316066Y955137D01*
X316066Y967457D02*
X318734Y967457D01*
X318734Y955137D01*
X316066Y955137D01*
X316066Y962738D02*
X318734Y962738D01*
X301066Y967457D02*
X301066Y955137D01*
X301066Y967457D02*
X303734Y967457D01*
X303734Y955137D01*
X301066Y955137D01*
X301066Y962738D02*
X303734Y962738D01*
X286066Y967457D02*
X286066Y955137D01*
X286066Y967457D02*
X288734Y967457D01*
X288734Y955137D01*
X286066Y955137D01*
X286066Y962738D02*
X288734Y962738D01*
X271066Y967457D02*
X271066Y955137D01*
X271066Y967457D02*
X273734Y967457D01*
X273734Y955137D01*
X271066Y955137D01*
X271066Y962738D02*
X273734Y962738D01*
X256066Y967457D02*
X256066Y955137D01*
X256066Y967457D02*
X258734Y967457D01*
X258734Y955137D01*
X256066Y955137D01*
X256066Y962738D02*
X258734Y962738D01*
X241066Y967457D02*
X241066Y955137D01*
X241066Y967457D02*
X243734Y967457D01*
X243734Y955137D01*
X241066Y955137D01*
X241066Y962738D02*
X243734Y962738D01*
X226066Y967457D02*
X226066Y955137D01*
X226066Y967457D02*
X228734Y967457D01*
X228734Y955137D01*
X226066Y955137D01*
X226066Y962738D02*
X228734Y962738D01*
X211066Y967457D02*
X211066Y955137D01*
X211066Y967457D02*
X213734Y967457D01*
X213734Y955137D01*
X211066Y955137D01*
X211066Y962738D02*
X213734Y962738D01*
X196066Y967457D02*
X196066Y955137D01*
X196066Y967457D02*
X198734Y967457D01*
X198734Y955137D01*
X196066Y955137D01*
X196066Y962738D02*
X198734Y962738D01*
X181066Y967457D02*
X181066Y955137D01*
X181066Y967457D02*
X183734Y967457D01*
X183734Y955137D01*
X181066Y955137D01*
X181066Y962738D02*
X183734Y962738D01*
X166066Y967457D02*
X166066Y955137D01*
X166066Y967457D02*
X168734Y967457D01*
X168734Y955137D01*
X166066Y955137D01*
X166066Y962738D02*
X168734Y962738D01*
X151066Y967457D02*
X151066Y955137D01*
X151066Y967457D02*
X153734Y967457D01*
X153734Y955137D01*
X151066Y955137D01*
X151066Y962738D02*
X153734Y962738D01*
D11*
X39370Y842797D02*
X24130Y842797D01*
X24130Y868197D02*
X39370Y868197D01*
X39370Y893597D02*
X24130Y893597D01*
X24130Y918997D02*
X39370Y918997D01*
X39370Y944397D02*
X24130Y944397D01*
X431800Y837717D02*
X431800Y822477D01*
X457200Y822477D02*
X457200Y837717D01*
X482600Y837717D02*
X482600Y822477D01*
X508000Y822477D02*
X508000Y837717D01*
X533400Y837717D02*
X533400Y822477D01*
X558800Y822477D02*
X558800Y837717D01*
X584200Y837717D02*
X584200Y822477D01*
X609600Y822477D02*
X609600Y837717D01*
X609600Y949477D02*
X609600Y964717D01*
X584200Y964717D02*
X584200Y949477D01*
X558800Y949477D02*
X558800Y964717D01*
X533400Y964717D02*
X533400Y949477D01*
X508000Y949477D02*
X508000Y964717D01*
X482600Y964717D02*
X482600Y949477D01*
X457200Y949477D02*
X457200Y964717D01*
X431800Y964717D02*
X431800Y949477D01*
M02*
