G04 EAGLE Gerber RS-274X export*
G75*
%MOMM*%
%FSLAX34Y34*%
%LPD*%
%INMechanical*%
%IPPOS*%
%AMOC8*
5,1,8,0,0,1.08239X$1,22.5*%
G01*
%ADD10C,0.000000*%
%ADD11C,0.279400*%
%ADD12C,0.254000*%


D10*
X0Y0D02*
X635510Y0D01*
X635510Y198020D01*
X0Y198020D01*
X0Y0D01*
X101600Y165100D02*
X101604Y165409D01*
X101615Y165718D01*
X101634Y166027D01*
X101660Y166335D01*
X101694Y166643D01*
X101735Y166949D01*
X101784Y167255D01*
X101840Y167559D01*
X101904Y167861D01*
X101975Y168162D01*
X102053Y168462D01*
X102138Y168759D01*
X102231Y169054D01*
X102331Y169347D01*
X102438Y169637D01*
X102552Y169924D01*
X102673Y170209D01*
X102801Y170491D01*
X102935Y170769D01*
X103077Y171044D01*
X103225Y171316D01*
X103380Y171583D01*
X103541Y171847D01*
X103708Y172107D01*
X103882Y172363D01*
X104062Y172615D01*
X104248Y172862D01*
X104440Y173104D01*
X104638Y173342D01*
X104841Y173575D01*
X105051Y173803D01*
X105265Y174025D01*
X105485Y174243D01*
X105711Y174455D01*
X105941Y174661D01*
X106176Y174862D01*
X106416Y175057D01*
X106661Y175246D01*
X106910Y175429D01*
X107164Y175606D01*
X107422Y175776D01*
X107684Y175941D01*
X107950Y176099D01*
X108220Y176250D01*
X108493Y176395D01*
X108770Y176533D01*
X109050Y176664D01*
X109333Y176788D01*
X109619Y176906D01*
X109908Y177016D01*
X110199Y177120D01*
X110493Y177216D01*
X110789Y177305D01*
X111088Y177387D01*
X111388Y177462D01*
X111690Y177529D01*
X111993Y177589D01*
X112298Y177641D01*
X112604Y177686D01*
X112911Y177724D01*
X113219Y177754D01*
X113527Y177776D01*
X113836Y177792D01*
X114145Y177799D01*
X114455Y177799D01*
X114764Y177792D01*
X115073Y177776D01*
X115381Y177754D01*
X115689Y177724D01*
X115996Y177686D01*
X116302Y177641D01*
X116607Y177589D01*
X116910Y177529D01*
X117212Y177462D01*
X117512Y177387D01*
X117811Y177305D01*
X118107Y177216D01*
X118401Y177120D01*
X118692Y177016D01*
X118981Y176906D01*
X119267Y176788D01*
X119550Y176664D01*
X119830Y176533D01*
X120107Y176395D01*
X120380Y176250D01*
X120650Y176099D01*
X120916Y175941D01*
X121178Y175776D01*
X121436Y175606D01*
X121690Y175429D01*
X121939Y175246D01*
X122184Y175057D01*
X122424Y174862D01*
X122659Y174661D01*
X122889Y174455D01*
X123115Y174243D01*
X123335Y174025D01*
X123549Y173803D01*
X123759Y173575D01*
X123962Y173342D01*
X124160Y173104D01*
X124352Y172862D01*
X124538Y172615D01*
X124718Y172363D01*
X124892Y172107D01*
X125059Y171847D01*
X125220Y171583D01*
X125375Y171316D01*
X125523Y171044D01*
X125665Y170769D01*
X125799Y170491D01*
X125927Y170209D01*
X126048Y169924D01*
X126162Y169637D01*
X126269Y169347D01*
X126369Y169054D01*
X126462Y168759D01*
X126547Y168462D01*
X126625Y168162D01*
X126696Y167861D01*
X126760Y167559D01*
X126816Y167255D01*
X126865Y166949D01*
X126906Y166643D01*
X126940Y166335D01*
X126966Y166027D01*
X126985Y165718D01*
X126996Y165409D01*
X127000Y165100D01*
X127000Y38100D02*
X126996Y37791D01*
X126985Y37482D01*
X126966Y37173D01*
X126940Y36865D01*
X126906Y36557D01*
X126865Y36251D01*
X126816Y35945D01*
X126760Y35641D01*
X126696Y35339D01*
X126625Y35038D01*
X126547Y34738D01*
X126462Y34441D01*
X126369Y34146D01*
X126269Y33853D01*
X126162Y33563D01*
X126048Y33276D01*
X125927Y32991D01*
X125799Y32709D01*
X125665Y32431D01*
X125523Y32156D01*
X125375Y31884D01*
X125220Y31617D01*
X125059Y31353D01*
X124892Y31093D01*
X124718Y30837D01*
X124538Y30585D01*
X124352Y30338D01*
X124160Y30096D01*
X123962Y29858D01*
X123759Y29625D01*
X123549Y29397D01*
X123335Y29175D01*
X123115Y28957D01*
X122889Y28745D01*
X122659Y28539D01*
X122424Y28338D01*
X122184Y28143D01*
X121939Y27954D01*
X121690Y27771D01*
X121436Y27594D01*
X121178Y27424D01*
X120916Y27259D01*
X120650Y27101D01*
X120380Y26950D01*
X120107Y26805D01*
X119830Y26667D01*
X119550Y26536D01*
X119267Y26412D01*
X118981Y26294D01*
X118692Y26184D01*
X118401Y26080D01*
X118107Y25984D01*
X117811Y25895D01*
X117512Y25813D01*
X117212Y25738D01*
X116910Y25671D01*
X116607Y25611D01*
X116302Y25559D01*
X115996Y25514D01*
X115689Y25476D01*
X115381Y25446D01*
X115073Y25424D01*
X114764Y25408D01*
X114455Y25401D01*
X114145Y25401D01*
X113836Y25408D01*
X113527Y25424D01*
X113219Y25446D01*
X112911Y25476D01*
X112604Y25514D01*
X112298Y25559D01*
X111993Y25611D01*
X111690Y25671D01*
X111388Y25738D01*
X111088Y25813D01*
X110789Y25895D01*
X110493Y25984D01*
X110199Y26080D01*
X109908Y26184D01*
X109619Y26294D01*
X109333Y26412D01*
X109050Y26536D01*
X108770Y26667D01*
X108493Y26805D01*
X108220Y26950D01*
X107950Y27101D01*
X107684Y27259D01*
X107422Y27424D01*
X107164Y27594D01*
X106910Y27771D01*
X106661Y27954D01*
X106416Y28143D01*
X106176Y28338D01*
X105941Y28539D01*
X105711Y28745D01*
X105485Y28957D01*
X105265Y29175D01*
X105051Y29397D01*
X104841Y29625D01*
X104638Y29858D01*
X104440Y30096D01*
X104248Y30338D01*
X104062Y30585D01*
X103882Y30837D01*
X103708Y31093D01*
X103541Y31353D01*
X103380Y31617D01*
X103225Y31884D01*
X103077Y32156D01*
X102935Y32431D01*
X102801Y32709D01*
X102673Y32991D01*
X102552Y33276D01*
X102438Y33563D01*
X102331Y33853D01*
X102231Y34146D01*
X102138Y34441D01*
X102053Y34738D01*
X101975Y35038D01*
X101904Y35339D01*
X101840Y35641D01*
X101784Y35945D01*
X101735Y36251D01*
X101694Y36557D01*
X101660Y36865D01*
X101634Y37173D01*
X101615Y37482D01*
X101604Y37791D01*
X101600Y38100D01*
X101600Y165100D01*
X127000Y165100D02*
X127000Y38100D01*
X0Y197993D02*
X635510Y197993D01*
X635510Y396013D01*
X0Y396013D01*
X0Y197993D01*
X101600Y363093D02*
X101604Y363402D01*
X101615Y363711D01*
X101634Y364020D01*
X101660Y364328D01*
X101694Y364636D01*
X101735Y364942D01*
X101784Y365248D01*
X101840Y365552D01*
X101904Y365854D01*
X101975Y366155D01*
X102053Y366455D01*
X102138Y366752D01*
X102231Y367047D01*
X102331Y367340D01*
X102438Y367630D01*
X102552Y367917D01*
X102673Y368202D01*
X102801Y368484D01*
X102935Y368762D01*
X103077Y369037D01*
X103225Y369309D01*
X103380Y369576D01*
X103541Y369840D01*
X103708Y370100D01*
X103882Y370356D01*
X104062Y370608D01*
X104248Y370855D01*
X104440Y371097D01*
X104638Y371335D01*
X104841Y371568D01*
X105051Y371796D01*
X105265Y372018D01*
X105485Y372236D01*
X105711Y372448D01*
X105941Y372654D01*
X106176Y372855D01*
X106416Y373050D01*
X106661Y373239D01*
X106910Y373422D01*
X107164Y373599D01*
X107422Y373769D01*
X107684Y373934D01*
X107950Y374092D01*
X108220Y374243D01*
X108493Y374388D01*
X108770Y374526D01*
X109050Y374657D01*
X109333Y374781D01*
X109619Y374899D01*
X109908Y375009D01*
X110199Y375113D01*
X110493Y375209D01*
X110789Y375298D01*
X111088Y375380D01*
X111388Y375455D01*
X111690Y375522D01*
X111993Y375582D01*
X112298Y375634D01*
X112604Y375679D01*
X112911Y375717D01*
X113219Y375747D01*
X113527Y375769D01*
X113836Y375785D01*
X114145Y375792D01*
X114455Y375792D01*
X114764Y375785D01*
X115073Y375769D01*
X115381Y375747D01*
X115689Y375717D01*
X115996Y375679D01*
X116302Y375634D01*
X116607Y375582D01*
X116910Y375522D01*
X117212Y375455D01*
X117512Y375380D01*
X117811Y375298D01*
X118107Y375209D01*
X118401Y375113D01*
X118692Y375009D01*
X118981Y374899D01*
X119267Y374781D01*
X119550Y374657D01*
X119830Y374526D01*
X120107Y374388D01*
X120380Y374243D01*
X120650Y374092D01*
X120916Y373934D01*
X121178Y373769D01*
X121436Y373599D01*
X121690Y373422D01*
X121939Y373239D01*
X122184Y373050D01*
X122424Y372855D01*
X122659Y372654D01*
X122889Y372448D01*
X123115Y372236D01*
X123335Y372018D01*
X123549Y371796D01*
X123759Y371568D01*
X123962Y371335D01*
X124160Y371097D01*
X124352Y370855D01*
X124538Y370608D01*
X124718Y370356D01*
X124892Y370100D01*
X125059Y369840D01*
X125220Y369576D01*
X125375Y369309D01*
X125523Y369037D01*
X125665Y368762D01*
X125799Y368484D01*
X125927Y368202D01*
X126048Y367917D01*
X126162Y367630D01*
X126269Y367340D01*
X126369Y367047D01*
X126462Y366752D01*
X126547Y366455D01*
X126625Y366155D01*
X126696Y365854D01*
X126760Y365552D01*
X126816Y365248D01*
X126865Y364942D01*
X126906Y364636D01*
X126940Y364328D01*
X126966Y364020D01*
X126985Y363711D01*
X126996Y363402D01*
X127000Y363093D01*
X127000Y236093D02*
X126996Y235784D01*
X126985Y235475D01*
X126966Y235166D01*
X126940Y234858D01*
X126906Y234550D01*
X126865Y234244D01*
X126816Y233938D01*
X126760Y233634D01*
X126696Y233332D01*
X126625Y233031D01*
X126547Y232731D01*
X126462Y232434D01*
X126369Y232139D01*
X126269Y231846D01*
X126162Y231556D01*
X126048Y231269D01*
X125927Y230984D01*
X125799Y230702D01*
X125665Y230424D01*
X125523Y230149D01*
X125375Y229877D01*
X125220Y229610D01*
X125059Y229346D01*
X124892Y229086D01*
X124718Y228830D01*
X124538Y228578D01*
X124352Y228331D01*
X124160Y228089D01*
X123962Y227851D01*
X123759Y227618D01*
X123549Y227390D01*
X123335Y227168D01*
X123115Y226950D01*
X122889Y226738D01*
X122659Y226532D01*
X122424Y226331D01*
X122184Y226136D01*
X121939Y225947D01*
X121690Y225764D01*
X121436Y225587D01*
X121178Y225417D01*
X120916Y225252D01*
X120650Y225094D01*
X120380Y224943D01*
X120107Y224798D01*
X119830Y224660D01*
X119550Y224529D01*
X119267Y224405D01*
X118981Y224287D01*
X118692Y224177D01*
X118401Y224073D01*
X118107Y223977D01*
X117811Y223888D01*
X117512Y223806D01*
X117212Y223731D01*
X116910Y223664D01*
X116607Y223604D01*
X116302Y223552D01*
X115996Y223507D01*
X115689Y223469D01*
X115381Y223439D01*
X115073Y223417D01*
X114764Y223401D01*
X114455Y223394D01*
X114145Y223394D01*
X113836Y223401D01*
X113527Y223417D01*
X113219Y223439D01*
X112911Y223469D01*
X112604Y223507D01*
X112298Y223552D01*
X111993Y223604D01*
X111690Y223664D01*
X111388Y223731D01*
X111088Y223806D01*
X110789Y223888D01*
X110493Y223977D01*
X110199Y224073D01*
X109908Y224177D01*
X109619Y224287D01*
X109333Y224405D01*
X109050Y224529D01*
X108770Y224660D01*
X108493Y224798D01*
X108220Y224943D01*
X107950Y225094D01*
X107684Y225252D01*
X107422Y225417D01*
X107164Y225587D01*
X106910Y225764D01*
X106661Y225947D01*
X106416Y226136D01*
X106176Y226331D01*
X105941Y226532D01*
X105711Y226738D01*
X105485Y226950D01*
X105265Y227168D01*
X105051Y227390D01*
X104841Y227618D01*
X104638Y227851D01*
X104440Y228089D01*
X104248Y228331D01*
X104062Y228578D01*
X103882Y228830D01*
X103708Y229086D01*
X103541Y229346D01*
X103380Y229610D01*
X103225Y229877D01*
X103077Y230149D01*
X102935Y230424D01*
X102801Y230702D01*
X102673Y230984D01*
X102552Y231269D01*
X102438Y231556D01*
X102331Y231846D01*
X102231Y232139D01*
X102138Y232434D01*
X102053Y232731D01*
X101975Y233031D01*
X101904Y233332D01*
X101840Y233634D01*
X101784Y233938D01*
X101735Y234244D01*
X101694Y234550D01*
X101660Y234858D01*
X101634Y235166D01*
X101615Y235475D01*
X101604Y235784D01*
X101600Y236093D01*
X101600Y363093D01*
X127000Y363093D02*
X127000Y236093D01*
X0Y396011D02*
X635510Y396011D01*
X635510Y594031D01*
X0Y594031D01*
X0Y396011D01*
X101600Y561111D02*
X101604Y561420D01*
X101615Y561729D01*
X101634Y562038D01*
X101660Y562346D01*
X101694Y562654D01*
X101735Y562960D01*
X101784Y563266D01*
X101840Y563570D01*
X101904Y563872D01*
X101975Y564173D01*
X102053Y564473D01*
X102138Y564770D01*
X102231Y565065D01*
X102331Y565358D01*
X102438Y565648D01*
X102552Y565935D01*
X102673Y566220D01*
X102801Y566502D01*
X102935Y566780D01*
X103077Y567055D01*
X103225Y567327D01*
X103380Y567594D01*
X103541Y567858D01*
X103708Y568118D01*
X103882Y568374D01*
X104062Y568626D01*
X104248Y568873D01*
X104440Y569115D01*
X104638Y569353D01*
X104841Y569586D01*
X105051Y569814D01*
X105265Y570036D01*
X105485Y570254D01*
X105711Y570466D01*
X105941Y570672D01*
X106176Y570873D01*
X106416Y571068D01*
X106661Y571257D01*
X106910Y571440D01*
X107164Y571617D01*
X107422Y571787D01*
X107684Y571952D01*
X107950Y572110D01*
X108220Y572261D01*
X108493Y572406D01*
X108770Y572544D01*
X109050Y572675D01*
X109333Y572799D01*
X109619Y572917D01*
X109908Y573027D01*
X110199Y573131D01*
X110493Y573227D01*
X110789Y573316D01*
X111088Y573398D01*
X111388Y573473D01*
X111690Y573540D01*
X111993Y573600D01*
X112298Y573652D01*
X112604Y573697D01*
X112911Y573735D01*
X113219Y573765D01*
X113527Y573787D01*
X113836Y573803D01*
X114145Y573810D01*
X114455Y573810D01*
X114764Y573803D01*
X115073Y573787D01*
X115381Y573765D01*
X115689Y573735D01*
X115996Y573697D01*
X116302Y573652D01*
X116607Y573600D01*
X116910Y573540D01*
X117212Y573473D01*
X117512Y573398D01*
X117811Y573316D01*
X118107Y573227D01*
X118401Y573131D01*
X118692Y573027D01*
X118981Y572917D01*
X119267Y572799D01*
X119550Y572675D01*
X119830Y572544D01*
X120107Y572406D01*
X120380Y572261D01*
X120650Y572110D01*
X120916Y571952D01*
X121178Y571787D01*
X121436Y571617D01*
X121690Y571440D01*
X121939Y571257D01*
X122184Y571068D01*
X122424Y570873D01*
X122659Y570672D01*
X122889Y570466D01*
X123115Y570254D01*
X123335Y570036D01*
X123549Y569814D01*
X123759Y569586D01*
X123962Y569353D01*
X124160Y569115D01*
X124352Y568873D01*
X124538Y568626D01*
X124718Y568374D01*
X124892Y568118D01*
X125059Y567858D01*
X125220Y567594D01*
X125375Y567327D01*
X125523Y567055D01*
X125665Y566780D01*
X125799Y566502D01*
X125927Y566220D01*
X126048Y565935D01*
X126162Y565648D01*
X126269Y565358D01*
X126369Y565065D01*
X126462Y564770D01*
X126547Y564473D01*
X126625Y564173D01*
X126696Y563872D01*
X126760Y563570D01*
X126816Y563266D01*
X126865Y562960D01*
X126906Y562654D01*
X126940Y562346D01*
X126966Y562038D01*
X126985Y561729D01*
X126996Y561420D01*
X127000Y561111D01*
X127000Y434111D02*
X126996Y433802D01*
X126985Y433493D01*
X126966Y433184D01*
X126940Y432876D01*
X126906Y432568D01*
X126865Y432262D01*
X126816Y431956D01*
X126760Y431652D01*
X126696Y431350D01*
X126625Y431049D01*
X126547Y430749D01*
X126462Y430452D01*
X126369Y430157D01*
X126269Y429864D01*
X126162Y429574D01*
X126048Y429287D01*
X125927Y429002D01*
X125799Y428720D01*
X125665Y428442D01*
X125523Y428167D01*
X125375Y427895D01*
X125220Y427628D01*
X125059Y427364D01*
X124892Y427104D01*
X124718Y426848D01*
X124538Y426596D01*
X124352Y426349D01*
X124160Y426107D01*
X123962Y425869D01*
X123759Y425636D01*
X123549Y425408D01*
X123335Y425186D01*
X123115Y424968D01*
X122889Y424756D01*
X122659Y424550D01*
X122424Y424349D01*
X122184Y424154D01*
X121939Y423965D01*
X121690Y423782D01*
X121436Y423605D01*
X121178Y423435D01*
X120916Y423270D01*
X120650Y423112D01*
X120380Y422961D01*
X120107Y422816D01*
X119830Y422678D01*
X119550Y422547D01*
X119267Y422423D01*
X118981Y422305D01*
X118692Y422195D01*
X118401Y422091D01*
X118107Y421995D01*
X117811Y421906D01*
X117512Y421824D01*
X117212Y421749D01*
X116910Y421682D01*
X116607Y421622D01*
X116302Y421570D01*
X115996Y421525D01*
X115689Y421487D01*
X115381Y421457D01*
X115073Y421435D01*
X114764Y421419D01*
X114455Y421412D01*
X114145Y421412D01*
X113836Y421419D01*
X113527Y421435D01*
X113219Y421457D01*
X112911Y421487D01*
X112604Y421525D01*
X112298Y421570D01*
X111993Y421622D01*
X111690Y421682D01*
X111388Y421749D01*
X111088Y421824D01*
X110789Y421906D01*
X110493Y421995D01*
X110199Y422091D01*
X109908Y422195D01*
X109619Y422305D01*
X109333Y422423D01*
X109050Y422547D01*
X108770Y422678D01*
X108493Y422816D01*
X108220Y422961D01*
X107950Y423112D01*
X107684Y423270D01*
X107422Y423435D01*
X107164Y423605D01*
X106910Y423782D01*
X106661Y423965D01*
X106416Y424154D01*
X106176Y424349D01*
X105941Y424550D01*
X105711Y424756D01*
X105485Y424968D01*
X105265Y425186D01*
X105051Y425408D01*
X104841Y425636D01*
X104638Y425869D01*
X104440Y426107D01*
X104248Y426349D01*
X104062Y426596D01*
X103882Y426848D01*
X103708Y427104D01*
X103541Y427364D01*
X103380Y427628D01*
X103225Y427895D01*
X103077Y428167D01*
X102935Y428442D01*
X102801Y428720D01*
X102673Y429002D01*
X102552Y429287D01*
X102438Y429574D01*
X102331Y429864D01*
X102231Y430157D01*
X102138Y430452D01*
X102053Y430749D01*
X101975Y431049D01*
X101904Y431350D01*
X101840Y431652D01*
X101784Y431956D01*
X101735Y432262D01*
X101694Y432568D01*
X101660Y432876D01*
X101634Y433184D01*
X101615Y433493D01*
X101604Y433802D01*
X101600Y434111D01*
X101600Y561111D01*
X127000Y561111D02*
X127000Y434111D01*
X0Y594004D02*
X635510Y594004D01*
X635510Y792024D01*
X0Y792024D01*
X0Y594004D01*
X101600Y759104D02*
X101604Y759413D01*
X101615Y759722D01*
X101634Y760031D01*
X101660Y760339D01*
X101694Y760647D01*
X101735Y760953D01*
X101784Y761259D01*
X101840Y761563D01*
X101904Y761865D01*
X101975Y762166D01*
X102053Y762466D01*
X102138Y762763D01*
X102231Y763058D01*
X102331Y763351D01*
X102438Y763641D01*
X102552Y763928D01*
X102673Y764213D01*
X102801Y764495D01*
X102935Y764773D01*
X103077Y765048D01*
X103225Y765320D01*
X103380Y765587D01*
X103541Y765851D01*
X103708Y766111D01*
X103882Y766367D01*
X104062Y766619D01*
X104248Y766866D01*
X104440Y767108D01*
X104638Y767346D01*
X104841Y767579D01*
X105051Y767807D01*
X105265Y768029D01*
X105485Y768247D01*
X105711Y768459D01*
X105941Y768665D01*
X106176Y768866D01*
X106416Y769061D01*
X106661Y769250D01*
X106910Y769433D01*
X107164Y769610D01*
X107422Y769780D01*
X107684Y769945D01*
X107950Y770103D01*
X108220Y770254D01*
X108493Y770399D01*
X108770Y770537D01*
X109050Y770668D01*
X109333Y770792D01*
X109619Y770910D01*
X109908Y771020D01*
X110199Y771124D01*
X110493Y771220D01*
X110789Y771309D01*
X111088Y771391D01*
X111388Y771466D01*
X111690Y771533D01*
X111993Y771593D01*
X112298Y771645D01*
X112604Y771690D01*
X112911Y771728D01*
X113219Y771758D01*
X113527Y771780D01*
X113836Y771796D01*
X114145Y771803D01*
X114455Y771803D01*
X114764Y771796D01*
X115073Y771780D01*
X115381Y771758D01*
X115689Y771728D01*
X115996Y771690D01*
X116302Y771645D01*
X116607Y771593D01*
X116910Y771533D01*
X117212Y771466D01*
X117512Y771391D01*
X117811Y771309D01*
X118107Y771220D01*
X118401Y771124D01*
X118692Y771020D01*
X118981Y770910D01*
X119267Y770792D01*
X119550Y770668D01*
X119830Y770537D01*
X120107Y770399D01*
X120380Y770254D01*
X120650Y770103D01*
X120916Y769945D01*
X121178Y769780D01*
X121436Y769610D01*
X121690Y769433D01*
X121939Y769250D01*
X122184Y769061D01*
X122424Y768866D01*
X122659Y768665D01*
X122889Y768459D01*
X123115Y768247D01*
X123335Y768029D01*
X123549Y767807D01*
X123759Y767579D01*
X123962Y767346D01*
X124160Y767108D01*
X124352Y766866D01*
X124538Y766619D01*
X124718Y766367D01*
X124892Y766111D01*
X125059Y765851D01*
X125220Y765587D01*
X125375Y765320D01*
X125523Y765048D01*
X125665Y764773D01*
X125799Y764495D01*
X125927Y764213D01*
X126048Y763928D01*
X126162Y763641D01*
X126269Y763351D01*
X126369Y763058D01*
X126462Y762763D01*
X126547Y762466D01*
X126625Y762166D01*
X126696Y761865D01*
X126760Y761563D01*
X126816Y761259D01*
X126865Y760953D01*
X126906Y760647D01*
X126940Y760339D01*
X126966Y760031D01*
X126985Y759722D01*
X126996Y759413D01*
X127000Y759104D01*
X127000Y632104D02*
X126996Y631795D01*
X126985Y631486D01*
X126966Y631177D01*
X126940Y630869D01*
X126906Y630561D01*
X126865Y630255D01*
X126816Y629949D01*
X126760Y629645D01*
X126696Y629343D01*
X126625Y629042D01*
X126547Y628742D01*
X126462Y628445D01*
X126369Y628150D01*
X126269Y627857D01*
X126162Y627567D01*
X126048Y627280D01*
X125927Y626995D01*
X125799Y626713D01*
X125665Y626435D01*
X125523Y626160D01*
X125375Y625888D01*
X125220Y625621D01*
X125059Y625357D01*
X124892Y625097D01*
X124718Y624841D01*
X124538Y624589D01*
X124352Y624342D01*
X124160Y624100D01*
X123962Y623862D01*
X123759Y623629D01*
X123549Y623401D01*
X123335Y623179D01*
X123115Y622961D01*
X122889Y622749D01*
X122659Y622543D01*
X122424Y622342D01*
X122184Y622147D01*
X121939Y621958D01*
X121690Y621775D01*
X121436Y621598D01*
X121178Y621428D01*
X120916Y621263D01*
X120650Y621105D01*
X120380Y620954D01*
X120107Y620809D01*
X119830Y620671D01*
X119550Y620540D01*
X119267Y620416D01*
X118981Y620298D01*
X118692Y620188D01*
X118401Y620084D01*
X118107Y619988D01*
X117811Y619899D01*
X117512Y619817D01*
X117212Y619742D01*
X116910Y619675D01*
X116607Y619615D01*
X116302Y619563D01*
X115996Y619518D01*
X115689Y619480D01*
X115381Y619450D01*
X115073Y619428D01*
X114764Y619412D01*
X114455Y619405D01*
X114145Y619405D01*
X113836Y619412D01*
X113527Y619428D01*
X113219Y619450D01*
X112911Y619480D01*
X112604Y619518D01*
X112298Y619563D01*
X111993Y619615D01*
X111690Y619675D01*
X111388Y619742D01*
X111088Y619817D01*
X110789Y619899D01*
X110493Y619988D01*
X110199Y620084D01*
X109908Y620188D01*
X109619Y620298D01*
X109333Y620416D01*
X109050Y620540D01*
X108770Y620671D01*
X108493Y620809D01*
X108220Y620954D01*
X107950Y621105D01*
X107684Y621263D01*
X107422Y621428D01*
X107164Y621598D01*
X106910Y621775D01*
X106661Y621958D01*
X106416Y622147D01*
X106176Y622342D01*
X105941Y622543D01*
X105711Y622749D01*
X105485Y622961D01*
X105265Y623179D01*
X105051Y623401D01*
X104841Y623629D01*
X104638Y623862D01*
X104440Y624100D01*
X104248Y624342D01*
X104062Y624589D01*
X103882Y624841D01*
X103708Y625097D01*
X103541Y625357D01*
X103380Y625621D01*
X103225Y625888D01*
X103077Y626160D01*
X102935Y626435D01*
X102801Y626713D01*
X102673Y626995D01*
X102552Y627280D01*
X102438Y627567D01*
X102331Y627857D01*
X102231Y628150D01*
X102138Y628445D01*
X102053Y628742D01*
X101975Y629042D01*
X101904Y629343D01*
X101840Y629645D01*
X101784Y629949D01*
X101735Y630255D01*
X101694Y630561D01*
X101660Y630869D01*
X101634Y631177D01*
X101615Y631486D01*
X101604Y631795D01*
X101600Y632104D01*
X101600Y759104D01*
X127000Y759104D02*
X127000Y632104D01*
X0Y791997D02*
X635510Y791997D01*
X635510Y990017D01*
X0Y990017D01*
X0Y791997D01*
X101600Y957097D02*
X101604Y957406D01*
X101615Y957715D01*
X101634Y958024D01*
X101660Y958332D01*
X101694Y958640D01*
X101735Y958946D01*
X101784Y959252D01*
X101840Y959556D01*
X101904Y959858D01*
X101975Y960159D01*
X102053Y960459D01*
X102138Y960756D01*
X102231Y961051D01*
X102331Y961344D01*
X102438Y961634D01*
X102552Y961921D01*
X102673Y962206D01*
X102801Y962488D01*
X102935Y962766D01*
X103077Y963041D01*
X103225Y963313D01*
X103380Y963580D01*
X103541Y963844D01*
X103708Y964104D01*
X103882Y964360D01*
X104062Y964612D01*
X104248Y964859D01*
X104440Y965101D01*
X104638Y965339D01*
X104841Y965572D01*
X105051Y965800D01*
X105265Y966022D01*
X105485Y966240D01*
X105711Y966452D01*
X105941Y966658D01*
X106176Y966859D01*
X106416Y967054D01*
X106661Y967243D01*
X106910Y967426D01*
X107164Y967603D01*
X107422Y967773D01*
X107684Y967938D01*
X107950Y968096D01*
X108220Y968247D01*
X108493Y968392D01*
X108770Y968530D01*
X109050Y968661D01*
X109333Y968785D01*
X109619Y968903D01*
X109908Y969013D01*
X110199Y969117D01*
X110493Y969213D01*
X110789Y969302D01*
X111088Y969384D01*
X111388Y969459D01*
X111690Y969526D01*
X111993Y969586D01*
X112298Y969638D01*
X112604Y969683D01*
X112911Y969721D01*
X113219Y969751D01*
X113527Y969773D01*
X113836Y969789D01*
X114145Y969796D01*
X114455Y969796D01*
X114764Y969789D01*
X115073Y969773D01*
X115381Y969751D01*
X115689Y969721D01*
X115996Y969683D01*
X116302Y969638D01*
X116607Y969586D01*
X116910Y969526D01*
X117212Y969459D01*
X117512Y969384D01*
X117811Y969302D01*
X118107Y969213D01*
X118401Y969117D01*
X118692Y969013D01*
X118981Y968903D01*
X119267Y968785D01*
X119550Y968661D01*
X119830Y968530D01*
X120107Y968392D01*
X120380Y968247D01*
X120650Y968096D01*
X120916Y967938D01*
X121178Y967773D01*
X121436Y967603D01*
X121690Y967426D01*
X121939Y967243D01*
X122184Y967054D01*
X122424Y966859D01*
X122659Y966658D01*
X122889Y966452D01*
X123115Y966240D01*
X123335Y966022D01*
X123549Y965800D01*
X123759Y965572D01*
X123962Y965339D01*
X124160Y965101D01*
X124352Y964859D01*
X124538Y964612D01*
X124718Y964360D01*
X124892Y964104D01*
X125059Y963844D01*
X125220Y963580D01*
X125375Y963313D01*
X125523Y963041D01*
X125665Y962766D01*
X125799Y962488D01*
X125927Y962206D01*
X126048Y961921D01*
X126162Y961634D01*
X126269Y961344D01*
X126369Y961051D01*
X126462Y960756D01*
X126547Y960459D01*
X126625Y960159D01*
X126696Y959858D01*
X126760Y959556D01*
X126816Y959252D01*
X126865Y958946D01*
X126906Y958640D01*
X126940Y958332D01*
X126966Y958024D01*
X126985Y957715D01*
X126996Y957406D01*
X127000Y957097D01*
X127000Y830097D02*
X126996Y829788D01*
X126985Y829479D01*
X126966Y829170D01*
X126940Y828862D01*
X126906Y828554D01*
X126865Y828248D01*
X126816Y827942D01*
X126760Y827638D01*
X126696Y827336D01*
X126625Y827035D01*
X126547Y826735D01*
X126462Y826438D01*
X126369Y826143D01*
X126269Y825850D01*
X126162Y825560D01*
X126048Y825273D01*
X125927Y824988D01*
X125799Y824706D01*
X125665Y824428D01*
X125523Y824153D01*
X125375Y823881D01*
X125220Y823614D01*
X125059Y823350D01*
X124892Y823090D01*
X124718Y822834D01*
X124538Y822582D01*
X124352Y822335D01*
X124160Y822093D01*
X123962Y821855D01*
X123759Y821622D01*
X123549Y821394D01*
X123335Y821172D01*
X123115Y820954D01*
X122889Y820742D01*
X122659Y820536D01*
X122424Y820335D01*
X122184Y820140D01*
X121939Y819951D01*
X121690Y819768D01*
X121436Y819591D01*
X121178Y819421D01*
X120916Y819256D01*
X120650Y819098D01*
X120380Y818947D01*
X120107Y818802D01*
X119830Y818664D01*
X119550Y818533D01*
X119267Y818409D01*
X118981Y818291D01*
X118692Y818181D01*
X118401Y818077D01*
X118107Y817981D01*
X117811Y817892D01*
X117512Y817810D01*
X117212Y817735D01*
X116910Y817668D01*
X116607Y817608D01*
X116302Y817556D01*
X115996Y817511D01*
X115689Y817473D01*
X115381Y817443D01*
X115073Y817421D01*
X114764Y817405D01*
X114455Y817398D01*
X114145Y817398D01*
X113836Y817405D01*
X113527Y817421D01*
X113219Y817443D01*
X112911Y817473D01*
X112604Y817511D01*
X112298Y817556D01*
X111993Y817608D01*
X111690Y817668D01*
X111388Y817735D01*
X111088Y817810D01*
X110789Y817892D01*
X110493Y817981D01*
X110199Y818077D01*
X109908Y818181D01*
X109619Y818291D01*
X109333Y818409D01*
X109050Y818533D01*
X108770Y818664D01*
X108493Y818802D01*
X108220Y818947D01*
X107950Y819098D01*
X107684Y819256D01*
X107422Y819421D01*
X107164Y819591D01*
X106910Y819768D01*
X106661Y819951D01*
X106416Y820140D01*
X106176Y820335D01*
X105941Y820536D01*
X105711Y820742D01*
X105485Y820954D01*
X105265Y821172D01*
X105051Y821394D01*
X104841Y821622D01*
X104638Y821855D01*
X104440Y822093D01*
X104248Y822335D01*
X104062Y822582D01*
X103882Y822834D01*
X103708Y823090D01*
X103541Y823350D01*
X103380Y823614D01*
X103225Y823881D01*
X103077Y824153D01*
X102935Y824428D01*
X102801Y824706D01*
X102673Y824988D01*
X102552Y825273D01*
X102438Y825560D01*
X102331Y825850D01*
X102231Y826143D01*
X102138Y826438D01*
X102053Y826735D01*
X101975Y827035D01*
X101904Y827336D01*
X101840Y827638D01*
X101784Y827942D01*
X101735Y828248D01*
X101694Y828554D01*
X101660Y828862D01*
X101634Y829170D01*
X101615Y829479D01*
X101604Y829788D01*
X101600Y830097D01*
X101600Y957097D01*
X127000Y957097D02*
X127000Y830097D01*
X0Y197993D02*
X699008Y197993D01*
D11*
X731497Y200491D02*
X734827Y190500D01*
X738158Y200491D01*
X744942Y196328D02*
X754933Y196328D01*
X763487Y196328D02*
X767650Y194663D01*
X763487Y196327D02*
X763402Y196363D01*
X763319Y196403D01*
X763238Y196446D01*
X763158Y196493D01*
X763081Y196543D01*
X763005Y196596D01*
X762932Y196652D01*
X762862Y196712D01*
X762794Y196774D01*
X762729Y196839D01*
X762667Y196907D01*
X762607Y196978D01*
X762551Y197051D01*
X762498Y197126D01*
X762448Y197204D01*
X762402Y197283D01*
X762359Y197365D01*
X762319Y197448D01*
X762283Y197533D01*
X762251Y197619D01*
X762222Y197707D01*
X762198Y197796D01*
X762177Y197886D01*
X762160Y197976D01*
X762146Y198067D01*
X762137Y198159D01*
X762132Y198251D01*
X762130Y198343D01*
X762132Y198435D01*
X762139Y198527D01*
X762149Y198619D01*
X762163Y198710D01*
X762181Y198801D01*
X762203Y198890D01*
X762229Y198979D01*
X762259Y199066D01*
X762292Y199152D01*
X762329Y199236D01*
X762369Y199319D01*
X762413Y199400D01*
X762460Y199479D01*
X762511Y199556D01*
X762565Y199631D01*
X762622Y199704D01*
X762682Y199774D01*
X762745Y199841D01*
X762811Y199905D01*
X762879Y199967D01*
X762950Y200026D01*
X763024Y200081D01*
X763100Y200134D01*
X763178Y200183D01*
X763258Y200229D01*
X763339Y200271D01*
X763423Y200310D01*
X763508Y200345D01*
X763595Y200376D01*
X763683Y200404D01*
X763772Y200428D01*
X763862Y200448D01*
X763952Y200465D01*
X764044Y200477D01*
X764136Y200486D01*
X764228Y200490D01*
X764320Y200491D01*
X764547Y200485D01*
X764774Y200474D01*
X765001Y200457D01*
X765227Y200434D01*
X765453Y200407D01*
X765678Y200373D01*
X765902Y200335D01*
X766125Y200291D01*
X766347Y200242D01*
X766568Y200187D01*
X766787Y200127D01*
X767005Y200062D01*
X767221Y199991D01*
X767435Y199916D01*
X767648Y199835D01*
X767858Y199749D01*
X768067Y199658D01*
X767650Y194663D02*
X767735Y194627D01*
X767818Y194587D01*
X767899Y194544D01*
X767979Y194497D01*
X768056Y194447D01*
X768132Y194394D01*
X768205Y194338D01*
X768275Y194278D01*
X768343Y194216D01*
X768408Y194151D01*
X768470Y194083D01*
X768530Y194012D01*
X768586Y193939D01*
X768639Y193864D01*
X768689Y193786D01*
X768735Y193707D01*
X768778Y193625D01*
X768818Y193542D01*
X768854Y193457D01*
X768886Y193371D01*
X768915Y193283D01*
X768939Y193194D01*
X768960Y193104D01*
X768977Y193014D01*
X768991Y192923D01*
X769000Y192831D01*
X769005Y192739D01*
X769007Y192647D01*
X769005Y192555D01*
X768998Y192463D01*
X768988Y192371D01*
X768974Y192280D01*
X768956Y192189D01*
X768934Y192100D01*
X768908Y192011D01*
X768878Y191924D01*
X768845Y191838D01*
X768808Y191754D01*
X768768Y191671D01*
X768724Y191590D01*
X768677Y191511D01*
X768626Y191434D01*
X768572Y191359D01*
X768515Y191286D01*
X768455Y191216D01*
X768392Y191149D01*
X768326Y191085D01*
X768258Y191023D01*
X768187Y190964D01*
X768113Y190909D01*
X768037Y190856D01*
X767959Y190807D01*
X767879Y190761D01*
X767798Y190719D01*
X767714Y190680D01*
X767629Y190645D01*
X767542Y190614D01*
X767454Y190586D01*
X767365Y190562D01*
X767275Y190542D01*
X767185Y190525D01*
X767093Y190513D01*
X767001Y190504D01*
X766909Y190500D01*
X766817Y190499D01*
X766817Y190500D02*
X766483Y190509D01*
X766150Y190526D01*
X765817Y190550D01*
X765484Y190583D01*
X765153Y190623D01*
X764822Y190671D01*
X764493Y190727D01*
X764165Y190790D01*
X763839Y190862D01*
X763515Y190941D01*
X763192Y191027D01*
X762872Y191122D01*
X762554Y191224D01*
X762238Y191333D01*
X778310Y190500D02*
X781640Y190500D01*
X778310Y190500D02*
X778212Y190502D01*
X778114Y190508D01*
X778016Y190517D01*
X777919Y190531D01*
X777823Y190548D01*
X777727Y190569D01*
X777632Y190594D01*
X777538Y190622D01*
X777445Y190654D01*
X777354Y190690D01*
X777264Y190729D01*
X777176Y190772D01*
X777089Y190819D01*
X777005Y190868D01*
X776922Y190921D01*
X776842Y190977D01*
X776764Y191036D01*
X776688Y191099D01*
X776614Y191164D01*
X776544Y191232D01*
X776476Y191302D01*
X776411Y191376D01*
X776348Y191452D01*
X776289Y191530D01*
X776233Y191610D01*
X776180Y191693D01*
X776131Y191777D01*
X776084Y191864D01*
X776041Y191952D01*
X776002Y192042D01*
X775966Y192133D01*
X775934Y192226D01*
X775906Y192320D01*
X775881Y192415D01*
X775860Y192511D01*
X775843Y192607D01*
X775829Y192704D01*
X775820Y192802D01*
X775814Y192900D01*
X775812Y192998D01*
X775812Y197993D01*
X775814Y198091D01*
X775820Y198189D01*
X775829Y198287D01*
X775843Y198384D01*
X775860Y198480D01*
X775881Y198576D01*
X775906Y198671D01*
X775934Y198765D01*
X775966Y198858D01*
X776002Y198949D01*
X776041Y199039D01*
X776084Y199127D01*
X776131Y199214D01*
X776180Y199298D01*
X776233Y199381D01*
X776289Y199461D01*
X776348Y199540D01*
X776411Y199615D01*
X776476Y199689D01*
X776544Y199759D01*
X776614Y199827D01*
X776688Y199893D01*
X776764Y199955D01*
X776842Y200014D01*
X776922Y200070D01*
X777005Y200123D01*
X777089Y200173D01*
X777176Y200219D01*
X777264Y200262D01*
X777354Y200301D01*
X777445Y200337D01*
X777538Y200369D01*
X777632Y200397D01*
X777727Y200422D01*
X777823Y200443D01*
X777919Y200460D01*
X778016Y200474D01*
X778114Y200483D01*
X778212Y200489D01*
X778310Y200491D01*
X781640Y200491D01*
X787770Y197160D02*
X787770Y193830D01*
X787770Y197160D02*
X787772Y197274D01*
X787778Y197387D01*
X787787Y197501D01*
X787801Y197613D01*
X787818Y197726D01*
X787840Y197838D01*
X787865Y197948D01*
X787893Y198058D01*
X787926Y198167D01*
X787962Y198275D01*
X788002Y198382D01*
X788046Y198487D01*
X788093Y198590D01*
X788143Y198692D01*
X788197Y198792D01*
X788255Y198890D01*
X788316Y198986D01*
X788379Y199080D01*
X788447Y199172D01*
X788517Y199262D01*
X788590Y199348D01*
X788666Y199433D01*
X788745Y199515D01*
X788827Y199594D01*
X788912Y199670D01*
X788998Y199743D01*
X789088Y199813D01*
X789180Y199881D01*
X789274Y199944D01*
X789370Y200005D01*
X789468Y200063D01*
X789568Y200117D01*
X789670Y200167D01*
X789773Y200214D01*
X789878Y200258D01*
X789985Y200298D01*
X790093Y200334D01*
X790202Y200367D01*
X790312Y200395D01*
X790422Y200420D01*
X790534Y200442D01*
X790647Y200459D01*
X790759Y200473D01*
X790873Y200482D01*
X790986Y200488D01*
X791100Y200490D01*
X791214Y200488D01*
X791327Y200482D01*
X791441Y200473D01*
X791553Y200459D01*
X791666Y200442D01*
X791778Y200420D01*
X791888Y200395D01*
X791998Y200367D01*
X792107Y200334D01*
X792215Y200298D01*
X792322Y200258D01*
X792427Y200214D01*
X792530Y200167D01*
X792632Y200117D01*
X792732Y200063D01*
X792830Y200005D01*
X792926Y199944D01*
X793020Y199881D01*
X793112Y199813D01*
X793202Y199743D01*
X793288Y199670D01*
X793373Y199594D01*
X793455Y199515D01*
X793534Y199433D01*
X793610Y199348D01*
X793683Y199262D01*
X793753Y199172D01*
X793821Y199080D01*
X793884Y198986D01*
X793945Y198890D01*
X794003Y198792D01*
X794057Y198692D01*
X794107Y198590D01*
X794154Y198487D01*
X794198Y198382D01*
X794238Y198275D01*
X794274Y198167D01*
X794307Y198058D01*
X794335Y197948D01*
X794360Y197838D01*
X794382Y197726D01*
X794399Y197613D01*
X794413Y197501D01*
X794422Y197387D01*
X794428Y197274D01*
X794430Y197160D01*
X794430Y193830D01*
X794428Y193716D01*
X794422Y193603D01*
X794413Y193489D01*
X794399Y193377D01*
X794382Y193264D01*
X794360Y193152D01*
X794335Y193042D01*
X794307Y192932D01*
X794274Y192823D01*
X794238Y192715D01*
X794198Y192608D01*
X794154Y192503D01*
X794107Y192400D01*
X794057Y192298D01*
X794003Y192198D01*
X793945Y192100D01*
X793884Y192004D01*
X793821Y191910D01*
X793753Y191818D01*
X793683Y191728D01*
X793610Y191642D01*
X793534Y191557D01*
X793455Y191475D01*
X793373Y191396D01*
X793288Y191320D01*
X793202Y191247D01*
X793112Y191177D01*
X793020Y191109D01*
X792926Y191046D01*
X792830Y190985D01*
X792732Y190927D01*
X792632Y190873D01*
X792530Y190823D01*
X792427Y190776D01*
X792322Y190732D01*
X792215Y190692D01*
X792107Y190656D01*
X791998Y190623D01*
X791888Y190595D01*
X791778Y190570D01*
X791666Y190548D01*
X791553Y190531D01*
X791441Y190517D01*
X791327Y190508D01*
X791214Y190502D01*
X791100Y190500D01*
X790986Y190502D01*
X790873Y190508D01*
X790759Y190517D01*
X790647Y190531D01*
X790534Y190548D01*
X790422Y190570D01*
X790312Y190595D01*
X790202Y190623D01*
X790093Y190656D01*
X789985Y190692D01*
X789878Y190732D01*
X789773Y190776D01*
X789670Y190823D01*
X789568Y190873D01*
X789468Y190927D01*
X789370Y190985D01*
X789274Y191046D01*
X789180Y191109D01*
X789088Y191177D01*
X788998Y191247D01*
X788912Y191320D01*
X788827Y191396D01*
X788745Y191475D01*
X788666Y191557D01*
X788590Y191642D01*
X788517Y191728D01*
X788447Y191818D01*
X788379Y191910D01*
X788316Y192004D01*
X788255Y192100D01*
X788197Y192198D01*
X788143Y192298D01*
X788093Y192400D01*
X788046Y192503D01*
X788002Y192608D01*
X787962Y192715D01*
X787926Y192823D01*
X787893Y192932D01*
X787865Y193042D01*
X787840Y193152D01*
X787818Y193264D01*
X787801Y193377D01*
X787787Y193489D01*
X787778Y193603D01*
X787772Y193716D01*
X787770Y193830D01*
X801966Y190500D02*
X801966Y200491D01*
X806961Y200491D01*
X806961Y198826D01*
X814756Y190500D02*
X818919Y190500D01*
X814756Y190500D02*
X814658Y190502D01*
X814560Y190508D01*
X814462Y190517D01*
X814365Y190531D01*
X814269Y190548D01*
X814173Y190569D01*
X814078Y190594D01*
X813984Y190622D01*
X813891Y190654D01*
X813800Y190690D01*
X813710Y190729D01*
X813622Y190772D01*
X813535Y190819D01*
X813451Y190868D01*
X813368Y190921D01*
X813288Y190977D01*
X813210Y191036D01*
X813134Y191099D01*
X813060Y191164D01*
X812990Y191232D01*
X812922Y191302D01*
X812857Y191376D01*
X812794Y191452D01*
X812735Y191530D01*
X812679Y191610D01*
X812626Y191693D01*
X812577Y191777D01*
X812530Y191864D01*
X812487Y191952D01*
X812448Y192042D01*
X812412Y192133D01*
X812380Y192226D01*
X812352Y192320D01*
X812327Y192415D01*
X812306Y192511D01*
X812289Y192607D01*
X812275Y192704D01*
X812266Y192802D01*
X812260Y192900D01*
X812258Y192998D01*
X812258Y197160D01*
X812259Y197160D02*
X812261Y197274D01*
X812267Y197387D01*
X812276Y197501D01*
X812290Y197613D01*
X812307Y197726D01*
X812329Y197838D01*
X812354Y197948D01*
X812382Y198058D01*
X812415Y198167D01*
X812451Y198275D01*
X812491Y198382D01*
X812535Y198487D01*
X812582Y198590D01*
X812632Y198692D01*
X812686Y198792D01*
X812744Y198890D01*
X812805Y198986D01*
X812868Y199080D01*
X812936Y199172D01*
X813006Y199262D01*
X813079Y199348D01*
X813155Y199433D01*
X813234Y199515D01*
X813316Y199594D01*
X813401Y199670D01*
X813487Y199743D01*
X813577Y199813D01*
X813669Y199881D01*
X813763Y199944D01*
X813859Y200005D01*
X813957Y200063D01*
X814057Y200117D01*
X814159Y200167D01*
X814262Y200214D01*
X814367Y200258D01*
X814474Y200298D01*
X814582Y200334D01*
X814691Y200367D01*
X814801Y200395D01*
X814911Y200420D01*
X815023Y200442D01*
X815136Y200459D01*
X815248Y200473D01*
X815362Y200482D01*
X815475Y200488D01*
X815589Y200490D01*
X815703Y200488D01*
X815816Y200482D01*
X815930Y200473D01*
X816042Y200459D01*
X816155Y200442D01*
X816267Y200420D01*
X816377Y200395D01*
X816487Y200367D01*
X816596Y200334D01*
X816704Y200298D01*
X816811Y200258D01*
X816916Y200214D01*
X817019Y200167D01*
X817121Y200117D01*
X817221Y200063D01*
X817319Y200005D01*
X817415Y199944D01*
X817509Y199881D01*
X817601Y199813D01*
X817691Y199743D01*
X817777Y199670D01*
X817862Y199594D01*
X817944Y199515D01*
X818023Y199433D01*
X818099Y199348D01*
X818172Y199262D01*
X818242Y199172D01*
X818310Y199080D01*
X818373Y198986D01*
X818434Y198890D01*
X818492Y198792D01*
X818546Y198692D01*
X818596Y198590D01*
X818643Y198487D01*
X818687Y198382D01*
X818727Y198275D01*
X818763Y198167D01*
X818796Y198058D01*
X818824Y197948D01*
X818849Y197838D01*
X818871Y197726D01*
X818888Y197613D01*
X818902Y197501D01*
X818911Y197387D01*
X818917Y197274D01*
X818919Y197160D01*
X818919Y195495D01*
X812258Y195495D01*
D10*
X699008Y396011D02*
X0Y396011D01*
D11*
X731497Y398509D02*
X734827Y388518D01*
X738158Y398509D01*
X744942Y394346D02*
X754933Y394346D01*
X763487Y394346D02*
X767650Y392681D01*
X763487Y394346D02*
X763402Y394382D01*
X763319Y394422D01*
X763238Y394465D01*
X763158Y394512D01*
X763081Y394562D01*
X763005Y394615D01*
X762932Y394671D01*
X762862Y394731D01*
X762794Y394793D01*
X762729Y394858D01*
X762667Y394926D01*
X762607Y394997D01*
X762551Y395070D01*
X762498Y395145D01*
X762448Y395223D01*
X762402Y395302D01*
X762359Y395384D01*
X762319Y395467D01*
X762283Y395552D01*
X762251Y395638D01*
X762222Y395726D01*
X762198Y395815D01*
X762177Y395905D01*
X762160Y395995D01*
X762146Y396086D01*
X762137Y396178D01*
X762132Y396270D01*
X762130Y396362D01*
X762132Y396454D01*
X762139Y396546D01*
X762149Y396638D01*
X762163Y396729D01*
X762181Y396820D01*
X762203Y396909D01*
X762229Y396998D01*
X762259Y397085D01*
X762292Y397171D01*
X762329Y397255D01*
X762369Y397338D01*
X762413Y397419D01*
X762460Y397498D01*
X762511Y397575D01*
X762565Y397650D01*
X762622Y397723D01*
X762682Y397793D01*
X762745Y397860D01*
X762811Y397924D01*
X762879Y397986D01*
X762950Y398045D01*
X763024Y398100D01*
X763100Y398153D01*
X763178Y398202D01*
X763258Y398248D01*
X763339Y398290D01*
X763423Y398329D01*
X763508Y398364D01*
X763595Y398395D01*
X763683Y398423D01*
X763772Y398447D01*
X763862Y398467D01*
X763952Y398484D01*
X764044Y398496D01*
X764136Y398505D01*
X764228Y398509D01*
X764320Y398510D01*
X764320Y398509D02*
X764547Y398503D01*
X764774Y398492D01*
X765001Y398475D01*
X765227Y398452D01*
X765453Y398425D01*
X765678Y398391D01*
X765902Y398353D01*
X766125Y398309D01*
X766347Y398260D01*
X766568Y398205D01*
X766787Y398145D01*
X767005Y398080D01*
X767221Y398009D01*
X767435Y397934D01*
X767648Y397853D01*
X767858Y397767D01*
X768067Y397676D01*
X767650Y392682D02*
X767735Y392646D01*
X767818Y392606D01*
X767899Y392563D01*
X767979Y392516D01*
X768056Y392466D01*
X768132Y392413D01*
X768205Y392357D01*
X768275Y392297D01*
X768343Y392235D01*
X768408Y392170D01*
X768470Y392102D01*
X768530Y392031D01*
X768586Y391958D01*
X768639Y391883D01*
X768689Y391805D01*
X768735Y391726D01*
X768778Y391644D01*
X768818Y391561D01*
X768854Y391476D01*
X768886Y391390D01*
X768915Y391302D01*
X768939Y391213D01*
X768960Y391123D01*
X768977Y391033D01*
X768991Y390942D01*
X769000Y390850D01*
X769005Y390758D01*
X769007Y390666D01*
X769005Y390574D01*
X768998Y390482D01*
X768988Y390390D01*
X768974Y390299D01*
X768956Y390208D01*
X768934Y390119D01*
X768908Y390030D01*
X768878Y389943D01*
X768845Y389857D01*
X768808Y389773D01*
X768768Y389690D01*
X768724Y389609D01*
X768677Y389530D01*
X768626Y389453D01*
X768572Y389378D01*
X768515Y389305D01*
X768455Y389235D01*
X768392Y389168D01*
X768326Y389104D01*
X768258Y389042D01*
X768187Y388983D01*
X768113Y388928D01*
X768037Y388875D01*
X767959Y388826D01*
X767879Y388780D01*
X767798Y388738D01*
X767714Y388699D01*
X767629Y388664D01*
X767542Y388633D01*
X767454Y388605D01*
X767365Y388581D01*
X767275Y388561D01*
X767185Y388544D01*
X767093Y388532D01*
X767001Y388523D01*
X766909Y388519D01*
X766817Y388518D01*
X766483Y388527D01*
X766150Y388544D01*
X765817Y388568D01*
X765484Y388601D01*
X765153Y388641D01*
X764822Y388689D01*
X764493Y388745D01*
X764165Y388808D01*
X763839Y388880D01*
X763515Y388959D01*
X763192Y389045D01*
X762872Y389140D01*
X762554Y389242D01*
X762238Y389351D01*
X778310Y388518D02*
X781640Y388518D01*
X778310Y388518D02*
X778212Y388520D01*
X778114Y388526D01*
X778016Y388535D01*
X777919Y388549D01*
X777823Y388566D01*
X777727Y388587D01*
X777632Y388612D01*
X777538Y388640D01*
X777445Y388672D01*
X777354Y388708D01*
X777264Y388747D01*
X777176Y388790D01*
X777089Y388837D01*
X777005Y388886D01*
X776922Y388939D01*
X776842Y388995D01*
X776764Y389054D01*
X776688Y389117D01*
X776614Y389182D01*
X776544Y389250D01*
X776476Y389320D01*
X776411Y389394D01*
X776348Y389470D01*
X776289Y389548D01*
X776233Y389628D01*
X776180Y389711D01*
X776131Y389795D01*
X776084Y389882D01*
X776041Y389970D01*
X776002Y390060D01*
X775966Y390151D01*
X775934Y390244D01*
X775906Y390338D01*
X775881Y390433D01*
X775860Y390529D01*
X775843Y390625D01*
X775829Y390722D01*
X775820Y390820D01*
X775814Y390918D01*
X775812Y391016D01*
X775812Y396011D01*
X775814Y396109D01*
X775820Y396207D01*
X775829Y396305D01*
X775843Y396402D01*
X775860Y396498D01*
X775881Y396594D01*
X775906Y396689D01*
X775934Y396783D01*
X775966Y396876D01*
X776002Y396967D01*
X776041Y397057D01*
X776084Y397145D01*
X776131Y397232D01*
X776180Y397316D01*
X776233Y397399D01*
X776289Y397479D01*
X776348Y397558D01*
X776411Y397633D01*
X776476Y397707D01*
X776544Y397777D01*
X776614Y397845D01*
X776688Y397911D01*
X776764Y397973D01*
X776842Y398032D01*
X776922Y398088D01*
X777005Y398141D01*
X777089Y398191D01*
X777176Y398237D01*
X777264Y398280D01*
X777354Y398319D01*
X777445Y398355D01*
X777538Y398387D01*
X777632Y398415D01*
X777727Y398440D01*
X777823Y398461D01*
X777919Y398478D01*
X778016Y398492D01*
X778114Y398501D01*
X778212Y398507D01*
X778310Y398509D01*
X781640Y398509D01*
X787770Y395179D02*
X787770Y391849D01*
X787770Y395179D02*
X787772Y395293D01*
X787778Y395406D01*
X787787Y395520D01*
X787801Y395632D01*
X787818Y395745D01*
X787840Y395857D01*
X787865Y395967D01*
X787893Y396077D01*
X787926Y396186D01*
X787962Y396294D01*
X788002Y396401D01*
X788046Y396506D01*
X788093Y396609D01*
X788143Y396711D01*
X788197Y396811D01*
X788255Y396909D01*
X788316Y397005D01*
X788379Y397099D01*
X788447Y397191D01*
X788517Y397281D01*
X788590Y397367D01*
X788666Y397452D01*
X788745Y397534D01*
X788827Y397613D01*
X788912Y397689D01*
X788998Y397762D01*
X789088Y397832D01*
X789180Y397900D01*
X789274Y397963D01*
X789370Y398024D01*
X789468Y398082D01*
X789568Y398136D01*
X789670Y398186D01*
X789773Y398233D01*
X789878Y398277D01*
X789985Y398317D01*
X790093Y398353D01*
X790202Y398386D01*
X790312Y398414D01*
X790422Y398439D01*
X790534Y398461D01*
X790647Y398478D01*
X790759Y398492D01*
X790873Y398501D01*
X790986Y398507D01*
X791100Y398509D01*
X791214Y398507D01*
X791327Y398501D01*
X791441Y398492D01*
X791553Y398478D01*
X791666Y398461D01*
X791778Y398439D01*
X791888Y398414D01*
X791998Y398386D01*
X792107Y398353D01*
X792215Y398317D01*
X792322Y398277D01*
X792427Y398233D01*
X792530Y398186D01*
X792632Y398136D01*
X792732Y398082D01*
X792830Y398024D01*
X792926Y397963D01*
X793020Y397900D01*
X793112Y397832D01*
X793202Y397762D01*
X793288Y397689D01*
X793373Y397613D01*
X793455Y397534D01*
X793534Y397452D01*
X793610Y397367D01*
X793683Y397281D01*
X793753Y397191D01*
X793821Y397099D01*
X793884Y397005D01*
X793945Y396909D01*
X794003Y396811D01*
X794057Y396711D01*
X794107Y396609D01*
X794154Y396506D01*
X794198Y396401D01*
X794238Y396294D01*
X794274Y396186D01*
X794307Y396077D01*
X794335Y395967D01*
X794360Y395857D01*
X794382Y395745D01*
X794399Y395632D01*
X794413Y395520D01*
X794422Y395406D01*
X794428Y395293D01*
X794430Y395179D01*
X794430Y391849D01*
X794428Y391735D01*
X794422Y391622D01*
X794413Y391508D01*
X794399Y391396D01*
X794382Y391283D01*
X794360Y391171D01*
X794335Y391061D01*
X794307Y390951D01*
X794274Y390842D01*
X794238Y390734D01*
X794198Y390627D01*
X794154Y390522D01*
X794107Y390419D01*
X794057Y390317D01*
X794003Y390217D01*
X793945Y390119D01*
X793884Y390023D01*
X793821Y389929D01*
X793753Y389837D01*
X793683Y389747D01*
X793610Y389661D01*
X793534Y389576D01*
X793455Y389494D01*
X793373Y389415D01*
X793288Y389339D01*
X793202Y389266D01*
X793112Y389196D01*
X793020Y389128D01*
X792926Y389065D01*
X792830Y389004D01*
X792732Y388946D01*
X792632Y388892D01*
X792530Y388842D01*
X792427Y388795D01*
X792322Y388751D01*
X792215Y388711D01*
X792107Y388675D01*
X791998Y388642D01*
X791888Y388614D01*
X791778Y388589D01*
X791666Y388567D01*
X791553Y388550D01*
X791441Y388536D01*
X791327Y388527D01*
X791214Y388521D01*
X791100Y388519D01*
X790986Y388521D01*
X790873Y388527D01*
X790759Y388536D01*
X790647Y388550D01*
X790534Y388567D01*
X790422Y388589D01*
X790312Y388614D01*
X790202Y388642D01*
X790093Y388675D01*
X789985Y388711D01*
X789878Y388751D01*
X789773Y388795D01*
X789670Y388842D01*
X789568Y388892D01*
X789468Y388946D01*
X789370Y389004D01*
X789274Y389065D01*
X789180Y389128D01*
X789088Y389196D01*
X788998Y389266D01*
X788912Y389339D01*
X788827Y389415D01*
X788745Y389494D01*
X788666Y389576D01*
X788590Y389661D01*
X788517Y389747D01*
X788447Y389837D01*
X788379Y389929D01*
X788316Y390023D01*
X788255Y390119D01*
X788197Y390217D01*
X788143Y390317D01*
X788093Y390419D01*
X788046Y390522D01*
X788002Y390627D01*
X787962Y390734D01*
X787926Y390842D01*
X787893Y390951D01*
X787865Y391061D01*
X787840Y391171D01*
X787818Y391283D01*
X787801Y391396D01*
X787787Y391508D01*
X787778Y391622D01*
X787772Y391735D01*
X787770Y391849D01*
X801966Y388518D02*
X801966Y398509D01*
X806961Y398509D01*
X806961Y396844D01*
X814756Y388518D02*
X818919Y388518D01*
X814756Y388518D02*
X814658Y388520D01*
X814560Y388526D01*
X814462Y388535D01*
X814365Y388549D01*
X814269Y388566D01*
X814173Y388587D01*
X814078Y388612D01*
X813984Y388640D01*
X813891Y388672D01*
X813800Y388708D01*
X813710Y388747D01*
X813622Y388790D01*
X813535Y388837D01*
X813451Y388886D01*
X813368Y388939D01*
X813288Y388995D01*
X813210Y389054D01*
X813134Y389117D01*
X813060Y389182D01*
X812990Y389250D01*
X812922Y389320D01*
X812857Y389394D01*
X812794Y389470D01*
X812735Y389548D01*
X812679Y389628D01*
X812626Y389711D01*
X812577Y389795D01*
X812530Y389882D01*
X812487Y389970D01*
X812448Y390060D01*
X812412Y390151D01*
X812380Y390244D01*
X812352Y390338D01*
X812327Y390433D01*
X812306Y390529D01*
X812289Y390625D01*
X812275Y390722D01*
X812266Y390820D01*
X812260Y390918D01*
X812258Y391016D01*
X812258Y395179D01*
X812259Y395179D02*
X812261Y395293D01*
X812267Y395406D01*
X812276Y395520D01*
X812290Y395632D01*
X812307Y395745D01*
X812329Y395857D01*
X812354Y395967D01*
X812382Y396077D01*
X812415Y396186D01*
X812451Y396294D01*
X812491Y396401D01*
X812535Y396506D01*
X812582Y396609D01*
X812632Y396711D01*
X812686Y396811D01*
X812744Y396909D01*
X812805Y397005D01*
X812868Y397099D01*
X812936Y397191D01*
X813006Y397281D01*
X813079Y397367D01*
X813155Y397452D01*
X813234Y397534D01*
X813316Y397613D01*
X813401Y397689D01*
X813487Y397762D01*
X813577Y397832D01*
X813669Y397900D01*
X813763Y397963D01*
X813859Y398024D01*
X813957Y398082D01*
X814057Y398136D01*
X814159Y398186D01*
X814262Y398233D01*
X814367Y398277D01*
X814474Y398317D01*
X814582Y398353D01*
X814691Y398386D01*
X814801Y398414D01*
X814911Y398439D01*
X815023Y398461D01*
X815136Y398478D01*
X815248Y398492D01*
X815362Y398501D01*
X815475Y398507D01*
X815589Y398509D01*
X815703Y398507D01*
X815816Y398501D01*
X815930Y398492D01*
X816042Y398478D01*
X816155Y398461D01*
X816267Y398439D01*
X816377Y398414D01*
X816487Y398386D01*
X816596Y398353D01*
X816704Y398317D01*
X816811Y398277D01*
X816916Y398233D01*
X817019Y398186D01*
X817121Y398136D01*
X817221Y398082D01*
X817319Y398024D01*
X817415Y397963D01*
X817509Y397900D01*
X817601Y397832D01*
X817691Y397762D01*
X817777Y397689D01*
X817862Y397613D01*
X817944Y397534D01*
X818023Y397452D01*
X818099Y397367D01*
X818172Y397281D01*
X818242Y397191D01*
X818310Y397099D01*
X818373Y397005D01*
X818434Y396909D01*
X818492Y396811D01*
X818546Y396711D01*
X818596Y396609D01*
X818643Y396506D01*
X818687Y396401D01*
X818727Y396294D01*
X818763Y396186D01*
X818796Y396077D01*
X818824Y395967D01*
X818849Y395857D01*
X818871Y395745D01*
X818888Y395632D01*
X818902Y395520D01*
X818911Y395406D01*
X818917Y395293D01*
X818919Y395179D01*
X818919Y393514D01*
X812258Y393514D01*
D10*
X699008Y594004D02*
X0Y594004D01*
D11*
X731497Y596502D02*
X734827Y586511D01*
X738158Y596502D01*
X744942Y592339D02*
X754933Y592339D01*
X763487Y592339D02*
X767650Y590674D01*
X763487Y592339D02*
X763402Y592375D01*
X763319Y592415D01*
X763238Y592458D01*
X763158Y592505D01*
X763081Y592555D01*
X763005Y592608D01*
X762932Y592664D01*
X762862Y592724D01*
X762794Y592786D01*
X762729Y592851D01*
X762667Y592919D01*
X762607Y592990D01*
X762551Y593063D01*
X762498Y593138D01*
X762448Y593216D01*
X762402Y593295D01*
X762359Y593377D01*
X762319Y593460D01*
X762283Y593545D01*
X762251Y593631D01*
X762222Y593719D01*
X762198Y593808D01*
X762177Y593898D01*
X762160Y593988D01*
X762146Y594079D01*
X762137Y594171D01*
X762132Y594263D01*
X762130Y594355D01*
X762132Y594447D01*
X762139Y594539D01*
X762149Y594631D01*
X762163Y594722D01*
X762181Y594813D01*
X762203Y594902D01*
X762229Y594991D01*
X762259Y595078D01*
X762292Y595164D01*
X762329Y595248D01*
X762369Y595331D01*
X762413Y595412D01*
X762460Y595491D01*
X762511Y595568D01*
X762565Y595643D01*
X762622Y595716D01*
X762682Y595786D01*
X762745Y595853D01*
X762811Y595917D01*
X762879Y595979D01*
X762950Y596038D01*
X763024Y596093D01*
X763100Y596146D01*
X763178Y596195D01*
X763258Y596241D01*
X763339Y596283D01*
X763423Y596322D01*
X763508Y596357D01*
X763595Y596388D01*
X763683Y596416D01*
X763772Y596440D01*
X763862Y596460D01*
X763952Y596477D01*
X764044Y596489D01*
X764136Y596498D01*
X764228Y596502D01*
X764320Y596503D01*
X764320Y596502D02*
X764547Y596496D01*
X764774Y596485D01*
X765001Y596468D01*
X765227Y596445D01*
X765453Y596418D01*
X765678Y596384D01*
X765902Y596346D01*
X766125Y596302D01*
X766347Y596253D01*
X766568Y596198D01*
X766787Y596138D01*
X767005Y596073D01*
X767221Y596002D01*
X767435Y595927D01*
X767648Y595846D01*
X767858Y595760D01*
X768067Y595669D01*
X767650Y590675D02*
X767735Y590639D01*
X767818Y590599D01*
X767899Y590556D01*
X767979Y590509D01*
X768056Y590459D01*
X768132Y590406D01*
X768205Y590350D01*
X768275Y590290D01*
X768343Y590228D01*
X768408Y590163D01*
X768470Y590095D01*
X768530Y590024D01*
X768586Y589951D01*
X768639Y589876D01*
X768689Y589798D01*
X768735Y589719D01*
X768778Y589637D01*
X768818Y589554D01*
X768854Y589469D01*
X768886Y589383D01*
X768915Y589295D01*
X768939Y589206D01*
X768960Y589116D01*
X768977Y589026D01*
X768991Y588935D01*
X769000Y588843D01*
X769005Y588751D01*
X769007Y588659D01*
X769005Y588567D01*
X768998Y588475D01*
X768988Y588383D01*
X768974Y588292D01*
X768956Y588201D01*
X768934Y588112D01*
X768908Y588023D01*
X768878Y587936D01*
X768845Y587850D01*
X768808Y587766D01*
X768768Y587683D01*
X768724Y587602D01*
X768677Y587523D01*
X768626Y587446D01*
X768572Y587371D01*
X768515Y587298D01*
X768455Y587228D01*
X768392Y587161D01*
X768326Y587097D01*
X768258Y587035D01*
X768187Y586976D01*
X768113Y586921D01*
X768037Y586868D01*
X767959Y586819D01*
X767879Y586773D01*
X767798Y586731D01*
X767714Y586692D01*
X767629Y586657D01*
X767542Y586626D01*
X767454Y586598D01*
X767365Y586574D01*
X767275Y586554D01*
X767185Y586537D01*
X767093Y586525D01*
X767001Y586516D01*
X766909Y586512D01*
X766817Y586511D01*
X766483Y586520D01*
X766150Y586537D01*
X765817Y586561D01*
X765484Y586594D01*
X765153Y586634D01*
X764822Y586682D01*
X764493Y586738D01*
X764165Y586801D01*
X763839Y586873D01*
X763515Y586952D01*
X763192Y587038D01*
X762872Y587133D01*
X762554Y587235D01*
X762238Y587344D01*
X778310Y586511D02*
X781640Y586511D01*
X778310Y586511D02*
X778212Y586513D01*
X778114Y586519D01*
X778016Y586528D01*
X777919Y586542D01*
X777823Y586559D01*
X777727Y586580D01*
X777632Y586605D01*
X777538Y586633D01*
X777445Y586665D01*
X777354Y586701D01*
X777264Y586740D01*
X777176Y586783D01*
X777089Y586830D01*
X777005Y586879D01*
X776922Y586932D01*
X776842Y586988D01*
X776764Y587047D01*
X776688Y587110D01*
X776614Y587175D01*
X776544Y587243D01*
X776476Y587313D01*
X776411Y587387D01*
X776348Y587463D01*
X776289Y587541D01*
X776233Y587621D01*
X776180Y587704D01*
X776131Y587788D01*
X776084Y587875D01*
X776041Y587963D01*
X776002Y588053D01*
X775966Y588144D01*
X775934Y588237D01*
X775906Y588331D01*
X775881Y588426D01*
X775860Y588522D01*
X775843Y588618D01*
X775829Y588715D01*
X775820Y588813D01*
X775814Y588911D01*
X775812Y589009D01*
X775812Y594004D01*
X775814Y594102D01*
X775820Y594200D01*
X775829Y594298D01*
X775843Y594395D01*
X775860Y594491D01*
X775881Y594587D01*
X775906Y594682D01*
X775934Y594776D01*
X775966Y594869D01*
X776002Y594960D01*
X776041Y595050D01*
X776084Y595138D01*
X776131Y595225D01*
X776180Y595309D01*
X776233Y595392D01*
X776289Y595472D01*
X776348Y595551D01*
X776411Y595626D01*
X776476Y595700D01*
X776544Y595770D01*
X776614Y595838D01*
X776688Y595904D01*
X776764Y595966D01*
X776842Y596025D01*
X776922Y596081D01*
X777005Y596134D01*
X777089Y596184D01*
X777176Y596230D01*
X777264Y596273D01*
X777354Y596312D01*
X777445Y596348D01*
X777538Y596380D01*
X777632Y596408D01*
X777727Y596433D01*
X777823Y596454D01*
X777919Y596471D01*
X778016Y596485D01*
X778114Y596494D01*
X778212Y596500D01*
X778310Y596502D01*
X781640Y596502D01*
X787770Y593172D02*
X787770Y589842D01*
X787770Y593172D02*
X787772Y593286D01*
X787778Y593399D01*
X787787Y593513D01*
X787801Y593625D01*
X787818Y593738D01*
X787840Y593850D01*
X787865Y593960D01*
X787893Y594070D01*
X787926Y594179D01*
X787962Y594287D01*
X788002Y594394D01*
X788046Y594499D01*
X788093Y594602D01*
X788143Y594704D01*
X788197Y594804D01*
X788255Y594902D01*
X788316Y594998D01*
X788379Y595092D01*
X788447Y595184D01*
X788517Y595274D01*
X788590Y595360D01*
X788666Y595445D01*
X788745Y595527D01*
X788827Y595606D01*
X788912Y595682D01*
X788998Y595755D01*
X789088Y595825D01*
X789180Y595893D01*
X789274Y595956D01*
X789370Y596017D01*
X789468Y596075D01*
X789568Y596129D01*
X789670Y596179D01*
X789773Y596226D01*
X789878Y596270D01*
X789985Y596310D01*
X790093Y596346D01*
X790202Y596379D01*
X790312Y596407D01*
X790422Y596432D01*
X790534Y596454D01*
X790647Y596471D01*
X790759Y596485D01*
X790873Y596494D01*
X790986Y596500D01*
X791100Y596502D01*
X791214Y596500D01*
X791327Y596494D01*
X791441Y596485D01*
X791553Y596471D01*
X791666Y596454D01*
X791778Y596432D01*
X791888Y596407D01*
X791998Y596379D01*
X792107Y596346D01*
X792215Y596310D01*
X792322Y596270D01*
X792427Y596226D01*
X792530Y596179D01*
X792632Y596129D01*
X792732Y596075D01*
X792830Y596017D01*
X792926Y595956D01*
X793020Y595893D01*
X793112Y595825D01*
X793202Y595755D01*
X793288Y595682D01*
X793373Y595606D01*
X793455Y595527D01*
X793534Y595445D01*
X793610Y595360D01*
X793683Y595274D01*
X793753Y595184D01*
X793821Y595092D01*
X793884Y594998D01*
X793945Y594902D01*
X794003Y594804D01*
X794057Y594704D01*
X794107Y594602D01*
X794154Y594499D01*
X794198Y594394D01*
X794238Y594287D01*
X794274Y594179D01*
X794307Y594070D01*
X794335Y593960D01*
X794360Y593850D01*
X794382Y593738D01*
X794399Y593625D01*
X794413Y593513D01*
X794422Y593399D01*
X794428Y593286D01*
X794430Y593172D01*
X794430Y589842D01*
X794428Y589728D01*
X794422Y589615D01*
X794413Y589501D01*
X794399Y589389D01*
X794382Y589276D01*
X794360Y589164D01*
X794335Y589054D01*
X794307Y588944D01*
X794274Y588835D01*
X794238Y588727D01*
X794198Y588620D01*
X794154Y588515D01*
X794107Y588412D01*
X794057Y588310D01*
X794003Y588210D01*
X793945Y588112D01*
X793884Y588016D01*
X793821Y587922D01*
X793753Y587830D01*
X793683Y587740D01*
X793610Y587654D01*
X793534Y587569D01*
X793455Y587487D01*
X793373Y587408D01*
X793288Y587332D01*
X793202Y587259D01*
X793112Y587189D01*
X793020Y587121D01*
X792926Y587058D01*
X792830Y586997D01*
X792732Y586939D01*
X792632Y586885D01*
X792530Y586835D01*
X792427Y586788D01*
X792322Y586744D01*
X792215Y586704D01*
X792107Y586668D01*
X791998Y586635D01*
X791888Y586607D01*
X791778Y586582D01*
X791666Y586560D01*
X791553Y586543D01*
X791441Y586529D01*
X791327Y586520D01*
X791214Y586514D01*
X791100Y586512D01*
X790986Y586514D01*
X790873Y586520D01*
X790759Y586529D01*
X790647Y586543D01*
X790534Y586560D01*
X790422Y586582D01*
X790312Y586607D01*
X790202Y586635D01*
X790093Y586668D01*
X789985Y586704D01*
X789878Y586744D01*
X789773Y586788D01*
X789670Y586835D01*
X789568Y586885D01*
X789468Y586939D01*
X789370Y586997D01*
X789274Y587058D01*
X789180Y587121D01*
X789088Y587189D01*
X788998Y587259D01*
X788912Y587332D01*
X788827Y587408D01*
X788745Y587487D01*
X788666Y587569D01*
X788590Y587654D01*
X788517Y587740D01*
X788447Y587830D01*
X788379Y587922D01*
X788316Y588016D01*
X788255Y588112D01*
X788197Y588210D01*
X788143Y588310D01*
X788093Y588412D01*
X788046Y588515D01*
X788002Y588620D01*
X787962Y588727D01*
X787926Y588835D01*
X787893Y588944D01*
X787865Y589054D01*
X787840Y589164D01*
X787818Y589276D01*
X787801Y589389D01*
X787787Y589501D01*
X787778Y589615D01*
X787772Y589728D01*
X787770Y589842D01*
X801966Y586511D02*
X801966Y596502D01*
X806961Y596502D01*
X806961Y594837D01*
X814756Y586511D02*
X818919Y586511D01*
X814756Y586511D02*
X814658Y586513D01*
X814560Y586519D01*
X814462Y586528D01*
X814365Y586542D01*
X814269Y586559D01*
X814173Y586580D01*
X814078Y586605D01*
X813984Y586633D01*
X813891Y586665D01*
X813800Y586701D01*
X813710Y586740D01*
X813622Y586783D01*
X813535Y586830D01*
X813451Y586879D01*
X813368Y586932D01*
X813288Y586988D01*
X813210Y587047D01*
X813134Y587110D01*
X813060Y587175D01*
X812990Y587243D01*
X812922Y587313D01*
X812857Y587387D01*
X812794Y587463D01*
X812735Y587541D01*
X812679Y587621D01*
X812626Y587704D01*
X812577Y587788D01*
X812530Y587875D01*
X812487Y587963D01*
X812448Y588053D01*
X812412Y588144D01*
X812380Y588237D01*
X812352Y588331D01*
X812327Y588426D01*
X812306Y588522D01*
X812289Y588618D01*
X812275Y588715D01*
X812266Y588813D01*
X812260Y588911D01*
X812258Y589009D01*
X812258Y593172D01*
X812259Y593172D02*
X812261Y593286D01*
X812267Y593399D01*
X812276Y593513D01*
X812290Y593625D01*
X812307Y593738D01*
X812329Y593850D01*
X812354Y593960D01*
X812382Y594070D01*
X812415Y594179D01*
X812451Y594287D01*
X812491Y594394D01*
X812535Y594499D01*
X812582Y594602D01*
X812632Y594704D01*
X812686Y594804D01*
X812744Y594902D01*
X812805Y594998D01*
X812868Y595092D01*
X812936Y595184D01*
X813006Y595274D01*
X813079Y595360D01*
X813155Y595445D01*
X813234Y595527D01*
X813316Y595606D01*
X813401Y595682D01*
X813487Y595755D01*
X813577Y595825D01*
X813669Y595893D01*
X813763Y595956D01*
X813859Y596017D01*
X813957Y596075D01*
X814057Y596129D01*
X814159Y596179D01*
X814262Y596226D01*
X814367Y596270D01*
X814474Y596310D01*
X814582Y596346D01*
X814691Y596379D01*
X814801Y596407D01*
X814911Y596432D01*
X815023Y596454D01*
X815136Y596471D01*
X815248Y596485D01*
X815362Y596494D01*
X815475Y596500D01*
X815589Y596502D01*
X815703Y596500D01*
X815816Y596494D01*
X815930Y596485D01*
X816042Y596471D01*
X816155Y596454D01*
X816267Y596432D01*
X816377Y596407D01*
X816487Y596379D01*
X816596Y596346D01*
X816704Y596310D01*
X816811Y596270D01*
X816916Y596226D01*
X817019Y596179D01*
X817121Y596129D01*
X817221Y596075D01*
X817319Y596017D01*
X817415Y595956D01*
X817509Y595893D01*
X817601Y595825D01*
X817691Y595755D01*
X817777Y595682D01*
X817862Y595606D01*
X817944Y595527D01*
X818023Y595445D01*
X818099Y595360D01*
X818172Y595274D01*
X818242Y595184D01*
X818310Y595092D01*
X818373Y594998D01*
X818434Y594902D01*
X818492Y594804D01*
X818546Y594704D01*
X818596Y594602D01*
X818643Y594499D01*
X818687Y594394D01*
X818727Y594287D01*
X818763Y594179D01*
X818796Y594070D01*
X818824Y593960D01*
X818849Y593850D01*
X818871Y593738D01*
X818888Y593625D01*
X818902Y593513D01*
X818911Y593399D01*
X818917Y593286D01*
X818919Y593172D01*
X818919Y591507D01*
X812258Y591507D01*
D10*
X699008Y791997D02*
X0Y791997D01*
D11*
X731497Y794495D02*
X734827Y784504D01*
X738158Y794495D01*
X744942Y790332D02*
X754933Y790332D01*
X763487Y790332D02*
X767650Y788667D01*
X763487Y790332D02*
X763402Y790368D01*
X763319Y790408D01*
X763238Y790451D01*
X763158Y790498D01*
X763081Y790548D01*
X763005Y790601D01*
X762932Y790657D01*
X762862Y790717D01*
X762794Y790779D01*
X762729Y790844D01*
X762667Y790912D01*
X762607Y790983D01*
X762551Y791056D01*
X762498Y791131D01*
X762448Y791209D01*
X762402Y791288D01*
X762359Y791370D01*
X762319Y791453D01*
X762283Y791538D01*
X762251Y791624D01*
X762222Y791712D01*
X762198Y791801D01*
X762177Y791891D01*
X762160Y791981D01*
X762146Y792072D01*
X762137Y792164D01*
X762132Y792256D01*
X762130Y792348D01*
X762132Y792440D01*
X762139Y792532D01*
X762149Y792624D01*
X762163Y792715D01*
X762181Y792806D01*
X762203Y792895D01*
X762229Y792984D01*
X762259Y793071D01*
X762292Y793157D01*
X762329Y793241D01*
X762369Y793324D01*
X762413Y793405D01*
X762460Y793484D01*
X762511Y793561D01*
X762565Y793636D01*
X762622Y793709D01*
X762682Y793779D01*
X762745Y793846D01*
X762811Y793910D01*
X762879Y793972D01*
X762950Y794031D01*
X763024Y794086D01*
X763100Y794139D01*
X763178Y794188D01*
X763258Y794234D01*
X763339Y794276D01*
X763423Y794315D01*
X763508Y794350D01*
X763595Y794381D01*
X763683Y794409D01*
X763772Y794433D01*
X763862Y794453D01*
X763952Y794470D01*
X764044Y794482D01*
X764136Y794491D01*
X764228Y794495D01*
X764320Y794496D01*
X764320Y794495D02*
X764547Y794489D01*
X764774Y794478D01*
X765001Y794461D01*
X765227Y794438D01*
X765453Y794411D01*
X765678Y794377D01*
X765902Y794339D01*
X766125Y794295D01*
X766347Y794246D01*
X766568Y794191D01*
X766787Y794131D01*
X767005Y794066D01*
X767221Y793995D01*
X767435Y793920D01*
X767648Y793839D01*
X767858Y793753D01*
X768067Y793662D01*
X767650Y788668D02*
X767735Y788632D01*
X767818Y788592D01*
X767899Y788549D01*
X767979Y788502D01*
X768056Y788452D01*
X768132Y788399D01*
X768205Y788343D01*
X768275Y788283D01*
X768343Y788221D01*
X768408Y788156D01*
X768470Y788088D01*
X768530Y788017D01*
X768586Y787944D01*
X768639Y787869D01*
X768689Y787791D01*
X768735Y787712D01*
X768778Y787630D01*
X768818Y787547D01*
X768854Y787462D01*
X768886Y787376D01*
X768915Y787288D01*
X768939Y787199D01*
X768960Y787109D01*
X768977Y787019D01*
X768991Y786928D01*
X769000Y786836D01*
X769005Y786744D01*
X769007Y786652D01*
X769005Y786560D01*
X768998Y786468D01*
X768988Y786376D01*
X768974Y786285D01*
X768956Y786194D01*
X768934Y786105D01*
X768908Y786016D01*
X768878Y785929D01*
X768845Y785843D01*
X768808Y785759D01*
X768768Y785676D01*
X768724Y785595D01*
X768677Y785516D01*
X768626Y785439D01*
X768572Y785364D01*
X768515Y785291D01*
X768455Y785221D01*
X768392Y785154D01*
X768326Y785090D01*
X768258Y785028D01*
X768187Y784969D01*
X768113Y784914D01*
X768037Y784861D01*
X767959Y784812D01*
X767879Y784766D01*
X767798Y784724D01*
X767714Y784685D01*
X767629Y784650D01*
X767542Y784619D01*
X767454Y784591D01*
X767365Y784567D01*
X767275Y784547D01*
X767185Y784530D01*
X767093Y784518D01*
X767001Y784509D01*
X766909Y784505D01*
X766817Y784504D01*
X766483Y784513D01*
X766150Y784530D01*
X765817Y784554D01*
X765484Y784587D01*
X765153Y784627D01*
X764822Y784675D01*
X764493Y784731D01*
X764165Y784794D01*
X763839Y784866D01*
X763515Y784945D01*
X763192Y785031D01*
X762872Y785126D01*
X762554Y785228D01*
X762238Y785337D01*
X778310Y784504D02*
X781640Y784504D01*
X778310Y784504D02*
X778212Y784506D01*
X778114Y784512D01*
X778016Y784521D01*
X777919Y784535D01*
X777823Y784552D01*
X777727Y784573D01*
X777632Y784598D01*
X777538Y784626D01*
X777445Y784658D01*
X777354Y784694D01*
X777264Y784733D01*
X777176Y784776D01*
X777089Y784823D01*
X777005Y784872D01*
X776922Y784925D01*
X776842Y784981D01*
X776764Y785040D01*
X776688Y785103D01*
X776614Y785168D01*
X776544Y785236D01*
X776476Y785306D01*
X776411Y785380D01*
X776348Y785456D01*
X776289Y785534D01*
X776233Y785614D01*
X776180Y785697D01*
X776131Y785781D01*
X776084Y785868D01*
X776041Y785956D01*
X776002Y786046D01*
X775966Y786137D01*
X775934Y786230D01*
X775906Y786324D01*
X775881Y786419D01*
X775860Y786515D01*
X775843Y786611D01*
X775829Y786708D01*
X775820Y786806D01*
X775814Y786904D01*
X775812Y787002D01*
X775812Y791997D01*
X775814Y792095D01*
X775820Y792193D01*
X775829Y792291D01*
X775843Y792388D01*
X775860Y792484D01*
X775881Y792580D01*
X775906Y792675D01*
X775934Y792769D01*
X775966Y792862D01*
X776002Y792953D01*
X776041Y793043D01*
X776084Y793131D01*
X776131Y793218D01*
X776180Y793302D01*
X776233Y793385D01*
X776289Y793465D01*
X776348Y793544D01*
X776411Y793619D01*
X776476Y793693D01*
X776544Y793763D01*
X776614Y793831D01*
X776688Y793897D01*
X776764Y793959D01*
X776842Y794018D01*
X776922Y794074D01*
X777005Y794127D01*
X777089Y794177D01*
X777176Y794223D01*
X777264Y794266D01*
X777354Y794305D01*
X777445Y794341D01*
X777538Y794373D01*
X777632Y794401D01*
X777727Y794426D01*
X777823Y794447D01*
X777919Y794464D01*
X778016Y794478D01*
X778114Y794487D01*
X778212Y794493D01*
X778310Y794495D01*
X781640Y794495D01*
X787770Y791165D02*
X787770Y787835D01*
X787770Y791165D02*
X787772Y791279D01*
X787778Y791392D01*
X787787Y791506D01*
X787801Y791618D01*
X787818Y791731D01*
X787840Y791843D01*
X787865Y791953D01*
X787893Y792063D01*
X787926Y792172D01*
X787962Y792280D01*
X788002Y792387D01*
X788046Y792492D01*
X788093Y792595D01*
X788143Y792697D01*
X788197Y792797D01*
X788255Y792895D01*
X788316Y792991D01*
X788379Y793085D01*
X788447Y793177D01*
X788517Y793267D01*
X788590Y793353D01*
X788666Y793438D01*
X788745Y793520D01*
X788827Y793599D01*
X788912Y793675D01*
X788998Y793748D01*
X789088Y793818D01*
X789180Y793886D01*
X789274Y793949D01*
X789370Y794010D01*
X789468Y794068D01*
X789568Y794122D01*
X789670Y794172D01*
X789773Y794219D01*
X789878Y794263D01*
X789985Y794303D01*
X790093Y794339D01*
X790202Y794372D01*
X790312Y794400D01*
X790422Y794425D01*
X790534Y794447D01*
X790647Y794464D01*
X790759Y794478D01*
X790873Y794487D01*
X790986Y794493D01*
X791100Y794495D01*
X791214Y794493D01*
X791327Y794487D01*
X791441Y794478D01*
X791553Y794464D01*
X791666Y794447D01*
X791778Y794425D01*
X791888Y794400D01*
X791998Y794372D01*
X792107Y794339D01*
X792215Y794303D01*
X792322Y794263D01*
X792427Y794219D01*
X792530Y794172D01*
X792632Y794122D01*
X792732Y794068D01*
X792830Y794010D01*
X792926Y793949D01*
X793020Y793886D01*
X793112Y793818D01*
X793202Y793748D01*
X793288Y793675D01*
X793373Y793599D01*
X793455Y793520D01*
X793534Y793438D01*
X793610Y793353D01*
X793683Y793267D01*
X793753Y793177D01*
X793821Y793085D01*
X793884Y792991D01*
X793945Y792895D01*
X794003Y792797D01*
X794057Y792697D01*
X794107Y792595D01*
X794154Y792492D01*
X794198Y792387D01*
X794238Y792280D01*
X794274Y792172D01*
X794307Y792063D01*
X794335Y791953D01*
X794360Y791843D01*
X794382Y791731D01*
X794399Y791618D01*
X794413Y791506D01*
X794422Y791392D01*
X794428Y791279D01*
X794430Y791165D01*
X794430Y787835D01*
X794428Y787721D01*
X794422Y787608D01*
X794413Y787494D01*
X794399Y787382D01*
X794382Y787269D01*
X794360Y787157D01*
X794335Y787047D01*
X794307Y786937D01*
X794274Y786828D01*
X794238Y786720D01*
X794198Y786613D01*
X794154Y786508D01*
X794107Y786405D01*
X794057Y786303D01*
X794003Y786203D01*
X793945Y786105D01*
X793884Y786009D01*
X793821Y785915D01*
X793753Y785823D01*
X793683Y785733D01*
X793610Y785647D01*
X793534Y785562D01*
X793455Y785480D01*
X793373Y785401D01*
X793288Y785325D01*
X793202Y785252D01*
X793112Y785182D01*
X793020Y785114D01*
X792926Y785051D01*
X792830Y784990D01*
X792732Y784932D01*
X792632Y784878D01*
X792530Y784828D01*
X792427Y784781D01*
X792322Y784737D01*
X792215Y784697D01*
X792107Y784661D01*
X791998Y784628D01*
X791888Y784600D01*
X791778Y784575D01*
X791666Y784553D01*
X791553Y784536D01*
X791441Y784522D01*
X791327Y784513D01*
X791214Y784507D01*
X791100Y784505D01*
X790986Y784507D01*
X790873Y784513D01*
X790759Y784522D01*
X790647Y784536D01*
X790534Y784553D01*
X790422Y784575D01*
X790312Y784600D01*
X790202Y784628D01*
X790093Y784661D01*
X789985Y784697D01*
X789878Y784737D01*
X789773Y784781D01*
X789670Y784828D01*
X789568Y784878D01*
X789468Y784932D01*
X789370Y784990D01*
X789274Y785051D01*
X789180Y785114D01*
X789088Y785182D01*
X788998Y785252D01*
X788912Y785325D01*
X788827Y785401D01*
X788745Y785480D01*
X788666Y785562D01*
X788590Y785647D01*
X788517Y785733D01*
X788447Y785823D01*
X788379Y785915D01*
X788316Y786009D01*
X788255Y786105D01*
X788197Y786203D01*
X788143Y786303D01*
X788093Y786405D01*
X788046Y786508D01*
X788002Y786613D01*
X787962Y786720D01*
X787926Y786828D01*
X787893Y786937D01*
X787865Y787047D01*
X787840Y787157D01*
X787818Y787269D01*
X787801Y787382D01*
X787787Y787494D01*
X787778Y787608D01*
X787772Y787721D01*
X787770Y787835D01*
X801966Y784504D02*
X801966Y794495D01*
X806961Y794495D01*
X806961Y792830D01*
X814756Y784504D02*
X818919Y784504D01*
X814756Y784504D02*
X814658Y784506D01*
X814560Y784512D01*
X814462Y784521D01*
X814365Y784535D01*
X814269Y784552D01*
X814173Y784573D01*
X814078Y784598D01*
X813984Y784626D01*
X813891Y784658D01*
X813800Y784694D01*
X813710Y784733D01*
X813622Y784776D01*
X813535Y784823D01*
X813451Y784872D01*
X813368Y784925D01*
X813288Y784981D01*
X813210Y785040D01*
X813134Y785103D01*
X813060Y785168D01*
X812990Y785236D01*
X812922Y785306D01*
X812857Y785380D01*
X812794Y785456D01*
X812735Y785534D01*
X812679Y785614D01*
X812626Y785697D01*
X812577Y785781D01*
X812530Y785868D01*
X812487Y785956D01*
X812448Y786046D01*
X812412Y786137D01*
X812380Y786230D01*
X812352Y786324D01*
X812327Y786419D01*
X812306Y786515D01*
X812289Y786611D01*
X812275Y786708D01*
X812266Y786806D01*
X812260Y786904D01*
X812258Y787002D01*
X812258Y791165D01*
X812259Y791165D02*
X812261Y791279D01*
X812267Y791392D01*
X812276Y791506D01*
X812290Y791618D01*
X812307Y791731D01*
X812329Y791843D01*
X812354Y791953D01*
X812382Y792063D01*
X812415Y792172D01*
X812451Y792280D01*
X812491Y792387D01*
X812535Y792492D01*
X812582Y792595D01*
X812632Y792697D01*
X812686Y792797D01*
X812744Y792895D01*
X812805Y792991D01*
X812868Y793085D01*
X812936Y793177D01*
X813006Y793267D01*
X813079Y793353D01*
X813155Y793438D01*
X813234Y793520D01*
X813316Y793599D01*
X813401Y793675D01*
X813487Y793748D01*
X813577Y793818D01*
X813669Y793886D01*
X813763Y793949D01*
X813859Y794010D01*
X813957Y794068D01*
X814057Y794122D01*
X814159Y794172D01*
X814262Y794219D01*
X814367Y794263D01*
X814474Y794303D01*
X814582Y794339D01*
X814691Y794372D01*
X814801Y794400D01*
X814911Y794425D01*
X815023Y794447D01*
X815136Y794464D01*
X815248Y794478D01*
X815362Y794487D01*
X815475Y794493D01*
X815589Y794495D01*
X815703Y794493D01*
X815816Y794487D01*
X815930Y794478D01*
X816042Y794464D01*
X816155Y794447D01*
X816267Y794425D01*
X816377Y794400D01*
X816487Y794372D01*
X816596Y794339D01*
X816704Y794303D01*
X816811Y794263D01*
X816916Y794219D01*
X817019Y794172D01*
X817121Y794122D01*
X817221Y794068D01*
X817319Y794010D01*
X817415Y793949D01*
X817509Y793886D01*
X817601Y793818D01*
X817691Y793748D01*
X817777Y793675D01*
X817862Y793599D01*
X817944Y793520D01*
X818023Y793438D01*
X818099Y793353D01*
X818172Y793267D01*
X818242Y793177D01*
X818310Y793085D01*
X818373Y792991D01*
X818434Y792895D01*
X818492Y792797D01*
X818546Y792697D01*
X818596Y792595D01*
X818643Y792492D01*
X818687Y792387D01*
X818727Y792280D01*
X818763Y792172D01*
X818796Y792063D01*
X818824Y791953D01*
X818849Y791843D01*
X818871Y791731D01*
X818888Y791618D01*
X818902Y791506D01*
X818911Y791392D01*
X818917Y791279D01*
X818919Y791165D01*
X818919Y789500D01*
X812258Y789500D01*
D12*
X0Y0D02*
X635510Y0D01*
X635510Y198020D01*
X0Y198020D01*
X0Y0D01*
X101600Y38100D02*
X101648Y36993D01*
X101793Y35895D01*
X102033Y34813D01*
X102366Y33756D01*
X102790Y32733D01*
X103301Y31750D01*
X103897Y30816D01*
X104571Y29937D01*
X105320Y29120D01*
X106137Y28371D01*
X107016Y27697D01*
X107950Y27101D01*
X108933Y26590D01*
X109956Y26166D01*
X111013Y25833D01*
X112095Y25593D01*
X113193Y25448D01*
X114300Y25400D01*
X115407Y25448D01*
X116505Y25593D01*
X117587Y25833D01*
X118644Y26166D01*
X119667Y26590D01*
X120650Y27101D01*
X121584Y27697D01*
X122463Y28371D01*
X123280Y29120D01*
X124029Y29937D01*
X124703Y30816D01*
X125299Y31750D01*
X125810Y32733D01*
X126234Y33756D01*
X126567Y34813D01*
X126807Y35895D01*
X126952Y36993D01*
X127000Y38100D01*
X127000Y165100D01*
X126952Y166207D01*
X126807Y167305D01*
X126567Y168387D01*
X126234Y169444D01*
X125810Y170467D01*
X125299Y171450D01*
X124703Y172384D01*
X124029Y173263D01*
X123280Y174080D01*
X122463Y174829D01*
X121584Y175503D01*
X120650Y176099D01*
X119667Y176610D01*
X118644Y177034D01*
X117587Y177367D01*
X116505Y177607D01*
X115407Y177752D01*
X114300Y177800D01*
X113193Y177752D01*
X112095Y177607D01*
X111013Y177367D01*
X109956Y177034D01*
X108933Y176610D01*
X107950Y176099D01*
X107016Y175503D01*
X106137Y174829D01*
X105320Y174080D01*
X104571Y173263D01*
X103897Y172384D01*
X103301Y171450D01*
X102790Y170467D01*
X102366Y169444D01*
X102033Y168387D01*
X101793Y167305D01*
X101648Y166207D01*
X101600Y165100D01*
X101600Y38100D01*
X101600Y236093D02*
X101648Y234986D01*
X101793Y233888D01*
X102033Y232806D01*
X102366Y231749D01*
X102790Y230726D01*
X103301Y229743D01*
X103897Y228809D01*
X104571Y227930D01*
X105320Y227113D01*
X106137Y226364D01*
X107016Y225690D01*
X107950Y225094D01*
X108933Y224583D01*
X109956Y224159D01*
X111013Y223826D01*
X112095Y223586D01*
X113193Y223441D01*
X114300Y223393D01*
X115407Y223441D01*
X116505Y223586D01*
X117587Y223826D01*
X118644Y224159D01*
X119667Y224583D01*
X120650Y225094D01*
X121584Y225690D01*
X122463Y226364D01*
X123280Y227113D01*
X124029Y227930D01*
X124703Y228809D01*
X125299Y229743D01*
X125810Y230726D01*
X126234Y231749D01*
X126567Y232806D01*
X126807Y233888D01*
X126952Y234986D01*
X127000Y236093D01*
X127000Y363093D01*
X126952Y364200D01*
X126807Y365298D01*
X126567Y366380D01*
X126234Y367437D01*
X125810Y368460D01*
X125299Y369443D01*
X124703Y370377D01*
X124029Y371256D01*
X123280Y372073D01*
X122463Y372822D01*
X121584Y373496D01*
X120650Y374092D01*
X119667Y374603D01*
X118644Y375027D01*
X117587Y375360D01*
X116505Y375600D01*
X115407Y375745D01*
X114300Y375793D01*
X113193Y375745D01*
X112095Y375600D01*
X111013Y375360D01*
X109956Y375027D01*
X108933Y374603D01*
X107950Y374092D01*
X107016Y373496D01*
X106137Y372822D01*
X105320Y372073D01*
X104571Y371256D01*
X103897Y370377D01*
X103301Y369443D01*
X102790Y368460D01*
X102366Y367437D01*
X102033Y366380D01*
X101793Y365298D01*
X101648Y364200D01*
X101600Y363093D01*
X101600Y236093D01*
X101600Y830097D02*
X101648Y828991D01*
X101793Y827892D01*
X102033Y826810D01*
X102366Y825754D01*
X102790Y824730D01*
X103301Y823747D01*
X103897Y822813D01*
X104571Y821934D01*
X105320Y821117D01*
X106137Y820369D01*
X107016Y819694D01*
X107950Y819099D01*
X108933Y818587D01*
X109956Y818163D01*
X111013Y817830D01*
X112095Y817590D01*
X113193Y817446D01*
X114300Y817397D01*
X115407Y817446D01*
X116505Y817590D01*
X117587Y817830D01*
X118644Y818163D01*
X119667Y818587D01*
X120650Y819099D01*
X121584Y819694D01*
X122463Y820369D01*
X123280Y821117D01*
X124029Y821934D01*
X124703Y822813D01*
X125299Y823747D01*
X125810Y824730D01*
X126234Y825754D01*
X126567Y826810D01*
X126807Y827892D01*
X126952Y828991D01*
X127000Y830097D01*
X127000Y957097D01*
X126952Y958204D01*
X126807Y959303D01*
X126567Y960384D01*
X126234Y961441D01*
X125810Y962465D01*
X125299Y963447D01*
X124703Y964382D01*
X124029Y965261D01*
X123280Y966078D01*
X122463Y966826D01*
X121584Y967501D01*
X120650Y968096D01*
X119667Y968608D01*
X118644Y969032D01*
X117587Y969365D01*
X116505Y969604D01*
X115407Y969749D01*
X114300Y969797D01*
X113193Y969749D01*
X112095Y969604D01*
X111013Y969365D01*
X109956Y969032D01*
X108933Y968608D01*
X107950Y968096D01*
X107016Y967501D01*
X106137Y966826D01*
X105320Y966078D01*
X104571Y965261D01*
X103897Y964382D01*
X103301Y963447D01*
X102790Y962465D01*
X102366Y961441D01*
X102033Y960384D01*
X101793Y959303D01*
X101648Y958204D01*
X101600Y957097D01*
X101600Y830097D01*
X101600Y632104D02*
X101648Y630998D01*
X101793Y629899D01*
X102033Y628817D01*
X102366Y627761D01*
X102790Y626737D01*
X103301Y625754D01*
X103897Y624820D01*
X104571Y623941D01*
X105320Y623124D01*
X106137Y622376D01*
X107016Y621701D01*
X107950Y621106D01*
X108933Y620594D01*
X109956Y620170D01*
X111013Y619837D01*
X112095Y619597D01*
X113193Y619453D01*
X114300Y619404D01*
X115407Y619453D01*
X116505Y619597D01*
X117587Y619837D01*
X118644Y620170D01*
X119667Y620594D01*
X120650Y621106D01*
X121584Y621701D01*
X122463Y622376D01*
X123280Y623124D01*
X124029Y623941D01*
X124703Y624820D01*
X125299Y625754D01*
X125810Y626737D01*
X126234Y627761D01*
X126567Y628817D01*
X126807Y629899D01*
X126952Y630998D01*
X127000Y632104D01*
X127000Y759104D01*
X126952Y760211D01*
X126807Y761310D01*
X126567Y762391D01*
X126234Y763448D01*
X125810Y764472D01*
X125299Y765454D01*
X124703Y766389D01*
X124029Y767268D01*
X123280Y768085D01*
X122463Y768833D01*
X121584Y769508D01*
X120650Y770103D01*
X119667Y770615D01*
X118644Y771039D01*
X117587Y771372D01*
X116505Y771611D01*
X115407Y771756D01*
X114300Y771804D01*
X113193Y771756D01*
X112095Y771611D01*
X111013Y771372D01*
X109956Y771039D01*
X108933Y770615D01*
X107950Y770103D01*
X107016Y769508D01*
X106137Y768833D01*
X105320Y768085D01*
X104571Y767268D01*
X103897Y766389D01*
X103301Y765454D01*
X102790Y764472D01*
X102366Y763448D01*
X102033Y762391D01*
X101793Y761310D01*
X101648Y760211D01*
X101600Y759104D01*
X101600Y632104D01*
X101600Y434111D02*
X101648Y433005D01*
X101793Y431906D01*
X102033Y430824D01*
X102366Y429768D01*
X102790Y428744D01*
X103301Y427761D01*
X103897Y426827D01*
X104571Y425948D01*
X105320Y425131D01*
X106137Y424383D01*
X107016Y423708D01*
X107950Y423113D01*
X108933Y422601D01*
X109956Y422177D01*
X111013Y421844D01*
X112095Y421604D01*
X113193Y421460D01*
X114300Y421411D01*
X115407Y421460D01*
X116505Y421604D01*
X117587Y421844D01*
X118644Y422177D01*
X119667Y422601D01*
X120650Y423113D01*
X121584Y423708D01*
X122463Y424383D01*
X123280Y425131D01*
X124029Y425948D01*
X124703Y426827D01*
X125299Y427761D01*
X125810Y428744D01*
X126234Y429768D01*
X126567Y430824D01*
X126807Y431906D01*
X126952Y433005D01*
X127000Y434111D01*
X127000Y561111D01*
X126952Y562218D01*
X126807Y563317D01*
X126567Y564398D01*
X126234Y565455D01*
X125810Y566479D01*
X125299Y567461D01*
X124703Y568396D01*
X124029Y569275D01*
X123280Y570092D01*
X122463Y570840D01*
X121584Y571515D01*
X120650Y572110D01*
X119667Y572622D01*
X118644Y573046D01*
X117587Y573379D01*
X116505Y573618D01*
X115407Y573763D01*
X114300Y573811D01*
X113193Y573763D01*
X112095Y573618D01*
X111013Y573379D01*
X109956Y573046D01*
X108933Y572622D01*
X107950Y572110D01*
X107016Y571515D01*
X106137Y570840D01*
X105320Y570092D01*
X104571Y569275D01*
X103897Y568396D01*
X103301Y567461D01*
X102790Y566479D01*
X102366Y565455D01*
X102033Y564398D01*
X101793Y563317D01*
X101648Y562218D01*
X101600Y561111D01*
X101600Y434111D01*
M02*
