G04 EAGLE Gerber RS-274X export*
G75*
%MOMM*%
%FSLAX34Y34*%
%LPD*%
%INTop Solder Mask*%
%IPPOS*%
%AMOC8*
5,1,8,0,0,1.08239X$1,22.5*%
G01*
%ADD10C,0.800100*%
%ADD11C,1.625600*%


D10*
X153734Y40060D02*
X153734Y27740D01*
X151066Y27740D01*
X151066Y40060D01*
X153734Y40060D01*
X153734Y35341D02*
X151066Y35341D01*
X168734Y40060D02*
X168734Y27740D01*
X166066Y27740D01*
X166066Y40060D01*
X168734Y40060D01*
X168734Y35341D02*
X166066Y35341D01*
X183734Y40060D02*
X183734Y27740D01*
X181066Y27740D01*
X181066Y40060D01*
X183734Y40060D01*
X183734Y35341D02*
X181066Y35341D01*
X198734Y40060D02*
X198734Y27740D01*
X196066Y27740D01*
X196066Y40060D01*
X198734Y40060D01*
X198734Y35341D02*
X196066Y35341D01*
X213734Y40060D02*
X213734Y27740D01*
X211066Y27740D01*
X211066Y40060D01*
X213734Y40060D01*
X213734Y35341D02*
X211066Y35341D01*
X228734Y40060D02*
X228734Y27740D01*
X226066Y27740D01*
X226066Y40060D01*
X228734Y40060D01*
X228734Y35341D02*
X226066Y35341D01*
X243734Y40060D02*
X243734Y27740D01*
X241066Y27740D01*
X241066Y40060D01*
X243734Y40060D01*
X243734Y35341D02*
X241066Y35341D01*
X258734Y40060D02*
X258734Y27740D01*
X256066Y27740D01*
X256066Y40060D01*
X258734Y40060D01*
X258734Y35341D02*
X256066Y35341D01*
X273734Y40060D02*
X273734Y27740D01*
X271066Y27740D01*
X271066Y40060D01*
X273734Y40060D01*
X273734Y35341D02*
X271066Y35341D01*
X288734Y40060D02*
X288734Y27740D01*
X286066Y27740D01*
X286066Y40060D01*
X288734Y40060D01*
X288734Y35341D02*
X286066Y35341D01*
X303734Y40060D02*
X303734Y27740D01*
X301066Y27740D01*
X301066Y40060D01*
X303734Y40060D01*
X303734Y35341D02*
X301066Y35341D01*
X318734Y40060D02*
X318734Y27740D01*
X316066Y27740D01*
X316066Y40060D01*
X318734Y40060D01*
X318734Y35341D02*
X316066Y35341D01*
X333734Y40060D02*
X333734Y27740D01*
X331066Y27740D01*
X331066Y40060D01*
X333734Y40060D01*
X333734Y35341D02*
X331066Y35341D01*
X346940Y50634D02*
X359260Y50634D01*
X359260Y47966D01*
X346940Y47966D01*
X346940Y50634D01*
X346940Y65634D02*
X359260Y65634D01*
X359260Y62966D01*
X346940Y62966D01*
X346940Y65634D01*
X346940Y80634D02*
X359260Y80634D01*
X359260Y77966D01*
X346940Y77966D01*
X346940Y80634D01*
X346940Y95634D02*
X359260Y95634D01*
X359260Y92966D01*
X346940Y92966D01*
X346940Y95634D01*
X346940Y110634D02*
X359260Y110634D01*
X359260Y107966D01*
X346940Y107966D01*
X346940Y110634D01*
X346940Y125634D02*
X359260Y125634D01*
X359260Y122966D01*
X346940Y122966D01*
X346940Y125634D01*
X346940Y140634D02*
X359260Y140634D01*
X359260Y137966D01*
X346940Y137966D01*
X346940Y140634D01*
X346940Y155634D02*
X359260Y155634D01*
X359260Y152966D01*
X346940Y152966D01*
X346940Y155634D01*
X331066Y163140D02*
X331066Y175460D01*
X333734Y175460D01*
X333734Y163140D01*
X331066Y163140D01*
X331066Y170741D02*
X333734Y170741D01*
X316066Y175460D02*
X316066Y163140D01*
X316066Y175460D02*
X318734Y175460D01*
X318734Y163140D01*
X316066Y163140D01*
X316066Y170741D02*
X318734Y170741D01*
X301066Y175460D02*
X301066Y163140D01*
X301066Y175460D02*
X303734Y175460D01*
X303734Y163140D01*
X301066Y163140D01*
X301066Y170741D02*
X303734Y170741D01*
X286066Y175460D02*
X286066Y163140D01*
X286066Y175460D02*
X288734Y175460D01*
X288734Y163140D01*
X286066Y163140D01*
X286066Y170741D02*
X288734Y170741D01*
X271066Y175460D02*
X271066Y163140D01*
X271066Y175460D02*
X273734Y175460D01*
X273734Y163140D01*
X271066Y163140D01*
X271066Y170741D02*
X273734Y170741D01*
X256066Y175460D02*
X256066Y163140D01*
X256066Y175460D02*
X258734Y175460D01*
X258734Y163140D01*
X256066Y163140D01*
X256066Y170741D02*
X258734Y170741D01*
X241066Y175460D02*
X241066Y163140D01*
X241066Y175460D02*
X243734Y175460D01*
X243734Y163140D01*
X241066Y163140D01*
X241066Y170741D02*
X243734Y170741D01*
X226066Y175460D02*
X226066Y163140D01*
X226066Y175460D02*
X228734Y175460D01*
X228734Y163140D01*
X226066Y163140D01*
X226066Y170741D02*
X228734Y170741D01*
X211066Y175460D02*
X211066Y163140D01*
X211066Y175460D02*
X213734Y175460D01*
X213734Y163140D01*
X211066Y163140D01*
X211066Y170741D02*
X213734Y170741D01*
X196066Y175460D02*
X196066Y163140D01*
X196066Y175460D02*
X198734Y175460D01*
X198734Y163140D01*
X196066Y163140D01*
X196066Y170741D02*
X198734Y170741D01*
X181066Y175460D02*
X181066Y163140D01*
X181066Y175460D02*
X183734Y175460D01*
X183734Y163140D01*
X181066Y163140D01*
X181066Y170741D02*
X183734Y170741D01*
X166066Y175460D02*
X166066Y163140D01*
X166066Y175460D02*
X168734Y175460D01*
X168734Y163140D01*
X166066Y163140D01*
X166066Y170741D02*
X168734Y170741D01*
X151066Y175460D02*
X151066Y163140D01*
X151066Y175460D02*
X153734Y175460D01*
X153734Y163140D01*
X151066Y163140D01*
X151066Y170741D02*
X153734Y170741D01*
D11*
X39370Y50800D02*
X24130Y50800D01*
X24130Y76200D02*
X39370Y76200D01*
X39370Y101600D02*
X24130Y101600D01*
X24130Y127000D02*
X39370Y127000D01*
X39370Y152400D02*
X24130Y152400D01*
X431800Y45720D02*
X431800Y30480D01*
X457200Y30480D02*
X457200Y45720D01*
X482600Y45720D02*
X482600Y30480D01*
X508000Y30480D02*
X508000Y45720D01*
X533400Y45720D02*
X533400Y30480D01*
X558800Y30480D02*
X558800Y45720D01*
X584200Y45720D02*
X584200Y30480D01*
X609600Y30480D02*
X609600Y45720D01*
X609600Y157480D02*
X609600Y172720D01*
X584200Y172720D02*
X584200Y157480D01*
X558800Y157480D02*
X558800Y172720D01*
X533400Y172720D02*
X533400Y157480D01*
X508000Y157480D02*
X508000Y172720D01*
X482600Y172720D02*
X482600Y157480D01*
X457200Y157480D02*
X457200Y172720D01*
X431800Y172720D02*
X431800Y157480D01*
M02*
