G04 EAGLE Gerber RS-274X export*
G75*
%MOMM*%
%FSLAX34Y34*%
%LPD*%
%INTop Copper*%
%IPPOS*%
%AMOC8*
5,1,8,0,0,1.08239X$1,22.5*%
G01*
%ADD10C,0.694944*%
%ADD11C,1.524000*%
%ADD12C,0.203200*%
%ADD13C,0.654800*%
%ADD14C,0.304800*%
%ADD15C,0.508000*%
%ADD16C,0.254000*%


D10*
X153752Y40078D02*
X153752Y27722D01*
X151048Y27722D01*
X151048Y40078D01*
X153752Y40078D01*
X153752Y34324D02*
X151048Y34324D01*
X168752Y40078D02*
X168752Y27722D01*
X166048Y27722D01*
X166048Y40078D01*
X168752Y40078D01*
X168752Y34324D02*
X166048Y34324D01*
X183752Y40078D02*
X183752Y27722D01*
X181048Y27722D01*
X181048Y40078D01*
X183752Y40078D01*
X183752Y34324D02*
X181048Y34324D01*
X198752Y40078D02*
X198752Y27722D01*
X196048Y27722D01*
X196048Y40078D01*
X198752Y40078D01*
X198752Y34324D02*
X196048Y34324D01*
X213752Y40078D02*
X213752Y27722D01*
X211048Y27722D01*
X211048Y40078D01*
X213752Y40078D01*
X213752Y34324D02*
X211048Y34324D01*
X228752Y40078D02*
X228752Y27722D01*
X226048Y27722D01*
X226048Y40078D01*
X228752Y40078D01*
X228752Y34324D02*
X226048Y34324D01*
X243752Y40078D02*
X243752Y27722D01*
X241048Y27722D01*
X241048Y40078D01*
X243752Y40078D01*
X243752Y34324D02*
X241048Y34324D01*
X258752Y40078D02*
X258752Y27722D01*
X256048Y27722D01*
X256048Y40078D01*
X258752Y40078D01*
X258752Y34324D02*
X256048Y34324D01*
X273752Y40078D02*
X273752Y27722D01*
X271048Y27722D01*
X271048Y40078D01*
X273752Y40078D01*
X273752Y34324D02*
X271048Y34324D01*
X288752Y40078D02*
X288752Y27722D01*
X286048Y27722D01*
X286048Y40078D01*
X288752Y40078D01*
X288752Y34324D02*
X286048Y34324D01*
X303752Y40078D02*
X303752Y27722D01*
X301048Y27722D01*
X301048Y40078D01*
X303752Y40078D01*
X303752Y34324D02*
X301048Y34324D01*
X318752Y40078D02*
X318752Y27722D01*
X316048Y27722D01*
X316048Y40078D01*
X318752Y40078D01*
X318752Y34324D02*
X316048Y34324D01*
X333752Y40078D02*
X333752Y27722D01*
X331048Y27722D01*
X331048Y40078D01*
X333752Y40078D01*
X333752Y34324D02*
X331048Y34324D01*
X346922Y50652D02*
X359278Y50652D01*
X359278Y47948D01*
X346922Y47948D01*
X346922Y50652D01*
X346922Y65652D02*
X359278Y65652D01*
X359278Y62948D01*
X346922Y62948D01*
X346922Y65652D01*
X346922Y80652D02*
X359278Y80652D01*
X359278Y77948D01*
X346922Y77948D01*
X346922Y80652D01*
X346922Y95652D02*
X359278Y95652D01*
X359278Y92948D01*
X346922Y92948D01*
X346922Y95652D01*
X346922Y110652D02*
X359278Y110652D01*
X359278Y107948D01*
X346922Y107948D01*
X346922Y110652D01*
X346922Y125652D02*
X359278Y125652D01*
X359278Y122948D01*
X346922Y122948D01*
X346922Y125652D01*
X346922Y140652D02*
X359278Y140652D01*
X359278Y137948D01*
X346922Y137948D01*
X346922Y140652D01*
X346922Y155652D02*
X359278Y155652D01*
X359278Y152948D01*
X346922Y152948D01*
X346922Y155652D01*
X331048Y163122D02*
X331048Y175478D01*
X333752Y175478D01*
X333752Y163122D01*
X331048Y163122D01*
X331048Y169724D02*
X333752Y169724D01*
X316048Y175478D02*
X316048Y163122D01*
X316048Y175478D02*
X318752Y175478D01*
X318752Y163122D01*
X316048Y163122D01*
X316048Y169724D02*
X318752Y169724D01*
X301048Y175478D02*
X301048Y163122D01*
X301048Y175478D02*
X303752Y175478D01*
X303752Y163122D01*
X301048Y163122D01*
X301048Y169724D02*
X303752Y169724D01*
X286048Y175478D02*
X286048Y163122D01*
X286048Y175478D02*
X288752Y175478D01*
X288752Y163122D01*
X286048Y163122D01*
X286048Y169724D02*
X288752Y169724D01*
X271048Y175478D02*
X271048Y163122D01*
X271048Y175478D02*
X273752Y175478D01*
X273752Y163122D01*
X271048Y163122D01*
X271048Y169724D02*
X273752Y169724D01*
X256048Y175478D02*
X256048Y163122D01*
X256048Y175478D02*
X258752Y175478D01*
X258752Y163122D01*
X256048Y163122D01*
X256048Y169724D02*
X258752Y169724D01*
X241048Y175478D02*
X241048Y163122D01*
X241048Y175478D02*
X243752Y175478D01*
X243752Y163122D01*
X241048Y163122D01*
X241048Y169724D02*
X243752Y169724D01*
X226048Y175478D02*
X226048Y163122D01*
X226048Y175478D02*
X228752Y175478D01*
X228752Y163122D01*
X226048Y163122D01*
X226048Y169724D02*
X228752Y169724D01*
X211048Y175478D02*
X211048Y163122D01*
X211048Y175478D02*
X213752Y175478D01*
X213752Y163122D01*
X211048Y163122D01*
X211048Y169724D02*
X213752Y169724D01*
X196048Y175478D02*
X196048Y163122D01*
X196048Y175478D02*
X198752Y175478D01*
X198752Y163122D01*
X196048Y163122D01*
X196048Y169724D02*
X198752Y169724D01*
X181048Y175478D02*
X181048Y163122D01*
X181048Y175478D02*
X183752Y175478D01*
X183752Y163122D01*
X181048Y163122D01*
X181048Y169724D02*
X183752Y169724D01*
X166048Y175478D02*
X166048Y163122D01*
X166048Y175478D02*
X168752Y175478D01*
X168752Y163122D01*
X166048Y163122D01*
X166048Y169724D02*
X168752Y169724D01*
X151048Y175478D02*
X151048Y163122D01*
X151048Y175478D02*
X153752Y175478D01*
X153752Y163122D01*
X151048Y163122D01*
X151048Y169724D02*
X153752Y169724D01*
D11*
X39370Y50800D02*
X24130Y50800D01*
X24130Y76200D02*
X39370Y76200D01*
X39370Y101600D02*
X24130Y101600D01*
X24130Y127000D02*
X39370Y127000D01*
X39370Y152400D02*
X24130Y152400D01*
X431800Y45720D02*
X431800Y30480D01*
X457200Y30480D02*
X457200Y45720D01*
X482600Y45720D02*
X482600Y30480D01*
X508000Y30480D02*
X508000Y45720D01*
X533400Y45720D02*
X533400Y30480D01*
X558800Y30480D02*
X558800Y45720D01*
X584200Y45720D02*
X584200Y30480D01*
X609600Y30480D02*
X609600Y45720D01*
X609600Y157480D02*
X609600Y172720D01*
X584200Y172720D02*
X584200Y157480D01*
X558800Y157480D02*
X558800Y172720D01*
X533400Y172720D02*
X533400Y157480D01*
X508000Y157480D02*
X508000Y172720D01*
X482600Y172720D02*
X482600Y157480D01*
X457200Y157480D02*
X457200Y172720D01*
X431800Y172720D02*
X431800Y157480D01*
D12*
X152400Y66040D02*
X152400Y33900D01*
X152400Y66040D02*
X327660Y66040D01*
X337820Y55880D01*
D13*
X337820Y55880D03*
D12*
X167400Y46750D02*
X167400Y33900D01*
X167400Y46750D02*
X181610Y60960D01*
X322580Y60960D02*
X350520Y33020D01*
X426720Y33020D01*
D14*
X431800Y38100D01*
D12*
X322580Y60960D02*
X181610Y60960D01*
X242400Y33900D02*
X242400Y20150D01*
X241300Y19050D01*
X77470Y19050D01*
X68580Y27940D01*
X68580Y66040D01*
X58420Y76200D01*
X31750Y76200D01*
D14*
X257400Y33900D02*
X257400Y22450D01*
D12*
X247650Y12700D02*
X76200Y12700D01*
X63500Y25400D01*
X63500Y45720D02*
X58420Y50800D01*
X31750Y50800D01*
X247650Y12700D02*
X257400Y22450D01*
X63500Y25400D02*
X63500Y45720D01*
D14*
X317400Y33900D02*
X317500Y33800D01*
D15*
X317500Y17780D01*
D13*
X317500Y17780D03*
D15*
X333959Y17780D01*
X340563Y11176D01*
X617220Y11176D01*
X623570Y17526D01*
X623570Y69850D01*
X549910Y143510D01*
X471170Y143510D01*
X457200Y157480D01*
D12*
X457200Y165100D01*
D16*
X332400Y33900D02*
X343440Y22860D01*
X347980Y22860D01*
D13*
X347980Y22860D03*
D16*
X353100Y49300D02*
X369800Y49300D01*
X373380Y45720D01*
D13*
X373380Y45720D03*
D16*
X353100Y154300D02*
X421000Y154300D01*
X431800Y165100D01*
X347400Y154300D02*
X332400Y169300D01*
D12*
X347400Y154300D02*
X353100Y154300D01*
X343885Y71120D02*
X177800Y71120D01*
X343885Y71120D02*
X344431Y71666D01*
X449034Y71666D02*
X482600Y38100D01*
X449034Y71666D02*
X344431Y71666D01*
X177800Y71120D02*
X152400Y96520D01*
X152400Y169300D01*
X190500Y76200D02*
X333965Y76200D01*
X344431Y86666D01*
X459434Y86666D02*
X508000Y38100D01*
X459434Y86666D02*
X344431Y86666D01*
X190500Y76200D02*
X167640Y99060D01*
X167640Y169060D02*
X167400Y169300D01*
X167640Y169060D02*
X167640Y99060D01*
X324045Y81280D02*
X344431Y101666D01*
X324045Y81280D02*
X198120Y81280D01*
X469834Y101666D02*
X533400Y38100D01*
X469834Y101666D02*
X344431Y101666D01*
X198120Y81280D02*
X182400Y97000D01*
X182400Y169300D01*
X480060Y116840D02*
X558800Y38100D01*
X480060Y116840D02*
X335280Y116840D01*
X304800Y86360D01*
X205740Y86360D01*
X197400Y94700D01*
X197400Y169300D01*
X584200Y39370D02*
X584200Y38100D01*
X584200Y39370D02*
X497507Y126063D01*
X496570Y125730D01*
X377190Y125730D01*
X370986Y131934D01*
X340214Y131934D01*
X299720Y91440D01*
X218440Y91440D01*
X210820Y99060D01*
X210820Y167720D01*
X212400Y169300D01*
X342545Y144780D02*
X344431Y146666D01*
X342545Y144780D02*
X335280Y144780D01*
X332740Y142240D01*
X332740Y134620D01*
X294640Y96520D01*
X233680Y96520D01*
X227400Y102800D01*
X227400Y169300D01*
X371494Y146666D02*
X383540Y134620D01*
X371494Y146666D02*
X344431Y146666D01*
X513080Y134620D02*
X609600Y38100D01*
X513080Y134620D02*
X383540Y134620D01*
D13*
X255270Y125730D03*
D12*
X242400Y138600D01*
X242400Y169300D01*
X257400Y169300D02*
X257400Y136300D01*
X266700Y127000D01*
D13*
X266700Y127000D03*
X271780Y135890D03*
D12*
X272400Y136510D02*
X272400Y169300D01*
X272400Y136510D02*
X271780Y135890D01*
X287400Y151510D02*
X287400Y169300D01*
X287400Y151510D02*
X280670Y144780D01*
D13*
X280670Y144780D03*
D12*
X302400Y169300D02*
X302400Y177940D01*
X314960Y190500D01*
X495300Y190500D01*
X508000Y177800D02*
X508000Y165100D01*
X508000Y177800D02*
X495300Y190500D01*
X317500Y169400D02*
X317400Y169300D01*
X317500Y169400D02*
X317500Y177800D01*
X325120Y185420D01*
X472440Y185420D01*
X482600Y175260D01*
X482600Y165100D01*
X302400Y45580D02*
X302400Y33900D01*
X302400Y45580D02*
X297180Y50800D01*
D13*
X297180Y50800D03*
M02*
