M48
;GenerationSoftware,Autodesk,EAGLE,9.6.2*%
;CreationDate,2023-06-09T15:06:05Z*%
FMAT,2
ICI,OFF
METRIC,TZ,000.000
T2C0.350
T1C1.016
%
G90
M71
T1
X3175Y5080
X3175Y7620
X3175Y10160
X3175Y12700
X3175Y15240
X43180Y3810
X45720Y3810
X48260Y3810
X50800Y3810
X53340Y3810
X55880Y3810
X58420Y3810
X60960Y3810
X60960Y16510
X58420Y16510
X55880Y16510
X53340Y16510
X50800Y16510
X48260Y16510
X45720Y16510
X43180Y16510
T2
X33782Y5588
X31750Y1778
X34798Y2286
X37338Y4572
X25527Y12573
X26670Y12700
X27178Y13589
X28067Y14478
X29718Y5080
M30