G04 EAGLE Gerber RS-274X export*
G75*
%MOMM*%
%FSLAX34Y34*%
%LPD*%
%INBottom Copper*%
%IPPOS*%
%AMOC8*
5,1,8,0,0,1.08239X$1,22.5*%
G01*
%ADD10C,1.524000*%
%ADD11R,1.600000X1.803000*%
%ADD12R,1.270000X1.524000*%
%ADD13C,0.654800*%
%ADD14C,0.203200*%
%ADD15C,0.304800*%
%ADD16C,0.254000*%
%ADD17C,0.508000*%
%ADD18C,0.152400*%

G36*
X622418Y798363D02*
X622418Y798363D01*
X622537Y798370D01*
X622575Y798383D01*
X622616Y798388D01*
X622726Y798432D01*
X622839Y798469D01*
X622874Y798490D01*
X622911Y798505D01*
X623007Y798575D01*
X623108Y798639D01*
X623136Y798668D01*
X623169Y798692D01*
X623245Y798784D01*
X623326Y798870D01*
X623346Y798906D01*
X623371Y798937D01*
X623422Y799045D01*
X623480Y799149D01*
X623490Y799188D01*
X623507Y799225D01*
X623529Y799341D01*
X623559Y799457D01*
X623563Y799517D01*
X623567Y799537D01*
X623565Y799557D01*
X623569Y799617D01*
X623569Y982497D01*
X623554Y982616D01*
X623547Y982734D01*
X623534Y982773D01*
X623529Y982813D01*
X623486Y982924D01*
X623449Y983037D01*
X623427Y983071D01*
X623412Y983109D01*
X623343Y983205D01*
X623279Y983306D01*
X623249Y983333D01*
X623226Y983366D01*
X623134Y983442D01*
X623047Y983523D01*
X623012Y983543D01*
X622981Y983569D01*
X622873Y983620D01*
X622769Y983677D01*
X622729Y983687D01*
X622693Y983704D01*
X622576Y983727D01*
X622461Y983756D01*
X622401Y983760D01*
X622381Y983764D01*
X622360Y983763D01*
X622300Y983767D01*
X146050Y983767D01*
X145932Y983752D01*
X145813Y983744D01*
X145775Y983732D01*
X145734Y983727D01*
X145624Y983683D01*
X145511Y983646D01*
X145476Y983625D01*
X145439Y983610D01*
X145343Y983540D01*
X145242Y983476D01*
X145214Y983447D01*
X145181Y983423D01*
X145106Y983331D01*
X145024Y983245D01*
X145004Y983209D01*
X144979Y983178D01*
X144928Y983070D01*
X144870Y982966D01*
X144860Y982927D01*
X144843Y982890D01*
X144821Y982773D01*
X144791Y982658D01*
X144787Y982598D01*
X144783Y982578D01*
X144785Y982558D01*
X144781Y982497D01*
X144781Y813333D01*
X144796Y813215D01*
X144803Y813096D01*
X144816Y813058D01*
X144821Y813018D01*
X144864Y812907D01*
X144901Y812794D01*
X144923Y812760D01*
X144938Y812722D01*
X145007Y812626D01*
X145071Y812525D01*
X145101Y812498D01*
X145124Y812465D01*
X145216Y812389D01*
X145303Y812307D01*
X145338Y812288D01*
X145369Y812262D01*
X145477Y812211D01*
X145581Y812154D01*
X145621Y812144D01*
X145657Y812126D01*
X145774Y812104D01*
X145889Y812074D01*
X145949Y812071D01*
X145969Y812067D01*
X145990Y812068D01*
X146050Y812064D01*
X274259Y812064D01*
X274358Y812077D01*
X274457Y812080D01*
X274515Y812096D01*
X274575Y812104D01*
X274667Y812140D01*
X274762Y812168D01*
X274814Y812199D01*
X274871Y812221D01*
X274951Y812279D01*
X275036Y812329D01*
X275112Y812396D01*
X275128Y812408D01*
X275136Y812417D01*
X275157Y812436D01*
X275508Y812787D01*
X275558Y812852D01*
X275617Y812911D01*
X275698Y813032D01*
X275703Y813038D01*
X275704Y813040D01*
X275707Y813045D01*
X291473Y840072D01*
X291483Y840096D01*
X291497Y840117D01*
X291545Y840242D01*
X291597Y840365D01*
X291601Y840390D01*
X291610Y840414D01*
X291625Y840547D01*
X291645Y840679D01*
X291643Y840705D01*
X291645Y840730D01*
X291627Y840863D01*
X291613Y840996D01*
X291605Y841020D01*
X291601Y841045D01*
X291549Y841197D01*
X291365Y841641D01*
X291365Y843954D01*
X292250Y846091D01*
X293886Y847727D01*
X296023Y848612D01*
X298337Y848612D01*
X300474Y847727D01*
X302110Y846091D01*
X302995Y843954D01*
X302995Y841641D01*
X302110Y839504D01*
X300474Y837868D01*
X298164Y836911D01*
X298152Y836904D01*
X298139Y836901D01*
X298015Y836826D01*
X297887Y836753D01*
X297878Y836744D01*
X297867Y836737D01*
X297764Y836634D01*
X297659Y836532D01*
X297652Y836521D01*
X297643Y836512D01*
X297553Y836378D01*
X282194Y810048D01*
X282157Y809960D01*
X282111Y809877D01*
X282095Y809815D01*
X282069Y809755D01*
X282055Y809661D01*
X282031Y809569D01*
X282024Y809460D01*
X282021Y809441D01*
X282022Y809431D01*
X282021Y809408D01*
X282021Y809240D01*
X281421Y808640D01*
X281370Y808574D01*
X281312Y808515D01*
X281230Y808394D01*
X281226Y808388D01*
X281225Y808386D01*
X281222Y808382D01*
X280647Y807397D01*
X280594Y807273D01*
X280537Y807150D01*
X280532Y807127D01*
X280523Y807104D01*
X280502Y806970D01*
X280477Y806838D01*
X280479Y806814D01*
X280475Y806790D01*
X280488Y806655D01*
X280497Y806520D01*
X280504Y806498D01*
X280507Y806473D01*
X280553Y806346D01*
X280595Y806218D01*
X280608Y806198D01*
X280616Y806175D01*
X280693Y806064D01*
X280765Y805949D01*
X280783Y805933D01*
X280796Y805913D01*
X280898Y805824D01*
X280997Y805731D01*
X281018Y805720D01*
X281036Y805704D01*
X281157Y805643D01*
X281275Y805578D01*
X281298Y805572D01*
X281320Y805561D01*
X281452Y805532D01*
X281583Y805498D01*
X281617Y805496D01*
X281631Y805493D01*
X281652Y805494D01*
X281744Y805488D01*
X296635Y805488D01*
X296733Y805501D01*
X296832Y805504D01*
X296890Y805520D01*
X296950Y805528D01*
X297043Y805564D01*
X297138Y805592D01*
X297190Y805623D01*
X297246Y805645D01*
X297326Y805703D01*
X297412Y805753D01*
X297487Y805820D01*
X297503Y805832D01*
X297511Y805841D01*
X297532Y805860D01*
X305261Y813588D01*
X312562Y813588D01*
X312660Y813601D01*
X312759Y813604D01*
X312817Y813620D01*
X312877Y813628D01*
X312969Y813664D01*
X313064Y813692D01*
X313117Y813723D01*
X313173Y813745D01*
X313253Y813803D01*
X313338Y813853D01*
X313414Y813920D01*
X313430Y813932D01*
X313438Y813941D01*
X313459Y813960D01*
X314206Y814707D01*
X316343Y815592D01*
X318657Y815592D01*
X320794Y814707D01*
X322430Y813071D01*
X323315Y810934D01*
X323315Y808621D01*
X322430Y806484D01*
X320794Y804848D01*
X318657Y803963D01*
X316343Y803963D01*
X314206Y804848D01*
X313459Y805595D01*
X313381Y805656D01*
X313309Y805723D01*
X313256Y805753D01*
X313208Y805790D01*
X313117Y805829D01*
X313030Y805877D01*
X312972Y805892D01*
X312916Y805916D01*
X312818Y805932D01*
X312722Y805956D01*
X312622Y805963D01*
X312602Y805966D01*
X312590Y805965D01*
X312562Y805967D01*
X308943Y805967D01*
X308845Y805954D01*
X308746Y805951D01*
X308688Y805934D01*
X308628Y805927D01*
X308536Y805890D01*
X308441Y805863D01*
X308388Y805832D01*
X308332Y805810D01*
X308252Y805752D01*
X308167Y805701D01*
X308091Y805635D01*
X308075Y805623D01*
X308073Y805621D01*
X308072Y805620D01*
X308065Y805612D01*
X308046Y805595D01*
X302966Y800515D01*
X302881Y800405D01*
X302792Y800298D01*
X302783Y800280D01*
X302771Y800264D01*
X302715Y800136D01*
X302656Y800010D01*
X302653Y799990D01*
X302645Y799972D01*
X302623Y799834D01*
X302597Y799698D01*
X302598Y799678D01*
X302595Y799658D01*
X302608Y799519D01*
X302616Y799381D01*
X302623Y799361D01*
X302624Y799341D01*
X302672Y799210D01*
X302714Y799078D01*
X302725Y799061D01*
X302732Y799042D01*
X302810Y798927D01*
X302885Y798809D01*
X302899Y798795D01*
X302911Y798779D01*
X303015Y798687D01*
X303116Y798591D01*
X303134Y798582D01*
X303149Y798568D01*
X303273Y798505D01*
X303395Y798438D01*
X303414Y798433D01*
X303432Y798424D01*
X303568Y798393D01*
X303703Y798358D01*
X303731Y798357D01*
X303743Y798354D01*
X303763Y798355D01*
X303863Y798348D01*
X622300Y798348D01*
X622418Y798363D01*
G37*
G36*
X622418Y6366D02*
X622418Y6366D01*
X622537Y6373D01*
X622575Y6386D01*
X622616Y6391D01*
X622726Y6434D01*
X622839Y6471D01*
X622874Y6493D01*
X622911Y6508D01*
X623007Y6578D01*
X623108Y6641D01*
X623136Y6671D01*
X623169Y6694D01*
X623245Y6786D01*
X623326Y6873D01*
X623346Y6908D01*
X623371Y6939D01*
X623422Y7047D01*
X623480Y7151D01*
X623490Y7191D01*
X623507Y7227D01*
X623529Y7344D01*
X623559Y7459D01*
X623563Y7520D01*
X623567Y7540D01*
X623565Y7560D01*
X623569Y7620D01*
X623569Y190500D01*
X623554Y190618D01*
X623547Y190737D01*
X623534Y190775D01*
X623529Y190816D01*
X623486Y190926D01*
X623449Y191039D01*
X623427Y191074D01*
X623412Y191111D01*
X623343Y191207D01*
X623279Y191308D01*
X623249Y191336D01*
X623226Y191369D01*
X623134Y191445D01*
X623047Y191526D01*
X623012Y191546D01*
X622981Y191571D01*
X622873Y191622D01*
X622769Y191680D01*
X622729Y191690D01*
X622693Y191707D01*
X622576Y191729D01*
X622461Y191759D01*
X622401Y191763D01*
X622381Y191767D01*
X622360Y191765D01*
X622300Y191769D01*
X146050Y191769D01*
X145932Y191754D01*
X145813Y191747D01*
X145775Y191734D01*
X145734Y191729D01*
X145624Y191686D01*
X145511Y191649D01*
X145476Y191627D01*
X145439Y191612D01*
X145343Y191543D01*
X145242Y191479D01*
X145214Y191449D01*
X145181Y191426D01*
X145106Y191334D01*
X145024Y191247D01*
X145004Y191212D01*
X144979Y191181D01*
X144928Y191073D01*
X144870Y190969D01*
X144860Y190929D01*
X144843Y190893D01*
X144821Y190776D01*
X144791Y190661D01*
X144787Y190601D01*
X144783Y190581D01*
X144785Y190560D01*
X144781Y190500D01*
X144781Y21336D01*
X144796Y21218D01*
X144803Y21099D01*
X144816Y21061D01*
X144821Y21020D01*
X144864Y20910D01*
X144901Y20797D01*
X144923Y20762D01*
X144938Y20725D01*
X145007Y20629D01*
X145071Y20528D01*
X145101Y20500D01*
X145124Y20467D01*
X145216Y20391D01*
X145303Y20310D01*
X145338Y20290D01*
X145369Y20265D01*
X145477Y20214D01*
X145581Y20156D01*
X145621Y20146D01*
X145657Y20129D01*
X145774Y20107D01*
X145889Y20077D01*
X145949Y20073D01*
X145969Y20069D01*
X145990Y20071D01*
X146050Y20067D01*
X274259Y20067D01*
X274358Y20079D01*
X274457Y20082D01*
X274515Y20099D01*
X274575Y20107D01*
X274667Y20143D01*
X274762Y20171D01*
X274814Y20201D01*
X274871Y20224D01*
X274951Y20282D01*
X275036Y20332D01*
X275112Y20398D01*
X275128Y20410D01*
X275136Y20420D01*
X275157Y20438D01*
X275508Y20789D01*
X275558Y20855D01*
X275617Y20914D01*
X275698Y21035D01*
X275703Y21040D01*
X275704Y21043D01*
X275707Y21047D01*
X291473Y48075D01*
X291483Y48098D01*
X291497Y48119D01*
X291545Y48245D01*
X291597Y48367D01*
X291601Y48393D01*
X291610Y48417D01*
X291625Y48550D01*
X291645Y48682D01*
X291643Y48707D01*
X291645Y48733D01*
X291627Y48865D01*
X291613Y48998D01*
X291605Y49022D01*
X291601Y49048D01*
X291549Y49200D01*
X291365Y49643D01*
X291365Y51957D01*
X292250Y54094D01*
X293886Y55730D01*
X296023Y56615D01*
X298337Y56615D01*
X300474Y55730D01*
X302110Y54094D01*
X302995Y51957D01*
X302995Y49643D01*
X302110Y47506D01*
X300474Y45870D01*
X298164Y44914D01*
X298152Y44907D01*
X298139Y44903D01*
X298015Y44829D01*
X297887Y44756D01*
X297878Y44747D01*
X297867Y44740D01*
X297764Y44637D01*
X297659Y44535D01*
X297652Y44523D01*
X297643Y44514D01*
X297553Y44380D01*
X282194Y18051D01*
X282157Y17963D01*
X282111Y17880D01*
X282095Y17817D01*
X282069Y17758D01*
X282055Y17664D01*
X282031Y17572D01*
X282024Y17462D01*
X282021Y17444D01*
X282022Y17433D01*
X282021Y17411D01*
X282021Y17243D01*
X281421Y16642D01*
X281370Y16577D01*
X281312Y16518D01*
X281230Y16396D01*
X281226Y16391D01*
X281225Y16389D01*
X281222Y16384D01*
X280647Y15400D01*
X280594Y15275D01*
X280537Y15153D01*
X280532Y15129D01*
X280523Y15107D01*
X280502Y14973D01*
X280477Y14840D01*
X280479Y14816D01*
X280475Y14792D01*
X280488Y14658D01*
X280497Y14523D01*
X280504Y14500D01*
X280507Y14476D01*
X280553Y14349D01*
X280595Y14221D01*
X280608Y14200D01*
X280616Y14177D01*
X280693Y14066D01*
X280765Y13952D01*
X280783Y13935D01*
X280796Y13915D01*
X280898Y13826D01*
X280997Y13734D01*
X281018Y13722D01*
X281036Y13706D01*
X281157Y13646D01*
X281275Y13580D01*
X281298Y13574D01*
X281320Y13564D01*
X281452Y13535D01*
X281583Y13501D01*
X281617Y13499D01*
X281631Y13496D01*
X281652Y13497D01*
X281744Y13491D01*
X296635Y13491D01*
X296733Y13503D01*
X296832Y13506D01*
X296890Y13523D01*
X296950Y13531D01*
X297043Y13567D01*
X297138Y13595D01*
X297190Y13625D01*
X297246Y13648D01*
X297326Y13706D01*
X297412Y13756D01*
X297487Y13822D01*
X297503Y13834D01*
X297511Y13844D01*
X297532Y13862D01*
X305261Y21591D01*
X312562Y21591D01*
X312660Y21603D01*
X312759Y21606D01*
X312817Y21623D01*
X312877Y21631D01*
X312969Y21667D01*
X313064Y21695D01*
X313117Y21725D01*
X313173Y21748D01*
X313253Y21806D01*
X313338Y21856D01*
X313414Y21922D01*
X313430Y21934D01*
X313438Y21944D01*
X313459Y21962D01*
X314206Y22710D01*
X316343Y23595D01*
X318657Y23595D01*
X320794Y22710D01*
X322430Y21074D01*
X323315Y18937D01*
X323315Y16623D01*
X322430Y14486D01*
X320794Y12850D01*
X318657Y11965D01*
X316343Y11965D01*
X314206Y12850D01*
X313459Y13598D01*
X313381Y13658D01*
X313309Y13726D01*
X313256Y13755D01*
X313208Y13792D01*
X313117Y13832D01*
X313030Y13880D01*
X312972Y13895D01*
X312916Y13919D01*
X312818Y13934D01*
X312722Y13959D01*
X312622Y13965D01*
X312602Y13969D01*
X312590Y13967D01*
X312562Y13969D01*
X308943Y13969D01*
X308845Y13957D01*
X308746Y13954D01*
X308688Y13937D01*
X308628Y13929D01*
X308536Y13893D01*
X308441Y13865D01*
X308388Y13835D01*
X308332Y13812D01*
X308252Y13754D01*
X308167Y13704D01*
X308091Y13638D01*
X308075Y13626D01*
X308073Y13624D01*
X308072Y13623D01*
X308065Y13614D01*
X308046Y13598D01*
X302966Y8518D01*
X302881Y8408D01*
X302792Y8301D01*
X302783Y8282D01*
X302771Y8266D01*
X302715Y8138D01*
X302656Y8013D01*
X302653Y7993D01*
X302645Y7974D01*
X302623Y7836D01*
X302597Y7701D01*
X302598Y7680D01*
X302595Y7660D01*
X302608Y7521D01*
X302616Y7383D01*
X302623Y7364D01*
X302624Y7344D01*
X302672Y7212D01*
X302714Y7081D01*
X302725Y7063D01*
X302732Y7044D01*
X302810Y6929D01*
X302885Y6812D01*
X302899Y6798D01*
X302911Y6781D01*
X303015Y6689D01*
X303116Y6594D01*
X303134Y6584D01*
X303149Y6571D01*
X303273Y6507D01*
X303395Y6440D01*
X303414Y6435D01*
X303432Y6426D01*
X303568Y6396D01*
X303703Y6361D01*
X303731Y6359D01*
X303743Y6357D01*
X303763Y6357D01*
X303863Y6351D01*
X622300Y6351D01*
X622418Y6366D01*
G37*
G36*
X622418Y402377D02*
X622418Y402377D01*
X622537Y402384D01*
X622575Y402397D01*
X622616Y402402D01*
X622726Y402446D01*
X622839Y402483D01*
X622874Y402504D01*
X622911Y402519D01*
X623007Y402589D01*
X623108Y402653D01*
X623136Y402682D01*
X623169Y402706D01*
X623245Y402798D01*
X623326Y402884D01*
X623346Y402920D01*
X623371Y402951D01*
X623422Y403059D01*
X623480Y403163D01*
X623490Y403202D01*
X623507Y403239D01*
X623529Y403355D01*
X623559Y403471D01*
X623563Y403531D01*
X623567Y403551D01*
X623565Y403571D01*
X623569Y403631D01*
X623569Y586511D01*
X623554Y586630D01*
X623547Y586748D01*
X623534Y586787D01*
X623529Y586827D01*
X623486Y586938D01*
X623449Y587051D01*
X623427Y587085D01*
X623412Y587123D01*
X623343Y587219D01*
X623279Y587320D01*
X623249Y587347D01*
X623226Y587380D01*
X623134Y587456D01*
X623047Y587537D01*
X623012Y587557D01*
X622981Y587583D01*
X622873Y587634D01*
X622769Y587691D01*
X622729Y587701D01*
X622693Y587718D01*
X622576Y587741D01*
X622461Y587770D01*
X622401Y587774D01*
X622381Y587778D01*
X622360Y587777D01*
X622300Y587781D01*
X146050Y587781D01*
X145932Y587766D01*
X145813Y587758D01*
X145775Y587746D01*
X145734Y587741D01*
X145624Y587697D01*
X145511Y587660D01*
X145476Y587639D01*
X145439Y587624D01*
X145343Y587554D01*
X145242Y587490D01*
X145214Y587461D01*
X145181Y587437D01*
X145106Y587345D01*
X145024Y587259D01*
X145004Y587223D01*
X144979Y587192D01*
X144928Y587084D01*
X144870Y586980D01*
X144860Y586941D01*
X144843Y586904D01*
X144821Y586787D01*
X144791Y586672D01*
X144787Y586612D01*
X144783Y586592D01*
X144785Y586572D01*
X144781Y586511D01*
X144781Y417347D01*
X144796Y417229D01*
X144803Y417110D01*
X144816Y417072D01*
X144821Y417032D01*
X144864Y416921D01*
X144901Y416808D01*
X144923Y416774D01*
X144938Y416736D01*
X145008Y416640D01*
X145071Y416539D01*
X145101Y416512D01*
X145124Y416479D01*
X145216Y416403D01*
X145303Y416321D01*
X145338Y416302D01*
X145369Y416276D01*
X145477Y416225D01*
X145581Y416168D01*
X145621Y416158D01*
X145657Y416140D01*
X145774Y416118D01*
X145889Y416088D01*
X145950Y416085D01*
X145970Y416081D01*
X145990Y416082D01*
X146050Y416078D01*
X274259Y416078D01*
X274358Y416091D01*
X274457Y416094D01*
X274515Y416110D01*
X274575Y416118D01*
X274667Y416154D01*
X274762Y416182D01*
X274814Y416213D01*
X274871Y416235D01*
X274951Y416293D01*
X275036Y416343D01*
X275112Y416410D01*
X275128Y416422D01*
X275136Y416431D01*
X275157Y416450D01*
X275508Y416801D01*
X275558Y416866D01*
X275617Y416925D01*
X275698Y417046D01*
X275703Y417052D01*
X275704Y417054D01*
X275707Y417059D01*
X291473Y444086D01*
X291483Y444110D01*
X291497Y444131D01*
X291545Y444256D01*
X291597Y444379D01*
X291601Y444404D01*
X291610Y444428D01*
X291625Y444561D01*
X291645Y444693D01*
X291643Y444719D01*
X291645Y444744D01*
X291627Y444877D01*
X291613Y445010D01*
X291605Y445034D01*
X291601Y445059D01*
X291549Y445211D01*
X291365Y445655D01*
X291365Y447968D01*
X292250Y450105D01*
X293886Y451741D01*
X296023Y452626D01*
X298337Y452626D01*
X300474Y451741D01*
X302110Y450105D01*
X302995Y447968D01*
X302995Y445655D01*
X302110Y443518D01*
X300474Y441882D01*
X298164Y440925D01*
X298152Y440918D01*
X298139Y440915D01*
X298015Y440840D01*
X297887Y440767D01*
X297878Y440758D01*
X297867Y440751D01*
X297764Y440648D01*
X297659Y440546D01*
X297652Y440535D01*
X297643Y440526D01*
X297553Y440392D01*
X282194Y414062D01*
X282157Y413974D01*
X282111Y413891D01*
X282095Y413829D01*
X282069Y413769D01*
X282055Y413675D01*
X282031Y413583D01*
X282024Y413474D01*
X282021Y413455D01*
X282022Y413445D01*
X282021Y413422D01*
X282021Y413254D01*
X281421Y412654D01*
X281370Y412588D01*
X281312Y412529D01*
X281230Y412408D01*
X281226Y412402D01*
X281225Y412400D01*
X281222Y412396D01*
X280647Y411411D01*
X280594Y411287D01*
X280537Y411164D01*
X280532Y411141D01*
X280523Y411118D01*
X280502Y410984D01*
X280477Y410852D01*
X280479Y410828D01*
X280475Y410804D01*
X280488Y410669D01*
X280497Y410534D01*
X280504Y410512D01*
X280507Y410487D01*
X280553Y410360D01*
X280595Y410232D01*
X280608Y410212D01*
X280616Y410189D01*
X280693Y410078D01*
X280765Y409963D01*
X280783Y409947D01*
X280796Y409927D01*
X280898Y409838D01*
X280997Y409745D01*
X281018Y409734D01*
X281036Y409718D01*
X281157Y409657D01*
X281275Y409592D01*
X281298Y409586D01*
X281320Y409575D01*
X281452Y409546D01*
X281583Y409512D01*
X281617Y409510D01*
X281631Y409507D01*
X281652Y409508D01*
X281744Y409502D01*
X296635Y409502D01*
X296733Y409515D01*
X296832Y409518D01*
X296890Y409534D01*
X296950Y409542D01*
X297043Y409578D01*
X297138Y409606D01*
X297190Y409637D01*
X297246Y409659D01*
X297326Y409717D01*
X297412Y409767D01*
X297487Y409834D01*
X297504Y409846D01*
X297511Y409855D01*
X297532Y409874D01*
X302657Y414998D01*
X305261Y417602D01*
X312562Y417602D01*
X312660Y417615D01*
X312759Y417618D01*
X312817Y417634D01*
X312877Y417642D01*
X312969Y417678D01*
X313064Y417706D01*
X313117Y417737D01*
X313173Y417759D01*
X313253Y417817D01*
X313338Y417867D01*
X313414Y417934D01*
X313430Y417946D01*
X313438Y417955D01*
X313459Y417974D01*
X314206Y418721D01*
X316343Y419606D01*
X318657Y419606D01*
X320794Y418721D01*
X322430Y417085D01*
X323315Y414948D01*
X323315Y412635D01*
X322430Y410498D01*
X320794Y408862D01*
X318657Y407977D01*
X316343Y407977D01*
X314206Y408862D01*
X313459Y409609D01*
X313381Y409670D01*
X313309Y409737D01*
X313256Y409767D01*
X313208Y409804D01*
X313117Y409843D01*
X313030Y409891D01*
X312972Y409906D01*
X312916Y409930D01*
X312818Y409946D01*
X312722Y409970D01*
X312622Y409977D01*
X312602Y409980D01*
X312590Y409979D01*
X312562Y409981D01*
X308943Y409981D01*
X308845Y409968D01*
X308746Y409965D01*
X308688Y409948D01*
X308628Y409941D01*
X308536Y409904D01*
X308441Y409877D01*
X308388Y409846D01*
X308332Y409824D01*
X308252Y409766D01*
X308167Y409715D01*
X308091Y409649D01*
X308075Y409637D01*
X308073Y409635D01*
X308072Y409634D01*
X308065Y409626D01*
X308046Y409609D01*
X302966Y404529D01*
X302881Y404419D01*
X302792Y404312D01*
X302783Y404294D01*
X302771Y404278D01*
X302715Y404150D01*
X302656Y404024D01*
X302653Y404004D01*
X302645Y403986D01*
X302623Y403848D01*
X302597Y403712D01*
X302598Y403692D01*
X302595Y403672D01*
X302608Y403533D01*
X302616Y403395D01*
X302623Y403375D01*
X302624Y403355D01*
X302672Y403224D01*
X302714Y403092D01*
X302725Y403075D01*
X302732Y403056D01*
X302810Y402941D01*
X302885Y402823D01*
X302899Y402809D01*
X302911Y402793D01*
X303015Y402701D01*
X303116Y402605D01*
X303134Y402596D01*
X303149Y402582D01*
X303273Y402519D01*
X303395Y402452D01*
X303414Y402447D01*
X303432Y402438D01*
X303568Y402407D01*
X303703Y402372D01*
X303731Y402371D01*
X303743Y402368D01*
X303763Y402369D01*
X303863Y402362D01*
X622300Y402362D01*
X622418Y402377D01*
G37*
G36*
X622418Y204359D02*
X622418Y204359D01*
X622537Y204366D01*
X622575Y204379D01*
X622616Y204384D01*
X622726Y204427D01*
X622839Y204464D01*
X622874Y204486D01*
X622911Y204501D01*
X623007Y204571D01*
X623108Y204634D01*
X623136Y204664D01*
X623169Y204687D01*
X623245Y204779D01*
X623326Y204866D01*
X623346Y204901D01*
X623371Y204932D01*
X623422Y205040D01*
X623480Y205144D01*
X623490Y205184D01*
X623507Y205220D01*
X623529Y205337D01*
X623559Y205452D01*
X623563Y205513D01*
X623567Y205533D01*
X623565Y205553D01*
X623569Y205613D01*
X623569Y388493D01*
X623554Y388611D01*
X623547Y388730D01*
X623534Y388768D01*
X623529Y388809D01*
X623486Y388919D01*
X623449Y389032D01*
X623427Y389067D01*
X623412Y389104D01*
X623343Y389200D01*
X623279Y389301D01*
X623249Y389329D01*
X623226Y389362D01*
X623134Y389438D01*
X623047Y389519D01*
X623012Y389539D01*
X622981Y389564D01*
X622873Y389615D01*
X622769Y389673D01*
X622729Y389683D01*
X622693Y389700D01*
X622576Y389722D01*
X622461Y389752D01*
X622401Y389756D01*
X622381Y389760D01*
X622360Y389758D01*
X622300Y389762D01*
X146050Y389762D01*
X145932Y389747D01*
X145813Y389740D01*
X145775Y389727D01*
X145734Y389722D01*
X145624Y389679D01*
X145511Y389642D01*
X145476Y389620D01*
X145439Y389605D01*
X145343Y389536D01*
X145242Y389472D01*
X145214Y389442D01*
X145181Y389419D01*
X145106Y389327D01*
X145024Y389240D01*
X145004Y389205D01*
X144979Y389174D01*
X144928Y389066D01*
X144870Y388962D01*
X144860Y388922D01*
X144843Y388886D01*
X144821Y388769D01*
X144791Y388654D01*
X144787Y388594D01*
X144783Y388574D01*
X144785Y388553D01*
X144781Y388493D01*
X144781Y219329D01*
X144796Y219211D01*
X144803Y219092D01*
X144816Y219054D01*
X144821Y219013D01*
X144864Y218903D01*
X144901Y218790D01*
X144923Y218755D01*
X144938Y218718D01*
X145008Y218622D01*
X145071Y218521D01*
X145101Y218493D01*
X145124Y218460D01*
X145216Y218384D01*
X145303Y218303D01*
X145338Y218283D01*
X145369Y218258D01*
X145477Y218207D01*
X145581Y218149D01*
X145621Y218139D01*
X145657Y218122D01*
X145774Y218100D01*
X145889Y218070D01*
X145950Y218066D01*
X145970Y218062D01*
X145990Y218064D01*
X146050Y218060D01*
X274259Y218060D01*
X274358Y218072D01*
X274457Y218075D01*
X274515Y218092D01*
X274575Y218100D01*
X274667Y218136D01*
X274762Y218164D01*
X274814Y218194D01*
X274871Y218217D01*
X274951Y218275D01*
X275036Y218325D01*
X275112Y218391D01*
X275128Y218403D01*
X275136Y218413D01*
X275157Y218431D01*
X275508Y218782D01*
X275558Y218848D01*
X275617Y218907D01*
X275698Y219028D01*
X275703Y219033D01*
X275704Y219036D01*
X275707Y219040D01*
X291473Y246068D01*
X291483Y246091D01*
X291497Y246112D01*
X291545Y246238D01*
X291597Y246360D01*
X291601Y246386D01*
X291610Y246410D01*
X291625Y246543D01*
X291645Y246675D01*
X291643Y246700D01*
X291645Y246726D01*
X291627Y246858D01*
X291613Y246991D01*
X291605Y247015D01*
X291601Y247041D01*
X291549Y247193D01*
X291365Y247636D01*
X291365Y249950D01*
X292250Y252087D01*
X293886Y253723D01*
X296023Y254608D01*
X298337Y254608D01*
X300474Y253723D01*
X302110Y252087D01*
X302995Y249950D01*
X302995Y247636D01*
X302110Y245499D01*
X300474Y243863D01*
X298164Y242907D01*
X298152Y242900D01*
X298139Y242896D01*
X298015Y242822D01*
X297887Y242749D01*
X297878Y242740D01*
X297867Y242733D01*
X297764Y242630D01*
X297659Y242528D01*
X297652Y242516D01*
X297643Y242507D01*
X297553Y242373D01*
X282194Y216044D01*
X282157Y215956D01*
X282111Y215873D01*
X282095Y215810D01*
X282069Y215751D01*
X282055Y215657D01*
X282031Y215565D01*
X282024Y215455D01*
X282021Y215437D01*
X282022Y215426D01*
X282021Y215404D01*
X282021Y215236D01*
X281421Y214635D01*
X281370Y214570D01*
X281312Y214511D01*
X281230Y214389D01*
X281226Y214384D01*
X281225Y214382D01*
X281222Y214377D01*
X280647Y213393D01*
X280594Y213268D01*
X280537Y213146D01*
X280532Y213122D01*
X280523Y213100D01*
X280502Y212966D01*
X280477Y212833D01*
X280479Y212809D01*
X280475Y212786D01*
X280488Y212651D01*
X280497Y212516D01*
X280504Y212493D01*
X280507Y212469D01*
X280553Y212342D01*
X280595Y212214D01*
X280608Y212193D01*
X280616Y212170D01*
X280693Y212059D01*
X280765Y211945D01*
X280783Y211928D01*
X280796Y211908D01*
X280898Y211820D01*
X280997Y211727D01*
X281018Y211715D01*
X281036Y211699D01*
X281157Y211639D01*
X281275Y211573D01*
X281298Y211567D01*
X281320Y211557D01*
X281452Y211528D01*
X281583Y211494D01*
X281617Y211492D01*
X281631Y211489D01*
X281652Y211490D01*
X281744Y211484D01*
X296635Y211484D01*
X296733Y211496D01*
X296832Y211499D01*
X296890Y211516D01*
X296950Y211524D01*
X297043Y211560D01*
X297138Y211588D01*
X297190Y211618D01*
X297246Y211641D01*
X297326Y211699D01*
X297412Y211749D01*
X297487Y211815D01*
X297503Y211827D01*
X297511Y211837D01*
X297532Y211855D01*
X305261Y219584D01*
X312562Y219584D01*
X312660Y219596D01*
X312759Y219599D01*
X312817Y219616D01*
X312877Y219624D01*
X312969Y219660D01*
X313064Y219688D01*
X313117Y219718D01*
X313173Y219741D01*
X313253Y219799D01*
X313338Y219849D01*
X313414Y219915D01*
X313430Y219927D01*
X313438Y219937D01*
X313459Y219955D01*
X314206Y220703D01*
X316343Y221588D01*
X318657Y221588D01*
X320794Y220703D01*
X322430Y219067D01*
X323315Y216930D01*
X323315Y214616D01*
X322430Y212479D01*
X320794Y210843D01*
X318657Y209958D01*
X316343Y209958D01*
X314206Y210843D01*
X313459Y211591D01*
X313381Y211651D01*
X313309Y211719D01*
X313256Y211748D01*
X313208Y211785D01*
X313117Y211825D01*
X313030Y211873D01*
X312972Y211888D01*
X312916Y211912D01*
X312818Y211927D01*
X312722Y211952D01*
X312622Y211958D01*
X312602Y211962D01*
X312590Y211960D01*
X312562Y211962D01*
X308943Y211962D01*
X308845Y211950D01*
X308746Y211947D01*
X308688Y211930D01*
X308628Y211922D01*
X308536Y211886D01*
X308441Y211858D01*
X308388Y211828D01*
X308332Y211805D01*
X308252Y211747D01*
X308167Y211697D01*
X308091Y211631D01*
X308075Y211619D01*
X308073Y211617D01*
X308072Y211616D01*
X308065Y211607D01*
X308046Y211591D01*
X302966Y206511D01*
X302881Y206401D01*
X302792Y206294D01*
X302783Y206275D01*
X302771Y206259D01*
X302715Y206131D01*
X302656Y206006D01*
X302653Y205986D01*
X302645Y205967D01*
X302623Y205829D01*
X302597Y205694D01*
X302598Y205673D01*
X302595Y205653D01*
X302608Y205514D01*
X302616Y205376D01*
X302623Y205357D01*
X302624Y205337D01*
X302672Y205205D01*
X302714Y205074D01*
X302725Y205056D01*
X302732Y205037D01*
X302810Y204922D01*
X302885Y204805D01*
X302899Y204791D01*
X302911Y204774D01*
X303015Y204682D01*
X303116Y204587D01*
X303134Y204577D01*
X303149Y204564D01*
X303273Y204500D01*
X303395Y204433D01*
X303414Y204428D01*
X303432Y204419D01*
X303568Y204389D01*
X303703Y204354D01*
X303731Y204352D01*
X303743Y204350D01*
X303763Y204350D01*
X303863Y204344D01*
X622300Y204344D01*
X622418Y204359D01*
G37*
G36*
X622418Y600370D02*
X622418Y600370D01*
X622537Y600377D01*
X622575Y600390D01*
X622616Y600395D01*
X622726Y600439D01*
X622839Y600476D01*
X622874Y600497D01*
X622911Y600512D01*
X623007Y600582D01*
X623108Y600646D01*
X623136Y600675D01*
X623169Y600699D01*
X623245Y600791D01*
X623326Y600877D01*
X623346Y600913D01*
X623371Y600944D01*
X623422Y601052D01*
X623480Y601156D01*
X623490Y601195D01*
X623507Y601232D01*
X623529Y601348D01*
X623559Y601464D01*
X623563Y601524D01*
X623567Y601544D01*
X623565Y601564D01*
X623569Y601624D01*
X623569Y784504D01*
X623554Y784623D01*
X623547Y784741D01*
X623534Y784780D01*
X623529Y784820D01*
X623486Y784931D01*
X623449Y785044D01*
X623427Y785078D01*
X623412Y785116D01*
X623343Y785212D01*
X623279Y785313D01*
X623249Y785340D01*
X623226Y785373D01*
X623134Y785449D01*
X623047Y785530D01*
X623012Y785550D01*
X622981Y785576D01*
X622873Y785627D01*
X622769Y785684D01*
X622729Y785694D01*
X622693Y785711D01*
X622576Y785734D01*
X622461Y785763D01*
X622401Y785767D01*
X622381Y785771D01*
X622360Y785770D01*
X622300Y785774D01*
X146050Y785774D01*
X145932Y785759D01*
X145813Y785751D01*
X145775Y785739D01*
X145734Y785734D01*
X145624Y785690D01*
X145511Y785653D01*
X145476Y785632D01*
X145439Y785617D01*
X145343Y785547D01*
X145242Y785483D01*
X145214Y785454D01*
X145181Y785430D01*
X145106Y785338D01*
X145024Y785252D01*
X145004Y785216D01*
X144979Y785185D01*
X144928Y785077D01*
X144870Y784973D01*
X144860Y784934D01*
X144843Y784897D01*
X144821Y784780D01*
X144791Y784665D01*
X144787Y784605D01*
X144783Y784585D01*
X144785Y784565D01*
X144781Y784504D01*
X144781Y615340D01*
X144796Y615222D01*
X144803Y615103D01*
X144816Y615065D01*
X144821Y615025D01*
X144864Y614914D01*
X144901Y614801D01*
X144923Y614767D01*
X144938Y614729D01*
X145008Y614633D01*
X145071Y614532D01*
X145101Y614505D01*
X145124Y614472D01*
X145216Y614396D01*
X145303Y614314D01*
X145338Y614295D01*
X145369Y614269D01*
X145477Y614218D01*
X145581Y614161D01*
X145621Y614151D01*
X145657Y614133D01*
X145774Y614111D01*
X145889Y614081D01*
X145950Y614078D01*
X145970Y614074D01*
X145990Y614075D01*
X146050Y614071D01*
X274259Y614071D01*
X274358Y614084D01*
X274457Y614087D01*
X274515Y614103D01*
X274575Y614111D01*
X274667Y614147D01*
X274762Y614175D01*
X274814Y614206D01*
X274871Y614228D01*
X274951Y614286D01*
X275036Y614336D01*
X275112Y614403D01*
X275128Y614415D01*
X275136Y614424D01*
X275157Y614443D01*
X275508Y614794D01*
X275558Y614859D01*
X275617Y614918D01*
X275698Y615039D01*
X275703Y615045D01*
X275704Y615047D01*
X275707Y615052D01*
X291473Y642079D01*
X291483Y642103D01*
X291497Y642124D01*
X291545Y642249D01*
X291597Y642372D01*
X291601Y642397D01*
X291610Y642421D01*
X291625Y642554D01*
X291645Y642686D01*
X291643Y642712D01*
X291645Y642737D01*
X291627Y642870D01*
X291613Y643003D01*
X291605Y643027D01*
X291601Y643052D01*
X291549Y643204D01*
X291365Y643648D01*
X291365Y645961D01*
X292250Y648098D01*
X293886Y649734D01*
X296023Y650619D01*
X298337Y650619D01*
X300474Y649734D01*
X302110Y648098D01*
X302995Y645961D01*
X302995Y643648D01*
X302110Y641511D01*
X300474Y639875D01*
X298164Y638918D01*
X298152Y638911D01*
X298139Y638908D01*
X298015Y638833D01*
X297887Y638760D01*
X297878Y638751D01*
X297867Y638744D01*
X297764Y638641D01*
X297659Y638539D01*
X297652Y638528D01*
X297643Y638519D01*
X297553Y638385D01*
X282194Y612055D01*
X282157Y611967D01*
X282111Y611884D01*
X282095Y611822D01*
X282069Y611762D01*
X282055Y611668D01*
X282031Y611576D01*
X282024Y611467D01*
X282021Y611448D01*
X282022Y611438D01*
X282021Y611415D01*
X282021Y611247D01*
X281421Y610647D01*
X281370Y610581D01*
X281312Y610522D01*
X281230Y610401D01*
X281226Y610395D01*
X281225Y610393D01*
X281222Y610389D01*
X280647Y609404D01*
X280594Y609279D01*
X280537Y609157D01*
X280532Y609134D01*
X280523Y609111D01*
X280502Y608977D01*
X280477Y608845D01*
X280479Y608821D01*
X280475Y608797D01*
X280488Y608662D01*
X280497Y608527D01*
X280504Y608505D01*
X280507Y608480D01*
X280553Y608353D01*
X280595Y608225D01*
X280608Y608205D01*
X280616Y608182D01*
X280693Y608071D01*
X280765Y607956D01*
X280783Y607940D01*
X280796Y607920D01*
X280898Y607831D01*
X280997Y607738D01*
X281018Y607727D01*
X281036Y607711D01*
X281157Y607650D01*
X281275Y607585D01*
X281298Y607579D01*
X281320Y607568D01*
X281452Y607539D01*
X281583Y607505D01*
X281617Y607503D01*
X281631Y607500D01*
X281652Y607501D01*
X281744Y607495D01*
X296635Y607495D01*
X296733Y607508D01*
X296832Y607511D01*
X296890Y607527D01*
X296950Y607535D01*
X297043Y607571D01*
X297138Y607599D01*
X297190Y607630D01*
X297246Y607652D01*
X297326Y607710D01*
X297412Y607760D01*
X297487Y607827D01*
X297503Y607839D01*
X297511Y607848D01*
X297532Y607867D01*
X305261Y615595D01*
X312562Y615595D01*
X312660Y615608D01*
X312759Y615611D01*
X312817Y615627D01*
X312877Y615635D01*
X312969Y615671D01*
X313064Y615699D01*
X313117Y615730D01*
X313173Y615752D01*
X313253Y615810D01*
X313338Y615860D01*
X313414Y615927D01*
X313430Y615939D01*
X313438Y615948D01*
X313459Y615967D01*
X314206Y616714D01*
X316343Y617599D01*
X318657Y617599D01*
X320794Y616714D01*
X322430Y615078D01*
X323315Y612941D01*
X323315Y610628D01*
X322430Y608491D01*
X320794Y606855D01*
X318657Y605970D01*
X316343Y605970D01*
X314206Y606855D01*
X313459Y607602D01*
X313381Y607663D01*
X313309Y607730D01*
X313256Y607760D01*
X313208Y607797D01*
X313117Y607836D01*
X313030Y607884D01*
X312972Y607899D01*
X312916Y607923D01*
X312818Y607939D01*
X312722Y607963D01*
X312622Y607970D01*
X312602Y607973D01*
X312590Y607972D01*
X312562Y607974D01*
X308943Y607974D01*
X308845Y607961D01*
X308746Y607958D01*
X308688Y607941D01*
X308628Y607934D01*
X308536Y607897D01*
X308441Y607870D01*
X308388Y607839D01*
X308332Y607817D01*
X308252Y607759D01*
X308167Y607708D01*
X308091Y607642D01*
X308075Y607630D01*
X308073Y607628D01*
X308072Y607627D01*
X308065Y607619D01*
X308046Y607602D01*
X302966Y602522D01*
X302881Y602412D01*
X302792Y602305D01*
X302783Y602287D01*
X302771Y602271D01*
X302715Y602143D01*
X302656Y602017D01*
X302653Y601997D01*
X302645Y601979D01*
X302623Y601841D01*
X302597Y601705D01*
X302598Y601685D01*
X302595Y601665D01*
X302608Y601526D01*
X302616Y601388D01*
X302623Y601368D01*
X302624Y601348D01*
X302672Y601217D01*
X302714Y601085D01*
X302725Y601068D01*
X302732Y601049D01*
X302810Y600934D01*
X302885Y600816D01*
X302899Y600802D01*
X302911Y600786D01*
X303015Y600694D01*
X303116Y600598D01*
X303134Y600589D01*
X303149Y600575D01*
X303273Y600512D01*
X303395Y600445D01*
X303414Y600440D01*
X303432Y600431D01*
X303568Y600400D01*
X303703Y600365D01*
X303731Y600364D01*
X303743Y600361D01*
X303763Y600362D01*
X303863Y600355D01*
X622300Y600355D01*
X622418Y600370D01*
G37*
%LPC*%
G36*
X276657Y891311D02*
X276657Y891311D01*
X256427Y911541D01*
X256348Y911602D01*
X256276Y911669D01*
X256223Y911699D01*
X256175Y911736D01*
X256084Y911775D01*
X255998Y911823D01*
X255939Y911838D01*
X255883Y911862D01*
X255785Y911878D01*
X255690Y911902D01*
X255590Y911909D01*
X255569Y911912D01*
X255557Y911911D01*
X255529Y911913D01*
X254113Y911913D01*
X251976Y912798D01*
X250340Y914434D01*
X249455Y916571D01*
X249455Y918884D01*
X250340Y921021D01*
X251976Y922657D01*
X254113Y923542D01*
X256427Y923542D01*
X258564Y922657D01*
X259595Y921625D01*
X259635Y921595D01*
X259668Y921558D01*
X259760Y921498D01*
X259846Y921431D01*
X259892Y921411D01*
X259934Y921383D01*
X260038Y921348D01*
X260138Y921304D01*
X260187Y921296D01*
X260234Y921280D01*
X260344Y921272D01*
X260452Y921254D01*
X260502Y921259D01*
X260551Y921255D01*
X260659Y921274D01*
X260769Y921284D01*
X260816Y921301D01*
X260865Y921310D01*
X260965Y921355D01*
X261068Y921392D01*
X261109Y921420D01*
X261155Y921440D01*
X261241Y921509D01*
X261331Y921570D01*
X261364Y921608D01*
X261403Y921639D01*
X261469Y921726D01*
X261542Y921809D01*
X261565Y921853D01*
X261594Y921893D01*
X261665Y922037D01*
X261771Y922291D01*
X263406Y923927D01*
X265409Y924757D01*
X265513Y924816D01*
X265620Y924868D01*
X265650Y924894D01*
X265685Y924914D01*
X265771Y924997D01*
X265862Y925074D01*
X265885Y925107D01*
X265914Y925135D01*
X265976Y925237D01*
X266045Y925334D01*
X266059Y925372D01*
X266080Y925407D01*
X266115Y925520D01*
X266157Y925632D01*
X266162Y925672D01*
X266174Y925710D01*
X266179Y925829D01*
X266193Y925948D01*
X266187Y925988D01*
X266189Y926028D01*
X266165Y926144D01*
X266148Y926263D01*
X266129Y926320D01*
X266125Y926340D01*
X266116Y926358D01*
X266096Y926415D01*
X265965Y926731D01*
X265965Y929044D01*
X266850Y931181D01*
X268486Y932817D01*
X270623Y933702D01*
X272937Y933702D01*
X273381Y933518D01*
X273515Y933481D01*
X273648Y933440D01*
X273668Y933439D01*
X273688Y933434D01*
X273827Y933432D01*
X273966Y933425D01*
X273985Y933429D01*
X274006Y933429D01*
X274141Y933462D01*
X274277Y933490D01*
X274295Y933499D01*
X274315Y933503D01*
X274438Y933568D01*
X274563Y933629D01*
X274578Y933642D01*
X274596Y933652D01*
X274699Y933745D01*
X274805Y933836D01*
X274816Y933852D01*
X274831Y933866D01*
X274908Y933982D01*
X274988Y934096D01*
X274995Y934115D01*
X275006Y934132D01*
X275052Y934264D01*
X275101Y934393D01*
X275103Y934413D01*
X275109Y934432D01*
X275120Y934571D01*
X275136Y934709D01*
X275133Y934729D01*
X275135Y934749D01*
X275111Y934886D01*
X275091Y935024D01*
X275082Y935051D01*
X275080Y935063D01*
X275072Y935081D01*
X275039Y935176D01*
X274855Y935621D01*
X274855Y937934D01*
X275740Y940071D01*
X277376Y941707D01*
X279513Y942592D01*
X281827Y942592D01*
X283964Y941707D01*
X285600Y940071D01*
X286485Y937934D01*
X286485Y936518D01*
X286497Y936420D01*
X286500Y936321D01*
X286517Y936263D01*
X286525Y936203D01*
X286561Y936111D01*
X286589Y936016D01*
X286619Y935963D01*
X286642Y935907D01*
X286700Y935827D01*
X286750Y935742D01*
X286767Y935723D01*
X286767Y922266D01*
X286779Y922168D01*
X286782Y922069D01*
X286799Y922011D01*
X286807Y921951D01*
X286843Y921859D01*
X286871Y921764D01*
X286901Y921711D01*
X286924Y921655D01*
X286982Y921575D01*
X287032Y921490D01*
X287098Y921414D01*
X287110Y921398D01*
X287120Y921390D01*
X287138Y921369D01*
X294471Y914036D01*
X294550Y913975D01*
X294622Y913907D01*
X294675Y913878D01*
X294723Y913841D01*
X294814Y913802D01*
X294900Y913754D01*
X294959Y913739D01*
X295015Y913715D01*
X295113Y913699D01*
X295208Y913674D01*
X295308Y913668D01*
X295329Y913665D01*
X295341Y913666D01*
X295369Y913664D01*
X402881Y913664D01*
X403012Y913681D01*
X403144Y913692D01*
X403170Y913701D01*
X403196Y913704D01*
X403320Y913753D01*
X403445Y913796D01*
X403467Y913811D01*
X403492Y913821D01*
X403599Y913899D01*
X403710Y913972D01*
X403728Y913992D01*
X403749Y914008D01*
X403834Y914110D01*
X403923Y914209D01*
X403935Y914232D01*
X403952Y914253D01*
X404009Y914373D01*
X404070Y914491D01*
X404076Y914516D01*
X404087Y914541D01*
X404112Y914671D01*
X404143Y914800D01*
X404142Y914827D01*
X404147Y914853D01*
X404139Y914985D01*
X404136Y915118D01*
X404129Y915144D01*
X404127Y915170D01*
X404087Y915296D01*
X404051Y915424D01*
X404041Y915444D01*
X403859Y916123D01*
X403859Y921538D01*
X411480Y921538D01*
X411598Y921553D01*
X411717Y921561D01*
X411755Y921573D01*
X411795Y921578D01*
X411906Y921622D01*
X412019Y921659D01*
X412054Y921680D01*
X412091Y921695D01*
X412187Y921765D01*
X412288Y921829D01*
X412316Y921858D01*
X412348Y921882D01*
X412424Y921974D01*
X412506Y922060D01*
X412525Y922096D01*
X412551Y922127D01*
X412602Y922235D01*
X412659Y922339D01*
X412670Y922378D01*
X412687Y922415D01*
X412709Y922531D01*
X412739Y922647D01*
X412743Y922707D01*
X412747Y922727D01*
X412745Y922747D01*
X412749Y922807D01*
X412749Y924078D01*
X412751Y924078D01*
X412751Y922807D01*
X412766Y922689D01*
X412773Y922571D01*
X412786Y922532D01*
X412791Y922492D01*
X412835Y922381D01*
X412871Y922268D01*
X412893Y922234D01*
X412908Y922196D01*
X412978Y922100D01*
X413041Y921999D01*
X413071Y921972D01*
X413095Y921939D01*
X413186Y921863D01*
X413273Y921781D01*
X413308Y921762D01*
X413340Y921736D01*
X413447Y921685D01*
X413551Y921628D01*
X413591Y921618D01*
X413627Y921601D01*
X413744Y921578D01*
X413859Y921548D01*
X413920Y921545D01*
X413940Y921541D01*
X413960Y921542D01*
X414020Y921538D01*
X421641Y921538D01*
X421641Y916123D01*
X421447Y915399D01*
X421413Y915326D01*
X421408Y915300D01*
X421397Y915276D01*
X421378Y915144D01*
X421353Y915014D01*
X421354Y914987D01*
X421351Y914961D01*
X421364Y914829D01*
X421373Y914696D01*
X421381Y914671D01*
X421383Y914645D01*
X421430Y914520D01*
X421471Y914394D01*
X421485Y914371D01*
X421494Y914346D01*
X421570Y914237D01*
X421641Y914125D01*
X421660Y914107D01*
X421675Y914085D01*
X421776Y913998D01*
X421872Y913907D01*
X421896Y913894D01*
X421916Y913877D01*
X422035Y913818D01*
X422151Y913754D01*
X422177Y913747D01*
X422200Y913735D01*
X422330Y913707D01*
X422459Y913674D01*
X422496Y913672D01*
X422511Y913669D01*
X422533Y913670D01*
X422619Y913664D01*
X427990Y913664D01*
X428108Y913679D01*
X428227Y913686D01*
X428265Y913699D01*
X428306Y913704D01*
X428416Y913748D01*
X428529Y913784D01*
X428564Y913806D01*
X428601Y913821D01*
X428697Y913891D01*
X428798Y913955D01*
X428826Y913984D01*
X428859Y914008D01*
X428935Y914100D01*
X429016Y914186D01*
X429036Y914222D01*
X429061Y914253D01*
X429112Y914360D01*
X429170Y914465D01*
X429180Y914504D01*
X429197Y914541D01*
X429219Y914657D01*
X429249Y914773D01*
X429253Y914833D01*
X429257Y914853D01*
X429255Y914873D01*
X429259Y914933D01*
X429259Y932750D01*
X430748Y934238D01*
X440600Y934238D01*
X440698Y934251D01*
X440797Y934254D01*
X440855Y934270D01*
X440915Y934278D01*
X441007Y934314D01*
X441102Y934342D01*
X441155Y934373D01*
X441211Y934395D01*
X441291Y934453D01*
X441376Y934503D01*
X441452Y934570D01*
X441468Y934582D01*
X441476Y934591D01*
X441497Y934610D01*
X448700Y941813D01*
X448773Y941907D01*
X448852Y941996D01*
X448870Y942032D01*
X448895Y942064D01*
X448942Y942173D01*
X448997Y942279D01*
X449005Y942319D01*
X449021Y942356D01*
X449040Y942474D01*
X449066Y942590D01*
X449065Y942630D01*
X449071Y942670D01*
X449060Y942789D01*
X449056Y942908D01*
X449045Y942946D01*
X449041Y942987D01*
X449001Y943099D01*
X448968Y943213D01*
X448948Y943248D01*
X448934Y943286D01*
X448867Y943385D01*
X448807Y943487D01*
X448767Y943532D01*
X448755Y943549D01*
X448740Y943563D01*
X448700Y943608D01*
X448586Y943722D01*
X447039Y947456D01*
X447039Y966739D01*
X448586Y970473D01*
X451444Y973331D01*
X455179Y974878D01*
X459221Y974878D01*
X462956Y973331D01*
X465814Y970473D01*
X467361Y966739D01*
X467361Y947456D01*
X465845Y943796D01*
X465837Y943768D01*
X465823Y943741D01*
X465795Y943614D01*
X465761Y943489D01*
X465760Y943460D01*
X465754Y943431D01*
X465758Y943301D01*
X465756Y943171D01*
X465763Y943143D01*
X465763Y943113D01*
X465799Y942989D01*
X465830Y942862D01*
X465844Y942836D01*
X465852Y942808D01*
X465918Y942696D01*
X465979Y942581D01*
X465998Y942559D01*
X466013Y942534D01*
X466120Y942413D01*
X472528Y936005D01*
X472606Y935944D01*
X472678Y935876D01*
X472731Y935847D01*
X472779Y935810D01*
X472870Y935771D01*
X472957Y935723D01*
X473015Y935708D01*
X473071Y935684D01*
X473169Y935668D01*
X473265Y935643D01*
X473365Y935637D01*
X473385Y935634D01*
X473397Y935635D01*
X473425Y935633D01*
X477432Y935633D01*
X478921Y934145D01*
X478921Y914933D01*
X478936Y914815D01*
X478943Y914696D01*
X478956Y914658D01*
X478961Y914618D01*
X479004Y914507D01*
X479041Y914394D01*
X479063Y914360D01*
X479078Y914322D01*
X479147Y914226D01*
X479211Y914125D01*
X479241Y914098D01*
X479264Y914065D01*
X479356Y913989D01*
X479443Y913907D01*
X479478Y913888D01*
X479509Y913862D01*
X479617Y913811D01*
X479721Y913754D01*
X479761Y913744D01*
X479797Y913726D01*
X479914Y913704D01*
X480029Y913674D01*
X480089Y913671D01*
X480109Y913667D01*
X480130Y913668D01*
X480190Y913664D01*
X485010Y913664D01*
X485128Y913679D01*
X485247Y913686D01*
X485285Y913699D01*
X485326Y913704D01*
X485436Y913748D01*
X485549Y913784D01*
X485584Y913806D01*
X485621Y913821D01*
X485717Y913891D01*
X485818Y913955D01*
X485846Y913984D01*
X485879Y914008D01*
X485955Y914100D01*
X486036Y914186D01*
X486056Y914222D01*
X486081Y914253D01*
X486132Y914360D01*
X486190Y914465D01*
X486200Y914504D01*
X486217Y914541D01*
X486239Y914657D01*
X486269Y914773D01*
X486273Y914833D01*
X486277Y914853D01*
X486275Y914873D01*
X486279Y914933D01*
X486279Y934173D01*
X486305Y934202D01*
X486324Y934238D01*
X486348Y934270D01*
X486396Y934379D01*
X486450Y934486D01*
X486459Y934525D01*
X486475Y934562D01*
X486493Y934680D01*
X486519Y934796D01*
X486518Y934836D01*
X486525Y934876D01*
X486513Y934994D01*
X486510Y935114D01*
X486499Y935153D01*
X486495Y935193D01*
X486454Y935305D01*
X486421Y935419D01*
X486401Y935454D01*
X486387Y935492D01*
X486320Y935591D01*
X486260Y935693D01*
X486220Y935738D01*
X486209Y935755D01*
X486193Y935769D01*
X486153Y935814D01*
X483023Y938945D01*
X482944Y939006D01*
X482872Y939073D01*
X482819Y939103D01*
X482771Y939140D01*
X482680Y939179D01*
X482594Y939227D01*
X482535Y939242D01*
X482479Y939266D01*
X482381Y939282D01*
X482286Y939306D01*
X482186Y939313D01*
X482165Y939316D01*
X482153Y939315D01*
X482125Y939317D01*
X480579Y939317D01*
X476844Y940864D01*
X473986Y943722D01*
X472439Y947456D01*
X472439Y966739D01*
X473986Y970473D01*
X476844Y973331D01*
X480579Y974878D01*
X484621Y974878D01*
X488356Y973331D01*
X491214Y970473D01*
X492761Y966739D01*
X492761Y947456D01*
X491214Y943722D01*
X490657Y943165D01*
X490584Y943071D01*
X490505Y942982D01*
X490487Y942946D01*
X490462Y942914D01*
X490415Y942805D01*
X490361Y942699D01*
X490352Y942659D01*
X490336Y942622D01*
X490317Y942504D01*
X490291Y942388D01*
X490292Y942348D01*
X490286Y942308D01*
X490297Y942189D01*
X490301Y942070D01*
X490312Y942032D01*
X490316Y941991D01*
X490356Y941879D01*
X490389Y941765D01*
X490410Y941730D01*
X490423Y941692D01*
X490490Y941594D01*
X490551Y941491D01*
X490591Y941446D01*
X490602Y941429D01*
X490617Y941415D01*
X490657Y941370D01*
X496022Y936005D01*
X496101Y935944D01*
X496173Y935876D01*
X496226Y935847D01*
X496274Y935810D01*
X496365Y935771D01*
X496451Y935723D01*
X496510Y935708D01*
X496566Y935684D01*
X496664Y935668D01*
X496759Y935643D01*
X496859Y935637D01*
X496880Y935634D01*
X496892Y935635D01*
X496920Y935633D01*
X505872Y935633D01*
X507361Y934145D01*
X507361Y914933D01*
X507376Y914815D01*
X507383Y914696D01*
X507396Y914658D01*
X507401Y914618D01*
X507444Y914507D01*
X507481Y914394D01*
X507503Y914360D01*
X507518Y914322D01*
X507587Y914226D01*
X507651Y914125D01*
X507681Y914098D01*
X507704Y914065D01*
X507796Y913989D01*
X507883Y913907D01*
X507918Y913888D01*
X507949Y913862D01*
X508057Y913811D01*
X508161Y913754D01*
X508201Y913744D01*
X508237Y913726D01*
X508354Y913704D01*
X508469Y913674D01*
X508529Y913671D01*
X508549Y913667D01*
X508570Y913668D01*
X508630Y913664D01*
X509811Y913664D01*
X509909Y913677D01*
X510008Y913680D01*
X510066Y913696D01*
X510127Y913704D01*
X510219Y913740D01*
X510314Y913768D01*
X510366Y913799D01*
X510422Y913821D01*
X510502Y913879D01*
X510588Y913929D01*
X510663Y913996D01*
X510680Y914008D01*
X510687Y914017D01*
X510709Y914036D01*
X529472Y932799D01*
X529532Y932877D01*
X529600Y932949D01*
X529629Y933002D01*
X529666Y933050D01*
X529706Y933141D01*
X529754Y933228D01*
X529769Y933286D01*
X529793Y933342D01*
X529808Y933440D01*
X529833Y933536D01*
X529839Y933636D01*
X529843Y933656D01*
X529841Y933668D01*
X529843Y933696D01*
X529843Y939105D01*
X529840Y939134D01*
X529842Y939163D01*
X529820Y939291D01*
X529803Y939420D01*
X529793Y939448D01*
X529788Y939477D01*
X529734Y939595D01*
X529686Y939716D01*
X529669Y939740D01*
X529657Y939767D01*
X529576Y939868D01*
X529500Y939973D01*
X529477Y939992D01*
X529458Y940015D01*
X529355Y940093D01*
X529255Y940176D01*
X529228Y940189D01*
X529204Y940206D01*
X529060Y940277D01*
X527644Y940864D01*
X524786Y943722D01*
X523239Y947456D01*
X523239Y966739D01*
X524786Y970473D01*
X527644Y973331D01*
X531379Y974878D01*
X535421Y974878D01*
X539156Y973331D01*
X542014Y970473D01*
X543561Y966739D01*
X543561Y947456D01*
X542014Y943722D01*
X539156Y940864D01*
X537740Y940277D01*
X537715Y940263D01*
X537687Y940254D01*
X537577Y940184D01*
X537464Y940120D01*
X537443Y940099D01*
X537418Y940083D01*
X537329Y939989D01*
X537236Y939898D01*
X537220Y939873D01*
X537200Y939852D01*
X537137Y939738D01*
X537069Y939627D01*
X537061Y939599D01*
X537046Y939573D01*
X537014Y939448D01*
X536976Y939323D01*
X536974Y939294D01*
X536967Y939265D01*
X536957Y939105D01*
X536957Y933188D01*
X536974Y933050D01*
X536987Y932912D01*
X536994Y932893D01*
X536997Y932873D01*
X537048Y932744D01*
X537095Y932613D01*
X537106Y932596D01*
X537114Y932577D01*
X537195Y932465D01*
X537273Y932350D01*
X537289Y932336D01*
X537300Y932320D01*
X537408Y932231D01*
X537512Y932139D01*
X537530Y932130D01*
X537545Y932117D01*
X537671Y932058D01*
X537795Y931994D01*
X537815Y931990D01*
X537833Y931981D01*
X537969Y931955D01*
X538105Y931925D01*
X538126Y931925D01*
X538145Y931922D01*
X538284Y931930D01*
X538423Y931934D01*
X538443Y931940D01*
X538463Y931941D01*
X538595Y931984D01*
X538729Y932023D01*
X538746Y932033D01*
X538765Y932039D01*
X538883Y932114D01*
X539003Y932184D01*
X539024Y932203D01*
X539034Y932210D01*
X539048Y932224D01*
X539123Y932291D01*
X549694Y942862D01*
X549712Y942885D01*
X549735Y942904D01*
X549810Y943010D01*
X549889Y943113D01*
X549901Y943140D01*
X549918Y943164D01*
X549964Y943286D01*
X550016Y943405D01*
X550020Y943434D01*
X550031Y943462D01*
X550045Y943591D01*
X550065Y943719D01*
X550063Y943748D01*
X550066Y943778D01*
X550048Y943906D01*
X550036Y944036D01*
X550026Y944063D01*
X550022Y944093D01*
X549969Y944245D01*
X548639Y947456D01*
X548639Y966739D01*
X550186Y970473D01*
X553044Y973331D01*
X556779Y974878D01*
X560821Y974878D01*
X564556Y973331D01*
X567414Y970473D01*
X568961Y966739D01*
X568961Y947456D01*
X567414Y943722D01*
X564556Y940864D01*
X560821Y939317D01*
X556735Y939317D01*
X556637Y939304D01*
X556538Y939301D01*
X556480Y939284D01*
X556419Y939277D01*
X556327Y939240D01*
X556232Y939213D01*
X556180Y939182D01*
X556124Y939160D01*
X556044Y939102D01*
X555958Y939051D01*
X555883Y938985D01*
X555866Y938973D01*
X555859Y938964D01*
X555837Y938945D01*
X522563Y905671D01*
X522478Y905561D01*
X522390Y905454D01*
X522381Y905436D01*
X522368Y905420D01*
X522313Y905292D01*
X522254Y905166D01*
X522250Y905146D01*
X522242Y905128D01*
X522220Y904990D01*
X522194Y904854D01*
X522195Y904834D01*
X522192Y904814D01*
X522205Y904675D01*
X522214Y904536D01*
X522220Y904517D01*
X522222Y904497D01*
X522269Y904366D01*
X522312Y904234D01*
X522323Y904217D01*
X522330Y904198D01*
X522408Y904083D01*
X522482Y903965D01*
X522497Y903951D01*
X522508Y903935D01*
X522612Y903843D01*
X522714Y903747D01*
X522732Y903738D01*
X522747Y903724D01*
X522871Y903661D01*
X522992Y903594D01*
X523012Y903589D01*
X523030Y903580D01*
X523166Y903549D01*
X523300Y903514D01*
X523328Y903513D01*
X523340Y903510D01*
X523361Y903511D01*
X523461Y903504D01*
X555531Y903504D01*
X555629Y903517D01*
X555728Y903520D01*
X555786Y903536D01*
X555847Y903544D01*
X555939Y903580D01*
X556034Y903608D01*
X556086Y903639D01*
X556142Y903661D01*
X556222Y903719D01*
X556308Y903769D01*
X556383Y903836D01*
X556400Y903848D01*
X556407Y903857D01*
X556429Y903876D01*
X580272Y927719D01*
X580332Y927797D01*
X580400Y927869D01*
X580429Y927922D01*
X580466Y927970D01*
X580506Y928061D01*
X580554Y928148D01*
X580569Y928206D01*
X580593Y928262D01*
X580608Y928360D01*
X580633Y928456D01*
X580639Y928556D01*
X580643Y928576D01*
X580641Y928588D01*
X580643Y928616D01*
X580643Y939105D01*
X580640Y939134D01*
X580642Y939163D01*
X580620Y939291D01*
X580603Y939420D01*
X580593Y939448D01*
X580588Y939477D01*
X580534Y939595D01*
X580486Y939716D01*
X580469Y939740D01*
X580457Y939767D01*
X580376Y939868D01*
X580300Y939973D01*
X580277Y939992D01*
X580258Y940015D01*
X580155Y940093D01*
X580055Y940176D01*
X580028Y940189D01*
X580004Y940206D01*
X579860Y940277D01*
X578444Y940864D01*
X575586Y943722D01*
X574039Y947456D01*
X574039Y966739D01*
X575586Y970473D01*
X578444Y973331D01*
X582179Y974878D01*
X586221Y974878D01*
X589956Y973331D01*
X592814Y970473D01*
X594361Y966739D01*
X594361Y947456D01*
X592814Y943722D01*
X589956Y940864D01*
X588540Y940277D01*
X588515Y940263D01*
X588487Y940254D01*
X588377Y940184D01*
X588264Y940120D01*
X588243Y940099D01*
X588218Y940083D01*
X588129Y939989D01*
X588036Y939898D01*
X588020Y939873D01*
X588000Y939852D01*
X587937Y939738D01*
X587869Y939627D01*
X587861Y939599D01*
X587846Y939573D01*
X587814Y939448D01*
X587776Y939323D01*
X587774Y939294D01*
X587767Y939265D01*
X587757Y939105D01*
X587757Y928108D01*
X587774Y927970D01*
X587787Y927832D01*
X587794Y927813D01*
X587797Y927793D01*
X587848Y927664D01*
X587895Y927533D01*
X587906Y927516D01*
X587914Y927497D01*
X587995Y927385D01*
X588073Y927270D01*
X588089Y927256D01*
X588100Y927240D01*
X588208Y927151D01*
X588312Y927059D01*
X588330Y927050D01*
X588345Y927037D01*
X588471Y926978D01*
X588595Y926914D01*
X588615Y926910D01*
X588633Y926901D01*
X588769Y926875D01*
X588905Y926845D01*
X588926Y926845D01*
X588945Y926842D01*
X589084Y926850D01*
X589223Y926854D01*
X589243Y926860D01*
X589263Y926861D01*
X589395Y926904D01*
X589529Y926943D01*
X589546Y926953D01*
X589565Y926959D01*
X589683Y927034D01*
X589803Y927104D01*
X589824Y927123D01*
X589834Y927130D01*
X589848Y927144D01*
X589923Y927211D01*
X602813Y940100D01*
X602886Y940194D01*
X602965Y940283D01*
X602983Y940319D01*
X603008Y940351D01*
X603055Y940461D01*
X603109Y940567D01*
X603118Y940606D01*
X603134Y940643D01*
X603153Y940761D01*
X603179Y940877D01*
X603178Y940917D01*
X603184Y940957D01*
X603173Y941076D01*
X603169Y941195D01*
X603158Y941234D01*
X603154Y941274D01*
X603114Y941386D01*
X603081Y941500D01*
X603060Y941535D01*
X603047Y941573D01*
X602980Y941672D01*
X602919Y941774D01*
X602879Y941820D01*
X602868Y941836D01*
X602853Y941850D01*
X602813Y941895D01*
X600986Y943722D01*
X599439Y947456D01*
X599439Y966739D01*
X600986Y970473D01*
X603844Y973331D01*
X607579Y974878D01*
X611621Y974878D01*
X615356Y973331D01*
X618214Y970473D01*
X619761Y966739D01*
X619761Y947456D01*
X618214Y943722D01*
X615356Y940864D01*
X612653Y939744D01*
X612645Y939740D01*
X612636Y939737D01*
X612507Y939661D01*
X612377Y939587D01*
X612371Y939580D01*
X612363Y939576D01*
X612242Y939469D01*
X566538Y893766D01*
X564083Y891311D01*
X276657Y891311D01*
G37*
%LPD*%
%LPC*%
G36*
X276657Y297306D02*
X276657Y297306D01*
X256427Y317537D01*
X256348Y317597D01*
X256276Y317665D01*
X256223Y317694D01*
X256175Y317731D01*
X256084Y317771D01*
X255998Y317819D01*
X255939Y317834D01*
X255883Y317858D01*
X255785Y317873D01*
X255690Y317898D01*
X255590Y317904D01*
X255569Y317908D01*
X255557Y317906D01*
X255529Y317908D01*
X254113Y317908D01*
X251976Y318793D01*
X250340Y320429D01*
X249455Y322566D01*
X249455Y324880D01*
X250340Y327017D01*
X251976Y328653D01*
X254113Y329538D01*
X256427Y329538D01*
X258564Y328653D01*
X259595Y327621D01*
X259635Y327591D01*
X259668Y327554D01*
X259760Y327493D01*
X259846Y327426D01*
X259892Y327406D01*
X259934Y327379D01*
X260038Y327343D01*
X260138Y327300D01*
X260187Y327292D01*
X260234Y327276D01*
X260344Y327267D01*
X260452Y327250D01*
X260502Y327255D01*
X260551Y327251D01*
X260659Y327269D01*
X260769Y327280D01*
X260816Y327297D01*
X260865Y327305D01*
X260965Y327350D01*
X261068Y327387D01*
X261109Y327415D01*
X261155Y327436D01*
X261241Y327504D01*
X261331Y327566D01*
X261364Y327603D01*
X261403Y327634D01*
X261469Y327722D01*
X261542Y327804D01*
X261565Y327849D01*
X261594Y327888D01*
X261665Y328033D01*
X261771Y328287D01*
X263406Y329923D01*
X265409Y330752D01*
X265513Y330811D01*
X265620Y330863D01*
X265650Y330890D01*
X265685Y330910D01*
X265771Y330993D01*
X265862Y331070D01*
X265885Y331103D01*
X265914Y331131D01*
X265976Y331233D01*
X266045Y331330D01*
X266059Y331368D01*
X266080Y331402D01*
X266115Y331516D01*
X266157Y331627D01*
X266162Y331667D01*
X266174Y331706D01*
X266179Y331825D01*
X266193Y331943D01*
X266187Y331983D01*
X266189Y332024D01*
X266165Y332140D01*
X266148Y332258D01*
X266129Y332315D01*
X266125Y332335D01*
X266116Y332354D01*
X266096Y332411D01*
X265965Y332726D01*
X265965Y335040D01*
X266850Y337177D01*
X268486Y338813D01*
X270623Y339698D01*
X272937Y339698D01*
X273381Y339514D01*
X273515Y339477D01*
X273648Y339436D01*
X273668Y339435D01*
X273688Y339430D01*
X273827Y339428D01*
X273966Y339421D01*
X273985Y339425D01*
X274006Y339425D01*
X274141Y339457D01*
X274277Y339485D01*
X274295Y339494D01*
X274315Y339499D01*
X274438Y339564D01*
X274563Y339625D01*
X274578Y339638D01*
X274596Y339648D01*
X274699Y339741D01*
X274805Y339831D01*
X274816Y339848D01*
X274831Y339861D01*
X274908Y339978D01*
X274988Y340091D01*
X274995Y340110D01*
X275006Y340127D01*
X275052Y340259D01*
X275101Y340389D01*
X275103Y340409D01*
X275109Y340428D01*
X275120Y340567D01*
X275136Y340705D01*
X275133Y340725D01*
X275135Y340745D01*
X275111Y340881D01*
X275091Y341020D01*
X275082Y341046D01*
X275080Y341058D01*
X275072Y341077D01*
X275039Y341172D01*
X274855Y341616D01*
X274855Y343930D01*
X275740Y346067D01*
X277376Y347703D01*
X279513Y348588D01*
X281827Y348588D01*
X283964Y347703D01*
X285600Y346067D01*
X286485Y343930D01*
X286485Y342514D01*
X286497Y342416D01*
X286500Y342317D01*
X286517Y342259D01*
X286525Y342198D01*
X286561Y342106D01*
X286589Y342011D01*
X286619Y341959D01*
X286642Y341903D01*
X286700Y341823D01*
X286750Y341737D01*
X286767Y341718D01*
X286767Y328262D01*
X286779Y328164D01*
X286782Y328065D01*
X286799Y328007D01*
X286807Y327946D01*
X286843Y327854D01*
X286871Y327759D01*
X286901Y327707D01*
X286924Y327651D01*
X286982Y327571D01*
X287032Y327485D01*
X287098Y327410D01*
X287110Y327393D01*
X287120Y327386D01*
X287138Y327364D01*
X294471Y320031D01*
X294550Y319971D01*
X294622Y319903D01*
X294675Y319874D01*
X294723Y319837D01*
X294814Y319797D01*
X294900Y319749D01*
X294959Y319734D01*
X295015Y319710D01*
X295113Y319695D01*
X295208Y319670D01*
X295308Y319664D01*
X295329Y319660D01*
X295341Y319662D01*
X295369Y319660D01*
X402881Y319660D01*
X403012Y319676D01*
X403144Y319687D01*
X403170Y319696D01*
X403196Y319700D01*
X403320Y319748D01*
X403445Y319792D01*
X403467Y319807D01*
X403492Y319817D01*
X403599Y319895D01*
X403710Y319968D01*
X403728Y319988D01*
X403749Y320003D01*
X403834Y320106D01*
X403923Y320204D01*
X403935Y320228D01*
X403952Y320248D01*
X404009Y320369D01*
X404070Y320486D01*
X404076Y320512D01*
X404087Y320536D01*
X404112Y320666D01*
X404143Y320796D01*
X404142Y320822D01*
X404147Y320848D01*
X404139Y320981D01*
X404136Y321114D01*
X404129Y321139D01*
X404127Y321166D01*
X404087Y321292D01*
X404051Y321420D01*
X404041Y321440D01*
X403859Y322119D01*
X403859Y327534D01*
X411480Y327534D01*
X411598Y327549D01*
X411717Y327556D01*
X411755Y327569D01*
X411795Y327574D01*
X411906Y327617D01*
X412019Y327654D01*
X412054Y327676D01*
X412091Y327691D01*
X412187Y327761D01*
X412288Y327824D01*
X412316Y327854D01*
X412348Y327878D01*
X412424Y327969D01*
X412506Y328056D01*
X412525Y328091D01*
X412551Y328122D01*
X412602Y328230D01*
X412659Y328334D01*
X412670Y328374D01*
X412687Y328410D01*
X412709Y328527D01*
X412739Y328642D01*
X412743Y328703D01*
X412747Y328723D01*
X412745Y328743D01*
X412749Y328803D01*
X412749Y330074D01*
X412751Y330074D01*
X412751Y328803D01*
X412766Y328685D01*
X412773Y328566D01*
X412786Y328528D01*
X412791Y328488D01*
X412835Y328377D01*
X412871Y328264D01*
X412893Y328229D01*
X412908Y328192D01*
X412978Y328096D01*
X413041Y327995D01*
X413071Y327967D01*
X413095Y327934D01*
X413186Y327859D01*
X413273Y327777D01*
X413308Y327757D01*
X413340Y327732D01*
X413447Y327681D01*
X413551Y327623D01*
X413591Y327613D01*
X413627Y327596D01*
X413744Y327574D01*
X413859Y327544D01*
X413920Y327540D01*
X413940Y327536D01*
X413960Y327538D01*
X414020Y327534D01*
X421641Y327534D01*
X421641Y322119D01*
X421447Y321394D01*
X421413Y321322D01*
X421408Y321296D01*
X421397Y321271D01*
X421378Y321140D01*
X421353Y321009D01*
X421354Y320983D01*
X421351Y320957D01*
X421364Y320825D01*
X421373Y320692D01*
X421381Y320667D01*
X421383Y320640D01*
X421430Y320516D01*
X421471Y320390D01*
X421485Y320367D01*
X421494Y320342D01*
X421570Y320233D01*
X421641Y320121D01*
X421660Y320103D01*
X421675Y320081D01*
X421776Y319994D01*
X421872Y319903D01*
X421896Y319890D01*
X421916Y319873D01*
X422035Y319813D01*
X422151Y319749D01*
X422177Y319743D01*
X422200Y319731D01*
X422330Y319703D01*
X422459Y319670D01*
X422496Y319668D01*
X422511Y319664D01*
X422533Y319665D01*
X422619Y319660D01*
X427990Y319660D01*
X428108Y319675D01*
X428227Y319682D01*
X428265Y319695D01*
X428306Y319700D01*
X428416Y319743D01*
X428529Y319780D01*
X428564Y319802D01*
X428601Y319817D01*
X428697Y319886D01*
X428798Y319950D01*
X428826Y319980D01*
X428859Y320003D01*
X428935Y320095D01*
X429016Y320182D01*
X429036Y320217D01*
X429061Y320248D01*
X429112Y320356D01*
X429170Y320460D01*
X429180Y320500D01*
X429197Y320536D01*
X429219Y320653D01*
X429249Y320768D01*
X429253Y320828D01*
X429257Y320848D01*
X429255Y320869D01*
X429259Y320929D01*
X429259Y338745D01*
X430748Y340234D01*
X440600Y340234D01*
X440698Y340246D01*
X440797Y340249D01*
X440855Y340266D01*
X440915Y340274D01*
X441007Y340310D01*
X441102Y340338D01*
X441155Y340368D01*
X441211Y340391D01*
X441291Y340449D01*
X441376Y340499D01*
X441452Y340565D01*
X441468Y340577D01*
X441476Y340587D01*
X441497Y340605D01*
X448700Y347808D01*
X448773Y347903D01*
X448852Y347992D01*
X448870Y348028D01*
X448895Y348060D01*
X448942Y348169D01*
X448997Y348275D01*
X449005Y348314D01*
X449021Y348352D01*
X449040Y348469D01*
X449066Y348585D01*
X449065Y348626D01*
X449071Y348666D01*
X449060Y348785D01*
X449056Y348903D01*
X449045Y348942D01*
X449041Y348982D01*
X449001Y349095D01*
X448968Y349209D01*
X448948Y349243D01*
X448934Y349282D01*
X448867Y349380D01*
X448807Y349483D01*
X448767Y349528D01*
X448755Y349545D01*
X448740Y349558D01*
X448700Y349603D01*
X448586Y349717D01*
X447039Y353452D01*
X447039Y372734D01*
X448586Y376469D01*
X451444Y379327D01*
X455179Y380874D01*
X459221Y380874D01*
X462956Y379327D01*
X465814Y376469D01*
X467361Y372734D01*
X467361Y353452D01*
X465845Y349792D01*
X465837Y349763D01*
X465823Y349737D01*
X465795Y349610D01*
X465761Y349485D01*
X465760Y349455D01*
X465754Y349427D01*
X465758Y349297D01*
X465756Y349167D01*
X465763Y349138D01*
X465763Y349109D01*
X465799Y348984D01*
X465830Y348858D01*
X465844Y348831D01*
X465852Y348803D01*
X465918Y348692D01*
X465979Y348577D01*
X465998Y348555D01*
X466013Y348529D01*
X466120Y348408D01*
X472528Y342000D01*
X472606Y341940D01*
X472678Y341872D01*
X472731Y341843D01*
X472779Y341806D01*
X472870Y341766D01*
X472957Y341718D01*
X473015Y341703D01*
X473071Y341679D01*
X473169Y341664D01*
X473265Y341639D01*
X473365Y341633D01*
X473385Y341629D01*
X473397Y341631D01*
X473425Y341629D01*
X477432Y341629D01*
X478921Y340140D01*
X478921Y320929D01*
X478936Y320811D01*
X478943Y320692D01*
X478956Y320654D01*
X478961Y320613D01*
X479004Y320503D01*
X479041Y320390D01*
X479063Y320355D01*
X479078Y320318D01*
X479147Y320222D01*
X479211Y320121D01*
X479241Y320093D01*
X479264Y320060D01*
X479356Y319984D01*
X479443Y319903D01*
X479478Y319883D01*
X479509Y319858D01*
X479617Y319807D01*
X479721Y319749D01*
X479761Y319739D01*
X479797Y319722D01*
X479914Y319700D01*
X480029Y319670D01*
X480089Y319666D01*
X480109Y319662D01*
X480130Y319664D01*
X480190Y319660D01*
X485010Y319660D01*
X485128Y319675D01*
X485247Y319682D01*
X485285Y319695D01*
X485326Y319700D01*
X485436Y319743D01*
X485549Y319780D01*
X485584Y319802D01*
X485621Y319817D01*
X485717Y319886D01*
X485818Y319950D01*
X485846Y319980D01*
X485879Y320003D01*
X485955Y320095D01*
X486036Y320182D01*
X486056Y320217D01*
X486081Y320248D01*
X486132Y320356D01*
X486190Y320460D01*
X486200Y320500D01*
X486217Y320536D01*
X486239Y320653D01*
X486269Y320768D01*
X486273Y320828D01*
X486277Y320848D01*
X486275Y320869D01*
X486279Y320929D01*
X486279Y340168D01*
X486305Y340198D01*
X486324Y340234D01*
X486348Y340266D01*
X486396Y340375D01*
X486450Y340481D01*
X486459Y340521D01*
X486475Y340558D01*
X486493Y340675D01*
X486519Y340791D01*
X486518Y340832D01*
X486525Y340872D01*
X486513Y340990D01*
X486510Y341109D01*
X486499Y341148D01*
X486495Y341188D01*
X486454Y341300D01*
X486421Y341415D01*
X486401Y341450D01*
X486387Y341488D01*
X486320Y341586D01*
X486260Y341689D01*
X486220Y341734D01*
X486209Y341751D01*
X486193Y341764D01*
X486153Y341810D01*
X483023Y344941D01*
X482944Y345001D01*
X482872Y345069D01*
X482819Y345098D01*
X482771Y345135D01*
X482680Y345175D01*
X482594Y345223D01*
X482535Y345238D01*
X482479Y345262D01*
X482381Y345277D01*
X482286Y345302D01*
X482186Y345308D01*
X482165Y345312D01*
X482153Y345310D01*
X482125Y345312D01*
X480579Y345312D01*
X476844Y346859D01*
X473986Y349717D01*
X472439Y353452D01*
X472439Y372734D01*
X473986Y376469D01*
X476844Y379327D01*
X480579Y380874D01*
X484621Y380874D01*
X488356Y379327D01*
X491214Y376469D01*
X492761Y372734D01*
X492761Y353452D01*
X491214Y349717D01*
X490657Y349161D01*
X490584Y349067D01*
X490505Y348977D01*
X490487Y348941D01*
X490462Y348909D01*
X490415Y348800D01*
X490361Y348694D01*
X490352Y348655D01*
X490336Y348618D01*
X490317Y348500D01*
X490291Y348384D01*
X490292Y348344D01*
X490286Y348304D01*
X490297Y348185D01*
X490301Y348066D01*
X490312Y348027D01*
X490316Y347987D01*
X490356Y347875D01*
X490389Y347761D01*
X490410Y347726D01*
X490423Y347688D01*
X490490Y347589D01*
X490551Y347487D01*
X490591Y347441D01*
X490602Y347424D01*
X490617Y347411D01*
X490657Y347366D01*
X496022Y342000D01*
X496101Y341940D01*
X496173Y341872D01*
X496226Y341843D01*
X496274Y341806D01*
X496365Y341766D01*
X496451Y341718D01*
X496510Y341703D01*
X496566Y341679D01*
X496664Y341664D01*
X496759Y341639D01*
X496859Y341633D01*
X496880Y341629D01*
X496892Y341631D01*
X496920Y341629D01*
X505872Y341629D01*
X507361Y340140D01*
X507361Y320929D01*
X507376Y320811D01*
X507383Y320692D01*
X507396Y320654D01*
X507401Y320613D01*
X507444Y320503D01*
X507481Y320390D01*
X507503Y320355D01*
X507518Y320318D01*
X507587Y320222D01*
X507651Y320121D01*
X507681Y320093D01*
X507704Y320060D01*
X507796Y319984D01*
X507883Y319903D01*
X507918Y319883D01*
X507949Y319858D01*
X508057Y319807D01*
X508161Y319749D01*
X508201Y319739D01*
X508237Y319722D01*
X508354Y319700D01*
X508469Y319670D01*
X508529Y319666D01*
X508549Y319662D01*
X508570Y319664D01*
X508630Y319660D01*
X509811Y319660D01*
X509909Y319672D01*
X510008Y319675D01*
X510066Y319692D01*
X510127Y319700D01*
X510219Y319736D01*
X510314Y319764D01*
X510366Y319794D01*
X510422Y319817D01*
X510502Y319875D01*
X510588Y319925D01*
X510663Y319991D01*
X510680Y320003D01*
X510687Y320013D01*
X510709Y320031D01*
X529472Y338794D01*
X529532Y338873D01*
X529600Y338945D01*
X529629Y338998D01*
X529666Y339046D01*
X529706Y339137D01*
X529754Y339223D01*
X529769Y339282D01*
X529793Y339338D01*
X529808Y339436D01*
X529833Y339531D01*
X529839Y339631D01*
X529843Y339652D01*
X529841Y339664D01*
X529843Y339692D01*
X529843Y345100D01*
X529840Y345130D01*
X529842Y345159D01*
X529820Y345287D01*
X529803Y345416D01*
X529793Y345443D01*
X529788Y345472D01*
X529734Y345591D01*
X529686Y345711D01*
X529669Y345735D01*
X529657Y345762D01*
X529576Y345864D01*
X529500Y345969D01*
X529477Y345988D01*
X529458Y346011D01*
X529355Y346089D01*
X529255Y346172D01*
X529228Y346184D01*
X529204Y346202D01*
X529060Y346273D01*
X527644Y346859D01*
X524786Y349717D01*
X523239Y353452D01*
X523239Y372734D01*
X524786Y376469D01*
X527644Y379327D01*
X531379Y380874D01*
X535421Y380874D01*
X539156Y379327D01*
X542014Y376469D01*
X543561Y372734D01*
X543561Y353452D01*
X542014Y349717D01*
X539156Y346859D01*
X537740Y346273D01*
X537715Y346258D01*
X537687Y346249D01*
X537577Y346180D01*
X537464Y346115D01*
X537443Y346095D01*
X537418Y346079D01*
X537329Y345984D01*
X537236Y345894D01*
X537220Y345869D01*
X537200Y345847D01*
X537137Y345734D01*
X537069Y345623D01*
X537061Y345595D01*
X537046Y345569D01*
X537014Y345443D01*
X536976Y345319D01*
X536974Y345290D01*
X536967Y345261D01*
X536957Y345100D01*
X536957Y339184D01*
X536974Y339046D01*
X536987Y338908D01*
X536994Y338888D01*
X536997Y338868D01*
X537048Y338739D01*
X537095Y338608D01*
X537106Y338591D01*
X537114Y338573D01*
X537195Y338461D01*
X537273Y338345D01*
X537289Y338332D01*
X537300Y338315D01*
X537408Y338227D01*
X537512Y338135D01*
X537530Y338125D01*
X537545Y338113D01*
X537671Y338053D01*
X537795Y337990D01*
X537815Y337986D01*
X537833Y337977D01*
X537969Y337951D01*
X538105Y337920D01*
X538126Y337921D01*
X538145Y337917D01*
X538284Y337926D01*
X538423Y337930D01*
X538443Y337936D01*
X538463Y337937D01*
X538595Y337980D01*
X538729Y338018D01*
X538746Y338029D01*
X538765Y338035D01*
X538883Y338110D01*
X539003Y338180D01*
X539024Y338199D01*
X539034Y338205D01*
X539048Y338220D01*
X539123Y338286D01*
X549694Y348857D01*
X549712Y348881D01*
X549735Y348900D01*
X549810Y349006D01*
X549889Y349109D01*
X549901Y349136D01*
X549918Y349160D01*
X549964Y349281D01*
X550016Y349400D01*
X550020Y349430D01*
X550031Y349457D01*
X550045Y349586D01*
X550065Y349715D01*
X550063Y349744D01*
X550066Y349773D01*
X550048Y349902D01*
X550036Y350031D01*
X550026Y350059D01*
X550022Y350088D01*
X549969Y350241D01*
X548639Y353452D01*
X548639Y372734D01*
X550186Y376469D01*
X553044Y379327D01*
X556779Y380874D01*
X560821Y380874D01*
X564556Y379327D01*
X567414Y376469D01*
X568961Y372734D01*
X568961Y353452D01*
X567414Y349717D01*
X564556Y346859D01*
X560821Y345312D01*
X556735Y345312D01*
X556637Y345300D01*
X556538Y345297D01*
X556480Y345280D01*
X556419Y345272D01*
X556327Y345236D01*
X556232Y345208D01*
X556180Y345178D01*
X556124Y345155D01*
X556044Y345097D01*
X555958Y345047D01*
X555883Y344981D01*
X555866Y344969D01*
X555859Y344959D01*
X555837Y344941D01*
X522563Y311666D01*
X522478Y311557D01*
X522390Y311450D01*
X522381Y311431D01*
X522368Y311415D01*
X522313Y311287D01*
X522254Y311162D01*
X522250Y311142D01*
X522242Y311123D01*
X522220Y310985D01*
X522194Y310849D01*
X522195Y310829D01*
X522192Y310809D01*
X522205Y310670D01*
X522214Y310532D01*
X522220Y310513D01*
X522222Y310493D01*
X522269Y310361D01*
X522312Y310230D01*
X522323Y310212D01*
X522330Y310193D01*
X522408Y310078D01*
X522482Y309961D01*
X522497Y309947D01*
X522508Y309930D01*
X522612Y309838D01*
X522714Y309743D01*
X522732Y309733D01*
X522747Y309720D01*
X522871Y309656D01*
X522992Y309589D01*
X523012Y309584D01*
X523030Y309575D01*
X523166Y309545D01*
X523300Y309510D01*
X523328Y309508D01*
X523340Y309505D01*
X523361Y309506D01*
X523461Y309500D01*
X555531Y309500D01*
X555629Y309512D01*
X555728Y309515D01*
X555786Y309532D01*
X555847Y309540D01*
X555939Y309576D01*
X556034Y309604D01*
X556086Y309634D01*
X556142Y309657D01*
X556222Y309715D01*
X556308Y309765D01*
X556383Y309831D01*
X556400Y309843D01*
X556407Y309853D01*
X556429Y309871D01*
X580272Y333714D01*
X580332Y333793D01*
X580400Y333865D01*
X580429Y333918D01*
X580466Y333966D01*
X580506Y334057D01*
X580554Y334143D01*
X580569Y334202D01*
X580593Y334258D01*
X580608Y334356D01*
X580633Y334451D01*
X580639Y334551D01*
X580643Y334572D01*
X580641Y334584D01*
X580643Y334612D01*
X580643Y345100D01*
X580640Y345130D01*
X580642Y345159D01*
X580620Y345287D01*
X580603Y345416D01*
X580593Y345443D01*
X580588Y345472D01*
X580534Y345591D01*
X580486Y345711D01*
X580469Y345735D01*
X580457Y345762D01*
X580376Y345864D01*
X580300Y345969D01*
X580277Y345988D01*
X580258Y346011D01*
X580155Y346089D01*
X580055Y346172D01*
X580028Y346184D01*
X580004Y346202D01*
X579860Y346273D01*
X578444Y346859D01*
X575586Y349717D01*
X574039Y353452D01*
X574039Y372734D01*
X575586Y376469D01*
X578444Y379327D01*
X582179Y380874D01*
X586221Y380874D01*
X589956Y379327D01*
X592814Y376469D01*
X594361Y372734D01*
X594361Y353452D01*
X592814Y349717D01*
X589956Y346859D01*
X588540Y346273D01*
X588515Y346258D01*
X588487Y346249D01*
X588377Y346180D01*
X588264Y346115D01*
X588243Y346095D01*
X588218Y346079D01*
X588129Y345984D01*
X588036Y345894D01*
X588020Y345869D01*
X588000Y345847D01*
X587937Y345734D01*
X587869Y345623D01*
X587861Y345595D01*
X587846Y345569D01*
X587814Y345443D01*
X587776Y345319D01*
X587774Y345290D01*
X587767Y345261D01*
X587757Y345100D01*
X587757Y334104D01*
X587774Y333966D01*
X587787Y333828D01*
X587794Y333808D01*
X587797Y333788D01*
X587848Y333659D01*
X587895Y333528D01*
X587906Y333511D01*
X587914Y333493D01*
X587995Y333380D01*
X588073Y333265D01*
X588089Y333252D01*
X588100Y333235D01*
X588208Y333147D01*
X588312Y333055D01*
X588330Y333045D01*
X588345Y333033D01*
X588471Y332973D01*
X588595Y332910D01*
X588615Y332906D01*
X588633Y332897D01*
X588769Y332871D01*
X588905Y332840D01*
X588926Y332841D01*
X588945Y332837D01*
X589084Y332846D01*
X589223Y332850D01*
X589243Y332856D01*
X589263Y332857D01*
X589395Y332900D01*
X589529Y332938D01*
X589546Y332949D01*
X589565Y332955D01*
X589683Y333029D01*
X589803Y333100D01*
X589824Y333119D01*
X589834Y333125D01*
X589848Y333140D01*
X589923Y333206D01*
X602813Y346096D01*
X602886Y346190D01*
X602965Y346279D01*
X602983Y346315D01*
X603008Y346347D01*
X603055Y346456D01*
X603109Y346562D01*
X603118Y346602D01*
X603134Y346639D01*
X603153Y346757D01*
X603179Y346873D01*
X603178Y346913D01*
X603184Y346953D01*
X603173Y347072D01*
X603169Y347190D01*
X603158Y347229D01*
X603154Y347270D01*
X603114Y347382D01*
X603081Y347496D01*
X603060Y347531D01*
X603047Y347569D01*
X602980Y347667D01*
X602919Y347770D01*
X602879Y347815D01*
X602868Y347832D01*
X602853Y347845D01*
X602813Y347891D01*
X600986Y349717D01*
X599439Y353452D01*
X599439Y372734D01*
X600986Y376469D01*
X603844Y379327D01*
X607579Y380874D01*
X611621Y380874D01*
X615356Y379327D01*
X618214Y376469D01*
X619761Y372734D01*
X619761Y353452D01*
X618214Y349717D01*
X615356Y346859D01*
X612653Y345740D01*
X612645Y345735D01*
X612636Y345733D01*
X612507Y345657D01*
X612377Y345582D01*
X612371Y345576D01*
X612363Y345571D01*
X612242Y345465D01*
X566538Y299762D01*
X564083Y297306D01*
X276657Y297306D01*
G37*
%LPD*%
%LPC*%
G36*
X276657Y495325D02*
X276657Y495325D01*
X256427Y515555D01*
X256348Y515616D01*
X256276Y515683D01*
X256223Y515713D01*
X256175Y515750D01*
X256084Y515789D01*
X255998Y515837D01*
X255939Y515852D01*
X255883Y515876D01*
X255785Y515892D01*
X255690Y515916D01*
X255590Y515923D01*
X255569Y515926D01*
X255557Y515925D01*
X255529Y515927D01*
X254113Y515927D01*
X251976Y516812D01*
X250340Y518448D01*
X249455Y520585D01*
X249455Y522898D01*
X250340Y525035D01*
X251976Y526671D01*
X254113Y527556D01*
X256427Y527556D01*
X258564Y526671D01*
X259595Y525639D01*
X259635Y525609D01*
X259668Y525572D01*
X259760Y525512D01*
X259846Y525445D01*
X259892Y525425D01*
X259934Y525397D01*
X260038Y525362D01*
X260138Y525318D01*
X260187Y525310D01*
X260234Y525294D01*
X260344Y525286D01*
X260452Y525268D01*
X260502Y525273D01*
X260551Y525269D01*
X260659Y525288D01*
X260769Y525298D01*
X260816Y525315D01*
X260865Y525324D01*
X260965Y525369D01*
X261068Y525406D01*
X261109Y525434D01*
X261155Y525454D01*
X261241Y525523D01*
X261331Y525584D01*
X261364Y525622D01*
X261403Y525653D01*
X261469Y525740D01*
X261542Y525823D01*
X261565Y525867D01*
X261594Y525907D01*
X261665Y526051D01*
X261771Y526305D01*
X263406Y527941D01*
X265409Y528771D01*
X265513Y528830D01*
X265620Y528882D01*
X265650Y528908D01*
X265685Y528928D01*
X265771Y529011D01*
X265862Y529088D01*
X265885Y529121D01*
X265914Y529149D01*
X265976Y529251D01*
X266045Y529348D01*
X266059Y529386D01*
X266080Y529420D01*
X266115Y529534D01*
X266157Y529646D01*
X266162Y529686D01*
X266174Y529724D01*
X266179Y529843D01*
X266193Y529962D01*
X266187Y530002D01*
X266189Y530042D01*
X266165Y530159D01*
X266148Y530277D01*
X266129Y530334D01*
X266125Y530354D01*
X266116Y530372D01*
X266096Y530429D01*
X265965Y530745D01*
X265965Y533058D01*
X266850Y535195D01*
X268486Y536831D01*
X270623Y537716D01*
X272937Y537716D01*
X273381Y537532D01*
X273515Y537495D01*
X273648Y537454D01*
X273668Y537453D01*
X273688Y537448D01*
X273827Y537446D01*
X273966Y537439D01*
X273985Y537443D01*
X274006Y537443D01*
X274141Y537476D01*
X274277Y537504D01*
X274295Y537513D01*
X274315Y537517D01*
X274438Y537582D01*
X274563Y537643D01*
X274578Y537656D01*
X274596Y537666D01*
X274699Y537759D01*
X274805Y537850D01*
X274816Y537866D01*
X274831Y537880D01*
X274908Y537996D01*
X274988Y538110D01*
X274995Y538129D01*
X275006Y538146D01*
X275052Y538278D01*
X275101Y538407D01*
X275103Y538427D01*
X275109Y538446D01*
X275120Y538585D01*
X275136Y538723D01*
X275133Y538743D01*
X275135Y538763D01*
X275111Y538900D01*
X275091Y539038D01*
X275082Y539065D01*
X275080Y539077D01*
X275072Y539095D01*
X275039Y539190D01*
X274855Y539635D01*
X274855Y541948D01*
X275740Y544085D01*
X277376Y545721D01*
X279513Y546606D01*
X281827Y546606D01*
X283964Y545721D01*
X285600Y544085D01*
X286485Y541948D01*
X286485Y540532D01*
X286497Y540434D01*
X286500Y540335D01*
X286517Y540277D01*
X286525Y540217D01*
X286561Y540125D01*
X286589Y540030D01*
X286619Y539977D01*
X286642Y539921D01*
X286700Y539841D01*
X286750Y539756D01*
X286767Y539737D01*
X286767Y526280D01*
X286779Y526182D01*
X286782Y526083D01*
X286799Y526025D01*
X286807Y525965D01*
X286843Y525873D01*
X286871Y525778D01*
X286901Y525725D01*
X286924Y525669D01*
X286982Y525589D01*
X287032Y525504D01*
X287098Y525428D01*
X287110Y525412D01*
X287120Y525404D01*
X287138Y525383D01*
X294471Y518050D01*
X294550Y517989D01*
X294622Y517921D01*
X294675Y517892D01*
X294723Y517855D01*
X294814Y517816D01*
X294900Y517768D01*
X294959Y517753D01*
X295015Y517729D01*
X295113Y517713D01*
X295208Y517688D01*
X295308Y517682D01*
X295329Y517679D01*
X295341Y517680D01*
X295369Y517678D01*
X402881Y517678D01*
X403012Y517695D01*
X403144Y517706D01*
X403169Y517715D01*
X403196Y517718D01*
X403319Y517767D01*
X403444Y517810D01*
X403467Y517825D01*
X403492Y517835D01*
X403599Y517913D01*
X403709Y517986D01*
X403727Y518006D01*
X403749Y518022D01*
X403834Y518124D01*
X403922Y518222D01*
X403935Y518246D01*
X403952Y518267D01*
X404008Y518387D01*
X404070Y518504D01*
X404076Y518530D01*
X404087Y518555D01*
X404112Y518684D01*
X404143Y518814D01*
X404142Y518841D01*
X404147Y518867D01*
X404139Y518999D01*
X404136Y519132D01*
X404129Y519157D01*
X404127Y519184D01*
X404087Y519310D01*
X404051Y519438D01*
X404041Y519458D01*
X403859Y520137D01*
X403859Y525552D01*
X411480Y525552D01*
X411598Y525567D01*
X411717Y525575D01*
X411755Y525587D01*
X411795Y525592D01*
X411906Y525636D01*
X412019Y525673D01*
X412054Y525694D01*
X412091Y525709D01*
X412187Y525779D01*
X412288Y525843D01*
X412316Y525872D01*
X412348Y525896D01*
X412424Y525988D01*
X412506Y526074D01*
X412525Y526110D01*
X412551Y526141D01*
X412602Y526249D01*
X412659Y526353D01*
X412670Y526392D01*
X412687Y526429D01*
X412709Y526545D01*
X412739Y526661D01*
X412743Y526721D01*
X412747Y526741D01*
X412745Y526761D01*
X412749Y526821D01*
X412749Y528092D01*
X412751Y528092D01*
X412751Y526821D01*
X412766Y526703D01*
X412773Y526585D01*
X412786Y526546D01*
X412791Y526506D01*
X412835Y526395D01*
X412871Y526282D01*
X412893Y526248D01*
X412908Y526210D01*
X412978Y526114D01*
X413041Y526013D01*
X413071Y525986D01*
X413095Y525953D01*
X413186Y525877D01*
X413273Y525795D01*
X413308Y525776D01*
X413340Y525750D01*
X413447Y525699D01*
X413551Y525642D01*
X413591Y525632D01*
X413627Y525615D01*
X413744Y525592D01*
X413859Y525562D01*
X413920Y525559D01*
X413940Y525555D01*
X413960Y525556D01*
X414020Y525552D01*
X421641Y525552D01*
X421641Y520137D01*
X421447Y519412D01*
X421413Y519340D01*
X421408Y519314D01*
X421397Y519289D01*
X421378Y519158D01*
X421353Y519028D01*
X421354Y519001D01*
X421351Y518974D01*
X421364Y518842D01*
X421373Y518710D01*
X421381Y518685D01*
X421384Y518658D01*
X421430Y518534D01*
X421471Y518408D01*
X421485Y518385D01*
X421494Y518360D01*
X421570Y518251D01*
X421641Y518139D01*
X421660Y518121D01*
X421676Y518099D01*
X421776Y518012D01*
X421872Y517921D01*
X421896Y517908D01*
X421916Y517891D01*
X422035Y517832D01*
X422151Y517768D01*
X422177Y517761D01*
X422201Y517749D01*
X422331Y517721D01*
X422459Y517688D01*
X422497Y517686D01*
X422512Y517683D01*
X422534Y517684D01*
X422619Y517678D01*
X427990Y517678D01*
X428108Y517693D01*
X428227Y517700D01*
X428265Y517713D01*
X428306Y517718D01*
X428416Y517762D01*
X428529Y517798D01*
X428564Y517820D01*
X428601Y517835D01*
X428697Y517905D01*
X428798Y517969D01*
X428826Y517998D01*
X428859Y518022D01*
X428935Y518114D01*
X429016Y518200D01*
X429036Y518236D01*
X429061Y518267D01*
X429112Y518374D01*
X429170Y518479D01*
X429180Y518518D01*
X429197Y518555D01*
X429219Y518671D01*
X429249Y518787D01*
X429253Y518847D01*
X429257Y518867D01*
X429255Y518887D01*
X429259Y518947D01*
X429259Y536764D01*
X430748Y538252D01*
X440600Y538252D01*
X440698Y538265D01*
X440797Y538268D01*
X440855Y538284D01*
X440915Y538292D01*
X441007Y538328D01*
X441102Y538356D01*
X441155Y538387D01*
X441211Y538409D01*
X441291Y538467D01*
X441376Y538517D01*
X441452Y538584D01*
X441468Y538596D01*
X441476Y538605D01*
X441497Y538624D01*
X448700Y545827D01*
X448773Y545921D01*
X448852Y546010D01*
X448870Y546046D01*
X448895Y546078D01*
X448942Y546187D01*
X448997Y546293D01*
X449005Y546333D01*
X449021Y546370D01*
X449040Y546488D01*
X449066Y546604D01*
X449065Y546644D01*
X449071Y546684D01*
X449060Y546803D01*
X449056Y546922D01*
X449045Y546960D01*
X449041Y547001D01*
X449001Y547113D01*
X448968Y547227D01*
X448948Y547262D01*
X448934Y547300D01*
X448867Y547399D01*
X448807Y547501D01*
X448767Y547546D01*
X448755Y547563D01*
X448740Y547577D01*
X448700Y547622D01*
X448586Y547736D01*
X447039Y551470D01*
X447039Y570753D01*
X448586Y574487D01*
X451444Y577345D01*
X455179Y578892D01*
X459221Y578892D01*
X462956Y577345D01*
X465814Y574487D01*
X467361Y570753D01*
X467361Y551470D01*
X465845Y547810D01*
X465837Y547782D01*
X465823Y547755D01*
X465795Y547628D01*
X465761Y547503D01*
X465760Y547474D01*
X465754Y547445D01*
X465758Y547315D01*
X465756Y547185D01*
X465763Y547157D01*
X465763Y547127D01*
X465799Y547003D01*
X465830Y546876D01*
X465844Y546850D01*
X465852Y546822D01*
X465918Y546710D01*
X465979Y546595D01*
X465998Y546573D01*
X466013Y546548D01*
X466120Y546427D01*
X472528Y540019D01*
X472606Y539958D01*
X472678Y539890D01*
X472731Y539861D01*
X472779Y539824D01*
X472870Y539785D01*
X472957Y539737D01*
X473015Y539722D01*
X473071Y539698D01*
X473169Y539682D01*
X473265Y539657D01*
X473365Y539651D01*
X473385Y539648D01*
X473397Y539649D01*
X473425Y539647D01*
X477432Y539647D01*
X478921Y538159D01*
X478921Y518947D01*
X478936Y518829D01*
X478943Y518710D01*
X478956Y518672D01*
X478961Y518632D01*
X479004Y518521D01*
X479041Y518408D01*
X479063Y518374D01*
X479078Y518336D01*
X479147Y518240D01*
X479211Y518139D01*
X479241Y518112D01*
X479264Y518079D01*
X479356Y518003D01*
X479443Y517921D01*
X479478Y517902D01*
X479509Y517876D01*
X479617Y517825D01*
X479721Y517768D01*
X479761Y517758D01*
X479797Y517740D01*
X479914Y517718D01*
X480029Y517688D01*
X480089Y517685D01*
X480109Y517681D01*
X480130Y517682D01*
X480190Y517678D01*
X485010Y517678D01*
X485128Y517693D01*
X485247Y517700D01*
X485285Y517713D01*
X485326Y517718D01*
X485436Y517762D01*
X485549Y517798D01*
X485584Y517820D01*
X485621Y517835D01*
X485717Y517905D01*
X485818Y517969D01*
X485846Y517998D01*
X485879Y518022D01*
X485955Y518114D01*
X486036Y518200D01*
X486056Y518236D01*
X486081Y518267D01*
X486132Y518374D01*
X486190Y518479D01*
X486200Y518518D01*
X486217Y518555D01*
X486239Y518671D01*
X486269Y518787D01*
X486273Y518847D01*
X486277Y518867D01*
X486275Y518887D01*
X486279Y518947D01*
X486279Y538187D01*
X486305Y538216D01*
X486324Y538252D01*
X486348Y538284D01*
X486396Y538394D01*
X486450Y538500D01*
X486459Y538539D01*
X486475Y538576D01*
X486493Y538694D01*
X486519Y538810D01*
X486518Y538850D01*
X486525Y538890D01*
X486513Y539009D01*
X486510Y539128D01*
X486499Y539167D01*
X486495Y539207D01*
X486454Y539319D01*
X486421Y539433D01*
X486401Y539468D01*
X486387Y539506D01*
X486320Y539605D01*
X486260Y539707D01*
X486220Y539752D01*
X486209Y539769D01*
X486193Y539783D01*
X486153Y539828D01*
X483023Y542959D01*
X482944Y543020D01*
X482872Y543087D01*
X482819Y543117D01*
X482771Y543154D01*
X482680Y543193D01*
X482594Y543241D01*
X482535Y543256D01*
X482479Y543280D01*
X482381Y543296D01*
X482286Y543320D01*
X482186Y543327D01*
X482165Y543330D01*
X482153Y543329D01*
X482125Y543331D01*
X480579Y543331D01*
X476844Y544878D01*
X473986Y547736D01*
X472439Y551470D01*
X472439Y570753D01*
X473986Y574487D01*
X476844Y577345D01*
X480579Y578892D01*
X484621Y578892D01*
X488356Y577345D01*
X491214Y574487D01*
X492761Y570753D01*
X492761Y551470D01*
X491214Y547736D01*
X490657Y547179D01*
X490584Y547085D01*
X490505Y546996D01*
X490487Y546960D01*
X490462Y546928D01*
X490415Y546819D01*
X490361Y546713D01*
X490352Y546673D01*
X490336Y546636D01*
X490317Y546518D01*
X490291Y546402D01*
X490292Y546362D01*
X490286Y546322D01*
X490297Y546203D01*
X490301Y546084D01*
X490312Y546046D01*
X490316Y546005D01*
X490356Y545893D01*
X490389Y545779D01*
X490410Y545744D01*
X490423Y545706D01*
X490490Y545608D01*
X490551Y545505D01*
X490591Y545460D01*
X490602Y545443D01*
X490617Y545429D01*
X490657Y545384D01*
X496022Y540019D01*
X496101Y539958D01*
X496173Y539890D01*
X496226Y539861D01*
X496274Y539824D01*
X496365Y539785D01*
X496451Y539737D01*
X496510Y539722D01*
X496566Y539698D01*
X496664Y539682D01*
X496759Y539657D01*
X496859Y539651D01*
X496880Y539648D01*
X496892Y539649D01*
X496920Y539647D01*
X505872Y539647D01*
X507361Y538159D01*
X507361Y518947D01*
X507376Y518829D01*
X507383Y518710D01*
X507396Y518672D01*
X507401Y518632D01*
X507444Y518521D01*
X507481Y518408D01*
X507503Y518374D01*
X507518Y518336D01*
X507587Y518240D01*
X507651Y518139D01*
X507681Y518112D01*
X507704Y518079D01*
X507796Y518003D01*
X507883Y517921D01*
X507918Y517902D01*
X507949Y517876D01*
X508057Y517825D01*
X508161Y517768D01*
X508201Y517758D01*
X508237Y517740D01*
X508354Y517718D01*
X508469Y517688D01*
X508529Y517685D01*
X508549Y517681D01*
X508570Y517682D01*
X508630Y517678D01*
X509811Y517678D01*
X509909Y517691D01*
X510008Y517694D01*
X510066Y517710D01*
X510127Y517718D01*
X510219Y517754D01*
X510314Y517782D01*
X510366Y517813D01*
X510422Y517835D01*
X510502Y517893D01*
X510588Y517943D01*
X510663Y518010D01*
X510680Y518022D01*
X510687Y518031D01*
X510709Y518050D01*
X529472Y536813D01*
X529532Y536891D01*
X529600Y536963D01*
X529629Y537016D01*
X529666Y537064D01*
X529706Y537155D01*
X529754Y537242D01*
X529769Y537300D01*
X529793Y537356D01*
X529808Y537454D01*
X529833Y537550D01*
X529839Y537650D01*
X529843Y537670D01*
X529841Y537682D01*
X529843Y537710D01*
X529843Y543119D01*
X529840Y543148D01*
X529842Y543177D01*
X529820Y543305D01*
X529803Y543434D01*
X529793Y543462D01*
X529788Y543491D01*
X529734Y543609D01*
X529686Y543730D01*
X529669Y543754D01*
X529657Y543781D01*
X529576Y543882D01*
X529500Y543987D01*
X529477Y544006D01*
X529458Y544029D01*
X529355Y544107D01*
X529255Y544190D01*
X529228Y544203D01*
X529204Y544220D01*
X529060Y544291D01*
X527644Y544878D01*
X524786Y547736D01*
X523239Y551470D01*
X523239Y570753D01*
X524786Y574487D01*
X527644Y577345D01*
X531379Y578892D01*
X535421Y578892D01*
X539156Y577345D01*
X542014Y574487D01*
X543561Y570753D01*
X543561Y551470D01*
X542014Y547736D01*
X539156Y544878D01*
X537740Y544291D01*
X537715Y544277D01*
X537687Y544268D01*
X537577Y544198D01*
X537464Y544134D01*
X537443Y544113D01*
X537418Y544097D01*
X537329Y544003D01*
X537236Y543912D01*
X537220Y543887D01*
X537200Y543866D01*
X537137Y543752D01*
X537069Y543641D01*
X537061Y543613D01*
X537046Y543587D01*
X537014Y543462D01*
X536976Y543337D01*
X536974Y543308D01*
X536967Y543279D01*
X536957Y543119D01*
X536957Y537202D01*
X536974Y537064D01*
X536987Y536926D01*
X536994Y536907D01*
X536997Y536887D01*
X537048Y536758D01*
X537095Y536627D01*
X537106Y536610D01*
X537114Y536591D01*
X537195Y536479D01*
X537273Y536364D01*
X537289Y536350D01*
X537300Y536334D01*
X537408Y536245D01*
X537512Y536153D01*
X537530Y536144D01*
X537545Y536131D01*
X537671Y536072D01*
X537795Y536008D01*
X537815Y536004D01*
X537833Y535995D01*
X537969Y535969D01*
X538105Y535939D01*
X538126Y535939D01*
X538145Y535936D01*
X538284Y535944D01*
X538423Y535948D01*
X538443Y535954D01*
X538463Y535955D01*
X538595Y535998D01*
X538729Y536037D01*
X538746Y536047D01*
X538765Y536053D01*
X538883Y536128D01*
X539003Y536198D01*
X539024Y536217D01*
X539034Y536224D01*
X539048Y536239D01*
X539123Y536305D01*
X549694Y546876D01*
X549712Y546899D01*
X549735Y546918D01*
X549810Y547024D01*
X549889Y547127D01*
X549901Y547154D01*
X549918Y547178D01*
X549964Y547300D01*
X550016Y547419D01*
X550020Y547448D01*
X550031Y547476D01*
X550045Y547605D01*
X550065Y547733D01*
X550063Y547762D01*
X550066Y547792D01*
X550048Y547920D01*
X550036Y548050D01*
X550026Y548077D01*
X550022Y548107D01*
X549969Y548259D01*
X548639Y551470D01*
X548639Y570753D01*
X550186Y574487D01*
X553044Y577345D01*
X556779Y578892D01*
X560821Y578892D01*
X564556Y577345D01*
X567414Y574487D01*
X568961Y570753D01*
X568961Y551470D01*
X567414Y547736D01*
X564556Y544878D01*
X560821Y543331D01*
X556735Y543331D01*
X556637Y543318D01*
X556538Y543315D01*
X556480Y543298D01*
X556419Y543291D01*
X556327Y543254D01*
X556232Y543227D01*
X556180Y543196D01*
X556124Y543174D01*
X556044Y543116D01*
X555958Y543065D01*
X555883Y542999D01*
X555866Y542987D01*
X555859Y542978D01*
X555837Y542959D01*
X522563Y509685D01*
X522478Y509575D01*
X522390Y509468D01*
X522381Y509450D01*
X522368Y509434D01*
X522313Y509306D01*
X522254Y509180D01*
X522250Y509160D01*
X522242Y509142D01*
X522220Y509004D01*
X522194Y508868D01*
X522195Y508848D01*
X522192Y508828D01*
X522205Y508689D01*
X522214Y508550D01*
X522220Y508531D01*
X522222Y508511D01*
X522269Y508380D01*
X522312Y508248D01*
X522323Y508231D01*
X522330Y508212D01*
X522408Y508097D01*
X522482Y507979D01*
X522497Y507965D01*
X522508Y507949D01*
X522612Y507857D01*
X522714Y507761D01*
X522732Y507752D01*
X522747Y507738D01*
X522871Y507675D01*
X522992Y507608D01*
X523012Y507603D01*
X523030Y507594D01*
X523166Y507563D01*
X523300Y507528D01*
X523328Y507527D01*
X523340Y507524D01*
X523361Y507525D01*
X523461Y507518D01*
X555531Y507518D01*
X555629Y507531D01*
X555728Y507534D01*
X555786Y507550D01*
X555847Y507558D01*
X555939Y507594D01*
X556034Y507622D01*
X556086Y507653D01*
X556142Y507675D01*
X556222Y507733D01*
X556308Y507783D01*
X556383Y507850D01*
X556400Y507862D01*
X556407Y507871D01*
X556429Y507890D01*
X580272Y531733D01*
X580332Y531811D01*
X580400Y531883D01*
X580429Y531936D01*
X580466Y531984D01*
X580506Y532075D01*
X580554Y532162D01*
X580569Y532220D01*
X580593Y532276D01*
X580608Y532374D01*
X580633Y532470D01*
X580639Y532570D01*
X580643Y532590D01*
X580641Y532602D01*
X580643Y532630D01*
X580643Y543119D01*
X580640Y543148D01*
X580642Y543177D01*
X580620Y543305D01*
X580603Y543434D01*
X580593Y543462D01*
X580588Y543491D01*
X580534Y543609D01*
X580486Y543730D01*
X580469Y543754D01*
X580457Y543781D01*
X580376Y543882D01*
X580300Y543987D01*
X580277Y544006D01*
X580258Y544029D01*
X580155Y544107D01*
X580055Y544190D01*
X580028Y544203D01*
X580004Y544220D01*
X579860Y544291D01*
X578444Y544878D01*
X575586Y547736D01*
X574039Y551470D01*
X574039Y570753D01*
X575586Y574487D01*
X578444Y577345D01*
X582179Y578892D01*
X586221Y578892D01*
X589956Y577345D01*
X592814Y574487D01*
X594361Y570753D01*
X594361Y551470D01*
X592814Y547736D01*
X589956Y544878D01*
X588540Y544291D01*
X588515Y544277D01*
X588487Y544268D01*
X588377Y544198D01*
X588264Y544134D01*
X588243Y544113D01*
X588218Y544097D01*
X588129Y544003D01*
X588036Y543912D01*
X588020Y543887D01*
X588000Y543866D01*
X587937Y543752D01*
X587869Y543641D01*
X587861Y543613D01*
X587846Y543587D01*
X587814Y543462D01*
X587776Y543337D01*
X587774Y543308D01*
X587767Y543279D01*
X587757Y543119D01*
X587757Y532122D01*
X587774Y531984D01*
X587787Y531846D01*
X587794Y531827D01*
X587797Y531807D01*
X587848Y531678D01*
X587895Y531547D01*
X587906Y531530D01*
X587914Y531511D01*
X587995Y531399D01*
X588073Y531284D01*
X588089Y531270D01*
X588100Y531254D01*
X588208Y531165D01*
X588312Y531073D01*
X588330Y531064D01*
X588345Y531051D01*
X588471Y530992D01*
X588595Y530928D01*
X588615Y530924D01*
X588633Y530915D01*
X588769Y530889D01*
X588905Y530859D01*
X588926Y530859D01*
X588945Y530856D01*
X589084Y530864D01*
X589223Y530868D01*
X589243Y530874D01*
X589263Y530875D01*
X589395Y530918D01*
X589529Y530957D01*
X589546Y530967D01*
X589565Y530973D01*
X589683Y531048D01*
X589803Y531118D01*
X589824Y531137D01*
X589834Y531144D01*
X589848Y531158D01*
X589923Y531225D01*
X602813Y544114D01*
X602886Y544208D01*
X602965Y544297D01*
X602983Y544333D01*
X603008Y544365D01*
X603055Y544475D01*
X603109Y544581D01*
X603118Y544620D01*
X603134Y544657D01*
X603153Y544775D01*
X603179Y544891D01*
X603178Y544931D01*
X603184Y544971D01*
X603173Y545090D01*
X603169Y545209D01*
X603158Y545248D01*
X603154Y545288D01*
X603114Y545400D01*
X603081Y545514D01*
X603060Y545549D01*
X603047Y545587D01*
X602980Y545686D01*
X602919Y545788D01*
X602879Y545834D01*
X602868Y545850D01*
X602853Y545864D01*
X602813Y545909D01*
X600986Y547736D01*
X599439Y551470D01*
X599439Y570753D01*
X600986Y574487D01*
X603844Y577345D01*
X607579Y578892D01*
X611621Y578892D01*
X615356Y577345D01*
X618214Y574487D01*
X619761Y570753D01*
X619761Y551470D01*
X618214Y547736D01*
X615356Y544878D01*
X612653Y543758D01*
X612645Y543754D01*
X612636Y543751D01*
X612507Y543675D01*
X612377Y543601D01*
X612371Y543594D01*
X612363Y543590D01*
X612242Y543483D01*
X566538Y497780D01*
X564083Y495325D01*
X276657Y495325D01*
G37*
%LPD*%
%LPC*%
G36*
X276657Y99313D02*
X276657Y99313D01*
X256427Y119544D01*
X256348Y119604D01*
X256276Y119672D01*
X256223Y119701D01*
X256175Y119738D01*
X256084Y119778D01*
X255998Y119826D01*
X255939Y119841D01*
X255883Y119865D01*
X255785Y119880D01*
X255690Y119905D01*
X255590Y119911D01*
X255569Y119915D01*
X255557Y119913D01*
X255529Y119915D01*
X254113Y119915D01*
X251976Y120800D01*
X250340Y122436D01*
X249455Y124573D01*
X249455Y126887D01*
X250340Y129024D01*
X251976Y130660D01*
X254113Y131545D01*
X256427Y131545D01*
X258564Y130660D01*
X259595Y129628D01*
X259634Y129598D01*
X259668Y129561D01*
X259760Y129500D01*
X259846Y129433D01*
X259892Y129413D01*
X259934Y129386D01*
X260038Y129350D01*
X260138Y129307D01*
X260188Y129299D01*
X260234Y129283D01*
X260344Y129274D01*
X260452Y129257D01*
X260502Y129262D01*
X260551Y129258D01*
X260659Y129276D01*
X260769Y129287D01*
X260816Y129304D01*
X260865Y129312D01*
X260965Y129357D01*
X261068Y129394D01*
X261109Y129422D01*
X261155Y129443D01*
X261241Y129511D01*
X261331Y129573D01*
X261364Y129610D01*
X261403Y129641D01*
X261469Y129729D01*
X261542Y129811D01*
X261565Y129856D01*
X261594Y129895D01*
X261665Y130040D01*
X261771Y130294D01*
X263406Y131930D01*
X265409Y132759D01*
X265513Y132818D01*
X265620Y132870D01*
X265650Y132897D01*
X265685Y132917D01*
X265771Y133000D01*
X265862Y133077D01*
X265885Y133110D01*
X265914Y133138D01*
X265976Y133239D01*
X266045Y133337D01*
X266059Y133375D01*
X266080Y133409D01*
X266115Y133523D01*
X266157Y133634D01*
X266162Y133674D01*
X266174Y133713D01*
X266179Y133832D01*
X266193Y133950D01*
X266187Y133990D01*
X266189Y134031D01*
X266165Y134147D01*
X266148Y134265D01*
X266129Y134322D01*
X266125Y134342D01*
X266116Y134360D01*
X266096Y134418D01*
X265965Y134733D01*
X265965Y137047D01*
X266850Y139184D01*
X268486Y140820D01*
X270623Y141705D01*
X272937Y141705D01*
X273381Y141521D01*
X273515Y141484D01*
X273648Y141443D01*
X273668Y141442D01*
X273688Y141437D01*
X273827Y141435D01*
X273966Y141428D01*
X273985Y141432D01*
X274006Y141432D01*
X274141Y141464D01*
X274277Y141492D01*
X274295Y141501D01*
X274315Y141506D01*
X274438Y141571D01*
X274563Y141632D01*
X274578Y141645D01*
X274596Y141655D01*
X274699Y141748D01*
X274805Y141838D01*
X274816Y141855D01*
X274831Y141868D01*
X274908Y141985D01*
X274988Y142098D01*
X274995Y142117D01*
X275006Y142134D01*
X275052Y142266D01*
X275101Y142396D01*
X275103Y142416D01*
X275109Y142435D01*
X275120Y142574D01*
X275136Y142712D01*
X275133Y142732D01*
X275135Y142752D01*
X275111Y142888D01*
X275091Y143027D01*
X275082Y143053D01*
X275080Y143065D01*
X275072Y143084D01*
X275039Y143179D01*
X274855Y143623D01*
X274855Y145937D01*
X275740Y148074D01*
X277376Y149710D01*
X279513Y150595D01*
X281827Y150595D01*
X283964Y149710D01*
X285600Y148074D01*
X286485Y145937D01*
X286485Y144521D01*
X286497Y144423D01*
X286500Y144324D01*
X286517Y144266D01*
X286525Y144205D01*
X286561Y144113D01*
X286589Y144018D01*
X286619Y143966D01*
X286642Y143910D01*
X286700Y143830D01*
X286750Y143744D01*
X286767Y143725D01*
X286767Y130269D01*
X286779Y130171D01*
X286782Y130072D01*
X286799Y130014D01*
X286807Y129953D01*
X286843Y129861D01*
X286871Y129766D01*
X286901Y129714D01*
X286924Y129658D01*
X286982Y129578D01*
X287032Y129492D01*
X287098Y129417D01*
X287110Y129400D01*
X287120Y129393D01*
X287138Y129371D01*
X294471Y122038D01*
X294550Y121978D01*
X294622Y121910D01*
X294675Y121881D01*
X294723Y121844D01*
X294814Y121804D01*
X294900Y121756D01*
X294959Y121741D01*
X295015Y121717D01*
X295113Y121702D01*
X295208Y121677D01*
X295308Y121671D01*
X295329Y121667D01*
X295341Y121669D01*
X295369Y121667D01*
X402881Y121667D01*
X403012Y121683D01*
X403144Y121694D01*
X403169Y121703D01*
X403196Y121707D01*
X403319Y121755D01*
X403444Y121799D01*
X403467Y121814D01*
X403492Y121824D01*
X403599Y121901D01*
X403709Y121975D01*
X403727Y121995D01*
X403749Y122010D01*
X403834Y122113D01*
X403922Y122211D01*
X403935Y122235D01*
X403952Y122255D01*
X404008Y122375D01*
X404070Y122493D01*
X404076Y122519D01*
X404087Y122543D01*
X404112Y122673D01*
X404143Y122802D01*
X404142Y122829D01*
X404147Y122855D01*
X404139Y122988D01*
X404136Y123120D01*
X404129Y123146D01*
X404127Y123173D01*
X404087Y123299D01*
X404051Y123427D01*
X404041Y123447D01*
X403859Y124126D01*
X403859Y129541D01*
X411480Y129541D01*
X411598Y129556D01*
X411717Y129563D01*
X411755Y129576D01*
X411795Y129581D01*
X411906Y129624D01*
X412019Y129661D01*
X412054Y129683D01*
X412091Y129698D01*
X412187Y129768D01*
X412288Y129831D01*
X412316Y129861D01*
X412348Y129885D01*
X412424Y129976D01*
X412506Y130063D01*
X412525Y130098D01*
X412551Y130129D01*
X412602Y130237D01*
X412659Y130341D01*
X412670Y130381D01*
X412687Y130417D01*
X412709Y130534D01*
X412739Y130649D01*
X412743Y130710D01*
X412747Y130730D01*
X412745Y130750D01*
X412749Y130810D01*
X412749Y132081D01*
X412751Y132081D01*
X412751Y130810D01*
X412766Y130692D01*
X412773Y130573D01*
X412786Y130535D01*
X412791Y130495D01*
X412835Y130384D01*
X412871Y130271D01*
X412893Y130236D01*
X412908Y130199D01*
X412978Y130103D01*
X413041Y130002D01*
X413071Y129974D01*
X413095Y129941D01*
X413186Y129866D01*
X413273Y129784D01*
X413308Y129764D01*
X413340Y129739D01*
X413447Y129688D01*
X413551Y129630D01*
X413591Y129620D01*
X413627Y129603D01*
X413744Y129581D01*
X413859Y129551D01*
X413920Y129547D01*
X413940Y129543D01*
X413960Y129545D01*
X414020Y129541D01*
X421641Y129541D01*
X421641Y124126D01*
X421447Y123401D01*
X421413Y123329D01*
X421408Y123302D01*
X421397Y123278D01*
X421378Y123146D01*
X421353Y123016D01*
X421354Y122990D01*
X421351Y122963D01*
X421364Y122831D01*
X421373Y122699D01*
X421381Y122674D01*
X421384Y122647D01*
X421430Y122522D01*
X421471Y122397D01*
X421485Y122374D01*
X421494Y122349D01*
X421570Y122240D01*
X421641Y122128D01*
X421660Y122109D01*
X421676Y122087D01*
X421776Y122001D01*
X421872Y121910D01*
X421896Y121897D01*
X421916Y121879D01*
X422035Y121820D01*
X422151Y121756D01*
X422177Y121750D01*
X422201Y121738D01*
X422331Y121710D01*
X422459Y121677D01*
X422497Y121675D01*
X422512Y121671D01*
X422534Y121672D01*
X422619Y121667D01*
X427990Y121667D01*
X428108Y121682D01*
X428227Y121689D01*
X428265Y121702D01*
X428306Y121707D01*
X428416Y121750D01*
X428529Y121787D01*
X428564Y121809D01*
X428601Y121824D01*
X428697Y121893D01*
X428798Y121957D01*
X428826Y121987D01*
X428859Y122010D01*
X428935Y122102D01*
X429016Y122189D01*
X429036Y122224D01*
X429061Y122255D01*
X429112Y122363D01*
X429170Y122467D01*
X429180Y122507D01*
X429197Y122543D01*
X429219Y122660D01*
X429249Y122775D01*
X429253Y122835D01*
X429257Y122855D01*
X429255Y122876D01*
X429259Y122936D01*
X429259Y140752D01*
X430748Y142241D01*
X440600Y142241D01*
X440698Y142253D01*
X440797Y142256D01*
X440855Y142273D01*
X440915Y142281D01*
X441007Y142317D01*
X441102Y142345D01*
X441155Y142375D01*
X441211Y142398D01*
X441291Y142456D01*
X441376Y142506D01*
X441452Y142572D01*
X441468Y142584D01*
X441476Y142594D01*
X441497Y142612D01*
X448700Y149815D01*
X448773Y149910D01*
X448852Y149999D01*
X448870Y150035D01*
X448895Y150067D01*
X448942Y150176D01*
X448997Y150282D01*
X449005Y150321D01*
X449021Y150359D01*
X449040Y150476D01*
X449066Y150592D01*
X449065Y150633D01*
X449071Y150673D01*
X449060Y150792D01*
X449056Y150910D01*
X449045Y150949D01*
X449041Y150989D01*
X449001Y151102D01*
X448968Y151216D01*
X448948Y151250D01*
X448934Y151289D01*
X448867Y151387D01*
X448807Y151490D01*
X448767Y151535D01*
X448755Y151552D01*
X448740Y151565D01*
X448700Y151610D01*
X448586Y151724D01*
X447039Y155459D01*
X447039Y174741D01*
X448586Y178476D01*
X451444Y181334D01*
X455179Y182881D01*
X459221Y182881D01*
X462956Y181334D01*
X465814Y178476D01*
X467361Y174741D01*
X467361Y155459D01*
X465845Y151799D01*
X465837Y151770D01*
X465823Y151744D01*
X465795Y151617D01*
X465761Y151492D01*
X465760Y151462D01*
X465754Y151434D01*
X465758Y151304D01*
X465756Y151174D01*
X465763Y151145D01*
X465763Y151116D01*
X465799Y150991D01*
X465830Y150865D01*
X465844Y150839D01*
X465852Y150810D01*
X465918Y150699D01*
X465979Y150584D01*
X465998Y150562D01*
X466013Y150536D01*
X466120Y150415D01*
X472528Y144007D01*
X472606Y143947D01*
X472678Y143879D01*
X472731Y143850D01*
X472779Y143813D01*
X472870Y143773D01*
X472957Y143725D01*
X473015Y143710D01*
X473071Y143686D01*
X473169Y143671D01*
X473265Y143646D01*
X473365Y143640D01*
X473385Y143636D01*
X473397Y143638D01*
X473425Y143636D01*
X477432Y143636D01*
X478921Y142147D01*
X478921Y122936D01*
X478936Y122818D01*
X478943Y122699D01*
X478956Y122661D01*
X478961Y122620D01*
X479004Y122510D01*
X479041Y122397D01*
X479063Y122362D01*
X479078Y122325D01*
X479147Y122229D01*
X479211Y122128D01*
X479241Y122100D01*
X479264Y122067D01*
X479356Y121991D01*
X479443Y121910D01*
X479478Y121890D01*
X479509Y121865D01*
X479617Y121814D01*
X479721Y121756D01*
X479761Y121746D01*
X479797Y121729D01*
X479914Y121707D01*
X480029Y121677D01*
X480089Y121673D01*
X480109Y121669D01*
X480130Y121671D01*
X480190Y121667D01*
X485010Y121667D01*
X485128Y121682D01*
X485247Y121689D01*
X485285Y121702D01*
X485326Y121707D01*
X485436Y121750D01*
X485549Y121787D01*
X485584Y121809D01*
X485621Y121824D01*
X485717Y121893D01*
X485818Y121957D01*
X485846Y121987D01*
X485879Y122010D01*
X485955Y122102D01*
X486036Y122189D01*
X486056Y122224D01*
X486081Y122255D01*
X486132Y122363D01*
X486190Y122467D01*
X486200Y122507D01*
X486217Y122543D01*
X486239Y122660D01*
X486269Y122775D01*
X486273Y122835D01*
X486277Y122855D01*
X486275Y122876D01*
X486279Y122936D01*
X486279Y142176D01*
X486305Y142205D01*
X486324Y142241D01*
X486348Y142273D01*
X486396Y142382D01*
X486450Y142488D01*
X486459Y142528D01*
X486475Y142565D01*
X486493Y142682D01*
X486519Y142798D01*
X486518Y142839D01*
X486525Y142879D01*
X486513Y142997D01*
X486510Y143116D01*
X486499Y143155D01*
X486495Y143195D01*
X486454Y143307D01*
X486421Y143422D01*
X486401Y143457D01*
X486387Y143495D01*
X486320Y143593D01*
X486260Y143696D01*
X486220Y143741D01*
X486209Y143758D01*
X486193Y143771D01*
X486153Y143817D01*
X483023Y146948D01*
X482944Y147008D01*
X482872Y147076D01*
X482819Y147105D01*
X482771Y147142D01*
X482680Y147182D01*
X482594Y147230D01*
X482535Y147245D01*
X482479Y147269D01*
X482381Y147284D01*
X482286Y147309D01*
X482186Y147315D01*
X482165Y147319D01*
X482153Y147317D01*
X482125Y147319D01*
X480579Y147319D01*
X476844Y148866D01*
X473986Y151724D01*
X472439Y155459D01*
X472439Y174741D01*
X473986Y178476D01*
X476844Y181334D01*
X480579Y182881D01*
X484621Y182881D01*
X488356Y181334D01*
X491214Y178476D01*
X492761Y174741D01*
X492761Y155459D01*
X491214Y151724D01*
X490657Y151168D01*
X490584Y151074D01*
X490505Y150984D01*
X490487Y150948D01*
X490462Y150917D01*
X490415Y150807D01*
X490361Y150701D01*
X490352Y150662D01*
X490336Y150625D01*
X490317Y150507D01*
X490291Y150391D01*
X490292Y150351D01*
X490286Y150311D01*
X490297Y150192D01*
X490301Y150073D01*
X490312Y150034D01*
X490316Y149994D01*
X490356Y149882D01*
X490389Y149768D01*
X490410Y149733D01*
X490423Y149695D01*
X490490Y149596D01*
X490551Y149494D01*
X490591Y149448D01*
X490602Y149432D01*
X490617Y149418D01*
X490657Y149373D01*
X496022Y144007D01*
X496101Y143947D01*
X496173Y143879D01*
X496226Y143850D01*
X496274Y143813D01*
X496365Y143773D01*
X496451Y143725D01*
X496510Y143710D01*
X496566Y143686D01*
X496664Y143671D01*
X496759Y143646D01*
X496859Y143640D01*
X496880Y143636D01*
X496892Y143638D01*
X496920Y143636D01*
X505872Y143636D01*
X507361Y142147D01*
X507361Y122936D01*
X507376Y122818D01*
X507383Y122699D01*
X507396Y122661D01*
X507401Y122620D01*
X507444Y122510D01*
X507481Y122397D01*
X507503Y122362D01*
X507518Y122325D01*
X507587Y122229D01*
X507651Y122128D01*
X507681Y122100D01*
X507704Y122067D01*
X507796Y121991D01*
X507883Y121910D01*
X507918Y121890D01*
X507949Y121865D01*
X508057Y121814D01*
X508161Y121756D01*
X508201Y121746D01*
X508237Y121729D01*
X508354Y121707D01*
X508469Y121677D01*
X508529Y121673D01*
X508549Y121669D01*
X508570Y121671D01*
X508630Y121667D01*
X509811Y121667D01*
X509909Y121679D01*
X510008Y121682D01*
X510066Y121699D01*
X510127Y121707D01*
X510219Y121743D01*
X510314Y121771D01*
X510366Y121801D01*
X510422Y121824D01*
X510502Y121882D01*
X510588Y121932D01*
X510663Y121998D01*
X510680Y122010D01*
X510687Y122020D01*
X510709Y122038D01*
X529472Y140801D01*
X529532Y140880D01*
X529600Y140952D01*
X529629Y141005D01*
X529666Y141053D01*
X529706Y141144D01*
X529754Y141230D01*
X529769Y141289D01*
X529793Y141345D01*
X529808Y141443D01*
X529833Y141538D01*
X529839Y141638D01*
X529843Y141659D01*
X529841Y141671D01*
X529843Y141699D01*
X529843Y147107D01*
X529840Y147137D01*
X529842Y147166D01*
X529820Y147294D01*
X529803Y147423D01*
X529793Y147450D01*
X529788Y147479D01*
X529734Y147598D01*
X529686Y147718D01*
X529669Y147742D01*
X529657Y147769D01*
X529576Y147871D01*
X529500Y147976D01*
X529477Y147995D01*
X529458Y148018D01*
X529355Y148096D01*
X529255Y148179D01*
X529228Y148191D01*
X529204Y148209D01*
X529060Y148280D01*
X527644Y148866D01*
X524786Y151724D01*
X523239Y155459D01*
X523239Y174741D01*
X524786Y178476D01*
X527644Y181334D01*
X531379Y182881D01*
X535421Y182881D01*
X539156Y181334D01*
X542014Y178476D01*
X543561Y174741D01*
X543561Y155459D01*
X542014Y151724D01*
X539156Y148866D01*
X537740Y148280D01*
X537715Y148265D01*
X537687Y148256D01*
X537577Y148187D01*
X537464Y148122D01*
X537443Y148102D01*
X537418Y148086D01*
X537329Y147991D01*
X537236Y147901D01*
X537220Y147876D01*
X537200Y147854D01*
X537137Y147741D01*
X537069Y147630D01*
X537061Y147602D01*
X537046Y147576D01*
X537014Y147450D01*
X536976Y147326D01*
X536974Y147297D01*
X536967Y147268D01*
X536957Y147107D01*
X536957Y141191D01*
X536974Y141053D01*
X536987Y140915D01*
X536994Y140895D01*
X536997Y140875D01*
X537048Y140746D01*
X537095Y140615D01*
X537106Y140598D01*
X537114Y140580D01*
X537195Y140468D01*
X537273Y140352D01*
X537289Y140339D01*
X537300Y140322D01*
X537408Y140234D01*
X537512Y140142D01*
X537530Y140132D01*
X537545Y140120D01*
X537671Y140060D01*
X537795Y139997D01*
X537815Y139993D01*
X537833Y139984D01*
X537969Y139958D01*
X538105Y139927D01*
X538126Y139928D01*
X538145Y139924D01*
X538284Y139933D01*
X538423Y139937D01*
X538443Y139943D01*
X538463Y139944D01*
X538595Y139987D01*
X538729Y140025D01*
X538746Y140036D01*
X538765Y140042D01*
X538883Y140117D01*
X539003Y140187D01*
X539024Y140206D01*
X539034Y140212D01*
X539048Y140227D01*
X539123Y140293D01*
X549694Y150864D01*
X549712Y150888D01*
X549735Y150907D01*
X549810Y151013D01*
X549889Y151116D01*
X549901Y151143D01*
X549918Y151167D01*
X549964Y151288D01*
X550016Y151407D01*
X550020Y151437D01*
X550031Y151464D01*
X550045Y151593D01*
X550065Y151722D01*
X550063Y151751D01*
X550066Y151780D01*
X550048Y151909D01*
X550036Y152038D01*
X550026Y152066D01*
X550022Y152095D01*
X549969Y152248D01*
X548639Y155459D01*
X548639Y174741D01*
X550186Y178476D01*
X553044Y181334D01*
X556779Y182881D01*
X560821Y182881D01*
X564556Y181334D01*
X567414Y178476D01*
X568961Y174741D01*
X568961Y155459D01*
X567414Y151724D01*
X564556Y148866D01*
X560821Y147319D01*
X556735Y147319D01*
X556637Y147307D01*
X556538Y147304D01*
X556480Y147287D01*
X556419Y147279D01*
X556327Y147243D01*
X556232Y147215D01*
X556180Y147185D01*
X556124Y147162D01*
X556044Y147104D01*
X555958Y147054D01*
X555883Y146988D01*
X555866Y146976D01*
X555859Y146966D01*
X555837Y146948D01*
X522563Y113673D01*
X522478Y113564D01*
X522390Y113457D01*
X522381Y113438D01*
X522368Y113422D01*
X522313Y113294D01*
X522254Y113169D01*
X522250Y113149D01*
X522242Y113130D01*
X522220Y112992D01*
X522194Y112856D01*
X522195Y112836D01*
X522192Y112816D01*
X522205Y112677D01*
X522214Y112539D01*
X522220Y112520D01*
X522222Y112500D01*
X522269Y112368D01*
X522312Y112237D01*
X522323Y112219D01*
X522330Y112200D01*
X522408Y112085D01*
X522482Y111968D01*
X522497Y111954D01*
X522508Y111937D01*
X522612Y111845D01*
X522714Y111750D01*
X522732Y111740D01*
X522747Y111727D01*
X522871Y111663D01*
X522992Y111596D01*
X523012Y111591D01*
X523030Y111582D01*
X523166Y111552D01*
X523300Y111517D01*
X523328Y111515D01*
X523340Y111512D01*
X523361Y111513D01*
X523461Y111507D01*
X555531Y111507D01*
X555629Y111519D01*
X555728Y111522D01*
X555786Y111539D01*
X555847Y111547D01*
X555939Y111583D01*
X556034Y111611D01*
X556086Y111641D01*
X556142Y111664D01*
X556222Y111722D01*
X556308Y111772D01*
X556383Y111838D01*
X556400Y111850D01*
X556407Y111860D01*
X556429Y111878D01*
X580272Y135721D01*
X580332Y135800D01*
X580400Y135872D01*
X580429Y135925D01*
X580466Y135973D01*
X580506Y136064D01*
X580554Y136150D01*
X580569Y136209D01*
X580593Y136265D01*
X580608Y136363D01*
X580633Y136458D01*
X580639Y136558D01*
X580643Y136579D01*
X580641Y136591D01*
X580643Y136619D01*
X580643Y147107D01*
X580640Y147137D01*
X580642Y147166D01*
X580620Y147294D01*
X580603Y147423D01*
X580593Y147450D01*
X580588Y147479D01*
X580534Y147598D01*
X580486Y147718D01*
X580469Y147742D01*
X580457Y147769D01*
X580376Y147871D01*
X580300Y147976D01*
X580277Y147995D01*
X580258Y148018D01*
X580155Y148096D01*
X580055Y148179D01*
X580028Y148191D01*
X580004Y148209D01*
X579860Y148280D01*
X578444Y148866D01*
X575586Y151724D01*
X574039Y155459D01*
X574039Y174741D01*
X575586Y178476D01*
X578444Y181334D01*
X582179Y182881D01*
X586221Y182881D01*
X589956Y181334D01*
X592814Y178476D01*
X594361Y174741D01*
X594361Y155459D01*
X592814Y151724D01*
X589956Y148866D01*
X588540Y148280D01*
X588515Y148265D01*
X588487Y148256D01*
X588377Y148187D01*
X588264Y148122D01*
X588243Y148102D01*
X588218Y148086D01*
X588129Y147991D01*
X588036Y147901D01*
X588020Y147876D01*
X588000Y147854D01*
X587937Y147741D01*
X587869Y147630D01*
X587861Y147602D01*
X587846Y147576D01*
X587814Y147450D01*
X587776Y147326D01*
X587774Y147297D01*
X587767Y147268D01*
X587757Y147107D01*
X587757Y136111D01*
X587774Y135973D01*
X587787Y135835D01*
X587794Y135815D01*
X587797Y135795D01*
X587848Y135666D01*
X587895Y135535D01*
X587906Y135518D01*
X587914Y135500D01*
X587995Y135387D01*
X588073Y135272D01*
X588089Y135259D01*
X588100Y135242D01*
X588208Y135154D01*
X588312Y135062D01*
X588330Y135052D01*
X588345Y135040D01*
X588471Y134980D01*
X588595Y134917D01*
X588615Y134913D01*
X588633Y134904D01*
X588769Y134878D01*
X588905Y134847D01*
X588926Y134848D01*
X588945Y134844D01*
X589084Y134853D01*
X589223Y134857D01*
X589243Y134863D01*
X589263Y134864D01*
X589395Y134907D01*
X589529Y134945D01*
X589546Y134956D01*
X589565Y134962D01*
X589683Y135036D01*
X589803Y135107D01*
X589824Y135126D01*
X589834Y135132D01*
X589848Y135147D01*
X589923Y135213D01*
X602813Y148103D01*
X602886Y148197D01*
X602965Y148286D01*
X602983Y148322D01*
X603008Y148354D01*
X603055Y148463D01*
X603109Y148569D01*
X603118Y148609D01*
X603134Y148646D01*
X603153Y148764D01*
X603179Y148880D01*
X603178Y148920D01*
X603184Y148960D01*
X603173Y149079D01*
X603169Y149197D01*
X603158Y149236D01*
X603154Y149277D01*
X603114Y149389D01*
X603081Y149503D01*
X603060Y149538D01*
X603047Y149576D01*
X602980Y149674D01*
X602919Y149777D01*
X602879Y149822D01*
X602868Y149839D01*
X602853Y149852D01*
X602813Y149898D01*
X600986Y151724D01*
X599439Y155459D01*
X599439Y174741D01*
X600986Y178476D01*
X603844Y181334D01*
X607579Y182881D01*
X611621Y182881D01*
X615356Y181334D01*
X618214Y178476D01*
X619761Y174741D01*
X619761Y155459D01*
X618214Y151724D01*
X615356Y148866D01*
X612653Y147747D01*
X612645Y147742D01*
X612636Y147740D01*
X612507Y147664D01*
X612377Y147589D01*
X612371Y147583D01*
X612363Y147578D01*
X612242Y147472D01*
X566538Y101769D01*
X566538Y101768D01*
X564083Y99313D01*
X276657Y99313D01*
G37*
%LPD*%
%LPC*%
G36*
X276657Y693318D02*
X276657Y693318D01*
X256427Y713548D01*
X256348Y713609D01*
X256276Y713676D01*
X256223Y713706D01*
X256175Y713743D01*
X256084Y713782D01*
X255998Y713830D01*
X255939Y713845D01*
X255883Y713869D01*
X255785Y713885D01*
X255690Y713909D01*
X255590Y713916D01*
X255569Y713919D01*
X255557Y713918D01*
X255529Y713920D01*
X254113Y713920D01*
X251976Y714805D01*
X250340Y716441D01*
X249455Y718578D01*
X249455Y720891D01*
X250340Y723028D01*
X251976Y724664D01*
X254113Y725549D01*
X256427Y725549D01*
X258564Y724664D01*
X259595Y723632D01*
X259634Y723602D01*
X259668Y723565D01*
X259760Y723505D01*
X259846Y723438D01*
X259892Y723418D01*
X259934Y723390D01*
X260038Y723355D01*
X260138Y723311D01*
X260188Y723303D01*
X260234Y723287D01*
X260344Y723279D01*
X260452Y723261D01*
X260502Y723266D01*
X260551Y723262D01*
X260659Y723281D01*
X260769Y723291D01*
X260816Y723308D01*
X260865Y723316D01*
X260965Y723362D01*
X261068Y723399D01*
X261109Y723427D01*
X261155Y723447D01*
X261241Y723516D01*
X261331Y723577D01*
X261364Y723615D01*
X261403Y723646D01*
X261469Y723734D01*
X261542Y723816D01*
X261565Y723860D01*
X261594Y723900D01*
X261665Y724044D01*
X261771Y724298D01*
X263406Y725934D01*
X265409Y726764D01*
X265513Y726823D01*
X265620Y726875D01*
X265650Y726901D01*
X265685Y726921D01*
X265771Y727004D01*
X265862Y727081D01*
X265885Y727114D01*
X265914Y727142D01*
X265976Y727244D01*
X266045Y727341D01*
X266059Y727379D01*
X266080Y727413D01*
X266115Y727527D01*
X266157Y727639D01*
X266162Y727679D01*
X266174Y727717D01*
X266179Y727836D01*
X266193Y727955D01*
X266187Y727995D01*
X266189Y728035D01*
X266165Y728152D01*
X266148Y728270D01*
X266129Y728327D01*
X266125Y728347D01*
X266116Y728365D01*
X266096Y728422D01*
X265965Y728738D01*
X265965Y731051D01*
X266850Y733188D01*
X268486Y734824D01*
X270623Y735709D01*
X272937Y735709D01*
X273381Y735525D01*
X273515Y735488D01*
X273648Y735447D01*
X273668Y735446D01*
X273688Y735441D01*
X273827Y735439D01*
X273966Y735432D01*
X273985Y735436D01*
X274006Y735436D01*
X274141Y735469D01*
X274277Y735497D01*
X274295Y735506D01*
X274315Y735510D01*
X274438Y735575D01*
X274563Y735636D01*
X274578Y735649D01*
X274596Y735659D01*
X274699Y735752D01*
X274805Y735843D01*
X274816Y735859D01*
X274831Y735873D01*
X274908Y735989D01*
X274988Y736103D01*
X274995Y736122D01*
X275006Y736139D01*
X275052Y736271D01*
X275101Y736400D01*
X275103Y736420D01*
X275109Y736439D01*
X275120Y736578D01*
X275136Y736716D01*
X275133Y736736D01*
X275135Y736756D01*
X275111Y736893D01*
X275091Y737031D01*
X275082Y737058D01*
X275080Y737070D01*
X275072Y737088D01*
X275039Y737183D01*
X274855Y737628D01*
X274855Y739941D01*
X275740Y742078D01*
X277376Y743714D01*
X279513Y744599D01*
X281827Y744599D01*
X283964Y743714D01*
X285600Y742078D01*
X286485Y739941D01*
X286485Y738525D01*
X286497Y738427D01*
X286500Y738328D01*
X286517Y738270D01*
X286525Y738210D01*
X286561Y738118D01*
X286589Y738023D01*
X286619Y737970D01*
X286642Y737914D01*
X286700Y737834D01*
X286750Y737749D01*
X286767Y737730D01*
X286767Y724273D01*
X286779Y724175D01*
X286782Y724076D01*
X286799Y724018D01*
X286807Y723958D01*
X286843Y723866D01*
X286871Y723771D01*
X286901Y723718D01*
X286924Y723662D01*
X286982Y723582D01*
X287032Y723497D01*
X287098Y723421D01*
X287110Y723405D01*
X287120Y723397D01*
X287138Y723376D01*
X294471Y716043D01*
X294550Y715982D01*
X294622Y715914D01*
X294675Y715885D01*
X294723Y715848D01*
X294814Y715809D01*
X294900Y715761D01*
X294959Y715746D01*
X295015Y715722D01*
X295113Y715706D01*
X295208Y715681D01*
X295308Y715675D01*
X295329Y715672D01*
X295341Y715673D01*
X295369Y715671D01*
X402881Y715671D01*
X403012Y715688D01*
X403144Y715699D01*
X403169Y715708D01*
X403196Y715711D01*
X403319Y715760D01*
X403444Y715803D01*
X403467Y715818D01*
X403492Y715828D01*
X403599Y715906D01*
X403709Y715979D01*
X403727Y715999D01*
X403749Y716015D01*
X403834Y716117D01*
X403922Y716215D01*
X403935Y716239D01*
X403952Y716260D01*
X404008Y716380D01*
X404070Y716497D01*
X404076Y716523D01*
X404087Y716548D01*
X404112Y716677D01*
X404143Y716807D01*
X404142Y716834D01*
X404147Y716860D01*
X404139Y716992D01*
X404136Y717125D01*
X404129Y717150D01*
X404127Y717177D01*
X404087Y717303D01*
X404051Y717431D01*
X404041Y717451D01*
X403859Y718130D01*
X403859Y723545D01*
X411480Y723545D01*
X411598Y723560D01*
X411717Y723568D01*
X411755Y723580D01*
X411795Y723585D01*
X411906Y723629D01*
X412019Y723666D01*
X412054Y723687D01*
X412091Y723702D01*
X412187Y723772D01*
X412288Y723836D01*
X412316Y723865D01*
X412348Y723889D01*
X412424Y723981D01*
X412506Y724067D01*
X412525Y724103D01*
X412551Y724134D01*
X412602Y724242D01*
X412659Y724346D01*
X412670Y724385D01*
X412687Y724422D01*
X412709Y724538D01*
X412739Y724654D01*
X412743Y724714D01*
X412747Y724734D01*
X412745Y724754D01*
X412749Y724814D01*
X412749Y726085D01*
X412751Y726085D01*
X412751Y724814D01*
X412766Y724696D01*
X412773Y724578D01*
X412786Y724539D01*
X412791Y724499D01*
X412835Y724388D01*
X412871Y724275D01*
X412893Y724241D01*
X412908Y724203D01*
X412978Y724107D01*
X413041Y724006D01*
X413071Y723979D01*
X413095Y723946D01*
X413186Y723870D01*
X413273Y723788D01*
X413308Y723769D01*
X413340Y723743D01*
X413447Y723692D01*
X413551Y723635D01*
X413591Y723625D01*
X413627Y723608D01*
X413744Y723585D01*
X413859Y723555D01*
X413920Y723552D01*
X413940Y723548D01*
X413960Y723549D01*
X414020Y723545D01*
X421641Y723545D01*
X421641Y718130D01*
X421447Y717405D01*
X421413Y717333D01*
X421408Y717307D01*
X421397Y717282D01*
X421378Y717151D01*
X421353Y717021D01*
X421354Y716994D01*
X421351Y716967D01*
X421364Y716835D01*
X421373Y716703D01*
X421381Y716678D01*
X421384Y716651D01*
X421430Y716527D01*
X421471Y716401D01*
X421485Y716378D01*
X421494Y716353D01*
X421570Y716244D01*
X421641Y716132D01*
X421660Y716114D01*
X421676Y716092D01*
X421776Y716005D01*
X421872Y715914D01*
X421896Y715901D01*
X421916Y715884D01*
X422035Y715825D01*
X422151Y715761D01*
X422177Y715754D01*
X422201Y715742D01*
X422331Y715714D01*
X422459Y715681D01*
X422497Y715679D01*
X422512Y715676D01*
X422534Y715677D01*
X422619Y715671D01*
X427990Y715671D01*
X428108Y715686D01*
X428227Y715693D01*
X428265Y715706D01*
X428306Y715711D01*
X428416Y715755D01*
X428529Y715791D01*
X428564Y715813D01*
X428601Y715828D01*
X428697Y715898D01*
X428798Y715962D01*
X428826Y715991D01*
X428859Y716015D01*
X428935Y716107D01*
X429016Y716193D01*
X429036Y716229D01*
X429061Y716260D01*
X429112Y716367D01*
X429170Y716472D01*
X429180Y716511D01*
X429197Y716548D01*
X429219Y716664D01*
X429249Y716780D01*
X429253Y716840D01*
X429257Y716860D01*
X429255Y716880D01*
X429259Y716940D01*
X429259Y734757D01*
X430748Y736245D01*
X440600Y736245D01*
X440698Y736258D01*
X440797Y736261D01*
X440855Y736277D01*
X440915Y736285D01*
X441007Y736321D01*
X441102Y736349D01*
X441155Y736380D01*
X441211Y736402D01*
X441291Y736460D01*
X441376Y736510D01*
X441452Y736577D01*
X441468Y736589D01*
X441476Y736598D01*
X441497Y736617D01*
X448700Y743820D01*
X448773Y743914D01*
X448852Y744003D01*
X448870Y744039D01*
X448895Y744071D01*
X448942Y744180D01*
X448997Y744286D01*
X449005Y744326D01*
X449021Y744363D01*
X449040Y744481D01*
X449066Y744597D01*
X449065Y744637D01*
X449071Y744677D01*
X449060Y744796D01*
X449056Y744915D01*
X449045Y744953D01*
X449041Y744994D01*
X449001Y745106D01*
X448968Y745220D01*
X448948Y745255D01*
X448934Y745293D01*
X448867Y745392D01*
X448807Y745494D01*
X448767Y745539D01*
X448755Y745556D01*
X448740Y745570D01*
X448700Y745615D01*
X448586Y745729D01*
X447039Y749463D01*
X447039Y768746D01*
X448586Y772480D01*
X451444Y775338D01*
X455179Y776885D01*
X459221Y776885D01*
X462956Y775338D01*
X465814Y772480D01*
X467361Y768746D01*
X467361Y749463D01*
X465845Y745803D01*
X465837Y745775D01*
X465823Y745748D01*
X465795Y745621D01*
X465761Y745496D01*
X465760Y745467D01*
X465754Y745438D01*
X465758Y745308D01*
X465756Y745178D01*
X465763Y745150D01*
X465763Y745120D01*
X465799Y744996D01*
X465830Y744869D01*
X465844Y744843D01*
X465852Y744815D01*
X465918Y744703D01*
X465979Y744588D01*
X465998Y744566D01*
X466013Y744541D01*
X466120Y744420D01*
X472528Y738012D01*
X472606Y737951D01*
X472678Y737883D01*
X472731Y737854D01*
X472779Y737817D01*
X472870Y737778D01*
X472957Y737730D01*
X473015Y737715D01*
X473071Y737691D01*
X473169Y737675D01*
X473265Y737650D01*
X473365Y737644D01*
X473385Y737641D01*
X473397Y737642D01*
X473425Y737640D01*
X477432Y737640D01*
X478921Y736152D01*
X478921Y716940D01*
X478936Y716822D01*
X478943Y716703D01*
X478956Y716665D01*
X478961Y716625D01*
X479004Y716514D01*
X479041Y716401D01*
X479063Y716367D01*
X479078Y716329D01*
X479147Y716233D01*
X479211Y716132D01*
X479241Y716105D01*
X479264Y716072D01*
X479356Y715996D01*
X479443Y715914D01*
X479478Y715895D01*
X479509Y715869D01*
X479617Y715818D01*
X479721Y715761D01*
X479761Y715751D01*
X479797Y715733D01*
X479914Y715711D01*
X480029Y715681D01*
X480089Y715678D01*
X480109Y715674D01*
X480130Y715675D01*
X480190Y715671D01*
X485010Y715671D01*
X485128Y715686D01*
X485247Y715693D01*
X485285Y715706D01*
X485326Y715711D01*
X485436Y715755D01*
X485549Y715791D01*
X485584Y715813D01*
X485621Y715828D01*
X485717Y715898D01*
X485818Y715962D01*
X485846Y715991D01*
X485879Y716015D01*
X485955Y716107D01*
X486036Y716193D01*
X486056Y716229D01*
X486081Y716260D01*
X486132Y716367D01*
X486190Y716472D01*
X486200Y716511D01*
X486217Y716548D01*
X486239Y716664D01*
X486269Y716780D01*
X486273Y716840D01*
X486277Y716860D01*
X486275Y716880D01*
X486279Y716940D01*
X486279Y736180D01*
X486305Y736209D01*
X486324Y736245D01*
X486348Y736277D01*
X486396Y736386D01*
X486450Y736493D01*
X486459Y736532D01*
X486475Y736569D01*
X486493Y736687D01*
X486519Y736803D01*
X486518Y736843D01*
X486525Y736883D01*
X486513Y737001D01*
X486510Y737121D01*
X486499Y737160D01*
X486495Y737200D01*
X486454Y737312D01*
X486421Y737426D01*
X486401Y737461D01*
X486387Y737499D01*
X486320Y737598D01*
X486260Y737700D01*
X486220Y737745D01*
X486209Y737762D01*
X486193Y737776D01*
X486153Y737821D01*
X483023Y740952D01*
X482944Y741013D01*
X482872Y741080D01*
X482819Y741110D01*
X482771Y741147D01*
X482680Y741186D01*
X482594Y741234D01*
X482535Y741249D01*
X482479Y741273D01*
X482381Y741289D01*
X482286Y741313D01*
X482186Y741320D01*
X482165Y741323D01*
X482153Y741322D01*
X482125Y741324D01*
X480579Y741324D01*
X476844Y742871D01*
X473986Y745729D01*
X472439Y749463D01*
X472439Y768746D01*
X473986Y772480D01*
X476844Y775338D01*
X480579Y776885D01*
X484621Y776885D01*
X488356Y775338D01*
X491214Y772480D01*
X492761Y768746D01*
X492761Y749463D01*
X491214Y745729D01*
X490657Y745172D01*
X490584Y745078D01*
X490505Y744989D01*
X490487Y744953D01*
X490462Y744921D01*
X490415Y744812D01*
X490361Y744706D01*
X490352Y744666D01*
X490336Y744629D01*
X490317Y744511D01*
X490291Y744395D01*
X490292Y744355D01*
X490286Y744315D01*
X490297Y744196D01*
X490301Y744077D01*
X490312Y744039D01*
X490316Y743998D01*
X490356Y743886D01*
X490389Y743772D01*
X490410Y743737D01*
X490423Y743699D01*
X490490Y743601D01*
X490551Y743498D01*
X490591Y743453D01*
X490602Y743436D01*
X490617Y743422D01*
X490657Y743377D01*
X496022Y738012D01*
X496101Y737951D01*
X496173Y737883D01*
X496226Y737854D01*
X496274Y737817D01*
X496365Y737778D01*
X496451Y737730D01*
X496510Y737715D01*
X496566Y737691D01*
X496664Y737675D01*
X496759Y737650D01*
X496859Y737644D01*
X496880Y737641D01*
X496892Y737642D01*
X496920Y737640D01*
X505872Y737640D01*
X507361Y736152D01*
X507361Y716940D01*
X507376Y716822D01*
X507383Y716703D01*
X507396Y716665D01*
X507401Y716625D01*
X507444Y716514D01*
X507481Y716401D01*
X507503Y716367D01*
X507518Y716329D01*
X507587Y716233D01*
X507651Y716132D01*
X507681Y716105D01*
X507704Y716072D01*
X507796Y715996D01*
X507883Y715914D01*
X507918Y715895D01*
X507949Y715869D01*
X508057Y715818D01*
X508161Y715761D01*
X508201Y715751D01*
X508237Y715733D01*
X508354Y715711D01*
X508469Y715681D01*
X508529Y715678D01*
X508549Y715674D01*
X508570Y715675D01*
X508630Y715671D01*
X509811Y715671D01*
X509909Y715684D01*
X510008Y715687D01*
X510066Y715703D01*
X510127Y715711D01*
X510219Y715747D01*
X510314Y715775D01*
X510366Y715806D01*
X510422Y715828D01*
X510502Y715886D01*
X510588Y715936D01*
X510663Y716003D01*
X510680Y716015D01*
X510687Y716024D01*
X510709Y716043D01*
X529472Y734806D01*
X529532Y734884D01*
X529600Y734956D01*
X529629Y735009D01*
X529666Y735057D01*
X529706Y735148D01*
X529754Y735235D01*
X529769Y735293D01*
X529793Y735349D01*
X529808Y735447D01*
X529833Y735543D01*
X529839Y735643D01*
X529843Y735663D01*
X529841Y735675D01*
X529843Y735703D01*
X529843Y741112D01*
X529840Y741141D01*
X529842Y741170D01*
X529820Y741298D01*
X529803Y741427D01*
X529793Y741455D01*
X529788Y741484D01*
X529734Y741602D01*
X529686Y741723D01*
X529669Y741747D01*
X529657Y741774D01*
X529576Y741875D01*
X529500Y741980D01*
X529477Y741999D01*
X529458Y742022D01*
X529355Y742100D01*
X529255Y742183D01*
X529228Y742196D01*
X529204Y742213D01*
X529060Y742284D01*
X527644Y742871D01*
X524786Y745729D01*
X523239Y749463D01*
X523239Y768746D01*
X524786Y772480D01*
X527644Y775338D01*
X531379Y776885D01*
X535421Y776885D01*
X539156Y775338D01*
X542014Y772480D01*
X543561Y768746D01*
X543561Y749463D01*
X542014Y745729D01*
X539156Y742871D01*
X537740Y742284D01*
X537715Y742270D01*
X537687Y742261D01*
X537577Y742191D01*
X537464Y742127D01*
X537443Y742106D01*
X537418Y742090D01*
X537329Y741996D01*
X537236Y741905D01*
X537220Y741880D01*
X537200Y741859D01*
X537137Y741745D01*
X537069Y741634D01*
X537061Y741606D01*
X537046Y741580D01*
X537014Y741455D01*
X536976Y741330D01*
X536974Y741301D01*
X536967Y741272D01*
X536957Y741112D01*
X536957Y735195D01*
X536974Y735057D01*
X536987Y734919D01*
X536994Y734900D01*
X536997Y734880D01*
X537048Y734751D01*
X537095Y734620D01*
X537106Y734603D01*
X537114Y734584D01*
X537195Y734472D01*
X537273Y734357D01*
X537289Y734343D01*
X537300Y734327D01*
X537408Y734238D01*
X537512Y734146D01*
X537530Y734137D01*
X537545Y734124D01*
X537671Y734065D01*
X537795Y734001D01*
X537815Y733997D01*
X537833Y733988D01*
X537969Y733962D01*
X538105Y733932D01*
X538126Y733932D01*
X538145Y733929D01*
X538284Y733937D01*
X538423Y733941D01*
X538443Y733947D01*
X538463Y733948D01*
X538595Y733991D01*
X538729Y734030D01*
X538746Y734040D01*
X538765Y734046D01*
X538883Y734121D01*
X539003Y734191D01*
X539024Y734210D01*
X539034Y734217D01*
X539048Y734231D01*
X539123Y734298D01*
X549694Y744869D01*
X549712Y744892D01*
X549735Y744911D01*
X549810Y745017D01*
X549889Y745120D01*
X549901Y745147D01*
X549918Y745171D01*
X549964Y745293D01*
X550016Y745412D01*
X550020Y745441D01*
X550031Y745469D01*
X550045Y745598D01*
X550065Y745726D01*
X550063Y745755D01*
X550066Y745785D01*
X550048Y745913D01*
X550036Y746043D01*
X550026Y746070D01*
X550022Y746100D01*
X549969Y746252D01*
X548639Y749463D01*
X548639Y768746D01*
X550186Y772480D01*
X553044Y775338D01*
X556779Y776885D01*
X560821Y776885D01*
X564556Y775338D01*
X567414Y772480D01*
X568961Y768746D01*
X568961Y749463D01*
X567414Y745729D01*
X564556Y742871D01*
X560821Y741324D01*
X556735Y741324D01*
X556637Y741311D01*
X556538Y741308D01*
X556480Y741291D01*
X556419Y741284D01*
X556327Y741247D01*
X556232Y741220D01*
X556180Y741189D01*
X556124Y741167D01*
X556044Y741109D01*
X555958Y741058D01*
X555883Y740992D01*
X555866Y740980D01*
X555859Y740971D01*
X555837Y740952D01*
X522563Y707678D01*
X522478Y707568D01*
X522390Y707461D01*
X522381Y707443D01*
X522368Y707427D01*
X522313Y707299D01*
X522254Y707173D01*
X522250Y707153D01*
X522242Y707135D01*
X522220Y706997D01*
X522194Y706861D01*
X522195Y706841D01*
X522192Y706821D01*
X522205Y706682D01*
X522214Y706543D01*
X522220Y706524D01*
X522222Y706504D01*
X522269Y706373D01*
X522312Y706241D01*
X522323Y706224D01*
X522330Y706205D01*
X522408Y706090D01*
X522482Y705972D01*
X522497Y705958D01*
X522508Y705942D01*
X522612Y705850D01*
X522714Y705754D01*
X522732Y705745D01*
X522747Y705731D01*
X522871Y705668D01*
X522992Y705601D01*
X523012Y705596D01*
X523030Y705587D01*
X523166Y705556D01*
X523300Y705521D01*
X523328Y705520D01*
X523340Y705517D01*
X523361Y705518D01*
X523461Y705511D01*
X555531Y705511D01*
X555629Y705524D01*
X555728Y705527D01*
X555786Y705543D01*
X555847Y705551D01*
X555939Y705587D01*
X556034Y705615D01*
X556086Y705646D01*
X556142Y705668D01*
X556222Y705726D01*
X556308Y705776D01*
X556383Y705843D01*
X556400Y705855D01*
X556407Y705864D01*
X556429Y705883D01*
X580272Y729726D01*
X580332Y729804D01*
X580400Y729876D01*
X580429Y729929D01*
X580466Y729977D01*
X580506Y730068D01*
X580554Y730155D01*
X580569Y730213D01*
X580593Y730269D01*
X580608Y730367D01*
X580633Y730463D01*
X580639Y730563D01*
X580643Y730583D01*
X580641Y730595D01*
X580643Y730623D01*
X580643Y741112D01*
X580640Y741141D01*
X580642Y741170D01*
X580620Y741298D01*
X580603Y741427D01*
X580593Y741455D01*
X580588Y741484D01*
X580534Y741602D01*
X580486Y741723D01*
X580469Y741747D01*
X580457Y741774D01*
X580376Y741875D01*
X580300Y741980D01*
X580277Y741999D01*
X580258Y742022D01*
X580155Y742100D01*
X580055Y742183D01*
X580028Y742196D01*
X580004Y742213D01*
X579860Y742284D01*
X578444Y742871D01*
X575586Y745729D01*
X574039Y749463D01*
X574039Y768746D01*
X575586Y772480D01*
X578444Y775338D01*
X582179Y776885D01*
X586221Y776885D01*
X589956Y775338D01*
X592814Y772480D01*
X594361Y768746D01*
X594361Y749463D01*
X592814Y745729D01*
X589956Y742871D01*
X588540Y742284D01*
X588515Y742270D01*
X588487Y742261D01*
X588377Y742191D01*
X588264Y742127D01*
X588243Y742106D01*
X588218Y742090D01*
X588129Y741996D01*
X588036Y741905D01*
X588020Y741880D01*
X588000Y741859D01*
X587937Y741745D01*
X587869Y741634D01*
X587861Y741606D01*
X587846Y741580D01*
X587814Y741455D01*
X587776Y741330D01*
X587774Y741301D01*
X587767Y741272D01*
X587757Y741112D01*
X587757Y730115D01*
X587774Y729977D01*
X587787Y729839D01*
X587794Y729820D01*
X587797Y729800D01*
X587848Y729671D01*
X587895Y729540D01*
X587906Y729523D01*
X587914Y729504D01*
X587995Y729392D01*
X588073Y729277D01*
X588089Y729263D01*
X588100Y729247D01*
X588208Y729158D01*
X588312Y729066D01*
X588330Y729057D01*
X588345Y729044D01*
X588471Y728985D01*
X588595Y728921D01*
X588615Y728917D01*
X588633Y728908D01*
X588769Y728882D01*
X588905Y728852D01*
X588926Y728852D01*
X588945Y728849D01*
X589084Y728857D01*
X589223Y728861D01*
X589243Y728867D01*
X589263Y728868D01*
X589395Y728911D01*
X589529Y728950D01*
X589546Y728960D01*
X589565Y728966D01*
X589683Y729041D01*
X589803Y729111D01*
X589824Y729130D01*
X589834Y729137D01*
X589848Y729151D01*
X589923Y729218D01*
X602813Y742107D01*
X602886Y742201D01*
X602965Y742290D01*
X602983Y742326D01*
X603008Y742358D01*
X603055Y742468D01*
X603109Y742574D01*
X603118Y742613D01*
X603134Y742650D01*
X603153Y742768D01*
X603179Y742884D01*
X603178Y742924D01*
X603184Y742964D01*
X603173Y743083D01*
X603169Y743202D01*
X603158Y743241D01*
X603154Y743281D01*
X603114Y743393D01*
X603081Y743507D01*
X603060Y743542D01*
X603047Y743580D01*
X602980Y743679D01*
X602919Y743781D01*
X602879Y743827D01*
X602868Y743843D01*
X602853Y743857D01*
X602813Y743902D01*
X600986Y745729D01*
X599439Y749463D01*
X599439Y768746D01*
X600986Y772480D01*
X603844Y775338D01*
X607579Y776885D01*
X611621Y776885D01*
X615356Y775338D01*
X618214Y772480D01*
X619761Y768746D01*
X619761Y749463D01*
X618214Y745729D01*
X615356Y742871D01*
X612653Y741751D01*
X612645Y741747D01*
X612636Y741744D01*
X612507Y741668D01*
X612377Y741594D01*
X612371Y741587D01*
X612363Y741583D01*
X612242Y741476D01*
X566538Y695773D01*
X564083Y693318D01*
X276657Y693318D01*
G37*
%LPD*%
%LPC*%
G36*
X455516Y605180D02*
X455516Y605180D01*
X455380Y605316D01*
X455302Y605377D01*
X455230Y605444D01*
X455177Y605474D01*
X455129Y605511D01*
X455038Y605550D01*
X454951Y605598D01*
X454893Y605613D01*
X454837Y605637D01*
X454739Y605653D01*
X454643Y605677D01*
X454543Y605684D01*
X454523Y605687D01*
X454511Y605686D01*
X454483Y605688D01*
X427787Y605688D01*
X387519Y645956D01*
X387440Y646017D01*
X387368Y646084D01*
X387315Y646114D01*
X387267Y646151D01*
X387176Y646190D01*
X387090Y646238D01*
X387031Y646253D01*
X386975Y646277D01*
X386877Y646293D01*
X386782Y646317D01*
X386682Y646324D01*
X386661Y646327D01*
X386649Y646326D01*
X386621Y646328D01*
X343012Y646328D01*
X342914Y646315D01*
X342815Y646312D01*
X342757Y646295D01*
X342697Y646288D01*
X342605Y646251D01*
X342510Y646224D01*
X342457Y646193D01*
X342401Y646171D01*
X342321Y646113D01*
X342236Y646062D01*
X342160Y645996D01*
X342144Y645984D01*
X342136Y645975D01*
X342115Y645956D01*
X341114Y644955D01*
X338977Y644070D01*
X336663Y644070D01*
X334526Y644955D01*
X332890Y646591D01*
X332005Y648728D01*
X332005Y651041D01*
X332890Y653178D01*
X334526Y654814D01*
X336663Y655699D01*
X338977Y655699D01*
X341114Y654814D01*
X342115Y653813D01*
X342193Y653752D01*
X342265Y653684D01*
X342318Y653655D01*
X342366Y653618D01*
X342457Y653579D01*
X342544Y653531D01*
X342602Y653516D01*
X342658Y653492D01*
X342756Y653476D01*
X342852Y653451D01*
X342952Y653445D01*
X342972Y653442D01*
X342984Y653443D01*
X343012Y653441D01*
X390093Y653441D01*
X419473Y624062D01*
X419582Y623977D01*
X419689Y623888D01*
X419708Y623879D01*
X419724Y623867D01*
X419852Y623811D01*
X419977Y623752D01*
X419997Y623749D01*
X420016Y623741D01*
X420154Y623719D01*
X420290Y623693D01*
X420310Y623694D01*
X420330Y623691D01*
X420469Y623704D01*
X420607Y623712D01*
X420626Y623719D01*
X420646Y623721D01*
X420778Y623768D01*
X420909Y623810D01*
X420927Y623821D01*
X420946Y623828D01*
X421061Y623906D01*
X421178Y623981D01*
X421192Y623995D01*
X421209Y624007D01*
X421301Y624111D01*
X421396Y624212D01*
X421406Y624230D01*
X421419Y624245D01*
X421483Y624369D01*
X421550Y624491D01*
X421555Y624510D01*
X421564Y624528D01*
X421594Y624664D01*
X421629Y624799D01*
X421631Y624827D01*
X421634Y624839D01*
X421633Y624859D01*
X421639Y624959D01*
X421639Y641746D01*
X423186Y645480D01*
X426044Y648338D01*
X429779Y649885D01*
X433821Y649885D01*
X437556Y648338D01*
X440414Y645480D01*
X441961Y641746D01*
X441961Y622463D01*
X440414Y618729D01*
X437556Y615871D01*
X436041Y615243D01*
X435980Y615208D01*
X435915Y615183D01*
X435842Y615130D01*
X435764Y615085D01*
X435714Y615037D01*
X435658Y614996D01*
X435600Y614927D01*
X435536Y614864D01*
X435500Y614805D01*
X435455Y614751D01*
X435417Y614670D01*
X435370Y614593D01*
X435349Y614526D01*
X435319Y614463D01*
X435303Y614375D01*
X435276Y614289D01*
X435273Y614219D01*
X435260Y614151D01*
X435265Y614061D01*
X435261Y613971D01*
X435275Y613903D01*
X435279Y613833D01*
X435307Y613748D01*
X435325Y613660D01*
X435356Y613597D01*
X435377Y613531D01*
X435425Y613455D01*
X435465Y613374D01*
X435510Y613321D01*
X435548Y613262D01*
X435613Y613201D01*
X435671Y613132D01*
X435728Y613092D01*
X435779Y613044D01*
X435858Y613001D01*
X435931Y612949D01*
X435997Y612924D01*
X436058Y612891D01*
X436145Y612868D01*
X436229Y612837D01*
X436298Y612829D01*
X436366Y612811D01*
X436526Y612801D01*
X451866Y612801D01*
X451984Y612816D01*
X452103Y612823D01*
X452141Y612836D01*
X452182Y612841D01*
X452292Y612885D01*
X452405Y612921D01*
X452440Y612943D01*
X452477Y612958D01*
X452573Y613028D01*
X452674Y613092D01*
X452702Y613121D01*
X452735Y613145D01*
X452811Y613237D01*
X452892Y613323D01*
X452912Y613359D01*
X452937Y613390D01*
X452988Y613497D01*
X453046Y613602D01*
X453056Y613641D01*
X453073Y613678D01*
X453095Y613794D01*
X453125Y613910D01*
X453129Y613970D01*
X453133Y613990D01*
X453131Y614010D01*
X453135Y614070D01*
X453135Y614322D01*
X453132Y614351D01*
X453134Y614381D01*
X453118Y614472D01*
X453113Y614554D01*
X453102Y614589D01*
X453095Y614638D01*
X453085Y614665D01*
X453080Y614694D01*
X453037Y614789D01*
X453015Y614856D01*
X452999Y614882D01*
X452978Y614933D01*
X452961Y614957D01*
X452949Y614984D01*
X452877Y615074D01*
X452845Y615125D01*
X452827Y615142D01*
X452792Y615191D01*
X452769Y615209D01*
X452750Y615233D01*
X452651Y615307D01*
X452613Y615343D01*
X452596Y615352D01*
X452547Y615393D01*
X452520Y615406D01*
X452496Y615424D01*
X452352Y615495D01*
X451444Y615871D01*
X448586Y618729D01*
X447039Y622463D01*
X447039Y641746D01*
X448586Y645480D01*
X451444Y648338D01*
X455179Y649885D01*
X459221Y649885D01*
X462956Y648338D01*
X465814Y645480D01*
X467361Y641746D01*
X467361Y622463D01*
X465814Y618729D01*
X462956Y615871D01*
X462048Y615495D01*
X462023Y615480D01*
X461995Y615471D01*
X461939Y615436D01*
X461923Y615429D01*
X461883Y615401D01*
X461772Y615337D01*
X461751Y615317D01*
X461726Y615301D01*
X461683Y615255D01*
X461665Y615242D01*
X461630Y615199D01*
X461544Y615116D01*
X461528Y615091D01*
X461508Y615069D01*
X461480Y615018D01*
X461463Y614997D01*
X461435Y614938D01*
X461377Y614845D01*
X461369Y614817D01*
X461354Y614791D01*
X461341Y614740D01*
X461327Y614710D01*
X461313Y614635D01*
X461284Y614541D01*
X461282Y614511D01*
X461275Y614483D01*
X461271Y614415D01*
X461267Y614397D01*
X461268Y614380D01*
X461265Y614322D01*
X461265Y607561D01*
X458884Y605180D01*
X455516Y605180D01*
G37*
%LPD*%
%LPC*%
G36*
X455516Y11175D02*
X455516Y11175D01*
X455380Y11312D01*
X455302Y11372D01*
X455230Y11440D01*
X455177Y11469D01*
X455129Y11506D01*
X455038Y11546D01*
X454951Y11594D01*
X454893Y11609D01*
X454837Y11633D01*
X454739Y11648D01*
X454643Y11673D01*
X454543Y11679D01*
X454523Y11683D01*
X454511Y11681D01*
X454483Y11683D01*
X427787Y11683D01*
X387519Y51952D01*
X387440Y52012D01*
X387368Y52080D01*
X387315Y52109D01*
X387267Y52146D01*
X387176Y52186D01*
X387090Y52234D01*
X387031Y52249D01*
X386975Y52273D01*
X386877Y52288D01*
X386782Y52313D01*
X386682Y52319D01*
X386661Y52323D01*
X386649Y52321D01*
X386621Y52323D01*
X343012Y52323D01*
X342914Y52311D01*
X342815Y52308D01*
X342757Y52291D01*
X342697Y52283D01*
X342605Y52247D01*
X342510Y52219D01*
X342457Y52189D01*
X342401Y52166D01*
X342321Y52108D01*
X342236Y52058D01*
X342160Y51992D01*
X342144Y51980D01*
X342136Y51970D01*
X342115Y51952D01*
X341114Y50950D01*
X338977Y50065D01*
X336663Y50065D01*
X334526Y50950D01*
X332890Y52586D01*
X332005Y54723D01*
X332005Y57037D01*
X332890Y59174D01*
X334526Y60810D01*
X336663Y61695D01*
X338977Y61695D01*
X341114Y60810D01*
X342115Y59808D01*
X342193Y59748D01*
X342265Y59680D01*
X342318Y59651D01*
X342366Y59614D01*
X342457Y59574D01*
X342544Y59526D01*
X342602Y59511D01*
X342658Y59487D01*
X342756Y59472D01*
X342852Y59447D01*
X342952Y59441D01*
X342972Y59437D01*
X342984Y59439D01*
X343012Y59437D01*
X390093Y59437D01*
X419473Y30057D01*
X419582Y29972D01*
X419689Y29884D01*
X419708Y29875D01*
X419724Y29862D01*
X419852Y29807D01*
X419977Y29748D01*
X419997Y29744D01*
X420016Y29736D01*
X420154Y29714D01*
X420290Y29688D01*
X420310Y29689D01*
X420330Y29686D01*
X420469Y29699D01*
X420607Y29708D01*
X420626Y29714D01*
X420646Y29716D01*
X420778Y29763D01*
X420909Y29806D01*
X420927Y29817D01*
X420946Y29824D01*
X421061Y29902D01*
X421178Y29976D01*
X421192Y29991D01*
X421209Y30002D01*
X421301Y30106D01*
X421396Y30208D01*
X421406Y30226D01*
X421419Y30241D01*
X421483Y30365D01*
X421550Y30486D01*
X421555Y30506D01*
X421564Y30524D01*
X421594Y30660D01*
X421629Y30794D01*
X421631Y30822D01*
X421634Y30834D01*
X421633Y30855D01*
X421639Y30955D01*
X421639Y47741D01*
X423186Y51476D01*
X426044Y54334D01*
X429779Y55881D01*
X433821Y55881D01*
X437556Y54334D01*
X440414Y51476D01*
X441961Y47741D01*
X441961Y28459D01*
X440414Y24724D01*
X437556Y21866D01*
X436041Y21239D01*
X435980Y21204D01*
X435915Y21178D01*
X435842Y21126D01*
X435764Y21081D01*
X435714Y21033D01*
X435658Y20992D01*
X435600Y20922D01*
X435536Y20860D01*
X435500Y20800D01*
X435455Y20747D01*
X435417Y20665D01*
X435370Y20589D01*
X435349Y20522D01*
X435319Y20459D01*
X435303Y20371D01*
X435276Y20285D01*
X435273Y20215D01*
X435260Y20146D01*
X435265Y20057D01*
X435261Y19967D01*
X435275Y19899D01*
X435279Y19829D01*
X435307Y19744D01*
X435325Y19656D01*
X435356Y19593D01*
X435377Y19527D01*
X435425Y19451D01*
X435465Y19370D01*
X435510Y19317D01*
X435548Y19258D01*
X435613Y19196D01*
X435671Y19128D01*
X435728Y19088D01*
X435779Y19040D01*
X435858Y18997D01*
X435931Y18945D01*
X435997Y18920D01*
X436058Y18886D01*
X436145Y18864D01*
X436229Y18832D01*
X436298Y18824D01*
X436366Y18807D01*
X436526Y18797D01*
X451866Y18797D01*
X451984Y18812D01*
X452103Y18819D01*
X452141Y18832D01*
X452182Y18837D01*
X452292Y18880D01*
X452405Y18917D01*
X452440Y18939D01*
X452477Y18954D01*
X452573Y19023D01*
X452674Y19087D01*
X452702Y19117D01*
X452735Y19140D01*
X452811Y19232D01*
X452892Y19319D01*
X452912Y19354D01*
X452937Y19385D01*
X452988Y19493D01*
X453046Y19597D01*
X453056Y19637D01*
X453073Y19673D01*
X453095Y19790D01*
X453125Y19905D01*
X453129Y19965D01*
X453133Y19985D01*
X453131Y20006D01*
X453135Y20066D01*
X453135Y20318D01*
X453132Y20347D01*
X453134Y20376D01*
X453118Y20468D01*
X453113Y20549D01*
X453102Y20585D01*
X453095Y20633D01*
X453085Y20661D01*
X453080Y20690D01*
X453037Y20785D01*
X453015Y20852D01*
X452999Y20878D01*
X452978Y20929D01*
X452961Y20953D01*
X452949Y20980D01*
X452877Y21069D01*
X452845Y21121D01*
X452827Y21137D01*
X452792Y21186D01*
X452769Y21205D01*
X452750Y21228D01*
X452651Y21303D01*
X452613Y21339D01*
X452596Y21348D01*
X452547Y21389D01*
X452520Y21402D01*
X452496Y21419D01*
X452352Y21490D01*
X451444Y21866D01*
X448586Y24724D01*
X447039Y28459D01*
X447039Y47741D01*
X448586Y51476D01*
X451444Y54334D01*
X455179Y55881D01*
X459221Y55881D01*
X462956Y54334D01*
X465814Y51476D01*
X467361Y47741D01*
X467361Y28459D01*
X465814Y24724D01*
X462956Y21866D01*
X462048Y21490D01*
X462023Y21476D01*
X461995Y21467D01*
X461939Y21431D01*
X461923Y21425D01*
X461883Y21396D01*
X461772Y21333D01*
X461751Y21312D01*
X461726Y21296D01*
X461683Y21251D01*
X461665Y21238D01*
X461630Y21195D01*
X461544Y21111D01*
X461528Y21086D01*
X461508Y21065D01*
X461480Y21014D01*
X461463Y20993D01*
X461435Y20934D01*
X461377Y20840D01*
X461369Y20812D01*
X461354Y20786D01*
X461341Y20736D01*
X461327Y20705D01*
X461313Y20631D01*
X461284Y20536D01*
X461282Y20507D01*
X461275Y20478D01*
X461271Y20410D01*
X461267Y20393D01*
X461268Y20375D01*
X461265Y20318D01*
X461265Y13556D01*
X458884Y11175D01*
X455516Y11175D01*
G37*
%LPD*%
%LPC*%
G36*
X455516Y407187D02*
X455516Y407187D01*
X455380Y407323D01*
X455302Y407384D01*
X455230Y407451D01*
X455177Y407481D01*
X455129Y407518D01*
X455038Y407557D01*
X454951Y407605D01*
X454893Y407620D01*
X454837Y407644D01*
X454739Y407660D01*
X454643Y407684D01*
X454543Y407691D01*
X454523Y407694D01*
X454511Y407693D01*
X454483Y407695D01*
X427787Y407695D01*
X387519Y447963D01*
X387440Y448024D01*
X387368Y448091D01*
X387315Y448121D01*
X387267Y448158D01*
X387176Y448197D01*
X387090Y448245D01*
X387031Y448260D01*
X386975Y448284D01*
X386877Y448300D01*
X386782Y448324D01*
X386682Y448331D01*
X386661Y448334D01*
X386649Y448333D01*
X386621Y448335D01*
X343012Y448335D01*
X342914Y448322D01*
X342815Y448319D01*
X342757Y448302D01*
X342697Y448295D01*
X342605Y448258D01*
X342510Y448231D01*
X342457Y448200D01*
X342401Y448178D01*
X342321Y448120D01*
X342236Y448069D01*
X342160Y448003D01*
X342144Y447991D01*
X342136Y447982D01*
X342115Y447963D01*
X341114Y446962D01*
X338977Y446077D01*
X336663Y446077D01*
X334526Y446962D01*
X332890Y448598D01*
X332005Y450735D01*
X332005Y453048D01*
X332890Y455185D01*
X334526Y456821D01*
X336663Y457706D01*
X338977Y457706D01*
X341114Y456821D01*
X342115Y455820D01*
X342193Y455759D01*
X342265Y455691D01*
X342318Y455662D01*
X342366Y455625D01*
X342457Y455586D01*
X342544Y455538D01*
X342602Y455523D01*
X342658Y455499D01*
X342756Y455483D01*
X342852Y455458D01*
X342952Y455452D01*
X342972Y455449D01*
X342984Y455450D01*
X343012Y455448D01*
X390093Y455448D01*
X419473Y426069D01*
X419582Y425984D01*
X419689Y425895D01*
X419708Y425886D01*
X419724Y425874D01*
X419852Y425818D01*
X419977Y425759D01*
X419997Y425756D01*
X420016Y425748D01*
X420154Y425726D01*
X420290Y425700D01*
X420310Y425701D01*
X420330Y425698D01*
X420469Y425711D01*
X420607Y425719D01*
X420626Y425726D01*
X420646Y425728D01*
X420778Y425775D01*
X420909Y425817D01*
X420927Y425828D01*
X420946Y425835D01*
X421061Y425913D01*
X421178Y425988D01*
X421192Y426002D01*
X421209Y426014D01*
X421301Y426118D01*
X421396Y426219D01*
X421406Y426237D01*
X421419Y426252D01*
X421483Y426376D01*
X421550Y426498D01*
X421555Y426517D01*
X421564Y426535D01*
X421594Y426671D01*
X421629Y426806D01*
X421631Y426834D01*
X421634Y426846D01*
X421633Y426866D01*
X421639Y426966D01*
X421639Y443753D01*
X423186Y447487D01*
X426044Y450345D01*
X429779Y451892D01*
X433821Y451892D01*
X437556Y450345D01*
X440414Y447487D01*
X441961Y443753D01*
X441961Y424470D01*
X440414Y420736D01*
X437556Y417878D01*
X436041Y417250D01*
X435980Y417215D01*
X435915Y417190D01*
X435842Y417137D01*
X435764Y417092D01*
X435714Y417044D01*
X435658Y417003D01*
X435600Y416934D01*
X435536Y416871D01*
X435499Y416812D01*
X435455Y416758D01*
X435417Y416677D01*
X435370Y416600D01*
X435349Y416533D01*
X435319Y416470D01*
X435303Y416382D01*
X435276Y416296D01*
X435273Y416226D01*
X435260Y416158D01*
X435265Y416068D01*
X435261Y415978D01*
X435275Y415910D01*
X435279Y415840D01*
X435307Y415755D01*
X435325Y415667D01*
X435356Y415604D01*
X435377Y415538D01*
X435425Y415462D01*
X435465Y415381D01*
X435510Y415328D01*
X435548Y415269D01*
X435613Y415208D01*
X435671Y415139D01*
X435728Y415099D01*
X435779Y415051D01*
X435858Y415008D01*
X435931Y414956D01*
X435997Y414931D01*
X436058Y414898D01*
X436145Y414875D01*
X436229Y414844D01*
X436298Y414836D01*
X436366Y414818D01*
X436526Y414808D01*
X451866Y414808D01*
X451984Y414823D01*
X452103Y414830D01*
X452141Y414843D01*
X452182Y414848D01*
X452292Y414892D01*
X452405Y414928D01*
X452440Y414950D01*
X452477Y414965D01*
X452573Y415035D01*
X452674Y415099D01*
X452702Y415128D01*
X452735Y415152D01*
X452811Y415244D01*
X452892Y415330D01*
X452912Y415366D01*
X452937Y415397D01*
X452988Y415504D01*
X453046Y415609D01*
X453056Y415648D01*
X453073Y415685D01*
X453095Y415801D01*
X453125Y415917D01*
X453129Y415977D01*
X453133Y415997D01*
X453131Y416017D01*
X453135Y416077D01*
X453135Y416329D01*
X453132Y416358D01*
X453134Y416388D01*
X453118Y416479D01*
X453113Y416561D01*
X453102Y416596D01*
X453095Y416645D01*
X453085Y416672D01*
X453080Y416701D01*
X453037Y416796D01*
X453015Y416863D01*
X452999Y416889D01*
X452978Y416940D01*
X452961Y416964D01*
X452949Y416991D01*
X452877Y417081D01*
X452845Y417132D01*
X452827Y417149D01*
X452792Y417198D01*
X452769Y417216D01*
X452750Y417240D01*
X452651Y417314D01*
X452613Y417350D01*
X452596Y417359D01*
X452547Y417400D01*
X452520Y417413D01*
X452496Y417431D01*
X452352Y417502D01*
X451444Y417878D01*
X448586Y420736D01*
X447039Y424470D01*
X447039Y443753D01*
X448586Y447487D01*
X451444Y450345D01*
X455179Y451892D01*
X459221Y451892D01*
X462956Y450345D01*
X465814Y447487D01*
X467361Y443753D01*
X467361Y424470D01*
X465814Y420736D01*
X462956Y417878D01*
X462048Y417502D01*
X462023Y417487D01*
X461995Y417478D01*
X461939Y417443D01*
X461923Y417436D01*
X461883Y417408D01*
X461772Y417344D01*
X461751Y417324D01*
X461726Y417308D01*
X461683Y417262D01*
X461665Y417249D01*
X461630Y417206D01*
X461544Y417123D01*
X461528Y417098D01*
X461508Y417076D01*
X461480Y417025D01*
X461463Y417004D01*
X461435Y416945D01*
X461377Y416852D01*
X461369Y416824D01*
X461354Y416798D01*
X461341Y416747D01*
X461327Y416717D01*
X461313Y416642D01*
X461284Y416548D01*
X461282Y416518D01*
X461275Y416490D01*
X461271Y416422D01*
X461267Y416404D01*
X461268Y416387D01*
X461265Y416329D01*
X461265Y409568D01*
X458884Y407187D01*
X455516Y407187D01*
G37*
%LPD*%
%LPC*%
G36*
X455516Y209168D02*
X455516Y209168D01*
X455380Y209305D01*
X455302Y209365D01*
X455230Y209433D01*
X455177Y209462D01*
X455129Y209499D01*
X455038Y209539D01*
X454951Y209587D01*
X454893Y209602D01*
X454837Y209626D01*
X454739Y209641D01*
X454643Y209666D01*
X454543Y209672D01*
X454523Y209676D01*
X454511Y209674D01*
X454483Y209676D01*
X427787Y209676D01*
X387519Y249945D01*
X387440Y250005D01*
X387368Y250073D01*
X387315Y250102D01*
X387267Y250139D01*
X387176Y250179D01*
X387090Y250227D01*
X387031Y250242D01*
X386975Y250266D01*
X386877Y250281D01*
X386782Y250306D01*
X386682Y250312D01*
X386661Y250316D01*
X386649Y250314D01*
X386621Y250316D01*
X343012Y250316D01*
X342914Y250304D01*
X342815Y250301D01*
X342757Y250284D01*
X342697Y250276D01*
X342605Y250240D01*
X342510Y250212D01*
X342457Y250182D01*
X342401Y250159D01*
X342321Y250101D01*
X342236Y250051D01*
X342160Y249985D01*
X342144Y249973D01*
X342136Y249963D01*
X342115Y249945D01*
X341114Y248943D01*
X338977Y248058D01*
X336663Y248058D01*
X334526Y248943D01*
X332890Y250579D01*
X332005Y252716D01*
X332005Y255030D01*
X332890Y257167D01*
X334526Y258803D01*
X336663Y259688D01*
X338977Y259688D01*
X341114Y258803D01*
X342115Y257801D01*
X342193Y257741D01*
X342265Y257673D01*
X342318Y257644D01*
X342366Y257607D01*
X342457Y257567D01*
X342544Y257519D01*
X342602Y257504D01*
X342658Y257480D01*
X342756Y257465D01*
X342852Y257440D01*
X342952Y257434D01*
X342972Y257430D01*
X342984Y257432D01*
X343012Y257430D01*
X390093Y257430D01*
X419473Y228050D01*
X419582Y227965D01*
X419689Y227877D01*
X419708Y227868D01*
X419724Y227855D01*
X419852Y227800D01*
X419977Y227741D01*
X419997Y227737D01*
X420016Y227729D01*
X420154Y227707D01*
X420290Y227681D01*
X420310Y227682D01*
X420330Y227679D01*
X420469Y227692D01*
X420607Y227701D01*
X420626Y227707D01*
X420646Y227709D01*
X420778Y227756D01*
X420909Y227799D01*
X420927Y227810D01*
X420946Y227817D01*
X421061Y227895D01*
X421178Y227969D01*
X421192Y227984D01*
X421209Y227995D01*
X421301Y228099D01*
X421396Y228201D01*
X421406Y228219D01*
X421419Y228234D01*
X421483Y228358D01*
X421550Y228479D01*
X421555Y228499D01*
X421564Y228517D01*
X421594Y228653D01*
X421629Y228787D01*
X421631Y228815D01*
X421634Y228827D01*
X421633Y228848D01*
X421639Y228948D01*
X421639Y245734D01*
X423186Y249469D01*
X426044Y252327D01*
X429779Y253874D01*
X433821Y253874D01*
X437556Y252327D01*
X440414Y249469D01*
X441961Y245734D01*
X441961Y226452D01*
X440414Y222717D01*
X437556Y219859D01*
X436041Y219232D01*
X435980Y219197D01*
X435915Y219171D01*
X435842Y219119D01*
X435764Y219074D01*
X435714Y219026D01*
X435658Y218985D01*
X435600Y218915D01*
X435536Y218853D01*
X435499Y218793D01*
X435455Y218740D01*
X435417Y218658D01*
X435370Y218582D01*
X435349Y218515D01*
X435319Y218452D01*
X435303Y218364D01*
X435276Y218278D01*
X435273Y218208D01*
X435260Y218139D01*
X435265Y218050D01*
X435261Y217960D01*
X435275Y217892D01*
X435279Y217822D01*
X435307Y217737D01*
X435325Y217649D01*
X435356Y217586D01*
X435377Y217520D01*
X435425Y217444D01*
X435465Y217363D01*
X435510Y217310D01*
X435548Y217251D01*
X435613Y217189D01*
X435671Y217121D01*
X435728Y217081D01*
X435779Y217033D01*
X435858Y216990D01*
X435931Y216938D01*
X435997Y216913D01*
X436058Y216879D01*
X436145Y216857D01*
X436229Y216825D01*
X436298Y216817D01*
X436366Y216800D01*
X436526Y216790D01*
X451866Y216790D01*
X451984Y216805D01*
X452103Y216812D01*
X452141Y216825D01*
X452182Y216830D01*
X452292Y216873D01*
X452405Y216910D01*
X452440Y216932D01*
X452477Y216947D01*
X452573Y217016D01*
X452674Y217080D01*
X452702Y217110D01*
X452735Y217133D01*
X452811Y217225D01*
X452892Y217312D01*
X452912Y217347D01*
X452937Y217378D01*
X452988Y217486D01*
X453046Y217590D01*
X453056Y217630D01*
X453073Y217666D01*
X453095Y217783D01*
X453125Y217898D01*
X453129Y217958D01*
X453133Y217978D01*
X453131Y217999D01*
X453135Y218059D01*
X453135Y218311D01*
X453132Y218340D01*
X453134Y218369D01*
X453118Y218461D01*
X453113Y218542D01*
X453102Y218578D01*
X453095Y218626D01*
X453085Y218654D01*
X453080Y218683D01*
X453037Y218778D01*
X453015Y218845D01*
X452999Y218871D01*
X452978Y218922D01*
X452961Y218946D01*
X452949Y218973D01*
X452877Y219062D01*
X452845Y219114D01*
X452827Y219130D01*
X452792Y219179D01*
X452769Y219198D01*
X452750Y219221D01*
X452651Y219296D01*
X452613Y219332D01*
X452596Y219341D01*
X452547Y219382D01*
X452520Y219395D01*
X452496Y219412D01*
X452352Y219483D01*
X451444Y219859D01*
X448586Y222717D01*
X447039Y226452D01*
X447039Y245734D01*
X448586Y249469D01*
X451444Y252327D01*
X455179Y253874D01*
X459221Y253874D01*
X462956Y252327D01*
X465814Y249469D01*
X467361Y245734D01*
X467361Y226452D01*
X465814Y222717D01*
X462956Y219859D01*
X462048Y219483D01*
X462023Y219469D01*
X461995Y219460D01*
X461939Y219424D01*
X461923Y219418D01*
X461883Y219389D01*
X461772Y219326D01*
X461751Y219305D01*
X461726Y219289D01*
X461683Y219244D01*
X461665Y219231D01*
X461630Y219188D01*
X461544Y219104D01*
X461528Y219079D01*
X461508Y219058D01*
X461480Y219007D01*
X461463Y218986D01*
X461435Y218927D01*
X461377Y218833D01*
X461369Y218805D01*
X461354Y218779D01*
X461341Y218729D01*
X461327Y218698D01*
X461313Y218624D01*
X461284Y218529D01*
X461282Y218500D01*
X461275Y218471D01*
X461271Y218403D01*
X461267Y218386D01*
X461268Y218368D01*
X461265Y218311D01*
X461265Y211549D01*
X458884Y209168D01*
X455516Y209168D01*
G37*
%LPD*%
%LPC*%
G36*
X455516Y803173D02*
X455516Y803173D01*
X455380Y803309D01*
X455302Y803370D01*
X455230Y803437D01*
X455177Y803467D01*
X455129Y803504D01*
X455038Y803543D01*
X454951Y803591D01*
X454893Y803606D01*
X454837Y803630D01*
X454739Y803646D01*
X454643Y803670D01*
X454543Y803677D01*
X454523Y803680D01*
X454511Y803679D01*
X454483Y803681D01*
X427787Y803681D01*
X387519Y843949D01*
X387440Y844010D01*
X387368Y844077D01*
X387315Y844107D01*
X387267Y844144D01*
X387176Y844183D01*
X387090Y844231D01*
X387031Y844246D01*
X386975Y844270D01*
X386877Y844286D01*
X386782Y844310D01*
X386682Y844317D01*
X386661Y844320D01*
X386649Y844319D01*
X386621Y844321D01*
X343012Y844321D01*
X342914Y844308D01*
X342815Y844305D01*
X342757Y844288D01*
X342697Y844281D01*
X342605Y844244D01*
X342510Y844217D01*
X342457Y844186D01*
X342401Y844164D01*
X342321Y844106D01*
X342236Y844055D01*
X342160Y843989D01*
X342144Y843977D01*
X342136Y843968D01*
X342115Y843949D01*
X341114Y842948D01*
X338977Y842063D01*
X336663Y842063D01*
X334526Y842948D01*
X332890Y844584D01*
X332005Y846721D01*
X332005Y849034D01*
X332890Y851171D01*
X334526Y852807D01*
X336663Y853692D01*
X338977Y853692D01*
X341114Y852807D01*
X342115Y851806D01*
X342193Y851745D01*
X342265Y851677D01*
X342318Y851648D01*
X342366Y851611D01*
X342457Y851572D01*
X342544Y851524D01*
X342602Y851509D01*
X342658Y851485D01*
X342756Y851469D01*
X342852Y851444D01*
X342952Y851438D01*
X342972Y851435D01*
X342984Y851436D01*
X343012Y851434D01*
X390093Y851434D01*
X419473Y822055D01*
X419582Y821970D01*
X419689Y821881D01*
X419708Y821872D01*
X419724Y821860D01*
X419852Y821804D01*
X419977Y821745D01*
X419997Y821742D01*
X420016Y821734D01*
X420154Y821712D01*
X420290Y821686D01*
X420310Y821687D01*
X420330Y821684D01*
X420469Y821697D01*
X420607Y821705D01*
X420626Y821712D01*
X420646Y821714D01*
X420778Y821761D01*
X420909Y821803D01*
X420927Y821814D01*
X420946Y821821D01*
X421061Y821899D01*
X421178Y821974D01*
X421192Y821988D01*
X421209Y822000D01*
X421301Y822104D01*
X421396Y822205D01*
X421406Y822223D01*
X421419Y822238D01*
X421483Y822362D01*
X421550Y822484D01*
X421555Y822503D01*
X421564Y822521D01*
X421594Y822657D01*
X421629Y822792D01*
X421631Y822820D01*
X421634Y822832D01*
X421633Y822852D01*
X421639Y822952D01*
X421639Y839739D01*
X423186Y843473D01*
X426044Y846331D01*
X429779Y847878D01*
X433821Y847878D01*
X437556Y846331D01*
X440414Y843473D01*
X441961Y839739D01*
X441961Y820456D01*
X440414Y816722D01*
X437556Y813864D01*
X436041Y813236D01*
X435980Y813201D01*
X435915Y813176D01*
X435842Y813123D01*
X435764Y813078D01*
X435714Y813030D01*
X435658Y812989D01*
X435600Y812920D01*
X435536Y812857D01*
X435499Y812798D01*
X435455Y812744D01*
X435417Y812663D01*
X435370Y812586D01*
X435349Y812519D01*
X435319Y812456D01*
X435303Y812368D01*
X435276Y812282D01*
X435273Y812212D01*
X435260Y812144D01*
X435265Y812054D01*
X435261Y811964D01*
X435275Y811896D01*
X435279Y811826D01*
X435307Y811741D01*
X435325Y811653D01*
X435356Y811590D01*
X435377Y811524D01*
X435425Y811448D01*
X435465Y811367D01*
X435510Y811314D01*
X435548Y811255D01*
X435613Y811194D01*
X435671Y811125D01*
X435728Y811085D01*
X435779Y811037D01*
X435858Y810994D01*
X435931Y810942D01*
X435997Y810917D01*
X436058Y810884D01*
X436145Y810861D01*
X436229Y810830D01*
X436298Y810822D01*
X436366Y810804D01*
X436526Y810794D01*
X451866Y810794D01*
X451984Y810809D01*
X452103Y810816D01*
X452141Y810829D01*
X452182Y810834D01*
X452292Y810878D01*
X452405Y810914D01*
X452440Y810936D01*
X452477Y810951D01*
X452573Y811021D01*
X452674Y811085D01*
X452702Y811114D01*
X452735Y811138D01*
X452811Y811230D01*
X452892Y811316D01*
X452912Y811352D01*
X452937Y811383D01*
X452988Y811490D01*
X453046Y811595D01*
X453056Y811634D01*
X453073Y811671D01*
X453095Y811787D01*
X453125Y811903D01*
X453129Y811963D01*
X453133Y811983D01*
X453131Y812003D01*
X453135Y812063D01*
X453135Y812315D01*
X453132Y812344D01*
X453134Y812374D01*
X453118Y812465D01*
X453113Y812547D01*
X453102Y812582D01*
X453095Y812631D01*
X453085Y812658D01*
X453080Y812687D01*
X453037Y812782D01*
X453015Y812849D01*
X452999Y812875D01*
X452978Y812926D01*
X452961Y812950D01*
X452949Y812977D01*
X452877Y813067D01*
X452845Y813118D01*
X452827Y813135D01*
X452792Y813184D01*
X452769Y813202D01*
X452750Y813226D01*
X452651Y813300D01*
X452613Y813336D01*
X452596Y813345D01*
X452547Y813386D01*
X452520Y813399D01*
X452496Y813417D01*
X452352Y813488D01*
X451444Y813864D01*
X448586Y816722D01*
X447039Y820456D01*
X447039Y839739D01*
X448586Y843473D01*
X451444Y846331D01*
X455179Y847878D01*
X459221Y847878D01*
X462956Y846331D01*
X465814Y843473D01*
X467361Y839739D01*
X467361Y820456D01*
X465814Y816722D01*
X462956Y813864D01*
X462048Y813488D01*
X462023Y813473D01*
X461995Y813464D01*
X461939Y813429D01*
X461923Y813422D01*
X461883Y813394D01*
X461772Y813330D01*
X461751Y813310D01*
X461726Y813294D01*
X461683Y813248D01*
X461665Y813235D01*
X461630Y813192D01*
X461544Y813109D01*
X461528Y813084D01*
X461508Y813062D01*
X461480Y813011D01*
X461463Y812990D01*
X461435Y812931D01*
X461377Y812838D01*
X461369Y812810D01*
X461354Y812784D01*
X461341Y812733D01*
X461327Y812703D01*
X461313Y812628D01*
X461284Y812534D01*
X461282Y812504D01*
X461275Y812476D01*
X461271Y812408D01*
X461267Y812390D01*
X461268Y812373D01*
X461265Y812315D01*
X461265Y805554D01*
X458884Y803173D01*
X455516Y803173D01*
G37*
%LPD*%
%LPC*%
G36*
X505979Y939317D02*
X505979Y939317D01*
X502244Y940864D01*
X499386Y943722D01*
X497839Y947456D01*
X497839Y966739D01*
X499386Y970473D01*
X502244Y973331D01*
X505979Y974878D01*
X510021Y974878D01*
X513756Y973331D01*
X516614Y970473D01*
X518161Y966739D01*
X518161Y947456D01*
X516614Y943722D01*
X513756Y940864D01*
X510021Y939317D01*
X505979Y939317D01*
G37*
%LPD*%
%LPC*%
G36*
X556779Y218312D02*
X556779Y218312D01*
X553044Y219859D01*
X550186Y222717D01*
X548639Y226452D01*
X548639Y245734D01*
X550186Y249469D01*
X553044Y252327D01*
X556779Y253874D01*
X560821Y253874D01*
X564556Y252327D01*
X567414Y249469D01*
X568961Y245734D01*
X568961Y226452D01*
X567414Y222717D01*
X564556Y219859D01*
X560821Y218312D01*
X556779Y218312D01*
G37*
%LPD*%
%LPC*%
G36*
X531379Y218312D02*
X531379Y218312D01*
X527644Y219859D01*
X524786Y222717D01*
X523239Y226452D01*
X523239Y245734D01*
X524786Y249469D01*
X527644Y252327D01*
X531379Y253874D01*
X535421Y253874D01*
X539156Y252327D01*
X542014Y249469D01*
X543561Y245734D01*
X543561Y226452D01*
X542014Y222717D01*
X539156Y219859D01*
X535421Y218312D01*
X531379Y218312D01*
G37*
%LPD*%
%LPC*%
G36*
X582179Y218312D02*
X582179Y218312D01*
X578444Y219859D01*
X575586Y222717D01*
X574039Y226452D01*
X574039Y245734D01*
X575586Y249469D01*
X578444Y252327D01*
X582179Y253874D01*
X586221Y253874D01*
X589956Y252327D01*
X592814Y249469D01*
X594361Y245734D01*
X594361Y226452D01*
X592814Y222717D01*
X589956Y219859D01*
X586221Y218312D01*
X582179Y218312D01*
G37*
%LPD*%
%LPC*%
G36*
X480579Y218312D02*
X480579Y218312D01*
X476844Y219859D01*
X473986Y222717D01*
X472439Y226452D01*
X472439Y245734D01*
X473986Y249469D01*
X476844Y252327D01*
X480579Y253874D01*
X484621Y253874D01*
X488356Y252327D01*
X491214Y249469D01*
X492761Y245734D01*
X492761Y226452D01*
X491214Y222717D01*
X488356Y219859D01*
X484621Y218312D01*
X480579Y218312D01*
G37*
%LPD*%
%LPC*%
G36*
X607579Y218312D02*
X607579Y218312D01*
X603844Y219859D01*
X600986Y222717D01*
X599439Y226452D01*
X599439Y245734D01*
X600986Y249469D01*
X603844Y252327D01*
X607579Y253874D01*
X611621Y253874D01*
X615356Y252327D01*
X618214Y249469D01*
X619761Y245734D01*
X619761Y226452D01*
X618214Y222717D01*
X615356Y219859D01*
X611621Y218312D01*
X607579Y218312D01*
G37*
%LPD*%
%LPC*%
G36*
X505979Y147319D02*
X505979Y147319D01*
X502244Y148866D01*
X499386Y151724D01*
X497839Y155459D01*
X497839Y174741D01*
X499386Y178476D01*
X502244Y181334D01*
X505979Y182881D01*
X510021Y182881D01*
X513756Y181334D01*
X516614Y178476D01*
X518161Y174741D01*
X518161Y155459D01*
X516614Y151724D01*
X513756Y148866D01*
X510021Y147319D01*
X505979Y147319D01*
G37*
%LPD*%
%LPC*%
G36*
X531379Y20319D02*
X531379Y20319D01*
X527644Y21866D01*
X524786Y24724D01*
X523239Y28459D01*
X523239Y47741D01*
X524786Y51476D01*
X527644Y54334D01*
X531379Y55881D01*
X535421Y55881D01*
X539156Y54334D01*
X542014Y51476D01*
X543561Y47741D01*
X543561Y28459D01*
X542014Y24724D01*
X539156Y21866D01*
X535421Y20319D01*
X531379Y20319D01*
G37*
%LPD*%
%LPC*%
G36*
X556779Y812317D02*
X556779Y812317D01*
X553044Y813864D01*
X550186Y816722D01*
X548639Y820456D01*
X548639Y839739D01*
X550186Y843473D01*
X553044Y846331D01*
X556779Y847878D01*
X560821Y847878D01*
X564556Y846331D01*
X567414Y843473D01*
X568961Y839739D01*
X568961Y820456D01*
X567414Y816722D01*
X564556Y813864D01*
X560821Y812317D01*
X556779Y812317D01*
G37*
%LPD*%
%LPC*%
G36*
X505979Y812317D02*
X505979Y812317D01*
X502244Y813864D01*
X499386Y816722D01*
X497839Y820456D01*
X497839Y839739D01*
X499386Y843473D01*
X502244Y846331D01*
X505979Y847878D01*
X510021Y847878D01*
X513756Y846331D01*
X516614Y843473D01*
X518161Y839739D01*
X518161Y820456D01*
X516614Y816722D01*
X513756Y813864D01*
X510021Y812317D01*
X505979Y812317D01*
G37*
%LPD*%
%LPC*%
G36*
X531379Y812317D02*
X531379Y812317D01*
X527644Y813864D01*
X524786Y816722D01*
X523239Y820456D01*
X523239Y839739D01*
X524786Y843473D01*
X527644Y846331D01*
X531379Y847878D01*
X535421Y847878D01*
X539156Y846331D01*
X542014Y843473D01*
X543561Y839739D01*
X543561Y820456D01*
X542014Y816722D01*
X539156Y813864D01*
X535421Y812317D01*
X531379Y812317D01*
G37*
%LPD*%
%LPC*%
G36*
X582179Y812317D02*
X582179Y812317D01*
X578444Y813864D01*
X575586Y816722D01*
X574039Y820456D01*
X574039Y839739D01*
X575586Y843473D01*
X578444Y846331D01*
X582179Y847878D01*
X586221Y847878D01*
X589956Y846331D01*
X592814Y843473D01*
X594361Y839739D01*
X594361Y820456D01*
X592814Y816722D01*
X589956Y813864D01*
X586221Y812317D01*
X582179Y812317D01*
G37*
%LPD*%
%LPC*%
G36*
X607579Y812317D02*
X607579Y812317D01*
X603844Y813864D01*
X600986Y816722D01*
X599439Y820456D01*
X599439Y839739D01*
X600986Y843473D01*
X603844Y846331D01*
X607579Y847878D01*
X611621Y847878D01*
X615356Y846331D01*
X618214Y843473D01*
X619761Y839739D01*
X619761Y820456D01*
X618214Y816722D01*
X615356Y813864D01*
X611621Y812317D01*
X607579Y812317D01*
G37*
%LPD*%
%LPC*%
G36*
X480579Y812317D02*
X480579Y812317D01*
X476844Y813864D01*
X473986Y816722D01*
X472439Y820456D01*
X472439Y839739D01*
X473986Y843473D01*
X476844Y846331D01*
X480579Y847878D01*
X484621Y847878D01*
X488356Y846331D01*
X491214Y843473D01*
X492761Y839739D01*
X492761Y820456D01*
X491214Y816722D01*
X488356Y813864D01*
X484621Y812317D01*
X480579Y812317D01*
G37*
%LPD*%
%LPC*%
G36*
X505979Y741324D02*
X505979Y741324D01*
X502244Y742871D01*
X499386Y745729D01*
X497839Y749463D01*
X497839Y768746D01*
X499386Y772480D01*
X502244Y775338D01*
X505979Y776885D01*
X510021Y776885D01*
X513756Y775338D01*
X516614Y772480D01*
X518161Y768746D01*
X518161Y749463D01*
X516614Y745729D01*
X513756Y742871D01*
X510021Y741324D01*
X505979Y741324D01*
G37*
%LPD*%
%LPC*%
G36*
X505979Y20319D02*
X505979Y20319D01*
X502244Y21866D01*
X499386Y24724D01*
X497839Y28459D01*
X497839Y47741D01*
X499386Y51476D01*
X502244Y54334D01*
X505979Y55881D01*
X510021Y55881D01*
X513756Y54334D01*
X516614Y51476D01*
X518161Y47741D01*
X518161Y28459D01*
X516614Y24724D01*
X513756Y21866D01*
X510021Y20319D01*
X505979Y20319D01*
G37*
%LPD*%
%LPC*%
G36*
X480579Y20319D02*
X480579Y20319D01*
X476844Y21866D01*
X473986Y24724D01*
X472439Y28459D01*
X472439Y47741D01*
X473986Y51476D01*
X476844Y54334D01*
X480579Y55881D01*
X484621Y55881D01*
X488356Y54334D01*
X491214Y51476D01*
X492761Y47741D01*
X492761Y28459D01*
X491214Y24724D01*
X488356Y21866D01*
X484621Y20319D01*
X480579Y20319D01*
G37*
%LPD*%
%LPC*%
G36*
X607579Y20319D02*
X607579Y20319D01*
X603844Y21866D01*
X600986Y24724D01*
X599439Y28459D01*
X599439Y47741D01*
X600986Y51476D01*
X603844Y54334D01*
X607579Y55881D01*
X611621Y55881D01*
X615356Y54334D01*
X618214Y51476D01*
X619761Y47741D01*
X619761Y28459D01*
X618214Y24724D01*
X615356Y21866D01*
X611621Y20319D01*
X607579Y20319D01*
G37*
%LPD*%
%LPC*%
G36*
X582179Y20319D02*
X582179Y20319D01*
X578444Y21866D01*
X575586Y24724D01*
X574039Y28459D01*
X574039Y47741D01*
X575586Y51476D01*
X578444Y54334D01*
X582179Y55881D01*
X586221Y55881D01*
X589956Y54334D01*
X592814Y51476D01*
X594361Y47741D01*
X594361Y28459D01*
X592814Y24724D01*
X589956Y21866D01*
X586221Y20319D01*
X582179Y20319D01*
G37*
%LPD*%
%LPC*%
G36*
X556779Y20319D02*
X556779Y20319D01*
X553044Y21866D01*
X550186Y24724D01*
X548639Y28459D01*
X548639Y47741D01*
X550186Y51476D01*
X553044Y54334D01*
X556779Y55881D01*
X560821Y55881D01*
X564556Y54334D01*
X567414Y51476D01*
X568961Y47741D01*
X568961Y28459D01*
X567414Y24724D01*
X564556Y21866D01*
X560821Y20319D01*
X556779Y20319D01*
G37*
%LPD*%
%LPC*%
G36*
X607579Y614324D02*
X607579Y614324D01*
X603844Y615871D01*
X600986Y618729D01*
X599439Y622463D01*
X599439Y641746D01*
X600986Y645480D01*
X603844Y648338D01*
X607579Y649885D01*
X611621Y649885D01*
X615356Y648338D01*
X618214Y645480D01*
X619761Y641746D01*
X619761Y622463D01*
X618214Y618729D01*
X615356Y615871D01*
X611621Y614324D01*
X607579Y614324D01*
G37*
%LPD*%
%LPC*%
G36*
X531379Y614324D02*
X531379Y614324D01*
X527644Y615871D01*
X524786Y618729D01*
X523239Y622463D01*
X523239Y641746D01*
X524786Y645480D01*
X527644Y648338D01*
X531379Y649885D01*
X535421Y649885D01*
X539156Y648338D01*
X542014Y645480D01*
X543561Y641746D01*
X543561Y622463D01*
X542014Y618729D01*
X539156Y615871D01*
X535421Y614324D01*
X531379Y614324D01*
G37*
%LPD*%
%LPC*%
G36*
X556779Y614324D02*
X556779Y614324D01*
X553044Y615871D01*
X550186Y618729D01*
X548639Y622463D01*
X548639Y641746D01*
X550186Y645480D01*
X553044Y648338D01*
X556779Y649885D01*
X560821Y649885D01*
X564556Y648338D01*
X567414Y645480D01*
X568961Y641746D01*
X568961Y622463D01*
X567414Y618729D01*
X564556Y615871D01*
X560821Y614324D01*
X556779Y614324D01*
G37*
%LPD*%
%LPC*%
G36*
X582179Y614324D02*
X582179Y614324D01*
X578444Y615871D01*
X575586Y618729D01*
X574039Y622463D01*
X574039Y641746D01*
X575586Y645480D01*
X578444Y648338D01*
X582179Y649885D01*
X586221Y649885D01*
X589956Y648338D01*
X592814Y645480D01*
X594361Y641746D01*
X594361Y622463D01*
X592814Y618729D01*
X589956Y615871D01*
X586221Y614324D01*
X582179Y614324D01*
G37*
%LPD*%
%LPC*%
G36*
X480579Y614324D02*
X480579Y614324D01*
X476844Y615871D01*
X473986Y618729D01*
X472439Y622463D01*
X472439Y641746D01*
X473986Y645480D01*
X476844Y648338D01*
X480579Y649885D01*
X484621Y649885D01*
X488356Y648338D01*
X491214Y645480D01*
X492761Y641746D01*
X492761Y622463D01*
X491214Y618729D01*
X488356Y615871D01*
X484621Y614324D01*
X480579Y614324D01*
G37*
%LPD*%
%LPC*%
G36*
X505979Y614324D02*
X505979Y614324D01*
X502244Y615871D01*
X499386Y618729D01*
X497839Y622463D01*
X497839Y641746D01*
X499386Y645480D01*
X502244Y648338D01*
X505979Y649885D01*
X510021Y649885D01*
X513756Y648338D01*
X516614Y645480D01*
X518161Y641746D01*
X518161Y622463D01*
X516614Y618729D01*
X513756Y615871D01*
X510021Y614324D01*
X505979Y614324D01*
G37*
%LPD*%
%LPC*%
G36*
X505979Y543331D02*
X505979Y543331D01*
X502244Y544878D01*
X499386Y547736D01*
X497839Y551470D01*
X497839Y570753D01*
X499386Y574487D01*
X502244Y577345D01*
X505979Y578892D01*
X510021Y578892D01*
X513756Y577345D01*
X516614Y574487D01*
X518161Y570753D01*
X518161Y551470D01*
X516614Y547736D01*
X513756Y544878D01*
X510021Y543331D01*
X505979Y543331D01*
G37*
%LPD*%
%LPC*%
G36*
X505979Y345312D02*
X505979Y345312D01*
X502244Y346859D01*
X499386Y349717D01*
X497839Y353452D01*
X497839Y372734D01*
X499386Y376469D01*
X502244Y379327D01*
X505979Y380874D01*
X510021Y380874D01*
X513756Y379327D01*
X516614Y376469D01*
X518161Y372734D01*
X518161Y353452D01*
X516614Y349717D01*
X513756Y346859D01*
X510021Y345312D01*
X505979Y345312D01*
G37*
%LPD*%
%LPC*%
G36*
X607579Y416331D02*
X607579Y416331D01*
X603844Y417878D01*
X600986Y420736D01*
X599439Y424470D01*
X599439Y443753D01*
X600986Y447487D01*
X603844Y450345D01*
X607579Y451892D01*
X611621Y451892D01*
X615356Y450345D01*
X618214Y447487D01*
X619761Y443753D01*
X619761Y424470D01*
X618214Y420736D01*
X615356Y417878D01*
X611621Y416331D01*
X607579Y416331D01*
G37*
%LPD*%
%LPC*%
G36*
X480579Y416331D02*
X480579Y416331D01*
X476844Y417878D01*
X473986Y420736D01*
X472439Y424470D01*
X472439Y443753D01*
X473986Y447487D01*
X476844Y450345D01*
X480579Y451892D01*
X484621Y451892D01*
X488356Y450345D01*
X491214Y447487D01*
X492761Y443753D01*
X492761Y424470D01*
X491214Y420736D01*
X488356Y417878D01*
X484621Y416331D01*
X480579Y416331D01*
G37*
%LPD*%
%LPC*%
G36*
X505979Y416331D02*
X505979Y416331D01*
X502244Y417878D01*
X499386Y420736D01*
X497839Y424470D01*
X497839Y443753D01*
X499386Y447487D01*
X502244Y450345D01*
X505979Y451892D01*
X510021Y451892D01*
X513756Y450345D01*
X516614Y447487D01*
X518161Y443753D01*
X518161Y424470D01*
X516614Y420736D01*
X513756Y417878D01*
X510021Y416331D01*
X505979Y416331D01*
G37*
%LPD*%
%LPC*%
G36*
X556779Y416331D02*
X556779Y416331D01*
X553044Y417878D01*
X550186Y420736D01*
X548639Y424470D01*
X548639Y443753D01*
X550186Y447487D01*
X553044Y450345D01*
X556779Y451892D01*
X560821Y451892D01*
X564556Y450345D01*
X567414Y447487D01*
X568961Y443753D01*
X568961Y424470D01*
X567414Y420736D01*
X564556Y417878D01*
X560821Y416331D01*
X556779Y416331D01*
G37*
%LPD*%
%LPC*%
G36*
X531379Y416331D02*
X531379Y416331D01*
X527644Y417878D01*
X524786Y420736D01*
X523239Y424470D01*
X523239Y443753D01*
X524786Y447487D01*
X527644Y450345D01*
X531379Y451892D01*
X535421Y451892D01*
X539156Y450345D01*
X542014Y447487D01*
X543561Y443753D01*
X543561Y424470D01*
X542014Y420736D01*
X539156Y417878D01*
X535421Y416331D01*
X531379Y416331D01*
G37*
%LPD*%
%LPC*%
G36*
X582179Y416331D02*
X582179Y416331D01*
X578444Y417878D01*
X575586Y420736D01*
X574039Y424470D01*
X574039Y443753D01*
X575586Y447487D01*
X578444Y450345D01*
X582179Y451892D01*
X586221Y451892D01*
X589956Y450345D01*
X592814Y447487D01*
X594361Y443753D01*
X594361Y424470D01*
X592814Y420736D01*
X589956Y417878D01*
X586221Y416331D01*
X582179Y416331D01*
G37*
%LPD*%
%LPC*%
G36*
X505979Y218312D02*
X505979Y218312D01*
X502244Y219859D01*
X499386Y222717D01*
X497839Y226452D01*
X497839Y245734D01*
X499386Y249469D01*
X502244Y252327D01*
X505979Y253874D01*
X510021Y253874D01*
X513756Y252327D01*
X516614Y249469D01*
X518161Y245734D01*
X518161Y226452D01*
X516614Y222717D01*
X513756Y219859D01*
X510021Y218312D01*
X505979Y218312D01*
G37*
%LPD*%
%LPC*%
G36*
X434339Y959637D02*
X434339Y959637D01*
X434339Y974576D01*
X435700Y974134D01*
X437125Y973408D01*
X438419Y972468D01*
X439550Y971337D01*
X440490Y970043D01*
X441216Y968618D01*
X441711Y967097D01*
X441961Y965517D01*
X441961Y959637D01*
X434339Y959637D01*
G37*
%LPD*%
%LPC*%
G36*
X434339Y167639D02*
X434339Y167639D01*
X434339Y182579D01*
X435700Y182136D01*
X437125Y181410D01*
X438419Y180470D01*
X439550Y179339D01*
X440490Y178045D01*
X441216Y176620D01*
X441711Y175099D01*
X441961Y173520D01*
X441961Y167639D01*
X434339Y167639D01*
G37*
%LPD*%
%LPC*%
G36*
X434339Y365632D02*
X434339Y365632D01*
X434339Y380572D01*
X435700Y380129D01*
X437125Y379403D01*
X438419Y378463D01*
X439550Y377332D01*
X440490Y376038D01*
X441216Y374613D01*
X441711Y373092D01*
X441961Y371513D01*
X441961Y365632D01*
X434339Y365632D01*
G37*
%LPD*%
%LPC*%
G36*
X434339Y761644D02*
X434339Y761644D01*
X434339Y776583D01*
X435700Y776141D01*
X437125Y775415D01*
X438419Y774475D01*
X439550Y773344D01*
X440490Y772050D01*
X441216Y770625D01*
X441711Y769104D01*
X441961Y767524D01*
X441961Y761644D01*
X434339Y761644D01*
G37*
%LPD*%
%LPC*%
G36*
X434339Y563651D02*
X434339Y563651D01*
X434339Y578590D01*
X435700Y578148D01*
X437125Y577422D01*
X438419Y576482D01*
X439550Y575351D01*
X440490Y574057D01*
X441216Y572632D01*
X441711Y571111D01*
X441961Y569531D01*
X441961Y563651D01*
X434339Y563651D01*
G37*
%LPD*%
%LPC*%
G36*
X434339Y756565D02*
X434339Y756565D01*
X441961Y756565D01*
X441961Y750685D01*
X441711Y749105D01*
X441216Y747584D01*
X440490Y746159D01*
X439550Y744865D01*
X438419Y743734D01*
X437125Y742794D01*
X435700Y742068D01*
X434339Y741626D01*
X434339Y756565D01*
G37*
%LPD*%
%LPC*%
G36*
X434339Y360554D02*
X434339Y360554D01*
X441961Y360554D01*
X441961Y354673D01*
X441711Y353094D01*
X441216Y351573D01*
X440490Y350148D01*
X439550Y348854D01*
X438419Y347723D01*
X437125Y346783D01*
X435700Y346057D01*
X434339Y345614D01*
X434339Y360554D01*
G37*
%LPD*%
%LPC*%
G36*
X434339Y954558D02*
X434339Y954558D01*
X441961Y954558D01*
X441961Y948678D01*
X441711Y947098D01*
X441216Y945577D01*
X440490Y944152D01*
X439550Y942858D01*
X438419Y941727D01*
X437125Y940787D01*
X435700Y940061D01*
X434339Y939619D01*
X434339Y954558D01*
G37*
%LPD*%
%LPC*%
G36*
X434339Y162561D02*
X434339Y162561D01*
X441961Y162561D01*
X441961Y156680D01*
X441711Y155101D01*
X441216Y153580D01*
X440490Y152155D01*
X439550Y150861D01*
X438419Y149730D01*
X437125Y148790D01*
X435700Y148064D01*
X434339Y147621D01*
X434339Y162561D01*
G37*
%LPD*%
%LPC*%
G36*
X434339Y558572D02*
X434339Y558572D01*
X441961Y558572D01*
X441961Y552692D01*
X441711Y551112D01*
X441216Y549591D01*
X440490Y548166D01*
X439550Y546872D01*
X438419Y545741D01*
X437125Y544801D01*
X435700Y544075D01*
X434339Y543633D01*
X434339Y558572D01*
G37*
%LPD*%
%LPC*%
G36*
X421639Y959637D02*
X421639Y959637D01*
X421639Y965517D01*
X421889Y967097D01*
X422384Y968618D01*
X423110Y970043D01*
X424050Y971337D01*
X425181Y972468D01*
X426475Y973408D01*
X427900Y974134D01*
X429261Y974576D01*
X429261Y959637D01*
X421639Y959637D01*
G37*
%LPD*%
%LPC*%
G36*
X421639Y761644D02*
X421639Y761644D01*
X421639Y767524D01*
X421889Y769104D01*
X422384Y770625D01*
X423110Y772050D01*
X424050Y773344D01*
X425181Y774475D01*
X426475Y775415D01*
X427900Y776141D01*
X429261Y776583D01*
X429261Y761644D01*
X421639Y761644D01*
G37*
%LPD*%
%LPC*%
G36*
X421639Y563651D02*
X421639Y563651D01*
X421639Y569531D01*
X421889Y571111D01*
X422384Y572632D01*
X423110Y574057D01*
X424050Y575351D01*
X425181Y576482D01*
X426475Y577422D01*
X427900Y578148D01*
X429261Y578590D01*
X429261Y563651D01*
X421639Y563651D01*
G37*
%LPD*%
%LPC*%
G36*
X421639Y365632D02*
X421639Y365632D01*
X421639Y371513D01*
X421889Y373092D01*
X422384Y374613D01*
X423110Y376038D01*
X424050Y377332D01*
X425181Y378463D01*
X426475Y379403D01*
X427900Y380129D01*
X429261Y380572D01*
X429261Y365632D01*
X421639Y365632D01*
G37*
%LPD*%
%LPC*%
G36*
X421639Y167639D02*
X421639Y167639D01*
X421639Y173520D01*
X421889Y175099D01*
X422384Y176620D01*
X423110Y178045D01*
X424050Y179339D01*
X425181Y180470D01*
X426475Y181410D01*
X427900Y182136D01*
X429261Y182579D01*
X429261Y167639D01*
X421639Y167639D01*
G37*
%LPD*%
%LPC*%
G36*
X427900Y940061D02*
X427900Y940061D01*
X426475Y940787D01*
X425181Y941727D01*
X424050Y942858D01*
X423110Y944152D01*
X422384Y945577D01*
X421889Y947098D01*
X421639Y948678D01*
X421639Y954558D01*
X429261Y954558D01*
X429261Y939619D01*
X427900Y940061D01*
G37*
%LPD*%
%LPC*%
G36*
X427900Y544075D02*
X427900Y544075D01*
X426475Y544801D01*
X425181Y545741D01*
X424050Y546872D01*
X423110Y548166D01*
X422384Y549591D01*
X421889Y551112D01*
X421639Y552692D01*
X421639Y558572D01*
X429261Y558572D01*
X429261Y543633D01*
X427900Y544075D01*
G37*
%LPD*%
%LPC*%
G36*
X427900Y742068D02*
X427900Y742068D01*
X426475Y742794D01*
X425181Y743734D01*
X424050Y744865D01*
X423110Y746159D01*
X422384Y747584D01*
X421889Y749105D01*
X421639Y750685D01*
X421639Y756565D01*
X429261Y756565D01*
X429261Y741626D01*
X427900Y742068D01*
G37*
%LPD*%
%LPC*%
G36*
X427900Y346057D02*
X427900Y346057D01*
X426475Y346783D01*
X425181Y347723D01*
X424050Y348854D01*
X423110Y350148D01*
X422384Y351573D01*
X421889Y353094D01*
X421639Y354673D01*
X421639Y360554D01*
X429261Y360554D01*
X429261Y345614D01*
X427900Y346057D01*
G37*
%LPD*%
%LPC*%
G36*
X427900Y148064D02*
X427900Y148064D01*
X426475Y148790D01*
X425181Y149730D01*
X424050Y150861D01*
X423110Y152155D01*
X422384Y153580D01*
X421889Y155101D01*
X421639Y156680D01*
X421639Y162561D01*
X429261Y162561D01*
X429261Y147621D01*
X427900Y148064D01*
G37*
%LPD*%
%LPC*%
G36*
X415289Y926617D02*
X415289Y926617D01*
X415289Y934238D01*
X419434Y934238D01*
X420081Y934065D01*
X420660Y933731D01*
X421133Y933257D01*
X421468Y932678D01*
X421641Y932032D01*
X421641Y926617D01*
X415289Y926617D01*
G37*
%LPD*%
%LPC*%
G36*
X415289Y530631D02*
X415289Y530631D01*
X415289Y538252D01*
X419434Y538252D01*
X420081Y538079D01*
X420660Y537745D01*
X421133Y537271D01*
X421468Y536692D01*
X421641Y536046D01*
X421641Y530631D01*
X415289Y530631D01*
G37*
%LPD*%
%LPC*%
G36*
X415289Y134619D02*
X415289Y134619D01*
X415289Y142241D01*
X419434Y142241D01*
X420081Y142068D01*
X420660Y141733D01*
X421133Y141260D01*
X421468Y140681D01*
X421641Y140034D01*
X421641Y134619D01*
X415289Y134619D01*
G37*
%LPD*%
%LPC*%
G36*
X415289Y728624D02*
X415289Y728624D01*
X415289Y736245D01*
X419434Y736245D01*
X420081Y736072D01*
X420660Y735738D01*
X421133Y735264D01*
X421468Y734685D01*
X421641Y734039D01*
X421641Y728624D01*
X415289Y728624D01*
G37*
%LPD*%
%LPC*%
G36*
X415289Y332612D02*
X415289Y332612D01*
X415289Y340234D01*
X419434Y340234D01*
X420081Y340061D01*
X420660Y339726D01*
X421133Y339253D01*
X421468Y338674D01*
X421641Y338027D01*
X421641Y332612D01*
X415289Y332612D01*
G37*
%LPD*%
%LPC*%
G36*
X403859Y926617D02*
X403859Y926617D01*
X403859Y932032D01*
X404032Y932678D01*
X404367Y933257D01*
X404840Y933731D01*
X405419Y934065D01*
X406066Y934238D01*
X410211Y934238D01*
X410211Y926617D01*
X403859Y926617D01*
G37*
%LPD*%
%LPC*%
G36*
X403859Y530631D02*
X403859Y530631D01*
X403859Y536046D01*
X404032Y536692D01*
X404367Y537271D01*
X404840Y537745D01*
X405419Y538079D01*
X406066Y538252D01*
X410211Y538252D01*
X410211Y530631D01*
X403859Y530631D01*
G37*
%LPD*%
%LPC*%
G36*
X403859Y134619D02*
X403859Y134619D01*
X403859Y140034D01*
X404032Y140681D01*
X404367Y141260D01*
X404840Y141733D01*
X405419Y142068D01*
X406066Y142241D01*
X410211Y142241D01*
X410211Y134619D01*
X403859Y134619D01*
G37*
%LPD*%
%LPC*%
G36*
X403859Y332612D02*
X403859Y332612D01*
X403859Y338027D01*
X404032Y338674D01*
X404367Y339253D01*
X404840Y339726D01*
X405419Y340061D01*
X406066Y340234D01*
X410211Y340234D01*
X410211Y332612D01*
X403859Y332612D01*
G37*
%LPD*%
%LPC*%
G36*
X403859Y728624D02*
X403859Y728624D01*
X403859Y734039D01*
X404032Y734685D01*
X404367Y735264D01*
X404840Y735738D01*
X405419Y736072D01*
X406066Y736245D01*
X410211Y736245D01*
X410211Y728624D01*
X403859Y728624D01*
G37*
%LPD*%
%LPC*%
G36*
X431799Y957097D02*
X431799Y957097D01*
X431799Y957098D01*
X431801Y957098D01*
X431801Y957097D01*
X431799Y957097D01*
G37*
%LPD*%
%LPC*%
G36*
X431799Y759104D02*
X431799Y759104D01*
X431799Y759105D01*
X431801Y759105D01*
X431801Y759104D01*
X431799Y759104D01*
G37*
%LPD*%
%LPC*%
G36*
X431799Y561111D02*
X431799Y561111D01*
X431799Y561112D01*
X431801Y561112D01*
X431801Y561111D01*
X431799Y561111D01*
G37*
%LPD*%
%LPC*%
G36*
X431799Y165099D02*
X431799Y165099D01*
X431799Y165101D01*
X431801Y165101D01*
X431801Y165099D01*
X431799Y165099D01*
G37*
%LPD*%
%LPC*%
G36*
X431799Y363092D02*
X431799Y363092D01*
X431799Y363094D01*
X431801Y363094D01*
X431801Y363092D01*
X431799Y363092D01*
G37*
%LPD*%
D10*
X39370Y50800D02*
X24130Y50800D01*
X24130Y76200D02*
X39370Y76200D01*
X39370Y101600D02*
X24130Y101600D01*
X24130Y127000D02*
X39370Y127000D01*
X39370Y152400D02*
X24130Y152400D01*
X431800Y45720D02*
X431800Y30480D01*
X457200Y30480D02*
X457200Y45720D01*
X482600Y45720D02*
X482600Y30480D01*
X508000Y30480D02*
X508000Y45720D01*
X533400Y45720D02*
X533400Y30480D01*
X558800Y30480D02*
X558800Y45720D01*
X584200Y45720D02*
X584200Y30480D01*
X609600Y30480D02*
X609600Y45720D01*
X609600Y157480D02*
X609600Y172720D01*
X584200Y172720D02*
X584200Y157480D01*
X558800Y157480D02*
X558800Y172720D01*
X533400Y172720D02*
X533400Y157480D01*
X508000Y157480D02*
X508000Y172720D01*
X482600Y172720D02*
X482600Y157480D01*
X457200Y157480D02*
X457200Y172720D01*
X431800Y172720D02*
X431800Y157480D01*
D11*
X496820Y132080D03*
X468380Y132080D03*
D12*
X438150Y132080D03*
X412750Y132080D03*
D10*
X39370Y248793D02*
X24130Y248793D01*
X24130Y274193D02*
X39370Y274193D01*
X39370Y299593D02*
X24130Y299593D01*
X24130Y324993D02*
X39370Y324993D01*
X39370Y350393D02*
X24130Y350393D01*
X431800Y243713D02*
X431800Y228473D01*
X457200Y228473D02*
X457200Y243713D01*
X482600Y243713D02*
X482600Y228473D01*
X508000Y228473D02*
X508000Y243713D01*
X533400Y243713D02*
X533400Y228473D01*
X558800Y228473D02*
X558800Y243713D01*
X584200Y243713D02*
X584200Y228473D01*
X609600Y228473D02*
X609600Y243713D01*
X609600Y355473D02*
X609600Y370713D01*
X584200Y370713D02*
X584200Y355473D01*
X558800Y355473D02*
X558800Y370713D01*
X533400Y370713D02*
X533400Y355473D01*
X508000Y355473D02*
X508000Y370713D01*
X482600Y370713D02*
X482600Y355473D01*
X457200Y355473D02*
X457200Y370713D01*
X431800Y370713D02*
X431800Y355473D01*
D11*
X496820Y330073D03*
X468380Y330073D03*
D12*
X438150Y330073D03*
X412750Y330073D03*
D10*
X39370Y446811D02*
X24130Y446811D01*
X24130Y472211D02*
X39370Y472211D01*
X39370Y497611D02*
X24130Y497611D01*
X24130Y523011D02*
X39370Y523011D01*
X39370Y548411D02*
X24130Y548411D01*
X431800Y441731D02*
X431800Y426491D01*
X457200Y426491D02*
X457200Y441731D01*
X482600Y441731D02*
X482600Y426491D01*
X508000Y426491D02*
X508000Y441731D01*
X533400Y441731D02*
X533400Y426491D01*
X558800Y426491D02*
X558800Y441731D01*
X584200Y441731D02*
X584200Y426491D01*
X609600Y426491D02*
X609600Y441731D01*
X609600Y553491D02*
X609600Y568731D01*
X584200Y568731D02*
X584200Y553491D01*
X558800Y553491D02*
X558800Y568731D01*
X533400Y568731D02*
X533400Y553491D01*
X508000Y553491D02*
X508000Y568731D01*
X482600Y568731D02*
X482600Y553491D01*
X457200Y553491D02*
X457200Y568731D01*
X431800Y568731D02*
X431800Y553491D01*
D11*
X496820Y528091D03*
X468380Y528091D03*
D12*
X438150Y528091D03*
X412750Y528091D03*
D10*
X39370Y644804D02*
X24130Y644804D01*
X24130Y670204D02*
X39370Y670204D01*
X39370Y695604D02*
X24130Y695604D01*
X24130Y721004D02*
X39370Y721004D01*
X39370Y746404D02*
X24130Y746404D01*
X431800Y639724D02*
X431800Y624484D01*
X457200Y624484D02*
X457200Y639724D01*
X482600Y639724D02*
X482600Y624484D01*
X508000Y624484D02*
X508000Y639724D01*
X533400Y639724D02*
X533400Y624484D01*
X558800Y624484D02*
X558800Y639724D01*
X584200Y639724D02*
X584200Y624484D01*
X609600Y624484D02*
X609600Y639724D01*
X609600Y751484D02*
X609600Y766724D01*
X584200Y766724D02*
X584200Y751484D01*
X558800Y751484D02*
X558800Y766724D01*
X533400Y766724D02*
X533400Y751484D01*
X508000Y751484D02*
X508000Y766724D01*
X482600Y766724D02*
X482600Y751484D01*
X457200Y751484D02*
X457200Y766724D01*
X431800Y766724D02*
X431800Y751484D01*
D11*
X496820Y726084D03*
X468380Y726084D03*
D12*
X438150Y726084D03*
X412750Y726084D03*
D10*
X39370Y842797D02*
X24130Y842797D01*
X24130Y868197D02*
X39370Y868197D01*
X39370Y893597D02*
X24130Y893597D01*
X24130Y918997D02*
X39370Y918997D01*
X39370Y944397D02*
X24130Y944397D01*
X431800Y837717D02*
X431800Y822477D01*
X457200Y822477D02*
X457200Y837717D01*
X482600Y837717D02*
X482600Y822477D01*
X508000Y822477D02*
X508000Y837717D01*
X533400Y837717D02*
X533400Y822477D01*
X558800Y822477D02*
X558800Y837717D01*
X584200Y837717D02*
X584200Y822477D01*
X609600Y822477D02*
X609600Y837717D01*
X609600Y949477D02*
X609600Y964717D01*
X584200Y964717D02*
X584200Y949477D01*
X558800Y949477D02*
X558800Y964717D01*
X533400Y964717D02*
X533400Y949477D01*
X508000Y949477D02*
X508000Y964717D01*
X482600Y964717D02*
X482600Y949477D01*
X457200Y949477D02*
X457200Y964717D01*
X431800Y964717D02*
X431800Y949477D01*
D11*
X496820Y924077D03*
X468380Y924077D03*
D12*
X438150Y924077D03*
X412750Y924077D03*
D13*
X337820Y55880D03*
D14*
X388620Y55880D01*
X429260Y15240D01*
D15*
X457200Y15240D02*
X457200Y38100D01*
D14*
X457200Y15240D02*
X429260Y15240D01*
D13*
X317500Y17780D03*
D16*
X306839Y17780D01*
X298739Y9680D01*
X38580Y9680D01*
X10414Y37846D01*
X10414Y138430D01*
X24384Y152400D01*
D15*
X31750Y152400D01*
D17*
X438150Y132080D02*
X457200Y151130D01*
D15*
X457200Y165100D01*
X468380Y140970D02*
X468380Y132080D01*
D17*
X468380Y140970D02*
X457200Y152150D01*
D15*
X457200Y165100D01*
D17*
X468380Y132080D02*
X438150Y132080D01*
D13*
X347980Y22860D03*
X373380Y45720D03*
D18*
X44450Y127000D02*
X31750Y127000D01*
D16*
X44450Y127000D02*
X53340Y135890D01*
X53340Y190500D01*
X152400Y190500D01*
D14*
X609600Y165100D02*
X609600Y149860D01*
X562610Y102870D01*
X278130Y102870D01*
X255270Y125730D01*
D13*
X255270Y125730D03*
X266700Y127000D03*
D14*
X285750Y107950D01*
X584200Y134620D02*
X584200Y165100D01*
X557530Y107950D02*
X285750Y107950D01*
X557530Y107950D02*
X584200Y134620D01*
X558800Y154940D02*
X558800Y165100D01*
X558800Y154940D02*
X516890Y113030D01*
X289560Y113030D01*
X276860Y125730D01*
X276860Y130810D02*
X271780Y135890D01*
X276860Y130810D02*
X276860Y125730D01*
D13*
X271780Y135890D03*
X280670Y144780D03*
D14*
X283210Y128270D02*
X293370Y118110D01*
X283210Y142240D02*
X280670Y144780D01*
X283210Y142240D02*
X283210Y128270D01*
X293370Y118110D02*
X511810Y118110D01*
X533400Y139700D01*
X533400Y165100D01*
X482600Y165100D02*
X482600Y152400D01*
X496820Y138180D02*
X496820Y132080D01*
X496820Y138180D02*
X482600Y152400D01*
D13*
X297180Y50800D03*
D14*
X278464Y18716D01*
X62230Y16510D02*
X52070Y26670D01*
X52070Y93980D01*
X44450Y101600D01*
D15*
X31750Y101600D01*
D14*
X276258Y16510D02*
X278464Y18716D01*
X276258Y16510D02*
X62230Y16510D01*
D13*
X337820Y253873D03*
D14*
X388620Y253873D01*
X429260Y213233D01*
D15*
X457200Y213233D02*
X457200Y236093D01*
D14*
X457200Y213233D02*
X429260Y213233D01*
D13*
X317500Y215773D03*
D16*
X306839Y215773D01*
X298739Y207673D01*
X38580Y207673D01*
X10414Y235839D01*
X10414Y336423D01*
X24384Y350393D01*
D15*
X31750Y350393D01*
D17*
X438150Y330073D02*
X457200Y349123D01*
D15*
X457200Y363093D01*
X468380Y338963D02*
X468380Y330073D01*
D17*
X468380Y338963D02*
X457200Y350143D01*
D15*
X457200Y363093D01*
D17*
X468380Y330073D02*
X438150Y330073D01*
D13*
X347980Y220853D03*
X373380Y243713D03*
D18*
X44450Y324993D02*
X31750Y324993D01*
D16*
X44450Y324993D02*
X53340Y333883D01*
X53340Y388493D01*
X152400Y388493D01*
D14*
X609600Y363093D02*
X609600Y347853D01*
X562610Y300863D01*
X278130Y300863D01*
X255270Y323723D01*
D13*
X255270Y323723D03*
X266700Y324993D03*
D14*
X285750Y305943D01*
X584200Y332613D02*
X584200Y363093D01*
X557530Y305943D02*
X285750Y305943D01*
X557530Y305943D02*
X584200Y332613D01*
X558800Y352933D02*
X558800Y363093D01*
X558800Y352933D02*
X516890Y311023D01*
X289560Y311023D01*
X276860Y323723D01*
X276860Y328803D02*
X271780Y333883D01*
X276860Y328803D02*
X276860Y323723D01*
D13*
X271780Y333883D03*
X280670Y342773D03*
D14*
X283210Y326263D02*
X293370Y316103D01*
X283210Y340233D02*
X280670Y342773D01*
X283210Y340233D02*
X283210Y326263D01*
X293370Y316103D02*
X511810Y316103D01*
X533400Y337693D01*
X533400Y363093D01*
X482600Y363093D02*
X482600Y350393D01*
X496820Y336173D02*
X496820Y330073D01*
X496820Y336173D02*
X482600Y350393D01*
D13*
X297180Y248793D03*
D14*
X278464Y216709D01*
X62230Y214503D02*
X52070Y224663D01*
X52070Y291973D01*
X44450Y299593D01*
D15*
X31750Y299593D01*
D14*
X276258Y214503D02*
X278464Y216709D01*
X276258Y214503D02*
X62230Y214503D01*
D13*
X337820Y451891D03*
D14*
X388620Y451891D01*
X429260Y411251D01*
D15*
X457200Y411251D02*
X457200Y434111D01*
D14*
X457200Y411251D02*
X429260Y411251D01*
D13*
X317500Y413791D03*
D16*
X306839Y413791D01*
X298739Y405691D01*
X38580Y405691D01*
X10414Y433857D01*
X10414Y534441D01*
X24384Y548411D01*
D15*
X31750Y548411D01*
D17*
X438150Y528091D02*
X457200Y547141D01*
D15*
X457200Y561111D01*
X468380Y536981D02*
X468380Y528091D01*
D17*
X468380Y536981D02*
X457200Y548161D01*
D15*
X457200Y561111D01*
D17*
X468380Y528091D02*
X438150Y528091D01*
D13*
X347980Y418871D03*
X373380Y441731D03*
D18*
X44450Y523011D02*
X31750Y523011D01*
D16*
X44450Y523011D02*
X53340Y531901D01*
X53340Y586511D01*
X152400Y586511D01*
D14*
X609600Y561111D02*
X609600Y545871D01*
X562610Y498881D01*
X278130Y498881D01*
X255270Y521741D01*
D13*
X255270Y521741D03*
X266700Y523011D03*
D14*
X285750Y503961D01*
X584200Y530631D02*
X584200Y561111D01*
X557530Y503961D02*
X285750Y503961D01*
X557530Y503961D02*
X584200Y530631D01*
X558800Y550951D02*
X558800Y561111D01*
X558800Y550951D02*
X516890Y509041D01*
X289560Y509041D01*
X276860Y521741D01*
X276860Y526821D02*
X271780Y531901D01*
X276860Y526821D02*
X276860Y521741D01*
D13*
X271780Y531901D03*
X280670Y540791D03*
D14*
X283210Y524281D02*
X293370Y514121D01*
X283210Y538251D02*
X280670Y540791D01*
X283210Y538251D02*
X283210Y524281D01*
X293370Y514121D02*
X511810Y514121D01*
X533400Y535711D01*
X533400Y561111D01*
X482600Y561111D02*
X482600Y548411D01*
X496820Y534191D02*
X496820Y528091D01*
X496820Y534191D02*
X482600Y548411D01*
D13*
X297180Y446811D03*
D14*
X278464Y414727D01*
X62230Y412521D02*
X52070Y422681D01*
X52070Y489991D01*
X44450Y497611D01*
D15*
X31750Y497611D01*
D14*
X276258Y412521D02*
X278464Y414727D01*
X276258Y412521D02*
X62230Y412521D01*
D13*
X337820Y649884D03*
D14*
X388620Y649884D01*
X429260Y609244D01*
D15*
X457200Y609244D02*
X457200Y632104D01*
D14*
X457200Y609244D02*
X429260Y609244D01*
D13*
X317500Y611784D03*
D16*
X306839Y611784D01*
X298739Y603684D01*
X38580Y603684D01*
X10414Y631850D01*
X10414Y732434D01*
X24384Y746404D01*
D15*
X31750Y746404D01*
D17*
X438150Y726084D02*
X457200Y745134D01*
D15*
X457200Y759104D01*
X468380Y734974D02*
X468380Y726084D01*
D17*
X468380Y734974D02*
X457200Y746154D01*
D15*
X457200Y759104D01*
D17*
X468380Y726084D02*
X438150Y726084D01*
D13*
X347980Y616864D03*
X373380Y639724D03*
D18*
X44450Y721004D02*
X31750Y721004D01*
D16*
X44450Y721004D02*
X53340Y729894D01*
X53340Y784504D01*
X152400Y784504D01*
D14*
X609600Y759104D02*
X609600Y743864D01*
X562610Y696874D01*
X278130Y696874D01*
X255270Y719734D01*
D13*
X255270Y719734D03*
X266700Y721004D03*
D14*
X285750Y701954D01*
X584200Y728624D02*
X584200Y759104D01*
X557530Y701954D02*
X285750Y701954D01*
X557530Y701954D02*
X584200Y728624D01*
X558800Y748944D02*
X558800Y759104D01*
X558800Y748944D02*
X516890Y707034D01*
X289560Y707034D01*
X276860Y719734D01*
X276860Y724814D02*
X271780Y729894D01*
X276860Y724814D02*
X276860Y719734D01*
D13*
X271780Y729894D03*
X280670Y738784D03*
D14*
X283210Y722274D02*
X293370Y712114D01*
X283210Y736244D02*
X280670Y738784D01*
X283210Y736244D02*
X283210Y722274D01*
X293370Y712114D02*
X511810Y712114D01*
X533400Y733704D01*
X533400Y759104D01*
X482600Y759104D02*
X482600Y746404D01*
X496820Y732184D02*
X496820Y726084D01*
X496820Y732184D02*
X482600Y746404D01*
D13*
X297180Y644804D03*
D14*
X278464Y612720D01*
X62230Y610514D02*
X52070Y620674D01*
X52070Y687984D01*
X44450Y695604D01*
D15*
X31750Y695604D01*
D14*
X276258Y610514D02*
X278464Y612720D01*
X276258Y610514D02*
X62230Y610514D01*
D13*
X337820Y847877D03*
D14*
X388620Y847877D01*
X429260Y807237D01*
D15*
X457200Y807237D02*
X457200Y830097D01*
D14*
X457200Y807237D02*
X429260Y807237D01*
D13*
X317500Y809777D03*
D16*
X306839Y809777D01*
X298739Y801677D01*
X38580Y801677D01*
X10414Y829843D01*
X10414Y930427D01*
X24384Y944397D01*
D15*
X31750Y944397D01*
D17*
X438150Y924077D02*
X457200Y943127D01*
D15*
X457200Y957097D01*
X468380Y932967D02*
X468380Y924077D01*
D17*
X468380Y932967D02*
X457200Y944147D01*
D15*
X457200Y957097D01*
D17*
X468380Y924077D02*
X438150Y924077D01*
D13*
X347980Y814857D03*
X373380Y837717D03*
D18*
X44450Y918997D02*
X31750Y918997D01*
D16*
X44450Y918997D02*
X53340Y927887D01*
X53340Y982497D01*
X152400Y982497D01*
D14*
X609600Y957097D02*
X609600Y941857D01*
X562610Y894867D01*
X278130Y894867D01*
X255270Y917727D01*
D13*
X255270Y917727D03*
X266700Y918997D03*
D14*
X285750Y899947D01*
X584200Y926617D02*
X584200Y957097D01*
X557530Y899947D02*
X285750Y899947D01*
X557530Y899947D02*
X584200Y926617D01*
X558800Y946937D02*
X558800Y957097D01*
X558800Y946937D02*
X516890Y905027D01*
X289560Y905027D01*
X276860Y917727D01*
X276860Y922807D02*
X271780Y927887D01*
X276860Y922807D02*
X276860Y917727D01*
D13*
X271780Y927887D03*
X280670Y936777D03*
D14*
X283210Y920267D02*
X293370Y910107D01*
X283210Y934237D02*
X280670Y936777D01*
X283210Y934237D02*
X283210Y920267D01*
X293370Y910107D02*
X511810Y910107D01*
X533400Y931697D01*
X533400Y957097D01*
X482600Y957097D02*
X482600Y944397D01*
X496820Y930177D02*
X496820Y924077D01*
X496820Y930177D02*
X482600Y944397D01*
D13*
X297180Y842797D03*
D14*
X278464Y810713D01*
X62230Y808507D02*
X52070Y818667D01*
X52070Y885977D01*
X44450Y893597D01*
D15*
X31750Y893597D01*
D14*
X276258Y808507D02*
X278464Y810713D01*
X276258Y808507D02*
X62230Y808507D01*
M02*
