G04 EAGLE Gerber RS-274X export*
G75*
%MOMM*%
%FSLAX34Y34*%
%LPD*%
%INTop Paste*%
%IPPOS*%
%AMOC8*
5,1,8,0,0,1.08239X$1,22.5*%
G01*
%ADD10C,0.694944*%


D10*
X153752Y40078D02*
X153752Y27722D01*
X151048Y27722D01*
X151048Y40078D01*
X153752Y40078D01*
X153752Y34324D02*
X151048Y34324D01*
X168752Y40078D02*
X168752Y27722D01*
X166048Y27722D01*
X166048Y40078D01*
X168752Y40078D01*
X168752Y34324D02*
X166048Y34324D01*
X183752Y40078D02*
X183752Y27722D01*
X181048Y27722D01*
X181048Y40078D01*
X183752Y40078D01*
X183752Y34324D02*
X181048Y34324D01*
X198752Y40078D02*
X198752Y27722D01*
X196048Y27722D01*
X196048Y40078D01*
X198752Y40078D01*
X198752Y34324D02*
X196048Y34324D01*
X213752Y40078D02*
X213752Y27722D01*
X211048Y27722D01*
X211048Y40078D01*
X213752Y40078D01*
X213752Y34324D02*
X211048Y34324D01*
X228752Y40078D02*
X228752Y27722D01*
X226048Y27722D01*
X226048Y40078D01*
X228752Y40078D01*
X228752Y34324D02*
X226048Y34324D01*
X243752Y40078D02*
X243752Y27722D01*
X241048Y27722D01*
X241048Y40078D01*
X243752Y40078D01*
X243752Y34324D02*
X241048Y34324D01*
X258752Y40078D02*
X258752Y27722D01*
X256048Y27722D01*
X256048Y40078D01*
X258752Y40078D01*
X258752Y34324D02*
X256048Y34324D01*
X273752Y40078D02*
X273752Y27722D01*
X271048Y27722D01*
X271048Y40078D01*
X273752Y40078D01*
X273752Y34324D02*
X271048Y34324D01*
X288752Y40078D02*
X288752Y27722D01*
X286048Y27722D01*
X286048Y40078D01*
X288752Y40078D01*
X288752Y34324D02*
X286048Y34324D01*
X303752Y40078D02*
X303752Y27722D01*
X301048Y27722D01*
X301048Y40078D01*
X303752Y40078D01*
X303752Y34324D02*
X301048Y34324D01*
X318752Y40078D02*
X318752Y27722D01*
X316048Y27722D01*
X316048Y40078D01*
X318752Y40078D01*
X318752Y34324D02*
X316048Y34324D01*
X333752Y40078D02*
X333752Y27722D01*
X331048Y27722D01*
X331048Y40078D01*
X333752Y40078D01*
X333752Y34324D02*
X331048Y34324D01*
X346922Y50652D02*
X359278Y50652D01*
X359278Y47948D01*
X346922Y47948D01*
X346922Y50652D01*
X346922Y65652D02*
X359278Y65652D01*
X359278Y62948D01*
X346922Y62948D01*
X346922Y65652D01*
X346922Y80652D02*
X359278Y80652D01*
X359278Y77948D01*
X346922Y77948D01*
X346922Y80652D01*
X346922Y95652D02*
X359278Y95652D01*
X359278Y92948D01*
X346922Y92948D01*
X346922Y95652D01*
X346922Y110652D02*
X359278Y110652D01*
X359278Y107948D01*
X346922Y107948D01*
X346922Y110652D01*
X346922Y125652D02*
X359278Y125652D01*
X359278Y122948D01*
X346922Y122948D01*
X346922Y125652D01*
X346922Y140652D02*
X359278Y140652D01*
X359278Y137948D01*
X346922Y137948D01*
X346922Y140652D01*
X346922Y155652D02*
X359278Y155652D01*
X359278Y152948D01*
X346922Y152948D01*
X346922Y155652D01*
X331048Y163122D02*
X331048Y175478D01*
X333752Y175478D01*
X333752Y163122D01*
X331048Y163122D01*
X331048Y169724D02*
X333752Y169724D01*
X316048Y175478D02*
X316048Y163122D01*
X316048Y175478D02*
X318752Y175478D01*
X318752Y163122D01*
X316048Y163122D01*
X316048Y169724D02*
X318752Y169724D01*
X301048Y175478D02*
X301048Y163122D01*
X301048Y175478D02*
X303752Y175478D01*
X303752Y163122D01*
X301048Y163122D01*
X301048Y169724D02*
X303752Y169724D01*
X286048Y175478D02*
X286048Y163122D01*
X286048Y175478D02*
X288752Y175478D01*
X288752Y163122D01*
X286048Y163122D01*
X286048Y169724D02*
X288752Y169724D01*
X271048Y175478D02*
X271048Y163122D01*
X271048Y175478D02*
X273752Y175478D01*
X273752Y163122D01*
X271048Y163122D01*
X271048Y169724D02*
X273752Y169724D01*
X256048Y175478D02*
X256048Y163122D01*
X256048Y175478D02*
X258752Y175478D01*
X258752Y163122D01*
X256048Y163122D01*
X256048Y169724D02*
X258752Y169724D01*
X241048Y175478D02*
X241048Y163122D01*
X241048Y175478D02*
X243752Y175478D01*
X243752Y163122D01*
X241048Y163122D01*
X241048Y169724D02*
X243752Y169724D01*
X226048Y175478D02*
X226048Y163122D01*
X226048Y175478D02*
X228752Y175478D01*
X228752Y163122D01*
X226048Y163122D01*
X226048Y169724D02*
X228752Y169724D01*
X211048Y175478D02*
X211048Y163122D01*
X211048Y175478D02*
X213752Y175478D01*
X213752Y163122D01*
X211048Y163122D01*
X211048Y169724D02*
X213752Y169724D01*
X196048Y175478D02*
X196048Y163122D01*
X196048Y175478D02*
X198752Y175478D01*
X198752Y163122D01*
X196048Y163122D01*
X196048Y169724D02*
X198752Y169724D01*
X181048Y175478D02*
X181048Y163122D01*
X181048Y175478D02*
X183752Y175478D01*
X183752Y163122D01*
X181048Y163122D01*
X181048Y169724D02*
X183752Y169724D01*
X166048Y175478D02*
X166048Y163122D01*
X166048Y175478D02*
X168752Y175478D01*
X168752Y163122D01*
X166048Y163122D01*
X166048Y169724D02*
X168752Y169724D01*
X151048Y175478D02*
X151048Y163122D01*
X151048Y175478D02*
X153752Y175478D01*
X153752Y163122D01*
X151048Y163122D01*
X151048Y169724D02*
X153752Y169724D01*
X153752Y225715D02*
X153752Y238071D01*
X153752Y225715D02*
X151048Y225715D01*
X151048Y238071D01*
X153752Y238071D01*
X153752Y232317D02*
X151048Y232317D01*
X168752Y238071D02*
X168752Y225715D01*
X166048Y225715D01*
X166048Y238071D01*
X168752Y238071D01*
X168752Y232317D02*
X166048Y232317D01*
X183752Y238071D02*
X183752Y225715D01*
X181048Y225715D01*
X181048Y238071D01*
X183752Y238071D01*
X183752Y232317D02*
X181048Y232317D01*
X198752Y238071D02*
X198752Y225715D01*
X196048Y225715D01*
X196048Y238071D01*
X198752Y238071D01*
X198752Y232317D02*
X196048Y232317D01*
X213752Y238071D02*
X213752Y225715D01*
X211048Y225715D01*
X211048Y238071D01*
X213752Y238071D01*
X213752Y232317D02*
X211048Y232317D01*
X228752Y238071D02*
X228752Y225715D01*
X226048Y225715D01*
X226048Y238071D01*
X228752Y238071D01*
X228752Y232317D02*
X226048Y232317D01*
X243752Y238071D02*
X243752Y225715D01*
X241048Y225715D01*
X241048Y238071D01*
X243752Y238071D01*
X243752Y232317D02*
X241048Y232317D01*
X258752Y238071D02*
X258752Y225715D01*
X256048Y225715D01*
X256048Y238071D01*
X258752Y238071D01*
X258752Y232317D02*
X256048Y232317D01*
X273752Y238071D02*
X273752Y225715D01*
X271048Y225715D01*
X271048Y238071D01*
X273752Y238071D01*
X273752Y232317D02*
X271048Y232317D01*
X288752Y238071D02*
X288752Y225715D01*
X286048Y225715D01*
X286048Y238071D01*
X288752Y238071D01*
X288752Y232317D02*
X286048Y232317D01*
X303752Y238071D02*
X303752Y225715D01*
X301048Y225715D01*
X301048Y238071D01*
X303752Y238071D01*
X303752Y232317D02*
X301048Y232317D01*
X318752Y238071D02*
X318752Y225715D01*
X316048Y225715D01*
X316048Y238071D01*
X318752Y238071D01*
X318752Y232317D02*
X316048Y232317D01*
X333752Y238071D02*
X333752Y225715D01*
X331048Y225715D01*
X331048Y238071D01*
X333752Y238071D01*
X333752Y232317D02*
X331048Y232317D01*
X346922Y248645D02*
X359278Y248645D01*
X359278Y245941D01*
X346922Y245941D01*
X346922Y248645D01*
X346922Y263645D02*
X359278Y263645D01*
X359278Y260941D01*
X346922Y260941D01*
X346922Y263645D01*
X346922Y278645D02*
X359278Y278645D01*
X359278Y275941D01*
X346922Y275941D01*
X346922Y278645D01*
X346922Y293645D02*
X359278Y293645D01*
X359278Y290941D01*
X346922Y290941D01*
X346922Y293645D01*
X346922Y308645D02*
X359278Y308645D01*
X359278Y305941D01*
X346922Y305941D01*
X346922Y308645D01*
X346922Y323645D02*
X359278Y323645D01*
X359278Y320941D01*
X346922Y320941D01*
X346922Y323645D01*
X346922Y338645D02*
X359278Y338645D01*
X359278Y335941D01*
X346922Y335941D01*
X346922Y338645D01*
X346922Y353645D02*
X359278Y353645D01*
X359278Y350941D01*
X346922Y350941D01*
X346922Y353645D01*
X331048Y361115D02*
X331048Y373471D01*
X333752Y373471D01*
X333752Y361115D01*
X331048Y361115D01*
X331048Y367717D02*
X333752Y367717D01*
X316048Y373471D02*
X316048Y361115D01*
X316048Y373471D02*
X318752Y373471D01*
X318752Y361115D01*
X316048Y361115D01*
X316048Y367717D02*
X318752Y367717D01*
X301048Y373471D02*
X301048Y361115D01*
X301048Y373471D02*
X303752Y373471D01*
X303752Y361115D01*
X301048Y361115D01*
X301048Y367717D02*
X303752Y367717D01*
X286048Y373471D02*
X286048Y361115D01*
X286048Y373471D02*
X288752Y373471D01*
X288752Y361115D01*
X286048Y361115D01*
X286048Y367717D02*
X288752Y367717D01*
X271048Y373471D02*
X271048Y361115D01*
X271048Y373471D02*
X273752Y373471D01*
X273752Y361115D01*
X271048Y361115D01*
X271048Y367717D02*
X273752Y367717D01*
X256048Y373471D02*
X256048Y361115D01*
X256048Y373471D02*
X258752Y373471D01*
X258752Y361115D01*
X256048Y361115D01*
X256048Y367717D02*
X258752Y367717D01*
X241048Y373471D02*
X241048Y361115D01*
X241048Y373471D02*
X243752Y373471D01*
X243752Y361115D01*
X241048Y361115D01*
X241048Y367717D02*
X243752Y367717D01*
X226048Y373471D02*
X226048Y361115D01*
X226048Y373471D02*
X228752Y373471D01*
X228752Y361115D01*
X226048Y361115D01*
X226048Y367717D02*
X228752Y367717D01*
X211048Y373471D02*
X211048Y361115D01*
X211048Y373471D02*
X213752Y373471D01*
X213752Y361115D01*
X211048Y361115D01*
X211048Y367717D02*
X213752Y367717D01*
X196048Y373471D02*
X196048Y361115D01*
X196048Y373471D02*
X198752Y373471D01*
X198752Y361115D01*
X196048Y361115D01*
X196048Y367717D02*
X198752Y367717D01*
X181048Y373471D02*
X181048Y361115D01*
X181048Y373471D02*
X183752Y373471D01*
X183752Y361115D01*
X181048Y361115D01*
X181048Y367717D02*
X183752Y367717D01*
X166048Y373471D02*
X166048Y361115D01*
X166048Y373471D02*
X168752Y373471D01*
X168752Y361115D01*
X166048Y361115D01*
X166048Y367717D02*
X168752Y367717D01*
X151048Y373471D02*
X151048Y361115D01*
X151048Y373471D02*
X153752Y373471D01*
X153752Y361115D01*
X151048Y361115D01*
X151048Y367717D02*
X153752Y367717D01*
X153752Y423733D02*
X153752Y436089D01*
X153752Y423733D02*
X151048Y423733D01*
X151048Y436089D01*
X153752Y436089D01*
X153752Y430335D02*
X151048Y430335D01*
X168752Y436089D02*
X168752Y423733D01*
X166048Y423733D01*
X166048Y436089D01*
X168752Y436089D01*
X168752Y430335D02*
X166048Y430335D01*
X183752Y436089D02*
X183752Y423733D01*
X181048Y423733D01*
X181048Y436089D01*
X183752Y436089D01*
X183752Y430335D02*
X181048Y430335D01*
X198752Y436089D02*
X198752Y423733D01*
X196048Y423733D01*
X196048Y436089D01*
X198752Y436089D01*
X198752Y430335D02*
X196048Y430335D01*
X213752Y436089D02*
X213752Y423733D01*
X211048Y423733D01*
X211048Y436089D01*
X213752Y436089D01*
X213752Y430335D02*
X211048Y430335D01*
X228752Y436089D02*
X228752Y423733D01*
X226048Y423733D01*
X226048Y436089D01*
X228752Y436089D01*
X228752Y430335D02*
X226048Y430335D01*
X243752Y436089D02*
X243752Y423733D01*
X241048Y423733D01*
X241048Y436089D01*
X243752Y436089D01*
X243752Y430335D02*
X241048Y430335D01*
X258752Y436089D02*
X258752Y423733D01*
X256048Y423733D01*
X256048Y436089D01*
X258752Y436089D01*
X258752Y430335D02*
X256048Y430335D01*
X273752Y436089D02*
X273752Y423733D01*
X271048Y423733D01*
X271048Y436089D01*
X273752Y436089D01*
X273752Y430335D02*
X271048Y430335D01*
X288752Y436089D02*
X288752Y423733D01*
X286048Y423733D01*
X286048Y436089D01*
X288752Y436089D01*
X288752Y430335D02*
X286048Y430335D01*
X303752Y436089D02*
X303752Y423733D01*
X301048Y423733D01*
X301048Y436089D01*
X303752Y436089D01*
X303752Y430335D02*
X301048Y430335D01*
X318752Y436089D02*
X318752Y423733D01*
X316048Y423733D01*
X316048Y436089D01*
X318752Y436089D01*
X318752Y430335D02*
X316048Y430335D01*
X333752Y436089D02*
X333752Y423733D01*
X331048Y423733D01*
X331048Y436089D01*
X333752Y436089D01*
X333752Y430335D02*
X331048Y430335D01*
X346922Y446663D02*
X359278Y446663D01*
X359278Y443959D01*
X346922Y443959D01*
X346922Y446663D01*
X346922Y461663D02*
X359278Y461663D01*
X359278Y458959D01*
X346922Y458959D01*
X346922Y461663D01*
X346922Y476663D02*
X359278Y476663D01*
X359278Y473959D01*
X346922Y473959D01*
X346922Y476663D01*
X346922Y491663D02*
X359278Y491663D01*
X359278Y488959D01*
X346922Y488959D01*
X346922Y491663D01*
X346922Y506663D02*
X359278Y506663D01*
X359278Y503959D01*
X346922Y503959D01*
X346922Y506663D01*
X346922Y521663D02*
X359278Y521663D01*
X359278Y518959D01*
X346922Y518959D01*
X346922Y521663D01*
X346922Y536663D02*
X359278Y536663D01*
X359278Y533959D01*
X346922Y533959D01*
X346922Y536663D01*
X346922Y551663D02*
X359278Y551663D01*
X359278Y548959D01*
X346922Y548959D01*
X346922Y551663D01*
X331048Y559133D02*
X331048Y571489D01*
X333752Y571489D01*
X333752Y559133D01*
X331048Y559133D01*
X331048Y565735D02*
X333752Y565735D01*
X316048Y571489D02*
X316048Y559133D01*
X316048Y571489D02*
X318752Y571489D01*
X318752Y559133D01*
X316048Y559133D01*
X316048Y565735D02*
X318752Y565735D01*
X301048Y571489D02*
X301048Y559133D01*
X301048Y571489D02*
X303752Y571489D01*
X303752Y559133D01*
X301048Y559133D01*
X301048Y565735D02*
X303752Y565735D01*
X286048Y571489D02*
X286048Y559133D01*
X286048Y571489D02*
X288752Y571489D01*
X288752Y559133D01*
X286048Y559133D01*
X286048Y565735D02*
X288752Y565735D01*
X271048Y571489D02*
X271048Y559133D01*
X271048Y571489D02*
X273752Y571489D01*
X273752Y559133D01*
X271048Y559133D01*
X271048Y565735D02*
X273752Y565735D01*
X256048Y571489D02*
X256048Y559133D01*
X256048Y571489D02*
X258752Y571489D01*
X258752Y559133D01*
X256048Y559133D01*
X256048Y565735D02*
X258752Y565735D01*
X241048Y571489D02*
X241048Y559133D01*
X241048Y571489D02*
X243752Y571489D01*
X243752Y559133D01*
X241048Y559133D01*
X241048Y565735D02*
X243752Y565735D01*
X226048Y571489D02*
X226048Y559133D01*
X226048Y571489D02*
X228752Y571489D01*
X228752Y559133D01*
X226048Y559133D01*
X226048Y565735D02*
X228752Y565735D01*
X211048Y571489D02*
X211048Y559133D01*
X211048Y571489D02*
X213752Y571489D01*
X213752Y559133D01*
X211048Y559133D01*
X211048Y565735D02*
X213752Y565735D01*
X196048Y571489D02*
X196048Y559133D01*
X196048Y571489D02*
X198752Y571489D01*
X198752Y559133D01*
X196048Y559133D01*
X196048Y565735D02*
X198752Y565735D01*
X181048Y571489D02*
X181048Y559133D01*
X181048Y571489D02*
X183752Y571489D01*
X183752Y559133D01*
X181048Y559133D01*
X181048Y565735D02*
X183752Y565735D01*
X166048Y571489D02*
X166048Y559133D01*
X166048Y571489D02*
X168752Y571489D01*
X168752Y559133D01*
X166048Y559133D01*
X166048Y565735D02*
X168752Y565735D01*
X151048Y571489D02*
X151048Y559133D01*
X151048Y571489D02*
X153752Y571489D01*
X153752Y559133D01*
X151048Y559133D01*
X151048Y565735D02*
X153752Y565735D01*
X153752Y621726D02*
X153752Y634082D01*
X153752Y621726D02*
X151048Y621726D01*
X151048Y634082D01*
X153752Y634082D01*
X153752Y628328D02*
X151048Y628328D01*
X168752Y634082D02*
X168752Y621726D01*
X166048Y621726D01*
X166048Y634082D01*
X168752Y634082D01*
X168752Y628328D02*
X166048Y628328D01*
X183752Y634082D02*
X183752Y621726D01*
X181048Y621726D01*
X181048Y634082D01*
X183752Y634082D01*
X183752Y628328D02*
X181048Y628328D01*
X198752Y634082D02*
X198752Y621726D01*
X196048Y621726D01*
X196048Y634082D01*
X198752Y634082D01*
X198752Y628328D02*
X196048Y628328D01*
X213752Y634082D02*
X213752Y621726D01*
X211048Y621726D01*
X211048Y634082D01*
X213752Y634082D01*
X213752Y628328D02*
X211048Y628328D01*
X228752Y634082D02*
X228752Y621726D01*
X226048Y621726D01*
X226048Y634082D01*
X228752Y634082D01*
X228752Y628328D02*
X226048Y628328D01*
X243752Y634082D02*
X243752Y621726D01*
X241048Y621726D01*
X241048Y634082D01*
X243752Y634082D01*
X243752Y628328D02*
X241048Y628328D01*
X258752Y634082D02*
X258752Y621726D01*
X256048Y621726D01*
X256048Y634082D01*
X258752Y634082D01*
X258752Y628328D02*
X256048Y628328D01*
X273752Y634082D02*
X273752Y621726D01*
X271048Y621726D01*
X271048Y634082D01*
X273752Y634082D01*
X273752Y628328D02*
X271048Y628328D01*
X288752Y634082D02*
X288752Y621726D01*
X286048Y621726D01*
X286048Y634082D01*
X288752Y634082D01*
X288752Y628328D02*
X286048Y628328D01*
X303752Y634082D02*
X303752Y621726D01*
X301048Y621726D01*
X301048Y634082D01*
X303752Y634082D01*
X303752Y628328D02*
X301048Y628328D01*
X318752Y634082D02*
X318752Y621726D01*
X316048Y621726D01*
X316048Y634082D01*
X318752Y634082D01*
X318752Y628328D02*
X316048Y628328D01*
X333752Y634082D02*
X333752Y621726D01*
X331048Y621726D01*
X331048Y634082D01*
X333752Y634082D01*
X333752Y628328D02*
X331048Y628328D01*
X346922Y644656D02*
X359278Y644656D01*
X359278Y641952D01*
X346922Y641952D01*
X346922Y644656D01*
X346922Y659656D02*
X359278Y659656D01*
X359278Y656952D01*
X346922Y656952D01*
X346922Y659656D01*
X346922Y674656D02*
X359278Y674656D01*
X359278Y671952D01*
X346922Y671952D01*
X346922Y674656D01*
X346922Y689656D02*
X359278Y689656D01*
X359278Y686952D01*
X346922Y686952D01*
X346922Y689656D01*
X346922Y704656D02*
X359278Y704656D01*
X359278Y701952D01*
X346922Y701952D01*
X346922Y704656D01*
X346922Y719656D02*
X359278Y719656D01*
X359278Y716952D01*
X346922Y716952D01*
X346922Y719656D01*
X346922Y734656D02*
X359278Y734656D01*
X359278Y731952D01*
X346922Y731952D01*
X346922Y734656D01*
X346922Y749656D02*
X359278Y749656D01*
X359278Y746952D01*
X346922Y746952D01*
X346922Y749656D01*
X331048Y757126D02*
X331048Y769482D01*
X333752Y769482D01*
X333752Y757126D01*
X331048Y757126D01*
X331048Y763728D02*
X333752Y763728D01*
X316048Y769482D02*
X316048Y757126D01*
X316048Y769482D02*
X318752Y769482D01*
X318752Y757126D01*
X316048Y757126D01*
X316048Y763728D02*
X318752Y763728D01*
X301048Y769482D02*
X301048Y757126D01*
X301048Y769482D02*
X303752Y769482D01*
X303752Y757126D01*
X301048Y757126D01*
X301048Y763728D02*
X303752Y763728D01*
X286048Y769482D02*
X286048Y757126D01*
X286048Y769482D02*
X288752Y769482D01*
X288752Y757126D01*
X286048Y757126D01*
X286048Y763728D02*
X288752Y763728D01*
X271048Y769482D02*
X271048Y757126D01*
X271048Y769482D02*
X273752Y769482D01*
X273752Y757126D01*
X271048Y757126D01*
X271048Y763728D02*
X273752Y763728D01*
X256048Y769482D02*
X256048Y757126D01*
X256048Y769482D02*
X258752Y769482D01*
X258752Y757126D01*
X256048Y757126D01*
X256048Y763728D02*
X258752Y763728D01*
X241048Y769482D02*
X241048Y757126D01*
X241048Y769482D02*
X243752Y769482D01*
X243752Y757126D01*
X241048Y757126D01*
X241048Y763728D02*
X243752Y763728D01*
X226048Y769482D02*
X226048Y757126D01*
X226048Y769482D02*
X228752Y769482D01*
X228752Y757126D01*
X226048Y757126D01*
X226048Y763728D02*
X228752Y763728D01*
X211048Y769482D02*
X211048Y757126D01*
X211048Y769482D02*
X213752Y769482D01*
X213752Y757126D01*
X211048Y757126D01*
X211048Y763728D02*
X213752Y763728D01*
X196048Y769482D02*
X196048Y757126D01*
X196048Y769482D02*
X198752Y769482D01*
X198752Y757126D01*
X196048Y757126D01*
X196048Y763728D02*
X198752Y763728D01*
X181048Y769482D02*
X181048Y757126D01*
X181048Y769482D02*
X183752Y769482D01*
X183752Y757126D01*
X181048Y757126D01*
X181048Y763728D02*
X183752Y763728D01*
X166048Y769482D02*
X166048Y757126D01*
X166048Y769482D02*
X168752Y769482D01*
X168752Y757126D01*
X166048Y757126D01*
X166048Y763728D02*
X168752Y763728D01*
X151048Y769482D02*
X151048Y757126D01*
X151048Y769482D02*
X153752Y769482D01*
X153752Y757126D01*
X151048Y757126D01*
X151048Y763728D02*
X153752Y763728D01*
X153752Y819719D02*
X153752Y832075D01*
X153752Y819719D02*
X151048Y819719D01*
X151048Y832075D01*
X153752Y832075D01*
X153752Y826321D02*
X151048Y826321D01*
X168752Y832075D02*
X168752Y819719D01*
X166048Y819719D01*
X166048Y832075D01*
X168752Y832075D01*
X168752Y826321D02*
X166048Y826321D01*
X183752Y832075D02*
X183752Y819719D01*
X181048Y819719D01*
X181048Y832075D01*
X183752Y832075D01*
X183752Y826321D02*
X181048Y826321D01*
X198752Y832075D02*
X198752Y819719D01*
X196048Y819719D01*
X196048Y832075D01*
X198752Y832075D01*
X198752Y826321D02*
X196048Y826321D01*
X213752Y832075D02*
X213752Y819719D01*
X211048Y819719D01*
X211048Y832075D01*
X213752Y832075D01*
X213752Y826321D02*
X211048Y826321D01*
X228752Y832075D02*
X228752Y819719D01*
X226048Y819719D01*
X226048Y832075D01*
X228752Y832075D01*
X228752Y826321D02*
X226048Y826321D01*
X243752Y832075D02*
X243752Y819719D01*
X241048Y819719D01*
X241048Y832075D01*
X243752Y832075D01*
X243752Y826321D02*
X241048Y826321D01*
X258752Y832075D02*
X258752Y819719D01*
X256048Y819719D01*
X256048Y832075D01*
X258752Y832075D01*
X258752Y826321D02*
X256048Y826321D01*
X273752Y832075D02*
X273752Y819719D01*
X271048Y819719D01*
X271048Y832075D01*
X273752Y832075D01*
X273752Y826321D02*
X271048Y826321D01*
X288752Y832075D02*
X288752Y819719D01*
X286048Y819719D01*
X286048Y832075D01*
X288752Y832075D01*
X288752Y826321D02*
X286048Y826321D01*
X303752Y832075D02*
X303752Y819719D01*
X301048Y819719D01*
X301048Y832075D01*
X303752Y832075D01*
X303752Y826321D02*
X301048Y826321D01*
X318752Y832075D02*
X318752Y819719D01*
X316048Y819719D01*
X316048Y832075D01*
X318752Y832075D01*
X318752Y826321D02*
X316048Y826321D01*
X333752Y832075D02*
X333752Y819719D01*
X331048Y819719D01*
X331048Y832075D01*
X333752Y832075D01*
X333752Y826321D02*
X331048Y826321D01*
X346922Y842649D02*
X359278Y842649D01*
X359278Y839945D01*
X346922Y839945D01*
X346922Y842649D01*
X346922Y857649D02*
X359278Y857649D01*
X359278Y854945D01*
X346922Y854945D01*
X346922Y857649D01*
X346922Y872649D02*
X359278Y872649D01*
X359278Y869945D01*
X346922Y869945D01*
X346922Y872649D01*
X346922Y887649D02*
X359278Y887649D01*
X359278Y884945D01*
X346922Y884945D01*
X346922Y887649D01*
X346922Y902649D02*
X359278Y902649D01*
X359278Y899945D01*
X346922Y899945D01*
X346922Y902649D01*
X346922Y917649D02*
X359278Y917649D01*
X359278Y914945D01*
X346922Y914945D01*
X346922Y917649D01*
X346922Y932649D02*
X359278Y932649D01*
X359278Y929945D01*
X346922Y929945D01*
X346922Y932649D01*
X346922Y947649D02*
X359278Y947649D01*
X359278Y944945D01*
X346922Y944945D01*
X346922Y947649D01*
X331048Y955119D02*
X331048Y967475D01*
X333752Y967475D01*
X333752Y955119D01*
X331048Y955119D01*
X331048Y961721D02*
X333752Y961721D01*
X316048Y967475D02*
X316048Y955119D01*
X316048Y967475D02*
X318752Y967475D01*
X318752Y955119D01*
X316048Y955119D01*
X316048Y961721D02*
X318752Y961721D01*
X301048Y967475D02*
X301048Y955119D01*
X301048Y967475D02*
X303752Y967475D01*
X303752Y955119D01*
X301048Y955119D01*
X301048Y961721D02*
X303752Y961721D01*
X286048Y967475D02*
X286048Y955119D01*
X286048Y967475D02*
X288752Y967475D01*
X288752Y955119D01*
X286048Y955119D01*
X286048Y961721D02*
X288752Y961721D01*
X271048Y967475D02*
X271048Y955119D01*
X271048Y967475D02*
X273752Y967475D01*
X273752Y955119D01*
X271048Y955119D01*
X271048Y961721D02*
X273752Y961721D01*
X256048Y967475D02*
X256048Y955119D01*
X256048Y967475D02*
X258752Y967475D01*
X258752Y955119D01*
X256048Y955119D01*
X256048Y961721D02*
X258752Y961721D01*
X241048Y967475D02*
X241048Y955119D01*
X241048Y967475D02*
X243752Y967475D01*
X243752Y955119D01*
X241048Y955119D01*
X241048Y961721D02*
X243752Y961721D01*
X226048Y967475D02*
X226048Y955119D01*
X226048Y967475D02*
X228752Y967475D01*
X228752Y955119D01*
X226048Y955119D01*
X226048Y961721D02*
X228752Y961721D01*
X211048Y967475D02*
X211048Y955119D01*
X211048Y967475D02*
X213752Y967475D01*
X213752Y955119D01*
X211048Y955119D01*
X211048Y961721D02*
X213752Y961721D01*
X196048Y967475D02*
X196048Y955119D01*
X196048Y967475D02*
X198752Y967475D01*
X198752Y955119D01*
X196048Y955119D01*
X196048Y961721D02*
X198752Y961721D01*
X181048Y967475D02*
X181048Y955119D01*
X181048Y967475D02*
X183752Y967475D01*
X183752Y955119D01*
X181048Y955119D01*
X181048Y961721D02*
X183752Y961721D01*
X166048Y967475D02*
X166048Y955119D01*
X166048Y967475D02*
X168752Y967475D01*
X168752Y955119D01*
X166048Y955119D01*
X166048Y961721D02*
X168752Y961721D01*
X151048Y967475D02*
X151048Y955119D01*
X151048Y967475D02*
X153752Y967475D01*
X153752Y955119D01*
X151048Y955119D01*
X151048Y961721D02*
X153752Y961721D01*
M02*
