G04 EAGLE Gerber RS-274X export*
G75*
%MOMM*%
%FSLAX34Y34*%
%LPD*%
%INTop Paste*%
%IPPOS*%
%AMOC8*
5,1,8,0,0,1.08239X$1,22.5*%
G01*
%ADD10C,0.648000*%


D10*
X41360Y198830D02*
X28840Y198830D01*
X28840Y201350D01*
X41360Y201350D01*
X41360Y198830D01*
X41360Y183830D02*
X28840Y183830D01*
X28840Y186350D01*
X41360Y186350D01*
X41360Y183830D01*
X41360Y168830D02*
X28840Y168830D01*
X28840Y171350D01*
X41360Y171350D01*
X41360Y168830D01*
X41360Y153830D02*
X28840Y153830D01*
X28840Y156350D01*
X41360Y156350D01*
X41360Y153830D01*
X41360Y138830D02*
X28840Y138830D01*
X28840Y141350D01*
X41360Y141350D01*
X41360Y138830D01*
X41360Y123830D02*
X28840Y123830D01*
X28840Y126350D01*
X41360Y126350D01*
X41360Y123830D01*
X41360Y108830D02*
X28840Y108830D01*
X28840Y111350D01*
X41360Y111350D01*
X41360Y108830D01*
X41360Y93830D02*
X28840Y93830D01*
X28840Y96350D01*
X41360Y96350D01*
X41360Y93830D01*
X169840Y93830D02*
X182360Y93830D01*
X169840Y93830D02*
X169840Y96350D01*
X182360Y96350D01*
X182360Y93830D01*
X182360Y108830D02*
X169840Y108830D01*
X169840Y111350D01*
X182360Y111350D01*
X182360Y108830D01*
X182360Y123830D02*
X169840Y123830D01*
X169840Y126350D01*
X182360Y126350D01*
X182360Y123830D01*
X182360Y138830D02*
X169840Y138830D01*
X169840Y141350D01*
X182360Y141350D01*
X182360Y138830D01*
X182360Y153830D02*
X169840Y153830D01*
X169840Y156350D01*
X182360Y156350D01*
X182360Y153830D01*
X182360Y168830D02*
X169840Y168830D01*
X169840Y171350D01*
X182360Y171350D01*
X182360Y168830D01*
X182360Y183830D02*
X169840Y183830D01*
X169840Y186350D01*
X182360Y186350D01*
X182360Y183830D01*
X182360Y198830D02*
X169840Y198830D01*
X169840Y201350D01*
X182360Y201350D01*
X182360Y198830D01*
M02*
