G04 EAGLE Gerber RS-274X export*
G75*
%MOMM*%
%FSLAX34Y34*%
%LPD*%
%INTop Solder Mask*%
%IPPOS*%
%AMOC8*
5,1,8,0,0,1.08239X$1,22.5*%
G01*
%ADD10C,0.751200*%
%ADD11C,1.625600*%
%ADD12R,1.371600X0.736600*%


D10*
X41352Y198838D02*
X28848Y198838D01*
X28848Y201342D01*
X41352Y201342D01*
X41352Y198838D01*
X41352Y183838D02*
X28848Y183838D01*
X28848Y186342D01*
X41352Y186342D01*
X41352Y183838D01*
X41352Y168838D02*
X28848Y168838D01*
X28848Y171342D01*
X41352Y171342D01*
X41352Y168838D01*
X41352Y153838D02*
X28848Y153838D01*
X28848Y156342D01*
X41352Y156342D01*
X41352Y153838D01*
X41352Y138838D02*
X28848Y138838D01*
X28848Y141342D01*
X41352Y141342D01*
X41352Y138838D01*
X41352Y123838D02*
X28848Y123838D01*
X28848Y126342D01*
X41352Y126342D01*
X41352Y123838D01*
X41352Y108838D02*
X28848Y108838D01*
X28848Y111342D01*
X41352Y111342D01*
X41352Y108838D01*
X41352Y93838D02*
X28848Y93838D01*
X28848Y96342D01*
X41352Y96342D01*
X41352Y93838D01*
X169848Y93838D02*
X182352Y93838D01*
X169848Y93838D02*
X169848Y96342D01*
X182352Y96342D01*
X182352Y93838D01*
X182352Y108838D02*
X169848Y108838D01*
X169848Y111342D01*
X182352Y111342D01*
X182352Y108838D01*
X182352Y123838D02*
X169848Y123838D01*
X169848Y126342D01*
X182352Y126342D01*
X182352Y123838D01*
X182352Y138838D02*
X169848Y138838D01*
X169848Y141342D01*
X182352Y141342D01*
X182352Y138838D01*
X182352Y153838D02*
X169848Y153838D01*
X169848Y156342D01*
X182352Y156342D01*
X182352Y153838D01*
X182352Y168838D02*
X169848Y168838D01*
X169848Y171342D01*
X182352Y171342D01*
X182352Y168838D01*
X182352Y183838D02*
X169848Y183838D01*
X169848Y186342D01*
X182352Y186342D01*
X182352Y183838D01*
X182352Y198838D02*
X169848Y198838D01*
X169848Y201342D01*
X182352Y201342D01*
X182352Y198838D01*
D11*
X63500Y318770D02*
X63500Y334010D01*
X88900Y334010D02*
X88900Y318770D01*
X114300Y318770D02*
X114300Y334010D01*
X139700Y334010D02*
X139700Y318770D01*
X165100Y318770D02*
X165100Y334010D01*
X203200Y36830D02*
X203200Y21590D01*
X177800Y21590D02*
X177800Y36830D01*
X152400Y36830D02*
X152400Y21590D01*
X127000Y21590D02*
X127000Y36830D01*
X101600Y36830D02*
X101600Y21590D01*
X76200Y21590D02*
X76200Y36830D01*
X50800Y36830D02*
X50800Y21590D01*
X25400Y21590D02*
X25400Y36830D01*
D12*
X50800Y53340D03*
X50800Y63500D03*
X152400Y53340D03*
X152400Y63500D03*
M02*
