G04 EAGLE Gerber RS-274X export*
G75*
%MOMM*%
%FSLAX34Y34*%
%LPD*%
%INMechanical*%
%IPPOS*%
%AMOC8*
5,1,8,0,0,1.08239X$1,22.5*%
G01*
%ADD10C,0.000000*%
%ADD11C,0.254000*%


D10*
X0Y0D02*
X228600Y0D01*
X228600Y355600D01*
X0Y355600D01*
X0Y0D01*
X190500Y228600D02*
X190809Y228604D01*
X191118Y228615D01*
X191427Y228634D01*
X191735Y228660D01*
X192043Y228694D01*
X192349Y228735D01*
X192655Y228784D01*
X192959Y228840D01*
X193261Y228904D01*
X193562Y228975D01*
X193862Y229053D01*
X194159Y229138D01*
X194454Y229231D01*
X194747Y229331D01*
X195037Y229438D01*
X195324Y229552D01*
X195609Y229673D01*
X195891Y229801D01*
X196169Y229935D01*
X196444Y230077D01*
X196716Y230225D01*
X196983Y230380D01*
X197247Y230541D01*
X197507Y230708D01*
X197763Y230882D01*
X198015Y231062D01*
X198262Y231248D01*
X198504Y231440D01*
X198742Y231638D01*
X198975Y231841D01*
X199203Y232051D01*
X199425Y232265D01*
X199643Y232485D01*
X199855Y232711D01*
X200061Y232941D01*
X200262Y233176D01*
X200457Y233416D01*
X200646Y233661D01*
X200829Y233910D01*
X201006Y234164D01*
X201176Y234422D01*
X201341Y234684D01*
X201499Y234950D01*
X201650Y235220D01*
X201795Y235493D01*
X201933Y235770D01*
X202064Y236050D01*
X202188Y236333D01*
X202306Y236619D01*
X202416Y236908D01*
X202520Y237199D01*
X202616Y237493D01*
X202705Y237789D01*
X202787Y238088D01*
X202862Y238388D01*
X202929Y238690D01*
X202989Y238993D01*
X203041Y239298D01*
X203086Y239604D01*
X203124Y239911D01*
X203154Y240219D01*
X203176Y240527D01*
X203192Y240836D01*
X203199Y241145D01*
X203199Y241455D01*
X203192Y241764D01*
X203176Y242073D01*
X203154Y242381D01*
X203124Y242689D01*
X203086Y242996D01*
X203041Y243302D01*
X202989Y243607D01*
X202929Y243910D01*
X202862Y244212D01*
X202787Y244512D01*
X202705Y244811D01*
X202616Y245107D01*
X202520Y245401D01*
X202416Y245692D01*
X202306Y245981D01*
X202188Y246267D01*
X202064Y246550D01*
X201933Y246830D01*
X201795Y247107D01*
X201650Y247380D01*
X201499Y247650D01*
X201341Y247916D01*
X201176Y248178D01*
X201006Y248436D01*
X200829Y248690D01*
X200646Y248939D01*
X200457Y249184D01*
X200262Y249424D01*
X200061Y249659D01*
X199855Y249889D01*
X199643Y250115D01*
X199425Y250335D01*
X199203Y250549D01*
X198975Y250759D01*
X198742Y250962D01*
X198504Y251160D01*
X198262Y251352D01*
X198015Y251538D01*
X197763Y251718D01*
X197507Y251892D01*
X197247Y252059D01*
X196983Y252220D01*
X196716Y252375D01*
X196444Y252523D01*
X196169Y252665D01*
X195891Y252799D01*
X195609Y252927D01*
X195324Y253048D01*
X195037Y253162D01*
X194747Y253269D01*
X194454Y253369D01*
X194159Y253462D01*
X193862Y253547D01*
X193562Y253625D01*
X193261Y253696D01*
X192959Y253760D01*
X192655Y253816D01*
X192349Y253865D01*
X192043Y253906D01*
X191735Y253940D01*
X191427Y253966D01*
X191118Y253985D01*
X190809Y253996D01*
X190500Y254000D01*
X38100Y254000D02*
X37791Y253996D01*
X37482Y253985D01*
X37173Y253966D01*
X36865Y253940D01*
X36557Y253906D01*
X36251Y253865D01*
X35945Y253816D01*
X35641Y253760D01*
X35339Y253696D01*
X35038Y253625D01*
X34738Y253547D01*
X34441Y253462D01*
X34146Y253369D01*
X33853Y253269D01*
X33563Y253162D01*
X33276Y253048D01*
X32991Y252927D01*
X32709Y252799D01*
X32431Y252665D01*
X32156Y252523D01*
X31884Y252375D01*
X31617Y252220D01*
X31353Y252059D01*
X31093Y251892D01*
X30837Y251718D01*
X30585Y251538D01*
X30338Y251352D01*
X30096Y251160D01*
X29858Y250962D01*
X29625Y250759D01*
X29397Y250549D01*
X29175Y250335D01*
X28957Y250115D01*
X28745Y249889D01*
X28539Y249659D01*
X28338Y249424D01*
X28143Y249184D01*
X27954Y248939D01*
X27771Y248690D01*
X27594Y248436D01*
X27424Y248178D01*
X27259Y247916D01*
X27101Y247650D01*
X26950Y247380D01*
X26805Y247107D01*
X26667Y246830D01*
X26536Y246550D01*
X26412Y246267D01*
X26294Y245981D01*
X26184Y245692D01*
X26080Y245401D01*
X25984Y245107D01*
X25895Y244811D01*
X25813Y244512D01*
X25738Y244212D01*
X25671Y243910D01*
X25611Y243607D01*
X25559Y243302D01*
X25514Y242996D01*
X25476Y242689D01*
X25446Y242381D01*
X25424Y242073D01*
X25408Y241764D01*
X25401Y241455D01*
X25401Y241145D01*
X25408Y240836D01*
X25424Y240527D01*
X25446Y240219D01*
X25476Y239911D01*
X25514Y239604D01*
X25559Y239298D01*
X25611Y238993D01*
X25671Y238690D01*
X25738Y238388D01*
X25813Y238088D01*
X25895Y237789D01*
X25984Y237493D01*
X26080Y237199D01*
X26184Y236908D01*
X26294Y236619D01*
X26412Y236333D01*
X26536Y236050D01*
X26667Y235770D01*
X26805Y235493D01*
X26950Y235220D01*
X27101Y234950D01*
X27259Y234684D01*
X27424Y234422D01*
X27594Y234164D01*
X27771Y233910D01*
X27954Y233661D01*
X28143Y233416D01*
X28338Y233176D01*
X28539Y232941D01*
X28745Y232711D01*
X28957Y232485D01*
X29175Y232265D01*
X29397Y232051D01*
X29625Y231841D01*
X29858Y231638D01*
X30096Y231440D01*
X30338Y231248D01*
X30585Y231062D01*
X30837Y230882D01*
X31093Y230708D01*
X31353Y230541D01*
X31617Y230380D01*
X31884Y230225D01*
X32156Y230077D01*
X32431Y229935D01*
X32709Y229801D01*
X32991Y229673D01*
X33276Y229552D01*
X33563Y229438D01*
X33853Y229331D01*
X34146Y229231D01*
X34441Y229138D01*
X34738Y229053D01*
X35038Y228975D01*
X35339Y228904D01*
X35641Y228840D01*
X35945Y228784D01*
X36251Y228735D01*
X36557Y228694D01*
X36865Y228660D01*
X37173Y228634D01*
X37482Y228615D01*
X37791Y228604D01*
X38100Y228600D01*
X38100Y254000D02*
X190500Y254000D01*
X190500Y228600D02*
X38100Y228600D01*
D11*
X0Y0D02*
X228600Y0D01*
X228600Y355600D01*
X0Y355600D01*
X0Y0D01*
X38100Y228600D02*
X190500Y228600D01*
X191607Y228648D01*
X192705Y228793D01*
X193787Y229033D01*
X194844Y229366D01*
X195867Y229790D01*
X196850Y230301D01*
X197784Y230897D01*
X198663Y231571D01*
X199480Y232320D01*
X200229Y233137D01*
X200903Y234016D01*
X201499Y234950D01*
X202010Y235933D01*
X202434Y236956D01*
X202767Y238013D01*
X203007Y239095D01*
X203152Y240193D01*
X203200Y241300D01*
X203152Y242407D01*
X203007Y243505D01*
X202767Y244587D01*
X202434Y245644D01*
X202010Y246667D01*
X201499Y247650D01*
X200903Y248584D01*
X200229Y249463D01*
X199480Y250280D01*
X198663Y251029D01*
X197784Y251703D01*
X196850Y252299D01*
X195867Y252810D01*
X194844Y253234D01*
X193787Y253567D01*
X192705Y253807D01*
X191607Y253952D01*
X190500Y254000D01*
X38100Y254000D01*
X36993Y253952D01*
X35895Y253807D01*
X34813Y253567D01*
X33756Y253234D01*
X32733Y252810D01*
X31750Y252299D01*
X30816Y251703D01*
X29937Y251029D01*
X29120Y250280D01*
X28371Y249463D01*
X27697Y248584D01*
X27101Y247650D01*
X26590Y246667D01*
X26166Y245644D01*
X25833Y244587D01*
X25593Y243505D01*
X25448Y242407D01*
X25400Y241300D01*
X25448Y240193D01*
X25593Y239095D01*
X25833Y238013D01*
X26166Y236956D01*
X26590Y235933D01*
X27101Y234950D01*
X27697Y234016D01*
X28371Y233137D01*
X29120Y232320D01*
X29937Y231571D01*
X30816Y230897D01*
X31750Y230301D01*
X32733Y229790D01*
X33756Y229366D01*
X34813Y229033D01*
X35895Y228793D01*
X36993Y228648D01*
X38100Y228600D01*
M02*
