G04 EAGLE Gerber RS-274X export*
G75*
%MOMM*%
%FSLAX34Y34*%
%LPD*%
%INBottom Copper*%
%IPPOS*%
%AMOC8*
5,1,8,0,0,1.08239X$1,22.5*%
G01*
%ADD10C,1.524000*%
%ADD11R,1.600000X1.803000*%
%ADD12R,1.524000X1.270000*%
%ADD13C,0.609600*%
%ADD14C,0.254000*%
%ADD15C,0.203200*%
%ADD16C,0.152400*%
%ADD17C,0.654800*%

G36*
X14407Y394726D02*
X14407Y394726D01*
X14484Y394724D01*
X14580Y394745D01*
X14678Y394757D01*
X14750Y394782D01*
X14824Y394799D01*
X14913Y394841D01*
X15006Y394874D01*
X15070Y394916D01*
X15139Y394948D01*
X15216Y395010D01*
X15299Y395063D01*
X15352Y395118D01*
X15411Y395166D01*
X15472Y395243D01*
X15541Y395314D01*
X15580Y395379D01*
X15627Y395439D01*
X15696Y395573D01*
X15720Y395613D01*
X15725Y395631D01*
X15739Y395657D01*
X16786Y398186D01*
X19644Y401044D01*
X20399Y401356D01*
X20466Y401394D01*
X20537Y401422D01*
X20617Y401478D01*
X20704Y401526D01*
X20760Y401577D01*
X20823Y401621D01*
X20889Y401694D01*
X20962Y401760D01*
X21005Y401823D01*
X21056Y401879D01*
X21104Y401966D01*
X21160Y402046D01*
X21188Y402118D01*
X21225Y402184D01*
X21252Y402279D01*
X21288Y402371D01*
X21299Y402446D01*
X21320Y402520D01*
X21332Y402669D01*
X21339Y402715D01*
X21337Y402735D01*
X21339Y402764D01*
X21339Y403481D01*
X21336Y403507D01*
X21338Y403533D01*
X21316Y403680D01*
X21299Y403827D01*
X21291Y403852D01*
X21287Y403878D01*
X21232Y404016D01*
X21182Y404155D01*
X21168Y404177D01*
X21158Y404202D01*
X21073Y404323D01*
X20993Y404448D01*
X20974Y404466D01*
X20959Y404488D01*
X20849Y404587D01*
X20742Y404690D01*
X20720Y404704D01*
X20700Y404721D01*
X20570Y404793D01*
X20443Y404869D01*
X20418Y404877D01*
X20395Y404890D01*
X20252Y404930D01*
X20111Y404975D01*
X20085Y404977D01*
X20060Y404985D01*
X19816Y405004D01*
X16098Y405004D01*
X14609Y406493D01*
X14609Y426627D01*
X16098Y428116D01*
X25965Y428116D01*
X26090Y428130D01*
X26217Y428137D01*
X26263Y428150D01*
X26311Y428156D01*
X26430Y428198D01*
X26551Y428233D01*
X26594Y428257D01*
X26639Y428273D01*
X26745Y428342D01*
X26856Y428403D01*
X26902Y428443D01*
X26932Y428462D01*
X26965Y428497D01*
X27042Y428562D01*
X33837Y435357D01*
X39116Y435357D01*
X39142Y435360D01*
X39168Y435358D01*
X39315Y435380D01*
X39462Y435397D01*
X39487Y435405D01*
X39513Y435409D01*
X39651Y435464D01*
X39790Y435514D01*
X39812Y435528D01*
X39837Y435538D01*
X39958Y435623D01*
X40083Y435703D01*
X40101Y435722D01*
X40123Y435737D01*
X40222Y435847D01*
X40325Y435954D01*
X40339Y435976D01*
X40356Y435996D01*
X40428Y436126D01*
X40504Y436253D01*
X40512Y436278D01*
X40525Y436301D01*
X40565Y436444D01*
X40610Y436585D01*
X40612Y436611D01*
X40620Y436636D01*
X40639Y436880D01*
X40639Y528628D01*
X49222Y537211D01*
X124791Y537211D01*
X124916Y537225D01*
X125042Y537232D01*
X125089Y537245D01*
X125137Y537251D01*
X125256Y537293D01*
X125377Y537328D01*
X125419Y537352D01*
X125465Y537368D01*
X125571Y537437D01*
X125681Y537498D01*
X125728Y537538D01*
X125758Y537557D01*
X125791Y537592D01*
X125868Y537657D01*
X133665Y545454D01*
X133744Y545553D01*
X133828Y545647D01*
X133852Y545690D01*
X133882Y545727D01*
X133936Y545842D01*
X133997Y545952D01*
X134010Y545999D01*
X134031Y546042D01*
X134057Y546166D01*
X134092Y546288D01*
X134097Y546348D01*
X134104Y546383D01*
X134103Y546431D01*
X134111Y546531D01*
X134111Y547212D01*
X134962Y549266D01*
X136534Y550838D01*
X138588Y551689D01*
X140812Y551689D01*
X142866Y550838D01*
X144438Y549266D01*
X145289Y547212D01*
X145289Y544988D01*
X144438Y542934D01*
X142866Y541362D01*
X142371Y541157D01*
X142284Y541109D01*
X142191Y541069D01*
X142132Y541024D01*
X142067Y540988D01*
X141992Y540921D01*
X141912Y540861D01*
X141864Y540804D01*
X141809Y540754D01*
X141752Y540671D01*
X141687Y540595D01*
X141653Y540528D01*
X141610Y540467D01*
X141574Y540374D01*
X141528Y540284D01*
X141510Y540212D01*
X141483Y540143D01*
X141468Y540044D01*
X141444Y539946D01*
X141443Y539872D01*
X141432Y539798D01*
X141440Y539698D01*
X141439Y539598D01*
X141455Y539525D01*
X141461Y539451D01*
X141492Y539355D01*
X141513Y539257D01*
X141545Y539190D01*
X141568Y539119D01*
X141619Y539033D01*
X141663Y538942D01*
X141709Y538884D01*
X141747Y538821D01*
X141817Y538749D01*
X141880Y538670D01*
X141938Y538624D01*
X141990Y538571D01*
X142075Y538516D01*
X142154Y538454D01*
X142243Y538408D01*
X142284Y538382D01*
X142317Y538370D01*
X142371Y538343D01*
X142866Y538138D01*
X144438Y536566D01*
X145289Y534512D01*
X145289Y532288D01*
X144438Y530234D01*
X142866Y528662D01*
X140812Y527811D01*
X140131Y527811D01*
X140006Y527797D01*
X139880Y527790D01*
X139833Y527777D01*
X139785Y527771D01*
X139666Y527729D01*
X139545Y527694D01*
X139503Y527670D01*
X139457Y527654D01*
X139351Y527585D01*
X139241Y527524D01*
X139194Y527484D01*
X139164Y527465D01*
X139131Y527430D01*
X139054Y527365D01*
X134928Y523239D01*
X59359Y523239D01*
X59234Y523225D01*
X59108Y523218D01*
X59061Y523205D01*
X59013Y523199D01*
X58894Y523157D01*
X58773Y523122D01*
X58731Y523098D01*
X58685Y523082D01*
X58579Y523013D01*
X58469Y522952D01*
X58422Y522912D01*
X58392Y522893D01*
X58359Y522858D01*
X58282Y522793D01*
X55057Y519568D01*
X54978Y519469D01*
X54894Y519375D01*
X54870Y519332D01*
X54840Y519295D01*
X54786Y519180D01*
X54725Y519070D01*
X54712Y519023D01*
X54691Y518980D01*
X54665Y518856D01*
X54630Y518734D01*
X54625Y518674D01*
X54618Y518639D01*
X54619Y518591D01*
X54611Y518491D01*
X54611Y444144D01*
X54625Y444018D01*
X54632Y443892D01*
X54645Y443846D01*
X54651Y443798D01*
X54693Y443679D01*
X54728Y443557D01*
X54752Y443515D01*
X54768Y443470D01*
X54837Y443363D01*
X54898Y443253D01*
X54938Y443207D01*
X54957Y443177D01*
X54992Y443143D01*
X55057Y443067D01*
X55538Y442586D01*
X56389Y440532D01*
X56389Y438308D01*
X55538Y436254D01*
X53966Y434682D01*
X51912Y433831D01*
X49784Y433831D01*
X49758Y433828D01*
X49732Y433830D01*
X49585Y433808D01*
X49438Y433791D01*
X49413Y433783D01*
X49387Y433779D01*
X49249Y433724D01*
X49110Y433674D01*
X49088Y433660D01*
X49063Y433650D01*
X48942Y433565D01*
X48817Y433485D01*
X48799Y433466D01*
X48777Y433451D01*
X48678Y433341D01*
X48575Y433234D01*
X48561Y433212D01*
X48544Y433192D01*
X48472Y433062D01*
X48396Y432935D01*
X48388Y432910D01*
X48375Y432887D01*
X48335Y432744D01*
X48290Y432603D01*
X48288Y432577D01*
X48280Y432552D01*
X48261Y432308D01*
X48261Y429639D01*
X48264Y429613D01*
X48262Y429587D01*
X48284Y429440D01*
X48301Y429293D01*
X48309Y429268D01*
X48313Y429242D01*
X48368Y429104D01*
X48418Y428965D01*
X48432Y428943D01*
X48442Y428918D01*
X48527Y428797D01*
X48607Y428672D01*
X48626Y428654D01*
X48641Y428632D01*
X48751Y428533D01*
X48858Y428430D01*
X48880Y428416D01*
X48900Y428399D01*
X49030Y428327D01*
X49157Y428251D01*
X49182Y428243D01*
X49205Y428230D01*
X49348Y428190D01*
X49489Y428145D01*
X49515Y428143D01*
X49540Y428135D01*
X49784Y428116D01*
X62642Y428116D01*
X64131Y426627D01*
X64131Y415599D01*
X64145Y415474D01*
X64152Y415348D01*
X64165Y415301D01*
X64171Y415253D01*
X64213Y415134D01*
X64248Y415013D01*
X64272Y414971D01*
X64288Y414925D01*
X64357Y414819D01*
X64418Y414709D01*
X64458Y414662D01*
X64477Y414632D01*
X64512Y414599D01*
X64577Y414522D01*
X69712Y409387D01*
X69811Y409308D01*
X69905Y409224D01*
X69948Y409200D01*
X69985Y409170D01*
X70100Y409116D01*
X70210Y409055D01*
X70257Y409042D01*
X70300Y409021D01*
X70424Y408995D01*
X70546Y408960D01*
X70606Y408955D01*
X70641Y408948D01*
X70689Y408949D01*
X70789Y408941D01*
X114608Y408941D01*
X121416Y402133D01*
X121476Y402085D01*
X121529Y402031D01*
X121612Y401977D01*
X121689Y401916D01*
X121758Y401884D01*
X121823Y401842D01*
X121915Y401809D01*
X122004Y401767D01*
X122079Y401751D01*
X122151Y401726D01*
X122249Y401715D01*
X122345Y401694D01*
X122421Y401695D01*
X122497Y401687D01*
X122595Y401698D01*
X122694Y401700D01*
X122768Y401719D01*
X122844Y401728D01*
X122986Y401773D01*
X123032Y401785D01*
X123049Y401794D01*
X123076Y401803D01*
X124979Y402591D01*
X129021Y402591D01*
X129127Y402547D01*
X129201Y402526D01*
X129271Y402495D01*
X129368Y402478D01*
X129463Y402451D01*
X129539Y402447D01*
X129614Y402434D01*
X129713Y402439D01*
X129811Y402434D01*
X129886Y402448D01*
X129962Y402452D01*
X130057Y402479D01*
X130154Y402496D01*
X130224Y402527D01*
X130297Y402548D01*
X130383Y402596D01*
X130473Y402635D01*
X130535Y402681D01*
X130601Y402718D01*
X130715Y402815D01*
X130753Y402843D01*
X130765Y402858D01*
X130788Y402877D01*
X135443Y407532D01*
X138122Y410211D01*
X188291Y410211D01*
X188416Y410225D01*
X188542Y410232D01*
X188589Y410245D01*
X188637Y410251D01*
X188756Y410293D01*
X188877Y410328D01*
X188919Y410352D01*
X188965Y410368D01*
X189071Y410437D01*
X189181Y410498D01*
X189228Y410538D01*
X189258Y410557D01*
X189291Y410592D01*
X189368Y410657D01*
X190647Y411936D01*
X190663Y411956D01*
X190683Y411973D01*
X190729Y412036D01*
X190762Y412070D01*
X190789Y412115D01*
X190863Y412209D01*
X190875Y412233D01*
X190890Y412254D01*
X190938Y412364D01*
X190941Y412369D01*
X190943Y412376D01*
X190949Y412390D01*
X191012Y412524D01*
X191018Y412550D01*
X191028Y412574D01*
X191054Y412720D01*
X191086Y412865D01*
X191085Y412891D01*
X191090Y412917D01*
X191082Y413065D01*
X191080Y413213D01*
X191073Y413239D01*
X191072Y413265D01*
X191031Y413407D01*
X190995Y413551D01*
X190983Y413574D01*
X190975Y413600D01*
X190903Y413729D01*
X190835Y413861D01*
X190818Y413881D01*
X190805Y413904D01*
X190647Y414090D01*
X190499Y414238D01*
X190499Y429042D01*
X191988Y430531D01*
X208611Y430531D01*
X208736Y430545D01*
X208862Y430552D01*
X208909Y430565D01*
X208957Y430571D01*
X209076Y430613D01*
X209197Y430648D01*
X209239Y430672D01*
X209285Y430688D01*
X209391Y430757D01*
X209501Y430818D01*
X209548Y430858D01*
X209578Y430877D01*
X209611Y430912D01*
X209688Y430977D01*
X216723Y438012D01*
X216802Y438111D01*
X216886Y438205D01*
X216910Y438248D01*
X216940Y438285D01*
X216994Y438400D01*
X217055Y438510D01*
X217068Y438557D01*
X217089Y438600D01*
X217115Y438724D01*
X217150Y438846D01*
X217155Y438906D01*
X217162Y438941D01*
X217161Y438989D01*
X217169Y439089D01*
X217169Y561340D01*
X217166Y561366D01*
X217168Y561392D01*
X217146Y561539D01*
X217129Y561686D01*
X217121Y561711D01*
X217117Y561737D01*
X217062Y561875D01*
X217012Y562014D01*
X216998Y562036D01*
X216988Y562061D01*
X216903Y562182D01*
X216823Y562307D01*
X216804Y562325D01*
X216789Y562347D01*
X216679Y562446D01*
X216572Y562549D01*
X216550Y562563D01*
X216530Y562580D01*
X216400Y562652D01*
X216273Y562728D01*
X216248Y562736D01*
X216225Y562749D01*
X216082Y562789D01*
X215941Y562834D01*
X215915Y562836D01*
X215890Y562844D01*
X215646Y562863D01*
X214088Y562863D01*
X214062Y562860D01*
X214036Y562862D01*
X213889Y562840D01*
X213742Y562823D01*
X213717Y562815D01*
X213691Y562811D01*
X213553Y562756D01*
X213414Y562706D01*
X213392Y562692D01*
X213367Y562682D01*
X213246Y562597D01*
X213121Y562517D01*
X213103Y562498D01*
X213081Y562483D01*
X212982Y562373D01*
X212879Y562266D01*
X212865Y562244D01*
X212848Y562224D01*
X212776Y562094D01*
X212700Y561967D01*
X212692Y561942D01*
X212679Y561919D01*
X212639Y561776D01*
X212594Y561635D01*
X212592Y561609D01*
X212584Y561584D01*
X212565Y561340D01*
X212565Y542456D01*
X152311Y482202D01*
X152232Y482103D01*
X152148Y482009D01*
X152124Y481966D01*
X152094Y481929D01*
X152040Y481814D01*
X151979Y481704D01*
X151966Y481657D01*
X151945Y481614D01*
X151919Y481490D01*
X151884Y481368D01*
X151879Y481308D01*
X151872Y481273D01*
X151873Y481225D01*
X151865Y481125D01*
X151865Y480173D01*
X150979Y478036D01*
X149344Y476401D01*
X147207Y475515D01*
X144893Y475515D01*
X142756Y476401D01*
X141121Y478036D01*
X140235Y480173D01*
X140235Y482487D01*
X141121Y484624D01*
X142756Y486259D01*
X144893Y487145D01*
X145845Y487145D01*
X145970Y487159D01*
X146096Y487166D01*
X146143Y487179D01*
X146191Y487185D01*
X146310Y487227D01*
X146431Y487262D01*
X146473Y487286D01*
X146519Y487302D01*
X146625Y487371D01*
X146735Y487432D01*
X146782Y487472D01*
X146812Y487491D01*
X146845Y487526D01*
X146922Y487591D01*
X204497Y545166D01*
X204576Y545265D01*
X204660Y545359D01*
X204684Y545402D01*
X204714Y545439D01*
X204768Y545554D01*
X204829Y545664D01*
X204842Y545711D01*
X204863Y545754D01*
X204889Y545878D01*
X204924Y546000D01*
X204929Y546060D01*
X204936Y546095D01*
X204935Y546143D01*
X204943Y546243D01*
X204943Y561340D01*
X204940Y561366D01*
X204942Y561392D01*
X204920Y561539D01*
X204903Y561686D01*
X204895Y561711D01*
X204891Y561737D01*
X204836Y561875D01*
X204786Y562014D01*
X204772Y562036D01*
X204762Y562061D01*
X204677Y562182D01*
X204597Y562307D01*
X204578Y562325D01*
X204563Y562347D01*
X204453Y562446D01*
X204346Y562549D01*
X204324Y562563D01*
X204304Y562580D01*
X204174Y562652D01*
X204047Y562728D01*
X204022Y562736D01*
X203999Y562749D01*
X203856Y562789D01*
X203715Y562834D01*
X203689Y562836D01*
X203664Y562844D01*
X203420Y562863D01*
X12700Y562863D01*
X12674Y562860D01*
X12648Y562862D01*
X12501Y562840D01*
X12354Y562823D01*
X12329Y562815D01*
X12303Y562811D01*
X12165Y562756D01*
X12026Y562706D01*
X12004Y562692D01*
X11979Y562682D01*
X11858Y562597D01*
X11733Y562517D01*
X11715Y562498D01*
X11693Y562483D01*
X11594Y562373D01*
X11491Y562266D01*
X11477Y562244D01*
X11460Y562224D01*
X11388Y562094D01*
X11312Y561967D01*
X11304Y561942D01*
X11291Y561919D01*
X11251Y561776D01*
X11206Y561635D01*
X11204Y561609D01*
X11196Y561584D01*
X11177Y561340D01*
X11177Y396240D01*
X11180Y396214D01*
X11178Y396188D01*
X11200Y396041D01*
X11217Y395894D01*
X11225Y395869D01*
X11229Y395843D01*
X11284Y395705D01*
X11334Y395566D01*
X11348Y395544D01*
X11358Y395519D01*
X11443Y395398D01*
X11523Y395273D01*
X11542Y395255D01*
X11557Y395233D01*
X11667Y395134D01*
X11774Y395031D01*
X11796Y395017D01*
X11816Y395000D01*
X11946Y394928D01*
X12073Y394852D01*
X12098Y394844D01*
X12121Y394831D01*
X12264Y394791D01*
X12405Y394746D01*
X12431Y394744D01*
X12456Y394736D01*
X12700Y394717D01*
X14332Y394717D01*
X14407Y394726D01*
G37*
G36*
X471607Y39126D02*
X471607Y39126D01*
X471684Y39124D01*
X471780Y39145D01*
X471878Y39157D01*
X471950Y39182D01*
X472024Y39199D01*
X472113Y39241D01*
X472206Y39274D01*
X472270Y39316D01*
X472339Y39348D01*
X472416Y39410D01*
X472499Y39463D01*
X472552Y39518D01*
X472611Y39566D01*
X472672Y39643D01*
X472741Y39714D01*
X472780Y39779D01*
X472827Y39839D01*
X472896Y39973D01*
X472920Y40013D01*
X472925Y40031D01*
X472939Y40057D01*
X473986Y42586D01*
X476844Y45444D01*
X477599Y45756D01*
X477666Y45794D01*
X477737Y45822D01*
X477817Y45878D01*
X477904Y45926D01*
X477960Y45977D01*
X478023Y46021D01*
X478089Y46094D01*
X478162Y46160D01*
X478205Y46223D01*
X478256Y46279D01*
X478304Y46366D01*
X478360Y46446D01*
X478388Y46518D01*
X478425Y46584D01*
X478452Y46679D01*
X478488Y46771D01*
X478499Y46846D01*
X478520Y46920D01*
X478532Y47069D01*
X478539Y47115D01*
X478537Y47135D01*
X478539Y47164D01*
X478539Y47881D01*
X478536Y47907D01*
X478538Y47933D01*
X478516Y48080D01*
X478499Y48227D01*
X478491Y48252D01*
X478487Y48278D01*
X478432Y48416D01*
X478382Y48555D01*
X478368Y48577D01*
X478358Y48602D01*
X478273Y48723D01*
X478193Y48848D01*
X478174Y48866D01*
X478159Y48888D01*
X478049Y48987D01*
X477942Y49090D01*
X477920Y49104D01*
X477900Y49121D01*
X477770Y49193D01*
X477643Y49269D01*
X477618Y49277D01*
X477595Y49290D01*
X477452Y49330D01*
X477311Y49375D01*
X477285Y49377D01*
X477260Y49385D01*
X477016Y49404D01*
X473298Y49404D01*
X471809Y50893D01*
X471809Y71027D01*
X473298Y72516D01*
X483165Y72516D01*
X483290Y72530D01*
X483417Y72537D01*
X483463Y72550D01*
X483511Y72556D01*
X483630Y72598D01*
X483752Y72633D01*
X483794Y72657D01*
X483839Y72673D01*
X483945Y72742D01*
X484056Y72803D01*
X484102Y72843D01*
X484132Y72862D01*
X484165Y72897D01*
X484242Y72962D01*
X488507Y77227D01*
X491037Y79757D01*
X496316Y79757D01*
X496342Y79760D01*
X496368Y79758D01*
X496515Y79780D01*
X496662Y79797D01*
X496687Y79805D01*
X496713Y79809D01*
X496851Y79864D01*
X496990Y79914D01*
X497012Y79928D01*
X497037Y79938D01*
X497158Y80023D01*
X497283Y80103D01*
X497301Y80122D01*
X497323Y80137D01*
X497422Y80247D01*
X497525Y80354D01*
X497539Y80376D01*
X497556Y80396D01*
X497628Y80526D01*
X497704Y80653D01*
X497712Y80678D01*
X497725Y80701D01*
X497765Y80844D01*
X497810Y80985D01*
X497812Y81011D01*
X497820Y81036D01*
X497839Y81280D01*
X497839Y173028D01*
X506422Y181611D01*
X581991Y181611D01*
X582116Y181625D01*
X582242Y181632D01*
X582289Y181645D01*
X582337Y181651D01*
X582456Y181693D01*
X582577Y181728D01*
X582619Y181752D01*
X582665Y181768D01*
X582771Y181837D01*
X582881Y181898D01*
X582928Y181938D01*
X582958Y181957D01*
X582991Y181992D01*
X583068Y182057D01*
X590865Y189854D01*
X590944Y189953D01*
X591028Y190047D01*
X591052Y190090D01*
X591082Y190127D01*
X591136Y190242D01*
X591197Y190352D01*
X591210Y190399D01*
X591231Y190442D01*
X591257Y190566D01*
X591292Y190688D01*
X591297Y190748D01*
X591304Y190783D01*
X591303Y190831D01*
X591311Y190931D01*
X591311Y191612D01*
X592162Y193666D01*
X593734Y195238D01*
X595788Y196089D01*
X598012Y196089D01*
X600066Y195238D01*
X601638Y193666D01*
X602489Y191612D01*
X602489Y189388D01*
X601638Y187334D01*
X600066Y185762D01*
X599571Y185557D01*
X599484Y185508D01*
X599391Y185468D01*
X599332Y185424D01*
X599267Y185388D01*
X599192Y185320D01*
X599112Y185261D01*
X599064Y185204D01*
X599009Y185154D01*
X598951Y185071D01*
X598887Y184995D01*
X598853Y184928D01*
X598810Y184867D01*
X598774Y184774D01*
X598728Y184684D01*
X598710Y184612D01*
X598683Y184543D01*
X598668Y184443D01*
X598644Y184346D01*
X598643Y184272D01*
X598632Y184198D01*
X598640Y184098D01*
X598639Y183998D01*
X598654Y183925D01*
X598661Y183851D01*
X598692Y183755D01*
X598713Y183657D01*
X598745Y183590D01*
X598768Y183519D01*
X598820Y183433D01*
X598863Y183342D01*
X598909Y183284D01*
X598947Y183221D01*
X599017Y183148D01*
X599080Y183070D01*
X599138Y183024D01*
X599190Y182971D01*
X599275Y182916D01*
X599354Y182854D01*
X599443Y182808D01*
X599484Y182782D01*
X599517Y182770D01*
X599571Y182743D01*
X600066Y182538D01*
X601638Y180966D01*
X602489Y178912D01*
X602489Y176688D01*
X601638Y174634D01*
X600066Y173062D01*
X598012Y172211D01*
X597331Y172211D01*
X597206Y172197D01*
X597080Y172190D01*
X597033Y172177D01*
X596985Y172171D01*
X596866Y172129D01*
X596745Y172094D01*
X596703Y172070D01*
X596657Y172054D01*
X596551Y171985D01*
X596441Y171924D01*
X596394Y171884D01*
X596364Y171865D01*
X596331Y171830D01*
X596254Y171765D01*
X592128Y167639D01*
X516559Y167639D01*
X516434Y167625D01*
X516308Y167618D01*
X516261Y167605D01*
X516213Y167599D01*
X516094Y167557D01*
X515973Y167522D01*
X515931Y167498D01*
X515885Y167482D01*
X515779Y167413D01*
X515669Y167352D01*
X515622Y167312D01*
X515592Y167293D01*
X515559Y167258D01*
X515482Y167193D01*
X512257Y163968D01*
X512178Y163869D01*
X512094Y163775D01*
X512070Y163732D01*
X512040Y163695D01*
X511986Y163580D01*
X511925Y163470D01*
X511912Y163423D01*
X511891Y163380D01*
X511865Y163256D01*
X511830Y163134D01*
X511825Y163074D01*
X511818Y163039D01*
X511819Y162991D01*
X511811Y162891D01*
X511811Y88544D01*
X511825Y88418D01*
X511832Y88292D01*
X511845Y88246D01*
X511851Y88198D01*
X511893Y88079D01*
X511928Y87957D01*
X511952Y87915D01*
X511968Y87870D01*
X512037Y87763D01*
X512098Y87653D01*
X512138Y87607D01*
X512157Y87577D01*
X512192Y87543D01*
X512257Y87467D01*
X512738Y86986D01*
X513589Y84932D01*
X513589Y82708D01*
X512738Y80654D01*
X511166Y79082D01*
X509112Y78231D01*
X506984Y78231D01*
X506958Y78228D01*
X506932Y78230D01*
X506785Y78208D01*
X506638Y78191D01*
X506613Y78183D01*
X506587Y78179D01*
X506449Y78124D01*
X506310Y78074D01*
X506288Y78060D01*
X506263Y78050D01*
X506142Y77965D01*
X506017Y77885D01*
X505999Y77866D01*
X505977Y77851D01*
X505878Y77741D01*
X505775Y77634D01*
X505761Y77612D01*
X505744Y77592D01*
X505672Y77462D01*
X505596Y77335D01*
X505588Y77310D01*
X505575Y77287D01*
X505535Y77144D01*
X505490Y77003D01*
X505488Y76977D01*
X505480Y76952D01*
X505461Y76708D01*
X505461Y74039D01*
X505464Y74013D01*
X505462Y73987D01*
X505484Y73840D01*
X505501Y73693D01*
X505509Y73668D01*
X505513Y73642D01*
X505568Y73504D01*
X505618Y73365D01*
X505632Y73343D01*
X505642Y73318D01*
X505727Y73197D01*
X505807Y73072D01*
X505826Y73054D01*
X505841Y73032D01*
X505951Y72933D01*
X506058Y72830D01*
X506080Y72816D01*
X506100Y72799D01*
X506230Y72727D01*
X506357Y72651D01*
X506382Y72643D01*
X506405Y72630D01*
X506548Y72590D01*
X506689Y72545D01*
X506715Y72543D01*
X506740Y72535D01*
X506984Y72516D01*
X519842Y72516D01*
X521331Y71027D01*
X521331Y59999D01*
X521345Y59874D01*
X521352Y59748D01*
X521365Y59701D01*
X521371Y59653D01*
X521413Y59534D01*
X521448Y59413D01*
X521472Y59371D01*
X521488Y59325D01*
X521557Y59219D01*
X521618Y59109D01*
X521658Y59062D01*
X521677Y59032D01*
X521712Y58999D01*
X521777Y58922D01*
X526912Y53787D01*
X527011Y53708D01*
X527105Y53624D01*
X527148Y53600D01*
X527185Y53570D01*
X527300Y53516D01*
X527410Y53455D01*
X527457Y53442D01*
X527500Y53421D01*
X527624Y53395D01*
X527746Y53360D01*
X527806Y53355D01*
X527841Y53348D01*
X527889Y53349D01*
X527989Y53341D01*
X571808Y53341D01*
X578616Y46533D01*
X578676Y46485D01*
X578729Y46431D01*
X578812Y46377D01*
X578889Y46316D01*
X578958Y46284D01*
X579023Y46242D01*
X579115Y46209D01*
X579204Y46167D01*
X579279Y46151D01*
X579351Y46126D01*
X579449Y46115D01*
X579545Y46094D01*
X579621Y46095D01*
X579697Y46087D01*
X579795Y46098D01*
X579894Y46100D01*
X579968Y46119D01*
X580044Y46128D01*
X580186Y46173D01*
X580232Y46185D01*
X580249Y46194D01*
X580276Y46203D01*
X582179Y46991D01*
X586221Y46991D01*
X586328Y46947D01*
X586401Y46926D01*
X586471Y46895D01*
X586568Y46878D01*
X586663Y46851D01*
X586739Y46847D01*
X586814Y46834D01*
X586913Y46839D01*
X587011Y46834D01*
X587086Y46848D01*
X587162Y46852D01*
X587257Y46879D01*
X587354Y46897D01*
X587424Y46927D01*
X587497Y46948D01*
X587583Y46996D01*
X587673Y47035D01*
X587735Y47081D01*
X587801Y47118D01*
X587915Y47215D01*
X587953Y47243D01*
X587965Y47258D01*
X587988Y47277D01*
X592643Y51932D01*
X595322Y54611D01*
X645491Y54611D01*
X645616Y54625D01*
X645742Y54632D01*
X645789Y54645D01*
X645837Y54651D01*
X645956Y54693D01*
X646077Y54728D01*
X646119Y54752D01*
X646165Y54768D01*
X646271Y54837D01*
X646381Y54898D01*
X646428Y54938D01*
X646458Y54957D01*
X646491Y54992D01*
X646568Y55057D01*
X647847Y56336D01*
X647863Y56356D01*
X647883Y56373D01*
X647929Y56436D01*
X647962Y56470D01*
X647989Y56515D01*
X648063Y56609D01*
X648075Y56633D01*
X648090Y56654D01*
X648138Y56764D01*
X648141Y56769D01*
X648143Y56776D01*
X648149Y56790D01*
X648212Y56924D01*
X648218Y56950D01*
X648228Y56974D01*
X648254Y57120D01*
X648286Y57265D01*
X648285Y57291D01*
X648290Y57317D01*
X648282Y57465D01*
X648280Y57613D01*
X648273Y57639D01*
X648272Y57665D01*
X648231Y57807D01*
X648195Y57951D01*
X648183Y57974D01*
X648175Y58000D01*
X648103Y58129D01*
X648035Y58261D01*
X648018Y58281D01*
X648005Y58304D01*
X647847Y58490D01*
X647699Y58638D01*
X647699Y73442D01*
X649188Y74931D01*
X665811Y74931D01*
X665936Y74945D01*
X666062Y74952D01*
X666109Y74965D01*
X666157Y74971D01*
X666276Y75013D01*
X666397Y75048D01*
X666439Y75072D01*
X666485Y75088D01*
X666591Y75157D01*
X666701Y75218D01*
X666748Y75258D01*
X666778Y75277D01*
X666811Y75312D01*
X666888Y75377D01*
X673923Y82412D01*
X674002Y82511D01*
X674086Y82605D01*
X674110Y82648D01*
X674140Y82685D01*
X674194Y82800D01*
X674255Y82910D01*
X674268Y82957D01*
X674289Y83000D01*
X674315Y83124D01*
X674350Y83246D01*
X674355Y83306D01*
X674362Y83341D01*
X674361Y83389D01*
X674369Y83489D01*
X674369Y205740D01*
X674366Y205766D01*
X674368Y205792D01*
X674346Y205939D01*
X674329Y206086D01*
X674321Y206111D01*
X674317Y206137D01*
X674262Y206275D01*
X674212Y206414D01*
X674198Y206436D01*
X674188Y206461D01*
X674103Y206582D01*
X674023Y206707D01*
X674004Y206725D01*
X673989Y206747D01*
X673879Y206846D01*
X673772Y206949D01*
X673750Y206963D01*
X673730Y206980D01*
X673600Y207052D01*
X673473Y207128D01*
X673448Y207136D01*
X673425Y207149D01*
X673282Y207189D01*
X673141Y207234D01*
X673115Y207236D01*
X673090Y207244D01*
X672846Y207263D01*
X671288Y207263D01*
X671262Y207260D01*
X671236Y207262D01*
X671089Y207240D01*
X670942Y207223D01*
X670917Y207215D01*
X670891Y207211D01*
X670753Y207156D01*
X670614Y207106D01*
X670592Y207092D01*
X670567Y207082D01*
X670446Y206997D01*
X670321Y206917D01*
X670303Y206898D01*
X670281Y206883D01*
X670182Y206773D01*
X670079Y206666D01*
X670065Y206644D01*
X670048Y206624D01*
X669976Y206494D01*
X669900Y206367D01*
X669892Y206342D01*
X669879Y206319D01*
X669839Y206176D01*
X669794Y206035D01*
X669792Y206009D01*
X669784Y205984D01*
X669765Y205740D01*
X669765Y186856D01*
X609511Y126602D01*
X609432Y126503D01*
X609348Y126409D01*
X609324Y126366D01*
X609294Y126329D01*
X609240Y126214D01*
X609179Y126104D01*
X609166Y126057D01*
X609145Y126014D01*
X609119Y125890D01*
X609084Y125768D01*
X609079Y125708D01*
X609072Y125673D01*
X609073Y125625D01*
X609065Y125525D01*
X609065Y124573D01*
X608179Y122436D01*
X606544Y120801D01*
X604407Y119915D01*
X602093Y119915D01*
X599956Y120801D01*
X598321Y122436D01*
X597435Y124573D01*
X597435Y126887D01*
X598321Y129024D01*
X599956Y130659D01*
X602093Y131545D01*
X603045Y131545D01*
X603170Y131559D01*
X603296Y131566D01*
X603343Y131579D01*
X603391Y131585D01*
X603510Y131627D01*
X603631Y131662D01*
X603673Y131686D01*
X603719Y131702D01*
X603825Y131771D01*
X603935Y131832D01*
X603982Y131872D01*
X604012Y131891D01*
X604045Y131926D01*
X604122Y131991D01*
X661697Y189566D01*
X661776Y189665D01*
X661860Y189759D01*
X661884Y189802D01*
X661914Y189839D01*
X661968Y189954D01*
X662029Y190064D01*
X662042Y190111D01*
X662063Y190154D01*
X662089Y190278D01*
X662124Y190400D01*
X662129Y190460D01*
X662136Y190495D01*
X662135Y190543D01*
X662143Y190643D01*
X662143Y205740D01*
X662140Y205766D01*
X662142Y205792D01*
X662120Y205939D01*
X662103Y206086D01*
X662095Y206111D01*
X662091Y206137D01*
X662036Y206275D01*
X661986Y206414D01*
X661972Y206436D01*
X661962Y206461D01*
X661877Y206582D01*
X661797Y206707D01*
X661778Y206725D01*
X661763Y206747D01*
X661653Y206846D01*
X661546Y206949D01*
X661524Y206963D01*
X661504Y206980D01*
X661374Y207052D01*
X661247Y207128D01*
X661222Y207136D01*
X661199Y207149D01*
X661056Y207189D01*
X660915Y207234D01*
X660889Y207236D01*
X660864Y207244D01*
X660620Y207263D01*
X469900Y207263D01*
X469874Y207260D01*
X469848Y207262D01*
X469701Y207240D01*
X469554Y207223D01*
X469529Y207215D01*
X469503Y207211D01*
X469365Y207156D01*
X469226Y207106D01*
X469204Y207092D01*
X469179Y207082D01*
X469058Y206997D01*
X468933Y206917D01*
X468915Y206898D01*
X468893Y206883D01*
X468794Y206773D01*
X468691Y206666D01*
X468677Y206644D01*
X468660Y206624D01*
X468588Y206494D01*
X468512Y206367D01*
X468504Y206342D01*
X468491Y206319D01*
X468451Y206176D01*
X468406Y206035D01*
X468404Y206009D01*
X468396Y205984D01*
X468377Y205740D01*
X468377Y40640D01*
X468380Y40614D01*
X468378Y40588D01*
X468400Y40441D01*
X468417Y40294D01*
X468425Y40269D01*
X468429Y40243D01*
X468484Y40105D01*
X468534Y39966D01*
X468548Y39944D01*
X468558Y39919D01*
X468643Y39798D01*
X468723Y39673D01*
X468742Y39655D01*
X468757Y39633D01*
X468867Y39534D01*
X468974Y39431D01*
X468996Y39417D01*
X469016Y39400D01*
X469146Y39328D01*
X469273Y39252D01*
X469298Y39244D01*
X469321Y39231D01*
X469464Y39191D01*
X469605Y39146D01*
X469631Y39144D01*
X469656Y39136D01*
X469900Y39117D01*
X471532Y39117D01*
X471607Y39126D01*
G37*
G36*
X471607Y394726D02*
X471607Y394726D01*
X471684Y394724D01*
X471780Y394745D01*
X471878Y394757D01*
X471950Y394782D01*
X472024Y394799D01*
X472113Y394841D01*
X472206Y394874D01*
X472270Y394916D01*
X472339Y394948D01*
X472416Y395010D01*
X472499Y395063D01*
X472552Y395118D01*
X472611Y395166D01*
X472672Y395243D01*
X472741Y395314D01*
X472780Y395379D01*
X472827Y395439D01*
X472896Y395573D01*
X472920Y395613D01*
X472925Y395631D01*
X472939Y395657D01*
X473986Y398186D01*
X476844Y401044D01*
X477599Y401356D01*
X477666Y401394D01*
X477737Y401422D01*
X477817Y401478D01*
X477904Y401526D01*
X477960Y401577D01*
X478023Y401621D01*
X478089Y401694D01*
X478162Y401760D01*
X478205Y401823D01*
X478256Y401879D01*
X478304Y401966D01*
X478360Y402046D01*
X478388Y402118D01*
X478425Y402184D01*
X478452Y402279D01*
X478488Y402371D01*
X478499Y402446D01*
X478520Y402520D01*
X478532Y402669D01*
X478539Y402715D01*
X478537Y402735D01*
X478539Y402764D01*
X478539Y403481D01*
X478536Y403507D01*
X478538Y403533D01*
X478516Y403680D01*
X478499Y403827D01*
X478491Y403852D01*
X478487Y403878D01*
X478432Y404016D01*
X478382Y404155D01*
X478368Y404177D01*
X478358Y404202D01*
X478273Y404323D01*
X478193Y404448D01*
X478174Y404466D01*
X478159Y404488D01*
X478049Y404587D01*
X477942Y404690D01*
X477920Y404704D01*
X477900Y404721D01*
X477770Y404793D01*
X477643Y404869D01*
X477618Y404877D01*
X477595Y404890D01*
X477452Y404930D01*
X477311Y404975D01*
X477285Y404977D01*
X477260Y404985D01*
X477016Y405004D01*
X473298Y405004D01*
X471809Y406493D01*
X471809Y426627D01*
X473298Y428116D01*
X483165Y428116D01*
X483290Y428130D01*
X483417Y428137D01*
X483463Y428150D01*
X483511Y428156D01*
X483630Y428198D01*
X483751Y428233D01*
X483794Y428257D01*
X483839Y428273D01*
X483945Y428342D01*
X484056Y428403D01*
X484102Y428443D01*
X484132Y428462D01*
X484165Y428497D01*
X484242Y428562D01*
X491037Y435357D01*
X496316Y435357D01*
X496342Y435360D01*
X496368Y435358D01*
X496515Y435380D01*
X496662Y435397D01*
X496687Y435405D01*
X496713Y435409D01*
X496851Y435464D01*
X496990Y435514D01*
X497012Y435528D01*
X497037Y435538D01*
X497158Y435623D01*
X497283Y435703D01*
X497301Y435722D01*
X497323Y435737D01*
X497422Y435847D01*
X497525Y435954D01*
X497539Y435976D01*
X497556Y435996D01*
X497628Y436126D01*
X497704Y436253D01*
X497712Y436278D01*
X497725Y436301D01*
X497765Y436444D01*
X497810Y436585D01*
X497812Y436611D01*
X497820Y436636D01*
X497839Y436880D01*
X497839Y528628D01*
X506422Y537211D01*
X581991Y537211D01*
X582116Y537225D01*
X582242Y537232D01*
X582289Y537245D01*
X582337Y537251D01*
X582456Y537293D01*
X582577Y537328D01*
X582619Y537352D01*
X582665Y537368D01*
X582771Y537437D01*
X582881Y537498D01*
X582928Y537538D01*
X582958Y537557D01*
X582991Y537592D01*
X583068Y537657D01*
X590865Y545454D01*
X590944Y545553D01*
X591028Y545647D01*
X591052Y545690D01*
X591082Y545727D01*
X591136Y545842D01*
X591197Y545952D01*
X591210Y545999D01*
X591231Y546042D01*
X591257Y546166D01*
X591292Y546288D01*
X591297Y546348D01*
X591304Y546383D01*
X591303Y546431D01*
X591311Y546531D01*
X591311Y547212D01*
X592162Y549266D01*
X593734Y550838D01*
X595788Y551689D01*
X598012Y551689D01*
X600066Y550838D01*
X601638Y549266D01*
X602489Y547212D01*
X602489Y544988D01*
X601638Y542934D01*
X600066Y541362D01*
X599571Y541157D01*
X599484Y541109D01*
X599391Y541069D01*
X599332Y541024D01*
X599267Y540988D01*
X599192Y540921D01*
X599112Y540861D01*
X599064Y540804D01*
X599009Y540754D01*
X598951Y540671D01*
X598887Y540595D01*
X598853Y540529D01*
X598810Y540467D01*
X598774Y540374D01*
X598728Y540284D01*
X598710Y540212D01*
X598683Y540143D01*
X598668Y540044D01*
X598644Y539946D01*
X598643Y539872D01*
X598632Y539798D01*
X598640Y539698D01*
X598639Y539598D01*
X598654Y539525D01*
X598661Y539451D01*
X598692Y539355D01*
X598713Y539257D01*
X598745Y539190D01*
X598768Y539119D01*
X598820Y539033D01*
X598863Y538942D01*
X598909Y538884D01*
X598947Y538821D01*
X599017Y538749D01*
X599080Y538670D01*
X599138Y538624D01*
X599190Y538571D01*
X599275Y538516D01*
X599354Y538454D01*
X599443Y538408D01*
X599483Y538382D01*
X599517Y538370D01*
X599571Y538343D01*
X600066Y538138D01*
X601638Y536566D01*
X602489Y534512D01*
X602489Y532288D01*
X601638Y530234D01*
X600066Y528662D01*
X598012Y527811D01*
X597331Y527811D01*
X597206Y527797D01*
X597080Y527790D01*
X597033Y527777D01*
X596985Y527771D01*
X596866Y527729D01*
X596745Y527694D01*
X596703Y527670D01*
X596657Y527654D01*
X596551Y527585D01*
X596441Y527524D01*
X596394Y527484D01*
X596364Y527465D01*
X596331Y527430D01*
X596254Y527365D01*
X592128Y523239D01*
X516559Y523239D01*
X516434Y523225D01*
X516308Y523218D01*
X516261Y523205D01*
X516213Y523199D01*
X516094Y523157D01*
X515973Y523122D01*
X515931Y523098D01*
X515885Y523082D01*
X515779Y523013D01*
X515669Y522952D01*
X515622Y522912D01*
X515592Y522893D01*
X515559Y522858D01*
X515482Y522793D01*
X512257Y519568D01*
X512178Y519469D01*
X512094Y519375D01*
X512070Y519332D01*
X512040Y519295D01*
X511986Y519180D01*
X511925Y519070D01*
X511912Y519023D01*
X511891Y518980D01*
X511865Y518856D01*
X511830Y518734D01*
X511825Y518674D01*
X511818Y518639D01*
X511819Y518591D01*
X511811Y518491D01*
X511811Y444144D01*
X511825Y444018D01*
X511832Y443892D01*
X511845Y443846D01*
X511851Y443798D01*
X511893Y443679D01*
X511928Y443557D01*
X511952Y443515D01*
X511968Y443470D01*
X512037Y443363D01*
X512098Y443253D01*
X512138Y443207D01*
X512157Y443177D01*
X512192Y443143D01*
X512257Y443067D01*
X512738Y442586D01*
X513589Y440532D01*
X513589Y438308D01*
X512738Y436254D01*
X511166Y434682D01*
X509112Y433831D01*
X506984Y433831D01*
X506958Y433828D01*
X506932Y433830D01*
X506785Y433808D01*
X506638Y433791D01*
X506613Y433783D01*
X506587Y433779D01*
X506449Y433724D01*
X506310Y433674D01*
X506288Y433660D01*
X506263Y433650D01*
X506142Y433565D01*
X506017Y433485D01*
X505999Y433466D01*
X505977Y433451D01*
X505878Y433341D01*
X505775Y433234D01*
X505761Y433212D01*
X505744Y433192D01*
X505672Y433062D01*
X505596Y432935D01*
X505588Y432910D01*
X505575Y432887D01*
X505535Y432744D01*
X505490Y432603D01*
X505488Y432577D01*
X505480Y432552D01*
X505461Y432308D01*
X505461Y429639D01*
X505464Y429613D01*
X505462Y429587D01*
X505484Y429440D01*
X505501Y429293D01*
X505509Y429268D01*
X505513Y429242D01*
X505568Y429104D01*
X505618Y428965D01*
X505632Y428943D01*
X505642Y428918D01*
X505727Y428797D01*
X505807Y428672D01*
X505826Y428654D01*
X505841Y428632D01*
X505951Y428533D01*
X506058Y428430D01*
X506080Y428416D01*
X506100Y428399D01*
X506230Y428327D01*
X506357Y428251D01*
X506382Y428243D01*
X506405Y428230D01*
X506548Y428190D01*
X506689Y428145D01*
X506715Y428143D01*
X506740Y428135D01*
X506984Y428116D01*
X519842Y428116D01*
X521331Y426627D01*
X521331Y415599D01*
X521345Y415474D01*
X521352Y415348D01*
X521365Y415301D01*
X521371Y415253D01*
X521413Y415134D01*
X521448Y415013D01*
X521472Y414971D01*
X521488Y414925D01*
X521557Y414819D01*
X521618Y414709D01*
X521658Y414662D01*
X521677Y414632D01*
X521712Y414599D01*
X521777Y414522D01*
X526912Y409387D01*
X527011Y409308D01*
X527105Y409224D01*
X527147Y409200D01*
X527185Y409170D01*
X527299Y409116D01*
X527410Y409055D01*
X527457Y409042D01*
X527500Y409021D01*
X527624Y408995D01*
X527746Y408960D01*
X527806Y408955D01*
X527841Y408948D01*
X527889Y408949D01*
X527989Y408941D01*
X571808Y408941D01*
X578616Y402133D01*
X578676Y402085D01*
X578729Y402031D01*
X578812Y401977D01*
X578889Y401916D01*
X578958Y401884D01*
X579023Y401842D01*
X579115Y401809D01*
X579204Y401767D01*
X579279Y401751D01*
X579351Y401726D01*
X579449Y401715D01*
X579545Y401694D01*
X579621Y401695D01*
X579697Y401687D01*
X579795Y401698D01*
X579894Y401700D01*
X579968Y401719D01*
X580044Y401728D01*
X580186Y401773D01*
X580232Y401785D01*
X580249Y401794D01*
X580276Y401803D01*
X582179Y402591D01*
X586221Y402591D01*
X586328Y402547D01*
X586401Y402526D01*
X586471Y402495D01*
X586568Y402478D01*
X586663Y402451D01*
X586739Y402447D01*
X586814Y402434D01*
X586913Y402439D01*
X587011Y402434D01*
X587086Y402448D01*
X587162Y402452D01*
X587257Y402479D01*
X587354Y402497D01*
X587424Y402527D01*
X587497Y402548D01*
X587583Y402596D01*
X587673Y402635D01*
X587735Y402681D01*
X587801Y402718D01*
X587915Y402815D01*
X587953Y402843D01*
X587965Y402858D01*
X587988Y402877D01*
X595322Y410211D01*
X645491Y410211D01*
X645616Y410225D01*
X645742Y410232D01*
X645789Y410245D01*
X645837Y410251D01*
X645956Y410293D01*
X646077Y410328D01*
X646119Y410352D01*
X646165Y410368D01*
X646271Y410437D01*
X646381Y410498D01*
X646428Y410538D01*
X646458Y410557D01*
X646491Y410592D01*
X646568Y410657D01*
X647847Y411936D01*
X647863Y411956D01*
X647883Y411974D01*
X647929Y412036D01*
X647962Y412070D01*
X647989Y412115D01*
X648063Y412209D01*
X648075Y412233D01*
X648090Y412254D01*
X648138Y412364D01*
X648141Y412369D01*
X648143Y412376D01*
X648149Y412390D01*
X648212Y412524D01*
X648218Y412550D01*
X648228Y412574D01*
X648255Y412720D01*
X648286Y412865D01*
X648285Y412891D01*
X648290Y412917D01*
X648282Y413065D01*
X648280Y413213D01*
X648273Y413239D01*
X648272Y413265D01*
X648231Y413407D01*
X648195Y413551D01*
X648183Y413575D01*
X648175Y413600D01*
X648103Y413729D01*
X648035Y413861D01*
X648018Y413881D01*
X648005Y413904D01*
X647847Y414090D01*
X647699Y414238D01*
X647699Y429042D01*
X649188Y430531D01*
X665811Y430531D01*
X665936Y430545D01*
X666062Y430552D01*
X666109Y430565D01*
X666157Y430571D01*
X666276Y430613D01*
X666397Y430648D01*
X666439Y430672D01*
X666485Y430688D01*
X666591Y430757D01*
X666701Y430818D01*
X666748Y430858D01*
X666778Y430877D01*
X666811Y430912D01*
X666888Y430977D01*
X673923Y438012D01*
X674002Y438111D01*
X674086Y438205D01*
X674110Y438248D01*
X674140Y438285D01*
X674194Y438400D01*
X674255Y438510D01*
X674268Y438557D01*
X674289Y438600D01*
X674315Y438724D01*
X674350Y438846D01*
X674355Y438906D01*
X674362Y438941D01*
X674361Y438989D01*
X674369Y439089D01*
X674369Y561340D01*
X674366Y561366D01*
X674368Y561392D01*
X674346Y561539D01*
X674329Y561686D01*
X674321Y561711D01*
X674317Y561737D01*
X674262Y561875D01*
X674212Y562014D01*
X674198Y562036D01*
X674188Y562061D01*
X674103Y562182D01*
X674023Y562307D01*
X674004Y562325D01*
X673989Y562347D01*
X673879Y562446D01*
X673772Y562549D01*
X673750Y562563D01*
X673730Y562580D01*
X673600Y562652D01*
X673473Y562728D01*
X673448Y562736D01*
X673425Y562749D01*
X673282Y562789D01*
X673141Y562834D01*
X673115Y562836D01*
X673090Y562844D01*
X672846Y562863D01*
X671288Y562863D01*
X671262Y562860D01*
X671236Y562862D01*
X671089Y562840D01*
X670942Y562823D01*
X670917Y562815D01*
X670891Y562811D01*
X670753Y562756D01*
X670614Y562706D01*
X670592Y562692D01*
X670567Y562682D01*
X670446Y562597D01*
X670321Y562517D01*
X670303Y562498D01*
X670281Y562483D01*
X670182Y562373D01*
X670079Y562266D01*
X670065Y562244D01*
X670048Y562224D01*
X669976Y562094D01*
X669900Y561967D01*
X669892Y561942D01*
X669879Y561919D01*
X669839Y561776D01*
X669794Y561635D01*
X669792Y561609D01*
X669784Y561584D01*
X669765Y561340D01*
X669765Y542456D01*
X609511Y482202D01*
X609432Y482103D01*
X609348Y482009D01*
X609324Y481966D01*
X609294Y481929D01*
X609240Y481814D01*
X609179Y481704D01*
X609166Y481657D01*
X609145Y481614D01*
X609119Y481490D01*
X609084Y481368D01*
X609079Y481308D01*
X609072Y481273D01*
X609073Y481225D01*
X609065Y481125D01*
X609065Y480173D01*
X608179Y478036D01*
X606544Y476401D01*
X604407Y475515D01*
X602093Y475515D01*
X599956Y476401D01*
X598321Y478036D01*
X597435Y480173D01*
X597435Y482487D01*
X598321Y484624D01*
X599956Y486259D01*
X602093Y487145D01*
X603045Y487145D01*
X603170Y487159D01*
X603296Y487166D01*
X603343Y487179D01*
X603391Y487185D01*
X603510Y487227D01*
X603631Y487262D01*
X603673Y487286D01*
X603719Y487302D01*
X603825Y487371D01*
X603935Y487432D01*
X603982Y487472D01*
X604012Y487491D01*
X604045Y487526D01*
X604122Y487591D01*
X661697Y545166D01*
X661776Y545265D01*
X661860Y545359D01*
X661884Y545402D01*
X661914Y545439D01*
X661968Y545554D01*
X662029Y545664D01*
X662042Y545711D01*
X662063Y545754D01*
X662089Y545878D01*
X662124Y546000D01*
X662129Y546060D01*
X662136Y546095D01*
X662135Y546143D01*
X662143Y546243D01*
X662143Y561340D01*
X662140Y561366D01*
X662142Y561392D01*
X662120Y561539D01*
X662103Y561686D01*
X662095Y561711D01*
X662091Y561737D01*
X662036Y561875D01*
X661986Y562014D01*
X661972Y562036D01*
X661962Y562061D01*
X661877Y562182D01*
X661797Y562307D01*
X661778Y562325D01*
X661763Y562347D01*
X661653Y562446D01*
X661546Y562549D01*
X661524Y562563D01*
X661504Y562580D01*
X661374Y562652D01*
X661247Y562728D01*
X661222Y562736D01*
X661199Y562749D01*
X661056Y562789D01*
X660915Y562834D01*
X660889Y562836D01*
X660864Y562844D01*
X660620Y562863D01*
X469900Y562863D01*
X469874Y562860D01*
X469848Y562862D01*
X469701Y562840D01*
X469554Y562823D01*
X469529Y562815D01*
X469503Y562811D01*
X469365Y562756D01*
X469226Y562706D01*
X469204Y562692D01*
X469179Y562682D01*
X469058Y562597D01*
X468933Y562517D01*
X468915Y562498D01*
X468893Y562483D01*
X468794Y562373D01*
X468691Y562266D01*
X468677Y562244D01*
X468660Y562224D01*
X468588Y562094D01*
X468512Y561967D01*
X468504Y561942D01*
X468491Y561919D01*
X468451Y561776D01*
X468406Y561635D01*
X468404Y561609D01*
X468396Y561584D01*
X468377Y561340D01*
X468377Y396240D01*
X468380Y396214D01*
X468378Y396188D01*
X468400Y396041D01*
X468417Y395894D01*
X468425Y395869D01*
X468429Y395843D01*
X468484Y395705D01*
X468534Y395566D01*
X468548Y395544D01*
X468558Y395519D01*
X468643Y395398D01*
X468723Y395273D01*
X468742Y395255D01*
X468757Y395233D01*
X468867Y395134D01*
X468974Y395031D01*
X468996Y395017D01*
X469016Y395000D01*
X469146Y394928D01*
X469273Y394852D01*
X469298Y394844D01*
X469321Y394831D01*
X469464Y394791D01*
X469605Y394746D01*
X469631Y394744D01*
X469656Y394736D01*
X469900Y394717D01*
X471532Y394717D01*
X471607Y394726D01*
G37*
G36*
X14407Y39126D02*
X14407Y39126D01*
X14484Y39124D01*
X14580Y39145D01*
X14678Y39157D01*
X14750Y39182D01*
X14824Y39199D01*
X14913Y39241D01*
X15006Y39274D01*
X15070Y39316D01*
X15139Y39348D01*
X15216Y39410D01*
X15299Y39463D01*
X15352Y39518D01*
X15411Y39566D01*
X15472Y39643D01*
X15541Y39714D01*
X15580Y39779D01*
X15627Y39839D01*
X15696Y39973D01*
X15720Y40013D01*
X15725Y40031D01*
X15739Y40057D01*
X16786Y42586D01*
X19644Y45444D01*
X20399Y45756D01*
X20466Y45794D01*
X20537Y45822D01*
X20617Y45878D01*
X20704Y45926D01*
X20760Y45977D01*
X20823Y46021D01*
X20889Y46094D01*
X20962Y46160D01*
X21005Y46223D01*
X21056Y46279D01*
X21104Y46366D01*
X21160Y46446D01*
X21188Y46518D01*
X21225Y46584D01*
X21252Y46679D01*
X21288Y46771D01*
X21299Y46846D01*
X21320Y46920D01*
X21332Y47069D01*
X21339Y47115D01*
X21337Y47135D01*
X21339Y47164D01*
X21339Y47881D01*
X21336Y47907D01*
X21338Y47933D01*
X21316Y48080D01*
X21299Y48227D01*
X21291Y48252D01*
X21287Y48278D01*
X21232Y48416D01*
X21182Y48555D01*
X21168Y48577D01*
X21158Y48602D01*
X21073Y48723D01*
X20993Y48848D01*
X20974Y48866D01*
X20959Y48888D01*
X20849Y48987D01*
X20742Y49090D01*
X20720Y49104D01*
X20700Y49121D01*
X20570Y49193D01*
X20443Y49269D01*
X20418Y49277D01*
X20395Y49290D01*
X20252Y49330D01*
X20111Y49375D01*
X20085Y49377D01*
X20060Y49385D01*
X19816Y49404D01*
X16098Y49404D01*
X14609Y50893D01*
X14609Y71027D01*
X16098Y72516D01*
X25965Y72516D01*
X26090Y72530D01*
X26217Y72537D01*
X26263Y72550D01*
X26311Y72556D01*
X26430Y72598D01*
X26551Y72633D01*
X26594Y72657D01*
X26639Y72673D01*
X26745Y72742D01*
X26856Y72803D01*
X26902Y72843D01*
X26932Y72862D01*
X26965Y72897D01*
X27042Y72962D01*
X33837Y79757D01*
X39116Y79757D01*
X39142Y79760D01*
X39168Y79758D01*
X39315Y79780D01*
X39462Y79797D01*
X39487Y79805D01*
X39513Y79809D01*
X39651Y79864D01*
X39790Y79914D01*
X39812Y79928D01*
X39837Y79938D01*
X39958Y80023D01*
X40083Y80103D01*
X40101Y80122D01*
X40123Y80137D01*
X40222Y80247D01*
X40325Y80354D01*
X40339Y80376D01*
X40356Y80396D01*
X40428Y80526D01*
X40504Y80653D01*
X40512Y80678D01*
X40525Y80701D01*
X40565Y80844D01*
X40610Y80985D01*
X40612Y81011D01*
X40620Y81036D01*
X40639Y81280D01*
X40639Y173028D01*
X49222Y181611D01*
X124791Y181611D01*
X124916Y181625D01*
X125042Y181632D01*
X125089Y181645D01*
X125137Y181651D01*
X125256Y181693D01*
X125377Y181728D01*
X125419Y181752D01*
X125465Y181768D01*
X125571Y181837D01*
X125681Y181898D01*
X125728Y181938D01*
X125758Y181957D01*
X125791Y181992D01*
X125868Y182057D01*
X133665Y189854D01*
X133744Y189953D01*
X133828Y190047D01*
X133852Y190090D01*
X133882Y190127D01*
X133936Y190242D01*
X133997Y190352D01*
X134010Y190399D01*
X134031Y190442D01*
X134057Y190566D01*
X134092Y190688D01*
X134097Y190748D01*
X134104Y190783D01*
X134103Y190831D01*
X134111Y190931D01*
X134111Y191612D01*
X134962Y193666D01*
X136534Y195238D01*
X138588Y196089D01*
X140812Y196089D01*
X142866Y195238D01*
X144438Y193666D01*
X145289Y191612D01*
X145289Y189388D01*
X144438Y187334D01*
X142866Y185762D01*
X142371Y185557D01*
X142284Y185509D01*
X142191Y185469D01*
X142132Y185424D01*
X142067Y185388D01*
X141992Y185321D01*
X141912Y185261D01*
X141864Y185204D01*
X141809Y185154D01*
X141751Y185071D01*
X141687Y184995D01*
X141653Y184929D01*
X141610Y184867D01*
X141574Y184774D01*
X141528Y184684D01*
X141510Y184612D01*
X141483Y184543D01*
X141468Y184444D01*
X141444Y184346D01*
X141443Y184272D01*
X141432Y184198D01*
X141440Y184098D01*
X141439Y183998D01*
X141454Y183925D01*
X141461Y183851D01*
X141492Y183755D01*
X141513Y183657D01*
X141545Y183590D01*
X141568Y183519D01*
X141620Y183433D01*
X141663Y183342D01*
X141709Y183284D01*
X141747Y183221D01*
X141817Y183149D01*
X141880Y183070D01*
X141938Y183024D01*
X141990Y182971D01*
X142075Y182916D01*
X142154Y182854D01*
X142243Y182808D01*
X142283Y182782D01*
X142317Y182770D01*
X142371Y182743D01*
X142866Y182538D01*
X144438Y180966D01*
X145289Y178912D01*
X145289Y176688D01*
X144438Y174634D01*
X142866Y173062D01*
X140812Y172211D01*
X140131Y172211D01*
X140006Y172197D01*
X139880Y172190D01*
X139833Y172177D01*
X139785Y172171D01*
X139666Y172129D01*
X139545Y172094D01*
X139503Y172070D01*
X139457Y172054D01*
X139351Y171985D01*
X139241Y171924D01*
X139194Y171884D01*
X139164Y171865D01*
X139131Y171830D01*
X139054Y171765D01*
X134928Y167639D01*
X59359Y167639D01*
X59234Y167625D01*
X59108Y167618D01*
X59061Y167605D01*
X59013Y167599D01*
X58894Y167557D01*
X58773Y167522D01*
X58731Y167498D01*
X58685Y167482D01*
X58579Y167413D01*
X58469Y167352D01*
X58422Y167312D01*
X58392Y167293D01*
X58359Y167258D01*
X58282Y167193D01*
X55057Y163968D01*
X54978Y163869D01*
X54894Y163775D01*
X54870Y163732D01*
X54840Y163695D01*
X54786Y163580D01*
X54725Y163470D01*
X54712Y163423D01*
X54691Y163380D01*
X54665Y163256D01*
X54630Y163134D01*
X54625Y163074D01*
X54618Y163039D01*
X54619Y162991D01*
X54611Y162891D01*
X54611Y88544D01*
X54625Y88418D01*
X54632Y88292D01*
X54645Y88246D01*
X54651Y88198D01*
X54693Y88079D01*
X54728Y87957D01*
X54752Y87915D01*
X54768Y87870D01*
X54837Y87763D01*
X54898Y87653D01*
X54938Y87607D01*
X54957Y87577D01*
X54992Y87543D01*
X55057Y87467D01*
X55538Y86986D01*
X56389Y84932D01*
X56389Y82708D01*
X55538Y80654D01*
X53966Y79082D01*
X51912Y78231D01*
X49784Y78231D01*
X49758Y78228D01*
X49732Y78230D01*
X49585Y78208D01*
X49438Y78191D01*
X49413Y78183D01*
X49387Y78179D01*
X49249Y78124D01*
X49110Y78074D01*
X49088Y78060D01*
X49063Y78050D01*
X48942Y77965D01*
X48817Y77885D01*
X48799Y77866D01*
X48777Y77851D01*
X48678Y77741D01*
X48575Y77634D01*
X48561Y77612D01*
X48544Y77592D01*
X48472Y77462D01*
X48396Y77335D01*
X48388Y77310D01*
X48375Y77287D01*
X48335Y77144D01*
X48290Y77003D01*
X48288Y76977D01*
X48280Y76952D01*
X48261Y76708D01*
X48261Y74039D01*
X48264Y74013D01*
X48262Y73987D01*
X48284Y73840D01*
X48301Y73693D01*
X48309Y73668D01*
X48313Y73642D01*
X48368Y73504D01*
X48418Y73365D01*
X48432Y73343D01*
X48442Y73318D01*
X48527Y73197D01*
X48607Y73072D01*
X48626Y73054D01*
X48641Y73032D01*
X48751Y72933D01*
X48858Y72830D01*
X48880Y72816D01*
X48900Y72799D01*
X49030Y72727D01*
X49157Y72651D01*
X49182Y72643D01*
X49205Y72630D01*
X49348Y72590D01*
X49489Y72545D01*
X49515Y72543D01*
X49540Y72535D01*
X49784Y72516D01*
X62642Y72516D01*
X64131Y71027D01*
X64131Y59999D01*
X64145Y59874D01*
X64152Y59748D01*
X64165Y59701D01*
X64171Y59653D01*
X64213Y59534D01*
X64248Y59413D01*
X64272Y59371D01*
X64288Y59325D01*
X64357Y59219D01*
X64418Y59109D01*
X64458Y59062D01*
X64477Y59032D01*
X64512Y58999D01*
X64577Y58922D01*
X69712Y53787D01*
X69811Y53708D01*
X69905Y53624D01*
X69947Y53600D01*
X69985Y53570D01*
X70099Y53516D01*
X70210Y53455D01*
X70257Y53442D01*
X70300Y53421D01*
X70424Y53395D01*
X70546Y53360D01*
X70606Y53355D01*
X70641Y53348D01*
X70689Y53349D01*
X70789Y53341D01*
X114608Y53341D01*
X121416Y46533D01*
X121476Y46485D01*
X121529Y46431D01*
X121612Y46377D01*
X121689Y46316D01*
X121758Y46284D01*
X121823Y46242D01*
X121915Y46209D01*
X122004Y46167D01*
X122079Y46151D01*
X122151Y46126D01*
X122249Y46115D01*
X122345Y46094D01*
X122421Y46095D01*
X122497Y46087D01*
X122595Y46098D01*
X122694Y46100D01*
X122768Y46119D01*
X122844Y46128D01*
X122986Y46173D01*
X123032Y46185D01*
X123049Y46194D01*
X123076Y46203D01*
X124979Y46991D01*
X129021Y46991D01*
X129128Y46947D01*
X129201Y46926D01*
X129271Y46895D01*
X129368Y46878D01*
X129463Y46851D01*
X129539Y46847D01*
X129614Y46834D01*
X129713Y46839D01*
X129811Y46834D01*
X129886Y46848D01*
X129962Y46852D01*
X130057Y46879D01*
X130154Y46897D01*
X130224Y46927D01*
X130297Y46948D01*
X130383Y46996D01*
X130473Y47035D01*
X130535Y47081D01*
X130601Y47118D01*
X130715Y47215D01*
X130753Y47243D01*
X130765Y47258D01*
X130788Y47277D01*
X138122Y54611D01*
X188291Y54611D01*
X188416Y54625D01*
X188542Y54632D01*
X188589Y54645D01*
X188637Y54651D01*
X188756Y54693D01*
X188877Y54728D01*
X188919Y54752D01*
X188965Y54768D01*
X189071Y54837D01*
X189181Y54898D01*
X189228Y54938D01*
X189258Y54957D01*
X189291Y54992D01*
X189368Y55057D01*
X190647Y56336D01*
X190663Y56356D01*
X190683Y56374D01*
X190729Y56436D01*
X190762Y56470D01*
X190789Y56515D01*
X190863Y56609D01*
X190875Y56633D01*
X190890Y56654D01*
X190938Y56764D01*
X190941Y56769D01*
X190943Y56776D01*
X190949Y56790D01*
X191012Y56924D01*
X191018Y56950D01*
X191028Y56974D01*
X191055Y57120D01*
X191086Y57265D01*
X191085Y57291D01*
X191090Y57317D01*
X191082Y57465D01*
X191080Y57613D01*
X191073Y57639D01*
X191072Y57665D01*
X191031Y57807D01*
X190995Y57951D01*
X190983Y57975D01*
X190975Y58000D01*
X190903Y58129D01*
X190835Y58261D01*
X190818Y58281D01*
X190805Y58304D01*
X190647Y58490D01*
X190499Y58638D01*
X190499Y73442D01*
X191988Y74931D01*
X208611Y74931D01*
X208736Y74945D01*
X208862Y74952D01*
X208909Y74965D01*
X208957Y74971D01*
X209076Y75013D01*
X209197Y75048D01*
X209239Y75072D01*
X209285Y75088D01*
X209391Y75157D01*
X209501Y75218D01*
X209548Y75258D01*
X209578Y75277D01*
X209611Y75312D01*
X209688Y75377D01*
X216723Y82412D01*
X216802Y82511D01*
X216886Y82605D01*
X216910Y82648D01*
X216940Y82685D01*
X216994Y82800D01*
X217055Y82910D01*
X217068Y82957D01*
X217089Y83000D01*
X217115Y83124D01*
X217150Y83246D01*
X217155Y83306D01*
X217162Y83341D01*
X217161Y83389D01*
X217169Y83489D01*
X217169Y205740D01*
X217166Y205766D01*
X217168Y205792D01*
X217146Y205939D01*
X217129Y206086D01*
X217121Y206111D01*
X217117Y206137D01*
X217062Y206275D01*
X217012Y206414D01*
X216998Y206436D01*
X216988Y206461D01*
X216903Y206582D01*
X216823Y206707D01*
X216804Y206725D01*
X216789Y206747D01*
X216679Y206846D01*
X216572Y206949D01*
X216550Y206963D01*
X216530Y206980D01*
X216400Y207052D01*
X216273Y207128D01*
X216248Y207136D01*
X216225Y207149D01*
X216082Y207189D01*
X215941Y207234D01*
X215915Y207236D01*
X215890Y207244D01*
X215646Y207263D01*
X214088Y207263D01*
X214062Y207260D01*
X214036Y207262D01*
X213889Y207240D01*
X213742Y207223D01*
X213717Y207215D01*
X213691Y207211D01*
X213553Y207156D01*
X213414Y207106D01*
X213392Y207092D01*
X213367Y207082D01*
X213246Y206997D01*
X213121Y206917D01*
X213103Y206898D01*
X213081Y206883D01*
X212982Y206773D01*
X212879Y206666D01*
X212865Y206644D01*
X212848Y206624D01*
X212776Y206494D01*
X212700Y206367D01*
X212692Y206342D01*
X212679Y206319D01*
X212639Y206176D01*
X212594Y206035D01*
X212592Y206009D01*
X212584Y205984D01*
X212565Y205740D01*
X212565Y186856D01*
X152311Y126602D01*
X152232Y126503D01*
X152148Y126409D01*
X152124Y126366D01*
X152094Y126329D01*
X152040Y126214D01*
X151979Y126104D01*
X151966Y126057D01*
X151945Y126014D01*
X151919Y125890D01*
X151884Y125768D01*
X151879Y125708D01*
X151872Y125673D01*
X151873Y125625D01*
X151865Y125525D01*
X151865Y124573D01*
X150979Y122436D01*
X149344Y120801D01*
X147207Y119915D01*
X144893Y119915D01*
X142756Y120801D01*
X141121Y122436D01*
X140235Y124573D01*
X140235Y126887D01*
X141121Y129024D01*
X142756Y130659D01*
X144893Y131545D01*
X145845Y131545D01*
X145970Y131559D01*
X146096Y131566D01*
X146143Y131579D01*
X146191Y131585D01*
X146310Y131627D01*
X146431Y131662D01*
X146473Y131686D01*
X146519Y131702D01*
X146625Y131771D01*
X146735Y131832D01*
X146782Y131872D01*
X146812Y131891D01*
X146845Y131926D01*
X146922Y131991D01*
X204497Y189566D01*
X204576Y189665D01*
X204660Y189759D01*
X204684Y189802D01*
X204714Y189839D01*
X204768Y189954D01*
X204829Y190064D01*
X204842Y190111D01*
X204863Y190154D01*
X204889Y190278D01*
X204924Y190400D01*
X204929Y190460D01*
X204936Y190495D01*
X204935Y190543D01*
X204943Y190643D01*
X204943Y205740D01*
X204940Y205766D01*
X204942Y205792D01*
X204920Y205939D01*
X204903Y206086D01*
X204895Y206111D01*
X204891Y206137D01*
X204836Y206275D01*
X204786Y206414D01*
X204772Y206436D01*
X204762Y206461D01*
X204677Y206582D01*
X204597Y206707D01*
X204578Y206725D01*
X204563Y206747D01*
X204453Y206846D01*
X204346Y206949D01*
X204324Y206963D01*
X204304Y206980D01*
X204174Y207052D01*
X204047Y207128D01*
X204022Y207136D01*
X203999Y207149D01*
X203856Y207189D01*
X203715Y207234D01*
X203689Y207236D01*
X203664Y207244D01*
X203420Y207263D01*
X12700Y207263D01*
X12674Y207260D01*
X12648Y207262D01*
X12501Y207240D01*
X12354Y207223D01*
X12329Y207215D01*
X12303Y207211D01*
X12165Y207156D01*
X12026Y207106D01*
X12004Y207092D01*
X11979Y207082D01*
X11858Y206997D01*
X11733Y206917D01*
X11715Y206898D01*
X11693Y206883D01*
X11594Y206773D01*
X11491Y206666D01*
X11477Y206644D01*
X11460Y206624D01*
X11388Y206494D01*
X11312Y206367D01*
X11304Y206342D01*
X11291Y206319D01*
X11251Y206176D01*
X11206Y206035D01*
X11204Y206009D01*
X11196Y205984D01*
X11177Y205740D01*
X11177Y40640D01*
X11180Y40614D01*
X11178Y40588D01*
X11200Y40441D01*
X11217Y40294D01*
X11225Y40269D01*
X11229Y40243D01*
X11284Y40105D01*
X11334Y39966D01*
X11348Y39944D01*
X11358Y39919D01*
X11443Y39798D01*
X11523Y39673D01*
X11542Y39655D01*
X11557Y39633D01*
X11667Y39534D01*
X11774Y39431D01*
X11796Y39417D01*
X11816Y39400D01*
X11946Y39328D01*
X12073Y39252D01*
X12098Y39244D01*
X12121Y39231D01*
X12264Y39191D01*
X12405Y39146D01*
X12431Y39144D01*
X12456Y39136D01*
X12700Y39117D01*
X14332Y39117D01*
X14407Y39126D01*
G37*
G36*
X700207Y39126D02*
X700207Y39126D01*
X700284Y39124D01*
X700380Y39145D01*
X700478Y39157D01*
X700550Y39182D01*
X700624Y39199D01*
X700713Y39241D01*
X700806Y39274D01*
X700870Y39316D01*
X700939Y39348D01*
X701016Y39410D01*
X701099Y39463D01*
X701152Y39518D01*
X701211Y39566D01*
X701272Y39643D01*
X701341Y39714D01*
X701380Y39779D01*
X701427Y39839D01*
X701496Y39973D01*
X701520Y40013D01*
X701525Y40031D01*
X701539Y40057D01*
X702586Y42586D01*
X705444Y45444D01*
X706199Y45756D01*
X706266Y45794D01*
X706337Y45822D01*
X706418Y45878D01*
X706504Y45926D01*
X706560Y45977D01*
X706623Y46021D01*
X706689Y46094D01*
X706762Y46160D01*
X706805Y46223D01*
X706856Y46279D01*
X706904Y46366D01*
X706960Y46447D01*
X706988Y46518D01*
X707025Y46585D01*
X707052Y46679D01*
X707088Y46771D01*
X707099Y46846D01*
X707120Y46920D01*
X707132Y47069D01*
X707139Y47116D01*
X707137Y47135D01*
X707139Y47164D01*
X707139Y47881D01*
X707136Y47907D01*
X707138Y47933D01*
X707116Y48080D01*
X707099Y48227D01*
X707091Y48252D01*
X707087Y48278D01*
X707032Y48416D01*
X706982Y48555D01*
X706968Y48577D01*
X706958Y48602D01*
X706873Y48723D01*
X706793Y48848D01*
X706774Y48866D01*
X706759Y48888D01*
X706649Y48987D01*
X706542Y49090D01*
X706520Y49104D01*
X706500Y49121D01*
X706370Y49193D01*
X706243Y49269D01*
X706218Y49277D01*
X706195Y49290D01*
X706052Y49330D01*
X705911Y49375D01*
X705885Y49377D01*
X705860Y49385D01*
X705616Y49404D01*
X701898Y49404D01*
X700409Y50893D01*
X700409Y71027D01*
X701898Y72516D01*
X711765Y72516D01*
X711890Y72530D01*
X712017Y72537D01*
X712063Y72550D01*
X712111Y72556D01*
X712230Y72598D01*
X712351Y72633D01*
X712394Y72657D01*
X712439Y72673D01*
X712545Y72742D01*
X712656Y72803D01*
X712702Y72843D01*
X712732Y72862D01*
X712765Y72897D01*
X712842Y72962D01*
X719637Y79757D01*
X724916Y79757D01*
X724942Y79760D01*
X724968Y79758D01*
X725115Y79780D01*
X725262Y79797D01*
X725287Y79805D01*
X725313Y79809D01*
X725451Y79864D01*
X725590Y79914D01*
X725612Y79928D01*
X725637Y79938D01*
X725758Y80023D01*
X725883Y80103D01*
X725901Y80122D01*
X725923Y80137D01*
X726022Y80247D01*
X726125Y80354D01*
X726139Y80376D01*
X726156Y80396D01*
X726228Y80526D01*
X726304Y80653D01*
X726312Y80678D01*
X726325Y80701D01*
X726365Y80844D01*
X726410Y80985D01*
X726412Y81011D01*
X726420Y81036D01*
X726439Y81280D01*
X726439Y173028D01*
X735022Y181611D01*
X810591Y181611D01*
X810716Y181625D01*
X810842Y181632D01*
X810889Y181645D01*
X810937Y181651D01*
X811056Y181693D01*
X811177Y181728D01*
X811219Y181752D01*
X811265Y181768D01*
X811371Y181837D01*
X811481Y181898D01*
X811528Y181938D01*
X811558Y181957D01*
X811591Y181992D01*
X811668Y182057D01*
X819465Y189854D01*
X819544Y189953D01*
X819628Y190047D01*
X819652Y190090D01*
X819682Y190127D01*
X819736Y190242D01*
X819797Y190352D01*
X819810Y190399D01*
X819831Y190442D01*
X819857Y190566D01*
X819892Y190688D01*
X819897Y190748D01*
X819904Y190783D01*
X819903Y190831D01*
X819911Y190931D01*
X819911Y191612D01*
X820762Y193666D01*
X822334Y195238D01*
X824388Y196089D01*
X826612Y196089D01*
X828666Y195238D01*
X830238Y193666D01*
X831089Y191612D01*
X831089Y189388D01*
X830238Y187334D01*
X828666Y185762D01*
X828171Y185557D01*
X828084Y185509D01*
X827991Y185469D01*
X827932Y185424D01*
X827867Y185388D01*
X827792Y185321D01*
X827712Y185261D01*
X827664Y185204D01*
X827609Y185154D01*
X827551Y185071D01*
X827487Y184995D01*
X827453Y184929D01*
X827410Y184867D01*
X827374Y184774D01*
X827328Y184684D01*
X827310Y184612D01*
X827283Y184543D01*
X827268Y184444D01*
X827244Y184346D01*
X827243Y184272D01*
X827232Y184198D01*
X827240Y184098D01*
X827239Y183998D01*
X827254Y183925D01*
X827261Y183851D01*
X827292Y183755D01*
X827313Y183657D01*
X827345Y183590D01*
X827368Y183519D01*
X827420Y183433D01*
X827463Y183342D01*
X827509Y183284D01*
X827547Y183221D01*
X827617Y183149D01*
X827680Y183070D01*
X827738Y183024D01*
X827790Y182971D01*
X827875Y182916D01*
X827954Y182854D01*
X828043Y182808D01*
X828083Y182782D01*
X828117Y182770D01*
X828171Y182743D01*
X828666Y182538D01*
X830238Y180966D01*
X831089Y178912D01*
X831089Y176688D01*
X830238Y174634D01*
X828666Y173062D01*
X826612Y172211D01*
X825931Y172211D01*
X825806Y172197D01*
X825680Y172190D01*
X825633Y172177D01*
X825585Y172171D01*
X825466Y172129D01*
X825345Y172094D01*
X825303Y172070D01*
X825257Y172054D01*
X825151Y171985D01*
X825041Y171924D01*
X824994Y171884D01*
X824964Y171865D01*
X824931Y171830D01*
X824854Y171765D01*
X820728Y167639D01*
X745159Y167639D01*
X745034Y167625D01*
X744908Y167618D01*
X744861Y167605D01*
X744813Y167599D01*
X744694Y167557D01*
X744573Y167522D01*
X744531Y167498D01*
X744485Y167482D01*
X744379Y167413D01*
X744269Y167352D01*
X744222Y167312D01*
X744192Y167293D01*
X744159Y167258D01*
X744082Y167193D01*
X740857Y163968D01*
X740778Y163869D01*
X740694Y163775D01*
X740670Y163732D01*
X740640Y163695D01*
X740586Y163580D01*
X740525Y163470D01*
X740512Y163423D01*
X740491Y163380D01*
X740465Y163256D01*
X740430Y163134D01*
X740425Y163074D01*
X740418Y163039D01*
X740419Y162991D01*
X740411Y162891D01*
X740411Y88544D01*
X740425Y88418D01*
X740432Y88292D01*
X740445Y88246D01*
X740451Y88198D01*
X740493Y88079D01*
X740528Y87957D01*
X740552Y87915D01*
X740568Y87870D01*
X740637Y87763D01*
X740698Y87653D01*
X740738Y87607D01*
X740757Y87577D01*
X740792Y87543D01*
X740857Y87467D01*
X741338Y86986D01*
X742189Y84932D01*
X742189Y82708D01*
X741338Y80654D01*
X739766Y79082D01*
X737712Y78231D01*
X735584Y78231D01*
X735558Y78228D01*
X735532Y78230D01*
X735385Y78208D01*
X735238Y78191D01*
X735213Y78183D01*
X735187Y78179D01*
X735049Y78124D01*
X734910Y78074D01*
X734888Y78060D01*
X734863Y78050D01*
X734742Y77965D01*
X734617Y77885D01*
X734599Y77866D01*
X734577Y77851D01*
X734478Y77741D01*
X734375Y77634D01*
X734361Y77612D01*
X734344Y77592D01*
X734272Y77462D01*
X734196Y77335D01*
X734188Y77310D01*
X734175Y77287D01*
X734135Y77144D01*
X734090Y77003D01*
X734088Y76977D01*
X734080Y76952D01*
X734061Y76708D01*
X734061Y74039D01*
X734064Y74013D01*
X734062Y73987D01*
X734084Y73840D01*
X734101Y73693D01*
X734109Y73668D01*
X734113Y73642D01*
X734168Y73504D01*
X734218Y73365D01*
X734232Y73343D01*
X734242Y73318D01*
X734327Y73197D01*
X734407Y73072D01*
X734426Y73054D01*
X734441Y73032D01*
X734551Y72933D01*
X734658Y72830D01*
X734680Y72816D01*
X734700Y72799D01*
X734830Y72727D01*
X734957Y72651D01*
X734982Y72643D01*
X735005Y72630D01*
X735148Y72590D01*
X735289Y72545D01*
X735315Y72543D01*
X735340Y72535D01*
X735584Y72516D01*
X748442Y72516D01*
X749931Y71027D01*
X749931Y59999D01*
X749945Y59874D01*
X749952Y59748D01*
X749965Y59701D01*
X749971Y59653D01*
X750013Y59534D01*
X750048Y59413D01*
X750072Y59371D01*
X750088Y59325D01*
X750157Y59219D01*
X750218Y59109D01*
X750258Y59062D01*
X750277Y59032D01*
X750312Y58999D01*
X750377Y58922D01*
X755512Y53787D01*
X755611Y53708D01*
X755705Y53624D01*
X755747Y53600D01*
X755785Y53570D01*
X755899Y53516D01*
X756010Y53455D01*
X756057Y53442D01*
X756100Y53421D01*
X756224Y53395D01*
X756346Y53360D01*
X756406Y53355D01*
X756441Y53348D01*
X756489Y53349D01*
X756589Y53341D01*
X800408Y53341D01*
X807216Y46533D01*
X807276Y46485D01*
X807329Y46431D01*
X807412Y46377D01*
X807489Y46316D01*
X807558Y46284D01*
X807623Y46242D01*
X807715Y46209D01*
X807804Y46167D01*
X807879Y46151D01*
X807951Y46126D01*
X808049Y46115D01*
X808145Y46094D01*
X808221Y46095D01*
X808297Y46087D01*
X808395Y46098D01*
X808494Y46100D01*
X808568Y46119D01*
X808644Y46128D01*
X808786Y46173D01*
X808832Y46185D01*
X808849Y46194D01*
X808876Y46203D01*
X810779Y46991D01*
X814821Y46991D01*
X814928Y46947D01*
X815001Y46926D01*
X815071Y46895D01*
X815168Y46878D01*
X815263Y46851D01*
X815339Y46847D01*
X815414Y46834D01*
X815513Y46839D01*
X815611Y46834D01*
X815686Y46848D01*
X815762Y46852D01*
X815857Y46879D01*
X815954Y46897D01*
X816024Y46927D01*
X816097Y46948D01*
X816183Y46996D01*
X816273Y47035D01*
X816335Y47081D01*
X816401Y47118D01*
X816515Y47215D01*
X816553Y47243D01*
X816565Y47258D01*
X816588Y47277D01*
X823922Y54611D01*
X874091Y54611D01*
X874216Y54625D01*
X874342Y54632D01*
X874389Y54645D01*
X874437Y54651D01*
X874556Y54693D01*
X874677Y54728D01*
X874719Y54752D01*
X874765Y54768D01*
X874871Y54837D01*
X874981Y54898D01*
X875028Y54938D01*
X875058Y54957D01*
X875091Y54992D01*
X875168Y55057D01*
X876447Y56336D01*
X876463Y56356D01*
X876483Y56374D01*
X876529Y56436D01*
X876562Y56470D01*
X876589Y56515D01*
X876663Y56609D01*
X876675Y56633D01*
X876690Y56654D01*
X876738Y56764D01*
X876741Y56769D01*
X876743Y56776D01*
X876749Y56790D01*
X876812Y56924D01*
X876818Y56950D01*
X876828Y56974D01*
X876855Y57120D01*
X876886Y57265D01*
X876885Y57291D01*
X876890Y57317D01*
X876882Y57465D01*
X876880Y57613D01*
X876873Y57639D01*
X876872Y57665D01*
X876831Y57807D01*
X876795Y57951D01*
X876783Y57975D01*
X876775Y58000D01*
X876703Y58129D01*
X876635Y58261D01*
X876618Y58281D01*
X876605Y58304D01*
X876447Y58490D01*
X876299Y58638D01*
X876299Y73442D01*
X877788Y74931D01*
X894411Y74931D01*
X894536Y74945D01*
X894662Y74952D01*
X894709Y74965D01*
X894757Y74971D01*
X894876Y75013D01*
X894997Y75048D01*
X895039Y75072D01*
X895085Y75088D01*
X895191Y75157D01*
X895301Y75218D01*
X895348Y75258D01*
X895378Y75277D01*
X895411Y75312D01*
X895488Y75377D01*
X902523Y82412D01*
X902602Y82511D01*
X902686Y82605D01*
X902710Y82648D01*
X902740Y82685D01*
X902794Y82800D01*
X902855Y82910D01*
X902868Y82957D01*
X902889Y83000D01*
X902915Y83124D01*
X902950Y83246D01*
X902955Y83306D01*
X902962Y83341D01*
X902961Y83389D01*
X902969Y83489D01*
X902969Y205740D01*
X902966Y205766D01*
X902968Y205792D01*
X902946Y205939D01*
X902929Y206086D01*
X902921Y206111D01*
X902917Y206137D01*
X902862Y206275D01*
X902812Y206414D01*
X902798Y206436D01*
X902788Y206461D01*
X902703Y206582D01*
X902623Y206707D01*
X902604Y206725D01*
X902589Y206747D01*
X902479Y206846D01*
X902372Y206949D01*
X902350Y206963D01*
X902330Y206980D01*
X902200Y207052D01*
X902073Y207128D01*
X902048Y207136D01*
X902025Y207149D01*
X901882Y207189D01*
X901741Y207234D01*
X901715Y207236D01*
X901690Y207244D01*
X901446Y207263D01*
X899888Y207263D01*
X899862Y207260D01*
X899836Y207262D01*
X899689Y207240D01*
X899542Y207223D01*
X899517Y207215D01*
X899491Y207211D01*
X899353Y207156D01*
X899214Y207106D01*
X899192Y207092D01*
X899167Y207082D01*
X899046Y206997D01*
X898921Y206917D01*
X898903Y206898D01*
X898881Y206883D01*
X898782Y206773D01*
X898679Y206666D01*
X898665Y206644D01*
X898648Y206624D01*
X898576Y206494D01*
X898500Y206367D01*
X898492Y206342D01*
X898479Y206319D01*
X898439Y206176D01*
X898394Y206035D01*
X898392Y206009D01*
X898384Y205984D01*
X898365Y205740D01*
X898365Y186856D01*
X838111Y126602D01*
X838032Y126503D01*
X837948Y126409D01*
X837924Y126366D01*
X837894Y126329D01*
X837840Y126214D01*
X837779Y126104D01*
X837766Y126057D01*
X837745Y126014D01*
X837719Y125890D01*
X837684Y125768D01*
X837679Y125708D01*
X837672Y125673D01*
X837673Y125625D01*
X837665Y125525D01*
X837665Y124573D01*
X836779Y122436D01*
X835144Y120801D01*
X833007Y119915D01*
X830693Y119915D01*
X828556Y120801D01*
X826921Y122436D01*
X826035Y124573D01*
X826035Y126887D01*
X826921Y129024D01*
X828556Y130659D01*
X830693Y131545D01*
X831645Y131545D01*
X831770Y131559D01*
X831896Y131566D01*
X831943Y131579D01*
X831991Y131585D01*
X832110Y131627D01*
X832231Y131662D01*
X832273Y131686D01*
X832319Y131702D01*
X832425Y131771D01*
X832535Y131832D01*
X832582Y131872D01*
X832612Y131891D01*
X832645Y131926D01*
X832722Y131991D01*
X890297Y189566D01*
X890376Y189665D01*
X890460Y189759D01*
X890484Y189802D01*
X890514Y189839D01*
X890568Y189954D01*
X890629Y190064D01*
X890642Y190111D01*
X890663Y190154D01*
X890689Y190278D01*
X890724Y190400D01*
X890729Y190460D01*
X890736Y190495D01*
X890735Y190543D01*
X890743Y190643D01*
X890743Y205740D01*
X890740Y205766D01*
X890742Y205792D01*
X890720Y205939D01*
X890703Y206086D01*
X890695Y206111D01*
X890691Y206137D01*
X890636Y206275D01*
X890586Y206414D01*
X890572Y206436D01*
X890562Y206461D01*
X890477Y206582D01*
X890397Y206707D01*
X890378Y206725D01*
X890363Y206747D01*
X890253Y206846D01*
X890146Y206949D01*
X890124Y206963D01*
X890104Y206980D01*
X889974Y207052D01*
X889847Y207128D01*
X889822Y207136D01*
X889799Y207149D01*
X889656Y207189D01*
X889515Y207234D01*
X889489Y207236D01*
X889464Y207244D01*
X889220Y207263D01*
X698500Y207263D01*
X698474Y207260D01*
X698448Y207262D01*
X698301Y207240D01*
X698154Y207223D01*
X698129Y207215D01*
X698103Y207211D01*
X697965Y207156D01*
X697826Y207106D01*
X697804Y207092D01*
X697779Y207082D01*
X697658Y206997D01*
X697533Y206917D01*
X697515Y206898D01*
X697493Y206883D01*
X697394Y206773D01*
X697291Y206666D01*
X697277Y206644D01*
X697260Y206624D01*
X697188Y206494D01*
X697112Y206367D01*
X697104Y206342D01*
X697091Y206319D01*
X697051Y206176D01*
X697006Y206035D01*
X697004Y206009D01*
X696996Y205984D01*
X696977Y205740D01*
X696977Y40640D01*
X696980Y40614D01*
X696978Y40588D01*
X697000Y40441D01*
X697017Y40294D01*
X697025Y40269D01*
X697029Y40243D01*
X697084Y40105D01*
X697134Y39966D01*
X697148Y39944D01*
X697158Y39919D01*
X697243Y39798D01*
X697323Y39673D01*
X697342Y39655D01*
X697357Y39633D01*
X697467Y39534D01*
X697574Y39431D01*
X697596Y39417D01*
X697616Y39400D01*
X697746Y39328D01*
X697873Y39252D01*
X697898Y39244D01*
X697921Y39231D01*
X698064Y39191D01*
X698205Y39146D01*
X698231Y39144D01*
X698256Y39136D01*
X698500Y39117D01*
X700132Y39117D01*
X700207Y39126D01*
G37*
G36*
X243007Y394726D02*
X243007Y394726D01*
X243084Y394724D01*
X243180Y394745D01*
X243278Y394757D01*
X243350Y394782D01*
X243424Y394799D01*
X243513Y394841D01*
X243606Y394874D01*
X243670Y394916D01*
X243739Y394948D01*
X243816Y395010D01*
X243899Y395063D01*
X243952Y395118D01*
X244011Y395166D01*
X244072Y395243D01*
X244141Y395314D01*
X244180Y395379D01*
X244227Y395439D01*
X244296Y395573D01*
X244320Y395613D01*
X244325Y395631D01*
X244339Y395657D01*
X245386Y398186D01*
X248244Y401044D01*
X248999Y401356D01*
X249066Y401394D01*
X249137Y401422D01*
X249218Y401478D01*
X249304Y401526D01*
X249360Y401577D01*
X249423Y401621D01*
X249489Y401694D01*
X249562Y401760D01*
X249605Y401823D01*
X249656Y401879D01*
X249704Y401966D01*
X249760Y402047D01*
X249788Y402118D01*
X249825Y402185D01*
X249852Y402279D01*
X249888Y402371D01*
X249899Y402446D01*
X249920Y402520D01*
X249932Y402669D01*
X249939Y402716D01*
X249937Y402735D01*
X249939Y402764D01*
X249939Y403481D01*
X249936Y403507D01*
X249938Y403533D01*
X249916Y403680D01*
X249899Y403827D01*
X249891Y403852D01*
X249887Y403878D01*
X249832Y404016D01*
X249782Y404155D01*
X249768Y404177D01*
X249758Y404202D01*
X249673Y404323D01*
X249593Y404448D01*
X249574Y404466D01*
X249559Y404488D01*
X249449Y404587D01*
X249342Y404690D01*
X249320Y404704D01*
X249300Y404721D01*
X249170Y404793D01*
X249043Y404869D01*
X249018Y404877D01*
X248995Y404890D01*
X248852Y404930D01*
X248711Y404975D01*
X248685Y404977D01*
X248660Y404985D01*
X248416Y405004D01*
X244698Y405004D01*
X243209Y406493D01*
X243209Y426627D01*
X244698Y428116D01*
X254565Y428116D01*
X254690Y428130D01*
X254817Y428137D01*
X254863Y428150D01*
X254911Y428156D01*
X255030Y428198D01*
X255151Y428233D01*
X255194Y428257D01*
X255239Y428273D01*
X255345Y428342D01*
X255456Y428403D01*
X255502Y428443D01*
X255532Y428462D01*
X255565Y428497D01*
X255642Y428562D01*
X262437Y435357D01*
X267716Y435357D01*
X267742Y435360D01*
X267768Y435358D01*
X267915Y435380D01*
X268062Y435397D01*
X268087Y435405D01*
X268113Y435409D01*
X268251Y435464D01*
X268390Y435514D01*
X268412Y435528D01*
X268437Y435538D01*
X268558Y435623D01*
X268683Y435703D01*
X268701Y435722D01*
X268723Y435737D01*
X268822Y435847D01*
X268925Y435954D01*
X268939Y435976D01*
X268956Y435996D01*
X269028Y436126D01*
X269104Y436253D01*
X269112Y436278D01*
X269125Y436301D01*
X269165Y436444D01*
X269210Y436585D01*
X269212Y436611D01*
X269220Y436636D01*
X269239Y436880D01*
X269239Y528628D01*
X277822Y537211D01*
X353391Y537211D01*
X353516Y537225D01*
X353642Y537232D01*
X353689Y537245D01*
X353737Y537251D01*
X353856Y537293D01*
X353977Y537328D01*
X354019Y537352D01*
X354065Y537368D01*
X354171Y537437D01*
X354281Y537498D01*
X354328Y537538D01*
X354358Y537557D01*
X354391Y537592D01*
X354468Y537657D01*
X362265Y545454D01*
X362344Y545553D01*
X362428Y545647D01*
X362452Y545690D01*
X362482Y545727D01*
X362536Y545842D01*
X362597Y545952D01*
X362610Y545999D01*
X362631Y546042D01*
X362657Y546166D01*
X362692Y546288D01*
X362697Y546348D01*
X362704Y546383D01*
X362703Y546431D01*
X362711Y546531D01*
X362711Y547212D01*
X363562Y549266D01*
X365134Y550838D01*
X367188Y551689D01*
X369412Y551689D01*
X371466Y550838D01*
X373038Y549266D01*
X373889Y547212D01*
X373889Y544988D01*
X373038Y542934D01*
X371466Y541362D01*
X370971Y541157D01*
X370884Y541108D01*
X370791Y541068D01*
X370732Y541024D01*
X370667Y540988D01*
X370592Y540920D01*
X370512Y540861D01*
X370464Y540804D01*
X370409Y540754D01*
X370351Y540671D01*
X370287Y540595D01*
X370253Y540528D01*
X370210Y540467D01*
X370174Y540374D01*
X370128Y540284D01*
X370110Y540212D01*
X370083Y540143D01*
X370068Y540043D01*
X370044Y539946D01*
X370043Y539872D01*
X370032Y539798D01*
X370040Y539698D01*
X370039Y539598D01*
X370054Y539525D01*
X370061Y539451D01*
X370092Y539355D01*
X370113Y539257D01*
X370145Y539190D01*
X370168Y539119D01*
X370220Y539033D01*
X370263Y538942D01*
X370309Y538884D01*
X370347Y538821D01*
X370417Y538748D01*
X370480Y538670D01*
X370538Y538624D01*
X370590Y538571D01*
X370675Y538516D01*
X370754Y538454D01*
X370843Y538408D01*
X370884Y538382D01*
X370917Y538370D01*
X370971Y538343D01*
X371466Y538138D01*
X373038Y536566D01*
X373889Y534512D01*
X373889Y532288D01*
X373038Y530234D01*
X371466Y528662D01*
X369412Y527811D01*
X368731Y527811D01*
X368606Y527797D01*
X368480Y527790D01*
X368433Y527777D01*
X368385Y527771D01*
X368266Y527729D01*
X368145Y527694D01*
X368103Y527670D01*
X368057Y527654D01*
X367951Y527585D01*
X367841Y527524D01*
X367794Y527484D01*
X367764Y527465D01*
X367731Y527430D01*
X367654Y527365D01*
X363528Y523239D01*
X287959Y523239D01*
X287834Y523225D01*
X287708Y523218D01*
X287661Y523205D01*
X287613Y523199D01*
X287494Y523157D01*
X287373Y523122D01*
X287331Y523098D01*
X287285Y523082D01*
X287179Y523013D01*
X287069Y522952D01*
X287022Y522912D01*
X286992Y522893D01*
X286959Y522858D01*
X286882Y522793D01*
X283657Y519568D01*
X283578Y519469D01*
X283494Y519375D01*
X283470Y519332D01*
X283440Y519295D01*
X283386Y519180D01*
X283325Y519070D01*
X283312Y519023D01*
X283291Y518980D01*
X283265Y518856D01*
X283230Y518734D01*
X283225Y518674D01*
X283218Y518639D01*
X283219Y518591D01*
X283211Y518491D01*
X283211Y444144D01*
X283225Y444018D01*
X283232Y443892D01*
X283245Y443846D01*
X283251Y443798D01*
X283293Y443679D01*
X283328Y443557D01*
X283352Y443515D01*
X283368Y443470D01*
X283437Y443363D01*
X283498Y443253D01*
X283538Y443207D01*
X283557Y443177D01*
X283592Y443143D01*
X283657Y443067D01*
X284138Y442586D01*
X284989Y440532D01*
X284989Y438308D01*
X284138Y436254D01*
X282566Y434682D01*
X280512Y433831D01*
X278384Y433831D01*
X278358Y433828D01*
X278332Y433830D01*
X278185Y433808D01*
X278038Y433791D01*
X278013Y433783D01*
X277987Y433779D01*
X277849Y433724D01*
X277710Y433674D01*
X277688Y433660D01*
X277663Y433650D01*
X277542Y433565D01*
X277417Y433485D01*
X277399Y433466D01*
X277377Y433451D01*
X277278Y433341D01*
X277175Y433234D01*
X277161Y433212D01*
X277144Y433192D01*
X277072Y433062D01*
X276996Y432935D01*
X276988Y432910D01*
X276975Y432887D01*
X276935Y432744D01*
X276890Y432603D01*
X276888Y432577D01*
X276880Y432552D01*
X276861Y432308D01*
X276861Y429639D01*
X276864Y429613D01*
X276862Y429587D01*
X276884Y429440D01*
X276901Y429293D01*
X276909Y429268D01*
X276913Y429242D01*
X276968Y429104D01*
X277018Y428965D01*
X277032Y428943D01*
X277042Y428918D01*
X277127Y428797D01*
X277207Y428672D01*
X277226Y428654D01*
X277241Y428632D01*
X277351Y428533D01*
X277458Y428430D01*
X277480Y428416D01*
X277500Y428399D01*
X277630Y428327D01*
X277757Y428251D01*
X277782Y428243D01*
X277805Y428230D01*
X277948Y428190D01*
X278089Y428145D01*
X278115Y428143D01*
X278140Y428135D01*
X278384Y428116D01*
X291242Y428116D01*
X292731Y426627D01*
X292731Y415599D01*
X292745Y415474D01*
X292752Y415348D01*
X292765Y415301D01*
X292771Y415253D01*
X292813Y415134D01*
X292848Y415013D01*
X292872Y414971D01*
X292888Y414925D01*
X292957Y414819D01*
X293018Y414709D01*
X293058Y414662D01*
X293077Y414632D01*
X293112Y414599D01*
X293177Y414522D01*
X298312Y409387D01*
X298411Y409308D01*
X298505Y409224D01*
X298548Y409200D01*
X298585Y409170D01*
X298700Y409116D01*
X298810Y409055D01*
X298857Y409042D01*
X298900Y409021D01*
X299024Y408995D01*
X299146Y408960D01*
X299206Y408955D01*
X299241Y408948D01*
X299289Y408949D01*
X299389Y408941D01*
X343208Y408941D01*
X350016Y402133D01*
X350076Y402085D01*
X350129Y402031D01*
X350212Y401977D01*
X350289Y401916D01*
X350358Y401884D01*
X350423Y401842D01*
X350515Y401809D01*
X350604Y401767D01*
X350679Y401751D01*
X350751Y401726D01*
X350849Y401715D01*
X350945Y401694D01*
X351021Y401695D01*
X351097Y401687D01*
X351195Y401698D01*
X351294Y401700D01*
X351368Y401719D01*
X351444Y401728D01*
X351586Y401773D01*
X351632Y401785D01*
X351649Y401794D01*
X351676Y401803D01*
X353579Y402591D01*
X357621Y402591D01*
X357728Y402547D01*
X357801Y402526D01*
X357871Y402495D01*
X357968Y402478D01*
X358063Y402451D01*
X358139Y402447D01*
X358214Y402434D01*
X358313Y402439D01*
X358411Y402434D01*
X358486Y402448D01*
X358562Y402452D01*
X358657Y402479D01*
X358754Y402497D01*
X358824Y402527D01*
X358897Y402548D01*
X358983Y402596D01*
X359073Y402635D01*
X359135Y402681D01*
X359201Y402718D01*
X359315Y402815D01*
X359353Y402843D01*
X359365Y402858D01*
X359388Y402877D01*
X364043Y407532D01*
X366722Y410211D01*
X416891Y410211D01*
X417016Y410225D01*
X417142Y410232D01*
X417189Y410245D01*
X417237Y410251D01*
X417356Y410293D01*
X417477Y410328D01*
X417519Y410352D01*
X417565Y410368D01*
X417671Y410437D01*
X417781Y410498D01*
X417828Y410538D01*
X417858Y410557D01*
X417891Y410592D01*
X417968Y410657D01*
X419247Y411936D01*
X419263Y411956D01*
X419283Y411974D01*
X419329Y412036D01*
X419362Y412070D01*
X419389Y412115D01*
X419463Y412209D01*
X419475Y412233D01*
X419490Y412254D01*
X419538Y412364D01*
X419541Y412369D01*
X419543Y412376D01*
X419549Y412390D01*
X419612Y412524D01*
X419618Y412550D01*
X419628Y412574D01*
X419655Y412720D01*
X419686Y412865D01*
X419685Y412891D01*
X419690Y412917D01*
X419682Y413065D01*
X419680Y413213D01*
X419673Y413239D01*
X419672Y413265D01*
X419631Y413407D01*
X419595Y413551D01*
X419583Y413575D01*
X419575Y413600D01*
X419503Y413729D01*
X419435Y413861D01*
X419418Y413881D01*
X419405Y413904D01*
X419247Y414090D01*
X419099Y414238D01*
X419099Y429042D01*
X420588Y430531D01*
X437211Y430531D01*
X437336Y430545D01*
X437462Y430552D01*
X437509Y430565D01*
X437557Y430571D01*
X437676Y430613D01*
X437797Y430648D01*
X437839Y430672D01*
X437885Y430688D01*
X437991Y430757D01*
X438101Y430818D01*
X438148Y430858D01*
X438178Y430877D01*
X438211Y430912D01*
X438288Y430977D01*
X445323Y438012D01*
X445402Y438111D01*
X445486Y438205D01*
X445510Y438248D01*
X445540Y438285D01*
X445594Y438400D01*
X445655Y438510D01*
X445668Y438557D01*
X445689Y438600D01*
X445715Y438724D01*
X445750Y438846D01*
X445755Y438906D01*
X445762Y438941D01*
X445761Y438989D01*
X445769Y439089D01*
X445769Y561340D01*
X445766Y561366D01*
X445768Y561392D01*
X445746Y561539D01*
X445729Y561686D01*
X445721Y561711D01*
X445717Y561737D01*
X445662Y561875D01*
X445612Y562014D01*
X445598Y562036D01*
X445588Y562061D01*
X445503Y562182D01*
X445423Y562307D01*
X445404Y562325D01*
X445389Y562347D01*
X445279Y562446D01*
X445172Y562549D01*
X445150Y562563D01*
X445130Y562580D01*
X445000Y562652D01*
X444873Y562728D01*
X444848Y562736D01*
X444825Y562749D01*
X444682Y562789D01*
X444541Y562834D01*
X444515Y562836D01*
X444490Y562844D01*
X444246Y562863D01*
X442688Y562863D01*
X442662Y562860D01*
X442636Y562862D01*
X442489Y562840D01*
X442342Y562823D01*
X442317Y562815D01*
X442291Y562811D01*
X442153Y562756D01*
X442014Y562706D01*
X441992Y562692D01*
X441967Y562682D01*
X441846Y562597D01*
X441721Y562517D01*
X441703Y562498D01*
X441681Y562483D01*
X441582Y562373D01*
X441479Y562266D01*
X441465Y562244D01*
X441448Y562224D01*
X441376Y562094D01*
X441300Y561967D01*
X441292Y561942D01*
X441279Y561919D01*
X441239Y561776D01*
X441194Y561635D01*
X441192Y561609D01*
X441184Y561584D01*
X441165Y561340D01*
X441165Y542456D01*
X380911Y482202D01*
X380832Y482103D01*
X380748Y482009D01*
X380724Y481966D01*
X380694Y481929D01*
X380640Y481814D01*
X380579Y481704D01*
X380566Y481657D01*
X380545Y481614D01*
X380519Y481490D01*
X380484Y481368D01*
X380479Y481308D01*
X380472Y481273D01*
X380473Y481225D01*
X380465Y481125D01*
X380465Y480173D01*
X379579Y478036D01*
X377944Y476401D01*
X375807Y475515D01*
X373493Y475515D01*
X371356Y476401D01*
X369721Y478036D01*
X368835Y480173D01*
X368835Y482487D01*
X369721Y484624D01*
X371356Y486259D01*
X373493Y487145D01*
X374445Y487145D01*
X374570Y487159D01*
X374696Y487166D01*
X374743Y487179D01*
X374791Y487185D01*
X374910Y487227D01*
X375031Y487262D01*
X375073Y487286D01*
X375119Y487302D01*
X375225Y487371D01*
X375335Y487432D01*
X375382Y487472D01*
X375412Y487491D01*
X375445Y487526D01*
X375522Y487591D01*
X433097Y545166D01*
X433176Y545265D01*
X433260Y545359D01*
X433284Y545402D01*
X433314Y545439D01*
X433368Y545554D01*
X433429Y545664D01*
X433442Y545711D01*
X433463Y545754D01*
X433489Y545878D01*
X433524Y546000D01*
X433529Y546060D01*
X433536Y546095D01*
X433535Y546143D01*
X433543Y546243D01*
X433543Y561340D01*
X433540Y561366D01*
X433542Y561392D01*
X433520Y561539D01*
X433503Y561686D01*
X433495Y561711D01*
X433491Y561737D01*
X433436Y561875D01*
X433386Y562014D01*
X433372Y562036D01*
X433362Y562061D01*
X433277Y562182D01*
X433197Y562307D01*
X433178Y562325D01*
X433163Y562347D01*
X433053Y562446D01*
X432946Y562549D01*
X432924Y562563D01*
X432904Y562580D01*
X432774Y562652D01*
X432647Y562728D01*
X432622Y562736D01*
X432599Y562749D01*
X432456Y562789D01*
X432315Y562834D01*
X432289Y562836D01*
X432264Y562844D01*
X432020Y562863D01*
X241300Y562863D01*
X241274Y562860D01*
X241248Y562862D01*
X241101Y562840D01*
X240954Y562823D01*
X240929Y562815D01*
X240903Y562811D01*
X240765Y562756D01*
X240626Y562706D01*
X240604Y562692D01*
X240579Y562682D01*
X240458Y562597D01*
X240333Y562517D01*
X240315Y562498D01*
X240293Y562483D01*
X240194Y562373D01*
X240091Y562266D01*
X240077Y562244D01*
X240060Y562224D01*
X239988Y562094D01*
X239912Y561967D01*
X239904Y561942D01*
X239891Y561919D01*
X239851Y561776D01*
X239806Y561635D01*
X239804Y561609D01*
X239796Y561584D01*
X239777Y561340D01*
X239777Y396240D01*
X239780Y396214D01*
X239778Y396188D01*
X239800Y396041D01*
X239817Y395894D01*
X239825Y395869D01*
X239829Y395843D01*
X239884Y395705D01*
X239934Y395566D01*
X239948Y395544D01*
X239958Y395519D01*
X240043Y395398D01*
X240123Y395273D01*
X240142Y395255D01*
X240157Y395233D01*
X240267Y395134D01*
X240374Y395031D01*
X240396Y395017D01*
X240416Y395000D01*
X240546Y394928D01*
X240673Y394852D01*
X240698Y394844D01*
X240721Y394831D01*
X240864Y394791D01*
X241005Y394746D01*
X241031Y394744D01*
X241056Y394736D01*
X241300Y394717D01*
X242932Y394717D01*
X243007Y394726D01*
G37*
G36*
X700207Y394726D02*
X700207Y394726D01*
X700284Y394724D01*
X700380Y394745D01*
X700478Y394757D01*
X700550Y394782D01*
X700624Y394799D01*
X700713Y394841D01*
X700806Y394874D01*
X700870Y394916D01*
X700939Y394948D01*
X701016Y395010D01*
X701099Y395063D01*
X701152Y395118D01*
X701211Y395166D01*
X701272Y395243D01*
X701341Y395314D01*
X701380Y395379D01*
X701427Y395439D01*
X701496Y395573D01*
X701520Y395613D01*
X701525Y395631D01*
X701539Y395657D01*
X702586Y398186D01*
X705444Y401044D01*
X706199Y401356D01*
X706266Y401394D01*
X706337Y401422D01*
X706418Y401478D01*
X706504Y401526D01*
X706560Y401577D01*
X706623Y401621D01*
X706689Y401694D01*
X706762Y401760D01*
X706805Y401823D01*
X706856Y401879D01*
X706904Y401966D01*
X706960Y402047D01*
X706988Y402118D01*
X707025Y402185D01*
X707052Y402279D01*
X707088Y402371D01*
X707099Y402446D01*
X707120Y402520D01*
X707132Y402669D01*
X707139Y402716D01*
X707137Y402735D01*
X707139Y402764D01*
X707139Y403481D01*
X707136Y403507D01*
X707138Y403533D01*
X707116Y403680D01*
X707099Y403827D01*
X707091Y403852D01*
X707087Y403878D01*
X707032Y404016D01*
X706982Y404155D01*
X706968Y404177D01*
X706958Y404202D01*
X706873Y404323D01*
X706793Y404448D01*
X706774Y404466D01*
X706759Y404488D01*
X706649Y404587D01*
X706542Y404690D01*
X706520Y404704D01*
X706500Y404721D01*
X706370Y404793D01*
X706243Y404869D01*
X706218Y404877D01*
X706195Y404890D01*
X706052Y404930D01*
X705911Y404975D01*
X705885Y404977D01*
X705860Y404985D01*
X705616Y405004D01*
X701898Y405004D01*
X700409Y406493D01*
X700409Y426627D01*
X701898Y428116D01*
X711765Y428116D01*
X711890Y428130D01*
X712017Y428137D01*
X712063Y428150D01*
X712111Y428156D01*
X712230Y428198D01*
X712351Y428233D01*
X712394Y428257D01*
X712439Y428273D01*
X712545Y428342D01*
X712656Y428403D01*
X712702Y428443D01*
X712732Y428462D01*
X712765Y428497D01*
X712842Y428562D01*
X719637Y435357D01*
X724916Y435357D01*
X724942Y435360D01*
X724968Y435358D01*
X725115Y435380D01*
X725262Y435397D01*
X725287Y435405D01*
X725313Y435409D01*
X725451Y435464D01*
X725590Y435514D01*
X725612Y435528D01*
X725637Y435538D01*
X725758Y435623D01*
X725883Y435703D01*
X725901Y435722D01*
X725923Y435737D01*
X726022Y435847D01*
X726125Y435954D01*
X726139Y435976D01*
X726156Y435996D01*
X726228Y436126D01*
X726304Y436253D01*
X726312Y436278D01*
X726325Y436301D01*
X726365Y436444D01*
X726410Y436585D01*
X726412Y436611D01*
X726420Y436636D01*
X726439Y436880D01*
X726439Y528628D01*
X735022Y537211D01*
X810591Y537211D01*
X810716Y537225D01*
X810842Y537232D01*
X810889Y537245D01*
X810937Y537251D01*
X811056Y537293D01*
X811177Y537328D01*
X811219Y537352D01*
X811265Y537368D01*
X811371Y537437D01*
X811481Y537498D01*
X811528Y537538D01*
X811558Y537557D01*
X811591Y537592D01*
X811668Y537657D01*
X819465Y545454D01*
X819544Y545553D01*
X819628Y545647D01*
X819652Y545690D01*
X819682Y545727D01*
X819736Y545842D01*
X819797Y545952D01*
X819810Y545999D01*
X819831Y546042D01*
X819857Y546166D01*
X819892Y546288D01*
X819897Y546348D01*
X819904Y546383D01*
X819903Y546431D01*
X819911Y546531D01*
X819911Y547212D01*
X820762Y549266D01*
X822334Y550838D01*
X824388Y551689D01*
X826612Y551689D01*
X828666Y550838D01*
X830238Y549266D01*
X831089Y547212D01*
X831089Y544988D01*
X830238Y542934D01*
X828666Y541362D01*
X828171Y541157D01*
X828084Y541109D01*
X827991Y541069D01*
X827932Y541024D01*
X827867Y540988D01*
X827792Y540921D01*
X827712Y540861D01*
X827664Y540804D01*
X827609Y540754D01*
X827552Y540671D01*
X827487Y540595D01*
X827453Y540528D01*
X827410Y540467D01*
X827374Y540374D01*
X827328Y540284D01*
X827310Y540212D01*
X827283Y540143D01*
X827268Y540044D01*
X827244Y539946D01*
X827243Y539872D01*
X827232Y539798D01*
X827240Y539698D01*
X827239Y539598D01*
X827255Y539525D01*
X827261Y539451D01*
X827292Y539355D01*
X827313Y539257D01*
X827345Y539190D01*
X827368Y539119D01*
X827419Y539033D01*
X827463Y538942D01*
X827509Y538884D01*
X827547Y538821D01*
X827617Y538749D01*
X827680Y538670D01*
X827738Y538624D01*
X827790Y538571D01*
X827875Y538516D01*
X827954Y538454D01*
X828043Y538408D01*
X828084Y538382D01*
X828117Y538370D01*
X828171Y538343D01*
X828666Y538138D01*
X830238Y536566D01*
X831089Y534512D01*
X831089Y532288D01*
X830238Y530234D01*
X828666Y528662D01*
X826612Y527811D01*
X825931Y527811D01*
X825806Y527797D01*
X825680Y527790D01*
X825633Y527777D01*
X825585Y527771D01*
X825466Y527729D01*
X825345Y527694D01*
X825303Y527670D01*
X825257Y527654D01*
X825151Y527585D01*
X825041Y527524D01*
X824994Y527484D01*
X824964Y527465D01*
X824931Y527430D01*
X824854Y527365D01*
X820728Y523239D01*
X745159Y523239D01*
X745034Y523225D01*
X744908Y523218D01*
X744861Y523205D01*
X744813Y523199D01*
X744694Y523157D01*
X744573Y523122D01*
X744531Y523098D01*
X744485Y523082D01*
X744379Y523013D01*
X744269Y522952D01*
X744222Y522912D01*
X744192Y522893D01*
X744159Y522858D01*
X744082Y522793D01*
X740857Y519568D01*
X740778Y519469D01*
X740694Y519375D01*
X740670Y519332D01*
X740640Y519295D01*
X740586Y519180D01*
X740525Y519070D01*
X740512Y519023D01*
X740491Y518980D01*
X740465Y518856D01*
X740430Y518734D01*
X740425Y518674D01*
X740418Y518639D01*
X740419Y518591D01*
X740411Y518491D01*
X740411Y444144D01*
X740425Y444018D01*
X740432Y443892D01*
X740445Y443846D01*
X740451Y443798D01*
X740493Y443679D01*
X740528Y443557D01*
X740552Y443515D01*
X740568Y443470D01*
X740637Y443363D01*
X740698Y443253D01*
X740738Y443207D01*
X740757Y443177D01*
X740792Y443143D01*
X740857Y443067D01*
X741338Y442586D01*
X742189Y440532D01*
X742189Y438308D01*
X741338Y436254D01*
X739766Y434682D01*
X737712Y433831D01*
X735584Y433831D01*
X735558Y433828D01*
X735532Y433830D01*
X735385Y433808D01*
X735238Y433791D01*
X735213Y433783D01*
X735187Y433779D01*
X735049Y433724D01*
X734910Y433674D01*
X734888Y433660D01*
X734863Y433650D01*
X734742Y433565D01*
X734617Y433485D01*
X734599Y433466D01*
X734577Y433451D01*
X734478Y433341D01*
X734375Y433234D01*
X734361Y433212D01*
X734344Y433192D01*
X734272Y433062D01*
X734196Y432935D01*
X734188Y432910D01*
X734175Y432887D01*
X734135Y432744D01*
X734090Y432603D01*
X734088Y432577D01*
X734080Y432552D01*
X734061Y432308D01*
X734061Y429639D01*
X734064Y429613D01*
X734062Y429587D01*
X734084Y429440D01*
X734101Y429293D01*
X734109Y429268D01*
X734113Y429242D01*
X734168Y429104D01*
X734218Y428965D01*
X734232Y428943D01*
X734242Y428918D01*
X734327Y428797D01*
X734407Y428672D01*
X734426Y428654D01*
X734441Y428632D01*
X734551Y428533D01*
X734658Y428430D01*
X734680Y428416D01*
X734700Y428399D01*
X734830Y428327D01*
X734957Y428251D01*
X734982Y428243D01*
X735005Y428230D01*
X735148Y428190D01*
X735289Y428145D01*
X735315Y428143D01*
X735340Y428135D01*
X735584Y428116D01*
X748442Y428116D01*
X749931Y426627D01*
X749931Y415599D01*
X749945Y415474D01*
X749952Y415348D01*
X749965Y415301D01*
X749971Y415253D01*
X750013Y415134D01*
X750048Y415013D01*
X750072Y414971D01*
X750088Y414925D01*
X750157Y414819D01*
X750218Y414709D01*
X750258Y414662D01*
X750277Y414632D01*
X750312Y414599D01*
X750377Y414522D01*
X755512Y409387D01*
X755611Y409308D01*
X755705Y409224D01*
X755748Y409200D01*
X755785Y409170D01*
X755900Y409116D01*
X756010Y409055D01*
X756057Y409042D01*
X756100Y409021D01*
X756224Y408995D01*
X756346Y408960D01*
X756406Y408955D01*
X756441Y408948D01*
X756489Y408949D01*
X756589Y408941D01*
X800408Y408941D01*
X807216Y402133D01*
X807276Y402085D01*
X807329Y402031D01*
X807412Y401977D01*
X807489Y401916D01*
X807558Y401884D01*
X807623Y401842D01*
X807715Y401809D01*
X807804Y401767D01*
X807879Y401751D01*
X807951Y401726D01*
X808049Y401715D01*
X808145Y401694D01*
X808221Y401695D01*
X808297Y401687D01*
X808395Y401698D01*
X808494Y401700D01*
X808568Y401719D01*
X808644Y401728D01*
X808786Y401773D01*
X808832Y401785D01*
X808849Y401794D01*
X808876Y401803D01*
X810779Y402591D01*
X814821Y402591D01*
X814928Y402547D01*
X815001Y402526D01*
X815071Y402495D01*
X815168Y402478D01*
X815263Y402451D01*
X815339Y402447D01*
X815414Y402434D01*
X815513Y402439D01*
X815611Y402434D01*
X815686Y402448D01*
X815762Y402452D01*
X815857Y402479D01*
X815954Y402497D01*
X816024Y402527D01*
X816097Y402548D01*
X816183Y402596D01*
X816273Y402635D01*
X816335Y402681D01*
X816401Y402718D01*
X816515Y402815D01*
X816553Y402843D01*
X816565Y402858D01*
X816588Y402877D01*
X821243Y407532D01*
X823922Y410211D01*
X874091Y410211D01*
X874216Y410225D01*
X874342Y410232D01*
X874389Y410245D01*
X874437Y410251D01*
X874556Y410293D01*
X874677Y410328D01*
X874719Y410352D01*
X874765Y410368D01*
X874871Y410437D01*
X874981Y410498D01*
X875028Y410538D01*
X875058Y410557D01*
X875091Y410592D01*
X875168Y410657D01*
X876447Y411936D01*
X876463Y411956D01*
X876483Y411974D01*
X876529Y412036D01*
X876562Y412070D01*
X876589Y412115D01*
X876663Y412209D01*
X876675Y412233D01*
X876690Y412254D01*
X876738Y412364D01*
X876741Y412369D01*
X876743Y412376D01*
X876749Y412390D01*
X876812Y412524D01*
X876818Y412550D01*
X876828Y412574D01*
X876855Y412720D01*
X876886Y412865D01*
X876885Y412891D01*
X876890Y412917D01*
X876882Y413065D01*
X876880Y413213D01*
X876873Y413239D01*
X876872Y413265D01*
X876831Y413407D01*
X876795Y413551D01*
X876783Y413575D01*
X876775Y413600D01*
X876703Y413729D01*
X876635Y413861D01*
X876618Y413881D01*
X876605Y413904D01*
X876447Y414090D01*
X876299Y414238D01*
X876299Y429042D01*
X877788Y430531D01*
X894411Y430531D01*
X894536Y430545D01*
X894662Y430552D01*
X894709Y430565D01*
X894757Y430571D01*
X894876Y430613D01*
X894997Y430648D01*
X895039Y430672D01*
X895085Y430688D01*
X895191Y430757D01*
X895301Y430818D01*
X895348Y430858D01*
X895378Y430877D01*
X895411Y430912D01*
X895488Y430977D01*
X902523Y438012D01*
X902602Y438111D01*
X902686Y438205D01*
X902710Y438248D01*
X902740Y438285D01*
X902794Y438400D01*
X902855Y438510D01*
X902868Y438557D01*
X902889Y438600D01*
X902915Y438724D01*
X902950Y438846D01*
X902955Y438906D01*
X902962Y438941D01*
X902961Y438989D01*
X902969Y439089D01*
X902969Y561340D01*
X902966Y561366D01*
X902968Y561392D01*
X902946Y561539D01*
X902929Y561686D01*
X902921Y561711D01*
X902917Y561737D01*
X902862Y561875D01*
X902812Y562014D01*
X902798Y562036D01*
X902788Y562061D01*
X902703Y562182D01*
X902623Y562307D01*
X902604Y562325D01*
X902589Y562347D01*
X902479Y562446D01*
X902372Y562549D01*
X902350Y562563D01*
X902330Y562580D01*
X902200Y562652D01*
X902073Y562728D01*
X902048Y562736D01*
X902025Y562749D01*
X901882Y562789D01*
X901741Y562834D01*
X901715Y562836D01*
X901690Y562844D01*
X901446Y562863D01*
X899888Y562863D01*
X899862Y562860D01*
X899836Y562862D01*
X899689Y562840D01*
X899542Y562823D01*
X899517Y562815D01*
X899491Y562811D01*
X899353Y562756D01*
X899214Y562706D01*
X899192Y562692D01*
X899167Y562682D01*
X899046Y562597D01*
X898921Y562517D01*
X898903Y562498D01*
X898881Y562483D01*
X898782Y562373D01*
X898679Y562266D01*
X898665Y562244D01*
X898648Y562224D01*
X898576Y562094D01*
X898500Y561967D01*
X898492Y561942D01*
X898479Y561919D01*
X898439Y561776D01*
X898394Y561635D01*
X898392Y561609D01*
X898384Y561584D01*
X898365Y561340D01*
X898365Y542456D01*
X838111Y482202D01*
X838032Y482103D01*
X837948Y482009D01*
X837924Y481966D01*
X837894Y481929D01*
X837840Y481814D01*
X837779Y481704D01*
X837766Y481657D01*
X837745Y481614D01*
X837719Y481490D01*
X837684Y481368D01*
X837679Y481308D01*
X837672Y481273D01*
X837673Y481225D01*
X837665Y481125D01*
X837665Y480173D01*
X836779Y478036D01*
X835144Y476401D01*
X833007Y475515D01*
X830693Y475515D01*
X828556Y476401D01*
X826921Y478036D01*
X826035Y480173D01*
X826035Y482487D01*
X826921Y484624D01*
X828556Y486259D01*
X830693Y487145D01*
X831645Y487145D01*
X831770Y487159D01*
X831896Y487166D01*
X831943Y487179D01*
X831991Y487185D01*
X832110Y487227D01*
X832231Y487262D01*
X832273Y487286D01*
X832319Y487302D01*
X832425Y487371D01*
X832535Y487432D01*
X832582Y487472D01*
X832612Y487491D01*
X832645Y487526D01*
X832722Y487591D01*
X890297Y545166D01*
X890376Y545265D01*
X890460Y545359D01*
X890484Y545402D01*
X890514Y545439D01*
X890568Y545554D01*
X890629Y545664D01*
X890642Y545711D01*
X890663Y545754D01*
X890689Y545878D01*
X890724Y546000D01*
X890729Y546060D01*
X890736Y546095D01*
X890735Y546143D01*
X890743Y546243D01*
X890743Y561340D01*
X890740Y561366D01*
X890742Y561392D01*
X890720Y561539D01*
X890703Y561686D01*
X890695Y561711D01*
X890691Y561737D01*
X890636Y561875D01*
X890586Y562014D01*
X890572Y562036D01*
X890562Y562061D01*
X890477Y562182D01*
X890397Y562307D01*
X890378Y562325D01*
X890363Y562347D01*
X890253Y562446D01*
X890146Y562549D01*
X890124Y562563D01*
X890104Y562580D01*
X889974Y562652D01*
X889847Y562728D01*
X889822Y562736D01*
X889799Y562749D01*
X889656Y562789D01*
X889515Y562834D01*
X889489Y562836D01*
X889464Y562844D01*
X889220Y562863D01*
X698500Y562863D01*
X698474Y562860D01*
X698448Y562862D01*
X698301Y562840D01*
X698154Y562823D01*
X698129Y562815D01*
X698103Y562811D01*
X697965Y562756D01*
X697826Y562706D01*
X697804Y562692D01*
X697779Y562682D01*
X697658Y562597D01*
X697533Y562517D01*
X697515Y562498D01*
X697493Y562483D01*
X697394Y562373D01*
X697291Y562266D01*
X697277Y562244D01*
X697260Y562224D01*
X697188Y562094D01*
X697112Y561967D01*
X697104Y561942D01*
X697091Y561919D01*
X697051Y561776D01*
X697006Y561635D01*
X697004Y561609D01*
X696996Y561584D01*
X696977Y561340D01*
X696977Y396240D01*
X696980Y396214D01*
X696978Y396188D01*
X697000Y396041D01*
X697017Y395894D01*
X697025Y395869D01*
X697029Y395843D01*
X697084Y395705D01*
X697134Y395566D01*
X697148Y395544D01*
X697158Y395519D01*
X697243Y395398D01*
X697323Y395273D01*
X697342Y395255D01*
X697357Y395233D01*
X697467Y395134D01*
X697574Y395031D01*
X697596Y395017D01*
X697616Y395000D01*
X697746Y394928D01*
X697873Y394852D01*
X697898Y394844D01*
X697921Y394831D01*
X698064Y394791D01*
X698205Y394746D01*
X698231Y394744D01*
X698256Y394736D01*
X698500Y394717D01*
X700132Y394717D01*
X700207Y394726D01*
G37*
G36*
X243007Y39126D02*
X243007Y39126D01*
X243084Y39124D01*
X243180Y39145D01*
X243278Y39157D01*
X243350Y39182D01*
X243424Y39199D01*
X243513Y39241D01*
X243606Y39274D01*
X243670Y39316D01*
X243739Y39348D01*
X243816Y39410D01*
X243899Y39463D01*
X243952Y39518D01*
X244011Y39566D01*
X244072Y39643D01*
X244141Y39714D01*
X244180Y39779D01*
X244227Y39839D01*
X244296Y39973D01*
X244320Y40013D01*
X244325Y40031D01*
X244339Y40057D01*
X245386Y42586D01*
X248244Y45444D01*
X248999Y45756D01*
X249066Y45794D01*
X249137Y45822D01*
X249218Y45878D01*
X249304Y45926D01*
X249360Y45977D01*
X249423Y46021D01*
X249489Y46094D01*
X249562Y46160D01*
X249605Y46223D01*
X249656Y46279D01*
X249704Y46366D01*
X249760Y46447D01*
X249788Y46518D01*
X249825Y46585D01*
X249852Y46679D01*
X249888Y46771D01*
X249899Y46846D01*
X249920Y46920D01*
X249932Y47069D01*
X249939Y47116D01*
X249937Y47135D01*
X249939Y47164D01*
X249939Y47881D01*
X249936Y47907D01*
X249938Y47933D01*
X249916Y48080D01*
X249899Y48227D01*
X249891Y48252D01*
X249887Y48278D01*
X249832Y48416D01*
X249782Y48555D01*
X249768Y48577D01*
X249758Y48602D01*
X249673Y48723D01*
X249593Y48848D01*
X249574Y48866D01*
X249559Y48888D01*
X249449Y48987D01*
X249342Y49090D01*
X249320Y49104D01*
X249300Y49121D01*
X249170Y49193D01*
X249043Y49269D01*
X249018Y49277D01*
X248995Y49290D01*
X248852Y49330D01*
X248711Y49375D01*
X248685Y49377D01*
X248660Y49385D01*
X248416Y49404D01*
X244698Y49404D01*
X243209Y50893D01*
X243209Y71027D01*
X244698Y72516D01*
X254565Y72516D01*
X254690Y72530D01*
X254817Y72537D01*
X254863Y72550D01*
X254911Y72556D01*
X255030Y72598D01*
X255151Y72633D01*
X255194Y72657D01*
X255239Y72673D01*
X255345Y72742D01*
X255456Y72803D01*
X255502Y72843D01*
X255532Y72862D01*
X255565Y72897D01*
X255642Y72962D01*
X262437Y79757D01*
X267716Y79757D01*
X267742Y79760D01*
X267768Y79758D01*
X267915Y79780D01*
X268062Y79797D01*
X268087Y79805D01*
X268113Y79809D01*
X268251Y79864D01*
X268390Y79914D01*
X268412Y79928D01*
X268437Y79938D01*
X268558Y80023D01*
X268683Y80103D01*
X268701Y80122D01*
X268723Y80137D01*
X268822Y80247D01*
X268925Y80354D01*
X268939Y80376D01*
X268956Y80396D01*
X269028Y80526D01*
X269104Y80653D01*
X269112Y80678D01*
X269125Y80701D01*
X269165Y80844D01*
X269210Y80985D01*
X269212Y81011D01*
X269220Y81036D01*
X269239Y81280D01*
X269239Y173028D01*
X277822Y181611D01*
X353391Y181611D01*
X353516Y181625D01*
X353642Y181632D01*
X353689Y181645D01*
X353737Y181651D01*
X353856Y181693D01*
X353977Y181728D01*
X354019Y181752D01*
X354065Y181768D01*
X354171Y181837D01*
X354281Y181898D01*
X354328Y181938D01*
X354358Y181957D01*
X354391Y181992D01*
X354468Y182057D01*
X362265Y189854D01*
X362344Y189953D01*
X362428Y190047D01*
X362452Y190090D01*
X362482Y190127D01*
X362536Y190242D01*
X362597Y190352D01*
X362610Y190399D01*
X362631Y190442D01*
X362657Y190566D01*
X362692Y190688D01*
X362697Y190748D01*
X362704Y190783D01*
X362703Y190831D01*
X362711Y190931D01*
X362711Y191612D01*
X363562Y193666D01*
X365134Y195238D01*
X367188Y196089D01*
X369412Y196089D01*
X371466Y195238D01*
X373038Y193666D01*
X373889Y191612D01*
X373889Y189388D01*
X373038Y187334D01*
X371466Y185762D01*
X370971Y185557D01*
X370884Y185509D01*
X370791Y185469D01*
X370732Y185424D01*
X370667Y185388D01*
X370592Y185321D01*
X370512Y185261D01*
X370464Y185204D01*
X370409Y185154D01*
X370352Y185071D01*
X370287Y184995D01*
X370253Y184928D01*
X370210Y184867D01*
X370174Y184774D01*
X370128Y184684D01*
X370110Y184612D01*
X370083Y184543D01*
X370068Y184444D01*
X370044Y184346D01*
X370043Y184272D01*
X370032Y184198D01*
X370040Y184098D01*
X370039Y183998D01*
X370055Y183925D01*
X370061Y183851D01*
X370092Y183755D01*
X370113Y183657D01*
X370145Y183590D01*
X370168Y183519D01*
X370219Y183433D01*
X370263Y183342D01*
X370309Y183284D01*
X370347Y183221D01*
X370417Y183149D01*
X370480Y183070D01*
X370538Y183024D01*
X370590Y182971D01*
X370675Y182916D01*
X370754Y182854D01*
X370843Y182808D01*
X370884Y182782D01*
X370917Y182770D01*
X370971Y182743D01*
X371466Y182538D01*
X373038Y180966D01*
X373889Y178912D01*
X373889Y176688D01*
X373038Y174634D01*
X371466Y173062D01*
X369412Y172211D01*
X368731Y172211D01*
X368606Y172197D01*
X368480Y172190D01*
X368433Y172177D01*
X368385Y172171D01*
X368266Y172129D01*
X368145Y172094D01*
X368103Y172070D01*
X368057Y172054D01*
X367951Y171985D01*
X367841Y171924D01*
X367794Y171884D01*
X367764Y171865D01*
X367731Y171830D01*
X367654Y171765D01*
X363528Y167639D01*
X287959Y167639D01*
X287834Y167625D01*
X287708Y167618D01*
X287661Y167605D01*
X287613Y167599D01*
X287494Y167557D01*
X287373Y167522D01*
X287331Y167498D01*
X287285Y167482D01*
X287179Y167413D01*
X287069Y167352D01*
X287022Y167312D01*
X286992Y167293D01*
X286959Y167258D01*
X286882Y167193D01*
X283657Y163968D01*
X283578Y163869D01*
X283494Y163775D01*
X283470Y163732D01*
X283440Y163695D01*
X283386Y163580D01*
X283325Y163470D01*
X283312Y163423D01*
X283291Y163380D01*
X283265Y163256D01*
X283230Y163134D01*
X283225Y163074D01*
X283218Y163039D01*
X283219Y162991D01*
X283211Y162891D01*
X283211Y88544D01*
X283225Y88418D01*
X283232Y88292D01*
X283245Y88246D01*
X283251Y88198D01*
X283293Y88079D01*
X283328Y87957D01*
X283352Y87915D01*
X283368Y87870D01*
X283437Y87763D01*
X283498Y87653D01*
X283538Y87607D01*
X283557Y87577D01*
X283592Y87543D01*
X283657Y87467D01*
X284138Y86986D01*
X284989Y84932D01*
X284989Y82708D01*
X284138Y80654D01*
X282566Y79082D01*
X280512Y78231D01*
X278384Y78231D01*
X278358Y78228D01*
X278332Y78230D01*
X278185Y78208D01*
X278038Y78191D01*
X278013Y78183D01*
X277987Y78179D01*
X277849Y78124D01*
X277710Y78074D01*
X277688Y78060D01*
X277663Y78050D01*
X277542Y77965D01*
X277417Y77885D01*
X277399Y77866D01*
X277377Y77851D01*
X277278Y77741D01*
X277175Y77634D01*
X277161Y77612D01*
X277144Y77592D01*
X277072Y77462D01*
X276996Y77335D01*
X276988Y77310D01*
X276975Y77287D01*
X276935Y77144D01*
X276890Y77003D01*
X276888Y76977D01*
X276880Y76952D01*
X276861Y76708D01*
X276861Y74039D01*
X276864Y74013D01*
X276862Y73987D01*
X276884Y73840D01*
X276901Y73693D01*
X276909Y73668D01*
X276913Y73642D01*
X276968Y73504D01*
X277018Y73365D01*
X277032Y73343D01*
X277042Y73318D01*
X277127Y73197D01*
X277207Y73072D01*
X277226Y73054D01*
X277241Y73032D01*
X277351Y72933D01*
X277458Y72830D01*
X277480Y72816D01*
X277500Y72799D01*
X277630Y72727D01*
X277757Y72651D01*
X277782Y72643D01*
X277805Y72630D01*
X277948Y72590D01*
X278089Y72545D01*
X278115Y72543D01*
X278140Y72535D01*
X278384Y72516D01*
X291242Y72516D01*
X292731Y71027D01*
X292731Y59999D01*
X292745Y59874D01*
X292752Y59748D01*
X292765Y59701D01*
X292771Y59653D01*
X292813Y59534D01*
X292848Y59413D01*
X292872Y59371D01*
X292888Y59325D01*
X292957Y59219D01*
X293018Y59109D01*
X293058Y59062D01*
X293077Y59032D01*
X293112Y58999D01*
X293177Y58922D01*
X298312Y53787D01*
X298411Y53708D01*
X298505Y53624D01*
X298548Y53600D01*
X298585Y53570D01*
X298700Y53516D01*
X298810Y53455D01*
X298857Y53442D01*
X298900Y53421D01*
X299024Y53395D01*
X299146Y53360D01*
X299206Y53355D01*
X299241Y53348D01*
X299289Y53349D01*
X299389Y53341D01*
X343208Y53341D01*
X350016Y46533D01*
X350076Y46485D01*
X350129Y46431D01*
X350212Y46377D01*
X350289Y46316D01*
X350358Y46284D01*
X350423Y46242D01*
X350515Y46209D01*
X350604Y46167D01*
X350679Y46151D01*
X350751Y46126D01*
X350849Y46115D01*
X350945Y46094D01*
X351021Y46095D01*
X351097Y46087D01*
X351195Y46098D01*
X351294Y46100D01*
X351368Y46119D01*
X351444Y46128D01*
X351586Y46173D01*
X351632Y46185D01*
X351649Y46194D01*
X351676Y46203D01*
X353579Y46991D01*
X357621Y46991D01*
X357728Y46947D01*
X357801Y46926D01*
X357871Y46895D01*
X357968Y46878D01*
X358063Y46851D01*
X358139Y46847D01*
X358214Y46834D01*
X358313Y46839D01*
X358411Y46834D01*
X358486Y46848D01*
X358562Y46852D01*
X358657Y46879D01*
X358754Y46897D01*
X358824Y46927D01*
X358897Y46948D01*
X358983Y46996D01*
X359073Y47035D01*
X359135Y47081D01*
X359201Y47118D01*
X359315Y47215D01*
X359353Y47243D01*
X359365Y47258D01*
X359388Y47277D01*
X364043Y51932D01*
X366722Y54611D01*
X416891Y54611D01*
X417016Y54625D01*
X417142Y54632D01*
X417189Y54645D01*
X417237Y54651D01*
X417356Y54693D01*
X417477Y54728D01*
X417519Y54752D01*
X417565Y54768D01*
X417671Y54837D01*
X417781Y54898D01*
X417828Y54938D01*
X417858Y54957D01*
X417891Y54992D01*
X417968Y55057D01*
X419247Y56336D01*
X419263Y56356D01*
X419283Y56374D01*
X419329Y56436D01*
X419362Y56470D01*
X419389Y56515D01*
X419463Y56609D01*
X419475Y56633D01*
X419490Y56654D01*
X419538Y56764D01*
X419541Y56769D01*
X419543Y56776D01*
X419549Y56790D01*
X419612Y56924D01*
X419618Y56950D01*
X419628Y56974D01*
X419655Y57120D01*
X419686Y57265D01*
X419685Y57291D01*
X419690Y57317D01*
X419682Y57465D01*
X419680Y57613D01*
X419673Y57639D01*
X419672Y57665D01*
X419631Y57807D01*
X419595Y57951D01*
X419583Y57975D01*
X419575Y58000D01*
X419503Y58129D01*
X419435Y58261D01*
X419418Y58281D01*
X419405Y58304D01*
X419247Y58490D01*
X419099Y58638D01*
X419099Y73442D01*
X420588Y74931D01*
X437211Y74931D01*
X437336Y74945D01*
X437462Y74952D01*
X437509Y74965D01*
X437557Y74971D01*
X437676Y75013D01*
X437797Y75048D01*
X437839Y75072D01*
X437885Y75088D01*
X437991Y75157D01*
X438101Y75218D01*
X438148Y75258D01*
X438178Y75277D01*
X438211Y75312D01*
X438288Y75377D01*
X445323Y82412D01*
X445402Y82511D01*
X445486Y82605D01*
X445510Y82648D01*
X445540Y82685D01*
X445594Y82800D01*
X445655Y82910D01*
X445668Y82957D01*
X445689Y83000D01*
X445715Y83124D01*
X445750Y83246D01*
X445755Y83306D01*
X445762Y83341D01*
X445761Y83389D01*
X445769Y83489D01*
X445769Y205740D01*
X445766Y205766D01*
X445768Y205792D01*
X445746Y205939D01*
X445729Y206086D01*
X445721Y206111D01*
X445717Y206137D01*
X445662Y206275D01*
X445612Y206414D01*
X445598Y206436D01*
X445588Y206461D01*
X445503Y206582D01*
X445423Y206707D01*
X445404Y206725D01*
X445389Y206747D01*
X445279Y206846D01*
X445172Y206949D01*
X445150Y206963D01*
X445130Y206980D01*
X445000Y207052D01*
X444873Y207128D01*
X444848Y207136D01*
X444825Y207149D01*
X444682Y207189D01*
X444541Y207234D01*
X444515Y207236D01*
X444490Y207244D01*
X444246Y207263D01*
X442688Y207263D01*
X442662Y207260D01*
X442636Y207262D01*
X442489Y207240D01*
X442342Y207223D01*
X442317Y207215D01*
X442291Y207211D01*
X442153Y207156D01*
X442014Y207106D01*
X441992Y207092D01*
X441967Y207082D01*
X441846Y206997D01*
X441721Y206917D01*
X441703Y206898D01*
X441681Y206883D01*
X441582Y206773D01*
X441479Y206666D01*
X441465Y206644D01*
X441448Y206624D01*
X441376Y206494D01*
X441300Y206367D01*
X441292Y206342D01*
X441279Y206319D01*
X441239Y206176D01*
X441194Y206035D01*
X441192Y206009D01*
X441184Y205984D01*
X441165Y205740D01*
X441165Y186856D01*
X380911Y126602D01*
X380832Y126503D01*
X380748Y126409D01*
X380724Y126366D01*
X380694Y126329D01*
X380640Y126214D01*
X380579Y126104D01*
X380566Y126057D01*
X380545Y126014D01*
X380519Y125890D01*
X380484Y125768D01*
X380479Y125708D01*
X380472Y125673D01*
X380473Y125625D01*
X380465Y125525D01*
X380465Y124573D01*
X379579Y122436D01*
X377944Y120801D01*
X375807Y119915D01*
X373493Y119915D01*
X371356Y120801D01*
X369721Y122436D01*
X368835Y124573D01*
X368835Y126887D01*
X369721Y129024D01*
X371356Y130659D01*
X373493Y131545D01*
X374445Y131545D01*
X374570Y131559D01*
X374696Y131566D01*
X374743Y131579D01*
X374791Y131585D01*
X374910Y131627D01*
X375031Y131662D01*
X375073Y131686D01*
X375119Y131702D01*
X375225Y131771D01*
X375335Y131832D01*
X375382Y131872D01*
X375412Y131891D01*
X375445Y131926D01*
X375522Y131991D01*
X433097Y189566D01*
X433176Y189665D01*
X433260Y189759D01*
X433284Y189802D01*
X433314Y189839D01*
X433368Y189954D01*
X433429Y190064D01*
X433442Y190111D01*
X433463Y190154D01*
X433489Y190278D01*
X433524Y190400D01*
X433529Y190460D01*
X433536Y190495D01*
X433535Y190543D01*
X433543Y190643D01*
X433543Y205740D01*
X433540Y205766D01*
X433542Y205792D01*
X433520Y205939D01*
X433503Y206086D01*
X433495Y206111D01*
X433491Y206137D01*
X433436Y206275D01*
X433386Y206414D01*
X433372Y206436D01*
X433362Y206461D01*
X433277Y206582D01*
X433197Y206707D01*
X433178Y206725D01*
X433163Y206747D01*
X433053Y206846D01*
X432946Y206949D01*
X432924Y206963D01*
X432904Y206980D01*
X432774Y207052D01*
X432647Y207128D01*
X432622Y207136D01*
X432599Y207149D01*
X432456Y207189D01*
X432315Y207234D01*
X432289Y207236D01*
X432264Y207244D01*
X432020Y207263D01*
X241300Y207263D01*
X241274Y207260D01*
X241248Y207262D01*
X241101Y207240D01*
X240954Y207223D01*
X240929Y207215D01*
X240903Y207211D01*
X240765Y207156D01*
X240626Y207106D01*
X240604Y207092D01*
X240579Y207082D01*
X240458Y206997D01*
X240333Y206917D01*
X240315Y206898D01*
X240293Y206883D01*
X240194Y206773D01*
X240091Y206666D01*
X240077Y206644D01*
X240060Y206624D01*
X239988Y206494D01*
X239912Y206367D01*
X239904Y206342D01*
X239891Y206319D01*
X239851Y206176D01*
X239806Y206035D01*
X239804Y206009D01*
X239796Y205984D01*
X239777Y205740D01*
X239777Y40640D01*
X239780Y40614D01*
X239778Y40588D01*
X239800Y40441D01*
X239817Y40294D01*
X239825Y40269D01*
X239829Y40243D01*
X239884Y40105D01*
X239934Y39966D01*
X239948Y39944D01*
X239958Y39919D01*
X240043Y39798D01*
X240123Y39673D01*
X240142Y39655D01*
X240157Y39633D01*
X240267Y39534D01*
X240374Y39431D01*
X240396Y39417D01*
X240416Y39400D01*
X240546Y39328D01*
X240673Y39252D01*
X240698Y39244D01*
X240721Y39231D01*
X240864Y39191D01*
X241005Y39146D01*
X241031Y39144D01*
X241056Y39136D01*
X241300Y39117D01*
X242932Y39117D01*
X243007Y39126D01*
G37*
%LPC*%
G36*
X203707Y94487D02*
X203707Y94487D01*
X203707Y100331D01*
X208615Y100331D01*
X209261Y100158D01*
X209840Y99823D01*
X210313Y99350D01*
X210648Y98771D01*
X210821Y98125D01*
X210821Y94487D01*
X203707Y94487D01*
G37*
%LPD*%
%LPC*%
G36*
X660907Y94487D02*
X660907Y94487D01*
X660907Y100331D01*
X665815Y100331D01*
X666461Y100158D01*
X667040Y99823D01*
X667513Y99350D01*
X667848Y98771D01*
X668021Y98125D01*
X668021Y94487D01*
X660907Y94487D01*
G37*
%LPD*%
%LPC*%
G36*
X203707Y450087D02*
X203707Y450087D01*
X203707Y455931D01*
X208615Y455931D01*
X209261Y455758D01*
X209840Y455423D01*
X210313Y454950D01*
X210648Y454371D01*
X210821Y453725D01*
X210821Y450087D01*
X203707Y450087D01*
G37*
%LPD*%
%LPC*%
G36*
X432307Y450087D02*
X432307Y450087D01*
X432307Y455931D01*
X437215Y455931D01*
X437861Y455758D01*
X438440Y455423D01*
X438913Y454950D01*
X439248Y454371D01*
X439421Y453725D01*
X439421Y450087D01*
X432307Y450087D01*
G37*
%LPD*%
%LPC*%
G36*
X889507Y450087D02*
X889507Y450087D01*
X889507Y455931D01*
X894415Y455931D01*
X895061Y455758D01*
X895640Y455423D01*
X896113Y454950D01*
X896448Y454371D01*
X896621Y453725D01*
X896621Y450087D01*
X889507Y450087D01*
G37*
%LPD*%
%LPC*%
G36*
X889507Y94487D02*
X889507Y94487D01*
X889507Y100331D01*
X894415Y100331D01*
X895061Y100158D01*
X895640Y99823D01*
X896113Y99350D01*
X896448Y98771D01*
X896621Y98125D01*
X896621Y94487D01*
X889507Y94487D01*
G37*
%LPD*%
%LPC*%
G36*
X660907Y450087D02*
X660907Y450087D01*
X660907Y455931D01*
X665815Y455931D01*
X666461Y455758D01*
X667040Y455423D01*
X667513Y454950D01*
X667848Y454371D01*
X668021Y453725D01*
X668021Y450087D01*
X660907Y450087D01*
G37*
%LPD*%
%LPC*%
G36*
X432307Y94487D02*
X432307Y94487D01*
X432307Y100331D01*
X437215Y100331D01*
X437861Y100158D01*
X438440Y99823D01*
X438913Y99350D01*
X439248Y98771D01*
X439421Y98125D01*
X439421Y94487D01*
X432307Y94487D01*
G37*
%LPD*%
%LPC*%
G36*
X190499Y450087D02*
X190499Y450087D01*
X190499Y453725D01*
X190672Y454371D01*
X191007Y454950D01*
X191480Y455423D01*
X192059Y455758D01*
X192705Y455931D01*
X197613Y455931D01*
X197613Y450087D01*
X190499Y450087D01*
G37*
%LPD*%
%LPC*%
G36*
X419099Y450087D02*
X419099Y450087D01*
X419099Y453725D01*
X419272Y454371D01*
X419607Y454950D01*
X420080Y455423D01*
X420659Y455758D01*
X421305Y455931D01*
X426213Y455931D01*
X426213Y450087D01*
X419099Y450087D01*
G37*
%LPD*%
%LPC*%
G36*
X647699Y450087D02*
X647699Y450087D01*
X647699Y453725D01*
X647872Y454371D01*
X648207Y454950D01*
X648680Y455423D01*
X649259Y455758D01*
X649905Y455931D01*
X654813Y455931D01*
X654813Y450087D01*
X647699Y450087D01*
G37*
%LPD*%
%LPC*%
G36*
X876299Y450087D02*
X876299Y450087D01*
X876299Y453725D01*
X876472Y454371D01*
X876807Y454950D01*
X877280Y455423D01*
X877859Y455758D01*
X878505Y455931D01*
X883413Y455931D01*
X883413Y450087D01*
X876299Y450087D01*
G37*
%LPD*%
%LPC*%
G36*
X876299Y94487D02*
X876299Y94487D01*
X876299Y98125D01*
X876472Y98771D01*
X876807Y99350D01*
X877280Y99823D01*
X877859Y100158D01*
X878505Y100331D01*
X883413Y100331D01*
X883413Y94487D01*
X876299Y94487D01*
G37*
%LPD*%
%LPC*%
G36*
X419099Y94487D02*
X419099Y94487D01*
X419099Y98125D01*
X419272Y98771D01*
X419607Y99350D01*
X420080Y99823D01*
X420659Y100158D01*
X421305Y100331D01*
X426213Y100331D01*
X426213Y94487D01*
X419099Y94487D01*
G37*
%LPD*%
%LPC*%
G36*
X647699Y94487D02*
X647699Y94487D01*
X647699Y98125D01*
X647872Y98771D01*
X648207Y99350D01*
X648680Y99823D01*
X649259Y100158D01*
X649905Y100331D01*
X654813Y100331D01*
X654813Y94487D01*
X647699Y94487D01*
G37*
%LPD*%
%LPC*%
G36*
X190499Y94487D02*
X190499Y94487D01*
X190499Y98125D01*
X190672Y98771D01*
X191007Y99350D01*
X191480Y99823D01*
X192059Y100158D01*
X192705Y100331D01*
X197613Y100331D01*
X197613Y94487D01*
X190499Y94487D01*
G37*
%LPD*%
%LPC*%
G36*
X889507Y438149D02*
X889507Y438149D01*
X889507Y443993D01*
X896621Y443993D01*
X896621Y440355D01*
X896448Y439709D01*
X896113Y439130D01*
X895640Y438657D01*
X895061Y438322D01*
X894415Y438149D01*
X889507Y438149D01*
G37*
%LPD*%
%LPC*%
G36*
X660907Y438149D02*
X660907Y438149D01*
X660907Y443993D01*
X668021Y443993D01*
X668021Y440355D01*
X667848Y439709D01*
X667513Y439130D01*
X667040Y438657D01*
X666461Y438322D01*
X665815Y438149D01*
X660907Y438149D01*
G37*
%LPD*%
%LPC*%
G36*
X203707Y438149D02*
X203707Y438149D01*
X203707Y443993D01*
X210821Y443993D01*
X210821Y440355D01*
X210648Y439709D01*
X210313Y439130D01*
X209840Y438657D01*
X209261Y438322D01*
X208615Y438149D01*
X203707Y438149D01*
G37*
%LPD*%
%LPC*%
G36*
X432307Y438149D02*
X432307Y438149D01*
X432307Y443993D01*
X439421Y443993D01*
X439421Y440355D01*
X439248Y439709D01*
X438913Y439130D01*
X438440Y438657D01*
X437861Y438322D01*
X437215Y438149D01*
X432307Y438149D01*
G37*
%LPD*%
%LPC*%
G36*
X889507Y82549D02*
X889507Y82549D01*
X889507Y88393D01*
X896621Y88393D01*
X896621Y84755D01*
X896448Y84109D01*
X896113Y83530D01*
X895640Y83057D01*
X895061Y82722D01*
X894415Y82549D01*
X889507Y82549D01*
G37*
%LPD*%
%LPC*%
G36*
X660907Y82549D02*
X660907Y82549D01*
X660907Y88393D01*
X668021Y88393D01*
X668021Y84755D01*
X667848Y84109D01*
X667513Y83530D01*
X667040Y83057D01*
X666461Y82722D01*
X665815Y82549D01*
X660907Y82549D01*
G37*
%LPD*%
%LPC*%
G36*
X432307Y82549D02*
X432307Y82549D01*
X432307Y88393D01*
X439421Y88393D01*
X439421Y84755D01*
X439248Y84109D01*
X438913Y83530D01*
X438440Y83057D01*
X437861Y82722D01*
X437215Y82549D01*
X432307Y82549D01*
G37*
%LPD*%
%LPC*%
G36*
X203707Y82549D02*
X203707Y82549D01*
X203707Y88393D01*
X210821Y88393D01*
X210821Y84755D01*
X210648Y84109D01*
X210313Y83530D01*
X209840Y83057D01*
X209261Y82722D01*
X208615Y82549D01*
X203707Y82549D01*
G37*
%LPD*%
%LPC*%
G36*
X649905Y438149D02*
X649905Y438149D01*
X649259Y438322D01*
X648680Y438657D01*
X648207Y439130D01*
X647872Y439709D01*
X647699Y440355D01*
X647699Y443993D01*
X654813Y443993D01*
X654813Y438149D01*
X649905Y438149D01*
G37*
%LPD*%
%LPC*%
G36*
X192705Y438149D02*
X192705Y438149D01*
X192059Y438322D01*
X191480Y438657D01*
X191007Y439130D01*
X190672Y439709D01*
X190499Y440355D01*
X190499Y443993D01*
X197613Y443993D01*
X197613Y438149D01*
X192705Y438149D01*
G37*
%LPD*%
%LPC*%
G36*
X421305Y438149D02*
X421305Y438149D01*
X420659Y438322D01*
X420080Y438657D01*
X419607Y439130D01*
X419272Y439709D01*
X419099Y440355D01*
X419099Y443993D01*
X426213Y443993D01*
X426213Y438149D01*
X421305Y438149D01*
G37*
%LPD*%
%LPC*%
G36*
X878505Y438149D02*
X878505Y438149D01*
X877859Y438322D01*
X877280Y438657D01*
X876807Y439130D01*
X876472Y439709D01*
X876299Y440355D01*
X876299Y443993D01*
X883413Y443993D01*
X883413Y438149D01*
X878505Y438149D01*
G37*
%LPD*%
%LPC*%
G36*
X649905Y82549D02*
X649905Y82549D01*
X649259Y82722D01*
X648680Y83057D01*
X648207Y83530D01*
X647872Y84109D01*
X647699Y84755D01*
X647699Y88393D01*
X654813Y88393D01*
X654813Y82549D01*
X649905Y82549D01*
G37*
%LPD*%
%LPC*%
G36*
X421305Y82549D02*
X421305Y82549D01*
X420659Y82722D01*
X420080Y83057D01*
X419607Y83530D01*
X419272Y84109D01*
X419099Y84755D01*
X419099Y88393D01*
X426213Y88393D01*
X426213Y82549D01*
X421305Y82549D01*
G37*
%LPD*%
%LPC*%
G36*
X878505Y82549D02*
X878505Y82549D01*
X877859Y82722D01*
X877280Y83057D01*
X876807Y83530D01*
X876472Y84109D01*
X876299Y84755D01*
X876299Y88393D01*
X883413Y88393D01*
X883413Y82549D01*
X878505Y82549D01*
G37*
%LPD*%
%LPC*%
G36*
X192705Y82549D02*
X192705Y82549D01*
X192059Y82722D01*
X191480Y83057D01*
X191007Y83530D01*
X190672Y84109D01*
X190499Y84755D01*
X190499Y88393D01*
X197613Y88393D01*
X197613Y82549D01*
X192705Y82549D01*
G37*
%LPD*%
%LPC*%
G36*
X429259Y447039D02*
X429259Y447039D01*
X429259Y447041D01*
X429261Y447041D01*
X429261Y447039D01*
X429259Y447039D01*
G37*
%LPD*%
%LPC*%
G36*
X886459Y447039D02*
X886459Y447039D01*
X886459Y447041D01*
X886461Y447041D01*
X886461Y447039D01*
X886459Y447039D01*
G37*
%LPD*%
%LPC*%
G36*
X657859Y447039D02*
X657859Y447039D01*
X657859Y447041D01*
X657861Y447041D01*
X657861Y447039D01*
X657859Y447039D01*
G37*
%LPD*%
%LPC*%
G36*
X200659Y447039D02*
X200659Y447039D01*
X200659Y447041D01*
X200661Y447041D01*
X200661Y447039D01*
X200659Y447039D01*
G37*
%LPD*%
%LPC*%
G36*
X886459Y91439D02*
X886459Y91439D01*
X886459Y91441D01*
X886461Y91441D01*
X886461Y91439D01*
X886459Y91439D01*
G37*
%LPD*%
%LPC*%
G36*
X657859Y91439D02*
X657859Y91439D01*
X657859Y91441D01*
X657861Y91441D01*
X657861Y91439D01*
X657859Y91439D01*
G37*
%LPD*%
%LPC*%
G36*
X429259Y91439D02*
X429259Y91439D01*
X429259Y91441D01*
X429261Y91441D01*
X429261Y91439D01*
X429259Y91439D01*
G37*
%LPD*%
%LPC*%
G36*
X200659Y91439D02*
X200659Y91439D01*
X200659Y91441D01*
X200661Y91441D01*
X200661Y91439D01*
X200659Y91439D01*
G37*
%LPD*%
D10*
X63500Y318770D02*
X63500Y334010D01*
X88900Y334010D02*
X88900Y318770D01*
X114300Y318770D02*
X114300Y334010D01*
X139700Y334010D02*
X139700Y318770D01*
X165100Y318770D02*
X165100Y334010D01*
X203200Y36830D02*
X203200Y21590D01*
X177800Y21590D02*
X177800Y36830D01*
X152400Y36830D02*
X152400Y21590D01*
X127000Y21590D02*
X127000Y36830D01*
X101600Y36830D02*
X101600Y21590D01*
X76200Y21590D02*
X76200Y36830D01*
X50800Y36830D02*
X50800Y21590D01*
X25400Y21590D02*
X25400Y36830D01*
D11*
X53590Y60960D03*
X25150Y60960D03*
D12*
X200660Y91440D03*
X200660Y66040D03*
D10*
X292100Y318770D02*
X292100Y334010D01*
X317500Y334010D02*
X317500Y318770D01*
X342900Y318770D02*
X342900Y334010D01*
X368300Y334010D02*
X368300Y318770D01*
X393700Y318770D02*
X393700Y334010D01*
X431800Y36830D02*
X431800Y21590D01*
X406400Y21590D02*
X406400Y36830D01*
X381000Y36830D02*
X381000Y21590D01*
X355600Y21590D02*
X355600Y36830D01*
X330200Y36830D02*
X330200Y21590D01*
X304800Y21590D02*
X304800Y36830D01*
X279400Y36830D02*
X279400Y21590D01*
X254000Y21590D02*
X254000Y36830D01*
D11*
X282190Y60960D03*
X253750Y60960D03*
D12*
X429260Y91440D03*
X429260Y66040D03*
D10*
X520700Y318770D02*
X520700Y334010D01*
X546100Y334010D02*
X546100Y318770D01*
X571500Y318770D02*
X571500Y334010D01*
X596900Y334010D02*
X596900Y318770D01*
X622300Y318770D02*
X622300Y334010D01*
X660400Y36830D02*
X660400Y21590D01*
X635000Y21590D02*
X635000Y36830D01*
X609600Y36830D02*
X609600Y21590D01*
X584200Y21590D02*
X584200Y36830D01*
X558800Y36830D02*
X558800Y21590D01*
X533400Y21590D02*
X533400Y36830D01*
X508000Y36830D02*
X508000Y21590D01*
X482600Y21590D02*
X482600Y36830D01*
D11*
X510790Y60960D03*
X482350Y60960D03*
D12*
X657860Y91440D03*
X657860Y66040D03*
D10*
X749300Y318770D02*
X749300Y334010D01*
X774700Y334010D02*
X774700Y318770D01*
X800100Y318770D02*
X800100Y334010D01*
X825500Y334010D02*
X825500Y318770D01*
X850900Y318770D02*
X850900Y334010D01*
X889000Y36830D02*
X889000Y21590D01*
X863600Y21590D02*
X863600Y36830D01*
X838200Y36830D02*
X838200Y21590D01*
X812800Y21590D02*
X812800Y36830D01*
X787400Y36830D02*
X787400Y21590D01*
X762000Y21590D02*
X762000Y36830D01*
X736600Y36830D02*
X736600Y21590D01*
X711200Y21590D02*
X711200Y36830D01*
D11*
X739390Y60960D03*
X710950Y60960D03*
D12*
X886460Y91440D03*
X886460Y66040D03*
D10*
X63500Y674370D02*
X63500Y689610D01*
X88900Y689610D02*
X88900Y674370D01*
X114300Y674370D02*
X114300Y689610D01*
X139700Y689610D02*
X139700Y674370D01*
X165100Y674370D02*
X165100Y689610D01*
X203200Y392430D02*
X203200Y377190D01*
X177800Y377190D02*
X177800Y392430D01*
X152400Y392430D02*
X152400Y377190D01*
X127000Y377190D02*
X127000Y392430D01*
X101600Y392430D02*
X101600Y377190D01*
X76200Y377190D02*
X76200Y392430D01*
X50800Y392430D02*
X50800Y377190D01*
X25400Y377190D02*
X25400Y392430D01*
D11*
X53590Y416560D03*
X25150Y416560D03*
D12*
X200660Y447040D03*
X200660Y421640D03*
D10*
X292100Y674370D02*
X292100Y689610D01*
X317500Y689610D02*
X317500Y674370D01*
X342900Y674370D02*
X342900Y689610D01*
X368300Y689610D02*
X368300Y674370D01*
X393700Y674370D02*
X393700Y689610D01*
X431800Y392430D02*
X431800Y377190D01*
X406400Y377190D02*
X406400Y392430D01*
X381000Y392430D02*
X381000Y377190D01*
X355600Y377190D02*
X355600Y392430D01*
X330200Y392430D02*
X330200Y377190D01*
X304800Y377190D02*
X304800Y392430D01*
X279400Y392430D02*
X279400Y377190D01*
X254000Y377190D02*
X254000Y392430D01*
D11*
X282190Y416560D03*
X253750Y416560D03*
D12*
X429260Y447040D03*
X429260Y421640D03*
D10*
X520700Y674370D02*
X520700Y689610D01*
X546100Y689610D02*
X546100Y674370D01*
X571500Y674370D02*
X571500Y689610D01*
X596900Y689610D02*
X596900Y674370D01*
X622300Y674370D02*
X622300Y689610D01*
X660400Y392430D02*
X660400Y377190D01*
X635000Y377190D02*
X635000Y392430D01*
X609600Y392430D02*
X609600Y377190D01*
X584200Y377190D02*
X584200Y392430D01*
X558800Y392430D02*
X558800Y377190D01*
X533400Y377190D02*
X533400Y392430D01*
X508000Y392430D02*
X508000Y377190D01*
X482600Y377190D02*
X482600Y392430D01*
D11*
X510790Y416560D03*
X482350Y416560D03*
D12*
X657860Y447040D03*
X657860Y421640D03*
D10*
X749300Y674370D02*
X749300Y689610D01*
X774700Y689610D02*
X774700Y674370D01*
X800100Y674370D02*
X800100Y689610D01*
X825500Y689610D02*
X825500Y674370D01*
X850900Y674370D02*
X850900Y689610D01*
X889000Y392430D02*
X889000Y377190D01*
X863600Y377190D02*
X863600Y392430D01*
X838200Y392430D02*
X838200Y377190D01*
X812800Y377190D02*
X812800Y392430D01*
X787400Y392430D02*
X787400Y377190D01*
X762000Y377190D02*
X762000Y392430D01*
X736600Y392430D02*
X736600Y377190D01*
X711200Y377190D02*
X711200Y392430D01*
D11*
X739390Y416560D03*
X710950Y416560D03*
D12*
X886460Y447040D03*
X886460Y421640D03*
D13*
X139700Y190500D03*
D14*
X127000Y177800D01*
X50800Y177800D01*
X44450Y171450D01*
X44450Y76200D01*
D15*
X25150Y29460D02*
X25400Y29210D01*
D14*
X25150Y29460D02*
X25150Y60960D01*
D15*
X25150Y66040D01*
X35310Y76200D01*
X44450Y76200D01*
D13*
X50800Y83820D03*
D14*
X50800Y165100D01*
X57150Y171450D01*
X133350Y171450D01*
X139700Y177800D01*
D13*
X139700Y177800D03*
D14*
X220980Y308610D02*
X203200Y326390D01*
X165100Y326390D01*
X220980Y308610D02*
X220980Y81280D01*
X139700Y50800D02*
X127000Y38100D01*
X127000Y29210D01*
D16*
X205740Y66040D02*
X220980Y81280D01*
X205740Y66040D02*
X203200Y66040D01*
X200660Y66040D01*
X203200Y63500D02*
X190500Y50800D01*
X203200Y63500D02*
X203200Y66040D01*
D14*
X190500Y50800D02*
X139700Y50800D01*
X190500Y50800D02*
X220980Y81280D01*
X57150Y60960D02*
X53590Y60960D01*
X57150Y60960D02*
X68580Y49530D01*
X113030Y49530D01*
X127000Y35560D01*
X127000Y29210D01*
D17*
X152400Y148590D03*
D14*
X139700Y311150D02*
X139700Y326390D01*
X139700Y311150D02*
X152400Y298450D01*
X196850Y298450D01*
X214630Y280670D01*
X214630Y176530D01*
X209550Y171450D01*
D13*
X177800Y69850D03*
D17*
X146050Y125730D03*
D14*
X118110Y290830D02*
X114300Y294640D01*
X114300Y326390D01*
X208754Y272576D02*
X208754Y188434D01*
X190500Y290830D02*
X118110Y290830D01*
X208754Y188434D02*
X146050Y125730D01*
X208754Y272576D02*
X190500Y290830D01*
D13*
X368300Y190500D03*
D14*
X355600Y177800D01*
X279400Y177800D01*
X273050Y171450D01*
X273050Y76200D01*
D15*
X253750Y29460D02*
X254000Y29210D01*
D14*
X253750Y29460D02*
X253750Y60960D01*
D15*
X253750Y66040D01*
X263910Y76200D01*
X273050Y76200D01*
D13*
X279400Y83820D03*
D14*
X279400Y165100D01*
X285750Y171450D01*
X361950Y171450D01*
X368300Y177800D01*
D13*
X368300Y177800D03*
D14*
X449580Y308610D02*
X431800Y326390D01*
X393700Y326390D01*
X449580Y308610D02*
X449580Y81280D01*
X368300Y50800D02*
X355600Y38100D01*
X355600Y29210D01*
D16*
X434340Y66040D02*
X449580Y81280D01*
X434340Y66040D02*
X431800Y66040D01*
X429260Y66040D01*
X431800Y63500D02*
X419100Y50800D01*
X431800Y63500D02*
X431800Y66040D01*
D14*
X419100Y50800D02*
X368300Y50800D01*
X419100Y50800D02*
X449580Y81280D01*
X285750Y60960D02*
X282190Y60960D01*
X285750Y60960D02*
X297180Y49530D01*
X341630Y49530D01*
X355600Y35560D01*
X355600Y29210D01*
D17*
X381000Y148590D03*
D14*
X368300Y311150D02*
X368300Y326390D01*
X368300Y311150D02*
X381000Y298450D01*
X425450Y298450D01*
X443230Y280670D01*
X443230Y176530D01*
X438150Y171450D01*
D13*
X406400Y69850D03*
D17*
X374650Y125730D03*
D14*
X346710Y290830D02*
X342900Y294640D01*
X342900Y326390D01*
X437354Y272576D02*
X437354Y188434D01*
X419100Y290830D02*
X346710Y290830D01*
X437354Y188434D02*
X374650Y125730D01*
X437354Y272576D02*
X419100Y290830D01*
D13*
X596900Y190500D03*
D14*
X584200Y177800D01*
X508000Y177800D01*
X501650Y171450D01*
X501650Y76200D01*
D15*
X482350Y29460D02*
X482600Y29210D01*
D14*
X482350Y29460D02*
X482350Y60960D01*
D15*
X482350Y66040D01*
X492510Y76200D01*
X501650Y76200D01*
D13*
X508000Y83820D03*
D14*
X508000Y165100D01*
X514350Y171450D01*
X590550Y171450D01*
X596900Y177800D01*
D13*
X596900Y177800D03*
D14*
X678180Y308610D02*
X660400Y326390D01*
X622300Y326390D01*
X678180Y308610D02*
X678180Y81280D01*
X596900Y50800D02*
X584200Y38100D01*
X584200Y29210D01*
D16*
X662940Y66040D02*
X678180Y81280D01*
X662940Y66040D02*
X660400Y66040D01*
X657860Y66040D01*
X660400Y63500D02*
X647700Y50800D01*
X660400Y63500D02*
X660400Y66040D01*
D14*
X647700Y50800D02*
X596900Y50800D01*
X647700Y50800D02*
X678180Y81280D01*
X514350Y60960D02*
X510790Y60960D01*
X514350Y60960D02*
X525780Y49530D01*
X570230Y49530D01*
X584200Y35560D01*
X584200Y29210D01*
D17*
X609600Y148590D03*
D14*
X596900Y311150D02*
X596900Y326390D01*
X596900Y311150D02*
X609600Y298450D01*
X654050Y298450D01*
X671830Y280670D01*
X671830Y176530D01*
X666750Y171450D01*
D13*
X635000Y69850D03*
D17*
X603250Y125730D03*
D14*
X575310Y290830D02*
X571500Y294640D01*
X571500Y326390D01*
X665954Y272576D02*
X665954Y188434D01*
X647700Y290830D02*
X575310Y290830D01*
X665954Y188434D02*
X603250Y125730D01*
X665954Y272576D02*
X647700Y290830D01*
D13*
X825500Y190500D03*
D14*
X812800Y177800D01*
X736600Y177800D01*
X730250Y171450D01*
X730250Y76200D01*
D15*
X710950Y29460D02*
X711200Y29210D01*
D14*
X710950Y29460D02*
X710950Y60960D01*
D15*
X710950Y66040D01*
X721110Y76200D01*
X730250Y76200D01*
D13*
X736600Y83820D03*
D14*
X736600Y165100D01*
X742950Y171450D01*
X819150Y171450D01*
X825500Y177800D01*
D13*
X825500Y177800D03*
D14*
X906780Y308610D02*
X889000Y326390D01*
X850900Y326390D01*
X906780Y308610D02*
X906780Y81280D01*
X825500Y50800D02*
X812800Y38100D01*
X812800Y29210D01*
D16*
X891540Y66040D02*
X906780Y81280D01*
X891540Y66040D02*
X889000Y66040D01*
X886460Y66040D01*
X889000Y63500D02*
X876300Y50800D01*
X889000Y63500D02*
X889000Y66040D01*
D14*
X876300Y50800D02*
X825500Y50800D01*
X876300Y50800D02*
X906780Y81280D01*
X742950Y60960D02*
X739390Y60960D01*
X742950Y60960D02*
X754380Y49530D01*
X798830Y49530D01*
X812800Y35560D01*
X812800Y29210D01*
D17*
X838200Y148590D03*
D14*
X825500Y311150D02*
X825500Y326390D01*
X825500Y311150D02*
X838200Y298450D01*
X882650Y298450D01*
X900430Y280670D01*
X900430Y176530D01*
X895350Y171450D01*
D13*
X863600Y69850D03*
D17*
X831850Y125730D03*
D14*
X803910Y290830D02*
X800100Y294640D01*
X800100Y326390D01*
X894554Y272576D02*
X894554Y188434D01*
X876300Y290830D02*
X803910Y290830D01*
X894554Y188434D02*
X831850Y125730D01*
X894554Y272576D02*
X876300Y290830D01*
D13*
X139700Y546100D03*
D14*
X127000Y533400D01*
X50800Y533400D01*
X44450Y527050D01*
X44450Y431800D01*
D15*
X25150Y385060D02*
X25400Y384810D01*
D14*
X25150Y385060D02*
X25150Y416560D01*
D15*
X25150Y421640D01*
X35310Y431800D01*
X44450Y431800D01*
D13*
X50800Y439420D03*
D14*
X50800Y520700D01*
X57150Y527050D01*
X133350Y527050D01*
X139700Y533400D01*
D13*
X139700Y533400D03*
D14*
X220980Y664210D02*
X203200Y681990D01*
X165100Y681990D01*
X220980Y664210D02*
X220980Y436880D01*
X139700Y406400D02*
X127000Y393700D01*
X127000Y384810D01*
D16*
X205740Y421640D02*
X220980Y436880D01*
X205740Y421640D02*
X203200Y421640D01*
X200660Y421640D01*
X203200Y419100D02*
X190500Y406400D01*
X203200Y419100D02*
X203200Y421640D01*
D14*
X190500Y406400D02*
X139700Y406400D01*
X190500Y406400D02*
X220980Y436880D01*
X57150Y416560D02*
X53590Y416560D01*
X57150Y416560D02*
X68580Y405130D01*
X113030Y405130D01*
X127000Y391160D01*
X127000Y384810D01*
D17*
X152400Y504190D03*
D14*
X139700Y666750D02*
X139700Y681990D01*
X139700Y666750D02*
X152400Y654050D01*
X196850Y654050D01*
X214630Y636270D01*
X214630Y532130D01*
X209550Y527050D01*
D13*
X177800Y425450D03*
D17*
X146050Y481330D03*
D14*
X118110Y646430D02*
X114300Y650240D01*
X114300Y681990D01*
X208754Y628176D02*
X208754Y544034D01*
X190500Y646430D02*
X118110Y646430D01*
X208754Y544034D02*
X146050Y481330D01*
X208754Y628176D02*
X190500Y646430D01*
D13*
X368300Y546100D03*
D14*
X355600Y533400D01*
X279400Y533400D01*
X273050Y527050D01*
X273050Y431800D01*
D15*
X253750Y385060D02*
X254000Y384810D01*
D14*
X253750Y385060D02*
X253750Y416560D01*
D15*
X253750Y421640D01*
X263910Y431800D01*
X273050Y431800D01*
D13*
X279400Y439420D03*
D14*
X279400Y520700D01*
X285750Y527050D01*
X361950Y527050D01*
X368300Y533400D01*
D13*
X368300Y533400D03*
D14*
X449580Y664210D02*
X431800Y681990D01*
X393700Y681990D01*
X449580Y664210D02*
X449580Y436880D01*
X368300Y406400D02*
X355600Y393700D01*
X355600Y384810D01*
D16*
X434340Y421640D02*
X449580Y436880D01*
X434340Y421640D02*
X431800Y421640D01*
X429260Y421640D01*
X431800Y419100D02*
X419100Y406400D01*
X431800Y419100D02*
X431800Y421640D01*
D14*
X419100Y406400D02*
X368300Y406400D01*
X419100Y406400D02*
X449580Y436880D01*
X285750Y416560D02*
X282190Y416560D01*
X285750Y416560D02*
X297180Y405130D01*
X341630Y405130D01*
X355600Y391160D01*
X355600Y384810D01*
D17*
X381000Y504190D03*
D14*
X368300Y666750D02*
X368300Y681990D01*
X368300Y666750D02*
X381000Y654050D01*
X425450Y654050D01*
X443230Y636270D01*
X443230Y532130D01*
X438150Y527050D01*
D13*
X406400Y425450D03*
D17*
X374650Y481330D03*
D14*
X346710Y646430D02*
X342900Y650240D01*
X342900Y681990D01*
X437354Y628176D02*
X437354Y544034D01*
X419100Y646430D02*
X346710Y646430D01*
X437354Y544034D02*
X374650Y481330D01*
X437354Y628176D02*
X419100Y646430D01*
D13*
X596900Y546100D03*
D14*
X584200Y533400D01*
X508000Y533400D01*
X501650Y527050D01*
X501650Y431800D01*
D15*
X482350Y385060D02*
X482600Y384810D01*
D14*
X482350Y385060D02*
X482350Y416560D01*
D15*
X482350Y421640D01*
X492510Y431800D01*
X501650Y431800D01*
D13*
X508000Y439420D03*
D14*
X508000Y520700D01*
X514350Y527050D01*
X590550Y527050D01*
X596900Y533400D01*
D13*
X596900Y533400D03*
D14*
X678180Y664210D02*
X660400Y681990D01*
X622300Y681990D01*
X678180Y664210D02*
X678180Y436880D01*
X596900Y406400D02*
X584200Y393700D01*
X584200Y384810D01*
D16*
X662940Y421640D02*
X678180Y436880D01*
X662940Y421640D02*
X660400Y421640D01*
X657860Y421640D01*
X660400Y419100D02*
X647700Y406400D01*
X660400Y419100D02*
X660400Y421640D01*
D14*
X647700Y406400D02*
X596900Y406400D01*
X647700Y406400D02*
X678180Y436880D01*
X514350Y416560D02*
X510790Y416560D01*
X514350Y416560D02*
X525780Y405130D01*
X570230Y405130D01*
X584200Y391160D01*
X584200Y384810D01*
D17*
X609600Y504190D03*
D14*
X596900Y666750D02*
X596900Y681990D01*
X596900Y666750D02*
X609600Y654050D01*
X654050Y654050D01*
X671830Y636270D01*
X671830Y532130D01*
X666750Y527050D01*
D13*
X635000Y425450D03*
D17*
X603250Y481330D03*
D14*
X575310Y646430D02*
X571500Y650240D01*
X571500Y681990D01*
X665954Y628176D02*
X665954Y544034D01*
X647700Y646430D02*
X575310Y646430D01*
X665954Y544034D02*
X603250Y481330D01*
X665954Y628176D02*
X647700Y646430D01*
D13*
X825500Y546100D03*
D14*
X812800Y533400D01*
X736600Y533400D01*
X730250Y527050D01*
X730250Y431800D01*
D15*
X710950Y385060D02*
X711200Y384810D01*
D14*
X710950Y385060D02*
X710950Y416560D01*
D15*
X710950Y421640D01*
X721110Y431800D01*
X730250Y431800D01*
D13*
X736600Y439420D03*
D14*
X736600Y520700D01*
X742950Y527050D01*
X819150Y527050D01*
X825500Y533400D01*
D13*
X825500Y533400D03*
D14*
X906780Y664210D02*
X889000Y681990D01*
X850900Y681990D01*
X906780Y664210D02*
X906780Y436880D01*
X825500Y406400D02*
X812800Y393700D01*
X812800Y384810D01*
D16*
X891540Y421640D02*
X906780Y436880D01*
X891540Y421640D02*
X889000Y421640D01*
X886460Y421640D01*
X889000Y419100D02*
X876300Y406400D01*
X889000Y419100D02*
X889000Y421640D01*
D14*
X876300Y406400D02*
X825500Y406400D01*
X876300Y406400D02*
X906780Y436880D01*
X742950Y416560D02*
X739390Y416560D01*
X742950Y416560D02*
X754380Y405130D01*
X798830Y405130D01*
X812800Y391160D01*
X812800Y384810D01*
D17*
X838200Y504190D03*
D14*
X825500Y666750D02*
X825500Y681990D01*
X825500Y666750D02*
X838200Y654050D01*
X882650Y654050D01*
X900430Y636270D01*
X900430Y532130D01*
X895350Y527050D01*
D13*
X863600Y425450D03*
D17*
X831850Y481330D03*
D14*
X803910Y646430D02*
X800100Y650240D01*
X800100Y681990D01*
X894554Y628176D02*
X894554Y544034D01*
X876300Y646430D02*
X803910Y646430D01*
X894554Y544034D02*
X831850Y481330D01*
X894554Y628176D02*
X876300Y646430D01*
M02*
