M48
;GenerationSoftware,Autodesk,EAGLE,9.6.2*%
;CreationDate,2023-06-09T14:38:04Z*%
FMAT,2
ICI,OFF
METRIC,TZ,000.000
T3C0.305
T2C0.350
T1C1.016
%
G90
M71
T1
X16510Y68199
X20320Y38481
X17780Y38481
X15240Y38481
X12700Y38481
X10160Y38481
X7620Y38481
X5080Y38481
X2540Y38481
X29210Y68199
X31750Y68199
X34290Y68199
X36830Y68199
X39370Y68199
X43180Y38481
X40640Y38481
X38100Y38481
X35560Y38481
X33020Y38481
X57150Y32639
X30480Y38481
X27940Y38481
X25400Y38481
X52070Y68199
X54610Y68199
X57150Y68199
X59690Y68199
X62230Y68199
X66040Y38481
X60960Y38481
X58420Y38481
X55880Y38481
X53340Y38481
X50800Y38481
X48260Y38481
X74930Y68199
X77470Y68199
X80010Y68199
X82550Y68199
X85090Y68199
X88900Y38481
X86360Y38481
X83820Y38481
X81280Y38481
X78740Y38481
X76200Y38481
X73660Y38481
X71120Y38481
X6350Y32639
X8890Y32639
X11430Y32639
X13970Y32639
X16510Y32639
X20320Y2921
X17780Y2921
X15240Y2921
X12700Y2921
X10160Y2921
X7620Y2921
X5080Y2921
X2540Y2921
X29210Y32639
X31750Y32639
X34290Y32639
X36830Y32639
X39370Y32639
X43180Y2921
X40640Y2921
X38100Y2921
X35560Y2921
X33020Y2921
X30480Y2921
X27940Y2921
X25400Y2921
X52070Y32639
X54610Y32639
X63500Y38481
X59690Y32639
X62230Y32639
X66040Y2921
X63500Y2921
X60960Y2921
X58420Y2921
X55880Y2921
X53340Y2921
X50800Y2921
X48260Y2921
X74930Y32639
X77470Y32639
X80010Y32639
X82550Y32639
X85090Y32639
X88900Y2921
X86360Y2921
X83820Y2921
X81280Y2921
X78740Y2921
X76200Y2921
X73660Y2921
X71120Y2921
X6350Y68199
X8890Y68199
X11430Y68199
X13970Y68199
T2
X83820Y14859
X38100Y14859
X60960Y14859
X15240Y14859
X37465Y12573
X14605Y12573
X83185Y12573
X60325Y12573
X15240Y50419
X14605Y48133
X38100Y50419
X37465Y48133
X60960Y50419
X60325Y48133
X83820Y50419
X83185Y48133
T3
X59690Y19050
X50800Y8382
X59690Y17780
X63500Y6985
X82550Y19050
X82550Y17780
X86360Y6985
X13970Y54610
X5080Y43942
X13970Y53340
X13970Y19050
X17780Y42545
X5080Y8382
X36830Y54610
X27940Y43942
X36830Y53340
X13970Y17780
X40640Y42545
X17780Y6985
X59690Y54610
X50800Y43942
X59690Y53340
X36830Y19050
X63500Y42545
X27940Y8382
X82550Y54610
X73660Y43942
X82550Y53340
X36830Y17780
X86360Y42545
X40640Y6985
X73660Y8382
M30