G04 EAGLE Gerber RS-274X export*
G75*
%MOMM*%
%FSLAX34Y34*%
%LPD*%
%INBottom Copper*%
%IPPOS*%
%AMOC8*
5,1,8,0,0,1.08239X$1,22.5*%
G01*
%ADD10C,1.524000*%
%ADD11R,1.600000X1.803000*%
%ADD12R,1.524000X1.270000*%
%ADD13C,0.609600*%
%ADD14C,0.254000*%
%ADD15C,0.203200*%
%ADD16C,0.152400*%
%ADD17C,0.654800*%

G36*
X14407Y39126D02*
X14407Y39126D01*
X14484Y39124D01*
X14580Y39145D01*
X14678Y39157D01*
X14750Y39182D01*
X14824Y39199D01*
X14913Y39241D01*
X15006Y39274D01*
X15070Y39316D01*
X15139Y39348D01*
X15216Y39410D01*
X15299Y39463D01*
X15352Y39518D01*
X15411Y39566D01*
X15472Y39643D01*
X15541Y39714D01*
X15580Y39779D01*
X15627Y39839D01*
X15696Y39973D01*
X15720Y40013D01*
X15725Y40031D01*
X15739Y40057D01*
X16786Y42586D01*
X19644Y45444D01*
X20399Y45756D01*
X20466Y45794D01*
X20537Y45822D01*
X20618Y45878D01*
X20704Y45926D01*
X20760Y45977D01*
X20823Y46021D01*
X20889Y46094D01*
X20962Y46160D01*
X21005Y46223D01*
X21056Y46279D01*
X21104Y46366D01*
X21160Y46447D01*
X21188Y46518D01*
X21225Y46585D01*
X21252Y46679D01*
X21288Y46771D01*
X21299Y46846D01*
X21320Y46920D01*
X21332Y47069D01*
X21339Y47116D01*
X21337Y47135D01*
X21339Y47164D01*
X21339Y47881D01*
X21336Y47907D01*
X21338Y47933D01*
X21316Y48080D01*
X21299Y48227D01*
X21291Y48252D01*
X21287Y48278D01*
X21232Y48416D01*
X21182Y48555D01*
X21168Y48577D01*
X21158Y48602D01*
X21073Y48723D01*
X20993Y48848D01*
X20974Y48866D01*
X20959Y48888D01*
X20849Y48987D01*
X20742Y49090D01*
X20720Y49104D01*
X20700Y49121D01*
X20570Y49193D01*
X20443Y49269D01*
X20418Y49277D01*
X20395Y49290D01*
X20252Y49330D01*
X20111Y49375D01*
X20085Y49377D01*
X20060Y49385D01*
X19816Y49404D01*
X16098Y49404D01*
X14609Y50893D01*
X14609Y71027D01*
X16098Y72516D01*
X25965Y72516D01*
X26090Y72530D01*
X26217Y72537D01*
X26263Y72550D01*
X26311Y72556D01*
X26430Y72598D01*
X26552Y72633D01*
X26594Y72657D01*
X26639Y72673D01*
X26745Y72742D01*
X26856Y72803D01*
X26902Y72843D01*
X26932Y72862D01*
X26965Y72897D01*
X27042Y72962D01*
X31307Y77227D01*
X33837Y79757D01*
X39116Y79757D01*
X39142Y79760D01*
X39168Y79758D01*
X39315Y79780D01*
X39462Y79797D01*
X39487Y79805D01*
X39513Y79809D01*
X39651Y79864D01*
X39790Y79914D01*
X39812Y79928D01*
X39837Y79938D01*
X39958Y80023D01*
X40083Y80103D01*
X40101Y80122D01*
X40123Y80137D01*
X40222Y80247D01*
X40325Y80354D01*
X40339Y80376D01*
X40356Y80396D01*
X40428Y80526D01*
X40504Y80653D01*
X40512Y80678D01*
X40525Y80701D01*
X40565Y80844D01*
X40610Y80985D01*
X40612Y81011D01*
X40620Y81036D01*
X40639Y81280D01*
X40639Y173028D01*
X43317Y175707D01*
X43318Y175707D01*
X46543Y178932D01*
X49222Y181611D01*
X124791Y181611D01*
X124916Y181625D01*
X125042Y181632D01*
X125089Y181645D01*
X125137Y181651D01*
X125256Y181693D01*
X125377Y181728D01*
X125419Y181752D01*
X125465Y181768D01*
X125571Y181837D01*
X125681Y181898D01*
X125728Y181938D01*
X125758Y181957D01*
X125791Y181992D01*
X125868Y182057D01*
X133665Y189854D01*
X133744Y189953D01*
X133828Y190047D01*
X133852Y190090D01*
X133882Y190127D01*
X133936Y190242D01*
X133997Y190352D01*
X134010Y190399D01*
X134031Y190442D01*
X134057Y190566D01*
X134092Y190688D01*
X134097Y190748D01*
X134104Y190783D01*
X134103Y190831D01*
X134111Y190931D01*
X134111Y191612D01*
X134962Y193666D01*
X136534Y195238D01*
X138588Y196089D01*
X140812Y196089D01*
X142866Y195238D01*
X144438Y193666D01*
X145289Y191612D01*
X145289Y189388D01*
X144438Y187334D01*
X142866Y185762D01*
X142371Y185557D01*
X142284Y185508D01*
X142191Y185468D01*
X142132Y185424D01*
X142067Y185388D01*
X141992Y185320D01*
X141912Y185261D01*
X141864Y185204D01*
X141809Y185154D01*
X141751Y185071D01*
X141687Y184995D01*
X141653Y184928D01*
X141610Y184867D01*
X141574Y184774D01*
X141528Y184684D01*
X141510Y184612D01*
X141483Y184543D01*
X141468Y184443D01*
X141444Y184346D01*
X141443Y184272D01*
X141432Y184198D01*
X141440Y184098D01*
X141439Y183998D01*
X141454Y183925D01*
X141461Y183851D01*
X141492Y183755D01*
X141513Y183657D01*
X141545Y183590D01*
X141568Y183519D01*
X141620Y183433D01*
X141663Y183342D01*
X141709Y183284D01*
X141747Y183221D01*
X141817Y183148D01*
X141880Y183070D01*
X141938Y183024D01*
X141990Y182971D01*
X142075Y182916D01*
X142154Y182854D01*
X142243Y182808D01*
X142284Y182782D01*
X142317Y182770D01*
X142371Y182743D01*
X142866Y182538D01*
X144438Y180966D01*
X145289Y178912D01*
X145289Y176688D01*
X144438Y174634D01*
X142866Y173062D01*
X140812Y172211D01*
X140131Y172211D01*
X140006Y172197D01*
X139880Y172190D01*
X139833Y172177D01*
X139785Y172171D01*
X139666Y172129D01*
X139545Y172094D01*
X139503Y172070D01*
X139457Y172054D01*
X139351Y171985D01*
X139241Y171924D01*
X139194Y171884D01*
X139164Y171865D01*
X139131Y171830D01*
X139054Y171765D01*
X134928Y167639D01*
X59359Y167639D01*
X59234Y167625D01*
X59108Y167618D01*
X59061Y167605D01*
X59013Y167599D01*
X58894Y167557D01*
X58773Y167522D01*
X58731Y167498D01*
X58685Y167482D01*
X58579Y167413D01*
X58469Y167352D01*
X58422Y167312D01*
X58392Y167293D01*
X58359Y167258D01*
X58282Y167193D01*
X55057Y163968D01*
X54978Y163869D01*
X54894Y163775D01*
X54870Y163732D01*
X54840Y163695D01*
X54786Y163580D01*
X54725Y163470D01*
X54712Y163423D01*
X54691Y163380D01*
X54665Y163256D01*
X54630Y163134D01*
X54625Y163074D01*
X54618Y163039D01*
X54619Y162991D01*
X54611Y162891D01*
X54611Y88544D01*
X54625Y88418D01*
X54632Y88292D01*
X54645Y88246D01*
X54651Y88198D01*
X54693Y88079D01*
X54728Y87957D01*
X54752Y87915D01*
X54768Y87870D01*
X54837Y87763D01*
X54898Y87653D01*
X54938Y87607D01*
X54957Y87577D01*
X54992Y87543D01*
X55057Y87467D01*
X55538Y86986D01*
X56389Y84932D01*
X56389Y82708D01*
X55538Y80654D01*
X53966Y79082D01*
X51912Y78231D01*
X49784Y78231D01*
X49758Y78228D01*
X49732Y78230D01*
X49585Y78208D01*
X49438Y78191D01*
X49413Y78183D01*
X49387Y78179D01*
X49249Y78124D01*
X49110Y78074D01*
X49088Y78060D01*
X49063Y78050D01*
X48942Y77965D01*
X48817Y77885D01*
X48799Y77866D01*
X48777Y77851D01*
X48678Y77741D01*
X48575Y77634D01*
X48561Y77612D01*
X48544Y77592D01*
X48472Y77462D01*
X48396Y77335D01*
X48388Y77310D01*
X48375Y77287D01*
X48335Y77144D01*
X48290Y77003D01*
X48288Y76977D01*
X48280Y76952D01*
X48261Y76708D01*
X48261Y74039D01*
X48264Y74013D01*
X48262Y73987D01*
X48284Y73840D01*
X48301Y73693D01*
X48309Y73668D01*
X48313Y73642D01*
X48368Y73504D01*
X48418Y73365D01*
X48432Y73343D01*
X48442Y73318D01*
X48527Y73197D01*
X48607Y73072D01*
X48626Y73054D01*
X48641Y73032D01*
X48751Y72933D01*
X48858Y72830D01*
X48880Y72816D01*
X48900Y72799D01*
X49030Y72727D01*
X49157Y72651D01*
X49182Y72643D01*
X49205Y72630D01*
X49348Y72590D01*
X49489Y72545D01*
X49515Y72543D01*
X49540Y72535D01*
X49784Y72516D01*
X62642Y72516D01*
X64131Y71027D01*
X64131Y59999D01*
X64145Y59874D01*
X64152Y59748D01*
X64165Y59701D01*
X64171Y59653D01*
X64213Y59534D01*
X64248Y59413D01*
X64272Y59371D01*
X64288Y59325D01*
X64357Y59219D01*
X64418Y59109D01*
X64458Y59062D01*
X64477Y59032D01*
X64512Y58999D01*
X64577Y58922D01*
X69712Y53787D01*
X69811Y53708D01*
X69905Y53624D01*
X69948Y53600D01*
X69985Y53570D01*
X70100Y53516D01*
X70210Y53455D01*
X70257Y53442D01*
X70300Y53421D01*
X70424Y53395D01*
X70546Y53360D01*
X70606Y53355D01*
X70641Y53348D01*
X70689Y53349D01*
X70789Y53341D01*
X114608Y53341D01*
X121416Y46533D01*
X121476Y46485D01*
X121529Y46431D01*
X121612Y46377D01*
X121689Y46316D01*
X121758Y46284D01*
X121823Y46242D01*
X121915Y46209D01*
X122004Y46167D01*
X122079Y46151D01*
X122151Y46126D01*
X122249Y46115D01*
X122345Y46094D01*
X122421Y46095D01*
X122497Y46087D01*
X122595Y46098D01*
X122694Y46100D01*
X122768Y46119D01*
X122844Y46128D01*
X122986Y46173D01*
X123032Y46185D01*
X123049Y46194D01*
X123076Y46203D01*
X124979Y46991D01*
X129021Y46991D01*
X129128Y46947D01*
X129201Y46926D01*
X129271Y46895D01*
X129368Y46878D01*
X129463Y46851D01*
X129539Y46847D01*
X129614Y46834D01*
X129713Y46839D01*
X129811Y46834D01*
X129886Y46848D01*
X129962Y46852D01*
X130057Y46879D01*
X130154Y46897D01*
X130224Y46927D01*
X130297Y46948D01*
X130383Y46996D01*
X130473Y47035D01*
X130535Y47081D01*
X130601Y47118D01*
X130715Y47215D01*
X130753Y47243D01*
X130765Y47258D01*
X130788Y47277D01*
X138122Y54611D01*
X188291Y54611D01*
X188416Y54625D01*
X188542Y54632D01*
X188589Y54645D01*
X188637Y54651D01*
X188756Y54693D01*
X188877Y54728D01*
X188919Y54752D01*
X188965Y54768D01*
X189071Y54837D01*
X189181Y54898D01*
X189228Y54938D01*
X189258Y54957D01*
X189291Y54992D01*
X189368Y55057D01*
X190647Y56336D01*
X190663Y56356D01*
X190683Y56373D01*
X190729Y56436D01*
X190762Y56470D01*
X190789Y56515D01*
X190863Y56609D01*
X190875Y56633D01*
X190890Y56654D01*
X190938Y56764D01*
X190941Y56769D01*
X190943Y56776D01*
X190949Y56790D01*
X191012Y56924D01*
X191018Y56950D01*
X191028Y56974D01*
X191054Y57120D01*
X191086Y57265D01*
X191085Y57291D01*
X191090Y57317D01*
X191082Y57465D01*
X191080Y57613D01*
X191073Y57639D01*
X191072Y57665D01*
X191031Y57807D01*
X190995Y57951D01*
X190983Y57974D01*
X190975Y58000D01*
X190903Y58129D01*
X190835Y58261D01*
X190818Y58281D01*
X190805Y58304D01*
X190647Y58490D01*
X190499Y58638D01*
X190499Y73442D01*
X191988Y74931D01*
X208611Y74931D01*
X208736Y74945D01*
X208862Y74952D01*
X208909Y74965D01*
X208957Y74971D01*
X209076Y75013D01*
X209197Y75048D01*
X209239Y75072D01*
X209285Y75088D01*
X209391Y75157D01*
X209501Y75218D01*
X209548Y75258D01*
X209578Y75277D01*
X209611Y75312D01*
X209688Y75377D01*
X216723Y82412D01*
X216802Y82511D01*
X216886Y82605D01*
X216910Y82648D01*
X216940Y82685D01*
X216994Y82800D01*
X217055Y82910D01*
X217068Y82957D01*
X217089Y83000D01*
X217115Y83124D01*
X217150Y83246D01*
X217155Y83306D01*
X217162Y83341D01*
X217161Y83389D01*
X217169Y83489D01*
X217169Y205740D01*
X217166Y205766D01*
X217168Y205792D01*
X217146Y205939D01*
X217129Y206086D01*
X217121Y206111D01*
X217117Y206137D01*
X217062Y206275D01*
X217012Y206414D01*
X216998Y206436D01*
X216988Y206461D01*
X216903Y206582D01*
X216823Y206707D01*
X216804Y206725D01*
X216789Y206747D01*
X216679Y206846D01*
X216572Y206949D01*
X216550Y206963D01*
X216530Y206980D01*
X216400Y207052D01*
X216273Y207128D01*
X216248Y207136D01*
X216225Y207149D01*
X216082Y207189D01*
X215941Y207234D01*
X215915Y207236D01*
X215890Y207244D01*
X215646Y207263D01*
X214088Y207263D01*
X214062Y207260D01*
X214036Y207262D01*
X213889Y207240D01*
X213742Y207223D01*
X213717Y207215D01*
X213691Y207211D01*
X213553Y207156D01*
X213414Y207106D01*
X213392Y207092D01*
X213367Y207082D01*
X213246Y206997D01*
X213121Y206917D01*
X213103Y206898D01*
X213081Y206883D01*
X212982Y206773D01*
X212879Y206666D01*
X212865Y206644D01*
X212848Y206624D01*
X212776Y206494D01*
X212700Y206367D01*
X212692Y206342D01*
X212679Y206319D01*
X212639Y206176D01*
X212594Y206035D01*
X212592Y206009D01*
X212584Y205984D01*
X212565Y205740D01*
X212565Y186856D01*
X152311Y126602D01*
X152232Y126503D01*
X152148Y126409D01*
X152124Y126366D01*
X152094Y126329D01*
X152040Y126214D01*
X151979Y126104D01*
X151966Y126057D01*
X151945Y126014D01*
X151919Y125890D01*
X151884Y125768D01*
X151879Y125708D01*
X151872Y125673D01*
X151873Y125625D01*
X151865Y125525D01*
X151865Y124573D01*
X150979Y122436D01*
X149344Y120801D01*
X147207Y119915D01*
X144893Y119915D01*
X142756Y120801D01*
X141121Y122436D01*
X140235Y124573D01*
X140235Y126887D01*
X141121Y129024D01*
X142756Y130659D01*
X144893Y131545D01*
X145845Y131545D01*
X145970Y131559D01*
X146096Y131566D01*
X146143Y131579D01*
X146191Y131585D01*
X146310Y131627D01*
X146431Y131662D01*
X146473Y131686D01*
X146519Y131702D01*
X146625Y131771D01*
X146735Y131832D01*
X146782Y131872D01*
X146812Y131891D01*
X146845Y131926D01*
X146922Y131991D01*
X204497Y189566D01*
X204576Y189665D01*
X204660Y189759D01*
X204684Y189802D01*
X204714Y189839D01*
X204768Y189954D01*
X204829Y190064D01*
X204842Y190111D01*
X204863Y190154D01*
X204889Y190278D01*
X204924Y190400D01*
X204929Y190460D01*
X204936Y190495D01*
X204935Y190543D01*
X204943Y190643D01*
X204943Y205740D01*
X204940Y205766D01*
X204942Y205792D01*
X204920Y205939D01*
X204903Y206086D01*
X204895Y206111D01*
X204891Y206137D01*
X204836Y206275D01*
X204786Y206414D01*
X204772Y206436D01*
X204762Y206461D01*
X204677Y206582D01*
X204597Y206707D01*
X204578Y206725D01*
X204563Y206747D01*
X204453Y206846D01*
X204346Y206949D01*
X204324Y206963D01*
X204304Y206980D01*
X204174Y207052D01*
X204047Y207128D01*
X204022Y207136D01*
X203999Y207149D01*
X203856Y207189D01*
X203715Y207234D01*
X203689Y207236D01*
X203664Y207244D01*
X203420Y207263D01*
X12700Y207263D01*
X12674Y207260D01*
X12648Y207262D01*
X12501Y207240D01*
X12354Y207223D01*
X12329Y207215D01*
X12303Y207211D01*
X12165Y207156D01*
X12026Y207106D01*
X12004Y207092D01*
X11979Y207082D01*
X11858Y206997D01*
X11733Y206917D01*
X11715Y206898D01*
X11693Y206883D01*
X11594Y206773D01*
X11491Y206666D01*
X11477Y206644D01*
X11460Y206624D01*
X11388Y206494D01*
X11312Y206367D01*
X11304Y206342D01*
X11291Y206319D01*
X11251Y206176D01*
X11206Y206035D01*
X11204Y206009D01*
X11196Y205984D01*
X11177Y205740D01*
X11177Y40640D01*
X11180Y40614D01*
X11178Y40588D01*
X11200Y40441D01*
X11217Y40294D01*
X11225Y40269D01*
X11229Y40243D01*
X11284Y40105D01*
X11334Y39966D01*
X11348Y39944D01*
X11358Y39919D01*
X11443Y39798D01*
X11523Y39673D01*
X11542Y39655D01*
X11557Y39633D01*
X11667Y39534D01*
X11774Y39431D01*
X11796Y39417D01*
X11816Y39400D01*
X11946Y39328D01*
X12073Y39252D01*
X12098Y39244D01*
X12121Y39231D01*
X12264Y39191D01*
X12405Y39146D01*
X12431Y39144D01*
X12456Y39136D01*
X12700Y39117D01*
X14332Y39117D01*
X14407Y39126D01*
G37*
%LPC*%
G36*
X203707Y94487D02*
X203707Y94487D01*
X203707Y100331D01*
X208615Y100331D01*
X209261Y100158D01*
X209840Y99823D01*
X210313Y99350D01*
X210648Y98771D01*
X210821Y98125D01*
X210821Y94487D01*
X203707Y94487D01*
G37*
%LPD*%
%LPC*%
G36*
X190499Y94487D02*
X190499Y94487D01*
X190499Y98125D01*
X190672Y98771D01*
X191007Y99350D01*
X191480Y99823D01*
X192059Y100158D01*
X192705Y100331D01*
X197613Y100331D01*
X197613Y94487D01*
X190499Y94487D01*
G37*
%LPD*%
%LPC*%
G36*
X203707Y82549D02*
X203707Y82549D01*
X203707Y88393D01*
X210821Y88393D01*
X210821Y84755D01*
X210648Y84109D01*
X210313Y83530D01*
X209840Y83057D01*
X209261Y82722D01*
X208615Y82549D01*
X203707Y82549D01*
G37*
%LPD*%
%LPC*%
G36*
X192705Y82549D02*
X192705Y82549D01*
X192059Y82722D01*
X191480Y83057D01*
X191007Y83530D01*
X190672Y84109D01*
X190499Y84755D01*
X190499Y88393D01*
X197613Y88393D01*
X197613Y82549D01*
X192705Y82549D01*
G37*
%LPD*%
%LPC*%
G36*
X200659Y91439D02*
X200659Y91439D01*
X200659Y91441D01*
X200661Y91441D01*
X200661Y91439D01*
X200659Y91439D01*
G37*
%LPD*%
D10*
X63500Y318770D02*
X63500Y334010D01*
X88900Y334010D02*
X88900Y318770D01*
X114300Y318770D02*
X114300Y334010D01*
X139700Y334010D02*
X139700Y318770D01*
X165100Y318770D02*
X165100Y334010D01*
X203200Y36830D02*
X203200Y21590D01*
X177800Y21590D02*
X177800Y36830D01*
X152400Y36830D02*
X152400Y21590D01*
X127000Y21590D02*
X127000Y36830D01*
X101600Y36830D02*
X101600Y21590D01*
X76200Y21590D02*
X76200Y36830D01*
X50800Y36830D02*
X50800Y21590D01*
X25400Y21590D02*
X25400Y36830D01*
D11*
X53590Y60960D03*
X25150Y60960D03*
D12*
X200660Y91440D03*
X200660Y66040D03*
D13*
X139700Y190500D03*
D14*
X127000Y177800D01*
X50800Y177800D01*
X44450Y171450D01*
X44450Y76200D01*
D15*
X25150Y29460D02*
X25400Y29210D01*
D14*
X25150Y29460D02*
X25150Y60960D01*
D15*
X25150Y66040D01*
X35310Y76200D01*
X44450Y76200D01*
D13*
X50800Y83820D03*
D14*
X50800Y165100D01*
X57150Y171450D01*
X133350Y171450D01*
X139700Y177800D01*
D13*
X139700Y177800D03*
D14*
X220980Y308610D02*
X203200Y326390D01*
X165100Y326390D01*
X220980Y308610D02*
X220980Y81280D01*
X139700Y50800D02*
X127000Y38100D01*
X127000Y29210D01*
D16*
X205740Y66040D02*
X220980Y81280D01*
X205740Y66040D02*
X203200Y66040D01*
X200660Y66040D01*
X203200Y63500D02*
X190500Y50800D01*
X203200Y63500D02*
X203200Y66040D01*
D14*
X190500Y50800D02*
X139700Y50800D01*
X190500Y50800D02*
X220980Y81280D01*
X57150Y60960D02*
X53590Y60960D01*
X57150Y60960D02*
X68580Y49530D01*
X113030Y49530D01*
X127000Y35560D01*
X127000Y29210D01*
D17*
X152400Y148590D03*
D14*
X139700Y311150D02*
X139700Y326390D01*
X139700Y311150D02*
X152400Y298450D01*
X196850Y298450D01*
X214630Y280670D01*
X214630Y176530D01*
X209550Y171450D01*
D13*
X177800Y69850D03*
D17*
X146050Y125730D03*
D14*
X118110Y290830D02*
X114300Y294640D01*
X114300Y326390D01*
X208754Y272576D02*
X208754Y188434D01*
X190500Y290830D02*
X118110Y290830D01*
X208754Y188434D02*
X146050Y125730D01*
X208754Y272576D02*
X190500Y290830D01*
M02*
