G04 EAGLE Gerber RS-274X export*
G75*
%MOMM*%
%FSLAX34Y34*%
%LPD*%
%INTop Copper*%
%IPPOS*%
%AMOC8*
5,1,8,0,0,1.08239X$1,22.5*%
G01*
%ADD10C,0.648000*%
%ADD11C,1.524000*%
%ADD12C,0.203200*%
%ADD13R,1.270000X0.635000*%
%ADD14C,0.304800*%
%ADD15C,0.254000*%
%ADD16C,0.609600*%
%ADD17C,0.654800*%


D10*
X41360Y198830D02*
X28840Y198830D01*
X28840Y201350D01*
X41360Y201350D01*
X41360Y198830D01*
X41360Y183830D02*
X28840Y183830D01*
X28840Y186350D01*
X41360Y186350D01*
X41360Y183830D01*
X41360Y168830D02*
X28840Y168830D01*
X28840Y171350D01*
X41360Y171350D01*
X41360Y168830D01*
X41360Y153830D02*
X28840Y153830D01*
X28840Y156350D01*
X41360Y156350D01*
X41360Y153830D01*
X41360Y138830D02*
X28840Y138830D01*
X28840Y141350D01*
X41360Y141350D01*
X41360Y138830D01*
X41360Y123830D02*
X28840Y123830D01*
X28840Y126350D01*
X41360Y126350D01*
X41360Y123830D01*
X41360Y108830D02*
X28840Y108830D01*
X28840Y111350D01*
X41360Y111350D01*
X41360Y108830D01*
X41360Y93830D02*
X28840Y93830D01*
X28840Y96350D01*
X41360Y96350D01*
X41360Y93830D01*
X169840Y93830D02*
X182360Y93830D01*
X169840Y93830D02*
X169840Y96350D01*
X182360Y96350D01*
X182360Y93830D01*
X182360Y108830D02*
X169840Y108830D01*
X169840Y111350D01*
X182360Y111350D01*
X182360Y108830D01*
X182360Y123830D02*
X169840Y123830D01*
X169840Y126350D01*
X182360Y126350D01*
X182360Y123830D01*
X182360Y138830D02*
X169840Y138830D01*
X169840Y141350D01*
X182360Y141350D01*
X182360Y138830D01*
X182360Y153830D02*
X169840Y153830D01*
X169840Y156350D01*
X182360Y156350D01*
X182360Y153830D01*
X182360Y168830D02*
X169840Y168830D01*
X169840Y171350D01*
X182360Y171350D01*
X182360Y168830D01*
X182360Y183830D02*
X169840Y183830D01*
X169840Y186350D01*
X182360Y186350D01*
X182360Y183830D01*
X182360Y198830D02*
X169840Y198830D01*
X169840Y201350D01*
X182360Y201350D01*
X182360Y198830D01*
D11*
X63500Y318770D02*
X63500Y334010D01*
X88900Y334010D02*
X88900Y318770D01*
X114300Y318770D02*
X114300Y334010D01*
X139700Y334010D02*
X139700Y318770D01*
X165100Y318770D02*
X165100Y334010D01*
X203200Y36830D02*
X203200Y21590D01*
X177800Y21590D02*
X177800Y36830D01*
X152400Y36830D02*
X152400Y21590D01*
X127000Y21590D02*
X127000Y36830D01*
X101600Y36830D02*
X101600Y21590D01*
X76200Y21590D02*
X76200Y36830D01*
X50800Y36830D02*
X50800Y21590D01*
X25400Y21590D02*
X25400Y36830D01*
D12*
X50800Y54610D02*
X50800Y62230D01*
D13*
X50800Y53340D03*
X50800Y63500D03*
D12*
X152400Y62230D02*
X152400Y54610D01*
D13*
X152400Y53340D03*
X152400Y63500D03*
D10*
X257440Y198830D02*
X269960Y198830D01*
X257440Y198830D02*
X257440Y201350D01*
X269960Y201350D01*
X269960Y198830D01*
X269960Y183830D02*
X257440Y183830D01*
X257440Y186350D01*
X269960Y186350D01*
X269960Y183830D01*
X269960Y168830D02*
X257440Y168830D01*
X257440Y171350D01*
X269960Y171350D01*
X269960Y168830D01*
X269960Y153830D02*
X257440Y153830D01*
X257440Y156350D01*
X269960Y156350D01*
X269960Y153830D01*
X269960Y138830D02*
X257440Y138830D01*
X257440Y141350D01*
X269960Y141350D01*
X269960Y138830D01*
X269960Y123830D02*
X257440Y123830D01*
X257440Y126350D01*
X269960Y126350D01*
X269960Y123830D01*
X269960Y108830D02*
X257440Y108830D01*
X257440Y111350D01*
X269960Y111350D01*
X269960Y108830D01*
X269960Y93830D02*
X257440Y93830D01*
X257440Y96350D01*
X269960Y96350D01*
X269960Y93830D01*
X398440Y93830D02*
X410960Y93830D01*
X398440Y93830D02*
X398440Y96350D01*
X410960Y96350D01*
X410960Y93830D01*
X410960Y108830D02*
X398440Y108830D01*
X398440Y111350D01*
X410960Y111350D01*
X410960Y108830D01*
X410960Y123830D02*
X398440Y123830D01*
X398440Y126350D01*
X410960Y126350D01*
X410960Y123830D01*
X410960Y138830D02*
X398440Y138830D01*
X398440Y141350D01*
X410960Y141350D01*
X410960Y138830D01*
X410960Y153830D02*
X398440Y153830D01*
X398440Y156350D01*
X410960Y156350D01*
X410960Y153830D01*
X410960Y168830D02*
X398440Y168830D01*
X398440Y171350D01*
X410960Y171350D01*
X410960Y168830D01*
X410960Y183830D02*
X398440Y183830D01*
X398440Y186350D01*
X410960Y186350D01*
X410960Y183830D01*
X410960Y198830D02*
X398440Y198830D01*
X398440Y201350D01*
X410960Y201350D01*
X410960Y198830D01*
D11*
X292100Y318770D02*
X292100Y334010D01*
X317500Y334010D02*
X317500Y318770D01*
X342900Y318770D02*
X342900Y334010D01*
X368300Y334010D02*
X368300Y318770D01*
X393700Y318770D02*
X393700Y334010D01*
X431800Y36830D02*
X431800Y21590D01*
X406400Y21590D02*
X406400Y36830D01*
X381000Y36830D02*
X381000Y21590D01*
X355600Y21590D02*
X355600Y36830D01*
X330200Y36830D02*
X330200Y21590D01*
X304800Y21590D02*
X304800Y36830D01*
X279400Y36830D02*
X279400Y21590D01*
X254000Y21590D02*
X254000Y36830D01*
D12*
X279400Y54610D02*
X279400Y62230D01*
D13*
X279400Y53340D03*
X279400Y63500D03*
D12*
X381000Y62230D02*
X381000Y54610D01*
D13*
X381000Y53340D03*
X381000Y63500D03*
D10*
X486040Y198830D02*
X498560Y198830D01*
X486040Y198830D02*
X486040Y201350D01*
X498560Y201350D01*
X498560Y198830D01*
X498560Y183830D02*
X486040Y183830D01*
X486040Y186350D01*
X498560Y186350D01*
X498560Y183830D01*
X498560Y168830D02*
X486040Y168830D01*
X486040Y171350D01*
X498560Y171350D01*
X498560Y168830D01*
X498560Y153830D02*
X486040Y153830D01*
X486040Y156350D01*
X498560Y156350D01*
X498560Y153830D01*
X498560Y138830D02*
X486040Y138830D01*
X486040Y141350D01*
X498560Y141350D01*
X498560Y138830D01*
X498560Y123830D02*
X486040Y123830D01*
X486040Y126350D01*
X498560Y126350D01*
X498560Y123830D01*
X498560Y108830D02*
X486040Y108830D01*
X486040Y111350D01*
X498560Y111350D01*
X498560Y108830D01*
X498560Y93830D02*
X486040Y93830D01*
X486040Y96350D01*
X498560Y96350D01*
X498560Y93830D01*
X627040Y93830D02*
X639560Y93830D01*
X627040Y93830D02*
X627040Y96350D01*
X639560Y96350D01*
X639560Y93830D01*
X639560Y108830D02*
X627040Y108830D01*
X627040Y111350D01*
X639560Y111350D01*
X639560Y108830D01*
X639560Y123830D02*
X627040Y123830D01*
X627040Y126350D01*
X639560Y126350D01*
X639560Y123830D01*
X639560Y138830D02*
X627040Y138830D01*
X627040Y141350D01*
X639560Y141350D01*
X639560Y138830D01*
X639560Y153830D02*
X627040Y153830D01*
X627040Y156350D01*
X639560Y156350D01*
X639560Y153830D01*
X639560Y168830D02*
X627040Y168830D01*
X627040Y171350D01*
X639560Y171350D01*
X639560Y168830D01*
X639560Y183830D02*
X627040Y183830D01*
X627040Y186350D01*
X639560Y186350D01*
X639560Y183830D01*
X639560Y198830D02*
X627040Y198830D01*
X627040Y201350D01*
X639560Y201350D01*
X639560Y198830D01*
D11*
X520700Y318770D02*
X520700Y334010D01*
X546100Y334010D02*
X546100Y318770D01*
X571500Y318770D02*
X571500Y334010D01*
X596900Y334010D02*
X596900Y318770D01*
X622300Y318770D02*
X622300Y334010D01*
X660400Y36830D02*
X660400Y21590D01*
X635000Y21590D02*
X635000Y36830D01*
X609600Y36830D02*
X609600Y21590D01*
X584200Y21590D02*
X584200Y36830D01*
X558800Y36830D02*
X558800Y21590D01*
X533400Y21590D02*
X533400Y36830D01*
X508000Y36830D02*
X508000Y21590D01*
X482600Y21590D02*
X482600Y36830D01*
D12*
X508000Y54610D02*
X508000Y62230D01*
D13*
X508000Y53340D03*
X508000Y63500D03*
D12*
X609600Y62230D02*
X609600Y54610D01*
D13*
X609600Y53340D03*
X609600Y63500D03*
D10*
X714640Y198830D02*
X727160Y198830D01*
X714640Y198830D02*
X714640Y201350D01*
X727160Y201350D01*
X727160Y198830D01*
X727160Y183830D02*
X714640Y183830D01*
X714640Y186350D01*
X727160Y186350D01*
X727160Y183830D01*
X727160Y168830D02*
X714640Y168830D01*
X714640Y171350D01*
X727160Y171350D01*
X727160Y168830D01*
X727160Y153830D02*
X714640Y153830D01*
X714640Y156350D01*
X727160Y156350D01*
X727160Y153830D01*
X727160Y138830D02*
X714640Y138830D01*
X714640Y141350D01*
X727160Y141350D01*
X727160Y138830D01*
X727160Y123830D02*
X714640Y123830D01*
X714640Y126350D01*
X727160Y126350D01*
X727160Y123830D01*
X727160Y108830D02*
X714640Y108830D01*
X714640Y111350D01*
X727160Y111350D01*
X727160Y108830D01*
X727160Y93830D02*
X714640Y93830D01*
X714640Y96350D01*
X727160Y96350D01*
X727160Y93830D01*
X855640Y93830D02*
X868160Y93830D01*
X855640Y93830D02*
X855640Y96350D01*
X868160Y96350D01*
X868160Y93830D01*
X868160Y108830D02*
X855640Y108830D01*
X855640Y111350D01*
X868160Y111350D01*
X868160Y108830D01*
X868160Y123830D02*
X855640Y123830D01*
X855640Y126350D01*
X868160Y126350D01*
X868160Y123830D01*
X868160Y138830D02*
X855640Y138830D01*
X855640Y141350D01*
X868160Y141350D01*
X868160Y138830D01*
X868160Y153830D02*
X855640Y153830D01*
X855640Y156350D01*
X868160Y156350D01*
X868160Y153830D01*
X868160Y168830D02*
X855640Y168830D01*
X855640Y171350D01*
X868160Y171350D01*
X868160Y168830D01*
X868160Y183830D02*
X855640Y183830D01*
X855640Y186350D01*
X868160Y186350D01*
X868160Y183830D01*
X868160Y198830D02*
X855640Y198830D01*
X855640Y201350D01*
X868160Y201350D01*
X868160Y198830D01*
D11*
X749300Y318770D02*
X749300Y334010D01*
X774700Y334010D02*
X774700Y318770D01*
X800100Y318770D02*
X800100Y334010D01*
X825500Y334010D02*
X825500Y318770D01*
X850900Y318770D02*
X850900Y334010D01*
X889000Y36830D02*
X889000Y21590D01*
X863600Y21590D02*
X863600Y36830D01*
X838200Y36830D02*
X838200Y21590D01*
X812800Y21590D02*
X812800Y36830D01*
X787400Y36830D02*
X787400Y21590D01*
X762000Y21590D02*
X762000Y36830D01*
X736600Y36830D02*
X736600Y21590D01*
X711200Y21590D02*
X711200Y36830D01*
D12*
X736600Y54610D02*
X736600Y62230D01*
D13*
X736600Y53340D03*
X736600Y63500D03*
D12*
X838200Y62230D02*
X838200Y54610D01*
D13*
X838200Y53340D03*
X838200Y63500D03*
D10*
X41360Y554430D02*
X28840Y554430D01*
X28840Y556950D01*
X41360Y556950D01*
X41360Y554430D01*
X41360Y539430D02*
X28840Y539430D01*
X28840Y541950D01*
X41360Y541950D01*
X41360Y539430D01*
X41360Y524430D02*
X28840Y524430D01*
X28840Y526950D01*
X41360Y526950D01*
X41360Y524430D01*
X41360Y509430D02*
X28840Y509430D01*
X28840Y511950D01*
X41360Y511950D01*
X41360Y509430D01*
X41360Y494430D02*
X28840Y494430D01*
X28840Y496950D01*
X41360Y496950D01*
X41360Y494430D01*
X41360Y479430D02*
X28840Y479430D01*
X28840Y481950D01*
X41360Y481950D01*
X41360Y479430D01*
X41360Y464430D02*
X28840Y464430D01*
X28840Y466950D01*
X41360Y466950D01*
X41360Y464430D01*
X41360Y449430D02*
X28840Y449430D01*
X28840Y451950D01*
X41360Y451950D01*
X41360Y449430D01*
X169840Y449430D02*
X182360Y449430D01*
X169840Y449430D02*
X169840Y451950D01*
X182360Y451950D01*
X182360Y449430D01*
X182360Y464430D02*
X169840Y464430D01*
X169840Y466950D01*
X182360Y466950D01*
X182360Y464430D01*
X182360Y479430D02*
X169840Y479430D01*
X169840Y481950D01*
X182360Y481950D01*
X182360Y479430D01*
X182360Y494430D02*
X169840Y494430D01*
X169840Y496950D01*
X182360Y496950D01*
X182360Y494430D01*
X182360Y509430D02*
X169840Y509430D01*
X169840Y511950D01*
X182360Y511950D01*
X182360Y509430D01*
X182360Y524430D02*
X169840Y524430D01*
X169840Y526950D01*
X182360Y526950D01*
X182360Y524430D01*
X182360Y539430D02*
X169840Y539430D01*
X169840Y541950D01*
X182360Y541950D01*
X182360Y539430D01*
X182360Y554430D02*
X169840Y554430D01*
X169840Y556950D01*
X182360Y556950D01*
X182360Y554430D01*
D11*
X63500Y674370D02*
X63500Y689610D01*
X88900Y689610D02*
X88900Y674370D01*
X114300Y674370D02*
X114300Y689610D01*
X139700Y689610D02*
X139700Y674370D01*
X165100Y674370D02*
X165100Y689610D01*
X203200Y392430D02*
X203200Y377190D01*
X177800Y377190D02*
X177800Y392430D01*
X152400Y392430D02*
X152400Y377190D01*
X127000Y377190D02*
X127000Y392430D01*
X101600Y392430D02*
X101600Y377190D01*
X76200Y377190D02*
X76200Y392430D01*
X50800Y392430D02*
X50800Y377190D01*
X25400Y377190D02*
X25400Y392430D01*
D12*
X50800Y410210D02*
X50800Y417830D01*
D13*
X50800Y408940D03*
X50800Y419100D03*
D12*
X152400Y417830D02*
X152400Y410210D01*
D13*
X152400Y408940D03*
X152400Y419100D03*
D10*
X257440Y554430D02*
X269960Y554430D01*
X257440Y554430D02*
X257440Y556950D01*
X269960Y556950D01*
X269960Y554430D01*
X269960Y539430D02*
X257440Y539430D01*
X257440Y541950D01*
X269960Y541950D01*
X269960Y539430D01*
X269960Y524430D02*
X257440Y524430D01*
X257440Y526950D01*
X269960Y526950D01*
X269960Y524430D01*
X269960Y509430D02*
X257440Y509430D01*
X257440Y511950D01*
X269960Y511950D01*
X269960Y509430D01*
X269960Y494430D02*
X257440Y494430D01*
X257440Y496950D01*
X269960Y496950D01*
X269960Y494430D01*
X269960Y479430D02*
X257440Y479430D01*
X257440Y481950D01*
X269960Y481950D01*
X269960Y479430D01*
X269960Y464430D02*
X257440Y464430D01*
X257440Y466950D01*
X269960Y466950D01*
X269960Y464430D01*
X269960Y449430D02*
X257440Y449430D01*
X257440Y451950D01*
X269960Y451950D01*
X269960Y449430D01*
X398440Y449430D02*
X410960Y449430D01*
X398440Y449430D02*
X398440Y451950D01*
X410960Y451950D01*
X410960Y449430D01*
X410960Y464430D02*
X398440Y464430D01*
X398440Y466950D01*
X410960Y466950D01*
X410960Y464430D01*
X410960Y479430D02*
X398440Y479430D01*
X398440Y481950D01*
X410960Y481950D01*
X410960Y479430D01*
X410960Y494430D02*
X398440Y494430D01*
X398440Y496950D01*
X410960Y496950D01*
X410960Y494430D01*
X410960Y509430D02*
X398440Y509430D01*
X398440Y511950D01*
X410960Y511950D01*
X410960Y509430D01*
X410960Y524430D02*
X398440Y524430D01*
X398440Y526950D01*
X410960Y526950D01*
X410960Y524430D01*
X410960Y539430D02*
X398440Y539430D01*
X398440Y541950D01*
X410960Y541950D01*
X410960Y539430D01*
X410960Y554430D02*
X398440Y554430D01*
X398440Y556950D01*
X410960Y556950D01*
X410960Y554430D01*
D11*
X292100Y674370D02*
X292100Y689610D01*
X317500Y689610D02*
X317500Y674370D01*
X342900Y674370D02*
X342900Y689610D01*
X368300Y689610D02*
X368300Y674370D01*
X393700Y674370D02*
X393700Y689610D01*
X431800Y392430D02*
X431800Y377190D01*
X406400Y377190D02*
X406400Y392430D01*
X381000Y392430D02*
X381000Y377190D01*
X355600Y377190D02*
X355600Y392430D01*
X330200Y392430D02*
X330200Y377190D01*
X304800Y377190D02*
X304800Y392430D01*
X279400Y392430D02*
X279400Y377190D01*
X254000Y377190D02*
X254000Y392430D01*
D12*
X279400Y410210D02*
X279400Y417830D01*
D13*
X279400Y408940D03*
X279400Y419100D03*
D12*
X381000Y417830D02*
X381000Y410210D01*
D13*
X381000Y408940D03*
X381000Y419100D03*
D10*
X486040Y554430D02*
X498560Y554430D01*
X486040Y554430D02*
X486040Y556950D01*
X498560Y556950D01*
X498560Y554430D01*
X498560Y539430D02*
X486040Y539430D01*
X486040Y541950D01*
X498560Y541950D01*
X498560Y539430D01*
X498560Y524430D02*
X486040Y524430D01*
X486040Y526950D01*
X498560Y526950D01*
X498560Y524430D01*
X498560Y509430D02*
X486040Y509430D01*
X486040Y511950D01*
X498560Y511950D01*
X498560Y509430D01*
X498560Y494430D02*
X486040Y494430D01*
X486040Y496950D01*
X498560Y496950D01*
X498560Y494430D01*
X498560Y479430D02*
X486040Y479430D01*
X486040Y481950D01*
X498560Y481950D01*
X498560Y479430D01*
X498560Y464430D02*
X486040Y464430D01*
X486040Y466950D01*
X498560Y466950D01*
X498560Y464430D01*
X498560Y449430D02*
X486040Y449430D01*
X486040Y451950D01*
X498560Y451950D01*
X498560Y449430D01*
X627040Y449430D02*
X639560Y449430D01*
X627040Y449430D02*
X627040Y451950D01*
X639560Y451950D01*
X639560Y449430D01*
X639560Y464430D02*
X627040Y464430D01*
X627040Y466950D01*
X639560Y466950D01*
X639560Y464430D01*
X639560Y479430D02*
X627040Y479430D01*
X627040Y481950D01*
X639560Y481950D01*
X639560Y479430D01*
X639560Y494430D02*
X627040Y494430D01*
X627040Y496950D01*
X639560Y496950D01*
X639560Y494430D01*
X639560Y509430D02*
X627040Y509430D01*
X627040Y511950D01*
X639560Y511950D01*
X639560Y509430D01*
X639560Y524430D02*
X627040Y524430D01*
X627040Y526950D01*
X639560Y526950D01*
X639560Y524430D01*
X639560Y539430D02*
X627040Y539430D01*
X627040Y541950D01*
X639560Y541950D01*
X639560Y539430D01*
X639560Y554430D02*
X627040Y554430D01*
X627040Y556950D01*
X639560Y556950D01*
X639560Y554430D01*
D11*
X520700Y674370D02*
X520700Y689610D01*
X546100Y689610D02*
X546100Y674370D01*
X571500Y674370D02*
X571500Y689610D01*
X596900Y689610D02*
X596900Y674370D01*
X622300Y674370D02*
X622300Y689610D01*
X660400Y392430D02*
X660400Y377190D01*
X635000Y377190D02*
X635000Y392430D01*
X609600Y392430D02*
X609600Y377190D01*
X584200Y377190D02*
X584200Y392430D01*
X558800Y392430D02*
X558800Y377190D01*
X533400Y377190D02*
X533400Y392430D01*
X508000Y392430D02*
X508000Y377190D01*
X482600Y377190D02*
X482600Y392430D01*
D12*
X508000Y410210D02*
X508000Y417830D01*
D13*
X508000Y408940D03*
X508000Y419100D03*
D12*
X609600Y417830D02*
X609600Y410210D01*
D13*
X609600Y408940D03*
X609600Y419100D03*
D10*
X714640Y554430D02*
X727160Y554430D01*
X714640Y554430D02*
X714640Y556950D01*
X727160Y556950D01*
X727160Y554430D01*
X727160Y539430D02*
X714640Y539430D01*
X714640Y541950D01*
X727160Y541950D01*
X727160Y539430D01*
X727160Y524430D02*
X714640Y524430D01*
X714640Y526950D01*
X727160Y526950D01*
X727160Y524430D01*
X727160Y509430D02*
X714640Y509430D01*
X714640Y511950D01*
X727160Y511950D01*
X727160Y509430D01*
X727160Y494430D02*
X714640Y494430D01*
X714640Y496950D01*
X727160Y496950D01*
X727160Y494430D01*
X727160Y479430D02*
X714640Y479430D01*
X714640Y481950D01*
X727160Y481950D01*
X727160Y479430D01*
X727160Y464430D02*
X714640Y464430D01*
X714640Y466950D01*
X727160Y466950D01*
X727160Y464430D01*
X727160Y449430D02*
X714640Y449430D01*
X714640Y451950D01*
X727160Y451950D01*
X727160Y449430D01*
X855640Y449430D02*
X868160Y449430D01*
X855640Y449430D02*
X855640Y451950D01*
X868160Y451950D01*
X868160Y449430D01*
X868160Y464430D02*
X855640Y464430D01*
X855640Y466950D01*
X868160Y466950D01*
X868160Y464430D01*
X868160Y479430D02*
X855640Y479430D01*
X855640Y481950D01*
X868160Y481950D01*
X868160Y479430D01*
X868160Y494430D02*
X855640Y494430D01*
X855640Y496950D01*
X868160Y496950D01*
X868160Y494430D01*
X868160Y509430D02*
X855640Y509430D01*
X855640Y511950D01*
X868160Y511950D01*
X868160Y509430D01*
X868160Y524430D02*
X855640Y524430D01*
X855640Y526950D01*
X868160Y526950D01*
X868160Y524430D01*
X868160Y539430D02*
X855640Y539430D01*
X855640Y541950D01*
X868160Y541950D01*
X868160Y539430D01*
X868160Y554430D02*
X855640Y554430D01*
X855640Y556950D01*
X868160Y556950D01*
X868160Y554430D01*
D11*
X749300Y674370D02*
X749300Y689610D01*
X774700Y689610D02*
X774700Y674370D01*
X800100Y674370D02*
X800100Y689610D01*
X825500Y689610D02*
X825500Y674370D01*
X850900Y674370D02*
X850900Y689610D01*
X889000Y392430D02*
X889000Y377190D01*
X863600Y377190D02*
X863600Y392430D01*
X838200Y392430D02*
X838200Y377190D01*
X812800Y377190D02*
X812800Y392430D01*
X787400Y392430D02*
X787400Y377190D01*
X762000Y377190D02*
X762000Y392430D01*
X736600Y392430D02*
X736600Y377190D01*
X711200Y377190D02*
X711200Y392430D01*
D12*
X736600Y410210D02*
X736600Y417830D01*
D13*
X736600Y408940D03*
X736600Y419100D03*
D12*
X838200Y417830D02*
X838200Y410210D01*
D13*
X838200Y408940D03*
X838200Y419100D03*
D14*
X35100Y140090D02*
X26280Y140090D01*
D15*
X19050Y147320D01*
X19050Y269240D01*
X38100Y288290D01*
X82550Y288290D02*
X88900Y294640D01*
X88900Y326390D01*
X82550Y288290D02*
X38100Y288290D01*
X149290Y200090D02*
X176100Y200090D01*
X149290Y200090D02*
X139700Y190500D01*
D16*
X139700Y190500D03*
D15*
X50800Y83820D02*
X50800Y63500D01*
D16*
X50800Y83820D03*
X139700Y177800D03*
D15*
X146990Y185090D01*
X176100Y185090D01*
X198120Y158750D02*
X198120Y63500D01*
X198120Y158750D02*
X186690Y170180D01*
X176190Y170180D01*
D14*
X176100Y170090D01*
D15*
X198120Y63500D02*
X203200Y58420D01*
X203200Y29210D01*
X186690Y85090D02*
X191770Y90170D01*
D14*
X186540Y155090D02*
X176100Y155090D01*
D15*
X191770Y149860D02*
X191770Y90170D01*
X191770Y149860D02*
X186540Y155090D01*
X173990Y85090D02*
X152400Y63500D01*
X173990Y85090D02*
X186690Y85090D01*
D14*
X176100Y95090D02*
X175940Y95250D01*
D15*
X146050Y95250D02*
X127000Y76200D01*
X146050Y95250D02*
X175940Y95250D01*
X127000Y76200D02*
X127000Y29210D01*
X63500Y300990D02*
X63500Y326390D01*
X63500Y300990D02*
X57150Y294640D01*
X31750Y294640D01*
X12700Y275590D01*
X12700Y135890D02*
X25400Y123190D01*
D14*
X33200Y123190D01*
X35100Y125090D01*
D15*
X12700Y135890D02*
X12700Y275590D01*
X101600Y177800D02*
X101600Y29210D01*
X94310Y185090D02*
X35100Y185090D01*
X94310Y185090D02*
X101600Y177800D01*
X76200Y139700D02*
X76200Y29210D01*
X60810Y155090D02*
X35100Y155090D01*
X60810Y155090D02*
X76200Y139700D01*
D14*
X160900Y140090D02*
X176100Y140090D01*
X160900Y140090D02*
X152400Y148590D01*
D17*
X152400Y148590D03*
D15*
X177800Y69850D02*
X177800Y29210D01*
D16*
X177800Y69850D03*
D14*
X176100Y125090D02*
X146690Y125090D01*
X146050Y125730D01*
D17*
X146050Y125730D03*
D15*
X50800Y53340D02*
X50800Y29210D01*
X152400Y29210D02*
X152400Y53340D01*
D14*
X254880Y140090D02*
X263700Y140090D01*
D15*
X254880Y140090D02*
X247650Y147320D01*
X247650Y269240D01*
X266700Y288290D01*
X311150Y288290D02*
X317500Y294640D01*
X317500Y326390D01*
X311150Y288290D02*
X266700Y288290D01*
X377890Y200090D02*
X404700Y200090D01*
X377890Y200090D02*
X368300Y190500D01*
D16*
X368300Y190500D03*
D15*
X279400Y83820D02*
X279400Y63500D01*
D16*
X279400Y83820D03*
X368300Y177800D03*
D15*
X375590Y185090D01*
X404700Y185090D01*
X426720Y158750D02*
X426720Y63500D01*
X426720Y158750D02*
X415290Y170180D01*
X404790Y170180D01*
D14*
X404700Y170090D01*
D15*
X426720Y63500D02*
X431800Y58420D01*
X431800Y29210D01*
X415290Y85090D02*
X420370Y90170D01*
D14*
X415140Y155090D02*
X404700Y155090D01*
D15*
X420370Y149860D02*
X420370Y90170D01*
X420370Y149860D02*
X415140Y155090D01*
X402590Y85090D02*
X381000Y63500D01*
X402590Y85090D02*
X415290Y85090D01*
D14*
X404700Y95090D02*
X404540Y95250D01*
D15*
X374650Y95250D02*
X355600Y76200D01*
X374650Y95250D02*
X404540Y95250D01*
X355600Y76200D02*
X355600Y29210D01*
X292100Y300990D02*
X292100Y326390D01*
X292100Y300990D02*
X285750Y294640D01*
X260350Y294640D01*
X241300Y275590D01*
X241300Y135890D02*
X254000Y123190D01*
D14*
X261800Y123190D01*
X263700Y125090D01*
D15*
X241300Y135890D02*
X241300Y275590D01*
X330200Y177800D02*
X330200Y29210D01*
X322910Y185090D02*
X263700Y185090D01*
X322910Y185090D02*
X330200Y177800D01*
X304800Y139700D02*
X304800Y29210D01*
X289410Y155090D02*
X263700Y155090D01*
X289410Y155090D02*
X304800Y139700D01*
D14*
X389500Y140090D02*
X404700Y140090D01*
X389500Y140090D02*
X381000Y148590D01*
D17*
X381000Y148590D03*
D15*
X406400Y69850D02*
X406400Y29210D01*
D16*
X406400Y69850D03*
D14*
X404700Y125090D02*
X375290Y125090D01*
X374650Y125730D01*
D17*
X374650Y125730D03*
D15*
X279400Y53340D02*
X279400Y29210D01*
X381000Y29210D02*
X381000Y53340D01*
D14*
X483480Y140090D02*
X492300Y140090D01*
D15*
X483480Y140090D02*
X476250Y147320D01*
X476250Y269240D01*
X495300Y288290D01*
X539750Y288290D02*
X546100Y294640D01*
X546100Y326390D01*
X539750Y288290D02*
X495300Y288290D01*
X606490Y200090D02*
X633300Y200090D01*
X606490Y200090D02*
X596900Y190500D01*
D16*
X596900Y190500D03*
D15*
X508000Y83820D02*
X508000Y63500D01*
D16*
X508000Y83820D03*
X596900Y177800D03*
D15*
X604190Y185090D01*
X633300Y185090D01*
X655320Y158750D02*
X655320Y63500D01*
X655320Y158750D02*
X643890Y170180D01*
X633390Y170180D01*
D14*
X633300Y170090D01*
D15*
X655320Y63500D02*
X660400Y58420D01*
X660400Y29210D01*
X643890Y85090D02*
X648970Y90170D01*
D14*
X643740Y155090D02*
X633300Y155090D01*
D15*
X648970Y149860D02*
X648970Y90170D01*
X648970Y149860D02*
X643740Y155090D01*
X631190Y85090D02*
X609600Y63500D01*
X631190Y85090D02*
X643890Y85090D01*
D14*
X633300Y95090D02*
X633140Y95250D01*
D15*
X603250Y95250D02*
X584200Y76200D01*
X603250Y95250D02*
X633140Y95250D01*
X584200Y76200D02*
X584200Y29210D01*
X520700Y300990D02*
X520700Y326390D01*
X520700Y300990D02*
X514350Y294640D01*
X488950Y294640D01*
X469900Y275590D01*
X469900Y135890D02*
X482600Y123190D01*
D14*
X490400Y123190D01*
X492300Y125090D01*
D15*
X469900Y135890D02*
X469900Y275590D01*
X558800Y177800D02*
X558800Y29210D01*
X551510Y185090D02*
X492300Y185090D01*
X551510Y185090D02*
X558800Y177800D01*
X533400Y139700D02*
X533400Y29210D01*
X518010Y155090D02*
X492300Y155090D01*
X518010Y155090D02*
X533400Y139700D01*
D14*
X618100Y140090D02*
X633300Y140090D01*
X618100Y140090D02*
X609600Y148590D01*
D17*
X609600Y148590D03*
D15*
X635000Y69850D02*
X635000Y29210D01*
D16*
X635000Y69850D03*
D14*
X633300Y125090D02*
X603890Y125090D01*
X603250Y125730D01*
D17*
X603250Y125730D03*
D15*
X508000Y53340D02*
X508000Y29210D01*
X609600Y29210D02*
X609600Y53340D01*
D14*
X712080Y140090D02*
X720900Y140090D01*
D15*
X712080Y140090D02*
X704850Y147320D01*
X704850Y269240D01*
X723900Y288290D01*
X768350Y288290D02*
X774700Y294640D01*
X774700Y326390D01*
X768350Y288290D02*
X723900Y288290D01*
X835090Y200090D02*
X861900Y200090D01*
X835090Y200090D02*
X825500Y190500D01*
D16*
X825500Y190500D03*
D15*
X736600Y83820D02*
X736600Y63500D01*
D16*
X736600Y83820D03*
X825500Y177800D03*
D15*
X832790Y185090D01*
X861900Y185090D01*
X883920Y158750D02*
X883920Y63500D01*
X883920Y158750D02*
X872490Y170180D01*
X861990Y170180D01*
D14*
X861900Y170090D01*
D15*
X883920Y63500D02*
X889000Y58420D01*
X889000Y29210D01*
X872490Y85090D02*
X877570Y90170D01*
D14*
X872340Y155090D02*
X861900Y155090D01*
D15*
X877570Y149860D02*
X877570Y90170D01*
X877570Y149860D02*
X872340Y155090D01*
X859790Y85090D02*
X838200Y63500D01*
X859790Y85090D02*
X872490Y85090D01*
D14*
X861900Y95090D02*
X861740Y95250D01*
D15*
X831850Y95250D02*
X812800Y76200D01*
X831850Y95250D02*
X861740Y95250D01*
X812800Y76200D02*
X812800Y29210D01*
X749300Y300990D02*
X749300Y326390D01*
X749300Y300990D02*
X742950Y294640D01*
X717550Y294640D01*
X698500Y275590D01*
X698500Y135890D02*
X711200Y123190D01*
D14*
X719000Y123190D01*
X720900Y125090D01*
D15*
X698500Y135890D02*
X698500Y275590D01*
X787400Y177800D02*
X787400Y29210D01*
X780110Y185090D02*
X720900Y185090D01*
X780110Y185090D02*
X787400Y177800D01*
X762000Y139700D02*
X762000Y29210D01*
X746610Y155090D02*
X720900Y155090D01*
X746610Y155090D02*
X762000Y139700D01*
D14*
X846700Y140090D02*
X861900Y140090D01*
X846700Y140090D02*
X838200Y148590D01*
D17*
X838200Y148590D03*
D15*
X863600Y69850D02*
X863600Y29210D01*
D16*
X863600Y69850D03*
D14*
X861900Y125090D02*
X832490Y125090D01*
X831850Y125730D01*
D17*
X831850Y125730D03*
D15*
X736600Y53340D02*
X736600Y29210D01*
X838200Y29210D02*
X838200Y53340D01*
D14*
X35100Y495690D02*
X26280Y495690D01*
D15*
X19050Y502920D01*
X19050Y624840D01*
X38100Y643890D01*
X82550Y643890D02*
X88900Y650240D01*
X88900Y681990D01*
X82550Y643890D02*
X38100Y643890D01*
X149290Y555690D02*
X176100Y555690D01*
X149290Y555690D02*
X139700Y546100D01*
D16*
X139700Y546100D03*
D15*
X50800Y439420D02*
X50800Y419100D01*
D16*
X50800Y439420D03*
X139700Y533400D03*
D15*
X146990Y540690D01*
X176100Y540690D01*
X198120Y514350D02*
X198120Y419100D01*
X198120Y514350D02*
X186690Y525780D01*
X176190Y525780D01*
D14*
X176100Y525690D01*
D15*
X198120Y419100D02*
X203200Y414020D01*
X203200Y384810D01*
X186690Y440690D02*
X191770Y445770D01*
D14*
X186540Y510690D02*
X176100Y510690D01*
D15*
X191770Y505460D02*
X191770Y445770D01*
X191770Y505460D02*
X186540Y510690D01*
X173990Y440690D02*
X152400Y419100D01*
X173990Y440690D02*
X186690Y440690D01*
D14*
X176100Y450690D02*
X175940Y450850D01*
D15*
X146050Y450850D02*
X127000Y431800D01*
X146050Y450850D02*
X175940Y450850D01*
X127000Y431800D02*
X127000Y384810D01*
X63500Y656590D02*
X63500Y681990D01*
X63500Y656590D02*
X57150Y650240D01*
X31750Y650240D01*
X12700Y631190D01*
X12700Y491490D02*
X25400Y478790D01*
D14*
X33200Y478790D01*
X35100Y480690D01*
D15*
X12700Y491490D02*
X12700Y631190D01*
X101600Y533400D02*
X101600Y384810D01*
X94310Y540690D02*
X35100Y540690D01*
X94310Y540690D02*
X101600Y533400D01*
X76200Y495300D02*
X76200Y384810D01*
X60810Y510690D02*
X35100Y510690D01*
X60810Y510690D02*
X76200Y495300D01*
D14*
X160900Y495690D02*
X176100Y495690D01*
X160900Y495690D02*
X152400Y504190D01*
D17*
X152400Y504190D03*
D15*
X177800Y425450D02*
X177800Y384810D01*
D16*
X177800Y425450D03*
D14*
X176100Y480690D02*
X146690Y480690D01*
X146050Y481330D01*
D17*
X146050Y481330D03*
D15*
X50800Y408940D02*
X50800Y384810D01*
X152400Y384810D02*
X152400Y408940D01*
D14*
X254880Y495690D02*
X263700Y495690D01*
D15*
X254880Y495690D02*
X247650Y502920D01*
X247650Y624840D01*
X266700Y643890D01*
X311150Y643890D02*
X317500Y650240D01*
X317500Y681990D01*
X311150Y643890D02*
X266700Y643890D01*
X377890Y555690D02*
X404700Y555690D01*
X377890Y555690D02*
X368300Y546100D01*
D16*
X368300Y546100D03*
D15*
X279400Y439420D02*
X279400Y419100D01*
D16*
X279400Y439420D03*
X368300Y533400D03*
D15*
X375590Y540690D01*
X404700Y540690D01*
X426720Y514350D02*
X426720Y419100D01*
X426720Y514350D02*
X415290Y525780D01*
X404790Y525780D01*
D14*
X404700Y525690D01*
D15*
X426720Y419100D02*
X431800Y414020D01*
X431800Y384810D01*
X415290Y440690D02*
X420370Y445770D01*
D14*
X415140Y510690D02*
X404700Y510690D01*
D15*
X420370Y505460D02*
X420370Y445770D01*
X420370Y505460D02*
X415140Y510690D01*
X402590Y440690D02*
X381000Y419100D01*
X402590Y440690D02*
X415290Y440690D01*
D14*
X404700Y450690D02*
X404540Y450850D01*
D15*
X374650Y450850D02*
X355600Y431800D01*
X374650Y450850D02*
X404540Y450850D01*
X355600Y431800D02*
X355600Y384810D01*
X292100Y656590D02*
X292100Y681990D01*
X292100Y656590D02*
X285750Y650240D01*
X260350Y650240D01*
X241300Y631190D01*
X241300Y491490D02*
X254000Y478790D01*
D14*
X261800Y478790D01*
X263700Y480690D01*
D15*
X241300Y491490D02*
X241300Y631190D01*
X330200Y533400D02*
X330200Y384810D01*
X322910Y540690D02*
X263700Y540690D01*
X322910Y540690D02*
X330200Y533400D01*
X304800Y495300D02*
X304800Y384810D01*
X289410Y510690D02*
X263700Y510690D01*
X289410Y510690D02*
X304800Y495300D01*
D14*
X389500Y495690D02*
X404700Y495690D01*
X389500Y495690D02*
X381000Y504190D01*
D17*
X381000Y504190D03*
D15*
X406400Y425450D02*
X406400Y384810D01*
D16*
X406400Y425450D03*
D14*
X404700Y480690D02*
X375290Y480690D01*
X374650Y481330D01*
D17*
X374650Y481330D03*
D15*
X279400Y408940D02*
X279400Y384810D01*
X381000Y384810D02*
X381000Y408940D01*
D14*
X483480Y495690D02*
X492300Y495690D01*
D15*
X483480Y495690D02*
X476250Y502920D01*
X476250Y624840D01*
X495300Y643890D01*
X539750Y643890D02*
X546100Y650240D01*
X546100Y681990D01*
X539750Y643890D02*
X495300Y643890D01*
X606490Y555690D02*
X633300Y555690D01*
X606490Y555690D02*
X596900Y546100D01*
D16*
X596900Y546100D03*
D15*
X508000Y439420D02*
X508000Y419100D01*
D16*
X508000Y439420D03*
X596900Y533400D03*
D15*
X604190Y540690D01*
X633300Y540690D01*
X655320Y514350D02*
X655320Y419100D01*
X655320Y514350D02*
X643890Y525780D01*
X633390Y525780D01*
D14*
X633300Y525690D01*
D15*
X655320Y419100D02*
X660400Y414020D01*
X660400Y384810D01*
X643890Y440690D02*
X648970Y445770D01*
D14*
X643740Y510690D02*
X633300Y510690D01*
D15*
X648970Y505460D02*
X648970Y445770D01*
X648970Y505460D02*
X643740Y510690D01*
X631190Y440690D02*
X609600Y419100D01*
X631190Y440690D02*
X643890Y440690D01*
D14*
X633300Y450690D02*
X633140Y450850D01*
D15*
X603250Y450850D02*
X584200Y431800D01*
X603250Y450850D02*
X633140Y450850D01*
X584200Y431800D02*
X584200Y384810D01*
X520700Y656590D02*
X520700Y681990D01*
X520700Y656590D02*
X514350Y650240D01*
X488950Y650240D01*
X469900Y631190D01*
X469900Y491490D02*
X482600Y478790D01*
D14*
X490400Y478790D01*
X492300Y480690D01*
D15*
X469900Y491490D02*
X469900Y631190D01*
X558800Y533400D02*
X558800Y384810D01*
X551510Y540690D02*
X492300Y540690D01*
X551510Y540690D02*
X558800Y533400D01*
X533400Y495300D02*
X533400Y384810D01*
X518010Y510690D02*
X492300Y510690D01*
X518010Y510690D02*
X533400Y495300D01*
D14*
X618100Y495690D02*
X633300Y495690D01*
X618100Y495690D02*
X609600Y504190D01*
D17*
X609600Y504190D03*
D15*
X635000Y425450D02*
X635000Y384810D01*
D16*
X635000Y425450D03*
D14*
X633300Y480690D02*
X603890Y480690D01*
X603250Y481330D01*
D17*
X603250Y481330D03*
D15*
X508000Y408940D02*
X508000Y384810D01*
X609600Y384810D02*
X609600Y408940D01*
D14*
X712080Y495690D02*
X720900Y495690D01*
D15*
X712080Y495690D02*
X704850Y502920D01*
X704850Y624840D01*
X723900Y643890D01*
X768350Y643890D02*
X774700Y650240D01*
X774700Y681990D01*
X768350Y643890D02*
X723900Y643890D01*
X835090Y555690D02*
X861900Y555690D01*
X835090Y555690D02*
X825500Y546100D01*
D16*
X825500Y546100D03*
D15*
X736600Y439420D02*
X736600Y419100D01*
D16*
X736600Y439420D03*
X825500Y533400D03*
D15*
X832790Y540690D01*
X861900Y540690D01*
X883920Y514350D02*
X883920Y419100D01*
X883920Y514350D02*
X872490Y525780D01*
X861990Y525780D01*
D14*
X861900Y525690D01*
D15*
X883920Y419100D02*
X889000Y414020D01*
X889000Y384810D01*
X872490Y440690D02*
X877570Y445770D01*
D14*
X872340Y510690D02*
X861900Y510690D01*
D15*
X877570Y505460D02*
X877570Y445770D01*
X877570Y505460D02*
X872340Y510690D01*
X859790Y440690D02*
X838200Y419100D01*
X859790Y440690D02*
X872490Y440690D01*
D14*
X861900Y450690D02*
X861740Y450850D01*
D15*
X831850Y450850D02*
X812800Y431800D01*
X831850Y450850D02*
X861740Y450850D01*
X812800Y431800D02*
X812800Y384810D01*
X749300Y656590D02*
X749300Y681990D01*
X749300Y656590D02*
X742950Y650240D01*
X717550Y650240D01*
X698500Y631190D01*
X698500Y491490D02*
X711200Y478790D01*
D14*
X719000Y478790D01*
X720900Y480690D01*
D15*
X698500Y491490D02*
X698500Y631190D01*
X787400Y533400D02*
X787400Y384810D01*
X780110Y540690D02*
X720900Y540690D01*
X780110Y540690D02*
X787400Y533400D01*
X762000Y495300D02*
X762000Y384810D01*
X746610Y510690D02*
X720900Y510690D01*
X746610Y510690D02*
X762000Y495300D01*
D14*
X846700Y495690D02*
X861900Y495690D01*
X846700Y495690D02*
X838200Y504190D01*
D17*
X838200Y504190D03*
D15*
X863600Y425450D02*
X863600Y384810D01*
D16*
X863600Y425450D03*
D14*
X861900Y480690D02*
X832490Y480690D01*
X831850Y481330D01*
D17*
X831850Y481330D03*
D15*
X736600Y408940D02*
X736600Y384810D01*
X838200Y384810D02*
X838200Y408940D01*
M02*
