G04 EAGLE Gerber RS-274X export*
G75*
%MOMM*%
%FSLAX34Y34*%
%LPD*%
%INTop Paste*%
%IPPOS*%
%AMOC8*
5,1,8,0,0,1.08239X$1,22.5*%
G01*
%ADD10C,0.648000*%


D10*
X41360Y198830D02*
X28840Y198830D01*
X28840Y201350D01*
X41360Y201350D01*
X41360Y198830D01*
X41360Y183830D02*
X28840Y183830D01*
X28840Y186350D01*
X41360Y186350D01*
X41360Y183830D01*
X41360Y168830D02*
X28840Y168830D01*
X28840Y171350D01*
X41360Y171350D01*
X41360Y168830D01*
X41360Y153830D02*
X28840Y153830D01*
X28840Y156350D01*
X41360Y156350D01*
X41360Y153830D01*
X41360Y138830D02*
X28840Y138830D01*
X28840Y141350D01*
X41360Y141350D01*
X41360Y138830D01*
X41360Y123830D02*
X28840Y123830D01*
X28840Y126350D01*
X41360Y126350D01*
X41360Y123830D01*
X41360Y108830D02*
X28840Y108830D01*
X28840Y111350D01*
X41360Y111350D01*
X41360Y108830D01*
X41360Y93830D02*
X28840Y93830D01*
X28840Y96350D01*
X41360Y96350D01*
X41360Y93830D01*
X169840Y93830D02*
X182360Y93830D01*
X169840Y93830D02*
X169840Y96350D01*
X182360Y96350D01*
X182360Y93830D01*
X182360Y108830D02*
X169840Y108830D01*
X169840Y111350D01*
X182360Y111350D01*
X182360Y108830D01*
X182360Y123830D02*
X169840Y123830D01*
X169840Y126350D01*
X182360Y126350D01*
X182360Y123830D01*
X182360Y138830D02*
X169840Y138830D01*
X169840Y141350D01*
X182360Y141350D01*
X182360Y138830D01*
X182360Y153830D02*
X169840Y153830D01*
X169840Y156350D01*
X182360Y156350D01*
X182360Y153830D01*
X182360Y168830D02*
X169840Y168830D01*
X169840Y171350D01*
X182360Y171350D01*
X182360Y168830D01*
X182360Y183830D02*
X169840Y183830D01*
X169840Y186350D01*
X182360Y186350D01*
X182360Y183830D01*
X182360Y198830D02*
X169840Y198830D01*
X169840Y201350D01*
X182360Y201350D01*
X182360Y198830D01*
X257440Y198830D02*
X269960Y198830D01*
X257440Y198830D02*
X257440Y201350D01*
X269960Y201350D01*
X269960Y198830D01*
X269960Y183830D02*
X257440Y183830D01*
X257440Y186350D01*
X269960Y186350D01*
X269960Y183830D01*
X269960Y168830D02*
X257440Y168830D01*
X257440Y171350D01*
X269960Y171350D01*
X269960Y168830D01*
X269960Y153830D02*
X257440Y153830D01*
X257440Y156350D01*
X269960Y156350D01*
X269960Y153830D01*
X269960Y138830D02*
X257440Y138830D01*
X257440Y141350D01*
X269960Y141350D01*
X269960Y138830D01*
X269960Y123830D02*
X257440Y123830D01*
X257440Y126350D01*
X269960Y126350D01*
X269960Y123830D01*
X269960Y108830D02*
X257440Y108830D01*
X257440Y111350D01*
X269960Y111350D01*
X269960Y108830D01*
X269960Y93830D02*
X257440Y93830D01*
X257440Y96350D01*
X269960Y96350D01*
X269960Y93830D01*
X398440Y93830D02*
X410960Y93830D01*
X398440Y93830D02*
X398440Y96350D01*
X410960Y96350D01*
X410960Y93830D01*
X410960Y108830D02*
X398440Y108830D01*
X398440Y111350D01*
X410960Y111350D01*
X410960Y108830D01*
X410960Y123830D02*
X398440Y123830D01*
X398440Y126350D01*
X410960Y126350D01*
X410960Y123830D01*
X410960Y138830D02*
X398440Y138830D01*
X398440Y141350D01*
X410960Y141350D01*
X410960Y138830D01*
X410960Y153830D02*
X398440Y153830D01*
X398440Y156350D01*
X410960Y156350D01*
X410960Y153830D01*
X410960Y168830D02*
X398440Y168830D01*
X398440Y171350D01*
X410960Y171350D01*
X410960Y168830D01*
X410960Y183830D02*
X398440Y183830D01*
X398440Y186350D01*
X410960Y186350D01*
X410960Y183830D01*
X410960Y198830D02*
X398440Y198830D01*
X398440Y201350D01*
X410960Y201350D01*
X410960Y198830D01*
X486040Y198830D02*
X498560Y198830D01*
X486040Y198830D02*
X486040Y201350D01*
X498560Y201350D01*
X498560Y198830D01*
X498560Y183830D02*
X486040Y183830D01*
X486040Y186350D01*
X498560Y186350D01*
X498560Y183830D01*
X498560Y168830D02*
X486040Y168830D01*
X486040Y171350D01*
X498560Y171350D01*
X498560Y168830D01*
X498560Y153830D02*
X486040Y153830D01*
X486040Y156350D01*
X498560Y156350D01*
X498560Y153830D01*
X498560Y138830D02*
X486040Y138830D01*
X486040Y141350D01*
X498560Y141350D01*
X498560Y138830D01*
X498560Y123830D02*
X486040Y123830D01*
X486040Y126350D01*
X498560Y126350D01*
X498560Y123830D01*
X498560Y108830D02*
X486040Y108830D01*
X486040Y111350D01*
X498560Y111350D01*
X498560Y108830D01*
X498560Y93830D02*
X486040Y93830D01*
X486040Y96350D01*
X498560Y96350D01*
X498560Y93830D01*
X627040Y93830D02*
X639560Y93830D01*
X627040Y93830D02*
X627040Y96350D01*
X639560Y96350D01*
X639560Y93830D01*
X639560Y108830D02*
X627040Y108830D01*
X627040Y111350D01*
X639560Y111350D01*
X639560Y108830D01*
X639560Y123830D02*
X627040Y123830D01*
X627040Y126350D01*
X639560Y126350D01*
X639560Y123830D01*
X639560Y138830D02*
X627040Y138830D01*
X627040Y141350D01*
X639560Y141350D01*
X639560Y138830D01*
X639560Y153830D02*
X627040Y153830D01*
X627040Y156350D01*
X639560Y156350D01*
X639560Y153830D01*
X639560Y168830D02*
X627040Y168830D01*
X627040Y171350D01*
X639560Y171350D01*
X639560Y168830D01*
X639560Y183830D02*
X627040Y183830D01*
X627040Y186350D01*
X639560Y186350D01*
X639560Y183830D01*
X639560Y198830D02*
X627040Y198830D01*
X627040Y201350D01*
X639560Y201350D01*
X639560Y198830D01*
X714640Y198830D02*
X727160Y198830D01*
X714640Y198830D02*
X714640Y201350D01*
X727160Y201350D01*
X727160Y198830D01*
X727160Y183830D02*
X714640Y183830D01*
X714640Y186350D01*
X727160Y186350D01*
X727160Y183830D01*
X727160Y168830D02*
X714640Y168830D01*
X714640Y171350D01*
X727160Y171350D01*
X727160Y168830D01*
X727160Y153830D02*
X714640Y153830D01*
X714640Y156350D01*
X727160Y156350D01*
X727160Y153830D01*
X727160Y138830D02*
X714640Y138830D01*
X714640Y141350D01*
X727160Y141350D01*
X727160Y138830D01*
X727160Y123830D02*
X714640Y123830D01*
X714640Y126350D01*
X727160Y126350D01*
X727160Y123830D01*
X727160Y108830D02*
X714640Y108830D01*
X714640Y111350D01*
X727160Y111350D01*
X727160Y108830D01*
X727160Y93830D02*
X714640Y93830D01*
X714640Y96350D01*
X727160Y96350D01*
X727160Y93830D01*
X855640Y93830D02*
X868160Y93830D01*
X855640Y93830D02*
X855640Y96350D01*
X868160Y96350D01*
X868160Y93830D01*
X868160Y108830D02*
X855640Y108830D01*
X855640Y111350D01*
X868160Y111350D01*
X868160Y108830D01*
X868160Y123830D02*
X855640Y123830D01*
X855640Y126350D01*
X868160Y126350D01*
X868160Y123830D01*
X868160Y138830D02*
X855640Y138830D01*
X855640Y141350D01*
X868160Y141350D01*
X868160Y138830D01*
X868160Y153830D02*
X855640Y153830D01*
X855640Y156350D01*
X868160Y156350D01*
X868160Y153830D01*
X868160Y168830D02*
X855640Y168830D01*
X855640Y171350D01*
X868160Y171350D01*
X868160Y168830D01*
X868160Y183830D02*
X855640Y183830D01*
X855640Y186350D01*
X868160Y186350D01*
X868160Y183830D01*
X868160Y198830D02*
X855640Y198830D01*
X855640Y201350D01*
X868160Y201350D01*
X868160Y198830D01*
X41360Y554430D02*
X28840Y554430D01*
X28840Y556950D01*
X41360Y556950D01*
X41360Y554430D01*
X41360Y539430D02*
X28840Y539430D01*
X28840Y541950D01*
X41360Y541950D01*
X41360Y539430D01*
X41360Y524430D02*
X28840Y524430D01*
X28840Y526950D01*
X41360Y526950D01*
X41360Y524430D01*
X41360Y509430D02*
X28840Y509430D01*
X28840Y511950D01*
X41360Y511950D01*
X41360Y509430D01*
X41360Y494430D02*
X28840Y494430D01*
X28840Y496950D01*
X41360Y496950D01*
X41360Y494430D01*
X41360Y479430D02*
X28840Y479430D01*
X28840Y481950D01*
X41360Y481950D01*
X41360Y479430D01*
X41360Y464430D02*
X28840Y464430D01*
X28840Y466950D01*
X41360Y466950D01*
X41360Y464430D01*
X41360Y449430D02*
X28840Y449430D01*
X28840Y451950D01*
X41360Y451950D01*
X41360Y449430D01*
X169840Y449430D02*
X182360Y449430D01*
X169840Y449430D02*
X169840Y451950D01*
X182360Y451950D01*
X182360Y449430D01*
X182360Y464430D02*
X169840Y464430D01*
X169840Y466950D01*
X182360Y466950D01*
X182360Y464430D01*
X182360Y479430D02*
X169840Y479430D01*
X169840Y481950D01*
X182360Y481950D01*
X182360Y479430D01*
X182360Y494430D02*
X169840Y494430D01*
X169840Y496950D01*
X182360Y496950D01*
X182360Y494430D01*
X182360Y509430D02*
X169840Y509430D01*
X169840Y511950D01*
X182360Y511950D01*
X182360Y509430D01*
X182360Y524430D02*
X169840Y524430D01*
X169840Y526950D01*
X182360Y526950D01*
X182360Y524430D01*
X182360Y539430D02*
X169840Y539430D01*
X169840Y541950D01*
X182360Y541950D01*
X182360Y539430D01*
X182360Y554430D02*
X169840Y554430D01*
X169840Y556950D01*
X182360Y556950D01*
X182360Y554430D01*
X257440Y554430D02*
X269960Y554430D01*
X257440Y554430D02*
X257440Y556950D01*
X269960Y556950D01*
X269960Y554430D01*
X269960Y539430D02*
X257440Y539430D01*
X257440Y541950D01*
X269960Y541950D01*
X269960Y539430D01*
X269960Y524430D02*
X257440Y524430D01*
X257440Y526950D01*
X269960Y526950D01*
X269960Y524430D01*
X269960Y509430D02*
X257440Y509430D01*
X257440Y511950D01*
X269960Y511950D01*
X269960Y509430D01*
X269960Y494430D02*
X257440Y494430D01*
X257440Y496950D01*
X269960Y496950D01*
X269960Y494430D01*
X269960Y479430D02*
X257440Y479430D01*
X257440Y481950D01*
X269960Y481950D01*
X269960Y479430D01*
X269960Y464430D02*
X257440Y464430D01*
X257440Y466950D01*
X269960Y466950D01*
X269960Y464430D01*
X269960Y449430D02*
X257440Y449430D01*
X257440Y451950D01*
X269960Y451950D01*
X269960Y449430D01*
X398440Y449430D02*
X410960Y449430D01*
X398440Y449430D02*
X398440Y451950D01*
X410960Y451950D01*
X410960Y449430D01*
X410960Y464430D02*
X398440Y464430D01*
X398440Y466950D01*
X410960Y466950D01*
X410960Y464430D01*
X410960Y479430D02*
X398440Y479430D01*
X398440Y481950D01*
X410960Y481950D01*
X410960Y479430D01*
X410960Y494430D02*
X398440Y494430D01*
X398440Y496950D01*
X410960Y496950D01*
X410960Y494430D01*
X410960Y509430D02*
X398440Y509430D01*
X398440Y511950D01*
X410960Y511950D01*
X410960Y509430D01*
X410960Y524430D02*
X398440Y524430D01*
X398440Y526950D01*
X410960Y526950D01*
X410960Y524430D01*
X410960Y539430D02*
X398440Y539430D01*
X398440Y541950D01*
X410960Y541950D01*
X410960Y539430D01*
X410960Y554430D02*
X398440Y554430D01*
X398440Y556950D01*
X410960Y556950D01*
X410960Y554430D01*
X486040Y554430D02*
X498560Y554430D01*
X486040Y554430D02*
X486040Y556950D01*
X498560Y556950D01*
X498560Y554430D01*
X498560Y539430D02*
X486040Y539430D01*
X486040Y541950D01*
X498560Y541950D01*
X498560Y539430D01*
X498560Y524430D02*
X486040Y524430D01*
X486040Y526950D01*
X498560Y526950D01*
X498560Y524430D01*
X498560Y509430D02*
X486040Y509430D01*
X486040Y511950D01*
X498560Y511950D01*
X498560Y509430D01*
X498560Y494430D02*
X486040Y494430D01*
X486040Y496950D01*
X498560Y496950D01*
X498560Y494430D01*
X498560Y479430D02*
X486040Y479430D01*
X486040Y481950D01*
X498560Y481950D01*
X498560Y479430D01*
X498560Y464430D02*
X486040Y464430D01*
X486040Y466950D01*
X498560Y466950D01*
X498560Y464430D01*
X498560Y449430D02*
X486040Y449430D01*
X486040Y451950D01*
X498560Y451950D01*
X498560Y449430D01*
X627040Y449430D02*
X639560Y449430D01*
X627040Y449430D02*
X627040Y451950D01*
X639560Y451950D01*
X639560Y449430D01*
X639560Y464430D02*
X627040Y464430D01*
X627040Y466950D01*
X639560Y466950D01*
X639560Y464430D01*
X639560Y479430D02*
X627040Y479430D01*
X627040Y481950D01*
X639560Y481950D01*
X639560Y479430D01*
X639560Y494430D02*
X627040Y494430D01*
X627040Y496950D01*
X639560Y496950D01*
X639560Y494430D01*
X639560Y509430D02*
X627040Y509430D01*
X627040Y511950D01*
X639560Y511950D01*
X639560Y509430D01*
X639560Y524430D02*
X627040Y524430D01*
X627040Y526950D01*
X639560Y526950D01*
X639560Y524430D01*
X639560Y539430D02*
X627040Y539430D01*
X627040Y541950D01*
X639560Y541950D01*
X639560Y539430D01*
X639560Y554430D02*
X627040Y554430D01*
X627040Y556950D01*
X639560Y556950D01*
X639560Y554430D01*
X714640Y554430D02*
X727160Y554430D01*
X714640Y554430D02*
X714640Y556950D01*
X727160Y556950D01*
X727160Y554430D01*
X727160Y539430D02*
X714640Y539430D01*
X714640Y541950D01*
X727160Y541950D01*
X727160Y539430D01*
X727160Y524430D02*
X714640Y524430D01*
X714640Y526950D01*
X727160Y526950D01*
X727160Y524430D01*
X727160Y509430D02*
X714640Y509430D01*
X714640Y511950D01*
X727160Y511950D01*
X727160Y509430D01*
X727160Y494430D02*
X714640Y494430D01*
X714640Y496950D01*
X727160Y496950D01*
X727160Y494430D01*
X727160Y479430D02*
X714640Y479430D01*
X714640Y481950D01*
X727160Y481950D01*
X727160Y479430D01*
X727160Y464430D02*
X714640Y464430D01*
X714640Y466950D01*
X727160Y466950D01*
X727160Y464430D01*
X727160Y449430D02*
X714640Y449430D01*
X714640Y451950D01*
X727160Y451950D01*
X727160Y449430D01*
X855640Y449430D02*
X868160Y449430D01*
X855640Y449430D02*
X855640Y451950D01*
X868160Y451950D01*
X868160Y449430D01*
X868160Y464430D02*
X855640Y464430D01*
X855640Y466950D01*
X868160Y466950D01*
X868160Y464430D01*
X868160Y479430D02*
X855640Y479430D01*
X855640Y481950D01*
X868160Y481950D01*
X868160Y479430D01*
X868160Y494430D02*
X855640Y494430D01*
X855640Y496950D01*
X868160Y496950D01*
X868160Y494430D01*
X868160Y509430D02*
X855640Y509430D01*
X855640Y511950D01*
X868160Y511950D01*
X868160Y509430D01*
X868160Y524430D02*
X855640Y524430D01*
X855640Y526950D01*
X868160Y526950D01*
X868160Y524430D01*
X868160Y539430D02*
X855640Y539430D01*
X855640Y541950D01*
X868160Y541950D01*
X868160Y539430D01*
X868160Y554430D02*
X855640Y554430D01*
X855640Y556950D01*
X868160Y556950D01*
X868160Y554430D01*
M02*
