G04 EAGLE Gerber RS-274X export*
G75*
%MOMM*%
%FSLAX34Y34*%
%LPD*%
%INBottom Solder Mask*%
%IPPOS*%
%AMOC8*
5,1,8,0,0,1.08239X$1,22.5*%
G01*
%ADD10C,1.625600*%
%ADD11R,1.701600X1.904600*%
%ADD12R,1.625600X1.371600*%


D10*
X63500Y318770D02*
X63500Y334010D01*
X88900Y334010D02*
X88900Y318770D01*
X114300Y318770D02*
X114300Y334010D01*
X139700Y334010D02*
X139700Y318770D01*
X165100Y318770D02*
X165100Y334010D01*
X203200Y36830D02*
X203200Y21590D01*
X177800Y21590D02*
X177800Y36830D01*
X152400Y36830D02*
X152400Y21590D01*
X127000Y21590D02*
X127000Y36830D01*
X101600Y36830D02*
X101600Y21590D01*
X76200Y21590D02*
X76200Y36830D01*
X50800Y36830D02*
X50800Y21590D01*
X25400Y21590D02*
X25400Y36830D01*
D11*
X53590Y60960D03*
X25150Y60960D03*
D12*
X200660Y91440D03*
X200660Y66040D03*
D10*
X292100Y318770D02*
X292100Y334010D01*
X317500Y334010D02*
X317500Y318770D01*
X342900Y318770D02*
X342900Y334010D01*
X368300Y334010D02*
X368300Y318770D01*
X393700Y318770D02*
X393700Y334010D01*
X431800Y36830D02*
X431800Y21590D01*
X406400Y21590D02*
X406400Y36830D01*
X381000Y36830D02*
X381000Y21590D01*
X355600Y21590D02*
X355600Y36830D01*
X330200Y36830D02*
X330200Y21590D01*
X304800Y21590D02*
X304800Y36830D01*
X279400Y36830D02*
X279400Y21590D01*
X254000Y21590D02*
X254000Y36830D01*
D11*
X282190Y60960D03*
X253750Y60960D03*
D12*
X429260Y91440D03*
X429260Y66040D03*
D10*
X520700Y318770D02*
X520700Y334010D01*
X546100Y334010D02*
X546100Y318770D01*
X571500Y318770D02*
X571500Y334010D01*
X596900Y334010D02*
X596900Y318770D01*
X622300Y318770D02*
X622300Y334010D01*
X660400Y36830D02*
X660400Y21590D01*
X635000Y21590D02*
X635000Y36830D01*
X609600Y36830D02*
X609600Y21590D01*
X584200Y21590D02*
X584200Y36830D01*
X558800Y36830D02*
X558800Y21590D01*
X533400Y21590D02*
X533400Y36830D01*
X508000Y36830D02*
X508000Y21590D01*
X482600Y21590D02*
X482600Y36830D01*
D11*
X510790Y60960D03*
X482350Y60960D03*
D12*
X657860Y91440D03*
X657860Y66040D03*
D10*
X749300Y318770D02*
X749300Y334010D01*
X774700Y334010D02*
X774700Y318770D01*
X800100Y318770D02*
X800100Y334010D01*
X825500Y334010D02*
X825500Y318770D01*
X850900Y318770D02*
X850900Y334010D01*
X889000Y36830D02*
X889000Y21590D01*
X863600Y21590D02*
X863600Y36830D01*
X838200Y36830D02*
X838200Y21590D01*
X812800Y21590D02*
X812800Y36830D01*
X787400Y36830D02*
X787400Y21590D01*
X762000Y21590D02*
X762000Y36830D01*
X736600Y36830D02*
X736600Y21590D01*
X711200Y21590D02*
X711200Y36830D01*
D11*
X739390Y60960D03*
X710950Y60960D03*
D12*
X886460Y91440D03*
X886460Y66040D03*
D10*
X63500Y674370D02*
X63500Y689610D01*
X88900Y689610D02*
X88900Y674370D01*
X114300Y674370D02*
X114300Y689610D01*
X139700Y689610D02*
X139700Y674370D01*
X165100Y674370D02*
X165100Y689610D01*
X203200Y392430D02*
X203200Y377190D01*
X177800Y377190D02*
X177800Y392430D01*
X152400Y392430D02*
X152400Y377190D01*
X127000Y377190D02*
X127000Y392430D01*
X101600Y392430D02*
X101600Y377190D01*
X76200Y377190D02*
X76200Y392430D01*
X50800Y392430D02*
X50800Y377190D01*
X25400Y377190D02*
X25400Y392430D01*
D11*
X53590Y416560D03*
X25150Y416560D03*
D12*
X200660Y447040D03*
X200660Y421640D03*
D10*
X292100Y674370D02*
X292100Y689610D01*
X317500Y689610D02*
X317500Y674370D01*
X342900Y674370D02*
X342900Y689610D01*
X368300Y689610D02*
X368300Y674370D01*
X393700Y674370D02*
X393700Y689610D01*
X431800Y392430D02*
X431800Y377190D01*
X406400Y377190D02*
X406400Y392430D01*
X381000Y392430D02*
X381000Y377190D01*
X355600Y377190D02*
X355600Y392430D01*
X330200Y392430D02*
X330200Y377190D01*
X304800Y377190D02*
X304800Y392430D01*
X279400Y392430D02*
X279400Y377190D01*
X254000Y377190D02*
X254000Y392430D01*
D11*
X282190Y416560D03*
X253750Y416560D03*
D12*
X429260Y447040D03*
X429260Y421640D03*
D10*
X520700Y674370D02*
X520700Y689610D01*
X546100Y689610D02*
X546100Y674370D01*
X571500Y674370D02*
X571500Y689610D01*
X596900Y689610D02*
X596900Y674370D01*
X622300Y674370D02*
X622300Y689610D01*
X660400Y392430D02*
X660400Y377190D01*
X635000Y377190D02*
X635000Y392430D01*
X609600Y392430D02*
X609600Y377190D01*
X584200Y377190D02*
X584200Y392430D01*
X558800Y392430D02*
X558800Y377190D01*
X533400Y377190D02*
X533400Y392430D01*
X508000Y392430D02*
X508000Y377190D01*
X482600Y377190D02*
X482600Y392430D01*
D11*
X510790Y416560D03*
X482350Y416560D03*
D12*
X657860Y447040D03*
X657860Y421640D03*
D10*
X749300Y674370D02*
X749300Y689610D01*
X774700Y689610D02*
X774700Y674370D01*
X800100Y674370D02*
X800100Y689610D01*
X825500Y689610D02*
X825500Y674370D01*
X850900Y674370D02*
X850900Y689610D01*
X889000Y392430D02*
X889000Y377190D01*
X863600Y377190D02*
X863600Y392430D01*
X838200Y392430D02*
X838200Y377190D01*
X812800Y377190D02*
X812800Y392430D01*
X787400Y392430D02*
X787400Y377190D01*
X762000Y377190D02*
X762000Y392430D01*
X736600Y392430D02*
X736600Y377190D01*
X711200Y377190D02*
X711200Y392430D01*
D11*
X739390Y416560D03*
X710950Y416560D03*
D12*
X886460Y447040D03*
X886460Y421640D03*
M02*
