G04 EAGLE Gerber RS-274X export*
G75*
%MOMM*%
%FSLAX34Y34*%
%LPD*%
%INMechanical*%
%IPPOS*%
%AMOC8*
5,1,8,0,0,1.08239X$1,22.5*%
G01*
%ADD10C,0.000000*%
%ADD11C,0.279400*%
%ADD12C,0.254000*%


D10*
X0Y0D02*
X228600Y0D01*
X228600Y355600D01*
X0Y355600D01*
X0Y0D01*
X190500Y228600D02*
X190809Y228604D01*
X191118Y228615D01*
X191427Y228634D01*
X191735Y228660D01*
X192043Y228694D01*
X192349Y228735D01*
X192655Y228784D01*
X192959Y228840D01*
X193261Y228904D01*
X193562Y228975D01*
X193862Y229053D01*
X194159Y229138D01*
X194454Y229231D01*
X194747Y229331D01*
X195037Y229438D01*
X195324Y229552D01*
X195609Y229673D01*
X195891Y229801D01*
X196169Y229935D01*
X196444Y230077D01*
X196716Y230225D01*
X196983Y230380D01*
X197247Y230541D01*
X197507Y230708D01*
X197763Y230882D01*
X198015Y231062D01*
X198262Y231248D01*
X198504Y231440D01*
X198742Y231638D01*
X198975Y231841D01*
X199203Y232051D01*
X199425Y232265D01*
X199643Y232485D01*
X199855Y232711D01*
X200061Y232941D01*
X200262Y233176D01*
X200457Y233416D01*
X200646Y233661D01*
X200829Y233910D01*
X201006Y234164D01*
X201176Y234422D01*
X201341Y234684D01*
X201499Y234950D01*
X201650Y235220D01*
X201795Y235493D01*
X201933Y235770D01*
X202064Y236050D01*
X202188Y236333D01*
X202306Y236619D01*
X202416Y236908D01*
X202520Y237199D01*
X202616Y237493D01*
X202705Y237789D01*
X202787Y238088D01*
X202862Y238388D01*
X202929Y238690D01*
X202989Y238993D01*
X203041Y239298D01*
X203086Y239604D01*
X203124Y239911D01*
X203154Y240219D01*
X203176Y240527D01*
X203192Y240836D01*
X203199Y241145D01*
X203199Y241455D01*
X203192Y241764D01*
X203176Y242073D01*
X203154Y242381D01*
X203124Y242689D01*
X203086Y242996D01*
X203041Y243302D01*
X202989Y243607D01*
X202929Y243910D01*
X202862Y244212D01*
X202787Y244512D01*
X202705Y244811D01*
X202616Y245107D01*
X202520Y245401D01*
X202416Y245692D01*
X202306Y245981D01*
X202188Y246267D01*
X202064Y246550D01*
X201933Y246830D01*
X201795Y247107D01*
X201650Y247380D01*
X201499Y247650D01*
X201341Y247916D01*
X201176Y248178D01*
X201006Y248436D01*
X200829Y248690D01*
X200646Y248939D01*
X200457Y249184D01*
X200262Y249424D01*
X200061Y249659D01*
X199855Y249889D01*
X199643Y250115D01*
X199425Y250335D01*
X199203Y250549D01*
X198975Y250759D01*
X198742Y250962D01*
X198504Y251160D01*
X198262Y251352D01*
X198015Y251538D01*
X197763Y251718D01*
X197507Y251892D01*
X197247Y252059D01*
X196983Y252220D01*
X196716Y252375D01*
X196444Y252523D01*
X196169Y252665D01*
X195891Y252799D01*
X195609Y252927D01*
X195324Y253048D01*
X195037Y253162D01*
X194747Y253269D01*
X194454Y253369D01*
X194159Y253462D01*
X193862Y253547D01*
X193562Y253625D01*
X193261Y253696D01*
X192959Y253760D01*
X192655Y253816D01*
X192349Y253865D01*
X192043Y253906D01*
X191735Y253940D01*
X191427Y253966D01*
X191118Y253985D01*
X190809Y253996D01*
X190500Y254000D01*
X38100Y254000D02*
X37791Y253996D01*
X37482Y253985D01*
X37173Y253966D01*
X36865Y253940D01*
X36557Y253906D01*
X36251Y253865D01*
X35945Y253816D01*
X35641Y253760D01*
X35339Y253696D01*
X35038Y253625D01*
X34738Y253547D01*
X34441Y253462D01*
X34146Y253369D01*
X33853Y253269D01*
X33563Y253162D01*
X33276Y253048D01*
X32991Y252927D01*
X32709Y252799D01*
X32431Y252665D01*
X32156Y252523D01*
X31884Y252375D01*
X31617Y252220D01*
X31353Y252059D01*
X31093Y251892D01*
X30837Y251718D01*
X30585Y251538D01*
X30338Y251352D01*
X30096Y251160D01*
X29858Y250962D01*
X29625Y250759D01*
X29397Y250549D01*
X29175Y250335D01*
X28957Y250115D01*
X28745Y249889D01*
X28539Y249659D01*
X28338Y249424D01*
X28143Y249184D01*
X27954Y248939D01*
X27771Y248690D01*
X27594Y248436D01*
X27424Y248178D01*
X27259Y247916D01*
X27101Y247650D01*
X26950Y247380D01*
X26805Y247107D01*
X26667Y246830D01*
X26536Y246550D01*
X26412Y246267D01*
X26294Y245981D01*
X26184Y245692D01*
X26080Y245401D01*
X25984Y245107D01*
X25895Y244811D01*
X25813Y244512D01*
X25738Y244212D01*
X25671Y243910D01*
X25611Y243607D01*
X25559Y243302D01*
X25514Y242996D01*
X25476Y242689D01*
X25446Y242381D01*
X25424Y242073D01*
X25408Y241764D01*
X25401Y241455D01*
X25401Y241145D01*
X25408Y240836D01*
X25424Y240527D01*
X25446Y240219D01*
X25476Y239911D01*
X25514Y239604D01*
X25559Y239298D01*
X25611Y238993D01*
X25671Y238690D01*
X25738Y238388D01*
X25813Y238088D01*
X25895Y237789D01*
X25984Y237493D01*
X26080Y237199D01*
X26184Y236908D01*
X26294Y236619D01*
X26412Y236333D01*
X26536Y236050D01*
X26667Y235770D01*
X26805Y235493D01*
X26950Y235220D01*
X27101Y234950D01*
X27259Y234684D01*
X27424Y234422D01*
X27594Y234164D01*
X27771Y233910D01*
X27954Y233661D01*
X28143Y233416D01*
X28338Y233176D01*
X28539Y232941D01*
X28745Y232711D01*
X28957Y232485D01*
X29175Y232265D01*
X29397Y232051D01*
X29625Y231841D01*
X29858Y231638D01*
X30096Y231440D01*
X30338Y231248D01*
X30585Y231062D01*
X30837Y230882D01*
X31093Y230708D01*
X31353Y230541D01*
X31617Y230380D01*
X31884Y230225D01*
X32156Y230077D01*
X32431Y229935D01*
X32709Y229801D01*
X32991Y229673D01*
X33276Y229552D01*
X33563Y229438D01*
X33853Y229331D01*
X34146Y229231D01*
X34441Y229138D01*
X34738Y229053D01*
X35038Y228975D01*
X35339Y228904D01*
X35641Y228840D01*
X35945Y228784D01*
X36251Y228735D01*
X36557Y228694D01*
X36865Y228660D01*
X37173Y228634D01*
X37482Y228615D01*
X37791Y228604D01*
X38100Y228600D01*
X38100Y254000D02*
X190500Y254000D01*
X190500Y228600D02*
X38100Y228600D01*
X228600Y0D02*
X457200Y0D01*
X457200Y355600D01*
X228600Y355600D01*
X228600Y0D01*
X419100Y228600D02*
X419409Y228604D01*
X419718Y228615D01*
X420027Y228634D01*
X420335Y228660D01*
X420643Y228694D01*
X420949Y228735D01*
X421255Y228784D01*
X421559Y228840D01*
X421861Y228904D01*
X422162Y228975D01*
X422462Y229053D01*
X422759Y229138D01*
X423054Y229231D01*
X423347Y229331D01*
X423637Y229438D01*
X423924Y229552D01*
X424209Y229673D01*
X424491Y229801D01*
X424769Y229935D01*
X425044Y230077D01*
X425316Y230225D01*
X425583Y230380D01*
X425847Y230541D01*
X426107Y230708D01*
X426363Y230882D01*
X426615Y231062D01*
X426862Y231248D01*
X427104Y231440D01*
X427342Y231638D01*
X427575Y231841D01*
X427803Y232051D01*
X428025Y232265D01*
X428243Y232485D01*
X428455Y232711D01*
X428661Y232941D01*
X428862Y233176D01*
X429057Y233416D01*
X429246Y233661D01*
X429429Y233910D01*
X429606Y234164D01*
X429776Y234422D01*
X429941Y234684D01*
X430099Y234950D01*
X430250Y235220D01*
X430395Y235493D01*
X430533Y235770D01*
X430664Y236050D01*
X430788Y236333D01*
X430906Y236619D01*
X431016Y236908D01*
X431120Y237199D01*
X431216Y237493D01*
X431305Y237789D01*
X431387Y238088D01*
X431462Y238388D01*
X431529Y238690D01*
X431589Y238993D01*
X431641Y239298D01*
X431686Y239604D01*
X431724Y239911D01*
X431754Y240219D01*
X431776Y240527D01*
X431792Y240836D01*
X431799Y241145D01*
X431799Y241455D01*
X431792Y241764D01*
X431776Y242073D01*
X431754Y242381D01*
X431724Y242689D01*
X431686Y242996D01*
X431641Y243302D01*
X431589Y243607D01*
X431529Y243910D01*
X431462Y244212D01*
X431387Y244512D01*
X431305Y244811D01*
X431216Y245107D01*
X431120Y245401D01*
X431016Y245692D01*
X430906Y245981D01*
X430788Y246267D01*
X430664Y246550D01*
X430533Y246830D01*
X430395Y247107D01*
X430250Y247380D01*
X430099Y247650D01*
X429941Y247916D01*
X429776Y248178D01*
X429606Y248436D01*
X429429Y248690D01*
X429246Y248939D01*
X429057Y249184D01*
X428862Y249424D01*
X428661Y249659D01*
X428455Y249889D01*
X428243Y250115D01*
X428025Y250335D01*
X427803Y250549D01*
X427575Y250759D01*
X427342Y250962D01*
X427104Y251160D01*
X426862Y251352D01*
X426615Y251538D01*
X426363Y251718D01*
X426107Y251892D01*
X425847Y252059D01*
X425583Y252220D01*
X425316Y252375D01*
X425044Y252523D01*
X424769Y252665D01*
X424491Y252799D01*
X424209Y252927D01*
X423924Y253048D01*
X423637Y253162D01*
X423347Y253269D01*
X423054Y253369D01*
X422759Y253462D01*
X422462Y253547D01*
X422162Y253625D01*
X421861Y253696D01*
X421559Y253760D01*
X421255Y253816D01*
X420949Y253865D01*
X420643Y253906D01*
X420335Y253940D01*
X420027Y253966D01*
X419718Y253985D01*
X419409Y253996D01*
X419100Y254000D01*
X266700Y254000D02*
X266391Y253996D01*
X266082Y253985D01*
X265773Y253966D01*
X265465Y253940D01*
X265157Y253906D01*
X264851Y253865D01*
X264545Y253816D01*
X264241Y253760D01*
X263939Y253696D01*
X263638Y253625D01*
X263338Y253547D01*
X263041Y253462D01*
X262746Y253369D01*
X262453Y253269D01*
X262163Y253162D01*
X261876Y253048D01*
X261591Y252927D01*
X261309Y252799D01*
X261031Y252665D01*
X260756Y252523D01*
X260484Y252375D01*
X260217Y252220D01*
X259953Y252059D01*
X259693Y251892D01*
X259437Y251718D01*
X259185Y251538D01*
X258938Y251352D01*
X258696Y251160D01*
X258458Y250962D01*
X258225Y250759D01*
X257997Y250549D01*
X257775Y250335D01*
X257557Y250115D01*
X257345Y249889D01*
X257139Y249659D01*
X256938Y249424D01*
X256743Y249184D01*
X256554Y248939D01*
X256371Y248690D01*
X256194Y248436D01*
X256024Y248178D01*
X255859Y247916D01*
X255701Y247650D01*
X255550Y247380D01*
X255405Y247107D01*
X255267Y246830D01*
X255136Y246550D01*
X255012Y246267D01*
X254894Y245981D01*
X254784Y245692D01*
X254680Y245401D01*
X254584Y245107D01*
X254495Y244811D01*
X254413Y244512D01*
X254338Y244212D01*
X254271Y243910D01*
X254211Y243607D01*
X254159Y243302D01*
X254114Y242996D01*
X254076Y242689D01*
X254046Y242381D01*
X254024Y242073D01*
X254008Y241764D01*
X254001Y241455D01*
X254001Y241145D01*
X254008Y240836D01*
X254024Y240527D01*
X254046Y240219D01*
X254076Y239911D01*
X254114Y239604D01*
X254159Y239298D01*
X254211Y238993D01*
X254271Y238690D01*
X254338Y238388D01*
X254413Y238088D01*
X254495Y237789D01*
X254584Y237493D01*
X254680Y237199D01*
X254784Y236908D01*
X254894Y236619D01*
X255012Y236333D01*
X255136Y236050D01*
X255267Y235770D01*
X255405Y235493D01*
X255550Y235220D01*
X255701Y234950D01*
X255859Y234684D01*
X256024Y234422D01*
X256194Y234164D01*
X256371Y233910D01*
X256554Y233661D01*
X256743Y233416D01*
X256938Y233176D01*
X257139Y232941D01*
X257345Y232711D01*
X257557Y232485D01*
X257775Y232265D01*
X257997Y232051D01*
X258225Y231841D01*
X258458Y231638D01*
X258696Y231440D01*
X258938Y231248D01*
X259185Y231062D01*
X259437Y230882D01*
X259693Y230708D01*
X259953Y230541D01*
X260217Y230380D01*
X260484Y230225D01*
X260756Y230077D01*
X261031Y229935D01*
X261309Y229801D01*
X261591Y229673D01*
X261876Y229552D01*
X262163Y229438D01*
X262453Y229331D01*
X262746Y229231D01*
X263041Y229138D01*
X263338Y229053D01*
X263638Y228975D01*
X263939Y228904D01*
X264241Y228840D01*
X264545Y228784D01*
X264851Y228735D01*
X265157Y228694D01*
X265465Y228660D01*
X265773Y228634D01*
X266082Y228615D01*
X266391Y228604D01*
X266700Y228600D01*
X266700Y254000D02*
X419100Y254000D01*
X419100Y228600D02*
X266700Y228600D01*
X457200Y0D02*
X685800Y0D01*
X685800Y355600D01*
X457200Y355600D01*
X457200Y0D01*
X647700Y228600D02*
X648009Y228604D01*
X648318Y228615D01*
X648627Y228634D01*
X648935Y228660D01*
X649243Y228694D01*
X649549Y228735D01*
X649855Y228784D01*
X650159Y228840D01*
X650461Y228904D01*
X650762Y228975D01*
X651062Y229053D01*
X651359Y229138D01*
X651654Y229231D01*
X651947Y229331D01*
X652237Y229438D01*
X652524Y229552D01*
X652809Y229673D01*
X653091Y229801D01*
X653369Y229935D01*
X653644Y230077D01*
X653916Y230225D01*
X654183Y230380D01*
X654447Y230541D01*
X654707Y230708D01*
X654963Y230882D01*
X655215Y231062D01*
X655462Y231248D01*
X655704Y231440D01*
X655942Y231638D01*
X656175Y231841D01*
X656403Y232051D01*
X656625Y232265D01*
X656843Y232485D01*
X657055Y232711D01*
X657261Y232941D01*
X657462Y233176D01*
X657657Y233416D01*
X657846Y233661D01*
X658029Y233910D01*
X658206Y234164D01*
X658376Y234422D01*
X658541Y234684D01*
X658699Y234950D01*
X658850Y235220D01*
X658995Y235493D01*
X659133Y235770D01*
X659264Y236050D01*
X659388Y236333D01*
X659506Y236619D01*
X659616Y236908D01*
X659720Y237199D01*
X659816Y237493D01*
X659905Y237789D01*
X659987Y238088D01*
X660062Y238388D01*
X660129Y238690D01*
X660189Y238993D01*
X660241Y239298D01*
X660286Y239604D01*
X660324Y239911D01*
X660354Y240219D01*
X660376Y240527D01*
X660392Y240836D01*
X660399Y241145D01*
X660399Y241455D01*
X660392Y241764D01*
X660376Y242073D01*
X660354Y242381D01*
X660324Y242689D01*
X660286Y242996D01*
X660241Y243302D01*
X660189Y243607D01*
X660129Y243910D01*
X660062Y244212D01*
X659987Y244512D01*
X659905Y244811D01*
X659816Y245107D01*
X659720Y245401D01*
X659616Y245692D01*
X659506Y245981D01*
X659388Y246267D01*
X659264Y246550D01*
X659133Y246830D01*
X658995Y247107D01*
X658850Y247380D01*
X658699Y247650D01*
X658541Y247916D01*
X658376Y248178D01*
X658206Y248436D01*
X658029Y248690D01*
X657846Y248939D01*
X657657Y249184D01*
X657462Y249424D01*
X657261Y249659D01*
X657055Y249889D01*
X656843Y250115D01*
X656625Y250335D01*
X656403Y250549D01*
X656175Y250759D01*
X655942Y250962D01*
X655704Y251160D01*
X655462Y251352D01*
X655215Y251538D01*
X654963Y251718D01*
X654707Y251892D01*
X654447Y252059D01*
X654183Y252220D01*
X653916Y252375D01*
X653644Y252523D01*
X653369Y252665D01*
X653091Y252799D01*
X652809Y252927D01*
X652524Y253048D01*
X652237Y253162D01*
X651947Y253269D01*
X651654Y253369D01*
X651359Y253462D01*
X651062Y253547D01*
X650762Y253625D01*
X650461Y253696D01*
X650159Y253760D01*
X649855Y253816D01*
X649549Y253865D01*
X649243Y253906D01*
X648935Y253940D01*
X648627Y253966D01*
X648318Y253985D01*
X648009Y253996D01*
X647700Y254000D01*
X495300Y254000D02*
X494991Y253996D01*
X494682Y253985D01*
X494373Y253966D01*
X494065Y253940D01*
X493757Y253906D01*
X493451Y253865D01*
X493145Y253816D01*
X492841Y253760D01*
X492539Y253696D01*
X492238Y253625D01*
X491938Y253547D01*
X491641Y253462D01*
X491346Y253369D01*
X491053Y253269D01*
X490763Y253162D01*
X490476Y253048D01*
X490191Y252927D01*
X489909Y252799D01*
X489631Y252665D01*
X489356Y252523D01*
X489084Y252375D01*
X488817Y252220D01*
X488553Y252059D01*
X488293Y251892D01*
X488037Y251718D01*
X487785Y251538D01*
X487538Y251352D01*
X487296Y251160D01*
X487058Y250962D01*
X486825Y250759D01*
X486597Y250549D01*
X486375Y250335D01*
X486157Y250115D01*
X485945Y249889D01*
X485739Y249659D01*
X485538Y249424D01*
X485343Y249184D01*
X485154Y248939D01*
X484971Y248690D01*
X484794Y248436D01*
X484624Y248178D01*
X484459Y247916D01*
X484301Y247650D01*
X484150Y247380D01*
X484005Y247107D01*
X483867Y246830D01*
X483736Y246550D01*
X483612Y246267D01*
X483494Y245981D01*
X483384Y245692D01*
X483280Y245401D01*
X483184Y245107D01*
X483095Y244811D01*
X483013Y244512D01*
X482938Y244212D01*
X482871Y243910D01*
X482811Y243607D01*
X482759Y243302D01*
X482714Y242996D01*
X482676Y242689D01*
X482646Y242381D01*
X482624Y242073D01*
X482608Y241764D01*
X482601Y241455D01*
X482601Y241145D01*
X482608Y240836D01*
X482624Y240527D01*
X482646Y240219D01*
X482676Y239911D01*
X482714Y239604D01*
X482759Y239298D01*
X482811Y238993D01*
X482871Y238690D01*
X482938Y238388D01*
X483013Y238088D01*
X483095Y237789D01*
X483184Y237493D01*
X483280Y237199D01*
X483384Y236908D01*
X483494Y236619D01*
X483612Y236333D01*
X483736Y236050D01*
X483867Y235770D01*
X484005Y235493D01*
X484150Y235220D01*
X484301Y234950D01*
X484459Y234684D01*
X484624Y234422D01*
X484794Y234164D01*
X484971Y233910D01*
X485154Y233661D01*
X485343Y233416D01*
X485538Y233176D01*
X485739Y232941D01*
X485945Y232711D01*
X486157Y232485D01*
X486375Y232265D01*
X486597Y232051D01*
X486825Y231841D01*
X487058Y231638D01*
X487296Y231440D01*
X487538Y231248D01*
X487785Y231062D01*
X488037Y230882D01*
X488293Y230708D01*
X488553Y230541D01*
X488817Y230380D01*
X489084Y230225D01*
X489356Y230077D01*
X489631Y229935D01*
X489909Y229801D01*
X490191Y229673D01*
X490476Y229552D01*
X490763Y229438D01*
X491053Y229331D01*
X491346Y229231D01*
X491641Y229138D01*
X491938Y229053D01*
X492238Y228975D01*
X492539Y228904D01*
X492841Y228840D01*
X493145Y228784D01*
X493451Y228735D01*
X493757Y228694D01*
X494065Y228660D01*
X494373Y228634D01*
X494682Y228615D01*
X494991Y228604D01*
X495300Y228600D01*
X495300Y254000D02*
X647700Y254000D01*
X647700Y228600D02*
X495300Y228600D01*
X685800Y0D02*
X914400Y0D01*
X914400Y355600D01*
X685800Y355600D01*
X685800Y0D01*
X876300Y228600D02*
X876609Y228604D01*
X876918Y228615D01*
X877227Y228634D01*
X877535Y228660D01*
X877843Y228694D01*
X878149Y228735D01*
X878455Y228784D01*
X878759Y228840D01*
X879061Y228904D01*
X879362Y228975D01*
X879662Y229053D01*
X879959Y229138D01*
X880254Y229231D01*
X880547Y229331D01*
X880837Y229438D01*
X881124Y229552D01*
X881409Y229673D01*
X881691Y229801D01*
X881969Y229935D01*
X882244Y230077D01*
X882516Y230225D01*
X882783Y230380D01*
X883047Y230541D01*
X883307Y230708D01*
X883563Y230882D01*
X883815Y231062D01*
X884062Y231248D01*
X884304Y231440D01*
X884542Y231638D01*
X884775Y231841D01*
X885003Y232051D01*
X885225Y232265D01*
X885443Y232485D01*
X885655Y232711D01*
X885861Y232941D01*
X886062Y233176D01*
X886257Y233416D01*
X886446Y233661D01*
X886629Y233910D01*
X886806Y234164D01*
X886976Y234422D01*
X887141Y234684D01*
X887299Y234950D01*
X887450Y235220D01*
X887595Y235493D01*
X887733Y235770D01*
X887864Y236050D01*
X887988Y236333D01*
X888106Y236619D01*
X888216Y236908D01*
X888320Y237199D01*
X888416Y237493D01*
X888505Y237789D01*
X888587Y238088D01*
X888662Y238388D01*
X888729Y238690D01*
X888789Y238993D01*
X888841Y239298D01*
X888886Y239604D01*
X888924Y239911D01*
X888954Y240219D01*
X888976Y240527D01*
X888992Y240836D01*
X888999Y241145D01*
X888999Y241455D01*
X888992Y241764D01*
X888976Y242073D01*
X888954Y242381D01*
X888924Y242689D01*
X888886Y242996D01*
X888841Y243302D01*
X888789Y243607D01*
X888729Y243910D01*
X888662Y244212D01*
X888587Y244512D01*
X888505Y244811D01*
X888416Y245107D01*
X888320Y245401D01*
X888216Y245692D01*
X888106Y245981D01*
X887988Y246267D01*
X887864Y246550D01*
X887733Y246830D01*
X887595Y247107D01*
X887450Y247380D01*
X887299Y247650D01*
X887141Y247916D01*
X886976Y248178D01*
X886806Y248436D01*
X886629Y248690D01*
X886446Y248939D01*
X886257Y249184D01*
X886062Y249424D01*
X885861Y249659D01*
X885655Y249889D01*
X885443Y250115D01*
X885225Y250335D01*
X885003Y250549D01*
X884775Y250759D01*
X884542Y250962D01*
X884304Y251160D01*
X884062Y251352D01*
X883815Y251538D01*
X883563Y251718D01*
X883307Y251892D01*
X883047Y252059D01*
X882783Y252220D01*
X882516Y252375D01*
X882244Y252523D01*
X881969Y252665D01*
X881691Y252799D01*
X881409Y252927D01*
X881124Y253048D01*
X880837Y253162D01*
X880547Y253269D01*
X880254Y253369D01*
X879959Y253462D01*
X879662Y253547D01*
X879362Y253625D01*
X879061Y253696D01*
X878759Y253760D01*
X878455Y253816D01*
X878149Y253865D01*
X877843Y253906D01*
X877535Y253940D01*
X877227Y253966D01*
X876918Y253985D01*
X876609Y253996D01*
X876300Y254000D01*
X723900Y254000D02*
X723591Y253996D01*
X723282Y253985D01*
X722973Y253966D01*
X722665Y253940D01*
X722357Y253906D01*
X722051Y253865D01*
X721745Y253816D01*
X721441Y253760D01*
X721139Y253696D01*
X720838Y253625D01*
X720538Y253547D01*
X720241Y253462D01*
X719946Y253369D01*
X719653Y253269D01*
X719363Y253162D01*
X719076Y253048D01*
X718791Y252927D01*
X718509Y252799D01*
X718231Y252665D01*
X717956Y252523D01*
X717684Y252375D01*
X717417Y252220D01*
X717153Y252059D01*
X716893Y251892D01*
X716637Y251718D01*
X716385Y251538D01*
X716138Y251352D01*
X715896Y251160D01*
X715658Y250962D01*
X715425Y250759D01*
X715197Y250549D01*
X714975Y250335D01*
X714757Y250115D01*
X714545Y249889D01*
X714339Y249659D01*
X714138Y249424D01*
X713943Y249184D01*
X713754Y248939D01*
X713571Y248690D01*
X713394Y248436D01*
X713224Y248178D01*
X713059Y247916D01*
X712901Y247650D01*
X712750Y247380D01*
X712605Y247107D01*
X712467Y246830D01*
X712336Y246550D01*
X712212Y246267D01*
X712094Y245981D01*
X711984Y245692D01*
X711880Y245401D01*
X711784Y245107D01*
X711695Y244811D01*
X711613Y244512D01*
X711538Y244212D01*
X711471Y243910D01*
X711411Y243607D01*
X711359Y243302D01*
X711314Y242996D01*
X711276Y242689D01*
X711246Y242381D01*
X711224Y242073D01*
X711208Y241764D01*
X711201Y241455D01*
X711201Y241145D01*
X711208Y240836D01*
X711224Y240527D01*
X711246Y240219D01*
X711276Y239911D01*
X711314Y239604D01*
X711359Y239298D01*
X711411Y238993D01*
X711471Y238690D01*
X711538Y238388D01*
X711613Y238088D01*
X711695Y237789D01*
X711784Y237493D01*
X711880Y237199D01*
X711984Y236908D01*
X712094Y236619D01*
X712212Y236333D01*
X712336Y236050D01*
X712467Y235770D01*
X712605Y235493D01*
X712750Y235220D01*
X712901Y234950D01*
X713059Y234684D01*
X713224Y234422D01*
X713394Y234164D01*
X713571Y233910D01*
X713754Y233661D01*
X713943Y233416D01*
X714138Y233176D01*
X714339Y232941D01*
X714545Y232711D01*
X714757Y232485D01*
X714975Y232265D01*
X715197Y232051D01*
X715425Y231841D01*
X715658Y231638D01*
X715896Y231440D01*
X716138Y231248D01*
X716385Y231062D01*
X716637Y230882D01*
X716893Y230708D01*
X717153Y230541D01*
X717417Y230380D01*
X717684Y230225D01*
X717956Y230077D01*
X718231Y229935D01*
X718509Y229801D01*
X718791Y229673D01*
X719076Y229552D01*
X719363Y229438D01*
X719653Y229331D01*
X719946Y229231D01*
X720241Y229138D01*
X720538Y229053D01*
X720838Y228975D01*
X721139Y228904D01*
X721441Y228840D01*
X721745Y228784D01*
X722051Y228735D01*
X722357Y228694D01*
X722665Y228660D01*
X722973Y228634D01*
X723282Y228615D01*
X723591Y228604D01*
X723900Y228600D01*
X723900Y254000D02*
X876300Y254000D01*
X876300Y228600D02*
X723900Y228600D01*
X228600Y355600D02*
X0Y355600D01*
X228600Y355600D02*
X228600Y711200D01*
X0Y711200D01*
X0Y355600D01*
X190500Y584200D02*
X190809Y584204D01*
X191118Y584215D01*
X191427Y584234D01*
X191735Y584260D01*
X192043Y584294D01*
X192349Y584335D01*
X192655Y584384D01*
X192959Y584440D01*
X193261Y584504D01*
X193562Y584575D01*
X193862Y584653D01*
X194159Y584738D01*
X194454Y584831D01*
X194747Y584931D01*
X195037Y585038D01*
X195324Y585152D01*
X195609Y585273D01*
X195891Y585401D01*
X196169Y585535D01*
X196444Y585677D01*
X196716Y585825D01*
X196983Y585980D01*
X197247Y586141D01*
X197507Y586308D01*
X197763Y586482D01*
X198015Y586662D01*
X198262Y586848D01*
X198504Y587040D01*
X198742Y587238D01*
X198975Y587441D01*
X199203Y587651D01*
X199425Y587865D01*
X199643Y588085D01*
X199855Y588311D01*
X200061Y588541D01*
X200262Y588776D01*
X200457Y589016D01*
X200646Y589261D01*
X200829Y589510D01*
X201006Y589764D01*
X201176Y590022D01*
X201341Y590284D01*
X201499Y590550D01*
X201650Y590820D01*
X201795Y591093D01*
X201933Y591370D01*
X202064Y591650D01*
X202188Y591933D01*
X202306Y592219D01*
X202416Y592508D01*
X202520Y592799D01*
X202616Y593093D01*
X202705Y593389D01*
X202787Y593688D01*
X202862Y593988D01*
X202929Y594290D01*
X202989Y594593D01*
X203041Y594898D01*
X203086Y595204D01*
X203124Y595511D01*
X203154Y595819D01*
X203176Y596127D01*
X203192Y596436D01*
X203199Y596745D01*
X203199Y597055D01*
X203192Y597364D01*
X203176Y597673D01*
X203154Y597981D01*
X203124Y598289D01*
X203086Y598596D01*
X203041Y598902D01*
X202989Y599207D01*
X202929Y599510D01*
X202862Y599812D01*
X202787Y600112D01*
X202705Y600411D01*
X202616Y600707D01*
X202520Y601001D01*
X202416Y601292D01*
X202306Y601581D01*
X202188Y601867D01*
X202064Y602150D01*
X201933Y602430D01*
X201795Y602707D01*
X201650Y602980D01*
X201499Y603250D01*
X201341Y603516D01*
X201176Y603778D01*
X201006Y604036D01*
X200829Y604290D01*
X200646Y604539D01*
X200457Y604784D01*
X200262Y605024D01*
X200061Y605259D01*
X199855Y605489D01*
X199643Y605715D01*
X199425Y605935D01*
X199203Y606149D01*
X198975Y606359D01*
X198742Y606562D01*
X198504Y606760D01*
X198262Y606952D01*
X198015Y607138D01*
X197763Y607318D01*
X197507Y607492D01*
X197247Y607659D01*
X196983Y607820D01*
X196716Y607975D01*
X196444Y608123D01*
X196169Y608265D01*
X195891Y608399D01*
X195609Y608527D01*
X195324Y608648D01*
X195037Y608762D01*
X194747Y608869D01*
X194454Y608969D01*
X194159Y609062D01*
X193862Y609147D01*
X193562Y609225D01*
X193261Y609296D01*
X192959Y609360D01*
X192655Y609416D01*
X192349Y609465D01*
X192043Y609506D01*
X191735Y609540D01*
X191427Y609566D01*
X191118Y609585D01*
X190809Y609596D01*
X190500Y609600D01*
X38100Y609600D02*
X37791Y609596D01*
X37482Y609585D01*
X37173Y609566D01*
X36865Y609540D01*
X36557Y609506D01*
X36251Y609465D01*
X35945Y609416D01*
X35641Y609360D01*
X35339Y609296D01*
X35038Y609225D01*
X34738Y609147D01*
X34441Y609062D01*
X34146Y608969D01*
X33853Y608869D01*
X33563Y608762D01*
X33276Y608648D01*
X32991Y608527D01*
X32709Y608399D01*
X32431Y608265D01*
X32156Y608123D01*
X31884Y607975D01*
X31617Y607820D01*
X31353Y607659D01*
X31093Y607492D01*
X30837Y607318D01*
X30585Y607138D01*
X30338Y606952D01*
X30096Y606760D01*
X29858Y606562D01*
X29625Y606359D01*
X29397Y606149D01*
X29175Y605935D01*
X28957Y605715D01*
X28745Y605489D01*
X28539Y605259D01*
X28338Y605024D01*
X28143Y604784D01*
X27954Y604539D01*
X27771Y604290D01*
X27594Y604036D01*
X27424Y603778D01*
X27259Y603516D01*
X27101Y603250D01*
X26950Y602980D01*
X26805Y602707D01*
X26667Y602430D01*
X26536Y602150D01*
X26412Y601867D01*
X26294Y601581D01*
X26184Y601292D01*
X26080Y601001D01*
X25984Y600707D01*
X25895Y600411D01*
X25813Y600112D01*
X25738Y599812D01*
X25671Y599510D01*
X25611Y599207D01*
X25559Y598902D01*
X25514Y598596D01*
X25476Y598289D01*
X25446Y597981D01*
X25424Y597673D01*
X25408Y597364D01*
X25401Y597055D01*
X25401Y596745D01*
X25408Y596436D01*
X25424Y596127D01*
X25446Y595819D01*
X25476Y595511D01*
X25514Y595204D01*
X25559Y594898D01*
X25611Y594593D01*
X25671Y594290D01*
X25738Y593988D01*
X25813Y593688D01*
X25895Y593389D01*
X25984Y593093D01*
X26080Y592799D01*
X26184Y592508D01*
X26294Y592219D01*
X26412Y591933D01*
X26536Y591650D01*
X26667Y591370D01*
X26805Y591093D01*
X26950Y590820D01*
X27101Y590550D01*
X27259Y590284D01*
X27424Y590022D01*
X27594Y589764D01*
X27771Y589510D01*
X27954Y589261D01*
X28143Y589016D01*
X28338Y588776D01*
X28539Y588541D01*
X28745Y588311D01*
X28957Y588085D01*
X29175Y587865D01*
X29397Y587651D01*
X29625Y587441D01*
X29858Y587238D01*
X30096Y587040D01*
X30338Y586848D01*
X30585Y586662D01*
X30837Y586482D01*
X31093Y586308D01*
X31353Y586141D01*
X31617Y585980D01*
X31884Y585825D01*
X32156Y585677D01*
X32431Y585535D01*
X32709Y585401D01*
X32991Y585273D01*
X33276Y585152D01*
X33563Y585038D01*
X33853Y584931D01*
X34146Y584831D01*
X34441Y584738D01*
X34738Y584653D01*
X35038Y584575D01*
X35339Y584504D01*
X35641Y584440D01*
X35945Y584384D01*
X36251Y584335D01*
X36557Y584294D01*
X36865Y584260D01*
X37173Y584234D01*
X37482Y584215D01*
X37791Y584204D01*
X38100Y584200D01*
X38100Y609600D02*
X190500Y609600D01*
X190500Y584200D02*
X38100Y584200D01*
X228600Y355600D02*
X457200Y355600D01*
X457200Y711200D01*
X228600Y711200D01*
X228600Y355600D01*
X419100Y584200D02*
X419409Y584204D01*
X419718Y584215D01*
X420027Y584234D01*
X420335Y584260D01*
X420643Y584294D01*
X420949Y584335D01*
X421255Y584384D01*
X421559Y584440D01*
X421861Y584504D01*
X422162Y584575D01*
X422462Y584653D01*
X422759Y584738D01*
X423054Y584831D01*
X423347Y584931D01*
X423637Y585038D01*
X423924Y585152D01*
X424209Y585273D01*
X424491Y585401D01*
X424769Y585535D01*
X425044Y585677D01*
X425316Y585825D01*
X425583Y585980D01*
X425847Y586141D01*
X426107Y586308D01*
X426363Y586482D01*
X426615Y586662D01*
X426862Y586848D01*
X427104Y587040D01*
X427342Y587238D01*
X427575Y587441D01*
X427803Y587651D01*
X428025Y587865D01*
X428243Y588085D01*
X428455Y588311D01*
X428661Y588541D01*
X428862Y588776D01*
X429057Y589016D01*
X429246Y589261D01*
X429429Y589510D01*
X429606Y589764D01*
X429776Y590022D01*
X429941Y590284D01*
X430099Y590550D01*
X430250Y590820D01*
X430395Y591093D01*
X430533Y591370D01*
X430664Y591650D01*
X430788Y591933D01*
X430906Y592219D01*
X431016Y592508D01*
X431120Y592799D01*
X431216Y593093D01*
X431305Y593389D01*
X431387Y593688D01*
X431462Y593988D01*
X431529Y594290D01*
X431589Y594593D01*
X431641Y594898D01*
X431686Y595204D01*
X431724Y595511D01*
X431754Y595819D01*
X431776Y596127D01*
X431792Y596436D01*
X431799Y596745D01*
X431799Y597055D01*
X431792Y597364D01*
X431776Y597673D01*
X431754Y597981D01*
X431724Y598289D01*
X431686Y598596D01*
X431641Y598902D01*
X431589Y599207D01*
X431529Y599510D01*
X431462Y599812D01*
X431387Y600112D01*
X431305Y600411D01*
X431216Y600707D01*
X431120Y601001D01*
X431016Y601292D01*
X430906Y601581D01*
X430788Y601867D01*
X430664Y602150D01*
X430533Y602430D01*
X430395Y602707D01*
X430250Y602980D01*
X430099Y603250D01*
X429941Y603516D01*
X429776Y603778D01*
X429606Y604036D01*
X429429Y604290D01*
X429246Y604539D01*
X429057Y604784D01*
X428862Y605024D01*
X428661Y605259D01*
X428455Y605489D01*
X428243Y605715D01*
X428025Y605935D01*
X427803Y606149D01*
X427575Y606359D01*
X427342Y606562D01*
X427104Y606760D01*
X426862Y606952D01*
X426615Y607138D01*
X426363Y607318D01*
X426107Y607492D01*
X425847Y607659D01*
X425583Y607820D01*
X425316Y607975D01*
X425044Y608123D01*
X424769Y608265D01*
X424491Y608399D01*
X424209Y608527D01*
X423924Y608648D01*
X423637Y608762D01*
X423347Y608869D01*
X423054Y608969D01*
X422759Y609062D01*
X422462Y609147D01*
X422162Y609225D01*
X421861Y609296D01*
X421559Y609360D01*
X421255Y609416D01*
X420949Y609465D01*
X420643Y609506D01*
X420335Y609540D01*
X420027Y609566D01*
X419718Y609585D01*
X419409Y609596D01*
X419100Y609600D01*
X266700Y609600D02*
X266391Y609596D01*
X266082Y609585D01*
X265773Y609566D01*
X265465Y609540D01*
X265157Y609506D01*
X264851Y609465D01*
X264545Y609416D01*
X264241Y609360D01*
X263939Y609296D01*
X263638Y609225D01*
X263338Y609147D01*
X263041Y609062D01*
X262746Y608969D01*
X262453Y608869D01*
X262163Y608762D01*
X261876Y608648D01*
X261591Y608527D01*
X261309Y608399D01*
X261031Y608265D01*
X260756Y608123D01*
X260484Y607975D01*
X260217Y607820D01*
X259953Y607659D01*
X259693Y607492D01*
X259437Y607318D01*
X259185Y607138D01*
X258938Y606952D01*
X258696Y606760D01*
X258458Y606562D01*
X258225Y606359D01*
X257997Y606149D01*
X257775Y605935D01*
X257557Y605715D01*
X257345Y605489D01*
X257139Y605259D01*
X256938Y605024D01*
X256743Y604784D01*
X256554Y604539D01*
X256371Y604290D01*
X256194Y604036D01*
X256024Y603778D01*
X255859Y603516D01*
X255701Y603250D01*
X255550Y602980D01*
X255405Y602707D01*
X255267Y602430D01*
X255136Y602150D01*
X255012Y601867D01*
X254894Y601581D01*
X254784Y601292D01*
X254680Y601001D01*
X254584Y600707D01*
X254495Y600411D01*
X254413Y600112D01*
X254338Y599812D01*
X254271Y599510D01*
X254211Y599207D01*
X254159Y598902D01*
X254114Y598596D01*
X254076Y598289D01*
X254046Y597981D01*
X254024Y597673D01*
X254008Y597364D01*
X254001Y597055D01*
X254001Y596745D01*
X254008Y596436D01*
X254024Y596127D01*
X254046Y595819D01*
X254076Y595511D01*
X254114Y595204D01*
X254159Y594898D01*
X254211Y594593D01*
X254271Y594290D01*
X254338Y593988D01*
X254413Y593688D01*
X254495Y593389D01*
X254584Y593093D01*
X254680Y592799D01*
X254784Y592508D01*
X254894Y592219D01*
X255012Y591933D01*
X255136Y591650D01*
X255267Y591370D01*
X255405Y591093D01*
X255550Y590820D01*
X255701Y590550D01*
X255859Y590284D01*
X256024Y590022D01*
X256194Y589764D01*
X256371Y589510D01*
X256554Y589261D01*
X256743Y589016D01*
X256938Y588776D01*
X257139Y588541D01*
X257345Y588311D01*
X257557Y588085D01*
X257775Y587865D01*
X257997Y587651D01*
X258225Y587441D01*
X258458Y587238D01*
X258696Y587040D01*
X258938Y586848D01*
X259185Y586662D01*
X259437Y586482D01*
X259693Y586308D01*
X259953Y586141D01*
X260217Y585980D01*
X260484Y585825D01*
X260756Y585677D01*
X261031Y585535D01*
X261309Y585401D01*
X261591Y585273D01*
X261876Y585152D01*
X262163Y585038D01*
X262453Y584931D01*
X262746Y584831D01*
X263041Y584738D01*
X263338Y584653D01*
X263638Y584575D01*
X263939Y584504D01*
X264241Y584440D01*
X264545Y584384D01*
X264851Y584335D01*
X265157Y584294D01*
X265465Y584260D01*
X265773Y584234D01*
X266082Y584215D01*
X266391Y584204D01*
X266700Y584200D01*
X266700Y609600D02*
X419100Y609600D01*
X419100Y584200D02*
X266700Y584200D01*
X457200Y355600D02*
X685800Y355600D01*
X685800Y711200D01*
X457200Y711200D01*
X457200Y355600D01*
X647700Y584200D02*
X648009Y584204D01*
X648318Y584215D01*
X648627Y584234D01*
X648935Y584260D01*
X649243Y584294D01*
X649549Y584335D01*
X649855Y584384D01*
X650159Y584440D01*
X650461Y584504D01*
X650762Y584575D01*
X651062Y584653D01*
X651359Y584738D01*
X651654Y584831D01*
X651947Y584931D01*
X652237Y585038D01*
X652524Y585152D01*
X652809Y585273D01*
X653091Y585401D01*
X653369Y585535D01*
X653644Y585677D01*
X653916Y585825D01*
X654183Y585980D01*
X654447Y586141D01*
X654707Y586308D01*
X654963Y586482D01*
X655215Y586662D01*
X655462Y586848D01*
X655704Y587040D01*
X655942Y587238D01*
X656175Y587441D01*
X656403Y587651D01*
X656625Y587865D01*
X656843Y588085D01*
X657055Y588311D01*
X657261Y588541D01*
X657462Y588776D01*
X657657Y589016D01*
X657846Y589261D01*
X658029Y589510D01*
X658206Y589764D01*
X658376Y590022D01*
X658541Y590284D01*
X658699Y590550D01*
X658850Y590820D01*
X658995Y591093D01*
X659133Y591370D01*
X659264Y591650D01*
X659388Y591933D01*
X659506Y592219D01*
X659616Y592508D01*
X659720Y592799D01*
X659816Y593093D01*
X659905Y593389D01*
X659987Y593688D01*
X660062Y593988D01*
X660129Y594290D01*
X660189Y594593D01*
X660241Y594898D01*
X660286Y595204D01*
X660324Y595511D01*
X660354Y595819D01*
X660376Y596127D01*
X660392Y596436D01*
X660399Y596745D01*
X660399Y597055D01*
X660392Y597364D01*
X660376Y597673D01*
X660354Y597981D01*
X660324Y598289D01*
X660286Y598596D01*
X660241Y598902D01*
X660189Y599207D01*
X660129Y599510D01*
X660062Y599812D01*
X659987Y600112D01*
X659905Y600411D01*
X659816Y600707D01*
X659720Y601001D01*
X659616Y601292D01*
X659506Y601581D01*
X659388Y601867D01*
X659264Y602150D01*
X659133Y602430D01*
X658995Y602707D01*
X658850Y602980D01*
X658699Y603250D01*
X658541Y603516D01*
X658376Y603778D01*
X658206Y604036D01*
X658029Y604290D01*
X657846Y604539D01*
X657657Y604784D01*
X657462Y605024D01*
X657261Y605259D01*
X657055Y605489D01*
X656843Y605715D01*
X656625Y605935D01*
X656403Y606149D01*
X656175Y606359D01*
X655942Y606562D01*
X655704Y606760D01*
X655462Y606952D01*
X655215Y607138D01*
X654963Y607318D01*
X654707Y607492D01*
X654447Y607659D01*
X654183Y607820D01*
X653916Y607975D01*
X653644Y608123D01*
X653369Y608265D01*
X653091Y608399D01*
X652809Y608527D01*
X652524Y608648D01*
X652237Y608762D01*
X651947Y608869D01*
X651654Y608969D01*
X651359Y609062D01*
X651062Y609147D01*
X650762Y609225D01*
X650461Y609296D01*
X650159Y609360D01*
X649855Y609416D01*
X649549Y609465D01*
X649243Y609506D01*
X648935Y609540D01*
X648627Y609566D01*
X648318Y609585D01*
X648009Y609596D01*
X647700Y609600D01*
X495300Y609600D02*
X494991Y609596D01*
X494682Y609585D01*
X494373Y609566D01*
X494065Y609540D01*
X493757Y609506D01*
X493451Y609465D01*
X493145Y609416D01*
X492841Y609360D01*
X492539Y609296D01*
X492238Y609225D01*
X491938Y609147D01*
X491641Y609062D01*
X491346Y608969D01*
X491053Y608869D01*
X490763Y608762D01*
X490476Y608648D01*
X490191Y608527D01*
X489909Y608399D01*
X489631Y608265D01*
X489356Y608123D01*
X489084Y607975D01*
X488817Y607820D01*
X488553Y607659D01*
X488293Y607492D01*
X488037Y607318D01*
X487785Y607138D01*
X487538Y606952D01*
X487296Y606760D01*
X487058Y606562D01*
X486825Y606359D01*
X486597Y606149D01*
X486375Y605935D01*
X486157Y605715D01*
X485945Y605489D01*
X485739Y605259D01*
X485538Y605024D01*
X485343Y604784D01*
X485154Y604539D01*
X484971Y604290D01*
X484794Y604036D01*
X484624Y603778D01*
X484459Y603516D01*
X484301Y603250D01*
X484150Y602980D01*
X484005Y602707D01*
X483867Y602430D01*
X483736Y602150D01*
X483612Y601867D01*
X483494Y601581D01*
X483384Y601292D01*
X483280Y601001D01*
X483184Y600707D01*
X483095Y600411D01*
X483013Y600112D01*
X482938Y599812D01*
X482871Y599510D01*
X482811Y599207D01*
X482759Y598902D01*
X482714Y598596D01*
X482676Y598289D01*
X482646Y597981D01*
X482624Y597673D01*
X482608Y597364D01*
X482601Y597055D01*
X482601Y596745D01*
X482608Y596436D01*
X482624Y596127D01*
X482646Y595819D01*
X482676Y595511D01*
X482714Y595204D01*
X482759Y594898D01*
X482811Y594593D01*
X482871Y594290D01*
X482938Y593988D01*
X483013Y593688D01*
X483095Y593389D01*
X483184Y593093D01*
X483280Y592799D01*
X483384Y592508D01*
X483494Y592219D01*
X483612Y591933D01*
X483736Y591650D01*
X483867Y591370D01*
X484005Y591093D01*
X484150Y590820D01*
X484301Y590550D01*
X484459Y590284D01*
X484624Y590022D01*
X484794Y589764D01*
X484971Y589510D01*
X485154Y589261D01*
X485343Y589016D01*
X485538Y588776D01*
X485739Y588541D01*
X485945Y588311D01*
X486157Y588085D01*
X486375Y587865D01*
X486597Y587651D01*
X486825Y587441D01*
X487058Y587238D01*
X487296Y587040D01*
X487538Y586848D01*
X487785Y586662D01*
X488037Y586482D01*
X488293Y586308D01*
X488553Y586141D01*
X488817Y585980D01*
X489084Y585825D01*
X489356Y585677D01*
X489631Y585535D01*
X489909Y585401D01*
X490191Y585273D01*
X490476Y585152D01*
X490763Y585038D01*
X491053Y584931D01*
X491346Y584831D01*
X491641Y584738D01*
X491938Y584653D01*
X492238Y584575D01*
X492539Y584504D01*
X492841Y584440D01*
X493145Y584384D01*
X493451Y584335D01*
X493757Y584294D01*
X494065Y584260D01*
X494373Y584234D01*
X494682Y584215D01*
X494991Y584204D01*
X495300Y584200D01*
X495300Y609600D02*
X647700Y609600D01*
X647700Y584200D02*
X495300Y584200D01*
X685800Y355600D02*
X914400Y355600D01*
X914400Y711200D01*
X685800Y711200D01*
X685800Y355600D01*
X876300Y584200D02*
X876609Y584204D01*
X876918Y584215D01*
X877227Y584234D01*
X877535Y584260D01*
X877843Y584294D01*
X878149Y584335D01*
X878455Y584384D01*
X878759Y584440D01*
X879061Y584504D01*
X879362Y584575D01*
X879662Y584653D01*
X879959Y584738D01*
X880254Y584831D01*
X880547Y584931D01*
X880837Y585038D01*
X881124Y585152D01*
X881409Y585273D01*
X881691Y585401D01*
X881969Y585535D01*
X882244Y585677D01*
X882516Y585825D01*
X882783Y585980D01*
X883047Y586141D01*
X883307Y586308D01*
X883563Y586482D01*
X883815Y586662D01*
X884062Y586848D01*
X884304Y587040D01*
X884542Y587238D01*
X884775Y587441D01*
X885003Y587651D01*
X885225Y587865D01*
X885443Y588085D01*
X885655Y588311D01*
X885861Y588541D01*
X886062Y588776D01*
X886257Y589016D01*
X886446Y589261D01*
X886629Y589510D01*
X886806Y589764D01*
X886976Y590022D01*
X887141Y590284D01*
X887299Y590550D01*
X887450Y590820D01*
X887595Y591093D01*
X887733Y591370D01*
X887864Y591650D01*
X887988Y591933D01*
X888106Y592219D01*
X888216Y592508D01*
X888320Y592799D01*
X888416Y593093D01*
X888505Y593389D01*
X888587Y593688D01*
X888662Y593988D01*
X888729Y594290D01*
X888789Y594593D01*
X888841Y594898D01*
X888886Y595204D01*
X888924Y595511D01*
X888954Y595819D01*
X888976Y596127D01*
X888992Y596436D01*
X888999Y596745D01*
X888999Y597055D01*
X888992Y597364D01*
X888976Y597673D01*
X888954Y597981D01*
X888924Y598289D01*
X888886Y598596D01*
X888841Y598902D01*
X888789Y599207D01*
X888729Y599510D01*
X888662Y599812D01*
X888587Y600112D01*
X888505Y600411D01*
X888416Y600707D01*
X888320Y601001D01*
X888216Y601292D01*
X888106Y601581D01*
X887988Y601867D01*
X887864Y602150D01*
X887733Y602430D01*
X887595Y602707D01*
X887450Y602980D01*
X887299Y603250D01*
X887141Y603516D01*
X886976Y603778D01*
X886806Y604036D01*
X886629Y604290D01*
X886446Y604539D01*
X886257Y604784D01*
X886062Y605024D01*
X885861Y605259D01*
X885655Y605489D01*
X885443Y605715D01*
X885225Y605935D01*
X885003Y606149D01*
X884775Y606359D01*
X884542Y606562D01*
X884304Y606760D01*
X884062Y606952D01*
X883815Y607138D01*
X883563Y607318D01*
X883307Y607492D01*
X883047Y607659D01*
X882783Y607820D01*
X882516Y607975D01*
X882244Y608123D01*
X881969Y608265D01*
X881691Y608399D01*
X881409Y608527D01*
X881124Y608648D01*
X880837Y608762D01*
X880547Y608869D01*
X880254Y608969D01*
X879959Y609062D01*
X879662Y609147D01*
X879362Y609225D01*
X879061Y609296D01*
X878759Y609360D01*
X878455Y609416D01*
X878149Y609465D01*
X877843Y609506D01*
X877535Y609540D01*
X877227Y609566D01*
X876918Y609585D01*
X876609Y609596D01*
X876300Y609600D01*
X723900Y609600D02*
X723591Y609596D01*
X723282Y609585D01*
X722973Y609566D01*
X722665Y609540D01*
X722357Y609506D01*
X722051Y609465D01*
X721745Y609416D01*
X721441Y609360D01*
X721139Y609296D01*
X720838Y609225D01*
X720538Y609147D01*
X720241Y609062D01*
X719946Y608969D01*
X719653Y608869D01*
X719363Y608762D01*
X719076Y608648D01*
X718791Y608527D01*
X718509Y608399D01*
X718231Y608265D01*
X717956Y608123D01*
X717684Y607975D01*
X717417Y607820D01*
X717153Y607659D01*
X716893Y607492D01*
X716637Y607318D01*
X716385Y607138D01*
X716138Y606952D01*
X715896Y606760D01*
X715658Y606562D01*
X715425Y606359D01*
X715197Y606149D01*
X714975Y605935D01*
X714757Y605715D01*
X714545Y605489D01*
X714339Y605259D01*
X714138Y605024D01*
X713943Y604784D01*
X713754Y604539D01*
X713571Y604290D01*
X713394Y604036D01*
X713224Y603778D01*
X713059Y603516D01*
X712901Y603250D01*
X712750Y602980D01*
X712605Y602707D01*
X712467Y602430D01*
X712336Y602150D01*
X712212Y601867D01*
X712094Y601581D01*
X711984Y601292D01*
X711880Y601001D01*
X711784Y600707D01*
X711695Y600411D01*
X711613Y600112D01*
X711538Y599812D01*
X711471Y599510D01*
X711411Y599207D01*
X711359Y598902D01*
X711314Y598596D01*
X711276Y598289D01*
X711246Y597981D01*
X711224Y597673D01*
X711208Y597364D01*
X711201Y597055D01*
X711201Y596745D01*
X711208Y596436D01*
X711224Y596127D01*
X711246Y595819D01*
X711276Y595511D01*
X711314Y595204D01*
X711359Y594898D01*
X711411Y594593D01*
X711471Y594290D01*
X711538Y593988D01*
X711613Y593688D01*
X711695Y593389D01*
X711784Y593093D01*
X711880Y592799D01*
X711984Y592508D01*
X712094Y592219D01*
X712212Y591933D01*
X712336Y591650D01*
X712467Y591370D01*
X712605Y591093D01*
X712750Y590820D01*
X712901Y590550D01*
X713059Y590284D01*
X713224Y590022D01*
X713394Y589764D01*
X713571Y589510D01*
X713754Y589261D01*
X713943Y589016D01*
X714138Y588776D01*
X714339Y588541D01*
X714545Y588311D01*
X714757Y588085D01*
X714975Y587865D01*
X715197Y587651D01*
X715425Y587441D01*
X715658Y587238D01*
X715896Y587040D01*
X716138Y586848D01*
X716385Y586662D01*
X716637Y586482D01*
X716893Y586308D01*
X717153Y586141D01*
X717417Y585980D01*
X717684Y585825D01*
X717956Y585677D01*
X718231Y585535D01*
X718509Y585401D01*
X718791Y585273D01*
X719076Y585152D01*
X719363Y585038D01*
X719653Y584931D01*
X719946Y584831D01*
X720241Y584738D01*
X720538Y584653D01*
X720838Y584575D01*
X721139Y584504D01*
X721441Y584440D01*
X721745Y584384D01*
X722051Y584335D01*
X722357Y584294D01*
X722665Y584260D01*
X722973Y584234D01*
X723282Y584215D01*
X723591Y584204D01*
X723900Y584200D01*
X723900Y609600D02*
X876300Y609600D01*
X876300Y584200D02*
X723900Y584200D01*
X228600Y774700D02*
X228600Y0D01*
D11*
X188219Y790067D02*
X184889Y800058D01*
X191550Y800058D02*
X188219Y790067D01*
X198334Y795895D02*
X208325Y795895D01*
X216879Y795895D02*
X221042Y794230D01*
X216879Y795894D02*
X216794Y795930D01*
X216711Y795970D01*
X216630Y796013D01*
X216550Y796060D01*
X216473Y796110D01*
X216397Y796163D01*
X216324Y796219D01*
X216254Y796279D01*
X216186Y796341D01*
X216121Y796406D01*
X216059Y796474D01*
X215999Y796545D01*
X215943Y796618D01*
X215890Y796693D01*
X215840Y796771D01*
X215794Y796850D01*
X215751Y796932D01*
X215711Y797015D01*
X215675Y797100D01*
X215643Y797186D01*
X215614Y797274D01*
X215590Y797363D01*
X215569Y797453D01*
X215552Y797543D01*
X215538Y797634D01*
X215529Y797726D01*
X215524Y797818D01*
X215522Y797910D01*
X215524Y798002D01*
X215531Y798094D01*
X215541Y798186D01*
X215555Y798277D01*
X215573Y798368D01*
X215595Y798457D01*
X215621Y798546D01*
X215651Y798633D01*
X215684Y798719D01*
X215721Y798803D01*
X215761Y798886D01*
X215805Y798967D01*
X215852Y799046D01*
X215903Y799123D01*
X215957Y799198D01*
X216014Y799271D01*
X216074Y799341D01*
X216137Y799408D01*
X216203Y799472D01*
X216271Y799534D01*
X216342Y799593D01*
X216416Y799648D01*
X216492Y799701D01*
X216570Y799750D01*
X216650Y799796D01*
X216731Y799838D01*
X216815Y799877D01*
X216900Y799912D01*
X216987Y799943D01*
X217075Y799971D01*
X217164Y799995D01*
X217254Y800015D01*
X217344Y800032D01*
X217436Y800044D01*
X217528Y800053D01*
X217620Y800057D01*
X217712Y800058D01*
X217939Y800052D01*
X218166Y800041D01*
X218393Y800024D01*
X218619Y800001D01*
X218845Y799974D01*
X219070Y799940D01*
X219294Y799902D01*
X219517Y799858D01*
X219739Y799809D01*
X219960Y799754D01*
X220179Y799694D01*
X220397Y799629D01*
X220613Y799558D01*
X220827Y799483D01*
X221040Y799402D01*
X221250Y799316D01*
X221459Y799225D01*
X221042Y794230D02*
X221127Y794194D01*
X221210Y794154D01*
X221291Y794111D01*
X221371Y794064D01*
X221448Y794014D01*
X221524Y793961D01*
X221597Y793905D01*
X221667Y793845D01*
X221735Y793783D01*
X221800Y793718D01*
X221862Y793650D01*
X221922Y793579D01*
X221978Y793506D01*
X222031Y793431D01*
X222081Y793353D01*
X222127Y793274D01*
X222170Y793192D01*
X222210Y793109D01*
X222246Y793024D01*
X222278Y792938D01*
X222307Y792850D01*
X222331Y792761D01*
X222352Y792671D01*
X222369Y792581D01*
X222383Y792490D01*
X222392Y792398D01*
X222397Y792306D01*
X222399Y792214D01*
X222397Y792122D01*
X222390Y792030D01*
X222380Y791938D01*
X222366Y791847D01*
X222348Y791756D01*
X222326Y791667D01*
X222300Y791578D01*
X222270Y791491D01*
X222237Y791405D01*
X222200Y791321D01*
X222160Y791238D01*
X222116Y791157D01*
X222069Y791078D01*
X222018Y791001D01*
X221964Y790926D01*
X221907Y790853D01*
X221847Y790783D01*
X221784Y790716D01*
X221718Y790652D01*
X221650Y790590D01*
X221579Y790531D01*
X221505Y790476D01*
X221429Y790423D01*
X221351Y790374D01*
X221271Y790328D01*
X221190Y790286D01*
X221106Y790247D01*
X221021Y790212D01*
X220934Y790181D01*
X220846Y790153D01*
X220757Y790129D01*
X220667Y790109D01*
X220577Y790092D01*
X220485Y790080D01*
X220393Y790071D01*
X220301Y790067D01*
X220209Y790066D01*
X220209Y790067D02*
X219875Y790076D01*
X219542Y790093D01*
X219209Y790117D01*
X218876Y790150D01*
X218545Y790190D01*
X218214Y790238D01*
X217885Y790294D01*
X217557Y790357D01*
X217231Y790429D01*
X216907Y790508D01*
X216584Y790594D01*
X216264Y790689D01*
X215946Y790791D01*
X215630Y790900D01*
X231702Y790067D02*
X235032Y790067D01*
X231702Y790067D02*
X231604Y790069D01*
X231506Y790075D01*
X231408Y790084D01*
X231311Y790098D01*
X231215Y790115D01*
X231119Y790136D01*
X231024Y790161D01*
X230930Y790189D01*
X230837Y790221D01*
X230746Y790257D01*
X230656Y790296D01*
X230568Y790339D01*
X230481Y790386D01*
X230397Y790435D01*
X230314Y790488D01*
X230234Y790544D01*
X230156Y790603D01*
X230080Y790666D01*
X230006Y790731D01*
X229936Y790799D01*
X229868Y790869D01*
X229803Y790943D01*
X229740Y791019D01*
X229681Y791097D01*
X229625Y791177D01*
X229572Y791260D01*
X229523Y791344D01*
X229476Y791431D01*
X229433Y791519D01*
X229394Y791609D01*
X229358Y791700D01*
X229326Y791793D01*
X229298Y791887D01*
X229273Y791982D01*
X229252Y792078D01*
X229235Y792174D01*
X229221Y792271D01*
X229212Y792369D01*
X229206Y792467D01*
X229204Y792565D01*
X229204Y797560D01*
X229206Y797658D01*
X229212Y797756D01*
X229221Y797854D01*
X229235Y797951D01*
X229252Y798047D01*
X229273Y798143D01*
X229298Y798238D01*
X229326Y798332D01*
X229358Y798425D01*
X229394Y798516D01*
X229433Y798606D01*
X229476Y798694D01*
X229523Y798781D01*
X229572Y798865D01*
X229625Y798948D01*
X229681Y799028D01*
X229740Y799107D01*
X229803Y799182D01*
X229868Y799256D01*
X229936Y799326D01*
X230006Y799394D01*
X230080Y799460D01*
X230156Y799522D01*
X230234Y799581D01*
X230314Y799637D01*
X230397Y799690D01*
X230481Y799740D01*
X230568Y799786D01*
X230656Y799829D01*
X230746Y799868D01*
X230837Y799904D01*
X230930Y799936D01*
X231024Y799964D01*
X231119Y799989D01*
X231215Y800010D01*
X231311Y800027D01*
X231408Y800041D01*
X231506Y800050D01*
X231604Y800056D01*
X231702Y800058D01*
X235032Y800058D01*
X241162Y796727D02*
X241162Y793397D01*
X241162Y796727D02*
X241164Y796841D01*
X241170Y796954D01*
X241179Y797068D01*
X241193Y797180D01*
X241210Y797293D01*
X241232Y797405D01*
X241257Y797515D01*
X241285Y797625D01*
X241318Y797734D01*
X241354Y797842D01*
X241394Y797949D01*
X241438Y798054D01*
X241485Y798157D01*
X241535Y798259D01*
X241589Y798359D01*
X241647Y798457D01*
X241708Y798553D01*
X241771Y798647D01*
X241839Y798739D01*
X241909Y798829D01*
X241982Y798915D01*
X242058Y799000D01*
X242137Y799082D01*
X242219Y799161D01*
X242304Y799237D01*
X242390Y799310D01*
X242480Y799380D01*
X242572Y799448D01*
X242666Y799511D01*
X242762Y799572D01*
X242860Y799630D01*
X242960Y799684D01*
X243062Y799734D01*
X243165Y799781D01*
X243270Y799825D01*
X243377Y799865D01*
X243485Y799901D01*
X243594Y799934D01*
X243704Y799962D01*
X243814Y799987D01*
X243926Y800009D01*
X244039Y800026D01*
X244151Y800040D01*
X244265Y800049D01*
X244378Y800055D01*
X244492Y800057D01*
X244606Y800055D01*
X244719Y800049D01*
X244833Y800040D01*
X244945Y800026D01*
X245058Y800009D01*
X245170Y799987D01*
X245280Y799962D01*
X245390Y799934D01*
X245499Y799901D01*
X245607Y799865D01*
X245714Y799825D01*
X245819Y799781D01*
X245922Y799734D01*
X246024Y799684D01*
X246124Y799630D01*
X246222Y799572D01*
X246318Y799511D01*
X246412Y799448D01*
X246504Y799380D01*
X246594Y799310D01*
X246680Y799237D01*
X246765Y799161D01*
X246847Y799082D01*
X246926Y799000D01*
X247002Y798915D01*
X247075Y798829D01*
X247145Y798739D01*
X247213Y798647D01*
X247276Y798553D01*
X247337Y798457D01*
X247395Y798359D01*
X247449Y798259D01*
X247499Y798157D01*
X247546Y798054D01*
X247590Y797949D01*
X247630Y797842D01*
X247666Y797734D01*
X247699Y797625D01*
X247727Y797515D01*
X247752Y797405D01*
X247774Y797293D01*
X247791Y797180D01*
X247805Y797068D01*
X247814Y796954D01*
X247820Y796841D01*
X247822Y796727D01*
X247822Y793397D01*
X247820Y793283D01*
X247814Y793170D01*
X247805Y793056D01*
X247791Y792944D01*
X247774Y792831D01*
X247752Y792719D01*
X247727Y792609D01*
X247699Y792499D01*
X247666Y792390D01*
X247630Y792282D01*
X247590Y792175D01*
X247546Y792070D01*
X247499Y791967D01*
X247449Y791865D01*
X247395Y791765D01*
X247337Y791667D01*
X247276Y791571D01*
X247213Y791477D01*
X247145Y791385D01*
X247075Y791295D01*
X247002Y791209D01*
X246926Y791124D01*
X246847Y791042D01*
X246765Y790963D01*
X246680Y790887D01*
X246594Y790814D01*
X246504Y790744D01*
X246412Y790676D01*
X246318Y790613D01*
X246222Y790552D01*
X246124Y790494D01*
X246024Y790440D01*
X245922Y790390D01*
X245819Y790343D01*
X245714Y790299D01*
X245607Y790259D01*
X245499Y790223D01*
X245390Y790190D01*
X245280Y790162D01*
X245170Y790137D01*
X245058Y790115D01*
X244945Y790098D01*
X244833Y790084D01*
X244719Y790075D01*
X244606Y790069D01*
X244492Y790067D01*
X244378Y790069D01*
X244265Y790075D01*
X244151Y790084D01*
X244039Y790098D01*
X243926Y790115D01*
X243814Y790137D01*
X243704Y790162D01*
X243594Y790190D01*
X243485Y790223D01*
X243377Y790259D01*
X243270Y790299D01*
X243165Y790343D01*
X243062Y790390D01*
X242960Y790440D01*
X242860Y790494D01*
X242762Y790552D01*
X242666Y790613D01*
X242572Y790676D01*
X242480Y790744D01*
X242390Y790814D01*
X242304Y790887D01*
X242219Y790963D01*
X242137Y791042D01*
X242058Y791124D01*
X241982Y791209D01*
X241909Y791295D01*
X241839Y791385D01*
X241771Y791477D01*
X241708Y791571D01*
X241647Y791667D01*
X241589Y791765D01*
X241535Y791865D01*
X241485Y791967D01*
X241438Y792070D01*
X241394Y792175D01*
X241354Y792282D01*
X241318Y792390D01*
X241285Y792499D01*
X241257Y792609D01*
X241232Y792719D01*
X241210Y792831D01*
X241193Y792944D01*
X241179Y793056D01*
X241170Y793170D01*
X241164Y793283D01*
X241162Y793397D01*
X255358Y790067D02*
X255358Y800058D01*
X260353Y800058D01*
X260353Y798393D01*
X268148Y790067D02*
X272311Y790067D01*
X268148Y790067D02*
X268050Y790069D01*
X267952Y790075D01*
X267854Y790084D01*
X267757Y790098D01*
X267661Y790115D01*
X267565Y790136D01*
X267470Y790161D01*
X267376Y790189D01*
X267283Y790221D01*
X267192Y790257D01*
X267102Y790296D01*
X267014Y790339D01*
X266927Y790386D01*
X266843Y790435D01*
X266760Y790488D01*
X266680Y790544D01*
X266602Y790603D01*
X266526Y790666D01*
X266452Y790731D01*
X266382Y790799D01*
X266314Y790869D01*
X266249Y790943D01*
X266186Y791019D01*
X266127Y791097D01*
X266071Y791177D01*
X266018Y791260D01*
X265969Y791344D01*
X265922Y791431D01*
X265879Y791519D01*
X265840Y791609D01*
X265804Y791700D01*
X265772Y791793D01*
X265744Y791887D01*
X265719Y791982D01*
X265698Y792078D01*
X265681Y792174D01*
X265667Y792271D01*
X265658Y792369D01*
X265652Y792467D01*
X265650Y792565D01*
X265650Y796727D01*
X265651Y796727D02*
X265653Y796841D01*
X265659Y796954D01*
X265668Y797068D01*
X265682Y797180D01*
X265699Y797293D01*
X265721Y797405D01*
X265746Y797515D01*
X265774Y797625D01*
X265807Y797734D01*
X265843Y797842D01*
X265883Y797949D01*
X265927Y798054D01*
X265974Y798157D01*
X266024Y798259D01*
X266078Y798359D01*
X266136Y798457D01*
X266197Y798553D01*
X266260Y798647D01*
X266328Y798739D01*
X266398Y798829D01*
X266471Y798915D01*
X266547Y799000D01*
X266626Y799082D01*
X266708Y799161D01*
X266793Y799237D01*
X266879Y799310D01*
X266969Y799380D01*
X267061Y799448D01*
X267155Y799511D01*
X267251Y799572D01*
X267349Y799630D01*
X267449Y799684D01*
X267551Y799734D01*
X267654Y799781D01*
X267759Y799825D01*
X267866Y799865D01*
X267974Y799901D01*
X268083Y799934D01*
X268193Y799962D01*
X268303Y799987D01*
X268415Y800009D01*
X268528Y800026D01*
X268640Y800040D01*
X268754Y800049D01*
X268867Y800055D01*
X268981Y800057D01*
X269095Y800055D01*
X269208Y800049D01*
X269322Y800040D01*
X269434Y800026D01*
X269547Y800009D01*
X269659Y799987D01*
X269769Y799962D01*
X269879Y799934D01*
X269988Y799901D01*
X270096Y799865D01*
X270203Y799825D01*
X270308Y799781D01*
X270411Y799734D01*
X270513Y799684D01*
X270613Y799630D01*
X270711Y799572D01*
X270807Y799511D01*
X270901Y799448D01*
X270993Y799380D01*
X271083Y799310D01*
X271169Y799237D01*
X271254Y799161D01*
X271336Y799082D01*
X271415Y799000D01*
X271491Y798915D01*
X271564Y798829D01*
X271634Y798739D01*
X271702Y798647D01*
X271765Y798553D01*
X271826Y798457D01*
X271884Y798359D01*
X271938Y798259D01*
X271988Y798157D01*
X272035Y798054D01*
X272079Y797949D01*
X272119Y797842D01*
X272155Y797734D01*
X272188Y797625D01*
X272216Y797515D01*
X272241Y797405D01*
X272263Y797293D01*
X272280Y797180D01*
X272294Y797068D01*
X272303Y796954D01*
X272309Y796841D01*
X272311Y796727D01*
X272311Y795062D01*
X265650Y795062D01*
D10*
X457200Y774700D02*
X457200Y0D01*
D11*
X416819Y790067D02*
X413489Y800058D01*
X420150Y800058D02*
X416819Y790067D01*
X426934Y795895D02*
X436925Y795895D01*
X445479Y795895D02*
X449642Y794230D01*
X445479Y795894D02*
X445394Y795930D01*
X445311Y795970D01*
X445230Y796013D01*
X445150Y796060D01*
X445073Y796110D01*
X444997Y796163D01*
X444924Y796219D01*
X444854Y796279D01*
X444786Y796341D01*
X444721Y796406D01*
X444659Y796474D01*
X444599Y796545D01*
X444543Y796618D01*
X444490Y796693D01*
X444440Y796771D01*
X444394Y796850D01*
X444351Y796932D01*
X444311Y797015D01*
X444275Y797100D01*
X444243Y797186D01*
X444214Y797274D01*
X444190Y797363D01*
X444169Y797453D01*
X444152Y797543D01*
X444138Y797634D01*
X444129Y797726D01*
X444124Y797818D01*
X444122Y797910D01*
X444124Y798002D01*
X444131Y798094D01*
X444141Y798186D01*
X444155Y798277D01*
X444173Y798368D01*
X444195Y798457D01*
X444221Y798546D01*
X444251Y798633D01*
X444284Y798719D01*
X444321Y798803D01*
X444361Y798886D01*
X444405Y798967D01*
X444452Y799046D01*
X444503Y799123D01*
X444557Y799198D01*
X444614Y799271D01*
X444674Y799341D01*
X444737Y799408D01*
X444803Y799472D01*
X444871Y799534D01*
X444942Y799593D01*
X445016Y799648D01*
X445092Y799701D01*
X445170Y799750D01*
X445250Y799796D01*
X445331Y799838D01*
X445415Y799877D01*
X445500Y799912D01*
X445587Y799943D01*
X445675Y799971D01*
X445764Y799995D01*
X445854Y800015D01*
X445944Y800032D01*
X446036Y800044D01*
X446128Y800053D01*
X446220Y800057D01*
X446312Y800058D01*
X446539Y800052D01*
X446766Y800041D01*
X446993Y800024D01*
X447219Y800001D01*
X447445Y799974D01*
X447670Y799940D01*
X447894Y799902D01*
X448117Y799858D01*
X448339Y799809D01*
X448560Y799754D01*
X448779Y799694D01*
X448997Y799629D01*
X449213Y799558D01*
X449427Y799483D01*
X449640Y799402D01*
X449850Y799316D01*
X450059Y799225D01*
X449642Y794230D02*
X449727Y794194D01*
X449810Y794154D01*
X449891Y794111D01*
X449971Y794064D01*
X450048Y794014D01*
X450124Y793961D01*
X450197Y793905D01*
X450267Y793845D01*
X450335Y793783D01*
X450400Y793718D01*
X450462Y793650D01*
X450522Y793579D01*
X450578Y793506D01*
X450631Y793431D01*
X450681Y793353D01*
X450727Y793274D01*
X450770Y793192D01*
X450810Y793109D01*
X450846Y793024D01*
X450878Y792938D01*
X450907Y792850D01*
X450931Y792761D01*
X450952Y792671D01*
X450969Y792581D01*
X450983Y792490D01*
X450992Y792398D01*
X450997Y792306D01*
X450999Y792214D01*
X450997Y792122D01*
X450990Y792030D01*
X450980Y791938D01*
X450966Y791847D01*
X450948Y791756D01*
X450926Y791667D01*
X450900Y791578D01*
X450870Y791491D01*
X450837Y791405D01*
X450800Y791321D01*
X450760Y791238D01*
X450716Y791157D01*
X450669Y791078D01*
X450618Y791001D01*
X450564Y790926D01*
X450507Y790853D01*
X450447Y790783D01*
X450384Y790716D01*
X450318Y790652D01*
X450250Y790590D01*
X450179Y790531D01*
X450105Y790476D01*
X450029Y790423D01*
X449951Y790374D01*
X449871Y790328D01*
X449790Y790286D01*
X449706Y790247D01*
X449621Y790212D01*
X449534Y790181D01*
X449446Y790153D01*
X449357Y790129D01*
X449267Y790109D01*
X449177Y790092D01*
X449085Y790080D01*
X448993Y790071D01*
X448901Y790067D01*
X448809Y790066D01*
X448809Y790067D02*
X448475Y790076D01*
X448142Y790093D01*
X447809Y790117D01*
X447476Y790150D01*
X447145Y790190D01*
X446814Y790238D01*
X446485Y790294D01*
X446157Y790357D01*
X445831Y790429D01*
X445507Y790508D01*
X445184Y790594D01*
X444864Y790689D01*
X444546Y790791D01*
X444230Y790900D01*
X460302Y790067D02*
X463632Y790067D01*
X460302Y790067D02*
X460204Y790069D01*
X460106Y790075D01*
X460008Y790084D01*
X459911Y790098D01*
X459815Y790115D01*
X459719Y790136D01*
X459624Y790161D01*
X459530Y790189D01*
X459437Y790221D01*
X459346Y790257D01*
X459256Y790296D01*
X459168Y790339D01*
X459081Y790386D01*
X458997Y790435D01*
X458914Y790488D01*
X458834Y790544D01*
X458756Y790603D01*
X458680Y790666D01*
X458606Y790731D01*
X458536Y790799D01*
X458468Y790869D01*
X458403Y790943D01*
X458340Y791019D01*
X458281Y791097D01*
X458225Y791177D01*
X458172Y791260D01*
X458123Y791344D01*
X458076Y791431D01*
X458033Y791519D01*
X457994Y791609D01*
X457958Y791700D01*
X457926Y791793D01*
X457898Y791887D01*
X457873Y791982D01*
X457852Y792078D01*
X457835Y792174D01*
X457821Y792271D01*
X457812Y792369D01*
X457806Y792467D01*
X457804Y792565D01*
X457804Y797560D01*
X457806Y797658D01*
X457812Y797756D01*
X457821Y797854D01*
X457835Y797951D01*
X457852Y798047D01*
X457873Y798143D01*
X457898Y798238D01*
X457926Y798332D01*
X457958Y798425D01*
X457994Y798516D01*
X458033Y798606D01*
X458076Y798694D01*
X458123Y798781D01*
X458172Y798865D01*
X458225Y798948D01*
X458281Y799028D01*
X458340Y799107D01*
X458403Y799182D01*
X458468Y799256D01*
X458536Y799326D01*
X458606Y799394D01*
X458680Y799460D01*
X458756Y799522D01*
X458834Y799581D01*
X458914Y799637D01*
X458997Y799690D01*
X459081Y799740D01*
X459168Y799786D01*
X459256Y799829D01*
X459346Y799868D01*
X459437Y799904D01*
X459530Y799936D01*
X459624Y799964D01*
X459719Y799989D01*
X459815Y800010D01*
X459911Y800027D01*
X460008Y800041D01*
X460106Y800050D01*
X460204Y800056D01*
X460302Y800058D01*
X463632Y800058D01*
X469762Y796727D02*
X469762Y793397D01*
X469762Y796727D02*
X469764Y796841D01*
X469770Y796954D01*
X469779Y797068D01*
X469793Y797180D01*
X469810Y797293D01*
X469832Y797405D01*
X469857Y797515D01*
X469885Y797625D01*
X469918Y797734D01*
X469954Y797842D01*
X469994Y797949D01*
X470038Y798054D01*
X470085Y798157D01*
X470135Y798259D01*
X470189Y798359D01*
X470247Y798457D01*
X470308Y798553D01*
X470371Y798647D01*
X470439Y798739D01*
X470509Y798829D01*
X470582Y798915D01*
X470658Y799000D01*
X470737Y799082D01*
X470819Y799161D01*
X470904Y799237D01*
X470990Y799310D01*
X471080Y799380D01*
X471172Y799448D01*
X471266Y799511D01*
X471362Y799572D01*
X471460Y799630D01*
X471560Y799684D01*
X471662Y799734D01*
X471765Y799781D01*
X471870Y799825D01*
X471977Y799865D01*
X472085Y799901D01*
X472194Y799934D01*
X472304Y799962D01*
X472414Y799987D01*
X472526Y800009D01*
X472639Y800026D01*
X472751Y800040D01*
X472865Y800049D01*
X472978Y800055D01*
X473092Y800057D01*
X473206Y800055D01*
X473319Y800049D01*
X473433Y800040D01*
X473545Y800026D01*
X473658Y800009D01*
X473770Y799987D01*
X473880Y799962D01*
X473990Y799934D01*
X474099Y799901D01*
X474207Y799865D01*
X474314Y799825D01*
X474419Y799781D01*
X474522Y799734D01*
X474624Y799684D01*
X474724Y799630D01*
X474822Y799572D01*
X474918Y799511D01*
X475012Y799448D01*
X475104Y799380D01*
X475194Y799310D01*
X475280Y799237D01*
X475365Y799161D01*
X475447Y799082D01*
X475526Y799000D01*
X475602Y798915D01*
X475675Y798829D01*
X475745Y798739D01*
X475813Y798647D01*
X475876Y798553D01*
X475937Y798457D01*
X475995Y798359D01*
X476049Y798259D01*
X476099Y798157D01*
X476146Y798054D01*
X476190Y797949D01*
X476230Y797842D01*
X476266Y797734D01*
X476299Y797625D01*
X476327Y797515D01*
X476352Y797405D01*
X476374Y797293D01*
X476391Y797180D01*
X476405Y797068D01*
X476414Y796954D01*
X476420Y796841D01*
X476422Y796727D01*
X476422Y793397D01*
X476420Y793283D01*
X476414Y793170D01*
X476405Y793056D01*
X476391Y792944D01*
X476374Y792831D01*
X476352Y792719D01*
X476327Y792609D01*
X476299Y792499D01*
X476266Y792390D01*
X476230Y792282D01*
X476190Y792175D01*
X476146Y792070D01*
X476099Y791967D01*
X476049Y791865D01*
X475995Y791765D01*
X475937Y791667D01*
X475876Y791571D01*
X475813Y791477D01*
X475745Y791385D01*
X475675Y791295D01*
X475602Y791209D01*
X475526Y791124D01*
X475447Y791042D01*
X475365Y790963D01*
X475280Y790887D01*
X475194Y790814D01*
X475104Y790744D01*
X475012Y790676D01*
X474918Y790613D01*
X474822Y790552D01*
X474724Y790494D01*
X474624Y790440D01*
X474522Y790390D01*
X474419Y790343D01*
X474314Y790299D01*
X474207Y790259D01*
X474099Y790223D01*
X473990Y790190D01*
X473880Y790162D01*
X473770Y790137D01*
X473658Y790115D01*
X473545Y790098D01*
X473433Y790084D01*
X473319Y790075D01*
X473206Y790069D01*
X473092Y790067D01*
X472978Y790069D01*
X472865Y790075D01*
X472751Y790084D01*
X472639Y790098D01*
X472526Y790115D01*
X472414Y790137D01*
X472304Y790162D01*
X472194Y790190D01*
X472085Y790223D01*
X471977Y790259D01*
X471870Y790299D01*
X471765Y790343D01*
X471662Y790390D01*
X471560Y790440D01*
X471460Y790494D01*
X471362Y790552D01*
X471266Y790613D01*
X471172Y790676D01*
X471080Y790744D01*
X470990Y790814D01*
X470904Y790887D01*
X470819Y790963D01*
X470737Y791042D01*
X470658Y791124D01*
X470582Y791209D01*
X470509Y791295D01*
X470439Y791385D01*
X470371Y791477D01*
X470308Y791571D01*
X470247Y791667D01*
X470189Y791765D01*
X470135Y791865D01*
X470085Y791967D01*
X470038Y792070D01*
X469994Y792175D01*
X469954Y792282D01*
X469918Y792390D01*
X469885Y792499D01*
X469857Y792609D01*
X469832Y792719D01*
X469810Y792831D01*
X469793Y792944D01*
X469779Y793056D01*
X469770Y793170D01*
X469764Y793283D01*
X469762Y793397D01*
X483958Y790067D02*
X483958Y800058D01*
X488953Y800058D01*
X488953Y798393D01*
X496748Y790067D02*
X500911Y790067D01*
X496748Y790067D02*
X496650Y790069D01*
X496552Y790075D01*
X496454Y790084D01*
X496357Y790098D01*
X496261Y790115D01*
X496165Y790136D01*
X496070Y790161D01*
X495976Y790189D01*
X495883Y790221D01*
X495792Y790257D01*
X495702Y790296D01*
X495614Y790339D01*
X495527Y790386D01*
X495443Y790435D01*
X495360Y790488D01*
X495280Y790544D01*
X495202Y790603D01*
X495126Y790666D01*
X495052Y790731D01*
X494982Y790799D01*
X494914Y790869D01*
X494849Y790943D01*
X494786Y791019D01*
X494727Y791097D01*
X494671Y791177D01*
X494618Y791260D01*
X494569Y791344D01*
X494522Y791431D01*
X494479Y791519D01*
X494440Y791609D01*
X494404Y791700D01*
X494372Y791793D01*
X494344Y791887D01*
X494319Y791982D01*
X494298Y792078D01*
X494281Y792174D01*
X494267Y792271D01*
X494258Y792369D01*
X494252Y792467D01*
X494250Y792565D01*
X494250Y796727D01*
X494251Y796727D02*
X494253Y796841D01*
X494259Y796954D01*
X494268Y797068D01*
X494282Y797180D01*
X494299Y797293D01*
X494321Y797405D01*
X494346Y797515D01*
X494374Y797625D01*
X494407Y797734D01*
X494443Y797842D01*
X494483Y797949D01*
X494527Y798054D01*
X494574Y798157D01*
X494624Y798259D01*
X494678Y798359D01*
X494736Y798457D01*
X494797Y798553D01*
X494860Y798647D01*
X494928Y798739D01*
X494998Y798829D01*
X495071Y798915D01*
X495147Y799000D01*
X495226Y799082D01*
X495308Y799161D01*
X495393Y799237D01*
X495479Y799310D01*
X495569Y799380D01*
X495661Y799448D01*
X495755Y799511D01*
X495851Y799572D01*
X495949Y799630D01*
X496049Y799684D01*
X496151Y799734D01*
X496254Y799781D01*
X496359Y799825D01*
X496466Y799865D01*
X496574Y799901D01*
X496683Y799934D01*
X496793Y799962D01*
X496903Y799987D01*
X497015Y800009D01*
X497128Y800026D01*
X497240Y800040D01*
X497354Y800049D01*
X497467Y800055D01*
X497581Y800057D01*
X497695Y800055D01*
X497808Y800049D01*
X497922Y800040D01*
X498034Y800026D01*
X498147Y800009D01*
X498259Y799987D01*
X498369Y799962D01*
X498479Y799934D01*
X498588Y799901D01*
X498696Y799865D01*
X498803Y799825D01*
X498908Y799781D01*
X499011Y799734D01*
X499113Y799684D01*
X499213Y799630D01*
X499311Y799572D01*
X499407Y799511D01*
X499501Y799448D01*
X499593Y799380D01*
X499683Y799310D01*
X499769Y799237D01*
X499854Y799161D01*
X499936Y799082D01*
X500015Y799000D01*
X500091Y798915D01*
X500164Y798829D01*
X500234Y798739D01*
X500302Y798647D01*
X500365Y798553D01*
X500426Y798457D01*
X500484Y798359D01*
X500538Y798259D01*
X500588Y798157D01*
X500635Y798054D01*
X500679Y797949D01*
X500719Y797842D01*
X500755Y797734D01*
X500788Y797625D01*
X500816Y797515D01*
X500841Y797405D01*
X500863Y797293D01*
X500880Y797180D01*
X500894Y797068D01*
X500903Y796954D01*
X500909Y796841D01*
X500911Y796727D01*
X500911Y795062D01*
X494250Y795062D01*
D10*
X685800Y774700D02*
X685800Y0D01*
D11*
X645419Y790067D02*
X642089Y800058D01*
X648750Y800058D02*
X645419Y790067D01*
X655534Y795895D02*
X665525Y795895D01*
X674079Y795895D02*
X678242Y794230D01*
X674079Y795894D02*
X673994Y795930D01*
X673911Y795970D01*
X673830Y796013D01*
X673750Y796060D01*
X673673Y796110D01*
X673597Y796163D01*
X673524Y796219D01*
X673454Y796279D01*
X673386Y796341D01*
X673321Y796406D01*
X673259Y796474D01*
X673199Y796545D01*
X673143Y796618D01*
X673090Y796693D01*
X673040Y796771D01*
X672994Y796850D01*
X672951Y796932D01*
X672911Y797015D01*
X672875Y797100D01*
X672843Y797186D01*
X672814Y797274D01*
X672790Y797363D01*
X672769Y797453D01*
X672752Y797543D01*
X672738Y797634D01*
X672729Y797726D01*
X672724Y797818D01*
X672722Y797910D01*
X672724Y798002D01*
X672731Y798094D01*
X672741Y798186D01*
X672755Y798277D01*
X672773Y798368D01*
X672795Y798457D01*
X672821Y798546D01*
X672851Y798633D01*
X672884Y798719D01*
X672921Y798803D01*
X672961Y798886D01*
X673005Y798967D01*
X673052Y799046D01*
X673103Y799123D01*
X673157Y799198D01*
X673214Y799271D01*
X673274Y799341D01*
X673337Y799408D01*
X673403Y799472D01*
X673471Y799534D01*
X673542Y799593D01*
X673616Y799648D01*
X673692Y799701D01*
X673770Y799750D01*
X673850Y799796D01*
X673931Y799838D01*
X674015Y799877D01*
X674100Y799912D01*
X674187Y799943D01*
X674275Y799971D01*
X674364Y799995D01*
X674454Y800015D01*
X674544Y800032D01*
X674636Y800044D01*
X674728Y800053D01*
X674820Y800057D01*
X674912Y800058D01*
X675139Y800052D01*
X675366Y800041D01*
X675593Y800024D01*
X675819Y800001D01*
X676045Y799974D01*
X676270Y799940D01*
X676494Y799902D01*
X676717Y799858D01*
X676939Y799809D01*
X677160Y799754D01*
X677379Y799694D01*
X677597Y799629D01*
X677813Y799558D01*
X678027Y799483D01*
X678240Y799402D01*
X678450Y799316D01*
X678659Y799225D01*
X678242Y794230D02*
X678327Y794194D01*
X678410Y794154D01*
X678491Y794111D01*
X678571Y794064D01*
X678648Y794014D01*
X678724Y793961D01*
X678797Y793905D01*
X678867Y793845D01*
X678935Y793783D01*
X679000Y793718D01*
X679062Y793650D01*
X679122Y793579D01*
X679178Y793506D01*
X679231Y793431D01*
X679281Y793353D01*
X679327Y793274D01*
X679370Y793192D01*
X679410Y793109D01*
X679446Y793024D01*
X679478Y792938D01*
X679507Y792850D01*
X679531Y792761D01*
X679552Y792671D01*
X679569Y792581D01*
X679583Y792490D01*
X679592Y792398D01*
X679597Y792306D01*
X679599Y792214D01*
X679597Y792122D01*
X679590Y792030D01*
X679580Y791938D01*
X679566Y791847D01*
X679548Y791756D01*
X679526Y791667D01*
X679500Y791578D01*
X679470Y791491D01*
X679437Y791405D01*
X679400Y791321D01*
X679360Y791238D01*
X679316Y791157D01*
X679269Y791078D01*
X679218Y791001D01*
X679164Y790926D01*
X679107Y790853D01*
X679047Y790783D01*
X678984Y790716D01*
X678918Y790652D01*
X678850Y790590D01*
X678779Y790531D01*
X678705Y790476D01*
X678629Y790423D01*
X678551Y790374D01*
X678471Y790328D01*
X678390Y790286D01*
X678306Y790247D01*
X678221Y790212D01*
X678134Y790181D01*
X678046Y790153D01*
X677957Y790129D01*
X677867Y790109D01*
X677777Y790092D01*
X677685Y790080D01*
X677593Y790071D01*
X677501Y790067D01*
X677409Y790066D01*
X677409Y790067D02*
X677075Y790076D01*
X676742Y790093D01*
X676409Y790117D01*
X676076Y790150D01*
X675745Y790190D01*
X675414Y790238D01*
X675085Y790294D01*
X674757Y790357D01*
X674431Y790429D01*
X674107Y790508D01*
X673784Y790594D01*
X673464Y790689D01*
X673146Y790791D01*
X672830Y790900D01*
X688902Y790067D02*
X692232Y790067D01*
X688902Y790067D02*
X688804Y790069D01*
X688706Y790075D01*
X688608Y790084D01*
X688511Y790098D01*
X688415Y790115D01*
X688319Y790136D01*
X688224Y790161D01*
X688130Y790189D01*
X688037Y790221D01*
X687946Y790257D01*
X687856Y790296D01*
X687768Y790339D01*
X687681Y790386D01*
X687597Y790435D01*
X687514Y790488D01*
X687434Y790544D01*
X687356Y790603D01*
X687280Y790666D01*
X687206Y790731D01*
X687136Y790799D01*
X687068Y790869D01*
X687003Y790943D01*
X686940Y791019D01*
X686881Y791097D01*
X686825Y791177D01*
X686772Y791260D01*
X686723Y791344D01*
X686676Y791431D01*
X686633Y791519D01*
X686594Y791609D01*
X686558Y791700D01*
X686526Y791793D01*
X686498Y791887D01*
X686473Y791982D01*
X686452Y792078D01*
X686435Y792174D01*
X686421Y792271D01*
X686412Y792369D01*
X686406Y792467D01*
X686404Y792565D01*
X686404Y797560D01*
X686406Y797658D01*
X686412Y797756D01*
X686421Y797854D01*
X686435Y797951D01*
X686452Y798047D01*
X686473Y798143D01*
X686498Y798238D01*
X686526Y798332D01*
X686558Y798425D01*
X686594Y798516D01*
X686633Y798606D01*
X686676Y798694D01*
X686723Y798781D01*
X686772Y798865D01*
X686825Y798948D01*
X686881Y799028D01*
X686940Y799107D01*
X687003Y799182D01*
X687068Y799256D01*
X687136Y799326D01*
X687206Y799394D01*
X687280Y799460D01*
X687356Y799522D01*
X687434Y799581D01*
X687514Y799637D01*
X687597Y799690D01*
X687681Y799740D01*
X687768Y799786D01*
X687856Y799829D01*
X687946Y799868D01*
X688037Y799904D01*
X688130Y799936D01*
X688224Y799964D01*
X688319Y799989D01*
X688415Y800010D01*
X688511Y800027D01*
X688608Y800041D01*
X688706Y800050D01*
X688804Y800056D01*
X688902Y800058D01*
X692232Y800058D01*
X698362Y796727D02*
X698362Y793397D01*
X698362Y796727D02*
X698364Y796841D01*
X698370Y796954D01*
X698379Y797068D01*
X698393Y797180D01*
X698410Y797293D01*
X698432Y797405D01*
X698457Y797515D01*
X698485Y797625D01*
X698518Y797734D01*
X698554Y797842D01*
X698594Y797949D01*
X698638Y798054D01*
X698685Y798157D01*
X698735Y798259D01*
X698789Y798359D01*
X698847Y798457D01*
X698908Y798553D01*
X698971Y798647D01*
X699039Y798739D01*
X699109Y798829D01*
X699182Y798915D01*
X699258Y799000D01*
X699337Y799082D01*
X699419Y799161D01*
X699504Y799237D01*
X699590Y799310D01*
X699680Y799380D01*
X699772Y799448D01*
X699866Y799511D01*
X699962Y799572D01*
X700060Y799630D01*
X700160Y799684D01*
X700262Y799734D01*
X700365Y799781D01*
X700470Y799825D01*
X700577Y799865D01*
X700685Y799901D01*
X700794Y799934D01*
X700904Y799962D01*
X701014Y799987D01*
X701126Y800009D01*
X701239Y800026D01*
X701351Y800040D01*
X701465Y800049D01*
X701578Y800055D01*
X701692Y800057D01*
X701806Y800055D01*
X701919Y800049D01*
X702033Y800040D01*
X702145Y800026D01*
X702258Y800009D01*
X702370Y799987D01*
X702480Y799962D01*
X702590Y799934D01*
X702699Y799901D01*
X702807Y799865D01*
X702914Y799825D01*
X703019Y799781D01*
X703122Y799734D01*
X703224Y799684D01*
X703324Y799630D01*
X703422Y799572D01*
X703518Y799511D01*
X703612Y799448D01*
X703704Y799380D01*
X703794Y799310D01*
X703880Y799237D01*
X703965Y799161D01*
X704047Y799082D01*
X704126Y799000D01*
X704202Y798915D01*
X704275Y798829D01*
X704345Y798739D01*
X704413Y798647D01*
X704476Y798553D01*
X704537Y798457D01*
X704595Y798359D01*
X704649Y798259D01*
X704699Y798157D01*
X704746Y798054D01*
X704790Y797949D01*
X704830Y797842D01*
X704866Y797734D01*
X704899Y797625D01*
X704927Y797515D01*
X704952Y797405D01*
X704974Y797293D01*
X704991Y797180D01*
X705005Y797068D01*
X705014Y796954D01*
X705020Y796841D01*
X705022Y796727D01*
X705022Y793397D01*
X705020Y793283D01*
X705014Y793170D01*
X705005Y793056D01*
X704991Y792944D01*
X704974Y792831D01*
X704952Y792719D01*
X704927Y792609D01*
X704899Y792499D01*
X704866Y792390D01*
X704830Y792282D01*
X704790Y792175D01*
X704746Y792070D01*
X704699Y791967D01*
X704649Y791865D01*
X704595Y791765D01*
X704537Y791667D01*
X704476Y791571D01*
X704413Y791477D01*
X704345Y791385D01*
X704275Y791295D01*
X704202Y791209D01*
X704126Y791124D01*
X704047Y791042D01*
X703965Y790963D01*
X703880Y790887D01*
X703794Y790814D01*
X703704Y790744D01*
X703612Y790676D01*
X703518Y790613D01*
X703422Y790552D01*
X703324Y790494D01*
X703224Y790440D01*
X703122Y790390D01*
X703019Y790343D01*
X702914Y790299D01*
X702807Y790259D01*
X702699Y790223D01*
X702590Y790190D01*
X702480Y790162D01*
X702370Y790137D01*
X702258Y790115D01*
X702145Y790098D01*
X702033Y790084D01*
X701919Y790075D01*
X701806Y790069D01*
X701692Y790067D01*
X701578Y790069D01*
X701465Y790075D01*
X701351Y790084D01*
X701239Y790098D01*
X701126Y790115D01*
X701014Y790137D01*
X700904Y790162D01*
X700794Y790190D01*
X700685Y790223D01*
X700577Y790259D01*
X700470Y790299D01*
X700365Y790343D01*
X700262Y790390D01*
X700160Y790440D01*
X700060Y790494D01*
X699962Y790552D01*
X699866Y790613D01*
X699772Y790676D01*
X699680Y790744D01*
X699590Y790814D01*
X699504Y790887D01*
X699419Y790963D01*
X699337Y791042D01*
X699258Y791124D01*
X699182Y791209D01*
X699109Y791295D01*
X699039Y791385D01*
X698971Y791477D01*
X698908Y791571D01*
X698847Y791667D01*
X698789Y791765D01*
X698735Y791865D01*
X698685Y791967D01*
X698638Y792070D01*
X698594Y792175D01*
X698554Y792282D01*
X698518Y792390D01*
X698485Y792499D01*
X698457Y792609D01*
X698432Y792719D01*
X698410Y792831D01*
X698393Y792944D01*
X698379Y793056D01*
X698370Y793170D01*
X698364Y793283D01*
X698362Y793397D01*
X712558Y790067D02*
X712558Y800058D01*
X717553Y800058D01*
X717553Y798393D01*
X725348Y790067D02*
X729511Y790067D01*
X725348Y790067D02*
X725250Y790069D01*
X725152Y790075D01*
X725054Y790084D01*
X724957Y790098D01*
X724861Y790115D01*
X724765Y790136D01*
X724670Y790161D01*
X724576Y790189D01*
X724483Y790221D01*
X724392Y790257D01*
X724302Y790296D01*
X724214Y790339D01*
X724127Y790386D01*
X724043Y790435D01*
X723960Y790488D01*
X723880Y790544D01*
X723802Y790603D01*
X723726Y790666D01*
X723652Y790731D01*
X723582Y790799D01*
X723514Y790869D01*
X723449Y790943D01*
X723386Y791019D01*
X723327Y791097D01*
X723271Y791177D01*
X723218Y791260D01*
X723169Y791344D01*
X723122Y791431D01*
X723079Y791519D01*
X723040Y791609D01*
X723004Y791700D01*
X722972Y791793D01*
X722944Y791887D01*
X722919Y791982D01*
X722898Y792078D01*
X722881Y792174D01*
X722867Y792271D01*
X722858Y792369D01*
X722852Y792467D01*
X722850Y792565D01*
X722850Y796727D01*
X722851Y796727D02*
X722853Y796841D01*
X722859Y796954D01*
X722868Y797068D01*
X722882Y797180D01*
X722899Y797293D01*
X722921Y797405D01*
X722946Y797515D01*
X722974Y797625D01*
X723007Y797734D01*
X723043Y797842D01*
X723083Y797949D01*
X723127Y798054D01*
X723174Y798157D01*
X723224Y798259D01*
X723278Y798359D01*
X723336Y798457D01*
X723397Y798553D01*
X723460Y798647D01*
X723528Y798739D01*
X723598Y798829D01*
X723671Y798915D01*
X723747Y799000D01*
X723826Y799082D01*
X723908Y799161D01*
X723993Y799237D01*
X724079Y799310D01*
X724169Y799380D01*
X724261Y799448D01*
X724355Y799511D01*
X724451Y799572D01*
X724549Y799630D01*
X724649Y799684D01*
X724751Y799734D01*
X724854Y799781D01*
X724959Y799825D01*
X725066Y799865D01*
X725174Y799901D01*
X725283Y799934D01*
X725393Y799962D01*
X725503Y799987D01*
X725615Y800009D01*
X725728Y800026D01*
X725840Y800040D01*
X725954Y800049D01*
X726067Y800055D01*
X726181Y800057D01*
X726295Y800055D01*
X726408Y800049D01*
X726522Y800040D01*
X726634Y800026D01*
X726747Y800009D01*
X726859Y799987D01*
X726969Y799962D01*
X727079Y799934D01*
X727188Y799901D01*
X727296Y799865D01*
X727403Y799825D01*
X727508Y799781D01*
X727611Y799734D01*
X727713Y799684D01*
X727813Y799630D01*
X727911Y799572D01*
X728007Y799511D01*
X728101Y799448D01*
X728193Y799380D01*
X728283Y799310D01*
X728369Y799237D01*
X728454Y799161D01*
X728536Y799082D01*
X728615Y799000D01*
X728691Y798915D01*
X728764Y798829D01*
X728834Y798739D01*
X728902Y798647D01*
X728965Y798553D01*
X729026Y798457D01*
X729084Y798359D01*
X729138Y798259D01*
X729188Y798157D01*
X729235Y798054D01*
X729279Y797949D01*
X729319Y797842D01*
X729355Y797734D01*
X729388Y797625D01*
X729416Y797515D01*
X729441Y797405D01*
X729463Y797293D01*
X729480Y797180D01*
X729494Y797068D01*
X729503Y796954D01*
X729509Y796841D01*
X729511Y796727D01*
X729511Y795062D01*
X722850Y795062D01*
D10*
X977900Y355600D02*
X0Y355600D01*
D11*
X1010389Y358098D02*
X1013719Y348107D01*
X1017050Y358098D01*
X1023834Y353935D02*
X1033825Y353935D01*
X1042379Y353935D02*
X1046542Y352270D01*
X1042379Y353934D02*
X1042294Y353970D01*
X1042211Y354010D01*
X1042130Y354053D01*
X1042050Y354100D01*
X1041973Y354150D01*
X1041897Y354203D01*
X1041824Y354259D01*
X1041754Y354319D01*
X1041686Y354381D01*
X1041621Y354446D01*
X1041559Y354514D01*
X1041499Y354585D01*
X1041443Y354658D01*
X1041390Y354733D01*
X1041340Y354811D01*
X1041294Y354890D01*
X1041251Y354972D01*
X1041211Y355055D01*
X1041175Y355140D01*
X1041143Y355226D01*
X1041114Y355314D01*
X1041090Y355403D01*
X1041069Y355493D01*
X1041052Y355583D01*
X1041038Y355674D01*
X1041029Y355766D01*
X1041024Y355858D01*
X1041022Y355950D01*
X1041024Y356042D01*
X1041031Y356134D01*
X1041041Y356226D01*
X1041055Y356317D01*
X1041073Y356408D01*
X1041095Y356497D01*
X1041121Y356586D01*
X1041151Y356673D01*
X1041184Y356759D01*
X1041221Y356843D01*
X1041261Y356926D01*
X1041305Y357007D01*
X1041352Y357086D01*
X1041403Y357163D01*
X1041457Y357238D01*
X1041514Y357311D01*
X1041574Y357381D01*
X1041637Y357448D01*
X1041703Y357512D01*
X1041771Y357574D01*
X1041842Y357633D01*
X1041916Y357688D01*
X1041992Y357741D01*
X1042070Y357790D01*
X1042150Y357836D01*
X1042231Y357878D01*
X1042315Y357917D01*
X1042400Y357952D01*
X1042487Y357983D01*
X1042575Y358011D01*
X1042664Y358035D01*
X1042754Y358055D01*
X1042844Y358072D01*
X1042936Y358084D01*
X1043028Y358093D01*
X1043120Y358097D01*
X1043212Y358098D01*
X1043439Y358092D01*
X1043666Y358081D01*
X1043893Y358064D01*
X1044119Y358041D01*
X1044345Y358014D01*
X1044570Y357980D01*
X1044794Y357942D01*
X1045017Y357898D01*
X1045239Y357849D01*
X1045460Y357794D01*
X1045679Y357734D01*
X1045897Y357669D01*
X1046113Y357598D01*
X1046327Y357523D01*
X1046540Y357442D01*
X1046750Y357356D01*
X1046959Y357265D01*
X1046542Y352270D02*
X1046627Y352234D01*
X1046710Y352194D01*
X1046791Y352151D01*
X1046871Y352104D01*
X1046948Y352054D01*
X1047024Y352001D01*
X1047097Y351945D01*
X1047167Y351885D01*
X1047235Y351823D01*
X1047300Y351758D01*
X1047362Y351690D01*
X1047422Y351619D01*
X1047478Y351546D01*
X1047531Y351471D01*
X1047581Y351393D01*
X1047627Y351314D01*
X1047670Y351232D01*
X1047710Y351149D01*
X1047746Y351064D01*
X1047778Y350978D01*
X1047807Y350890D01*
X1047831Y350801D01*
X1047852Y350711D01*
X1047869Y350621D01*
X1047883Y350530D01*
X1047892Y350438D01*
X1047897Y350346D01*
X1047899Y350254D01*
X1047897Y350162D01*
X1047890Y350070D01*
X1047880Y349978D01*
X1047866Y349887D01*
X1047848Y349796D01*
X1047826Y349707D01*
X1047800Y349618D01*
X1047770Y349531D01*
X1047737Y349445D01*
X1047700Y349361D01*
X1047660Y349278D01*
X1047616Y349197D01*
X1047569Y349118D01*
X1047518Y349041D01*
X1047464Y348966D01*
X1047407Y348893D01*
X1047347Y348823D01*
X1047284Y348756D01*
X1047218Y348692D01*
X1047150Y348630D01*
X1047079Y348571D01*
X1047005Y348516D01*
X1046929Y348463D01*
X1046851Y348414D01*
X1046771Y348368D01*
X1046690Y348326D01*
X1046606Y348287D01*
X1046521Y348252D01*
X1046434Y348221D01*
X1046346Y348193D01*
X1046257Y348169D01*
X1046167Y348149D01*
X1046077Y348132D01*
X1045985Y348120D01*
X1045893Y348111D01*
X1045801Y348107D01*
X1045709Y348106D01*
X1045709Y348107D02*
X1045375Y348116D01*
X1045042Y348133D01*
X1044709Y348157D01*
X1044376Y348190D01*
X1044045Y348230D01*
X1043714Y348278D01*
X1043385Y348334D01*
X1043057Y348397D01*
X1042731Y348469D01*
X1042407Y348548D01*
X1042084Y348634D01*
X1041764Y348729D01*
X1041446Y348831D01*
X1041130Y348940D01*
X1057202Y348107D02*
X1060532Y348107D01*
X1057202Y348107D02*
X1057104Y348109D01*
X1057006Y348115D01*
X1056908Y348124D01*
X1056811Y348138D01*
X1056715Y348155D01*
X1056619Y348176D01*
X1056524Y348201D01*
X1056430Y348229D01*
X1056337Y348261D01*
X1056246Y348297D01*
X1056156Y348336D01*
X1056068Y348379D01*
X1055981Y348426D01*
X1055897Y348475D01*
X1055814Y348528D01*
X1055734Y348584D01*
X1055656Y348643D01*
X1055580Y348706D01*
X1055506Y348771D01*
X1055436Y348839D01*
X1055368Y348909D01*
X1055303Y348983D01*
X1055240Y349059D01*
X1055181Y349137D01*
X1055125Y349217D01*
X1055072Y349300D01*
X1055023Y349384D01*
X1054976Y349471D01*
X1054933Y349559D01*
X1054894Y349649D01*
X1054858Y349740D01*
X1054826Y349833D01*
X1054798Y349927D01*
X1054773Y350022D01*
X1054752Y350118D01*
X1054735Y350214D01*
X1054721Y350311D01*
X1054712Y350409D01*
X1054706Y350507D01*
X1054704Y350605D01*
X1054704Y355600D01*
X1054706Y355698D01*
X1054712Y355796D01*
X1054721Y355894D01*
X1054735Y355991D01*
X1054752Y356087D01*
X1054773Y356183D01*
X1054798Y356278D01*
X1054826Y356372D01*
X1054858Y356465D01*
X1054894Y356556D01*
X1054933Y356646D01*
X1054976Y356734D01*
X1055023Y356821D01*
X1055072Y356905D01*
X1055125Y356988D01*
X1055181Y357068D01*
X1055240Y357147D01*
X1055303Y357222D01*
X1055368Y357296D01*
X1055436Y357366D01*
X1055506Y357434D01*
X1055580Y357500D01*
X1055656Y357562D01*
X1055734Y357621D01*
X1055814Y357677D01*
X1055897Y357730D01*
X1055981Y357780D01*
X1056068Y357826D01*
X1056156Y357869D01*
X1056246Y357908D01*
X1056337Y357944D01*
X1056430Y357976D01*
X1056524Y358004D01*
X1056619Y358029D01*
X1056715Y358050D01*
X1056811Y358067D01*
X1056908Y358081D01*
X1057006Y358090D01*
X1057104Y358096D01*
X1057202Y358098D01*
X1060532Y358098D01*
X1066662Y354767D02*
X1066662Y351437D01*
X1066662Y354767D02*
X1066664Y354881D01*
X1066670Y354994D01*
X1066679Y355108D01*
X1066693Y355220D01*
X1066710Y355333D01*
X1066732Y355445D01*
X1066757Y355555D01*
X1066785Y355665D01*
X1066818Y355774D01*
X1066854Y355882D01*
X1066894Y355989D01*
X1066938Y356094D01*
X1066985Y356197D01*
X1067035Y356299D01*
X1067089Y356399D01*
X1067147Y356497D01*
X1067208Y356593D01*
X1067271Y356687D01*
X1067339Y356779D01*
X1067409Y356869D01*
X1067482Y356955D01*
X1067558Y357040D01*
X1067637Y357122D01*
X1067719Y357201D01*
X1067804Y357277D01*
X1067890Y357350D01*
X1067980Y357420D01*
X1068072Y357488D01*
X1068166Y357551D01*
X1068262Y357612D01*
X1068360Y357670D01*
X1068460Y357724D01*
X1068562Y357774D01*
X1068665Y357821D01*
X1068770Y357865D01*
X1068877Y357905D01*
X1068985Y357941D01*
X1069094Y357974D01*
X1069204Y358002D01*
X1069314Y358027D01*
X1069426Y358049D01*
X1069539Y358066D01*
X1069651Y358080D01*
X1069765Y358089D01*
X1069878Y358095D01*
X1069992Y358097D01*
X1070106Y358095D01*
X1070219Y358089D01*
X1070333Y358080D01*
X1070445Y358066D01*
X1070558Y358049D01*
X1070670Y358027D01*
X1070780Y358002D01*
X1070890Y357974D01*
X1070999Y357941D01*
X1071107Y357905D01*
X1071214Y357865D01*
X1071319Y357821D01*
X1071422Y357774D01*
X1071524Y357724D01*
X1071624Y357670D01*
X1071722Y357612D01*
X1071818Y357551D01*
X1071912Y357488D01*
X1072004Y357420D01*
X1072094Y357350D01*
X1072180Y357277D01*
X1072265Y357201D01*
X1072347Y357122D01*
X1072426Y357040D01*
X1072502Y356955D01*
X1072575Y356869D01*
X1072645Y356779D01*
X1072713Y356687D01*
X1072776Y356593D01*
X1072837Y356497D01*
X1072895Y356399D01*
X1072949Y356299D01*
X1072999Y356197D01*
X1073046Y356094D01*
X1073090Y355989D01*
X1073130Y355882D01*
X1073166Y355774D01*
X1073199Y355665D01*
X1073227Y355555D01*
X1073252Y355445D01*
X1073274Y355333D01*
X1073291Y355220D01*
X1073305Y355108D01*
X1073314Y354994D01*
X1073320Y354881D01*
X1073322Y354767D01*
X1073322Y351437D01*
X1073320Y351323D01*
X1073314Y351210D01*
X1073305Y351096D01*
X1073291Y350984D01*
X1073274Y350871D01*
X1073252Y350759D01*
X1073227Y350649D01*
X1073199Y350539D01*
X1073166Y350430D01*
X1073130Y350322D01*
X1073090Y350215D01*
X1073046Y350110D01*
X1072999Y350007D01*
X1072949Y349905D01*
X1072895Y349805D01*
X1072837Y349707D01*
X1072776Y349611D01*
X1072713Y349517D01*
X1072645Y349425D01*
X1072575Y349335D01*
X1072502Y349249D01*
X1072426Y349164D01*
X1072347Y349082D01*
X1072265Y349003D01*
X1072180Y348927D01*
X1072094Y348854D01*
X1072004Y348784D01*
X1071912Y348716D01*
X1071818Y348653D01*
X1071722Y348592D01*
X1071624Y348534D01*
X1071524Y348480D01*
X1071422Y348430D01*
X1071319Y348383D01*
X1071214Y348339D01*
X1071107Y348299D01*
X1070999Y348263D01*
X1070890Y348230D01*
X1070780Y348202D01*
X1070670Y348177D01*
X1070558Y348155D01*
X1070445Y348138D01*
X1070333Y348124D01*
X1070219Y348115D01*
X1070106Y348109D01*
X1069992Y348107D01*
X1069878Y348109D01*
X1069765Y348115D01*
X1069651Y348124D01*
X1069539Y348138D01*
X1069426Y348155D01*
X1069314Y348177D01*
X1069204Y348202D01*
X1069094Y348230D01*
X1068985Y348263D01*
X1068877Y348299D01*
X1068770Y348339D01*
X1068665Y348383D01*
X1068562Y348430D01*
X1068460Y348480D01*
X1068360Y348534D01*
X1068262Y348592D01*
X1068166Y348653D01*
X1068072Y348716D01*
X1067980Y348784D01*
X1067890Y348854D01*
X1067804Y348927D01*
X1067719Y349003D01*
X1067637Y349082D01*
X1067558Y349164D01*
X1067482Y349249D01*
X1067409Y349335D01*
X1067339Y349425D01*
X1067271Y349517D01*
X1067208Y349611D01*
X1067147Y349707D01*
X1067089Y349805D01*
X1067035Y349905D01*
X1066985Y350007D01*
X1066938Y350110D01*
X1066894Y350215D01*
X1066854Y350322D01*
X1066818Y350430D01*
X1066785Y350539D01*
X1066757Y350649D01*
X1066732Y350759D01*
X1066710Y350871D01*
X1066693Y350984D01*
X1066679Y351096D01*
X1066670Y351210D01*
X1066664Y351323D01*
X1066662Y351437D01*
X1080858Y348107D02*
X1080858Y358098D01*
X1085853Y358098D01*
X1085853Y356433D01*
X1093648Y348107D02*
X1097811Y348107D01*
X1093648Y348107D02*
X1093550Y348109D01*
X1093452Y348115D01*
X1093354Y348124D01*
X1093257Y348138D01*
X1093161Y348155D01*
X1093065Y348176D01*
X1092970Y348201D01*
X1092876Y348229D01*
X1092783Y348261D01*
X1092692Y348297D01*
X1092602Y348336D01*
X1092514Y348379D01*
X1092427Y348426D01*
X1092343Y348475D01*
X1092260Y348528D01*
X1092180Y348584D01*
X1092102Y348643D01*
X1092026Y348706D01*
X1091952Y348771D01*
X1091882Y348839D01*
X1091814Y348909D01*
X1091749Y348983D01*
X1091686Y349059D01*
X1091627Y349137D01*
X1091571Y349217D01*
X1091518Y349300D01*
X1091469Y349384D01*
X1091422Y349471D01*
X1091379Y349559D01*
X1091340Y349649D01*
X1091304Y349740D01*
X1091272Y349833D01*
X1091244Y349927D01*
X1091219Y350022D01*
X1091198Y350118D01*
X1091181Y350214D01*
X1091167Y350311D01*
X1091158Y350409D01*
X1091152Y350507D01*
X1091150Y350605D01*
X1091150Y354767D01*
X1091151Y354767D02*
X1091153Y354881D01*
X1091159Y354994D01*
X1091168Y355108D01*
X1091182Y355220D01*
X1091199Y355333D01*
X1091221Y355445D01*
X1091246Y355555D01*
X1091274Y355665D01*
X1091307Y355774D01*
X1091343Y355882D01*
X1091383Y355989D01*
X1091427Y356094D01*
X1091474Y356197D01*
X1091524Y356299D01*
X1091578Y356399D01*
X1091636Y356497D01*
X1091697Y356593D01*
X1091760Y356687D01*
X1091828Y356779D01*
X1091898Y356869D01*
X1091971Y356955D01*
X1092047Y357040D01*
X1092126Y357122D01*
X1092208Y357201D01*
X1092293Y357277D01*
X1092379Y357350D01*
X1092469Y357420D01*
X1092561Y357488D01*
X1092655Y357551D01*
X1092751Y357612D01*
X1092849Y357670D01*
X1092949Y357724D01*
X1093051Y357774D01*
X1093154Y357821D01*
X1093259Y357865D01*
X1093366Y357905D01*
X1093474Y357941D01*
X1093583Y357974D01*
X1093693Y358002D01*
X1093803Y358027D01*
X1093915Y358049D01*
X1094028Y358066D01*
X1094140Y358080D01*
X1094254Y358089D01*
X1094367Y358095D01*
X1094481Y358097D01*
X1094595Y358095D01*
X1094708Y358089D01*
X1094822Y358080D01*
X1094934Y358066D01*
X1095047Y358049D01*
X1095159Y358027D01*
X1095269Y358002D01*
X1095379Y357974D01*
X1095488Y357941D01*
X1095596Y357905D01*
X1095703Y357865D01*
X1095808Y357821D01*
X1095911Y357774D01*
X1096013Y357724D01*
X1096113Y357670D01*
X1096211Y357612D01*
X1096307Y357551D01*
X1096401Y357488D01*
X1096493Y357420D01*
X1096583Y357350D01*
X1096669Y357277D01*
X1096754Y357201D01*
X1096836Y357122D01*
X1096915Y357040D01*
X1096991Y356955D01*
X1097064Y356869D01*
X1097134Y356779D01*
X1097202Y356687D01*
X1097265Y356593D01*
X1097326Y356497D01*
X1097384Y356399D01*
X1097438Y356299D01*
X1097488Y356197D01*
X1097535Y356094D01*
X1097579Y355989D01*
X1097619Y355882D01*
X1097655Y355774D01*
X1097688Y355665D01*
X1097716Y355555D01*
X1097741Y355445D01*
X1097763Y355333D01*
X1097780Y355220D01*
X1097794Y355108D01*
X1097803Y354994D01*
X1097809Y354881D01*
X1097811Y354767D01*
X1097811Y353102D01*
X1091150Y353102D01*
D12*
X0Y0D02*
X914400Y0D01*
X914400Y711200D01*
X685800Y711200D01*
X685800Y355600D01*
X457200Y355600D01*
X457200Y711200D01*
X228600Y711200D01*
X228600Y355600D01*
X0Y355600D01*
X0Y0D01*
X723900Y584200D02*
X876300Y584200D01*
X877407Y584248D01*
X878505Y584393D01*
X879587Y584633D01*
X880644Y584966D01*
X881667Y585390D01*
X882650Y585901D01*
X883584Y586497D01*
X884463Y587171D01*
X885280Y587920D01*
X886029Y588737D01*
X886703Y589616D01*
X887299Y590550D01*
X887810Y591533D01*
X888234Y592556D01*
X888567Y593613D01*
X888807Y594695D01*
X888952Y595793D01*
X889000Y596900D01*
X888952Y598007D01*
X888807Y599105D01*
X888567Y600187D01*
X888234Y601244D01*
X887810Y602267D01*
X887299Y603250D01*
X886703Y604184D01*
X886029Y605063D01*
X885280Y605880D01*
X884463Y606629D01*
X883584Y607303D01*
X882650Y607899D01*
X881667Y608410D01*
X880644Y608834D01*
X879587Y609167D01*
X878505Y609407D01*
X877407Y609552D01*
X876300Y609600D01*
X723900Y609600D01*
X722793Y609552D01*
X721695Y609407D01*
X720613Y609167D01*
X719556Y608834D01*
X718533Y608410D01*
X717550Y607899D01*
X716616Y607303D01*
X715737Y606629D01*
X714920Y605880D01*
X714171Y605063D01*
X713497Y604184D01*
X712901Y603250D01*
X712390Y602267D01*
X711966Y601244D01*
X711633Y600187D01*
X711393Y599105D01*
X711248Y598007D01*
X711200Y596900D01*
X711248Y595793D01*
X711393Y594695D01*
X711633Y593613D01*
X711966Y592556D01*
X712390Y591533D01*
X712901Y590550D01*
X713497Y589616D01*
X714171Y588737D01*
X714920Y587920D01*
X715737Y587171D01*
X716616Y586497D01*
X717550Y585901D01*
X718533Y585390D01*
X719556Y584966D01*
X720613Y584633D01*
X721695Y584393D01*
X722793Y584248D01*
X723900Y584200D01*
X495300Y584200D02*
X647700Y584200D01*
X648807Y584248D01*
X649905Y584393D01*
X650987Y584633D01*
X652044Y584966D01*
X653067Y585390D01*
X654050Y585901D01*
X654984Y586497D01*
X655863Y587171D01*
X656680Y587920D01*
X657429Y588737D01*
X658103Y589616D01*
X658699Y590550D01*
X659210Y591533D01*
X659634Y592556D01*
X659967Y593613D01*
X660207Y594695D01*
X660352Y595793D01*
X660400Y596900D01*
X660352Y598007D01*
X660207Y599105D01*
X659967Y600187D01*
X659634Y601244D01*
X659210Y602267D01*
X658699Y603250D01*
X658103Y604184D01*
X657429Y605063D01*
X656680Y605880D01*
X655863Y606629D01*
X654984Y607303D01*
X654050Y607899D01*
X653067Y608410D01*
X652044Y608834D01*
X650987Y609167D01*
X649905Y609407D01*
X648807Y609552D01*
X647700Y609600D01*
X495300Y609600D01*
X494193Y609552D01*
X493095Y609407D01*
X492013Y609167D01*
X490956Y608834D01*
X489933Y608410D01*
X488950Y607899D01*
X488016Y607303D01*
X487137Y606629D01*
X486320Y605880D01*
X485571Y605063D01*
X484897Y604184D01*
X484301Y603250D01*
X483790Y602267D01*
X483366Y601244D01*
X483033Y600187D01*
X482793Y599105D01*
X482648Y598007D01*
X482600Y596900D01*
X482648Y595793D01*
X482793Y594695D01*
X483033Y593613D01*
X483366Y592556D01*
X483790Y591533D01*
X484301Y590550D01*
X484897Y589616D01*
X485571Y588737D01*
X486320Y587920D01*
X487137Y587171D01*
X488016Y586497D01*
X488950Y585901D01*
X489933Y585390D01*
X490956Y584966D01*
X492013Y584633D01*
X493095Y584393D01*
X494193Y584248D01*
X495300Y584200D01*
X266700Y584200D02*
X419100Y584200D01*
X420207Y584248D01*
X421305Y584393D01*
X422387Y584633D01*
X423444Y584966D01*
X424467Y585390D01*
X425450Y585901D01*
X426384Y586497D01*
X427263Y587171D01*
X428080Y587920D01*
X428829Y588737D01*
X429503Y589616D01*
X430099Y590550D01*
X430610Y591533D01*
X431034Y592556D01*
X431367Y593613D01*
X431607Y594695D01*
X431752Y595793D01*
X431800Y596900D01*
X431752Y598007D01*
X431607Y599105D01*
X431367Y600187D01*
X431034Y601244D01*
X430610Y602267D01*
X430099Y603250D01*
X429503Y604184D01*
X428829Y605063D01*
X428080Y605880D01*
X427263Y606629D01*
X426384Y607303D01*
X425450Y607899D01*
X424467Y608410D01*
X423444Y608834D01*
X422387Y609167D01*
X421305Y609407D01*
X420207Y609552D01*
X419100Y609600D01*
X266700Y609600D01*
X265593Y609552D01*
X264495Y609407D01*
X263413Y609167D01*
X262356Y608834D01*
X261333Y608410D01*
X260350Y607899D01*
X259416Y607303D01*
X258537Y606629D01*
X257720Y605880D01*
X256971Y605063D01*
X256297Y604184D01*
X255701Y603250D01*
X255190Y602267D01*
X254766Y601244D01*
X254433Y600187D01*
X254193Y599105D01*
X254048Y598007D01*
X254000Y596900D01*
X254048Y595793D01*
X254193Y594695D01*
X254433Y593613D01*
X254766Y592556D01*
X255190Y591533D01*
X255701Y590550D01*
X256297Y589616D01*
X256971Y588737D01*
X257720Y587920D01*
X258537Y587171D01*
X259416Y586497D01*
X260350Y585901D01*
X261333Y585390D01*
X262356Y584966D01*
X263413Y584633D01*
X264495Y584393D01*
X265593Y584248D01*
X266700Y584200D01*
X38100Y584200D02*
X190500Y584200D01*
X191607Y584248D01*
X192705Y584393D01*
X193787Y584633D01*
X194844Y584966D01*
X195867Y585390D01*
X196850Y585901D01*
X197784Y586497D01*
X198663Y587171D01*
X199480Y587920D01*
X200229Y588737D01*
X200903Y589616D01*
X201499Y590550D01*
X202010Y591533D01*
X202434Y592556D01*
X202767Y593613D01*
X203007Y594695D01*
X203152Y595793D01*
X203200Y596900D01*
X203152Y598007D01*
X203007Y599105D01*
X202767Y600187D01*
X202434Y601244D01*
X202010Y602267D01*
X201499Y603250D01*
X200903Y604184D01*
X200229Y605063D01*
X199480Y605880D01*
X198663Y606629D01*
X197784Y607303D01*
X196850Y607899D01*
X195867Y608410D01*
X194844Y608834D01*
X193787Y609167D01*
X192705Y609407D01*
X191607Y609552D01*
X190500Y609600D01*
X38100Y609600D01*
X36993Y609552D01*
X35895Y609407D01*
X34813Y609167D01*
X33756Y608834D01*
X32733Y608410D01*
X31750Y607899D01*
X30816Y607303D01*
X29937Y606629D01*
X29120Y605880D01*
X28371Y605063D01*
X27697Y604184D01*
X27101Y603250D01*
X26590Y602267D01*
X26166Y601244D01*
X25833Y600187D01*
X25593Y599105D01*
X25448Y598007D01*
X25400Y596900D01*
X25448Y595793D01*
X25593Y594695D01*
X25833Y593613D01*
X26166Y592556D01*
X26590Y591533D01*
X27101Y590550D01*
X27697Y589616D01*
X28371Y588737D01*
X29120Y587920D01*
X29937Y587171D01*
X30816Y586497D01*
X31750Y585901D01*
X32733Y585390D01*
X33756Y584966D01*
X34813Y584633D01*
X35895Y584393D01*
X36993Y584248D01*
X38100Y584200D01*
X723900Y228600D02*
X876300Y228600D01*
X877407Y228648D01*
X878505Y228793D01*
X879587Y229033D01*
X880644Y229366D01*
X881667Y229790D01*
X882650Y230301D01*
X883584Y230897D01*
X884463Y231571D01*
X885280Y232320D01*
X886029Y233137D01*
X886703Y234016D01*
X887299Y234950D01*
X887810Y235933D01*
X888234Y236956D01*
X888567Y238013D01*
X888807Y239095D01*
X888952Y240193D01*
X889000Y241300D01*
X888952Y242407D01*
X888807Y243505D01*
X888567Y244587D01*
X888234Y245644D01*
X887810Y246667D01*
X887299Y247650D01*
X886703Y248584D01*
X886029Y249463D01*
X885280Y250280D01*
X884463Y251029D01*
X883584Y251703D01*
X882650Y252299D01*
X881667Y252810D01*
X880644Y253234D01*
X879587Y253567D01*
X878505Y253807D01*
X877407Y253952D01*
X876300Y254000D01*
X723900Y254000D01*
X722793Y253952D01*
X721695Y253807D01*
X720613Y253567D01*
X719556Y253234D01*
X718533Y252810D01*
X717550Y252299D01*
X716616Y251703D01*
X715737Y251029D01*
X714920Y250280D01*
X714171Y249463D01*
X713497Y248584D01*
X712901Y247650D01*
X712390Y246667D01*
X711966Y245644D01*
X711633Y244587D01*
X711393Y243505D01*
X711248Y242407D01*
X711200Y241300D01*
X711248Y240193D01*
X711393Y239095D01*
X711633Y238013D01*
X711966Y236956D01*
X712390Y235933D01*
X712901Y234950D01*
X713497Y234016D01*
X714171Y233137D01*
X714920Y232320D01*
X715737Y231571D01*
X716616Y230897D01*
X717550Y230301D01*
X718533Y229790D01*
X719556Y229366D01*
X720613Y229033D01*
X721695Y228793D01*
X722793Y228648D01*
X723900Y228600D01*
X495300Y228600D02*
X647700Y228600D01*
X648807Y228648D01*
X649905Y228793D01*
X650987Y229033D01*
X652044Y229366D01*
X653067Y229790D01*
X654050Y230301D01*
X654984Y230897D01*
X655863Y231571D01*
X656680Y232320D01*
X657429Y233137D01*
X658103Y234016D01*
X658699Y234950D01*
X659210Y235933D01*
X659634Y236956D01*
X659967Y238013D01*
X660207Y239095D01*
X660352Y240193D01*
X660400Y241300D01*
X660352Y242407D01*
X660207Y243505D01*
X659967Y244587D01*
X659634Y245644D01*
X659210Y246667D01*
X658699Y247650D01*
X658103Y248584D01*
X657429Y249463D01*
X656680Y250280D01*
X655863Y251029D01*
X654984Y251703D01*
X654050Y252299D01*
X653067Y252810D01*
X652044Y253234D01*
X650987Y253567D01*
X649905Y253807D01*
X648807Y253952D01*
X647700Y254000D01*
X495300Y254000D01*
X494193Y253952D01*
X493095Y253807D01*
X492013Y253567D01*
X490956Y253234D01*
X489933Y252810D01*
X488950Y252299D01*
X488016Y251703D01*
X487137Y251029D01*
X486320Y250280D01*
X485571Y249463D01*
X484897Y248584D01*
X484301Y247650D01*
X483790Y246667D01*
X483366Y245644D01*
X483033Y244587D01*
X482793Y243505D01*
X482648Y242407D01*
X482600Y241300D01*
X482648Y240193D01*
X482793Y239095D01*
X483033Y238013D01*
X483366Y236956D01*
X483790Y235933D01*
X484301Y234950D01*
X484897Y234016D01*
X485571Y233137D01*
X486320Y232320D01*
X487137Y231571D01*
X488016Y230897D01*
X488950Y230301D01*
X489933Y229790D01*
X490956Y229366D01*
X492013Y229033D01*
X493095Y228793D01*
X494193Y228648D01*
X495300Y228600D01*
X38100Y228600D02*
X190500Y228600D01*
X191607Y228648D01*
X192705Y228793D01*
X193787Y229033D01*
X194844Y229366D01*
X195867Y229790D01*
X196850Y230301D01*
X197784Y230897D01*
X198663Y231571D01*
X199480Y232320D01*
X200229Y233137D01*
X200903Y234016D01*
X201499Y234950D01*
X202010Y235933D01*
X202434Y236956D01*
X202767Y238013D01*
X203007Y239095D01*
X203152Y240193D01*
X203200Y241300D01*
X203152Y242407D01*
X203007Y243505D01*
X202767Y244587D01*
X202434Y245644D01*
X202010Y246667D01*
X201499Y247650D01*
X200903Y248584D01*
X200229Y249463D01*
X199480Y250280D01*
X198663Y251029D01*
X197784Y251703D01*
X196850Y252299D01*
X195867Y252810D01*
X194844Y253234D01*
X193787Y253567D01*
X192705Y253807D01*
X191607Y253952D01*
X190500Y254000D01*
X38100Y254000D01*
X36993Y253952D01*
X35895Y253807D01*
X34813Y253567D01*
X33756Y253234D01*
X32733Y252810D01*
X31750Y252299D01*
X30816Y251703D01*
X29937Y251029D01*
X29120Y250280D01*
X28371Y249463D01*
X27697Y248584D01*
X27101Y247650D01*
X26590Y246667D01*
X26166Y245644D01*
X25833Y244587D01*
X25593Y243505D01*
X25448Y242407D01*
X25400Y241300D01*
X25448Y240193D01*
X25593Y239095D01*
X25833Y238013D01*
X26166Y236956D01*
X26590Y235933D01*
X27101Y234950D01*
X27697Y234016D01*
X28371Y233137D01*
X29120Y232320D01*
X29937Y231571D01*
X30816Y230897D01*
X31750Y230301D01*
X32733Y229790D01*
X33756Y229366D01*
X34813Y229033D01*
X35895Y228793D01*
X36993Y228648D01*
X38100Y228600D01*
X266700Y228600D02*
X419100Y228600D01*
X420207Y228648D01*
X421305Y228793D01*
X422387Y229033D01*
X423444Y229366D01*
X424467Y229790D01*
X425450Y230301D01*
X426384Y230897D01*
X427263Y231571D01*
X428080Y232320D01*
X428829Y233137D01*
X429503Y234016D01*
X430099Y234950D01*
X430610Y235933D01*
X431034Y236956D01*
X431367Y238013D01*
X431607Y239095D01*
X431752Y240193D01*
X431800Y241300D01*
X431752Y242407D01*
X431607Y243505D01*
X431367Y244587D01*
X431034Y245644D01*
X430610Y246667D01*
X430099Y247650D01*
X429503Y248584D01*
X428829Y249463D01*
X428080Y250280D01*
X427263Y251029D01*
X426384Y251703D01*
X425450Y252299D01*
X424467Y252810D01*
X423444Y253234D01*
X422387Y253567D01*
X421305Y253807D01*
X420207Y253952D01*
X419100Y254000D01*
X266700Y254000D01*
X265593Y253952D01*
X264495Y253807D01*
X263413Y253567D01*
X262356Y253234D01*
X261333Y252810D01*
X260350Y252299D01*
X259416Y251703D01*
X258537Y251029D01*
X257720Y250280D01*
X256971Y249463D01*
X256297Y248584D01*
X255701Y247650D01*
X255190Y246667D01*
X254766Y245644D01*
X254433Y244587D01*
X254193Y243505D01*
X254048Y242407D01*
X254000Y241300D01*
X254048Y240193D01*
X254193Y239095D01*
X254433Y238013D01*
X254766Y236956D01*
X255190Y235933D01*
X255701Y234950D01*
X256297Y234016D01*
X256971Y233137D01*
X257720Y232320D01*
X258537Y231571D01*
X259416Y230897D01*
X260350Y230301D01*
X261333Y229790D01*
X262356Y229366D01*
X263413Y229033D01*
X264495Y228793D01*
X265593Y228648D01*
X266700Y228600D01*
M02*
