G04 EAGLE Gerber RS-274X export*
G75*
%MOMM*%
%FSLAX34Y34*%
%LPD*%
%INBottom Silkscreen*%
%IPPOS*%
%AMOC8*
5,1,8,0,0,1.08239X$1,22.5*%
G01*
%ADD10C,0.203200*%
%ADD11C,0.127000*%
%ADD12C,0.076200*%

G36*
X186927Y163716D02*
X186927Y163716D01*
X187035Y163726D01*
X187048Y163732D01*
X187062Y163734D01*
X187159Y163782D01*
X187258Y163827D01*
X187271Y163838D01*
X187280Y163842D01*
X187295Y163857D01*
X187372Y163920D01*
X191680Y168228D01*
X191743Y168316D01*
X191809Y168402D01*
X191814Y168415D01*
X191822Y168427D01*
X191853Y168530D01*
X191889Y168633D01*
X191889Y168647D01*
X191893Y168660D01*
X191889Y168768D01*
X191890Y168877D01*
X191885Y168890D01*
X191885Y168904D01*
X191847Y169005D01*
X191812Y169108D01*
X191803Y169123D01*
X191799Y169132D01*
X191785Y169149D01*
X191731Y169232D01*
X186917Y175135D01*
X187995Y177230D01*
X188002Y177249D01*
X188043Y177344D01*
X188761Y179588D01*
X196340Y180358D01*
X196444Y180386D01*
X196550Y180411D01*
X196562Y180418D01*
X196575Y180421D01*
X196665Y180482D01*
X196758Y180539D01*
X196766Y180550D01*
X196778Y180558D01*
X196844Y180644D01*
X196913Y180728D01*
X196917Y180741D01*
X196926Y180752D01*
X196960Y180855D01*
X196999Y180956D01*
X197000Y180974D01*
X197004Y180983D01*
X197003Y181004D01*
X197013Y181103D01*
X197013Y187197D01*
X196996Y187305D01*
X196982Y187412D01*
X196976Y187424D01*
X196974Y187438D01*
X196922Y187534D01*
X196875Y187631D01*
X196865Y187641D01*
X196859Y187653D01*
X196779Y187727D01*
X196703Y187804D01*
X196691Y187810D01*
X196681Y187820D01*
X196582Y187865D01*
X196484Y187913D01*
X196467Y187917D01*
X196458Y187921D01*
X196437Y187923D01*
X196340Y187942D01*
X188761Y188712D01*
X188043Y190956D01*
X188034Y190974D01*
X187995Y191070D01*
X186917Y193165D01*
X191731Y199069D01*
X191785Y199163D01*
X191842Y199255D01*
X191845Y199268D01*
X191852Y199280D01*
X191873Y199387D01*
X191898Y199492D01*
X191896Y199506D01*
X191899Y199520D01*
X191884Y199627D01*
X191874Y199735D01*
X191868Y199748D01*
X191866Y199762D01*
X191818Y199859D01*
X191773Y199958D01*
X191762Y199971D01*
X191758Y199980D01*
X191743Y199995D01*
X191680Y200072D01*
X187372Y204380D01*
X187284Y204443D01*
X187198Y204509D01*
X187185Y204514D01*
X187173Y204522D01*
X187070Y204553D01*
X186967Y204589D01*
X186953Y204589D01*
X186940Y204593D01*
X186832Y204589D01*
X186723Y204590D01*
X186710Y204585D01*
X186696Y204585D01*
X186595Y204547D01*
X186492Y204512D01*
X186477Y204503D01*
X186468Y204499D01*
X186451Y204485D01*
X186369Y204431D01*
X180465Y199617D01*
X178370Y200695D01*
X178351Y200702D01*
X178256Y200743D01*
X176012Y201461D01*
X175242Y209040D01*
X175214Y209144D01*
X175189Y209250D01*
X175182Y209262D01*
X175179Y209275D01*
X175118Y209365D01*
X175061Y209458D01*
X175050Y209466D01*
X175042Y209478D01*
X174956Y209544D01*
X174872Y209613D01*
X174859Y209617D01*
X174848Y209626D01*
X174745Y209660D01*
X174644Y209699D01*
X174626Y209700D01*
X174617Y209704D01*
X174596Y209703D01*
X174497Y209713D01*
X168403Y209713D01*
X168295Y209696D01*
X168188Y209682D01*
X168176Y209676D01*
X168162Y209674D01*
X168066Y209622D01*
X167969Y209575D01*
X167959Y209565D01*
X167947Y209559D01*
X167873Y209479D01*
X167796Y209403D01*
X167790Y209391D01*
X167780Y209381D01*
X167735Y209282D01*
X167687Y209184D01*
X167683Y209167D01*
X167679Y209158D01*
X167677Y209137D01*
X167658Y209040D01*
X166888Y201461D01*
X164644Y200743D01*
X164626Y200734D01*
X164530Y200695D01*
X162435Y199617D01*
X156532Y204431D01*
X156437Y204485D01*
X156345Y204542D01*
X156332Y204545D01*
X156320Y204552D01*
X156213Y204573D01*
X156108Y204598D01*
X156094Y204596D01*
X156080Y204599D01*
X155973Y204584D01*
X155865Y204574D01*
X155852Y204568D01*
X155839Y204566D01*
X155741Y204518D01*
X155642Y204473D01*
X155629Y204462D01*
X155620Y204458D01*
X155605Y204443D01*
X155528Y204380D01*
X151220Y200072D01*
X151157Y199984D01*
X151091Y199898D01*
X151086Y199885D01*
X151078Y199873D01*
X151047Y199770D01*
X151011Y199667D01*
X151011Y199653D01*
X151007Y199640D01*
X151011Y199532D01*
X151010Y199423D01*
X151015Y199410D01*
X151015Y199396D01*
X151053Y199295D01*
X151088Y199192D01*
X151097Y199177D01*
X151101Y199168D01*
X151115Y199151D01*
X151169Y199069D01*
X155983Y193165D01*
X154905Y191070D01*
X154898Y191051D01*
X154857Y190956D01*
X154139Y188712D01*
X146560Y187942D01*
X146456Y187914D01*
X146350Y187889D01*
X146338Y187882D01*
X146325Y187879D01*
X146235Y187818D01*
X146142Y187761D01*
X146134Y187750D01*
X146122Y187742D01*
X146056Y187656D01*
X145988Y187572D01*
X145983Y187559D01*
X145974Y187548D01*
X145940Y187445D01*
X145901Y187344D01*
X145900Y187326D01*
X145896Y187317D01*
X145897Y187296D01*
X145887Y187197D01*
X145887Y181103D01*
X145905Y180995D01*
X145918Y180888D01*
X145924Y180876D01*
X145926Y180862D01*
X145978Y180766D01*
X146025Y180669D01*
X146035Y180659D01*
X146041Y180647D01*
X146121Y180573D01*
X146197Y180496D01*
X146209Y180490D01*
X146220Y180480D01*
X146318Y180435D01*
X146416Y180387D01*
X146433Y180383D01*
X146442Y180379D01*
X146463Y180377D01*
X146560Y180358D01*
X154139Y179588D01*
X154857Y177344D01*
X154866Y177326D01*
X154905Y177230D01*
X155983Y175135D01*
X151169Y169232D01*
X151115Y169137D01*
X151058Y169045D01*
X151055Y169032D01*
X151048Y169020D01*
X151027Y168913D01*
X151002Y168808D01*
X151004Y168794D01*
X151001Y168780D01*
X151016Y168673D01*
X151026Y168565D01*
X151032Y168552D01*
X151034Y168539D01*
X151082Y168441D01*
X151127Y168342D01*
X151138Y168329D01*
X151142Y168320D01*
X151157Y168305D01*
X151220Y168228D01*
X155528Y163920D01*
X155616Y163857D01*
X155702Y163791D01*
X155715Y163786D01*
X155727Y163778D01*
X155830Y163747D01*
X155933Y163711D01*
X155947Y163711D01*
X155960Y163707D01*
X156068Y163711D01*
X156177Y163710D01*
X156190Y163715D01*
X156204Y163715D01*
X156305Y163753D01*
X156408Y163788D01*
X156423Y163797D01*
X156432Y163801D01*
X156449Y163815D01*
X156532Y163869D01*
X162435Y168683D01*
X164529Y167604D01*
X164582Y167587D01*
X164631Y167561D01*
X164697Y167550D01*
X164761Y167529D01*
X164817Y167530D01*
X164871Y167521D01*
X164938Y167532D01*
X165005Y167533D01*
X165057Y167551D01*
X165112Y167560D01*
X165171Y167592D01*
X165235Y167614D01*
X165279Y167649D01*
X165328Y167675D01*
X165373Y167724D01*
X165426Y167766D01*
X165457Y167813D01*
X165495Y167853D01*
X165551Y167958D01*
X165559Y167971D01*
X165560Y167976D01*
X165564Y167983D01*
X169152Y176645D01*
X169177Y176750D01*
X169205Y176855D01*
X169204Y176869D01*
X169208Y176883D01*
X169197Y176990D01*
X169191Y177098D01*
X169185Y177111D01*
X169184Y177126D01*
X169139Y177224D01*
X169099Y177324D01*
X169089Y177335D01*
X169083Y177348D01*
X169010Y177427D01*
X168939Y177508D01*
X168923Y177519D01*
X168916Y177526D01*
X168897Y177537D01*
X168816Y177591D01*
X167473Y178317D01*
X166366Y179252D01*
X165473Y180394D01*
X164831Y181695D01*
X164469Y183098D01*
X164402Y184546D01*
X164631Y185977D01*
X165148Y187332D01*
X165931Y188552D01*
X166946Y189586D01*
X168152Y190392D01*
X169496Y190934D01*
X170923Y191190D01*
X172372Y191149D01*
X173782Y190813D01*
X175094Y190197D01*
X176252Y189325D01*
X177208Y188235D01*
X177921Y186973D01*
X178361Y185592D01*
X178510Y184148D01*
X178375Y182773D01*
X177973Y181448D01*
X177320Y180228D01*
X176442Y179158D01*
X175373Y178280D01*
X174087Y177593D01*
X174000Y177526D01*
X173911Y177462D01*
X173903Y177452D01*
X173893Y177444D01*
X173832Y177353D01*
X173768Y177264D01*
X173765Y177252D01*
X173758Y177241D01*
X173729Y177135D01*
X173697Y177031D01*
X173698Y177018D01*
X173694Y177006D01*
X173702Y176896D01*
X173705Y176787D01*
X173710Y176771D01*
X173710Y176762D01*
X173718Y176743D01*
X173748Y176645D01*
X177336Y167983D01*
X177365Y167936D01*
X177386Y167884D01*
X177429Y167833D01*
X177465Y167776D01*
X177508Y167741D01*
X177544Y167698D01*
X177601Y167664D01*
X177653Y167621D01*
X177705Y167602D01*
X177753Y167573D01*
X177819Y167559D01*
X177882Y167535D01*
X177937Y167533D01*
X177992Y167522D01*
X178058Y167529D01*
X178125Y167527D01*
X178179Y167543D01*
X178234Y167550D01*
X178345Y167594D01*
X178359Y167598D01*
X178363Y167601D01*
X178371Y167604D01*
X180465Y168683D01*
X186369Y163869D01*
X186463Y163815D01*
X186555Y163758D01*
X186568Y163755D01*
X186580Y163748D01*
X186687Y163727D01*
X186792Y163702D01*
X186806Y163704D01*
X186820Y163701D01*
X186927Y163716D01*
G37*
D10*
X12700Y68580D02*
X12700Y45720D01*
X63500Y45720D01*
X64770Y46990D01*
X64770Y69850D01*
X13970Y69850D01*
X12700Y68580D01*
D11*
X126365Y190627D02*
X126365Y197485D01*
X126365Y194437D02*
X122555Y194437D01*
X122555Y197485D02*
X122555Y190627D01*
X118455Y190627D02*
X118455Y197485D01*
X116169Y193675D01*
X113883Y197485D01*
X113883Y190627D01*
X110028Y195961D02*
X108123Y197485D01*
X108123Y190627D01*
X110028Y190627D02*
X106218Y190627D01*
X102713Y195961D02*
X100808Y197485D01*
X100808Y190627D01*
X102713Y190627D02*
X98903Y190627D01*
X91092Y194437D02*
X89187Y194437D01*
X89102Y194435D01*
X89016Y194429D01*
X88931Y194420D01*
X88847Y194406D01*
X88763Y194389D01*
X88680Y194368D01*
X88598Y194344D01*
X88518Y194316D01*
X88438Y194284D01*
X88360Y194248D01*
X88284Y194210D01*
X88210Y194167D01*
X88138Y194122D01*
X88067Y194073D01*
X87999Y194021D01*
X87934Y193967D01*
X87871Y193909D01*
X87810Y193848D01*
X87752Y193785D01*
X87698Y193720D01*
X87646Y193652D01*
X87597Y193581D01*
X87552Y193509D01*
X87509Y193435D01*
X87471Y193359D01*
X87435Y193281D01*
X87403Y193201D01*
X87375Y193121D01*
X87351Y193039D01*
X87330Y192956D01*
X87313Y192872D01*
X87299Y192788D01*
X87290Y192703D01*
X87284Y192617D01*
X87282Y192532D01*
X87284Y192447D01*
X87290Y192361D01*
X87299Y192276D01*
X87313Y192192D01*
X87330Y192108D01*
X87351Y192025D01*
X87375Y191943D01*
X87403Y191863D01*
X87435Y191783D01*
X87471Y191705D01*
X87509Y191629D01*
X87552Y191555D01*
X87597Y191483D01*
X87646Y191412D01*
X87698Y191344D01*
X87752Y191279D01*
X87810Y191216D01*
X87871Y191155D01*
X87934Y191097D01*
X87999Y191043D01*
X88067Y190991D01*
X88138Y190942D01*
X88210Y190897D01*
X88284Y190854D01*
X88360Y190816D01*
X88438Y190780D01*
X88518Y190748D01*
X88598Y190720D01*
X88680Y190696D01*
X88763Y190675D01*
X88847Y190658D01*
X88931Y190644D01*
X89016Y190635D01*
X89102Y190629D01*
X89187Y190627D01*
X91092Y190627D01*
X91092Y197485D01*
X89187Y197485D01*
X89110Y197483D01*
X89033Y197477D01*
X88956Y197467D01*
X88880Y197454D01*
X88805Y197436D01*
X88731Y197415D01*
X88658Y197390D01*
X88586Y197361D01*
X88516Y197329D01*
X88447Y197294D01*
X88381Y197254D01*
X88316Y197212D01*
X88254Y197166D01*
X88194Y197117D01*
X88137Y197066D01*
X88082Y197011D01*
X88031Y196954D01*
X87982Y196894D01*
X87936Y196832D01*
X87894Y196767D01*
X87854Y196701D01*
X87819Y196632D01*
X87787Y196562D01*
X87758Y196490D01*
X87733Y196417D01*
X87712Y196343D01*
X87694Y196268D01*
X87681Y196192D01*
X87671Y196115D01*
X87665Y196038D01*
X87663Y195961D01*
X87665Y195884D01*
X87671Y195807D01*
X87681Y195730D01*
X87694Y195654D01*
X87712Y195579D01*
X87733Y195505D01*
X87758Y195432D01*
X87787Y195360D01*
X87819Y195290D01*
X87854Y195221D01*
X87894Y195155D01*
X87936Y195090D01*
X87982Y195028D01*
X88031Y194968D01*
X88082Y194911D01*
X88137Y194856D01*
X88194Y194805D01*
X88254Y194756D01*
X88316Y194710D01*
X88381Y194668D01*
X88447Y194628D01*
X88516Y194593D01*
X88586Y194561D01*
X88658Y194532D01*
X88731Y194507D01*
X88805Y194486D01*
X88880Y194468D01*
X88956Y194455D01*
X89033Y194445D01*
X89110Y194439D01*
X89187Y194437D01*
X83981Y195199D02*
X83981Y190627D01*
X83981Y195199D02*
X81695Y195199D01*
X81695Y194437D01*
X78024Y190627D02*
X76119Y190627D01*
X78024Y190627D02*
X78090Y190629D01*
X78157Y190635D01*
X78222Y190644D01*
X78288Y190658D01*
X78352Y190675D01*
X78415Y190696D01*
X78477Y190720D01*
X78537Y190749D01*
X78596Y190780D01*
X78652Y190815D01*
X78707Y190853D01*
X78759Y190894D01*
X78808Y190939D01*
X78855Y190986D01*
X78900Y191035D01*
X78941Y191087D01*
X78979Y191142D01*
X79014Y191199D01*
X79045Y191257D01*
X79074Y191317D01*
X79098Y191379D01*
X79119Y191442D01*
X79136Y191506D01*
X79150Y191572D01*
X79159Y191637D01*
X79165Y191704D01*
X79167Y191770D01*
X79167Y193675D01*
X79165Y193752D01*
X79159Y193829D01*
X79149Y193906D01*
X79136Y193982D01*
X79118Y194057D01*
X79097Y194131D01*
X79072Y194204D01*
X79043Y194276D01*
X79011Y194346D01*
X78976Y194415D01*
X78936Y194481D01*
X78894Y194546D01*
X78848Y194608D01*
X78799Y194668D01*
X78748Y194725D01*
X78693Y194780D01*
X78636Y194831D01*
X78576Y194880D01*
X78514Y194926D01*
X78449Y194968D01*
X78383Y195008D01*
X78314Y195043D01*
X78244Y195075D01*
X78172Y195104D01*
X78099Y195129D01*
X78025Y195150D01*
X77950Y195168D01*
X77874Y195181D01*
X77797Y195191D01*
X77720Y195197D01*
X77643Y195199D01*
X77566Y195197D01*
X77489Y195191D01*
X77412Y195181D01*
X77336Y195168D01*
X77261Y195150D01*
X77187Y195129D01*
X77114Y195104D01*
X77042Y195075D01*
X76972Y195043D01*
X76903Y195008D01*
X76837Y194968D01*
X76772Y194926D01*
X76710Y194880D01*
X76650Y194831D01*
X76593Y194780D01*
X76538Y194725D01*
X76487Y194668D01*
X76438Y194608D01*
X76392Y194546D01*
X76350Y194481D01*
X76310Y194415D01*
X76275Y194346D01*
X76243Y194276D01*
X76214Y194204D01*
X76189Y194131D01*
X76168Y194057D01*
X76150Y193982D01*
X76137Y193906D01*
X76127Y193829D01*
X76121Y193752D01*
X76119Y193675D01*
X76119Y192913D01*
X79167Y192913D01*
X71549Y193294D02*
X69835Y193294D01*
X71549Y193295D02*
X71621Y193293D01*
X71693Y193287D01*
X71765Y193277D01*
X71836Y193264D01*
X71906Y193246D01*
X71975Y193225D01*
X72043Y193200D01*
X72109Y193172D01*
X72174Y193140D01*
X72237Y193104D01*
X72298Y193065D01*
X72356Y193023D01*
X72413Y192978D01*
X72466Y192929D01*
X72517Y192878D01*
X72566Y192825D01*
X72611Y192768D01*
X72653Y192710D01*
X72692Y192649D01*
X72728Y192586D01*
X72760Y192521D01*
X72788Y192455D01*
X72813Y192387D01*
X72834Y192318D01*
X72852Y192248D01*
X72865Y192177D01*
X72875Y192105D01*
X72881Y192033D01*
X72883Y191961D01*
X72881Y191889D01*
X72875Y191817D01*
X72865Y191745D01*
X72852Y191674D01*
X72834Y191604D01*
X72813Y191535D01*
X72788Y191467D01*
X72760Y191401D01*
X72728Y191336D01*
X72692Y191273D01*
X72653Y191212D01*
X72611Y191154D01*
X72566Y191097D01*
X72517Y191044D01*
X72466Y190993D01*
X72413Y190944D01*
X72356Y190899D01*
X72298Y190857D01*
X72237Y190818D01*
X72174Y190782D01*
X72109Y190750D01*
X72043Y190722D01*
X71975Y190697D01*
X71906Y190676D01*
X71836Y190658D01*
X71765Y190645D01*
X71693Y190635D01*
X71621Y190629D01*
X71549Y190627D01*
X69835Y190627D01*
X69835Y194056D01*
X69837Y194122D01*
X69843Y194189D01*
X69852Y194254D01*
X69866Y194320D01*
X69883Y194384D01*
X69904Y194447D01*
X69928Y194509D01*
X69957Y194569D01*
X69988Y194628D01*
X70023Y194684D01*
X70061Y194739D01*
X70102Y194791D01*
X70147Y194840D01*
X70194Y194887D01*
X70243Y194932D01*
X70295Y194973D01*
X70350Y195011D01*
X70407Y195046D01*
X70465Y195077D01*
X70525Y195106D01*
X70587Y195130D01*
X70650Y195151D01*
X70714Y195168D01*
X70780Y195182D01*
X70845Y195191D01*
X70912Y195197D01*
X70978Y195199D01*
X72502Y195199D01*
X65872Y197485D02*
X65872Y190627D01*
X65872Y192913D02*
X62824Y195199D01*
X64538Y193866D02*
X62824Y190627D01*
X59904Y192151D02*
X59904Y193675D01*
X59902Y193752D01*
X59896Y193829D01*
X59886Y193906D01*
X59873Y193982D01*
X59855Y194057D01*
X59834Y194131D01*
X59809Y194204D01*
X59780Y194276D01*
X59748Y194346D01*
X59713Y194415D01*
X59673Y194481D01*
X59631Y194546D01*
X59585Y194608D01*
X59536Y194668D01*
X59485Y194725D01*
X59430Y194780D01*
X59373Y194831D01*
X59313Y194880D01*
X59251Y194926D01*
X59186Y194968D01*
X59120Y195008D01*
X59051Y195043D01*
X58981Y195075D01*
X58909Y195104D01*
X58836Y195129D01*
X58762Y195150D01*
X58687Y195168D01*
X58611Y195181D01*
X58534Y195191D01*
X58457Y195197D01*
X58380Y195199D01*
X58303Y195197D01*
X58226Y195191D01*
X58149Y195181D01*
X58073Y195168D01*
X57998Y195150D01*
X57924Y195129D01*
X57851Y195104D01*
X57779Y195075D01*
X57709Y195043D01*
X57640Y195008D01*
X57574Y194968D01*
X57509Y194926D01*
X57447Y194880D01*
X57387Y194831D01*
X57330Y194780D01*
X57275Y194725D01*
X57224Y194668D01*
X57175Y194608D01*
X57129Y194546D01*
X57087Y194481D01*
X57047Y194415D01*
X57012Y194346D01*
X56980Y194276D01*
X56951Y194204D01*
X56926Y194131D01*
X56905Y194057D01*
X56887Y193982D01*
X56874Y193906D01*
X56864Y193829D01*
X56858Y193752D01*
X56856Y193675D01*
X56856Y192151D01*
X56858Y192074D01*
X56864Y191997D01*
X56874Y191920D01*
X56887Y191844D01*
X56905Y191769D01*
X56926Y191695D01*
X56951Y191622D01*
X56980Y191550D01*
X57012Y191480D01*
X57047Y191411D01*
X57087Y191345D01*
X57129Y191280D01*
X57175Y191218D01*
X57224Y191158D01*
X57275Y191101D01*
X57330Y191046D01*
X57387Y190995D01*
X57447Y190946D01*
X57509Y190900D01*
X57574Y190858D01*
X57640Y190818D01*
X57709Y190783D01*
X57779Y190751D01*
X57851Y190722D01*
X57924Y190697D01*
X57998Y190676D01*
X58073Y190658D01*
X58149Y190645D01*
X58226Y190635D01*
X58303Y190629D01*
X58380Y190627D01*
X58457Y190629D01*
X58534Y190635D01*
X58611Y190645D01*
X58687Y190658D01*
X58762Y190676D01*
X58836Y190697D01*
X58909Y190722D01*
X58981Y190751D01*
X59051Y190783D01*
X59120Y190818D01*
X59186Y190858D01*
X59251Y190900D01*
X59313Y190946D01*
X59373Y190995D01*
X59430Y191046D01*
X59485Y191101D01*
X59536Y191158D01*
X59585Y191218D01*
X59631Y191280D01*
X59673Y191345D01*
X59713Y191411D01*
X59748Y191480D01*
X59780Y191550D01*
X59809Y191622D01*
X59834Y191695D01*
X59855Y191769D01*
X59873Y191844D01*
X59886Y191920D01*
X59896Y191997D01*
X59902Y192074D01*
X59904Y192151D01*
X53320Y191770D02*
X53320Y195199D01*
X53320Y191770D02*
X53318Y191704D01*
X53312Y191637D01*
X53303Y191572D01*
X53289Y191506D01*
X53272Y191442D01*
X53251Y191379D01*
X53227Y191317D01*
X53198Y191257D01*
X53167Y191199D01*
X53132Y191142D01*
X53094Y191087D01*
X53053Y191035D01*
X53008Y190986D01*
X52961Y190939D01*
X52912Y190894D01*
X52860Y190853D01*
X52805Y190815D01*
X52749Y190780D01*
X52690Y190749D01*
X52630Y190720D01*
X52568Y190696D01*
X52505Y190675D01*
X52441Y190658D01*
X52375Y190644D01*
X52310Y190635D01*
X52243Y190629D01*
X52177Y190627D01*
X50272Y190627D01*
X50272Y195199D01*
X47418Y195199D02*
X45132Y195199D01*
X46656Y197485D02*
X46656Y191770D01*
X46654Y191704D01*
X46648Y191637D01*
X46639Y191572D01*
X46625Y191506D01*
X46608Y191442D01*
X46587Y191379D01*
X46563Y191317D01*
X46534Y191257D01*
X46503Y191199D01*
X46468Y191142D01*
X46430Y191087D01*
X46389Y191035D01*
X46344Y190986D01*
X46297Y190939D01*
X46248Y190894D01*
X46196Y190853D01*
X46141Y190815D01*
X46085Y190780D01*
X46026Y190749D01*
X45966Y190720D01*
X45904Y190696D01*
X45841Y190675D01*
X45777Y190658D01*
X45711Y190644D01*
X45646Y190635D01*
X45579Y190629D01*
X45513Y190627D01*
X45132Y190627D01*
X38446Y195199D02*
X36922Y190627D01*
X35398Y195199D01*
X32243Y195961D02*
X30338Y197485D01*
X30338Y190627D01*
X32243Y190627D02*
X28433Y190627D01*
X25408Y190627D02*
X25408Y191008D01*
X25027Y191008D01*
X25027Y190627D01*
X25408Y190627D01*
X22002Y194056D02*
X22000Y194198D01*
X21995Y194341D01*
X21986Y194483D01*
X21973Y194625D01*
X21957Y194766D01*
X21938Y194907D01*
X21914Y195048D01*
X21888Y195188D01*
X21857Y195327D01*
X21823Y195465D01*
X21786Y195603D01*
X21746Y195739D01*
X21701Y195875D01*
X21654Y196009D01*
X21603Y196142D01*
X21549Y196274D01*
X21491Y196404D01*
X21430Y196533D01*
X21431Y196532D02*
X21405Y196601D01*
X21376Y196667D01*
X21344Y196733D01*
X21309Y196796D01*
X21270Y196858D01*
X21228Y196918D01*
X21183Y196975D01*
X21135Y197030D01*
X21084Y197082D01*
X21031Y197132D01*
X20975Y197178D01*
X20917Y197222D01*
X20856Y197263D01*
X20794Y197301D01*
X20730Y197335D01*
X20664Y197366D01*
X20596Y197394D01*
X20527Y197418D01*
X20457Y197438D01*
X20386Y197455D01*
X20315Y197468D01*
X20243Y197477D01*
X20170Y197483D01*
X20097Y197485D01*
X20024Y197483D01*
X19951Y197477D01*
X19879Y197468D01*
X19808Y197455D01*
X19737Y197438D01*
X19667Y197418D01*
X19598Y197394D01*
X19530Y197366D01*
X19464Y197335D01*
X19400Y197301D01*
X19338Y197263D01*
X19277Y197222D01*
X19219Y197178D01*
X19163Y197132D01*
X19110Y197082D01*
X19059Y197030D01*
X19011Y196975D01*
X18966Y196918D01*
X18924Y196858D01*
X18885Y196796D01*
X18850Y196733D01*
X18818Y196667D01*
X18789Y196601D01*
X18763Y196532D01*
X18763Y196533D02*
X18702Y196404D01*
X18644Y196274D01*
X18590Y196142D01*
X18539Y196009D01*
X18492Y195875D01*
X18447Y195739D01*
X18407Y195603D01*
X18370Y195465D01*
X18336Y195327D01*
X18305Y195188D01*
X18279Y195048D01*
X18255Y194907D01*
X18236Y194766D01*
X18220Y194625D01*
X18207Y194483D01*
X18198Y194341D01*
X18193Y194198D01*
X18191Y194056D01*
X22002Y194056D02*
X22000Y193914D01*
X21995Y193771D01*
X21986Y193629D01*
X21973Y193487D01*
X21957Y193346D01*
X21938Y193205D01*
X21914Y193064D01*
X21888Y192924D01*
X21857Y192785D01*
X21823Y192647D01*
X21786Y192509D01*
X21746Y192373D01*
X21701Y192237D01*
X21654Y192103D01*
X21603Y191970D01*
X21549Y191838D01*
X21491Y191708D01*
X21430Y191579D01*
X21431Y191580D02*
X21405Y191511D01*
X21376Y191445D01*
X21344Y191379D01*
X21309Y191316D01*
X21270Y191254D01*
X21228Y191194D01*
X21183Y191137D01*
X21135Y191082D01*
X21084Y191030D01*
X21031Y190980D01*
X20975Y190934D01*
X20917Y190890D01*
X20856Y190849D01*
X20794Y190811D01*
X20730Y190777D01*
X20664Y190746D01*
X20596Y190718D01*
X20527Y190694D01*
X20457Y190674D01*
X20386Y190657D01*
X20315Y190644D01*
X20243Y190635D01*
X20170Y190629D01*
X20097Y190627D01*
X18763Y191579D02*
X18702Y191708D01*
X18644Y191838D01*
X18590Y191970D01*
X18539Y192103D01*
X18492Y192237D01*
X18447Y192373D01*
X18407Y192509D01*
X18370Y192647D01*
X18336Y192785D01*
X18305Y192924D01*
X18279Y193064D01*
X18255Y193205D01*
X18236Y193346D01*
X18220Y193487D01*
X18207Y193629D01*
X18198Y193771D01*
X18193Y193914D01*
X18191Y194056D01*
X18763Y191580D02*
X18789Y191511D01*
X18818Y191445D01*
X18850Y191379D01*
X18885Y191316D01*
X18924Y191254D01*
X18966Y191194D01*
X19011Y191137D01*
X19059Y191082D01*
X19110Y191030D01*
X19163Y190980D01*
X19219Y190934D01*
X19277Y190890D01*
X19338Y190849D01*
X19400Y190811D01*
X19464Y190777D01*
X19530Y190746D01*
X19598Y190718D01*
X19667Y190694D01*
X19737Y190674D01*
X19808Y190657D01*
X19879Y190644D01*
X19951Y190635D01*
X20024Y190629D01*
X20097Y190627D01*
X21621Y192151D02*
X18573Y195961D01*
X124079Y185293D02*
X126365Y178435D01*
X121793Y178435D02*
X124079Y185293D01*
X122365Y180150D02*
X125794Y180150D01*
X115783Y178435D02*
X115783Y185293D01*
X115783Y178435D02*
X117688Y178435D01*
X117754Y178437D01*
X117821Y178443D01*
X117886Y178452D01*
X117952Y178466D01*
X118016Y178483D01*
X118079Y178504D01*
X118141Y178528D01*
X118201Y178557D01*
X118260Y178588D01*
X118316Y178623D01*
X118371Y178661D01*
X118423Y178702D01*
X118472Y178747D01*
X118519Y178794D01*
X118564Y178843D01*
X118605Y178895D01*
X118643Y178950D01*
X118678Y179007D01*
X118709Y179065D01*
X118738Y179125D01*
X118762Y179187D01*
X118783Y179250D01*
X118800Y179314D01*
X118814Y179380D01*
X118823Y179445D01*
X118829Y179512D01*
X118831Y179578D01*
X118831Y181864D01*
X118829Y181930D01*
X118823Y181997D01*
X118814Y182062D01*
X118800Y182128D01*
X118783Y182192D01*
X118762Y182255D01*
X118738Y182317D01*
X118709Y182377D01*
X118678Y182436D01*
X118643Y182492D01*
X118605Y182547D01*
X118564Y182599D01*
X118519Y182648D01*
X118472Y182695D01*
X118423Y182740D01*
X118371Y182781D01*
X118316Y182819D01*
X118260Y182854D01*
X118201Y182885D01*
X118141Y182914D01*
X118079Y182938D01*
X118016Y182959D01*
X117952Y182976D01*
X117886Y182990D01*
X117821Y182999D01*
X117754Y183005D01*
X117688Y183007D01*
X115783Y183007D01*
X110914Y181102D02*
X109200Y181102D01*
X110914Y181103D02*
X110986Y181101D01*
X111058Y181095D01*
X111130Y181085D01*
X111201Y181072D01*
X111271Y181054D01*
X111340Y181033D01*
X111408Y181008D01*
X111474Y180980D01*
X111539Y180948D01*
X111602Y180912D01*
X111663Y180873D01*
X111721Y180831D01*
X111778Y180786D01*
X111831Y180737D01*
X111882Y180686D01*
X111931Y180633D01*
X111976Y180576D01*
X112018Y180518D01*
X112057Y180457D01*
X112093Y180394D01*
X112125Y180329D01*
X112153Y180263D01*
X112178Y180195D01*
X112199Y180126D01*
X112217Y180056D01*
X112230Y179985D01*
X112240Y179913D01*
X112246Y179841D01*
X112248Y179769D01*
X112246Y179697D01*
X112240Y179625D01*
X112230Y179553D01*
X112217Y179482D01*
X112199Y179412D01*
X112178Y179343D01*
X112153Y179275D01*
X112125Y179209D01*
X112093Y179144D01*
X112057Y179081D01*
X112018Y179020D01*
X111976Y178962D01*
X111931Y178905D01*
X111882Y178852D01*
X111831Y178801D01*
X111778Y178752D01*
X111721Y178707D01*
X111663Y178665D01*
X111602Y178626D01*
X111539Y178590D01*
X111474Y178558D01*
X111408Y178530D01*
X111340Y178505D01*
X111271Y178484D01*
X111201Y178466D01*
X111130Y178453D01*
X111058Y178443D01*
X110986Y178437D01*
X110914Y178435D01*
X109200Y178435D01*
X109200Y181864D01*
X109202Y181930D01*
X109208Y181997D01*
X109217Y182062D01*
X109231Y182128D01*
X109248Y182192D01*
X109269Y182255D01*
X109293Y182317D01*
X109322Y182377D01*
X109353Y182436D01*
X109388Y182492D01*
X109426Y182547D01*
X109467Y182599D01*
X109512Y182648D01*
X109559Y182695D01*
X109608Y182740D01*
X109660Y182781D01*
X109715Y182819D01*
X109772Y182854D01*
X109830Y182885D01*
X109890Y182914D01*
X109952Y182938D01*
X110015Y182959D01*
X110079Y182976D01*
X110145Y182990D01*
X110210Y182999D01*
X110277Y183005D01*
X110343Y183007D01*
X111867Y183007D01*
X105151Y183007D02*
X105151Y178435D01*
X105151Y183007D02*
X101722Y183007D01*
X101656Y183005D01*
X101589Y182999D01*
X101524Y182990D01*
X101458Y182976D01*
X101394Y182959D01*
X101331Y182938D01*
X101269Y182914D01*
X101209Y182885D01*
X101151Y182854D01*
X101094Y182819D01*
X101039Y182781D01*
X100987Y182740D01*
X100938Y182695D01*
X100891Y182648D01*
X100846Y182599D01*
X100805Y182547D01*
X100767Y182492D01*
X100732Y182436D01*
X100701Y182377D01*
X100672Y182317D01*
X100648Y182255D01*
X100627Y182192D01*
X100610Y182128D01*
X100596Y182062D01*
X100587Y181997D01*
X100581Y181930D01*
X100579Y181864D01*
X100579Y178435D01*
X102865Y178435D02*
X102865Y183007D01*
X91329Y178435D02*
X89805Y178435D01*
X91329Y178435D02*
X91406Y178437D01*
X91483Y178443D01*
X91560Y178453D01*
X91636Y178466D01*
X91711Y178484D01*
X91785Y178505D01*
X91858Y178530D01*
X91930Y178559D01*
X92000Y178591D01*
X92069Y178626D01*
X92135Y178666D01*
X92200Y178708D01*
X92262Y178754D01*
X92322Y178803D01*
X92379Y178854D01*
X92434Y178909D01*
X92485Y178966D01*
X92534Y179026D01*
X92580Y179088D01*
X92622Y179153D01*
X92662Y179219D01*
X92697Y179288D01*
X92729Y179358D01*
X92758Y179430D01*
X92783Y179503D01*
X92804Y179577D01*
X92822Y179652D01*
X92835Y179728D01*
X92845Y179805D01*
X92851Y179882D01*
X92853Y179959D01*
X92853Y183769D01*
X92851Y183846D01*
X92845Y183923D01*
X92835Y184000D01*
X92822Y184076D01*
X92804Y184151D01*
X92783Y184225D01*
X92758Y184298D01*
X92729Y184370D01*
X92697Y184440D01*
X92662Y184509D01*
X92622Y184575D01*
X92580Y184640D01*
X92534Y184702D01*
X92485Y184762D01*
X92434Y184819D01*
X92379Y184874D01*
X92322Y184925D01*
X92262Y184974D01*
X92200Y185020D01*
X92135Y185062D01*
X92069Y185102D01*
X92000Y185137D01*
X91930Y185169D01*
X91858Y185198D01*
X91785Y185223D01*
X91711Y185244D01*
X91636Y185262D01*
X91560Y185275D01*
X91483Y185285D01*
X91406Y185291D01*
X91329Y185293D01*
X89805Y185293D01*
X86833Y181483D02*
X86833Y179959D01*
X86833Y181483D02*
X86831Y181560D01*
X86825Y181637D01*
X86815Y181714D01*
X86802Y181790D01*
X86784Y181865D01*
X86763Y181939D01*
X86738Y182012D01*
X86709Y182084D01*
X86677Y182154D01*
X86642Y182223D01*
X86602Y182289D01*
X86560Y182354D01*
X86514Y182416D01*
X86465Y182476D01*
X86414Y182533D01*
X86359Y182588D01*
X86302Y182639D01*
X86242Y182688D01*
X86180Y182734D01*
X86115Y182776D01*
X86049Y182816D01*
X85980Y182851D01*
X85910Y182883D01*
X85838Y182912D01*
X85765Y182937D01*
X85691Y182958D01*
X85616Y182976D01*
X85540Y182989D01*
X85463Y182999D01*
X85386Y183005D01*
X85309Y183007D01*
X85232Y183005D01*
X85155Y182999D01*
X85078Y182989D01*
X85002Y182976D01*
X84927Y182958D01*
X84853Y182937D01*
X84780Y182912D01*
X84708Y182883D01*
X84638Y182851D01*
X84569Y182816D01*
X84503Y182776D01*
X84438Y182734D01*
X84376Y182688D01*
X84316Y182639D01*
X84259Y182588D01*
X84204Y182533D01*
X84153Y182476D01*
X84104Y182416D01*
X84058Y182354D01*
X84016Y182289D01*
X83976Y182223D01*
X83941Y182154D01*
X83909Y182084D01*
X83880Y182012D01*
X83855Y181939D01*
X83834Y181865D01*
X83816Y181790D01*
X83803Y181714D01*
X83793Y181637D01*
X83787Y181560D01*
X83785Y181483D01*
X83785Y179959D01*
X83787Y179882D01*
X83793Y179805D01*
X83803Y179728D01*
X83816Y179652D01*
X83834Y179577D01*
X83855Y179503D01*
X83880Y179430D01*
X83909Y179358D01*
X83941Y179288D01*
X83976Y179219D01*
X84016Y179153D01*
X84058Y179088D01*
X84104Y179026D01*
X84153Y178966D01*
X84204Y178909D01*
X84259Y178854D01*
X84316Y178803D01*
X84376Y178754D01*
X84438Y178708D01*
X84503Y178666D01*
X84569Y178626D01*
X84638Y178591D01*
X84708Y178559D01*
X84780Y178530D01*
X84853Y178505D01*
X84927Y178484D01*
X85002Y178466D01*
X85078Y178453D01*
X85155Y178443D01*
X85232Y178437D01*
X85309Y178435D01*
X85386Y178437D01*
X85463Y178443D01*
X85540Y178453D01*
X85616Y178466D01*
X85691Y178484D01*
X85765Y178505D01*
X85838Y178530D01*
X85910Y178559D01*
X85980Y178591D01*
X86049Y178626D01*
X86115Y178666D01*
X86180Y178708D01*
X86242Y178754D01*
X86302Y178803D01*
X86359Y178854D01*
X86414Y178909D01*
X86465Y178966D01*
X86514Y179026D01*
X86560Y179088D01*
X86602Y179153D01*
X86642Y179219D01*
X86677Y179288D01*
X86709Y179358D01*
X86738Y179430D01*
X86763Y179503D01*
X86784Y179577D01*
X86802Y179652D01*
X86815Y179728D01*
X86825Y179805D01*
X86831Y179882D01*
X86833Y179959D01*
X80493Y179959D02*
X80493Y181483D01*
X80491Y181560D01*
X80485Y181637D01*
X80475Y181714D01*
X80462Y181790D01*
X80444Y181865D01*
X80423Y181939D01*
X80398Y182012D01*
X80369Y182084D01*
X80337Y182154D01*
X80302Y182223D01*
X80262Y182289D01*
X80220Y182354D01*
X80174Y182416D01*
X80125Y182476D01*
X80074Y182533D01*
X80019Y182588D01*
X79962Y182639D01*
X79902Y182688D01*
X79840Y182734D01*
X79775Y182776D01*
X79709Y182816D01*
X79640Y182851D01*
X79570Y182883D01*
X79498Y182912D01*
X79425Y182937D01*
X79351Y182958D01*
X79276Y182976D01*
X79200Y182989D01*
X79123Y182999D01*
X79046Y183005D01*
X78969Y183007D01*
X78892Y183005D01*
X78815Y182999D01*
X78738Y182989D01*
X78662Y182976D01*
X78587Y182958D01*
X78513Y182937D01*
X78440Y182912D01*
X78368Y182883D01*
X78298Y182851D01*
X78229Y182816D01*
X78163Y182776D01*
X78098Y182734D01*
X78036Y182688D01*
X77976Y182639D01*
X77919Y182588D01*
X77864Y182533D01*
X77813Y182476D01*
X77764Y182416D01*
X77718Y182354D01*
X77676Y182289D01*
X77636Y182223D01*
X77601Y182154D01*
X77569Y182084D01*
X77540Y182012D01*
X77515Y181939D01*
X77494Y181865D01*
X77476Y181790D01*
X77463Y181714D01*
X77453Y181637D01*
X77447Y181560D01*
X77445Y181483D01*
X77445Y179959D01*
X77447Y179882D01*
X77453Y179805D01*
X77463Y179728D01*
X77476Y179652D01*
X77494Y179577D01*
X77515Y179503D01*
X77540Y179430D01*
X77569Y179358D01*
X77601Y179288D01*
X77636Y179219D01*
X77676Y179153D01*
X77718Y179088D01*
X77764Y179026D01*
X77813Y178966D01*
X77864Y178909D01*
X77919Y178854D01*
X77976Y178803D01*
X78036Y178754D01*
X78098Y178708D01*
X78163Y178666D01*
X78229Y178626D01*
X78298Y178591D01*
X78368Y178559D01*
X78440Y178530D01*
X78513Y178505D01*
X78587Y178484D01*
X78662Y178466D01*
X78738Y178453D01*
X78815Y178443D01*
X78892Y178437D01*
X78969Y178435D01*
X79046Y178437D01*
X79123Y178443D01*
X79200Y178453D01*
X79276Y178466D01*
X79351Y178484D01*
X79425Y178505D01*
X79498Y178530D01*
X79570Y178559D01*
X79640Y178591D01*
X79709Y178626D01*
X79775Y178666D01*
X79840Y178708D01*
X79902Y178754D01*
X79962Y178803D01*
X80019Y178854D01*
X80074Y178909D01*
X80125Y178966D01*
X80174Y179026D01*
X80220Y179088D01*
X80262Y179153D01*
X80302Y179219D01*
X80337Y179288D01*
X80369Y179358D01*
X80398Y179430D01*
X80423Y179503D01*
X80444Y179577D01*
X80462Y179652D01*
X80475Y179728D01*
X80485Y179805D01*
X80491Y179882D01*
X80493Y179959D01*
X73853Y183007D02*
X73853Y176149D01*
X73853Y183007D02*
X71948Y183007D01*
X71882Y183005D01*
X71815Y182999D01*
X71750Y182990D01*
X71684Y182976D01*
X71620Y182959D01*
X71557Y182938D01*
X71495Y182914D01*
X71435Y182885D01*
X71377Y182854D01*
X71320Y182819D01*
X71265Y182781D01*
X71213Y182740D01*
X71164Y182695D01*
X71117Y182648D01*
X71072Y182599D01*
X71031Y182547D01*
X70993Y182492D01*
X70958Y182436D01*
X70927Y182377D01*
X70898Y182317D01*
X70874Y182255D01*
X70853Y182192D01*
X70836Y182128D01*
X70822Y182062D01*
X70813Y181997D01*
X70807Y181930D01*
X70805Y181864D01*
X70805Y179578D01*
X70807Y179512D01*
X70813Y179445D01*
X70822Y179380D01*
X70836Y179314D01*
X70853Y179250D01*
X70874Y179187D01*
X70898Y179125D01*
X70927Y179065D01*
X70958Y179007D01*
X70993Y178950D01*
X71031Y178895D01*
X71072Y178843D01*
X71117Y178794D01*
X71164Y178747D01*
X71213Y178702D01*
X71265Y178661D01*
X71320Y178623D01*
X71377Y178588D01*
X71435Y178557D01*
X71495Y178528D01*
X71557Y178504D01*
X71620Y178483D01*
X71684Y178466D01*
X71750Y178452D01*
X71815Y178443D01*
X71882Y178437D01*
X71948Y178435D01*
X73853Y178435D01*
X66426Y178435D02*
X64521Y178435D01*
X66426Y178435D02*
X66492Y178437D01*
X66559Y178443D01*
X66624Y178452D01*
X66690Y178466D01*
X66754Y178483D01*
X66817Y178504D01*
X66879Y178528D01*
X66939Y178557D01*
X66998Y178588D01*
X67054Y178623D01*
X67109Y178661D01*
X67161Y178702D01*
X67210Y178747D01*
X67257Y178794D01*
X67302Y178843D01*
X67343Y178895D01*
X67381Y178950D01*
X67416Y179007D01*
X67447Y179065D01*
X67476Y179125D01*
X67500Y179187D01*
X67521Y179250D01*
X67538Y179314D01*
X67552Y179380D01*
X67561Y179445D01*
X67567Y179512D01*
X67569Y179578D01*
X67569Y181483D01*
X67567Y181560D01*
X67561Y181637D01*
X67551Y181714D01*
X67538Y181790D01*
X67520Y181865D01*
X67499Y181939D01*
X67474Y182012D01*
X67445Y182084D01*
X67413Y182154D01*
X67378Y182223D01*
X67338Y182289D01*
X67296Y182354D01*
X67250Y182416D01*
X67201Y182476D01*
X67150Y182533D01*
X67095Y182588D01*
X67038Y182639D01*
X66978Y182688D01*
X66916Y182734D01*
X66851Y182776D01*
X66785Y182816D01*
X66716Y182851D01*
X66646Y182883D01*
X66574Y182912D01*
X66501Y182937D01*
X66427Y182958D01*
X66352Y182976D01*
X66276Y182989D01*
X66199Y182999D01*
X66122Y183005D01*
X66045Y183007D01*
X65968Y183005D01*
X65891Y182999D01*
X65814Y182989D01*
X65738Y182976D01*
X65663Y182958D01*
X65589Y182937D01*
X65516Y182912D01*
X65444Y182883D01*
X65374Y182851D01*
X65305Y182816D01*
X65239Y182776D01*
X65174Y182734D01*
X65112Y182688D01*
X65052Y182639D01*
X64995Y182588D01*
X64940Y182533D01*
X64889Y182476D01*
X64840Y182416D01*
X64794Y182354D01*
X64752Y182289D01*
X64712Y182223D01*
X64677Y182154D01*
X64645Y182084D01*
X64616Y182012D01*
X64591Y181939D01*
X64570Y181865D01*
X64552Y181790D01*
X64539Y181714D01*
X64529Y181637D01*
X64523Y181560D01*
X64521Y181483D01*
X64521Y180721D01*
X67569Y180721D01*
X60923Y178435D02*
X60923Y183007D01*
X58637Y183007D01*
X58637Y182245D01*
X50005Y185294D02*
X49923Y185292D01*
X49842Y185286D01*
X49761Y185277D01*
X49680Y185263D01*
X49601Y185246D01*
X49522Y185225D01*
X49444Y185200D01*
X49368Y185171D01*
X49293Y185139D01*
X49219Y185103D01*
X49148Y185064D01*
X49078Y185022D01*
X49010Y184976D01*
X48945Y184927D01*
X48882Y184875D01*
X48822Y184820D01*
X48764Y184762D01*
X48709Y184702D01*
X48657Y184639D01*
X48608Y184574D01*
X48562Y184506D01*
X48520Y184437D01*
X48481Y184365D01*
X48445Y184291D01*
X48413Y184216D01*
X48384Y184140D01*
X48359Y184062D01*
X48338Y183983D01*
X48321Y183904D01*
X48307Y183823D01*
X48298Y183742D01*
X48292Y183661D01*
X48290Y183579D01*
X50005Y185293D02*
X50097Y185291D01*
X50189Y185285D01*
X50281Y185276D01*
X50373Y185262D01*
X50463Y185245D01*
X50553Y185224D01*
X50642Y185199D01*
X50730Y185170D01*
X50817Y185138D01*
X50902Y185102D01*
X50985Y185063D01*
X51067Y185020D01*
X51147Y184974D01*
X51225Y184924D01*
X51301Y184872D01*
X51374Y184816D01*
X51445Y184757D01*
X51514Y184695D01*
X51580Y184630D01*
X51643Y184563D01*
X51703Y184493D01*
X51761Y184421D01*
X51815Y184346D01*
X51866Y184269D01*
X51914Y184190D01*
X51958Y184109D01*
X51999Y184026D01*
X52037Y183942D01*
X52071Y183856D01*
X52101Y183769D01*
X48862Y182245D02*
X48803Y182304D01*
X48747Y182365D01*
X48694Y182428D01*
X48643Y182494D01*
X48596Y182562D01*
X48552Y182632D01*
X48511Y182704D01*
X48473Y182778D01*
X48439Y182853D01*
X48408Y182930D01*
X48381Y183008D01*
X48357Y183088D01*
X48336Y183168D01*
X48320Y183249D01*
X48307Y183331D01*
X48297Y183413D01*
X48292Y183496D01*
X48290Y183579D01*
X48862Y182245D02*
X52101Y178435D01*
X48291Y178435D01*
X44786Y181864D02*
X44784Y182006D01*
X44779Y182149D01*
X44770Y182291D01*
X44757Y182433D01*
X44741Y182574D01*
X44722Y182715D01*
X44698Y182856D01*
X44672Y182996D01*
X44641Y183135D01*
X44607Y183273D01*
X44570Y183411D01*
X44530Y183547D01*
X44485Y183683D01*
X44438Y183817D01*
X44387Y183950D01*
X44333Y184082D01*
X44275Y184212D01*
X44214Y184341D01*
X44215Y184340D02*
X44189Y184409D01*
X44160Y184475D01*
X44128Y184541D01*
X44093Y184604D01*
X44054Y184666D01*
X44012Y184726D01*
X43967Y184783D01*
X43919Y184838D01*
X43868Y184890D01*
X43815Y184940D01*
X43759Y184986D01*
X43701Y185030D01*
X43640Y185071D01*
X43578Y185109D01*
X43514Y185143D01*
X43448Y185174D01*
X43380Y185202D01*
X43311Y185226D01*
X43241Y185246D01*
X43170Y185263D01*
X43099Y185276D01*
X43027Y185285D01*
X42954Y185291D01*
X42881Y185293D01*
X42808Y185291D01*
X42735Y185285D01*
X42663Y185276D01*
X42592Y185263D01*
X42521Y185246D01*
X42451Y185226D01*
X42382Y185202D01*
X42314Y185174D01*
X42248Y185143D01*
X42184Y185109D01*
X42122Y185071D01*
X42061Y185030D01*
X42003Y184986D01*
X41947Y184940D01*
X41894Y184890D01*
X41843Y184838D01*
X41795Y184783D01*
X41750Y184726D01*
X41708Y184666D01*
X41669Y184604D01*
X41634Y184541D01*
X41602Y184475D01*
X41573Y184409D01*
X41547Y184340D01*
X41547Y184341D02*
X41486Y184212D01*
X41428Y184082D01*
X41374Y183950D01*
X41323Y183817D01*
X41276Y183683D01*
X41231Y183547D01*
X41191Y183411D01*
X41154Y183273D01*
X41120Y183135D01*
X41089Y182996D01*
X41063Y182856D01*
X41039Y182715D01*
X41020Y182574D01*
X41004Y182433D01*
X40991Y182291D01*
X40982Y182149D01*
X40977Y182006D01*
X40975Y181864D01*
X44786Y181864D02*
X44784Y181722D01*
X44779Y181579D01*
X44770Y181437D01*
X44757Y181295D01*
X44741Y181154D01*
X44722Y181013D01*
X44698Y180872D01*
X44672Y180732D01*
X44641Y180593D01*
X44607Y180455D01*
X44570Y180317D01*
X44530Y180181D01*
X44485Y180045D01*
X44438Y179911D01*
X44387Y179778D01*
X44333Y179646D01*
X44275Y179516D01*
X44214Y179387D01*
X44215Y179388D02*
X44189Y179319D01*
X44160Y179253D01*
X44128Y179187D01*
X44093Y179124D01*
X44054Y179062D01*
X44012Y179002D01*
X43967Y178945D01*
X43919Y178890D01*
X43868Y178838D01*
X43815Y178788D01*
X43759Y178742D01*
X43701Y178698D01*
X43640Y178657D01*
X43578Y178619D01*
X43514Y178585D01*
X43448Y178554D01*
X43380Y178526D01*
X43311Y178502D01*
X43241Y178482D01*
X43170Y178465D01*
X43099Y178452D01*
X43027Y178443D01*
X42954Y178437D01*
X42881Y178435D01*
X41547Y179387D02*
X41486Y179516D01*
X41428Y179646D01*
X41374Y179778D01*
X41323Y179911D01*
X41276Y180045D01*
X41231Y180181D01*
X41191Y180317D01*
X41154Y180455D01*
X41120Y180593D01*
X41089Y180732D01*
X41063Y180872D01*
X41039Y181013D01*
X41020Y181154D01*
X41004Y181295D01*
X40991Y181437D01*
X40982Y181579D01*
X40977Y181722D01*
X40975Y181864D01*
X41547Y179388D02*
X41573Y179319D01*
X41602Y179253D01*
X41634Y179187D01*
X41669Y179124D01*
X41708Y179062D01*
X41750Y179002D01*
X41795Y178945D01*
X41843Y178890D01*
X41894Y178838D01*
X41947Y178788D01*
X42003Y178742D01*
X42061Y178698D01*
X42122Y178657D01*
X42184Y178619D01*
X42248Y178585D01*
X42314Y178554D01*
X42382Y178526D01*
X42451Y178502D01*
X42521Y178482D01*
X42592Y178465D01*
X42663Y178452D01*
X42735Y178443D01*
X42808Y178437D01*
X42881Y178435D01*
X44405Y179959D02*
X41357Y183769D01*
X35375Y185294D02*
X35293Y185292D01*
X35212Y185286D01*
X35131Y185277D01*
X35050Y185263D01*
X34971Y185246D01*
X34892Y185225D01*
X34814Y185200D01*
X34738Y185171D01*
X34663Y185139D01*
X34589Y185103D01*
X34518Y185064D01*
X34448Y185022D01*
X34380Y184976D01*
X34315Y184927D01*
X34252Y184875D01*
X34192Y184820D01*
X34134Y184762D01*
X34079Y184702D01*
X34027Y184639D01*
X33978Y184574D01*
X33932Y184506D01*
X33890Y184437D01*
X33851Y184365D01*
X33815Y184291D01*
X33783Y184216D01*
X33754Y184140D01*
X33729Y184062D01*
X33708Y183983D01*
X33691Y183904D01*
X33677Y183823D01*
X33668Y183742D01*
X33662Y183661D01*
X33660Y183579D01*
X35375Y185293D02*
X35467Y185291D01*
X35559Y185285D01*
X35651Y185276D01*
X35743Y185262D01*
X35833Y185245D01*
X35923Y185224D01*
X36012Y185199D01*
X36100Y185170D01*
X36187Y185138D01*
X36272Y185102D01*
X36355Y185063D01*
X36437Y185020D01*
X36517Y184974D01*
X36595Y184924D01*
X36671Y184872D01*
X36744Y184816D01*
X36815Y184757D01*
X36884Y184695D01*
X36950Y184630D01*
X37013Y184563D01*
X37073Y184493D01*
X37131Y184421D01*
X37185Y184346D01*
X37236Y184269D01*
X37284Y184190D01*
X37328Y184109D01*
X37369Y184026D01*
X37407Y183942D01*
X37441Y183856D01*
X37471Y183769D01*
X34232Y182245D02*
X34173Y182304D01*
X34117Y182365D01*
X34064Y182428D01*
X34013Y182494D01*
X33966Y182562D01*
X33922Y182632D01*
X33881Y182704D01*
X33843Y182778D01*
X33809Y182853D01*
X33778Y182930D01*
X33751Y183008D01*
X33727Y183088D01*
X33706Y183168D01*
X33690Y183249D01*
X33677Y183331D01*
X33667Y183413D01*
X33662Y183496D01*
X33660Y183579D01*
X34232Y182245D02*
X37470Y178435D01*
X33660Y178435D01*
X30155Y178435D02*
X28250Y178435D01*
X28165Y178437D01*
X28079Y178443D01*
X27994Y178452D01*
X27910Y178466D01*
X27826Y178483D01*
X27743Y178504D01*
X27661Y178528D01*
X27581Y178556D01*
X27501Y178588D01*
X27423Y178624D01*
X27347Y178662D01*
X27273Y178705D01*
X27201Y178750D01*
X27130Y178799D01*
X27062Y178851D01*
X26997Y178905D01*
X26934Y178963D01*
X26873Y179024D01*
X26815Y179087D01*
X26761Y179152D01*
X26709Y179220D01*
X26660Y179291D01*
X26615Y179363D01*
X26572Y179437D01*
X26534Y179513D01*
X26498Y179591D01*
X26466Y179671D01*
X26438Y179751D01*
X26414Y179833D01*
X26393Y179916D01*
X26376Y180000D01*
X26362Y180084D01*
X26353Y180169D01*
X26347Y180255D01*
X26345Y180340D01*
X26347Y180425D01*
X26353Y180511D01*
X26362Y180596D01*
X26376Y180680D01*
X26393Y180764D01*
X26414Y180847D01*
X26438Y180929D01*
X26466Y181009D01*
X26498Y181089D01*
X26534Y181167D01*
X26572Y181243D01*
X26615Y181317D01*
X26660Y181389D01*
X26709Y181460D01*
X26761Y181528D01*
X26815Y181593D01*
X26873Y181656D01*
X26934Y181717D01*
X26997Y181775D01*
X27062Y181829D01*
X27130Y181881D01*
X27201Y181930D01*
X27273Y181975D01*
X27347Y182018D01*
X27423Y182056D01*
X27501Y182092D01*
X27581Y182124D01*
X27661Y182152D01*
X27743Y182176D01*
X27826Y182197D01*
X27910Y182214D01*
X27994Y182228D01*
X28079Y182237D01*
X28165Y182243D01*
X28250Y182245D01*
X27869Y185293D02*
X30155Y185293D01*
X27869Y185293D02*
X27792Y185291D01*
X27715Y185285D01*
X27638Y185275D01*
X27562Y185262D01*
X27487Y185244D01*
X27413Y185223D01*
X27340Y185198D01*
X27268Y185169D01*
X27198Y185137D01*
X27129Y185102D01*
X27063Y185062D01*
X26998Y185020D01*
X26936Y184974D01*
X26876Y184925D01*
X26819Y184874D01*
X26764Y184819D01*
X26713Y184762D01*
X26664Y184702D01*
X26618Y184640D01*
X26576Y184575D01*
X26536Y184509D01*
X26501Y184440D01*
X26469Y184370D01*
X26440Y184298D01*
X26415Y184225D01*
X26394Y184151D01*
X26376Y184076D01*
X26363Y184000D01*
X26353Y183923D01*
X26347Y183846D01*
X26345Y183769D01*
X26347Y183692D01*
X26353Y183615D01*
X26363Y183538D01*
X26376Y183462D01*
X26394Y183387D01*
X26415Y183313D01*
X26440Y183240D01*
X26469Y183168D01*
X26501Y183098D01*
X26536Y183029D01*
X26576Y182963D01*
X26618Y182898D01*
X26664Y182836D01*
X26713Y182776D01*
X26764Y182719D01*
X26819Y182664D01*
X26876Y182613D01*
X26936Y182564D01*
X26998Y182518D01*
X27063Y182476D01*
X27129Y182436D01*
X27198Y182401D01*
X27268Y182369D01*
X27340Y182340D01*
X27413Y182315D01*
X27487Y182294D01*
X27562Y182276D01*
X27638Y182263D01*
X27715Y182253D01*
X27792Y182247D01*
X27869Y182245D01*
X29393Y182245D01*
D12*
X27389Y88519D02*
X27389Y79121D01*
X27389Y88519D02*
X24778Y88519D01*
X24677Y88517D01*
X24576Y88511D01*
X24475Y88501D01*
X24375Y88488D01*
X24275Y88470D01*
X24176Y88449D01*
X24078Y88423D01*
X23981Y88394D01*
X23885Y88362D01*
X23791Y88325D01*
X23698Y88285D01*
X23606Y88241D01*
X23517Y88194D01*
X23429Y88143D01*
X23343Y88089D01*
X23260Y88032D01*
X23178Y87972D01*
X23100Y87908D01*
X23023Y87842D01*
X22950Y87772D01*
X22879Y87700D01*
X22811Y87625D01*
X22746Y87547D01*
X22684Y87467D01*
X22625Y87385D01*
X22569Y87300D01*
X22517Y87214D01*
X22468Y87125D01*
X22422Y87034D01*
X22381Y86942D01*
X22342Y86848D01*
X22308Y86753D01*
X22277Y86657D01*
X22250Y86559D01*
X22226Y86461D01*
X22207Y86361D01*
X22191Y86261D01*
X22179Y86161D01*
X22171Y86060D01*
X22167Y85959D01*
X22167Y85857D01*
X22171Y85756D01*
X22179Y85655D01*
X22191Y85555D01*
X22207Y85455D01*
X22226Y85355D01*
X22250Y85257D01*
X22277Y85159D01*
X22308Y85063D01*
X22342Y84968D01*
X22381Y84874D01*
X22422Y84782D01*
X22468Y84691D01*
X22517Y84603D01*
X22569Y84516D01*
X22625Y84431D01*
X22684Y84349D01*
X22746Y84269D01*
X22811Y84191D01*
X22879Y84116D01*
X22950Y84044D01*
X23023Y83974D01*
X23100Y83908D01*
X23178Y83844D01*
X23260Y83784D01*
X23343Y83727D01*
X23429Y83673D01*
X23517Y83622D01*
X23606Y83575D01*
X23698Y83531D01*
X23791Y83491D01*
X23885Y83454D01*
X23981Y83422D01*
X24078Y83393D01*
X24176Y83367D01*
X24275Y83346D01*
X24375Y83328D01*
X24475Y83315D01*
X24576Y83305D01*
X24677Y83299D01*
X24778Y83297D01*
X24778Y83298D02*
X27389Y83298D01*
X24256Y83298D02*
X22168Y79121D01*
X18302Y86431D02*
X15692Y88519D01*
X15692Y79121D01*
X18302Y79121D02*
X13081Y79121D01*
D11*
X190500Y100330D02*
X190500Y57150D01*
X210820Y57150D01*
X210820Y100330D01*
X190500Y100330D01*
D12*
X204169Y106553D02*
X205805Y106553D01*
X205883Y106555D01*
X205961Y106560D01*
X206038Y106570D01*
X206115Y106583D01*
X206191Y106599D01*
X206266Y106619D01*
X206340Y106643D01*
X206413Y106670D01*
X206485Y106701D01*
X206555Y106735D01*
X206624Y106772D01*
X206690Y106813D01*
X206755Y106857D01*
X206817Y106903D01*
X206877Y106953D01*
X206935Y107005D01*
X206990Y107060D01*
X207042Y107118D01*
X207092Y107178D01*
X207138Y107240D01*
X207182Y107305D01*
X207223Y107372D01*
X207260Y107440D01*
X207294Y107510D01*
X207325Y107582D01*
X207352Y107655D01*
X207376Y107729D01*
X207396Y107804D01*
X207412Y107880D01*
X207425Y107957D01*
X207435Y108034D01*
X207440Y108112D01*
X207442Y108190D01*
X207442Y112282D01*
X207440Y112360D01*
X207435Y112438D01*
X207425Y112515D01*
X207412Y112592D01*
X207396Y112668D01*
X207376Y112743D01*
X207352Y112817D01*
X207325Y112890D01*
X207294Y112962D01*
X207260Y113032D01*
X207223Y113101D01*
X207182Y113167D01*
X207138Y113232D01*
X207092Y113294D01*
X207042Y113354D01*
X206990Y113412D01*
X206935Y113467D01*
X206877Y113519D01*
X206817Y113569D01*
X206755Y113615D01*
X206690Y113659D01*
X206624Y113700D01*
X206555Y113737D01*
X206485Y113771D01*
X206413Y113802D01*
X206340Y113829D01*
X206266Y113853D01*
X206191Y113873D01*
X206115Y113889D01*
X206038Y113902D01*
X205961Y113912D01*
X205883Y113917D01*
X205805Y113919D01*
X204169Y113919D01*
X201323Y112282D02*
X199277Y113919D01*
X199277Y106553D01*
X201323Y106553D02*
X197231Y106553D01*
M02*
